<?xml version="1.0" encoding="UTF-8"?>
<!-- Generator: Adobe Illustrator 25.1.0, SVG Export Plug-In . SVG Version: 6.00 Build 0)  -->
<svg xmlns="http://www.w3.org/2000/svg" xmlns:xlink="http://www.w3.org/1999/xlink" version="1.1" id="Capa_1" x="0px" y="0px" viewBox="0 0 500 500" style="enable-background:new 0 0 500 500;" xml:space="preserve" width="512" height="512">
<g>
	<g>
		<path style="fill:#B5D395;" d="M397.053,264.236c0,0,13.896,21.832,35.832,34.358c21.936,12.526-5.866,9.218-5.866,9.218    s20.965,6.294,10.237,9.605c-10.728,3.312-18.072,0-18.072,0s7.001,9.669,4.066,9.669s-52.099-4.489-62.983-34.076    C352.948,273.115,397.053,264.236,397.053,264.236z"/>
		<path style="fill:#B5D395;" d="M153.841,293.192c0,0-5.215,25.349,1.82,49.61c7.035,24.261-10.628,2.537-10.628,2.537    s10.675,19.11,0.666,14.022c-10.009-5.088-12.977-12.577-12.977-12.577s-1.702,11.816-3.809,9.773    c-2.108-2.043-34.288-39.482-21.513-68.303C115.99,268.873,153.841,293.192,153.841,293.192z"/>
		<path style="fill:#B5D395;" d="M357.952,274.339c0,0,6.093,31.043,25.484,55.073c19.391,24.03-10.784,7.88-10.784,7.88    s21.062,16.503,7.374,15.494s-20.571-8.05-20.571-8.05s3.663,14.125,0.321,12.818c-3.341-1.308-57.306-28.318-56.517-66.846    C303.79,264.798,357.952,274.339,357.952,274.339z"/>
		<g>
			<path style="fill:#B5D395;" d="M392.893,160.396c0,0-12.622-17.643-21.883-18.337c-9.261-0.694,0,34.44,0,34.44     S391.211,176.65,392.893,160.396z"/>
			<path style="fill:#251626;" d="M435.409,229.911c-0.688,0-1.091-0.662-4.063-6.033c-2.553-4.614-7.863-14.212-9.778-14.763     c-0.076-0.021-0.158-0.031-0.311,0.076c-1.694,1.163-3.084,8.842-3.53,13.925c-0.041,0.483-0.48,0.843-0.955,0.8     c-0.483-0.043-0.843-0.47-0.8-0.955c0.191-2.181,1.299-13.172,4.287-15.224c0.557-0.382,1.184-0.492,1.796-0.315     c2.424,0.697,6.177,7.189,10.832,15.602c0.575,1.039,1.158,2.092,1.665,2.986c-0.026-0.378-0.052-0.771-0.079-1.161     c-0.886-12.802-0.919-20.498,1.531-21.964c0.384-0.229,1.178-0.513,2.231,0.15c3.877,2.444,10.504,9.146,13.908,12.705     c-1.204-6.098-3.179-17.98-0.948-20.864c0.403-0.52,0.936-0.807,1.545-0.829c3.12-0.079,9.339,3.75,13.194,6.399     c-2.348-4.416-5.692-11.672-4.172-14.708c0.315-0.626,0.979-1.404,2.357-1.54c4.777-0.47,11.668,1.751,15.055,2.995     c-4.046-9.16-5.475-14.388-4.249-15.551c1.584-1.49,10.648,1.4,17.971,4.096c0.456,0.167,0.69,0.673,0.521,1.13     c-0.167,0.458-0.669,0.692-1.13,0.521c-6.649-2.446-14.508-4.763-16.101-4.45c-0.248,1.584,2.589,9.141,5.469,15.484     c0.15,0.33,0.083,0.717-0.169,0.977c-0.253,0.263-0.643,0.341-0.972,0.2c-0.103-0.043-10.258-4.228-16.22-3.65     c-0.623,0.062-0.838,0.342-0.956,0.578c-1.282,2.555,3.043,11.474,6.069,16.495c0.217,0.361,0.148,0.826-0.165,1.108     c-0.315,0.286-0.784,0.304-1.12,0.05c-3.115-2.346-11.859-8.374-15.22-8.374c-0.072,0.002-0.115-0.105-0.313,0.148     c-1.724,2.228,0.258,14.964,1.913,22.469c0.086,0.389-0.1,0.786-0.452,0.97c-0.351,0.182-0.784,0.11-1.054-0.184     c-0.107-0.114-10.626-11.486-15.699-14.685c-0.069-0.043-0.298-0.165-0.387-0.127c-2.002,1.197-1.006,15.597-0.679,20.329     c0.232,3.353,0.272,4.11,0.158,4.495c-0.1,0.341-0.44,0.638-0.793,0.676C435.529,229.906,435.469,229.911,435.409,229.911z"/>
			<path style="fill:#251626;" d="M406.831,209.687c-2.396,0.002-6.747-7.431-12.94-22.117c-0.189-0.449,0.021-0.965,0.469-1.154     c0.447-0.186,0.966,0.019,1.154,0.47c4.033,9.563,9.365,20.142,11.149,21.017c1.325-1.378,2.465-12.379,2.773-22.06     c0.012-0.385,0.273-0.717,0.643-0.821c0.372-0.101,0.767,0.045,0.975,0.368c4.705,7.235,12.664,16.86,15.678,15.566     c2.988-1.276,0.974-14.627-1.412-23.699c-0.095-0.361,0.048-0.743,0.358-0.953c0.306-0.21,0.717-0.203,1.017,0.021     c6.384,4.71,17.546,11.992,20.362,11.369c0.165-0.034,0.193-0.084,0.203-0.101c1.35-2.376-2.622-15.64-5.443-23.443     c-0.122-0.334-0.029-0.709,0.234-0.95c0.261-0.239,0.638-0.298,0.967-0.148c5.166,2.412,19.385,8.673,23.097,8.697     c1.228-1.065-2.513-11.274-7.927-21.855c-0.157-0.306-0.12-0.676,0.093-0.946c0.215-0.27,0.569-0.392,0.9-0.31     c10.982,2.677,21.033,3.905,21.943,2.675c0.726-1.318-4.779-9.451-12.019-17.756c-0.32-0.366-0.282-0.922,0.086-1.242     c0.365-0.318,0.922-0.286,1.242,0.086c4.326,4.961,14.173,16.832,12.16,19.884c-1.815,2.756-14.799,0.179-21.979-1.495     c2.96,5.947,8.967,18.817,7.096,21.855c-0.344,0.559-0.908,0.865-1.591,0.865c-0.005,0-0.009,0-0.014,0     c-3.991-0.026-16.999-5.752-21.936-7.992c2.014,5.801,6.495,19.65,4.622,22.944c-0.196,0.344-0.592,0.79-1.368,0.955     c-3.788,0.8-14.842-6.709-19.81-10.252c1.552,6.508,4.528,21.396-0.189,23.412c-4.596,1.961-12.687-8.708-16.328-13.97     c-0.366,8.5-1.342,20.185-3.929,21.028C407.06,209.67,406.948,209.687,406.831,209.687z"/>
			<path style="fill:#B5D395;" d="M328.817,278.506c0,0-19.406-47.919,12.907-94.163c0,0-3.494-32.049,5.315-30.389     c8.809,1.66,19.837,14.167,19.837,14.167l70.143-42.24c0,0-13.632-20.435-0.6-16.392s45.303,19.234,45.303,19.234     s-56.778,84.619-98.712,64.94c0,0,16.945,29.709,50.706,31.446s56.221-61.496,56.221-61.496s6.003,1.53,9.864,25.772     C503.663,213.628,451.318,289.876,328.817,278.506z"/>
			<path style="fill:#251626;" d="M361.011,185.487c-3.817,0-10.254-7.891-12.282-10.507c-0.298-0.385-0.228-0.938,0.157-1.237     c0.384-0.296,0.938-0.227,1.235,0.157c4.153,5.358,9.615,10.564,11.123,9.783c0.364-0.189,1.972-1.801-2.093-15.052     c-0.143-0.464,0.119-0.958,0.584-1.099c0.464-0.148,0.957,0.119,1.1,0.583c4.167,13.584,2.841,16.29,1.22,17.132     C361.737,185.411,361.386,185.487,361.011,185.487z"/>
			<path style="fill:#251626;" d="M383.234,168.262c-3.817,0-10.254-7.891-12.282-10.507c-0.298-0.385-0.228-0.938,0.157-1.237     c0.384-0.296,0.937-0.227,1.235,0.157c4.153,5.358,9.625,10.569,11.122,9.783c0.364-0.189,1.972-1.801-2.093-15.052     c-0.143-0.464,0.119-0.958,0.584-1.099c0.464-0.148,0.958,0.119,1.1,0.583c4.167,13.584,2.841,16.29,1.22,17.132     C383.959,168.187,383.609,168.262,383.234,168.262z"/>
			<path style="fill:#251626;" d="M447.523,127.599c-0.229,0-0.458-0.088-0.63-0.265c-3.757-3.84-7.935-8.821-6.506-10.739     c0.882-1.177,2.923-1.184,10.051,2.57c0.43,0.227,0.595,0.759,0.368,1.19c-0.229,0.432-0.759,0.593-1.19,0.368     c-6.554-3.452-7.76-3.074-7.88-3.017c-0.088,0.783,2.864,4.763,6.416,8.396c0.341,0.347,0.334,0.905-0.014,1.245     C447.967,127.514,447.745,127.599,447.523,127.599z"/>
			
				<ellipse transform="matrix(0.7071 -0.7071 0.7071 0.7071 -38.6767 313.6283)" style="fill:#D6998C;" cx="359.245" cy="203.501" rx="8.086" ry="8.03"/>
		</g>
		<path style="fill:#B5D395;" d="M202.972,283.494c0,0,0.178,31.15,27.632,54.027c23.722,19.767-10.465,8.299-10.465,8.299    s21.695,15.661,7.978,15.192c-13.716-0.469-20.872-7.234-20.872-7.234s4.216,13.97,0.826,12.795    c-3.39-1.175-46.512-22.27-49.789-47.977C155.004,292.888,202.972,283.494,202.972,283.494z"/>
		<path style="fill:#B5D395;" d="M102.343,325.467c21.93,2.033,152.209-0.807,188.93-4.296    c38.836-3.69,120.246-60.939,120.246-60.939c-2.591,1.262-13.765,2.668-30.399,4.131c-0.756-10.337-44.378-72.182-44.378-72.182    s-19.003-16.706-21.032-10.756c-2.029,5.95-10.346,18.244-10.346,18.244s-19.993-17.364-25.046-11.48    c-5.053,5.884-13.906,25.19-13.906,25.19s-13.288-23.876-20.545-18.755s-18.26,27.139-18.26,27.139s-14.642-24.723-21.053-19.595    c-6.411,5.128-14.711,28.442-14.711,28.442l-21.693-21.56c-8.312-3.839-16.744,27.324-16.744,27.324s-19.583-14.256-26.04-13.72    c-3.322,0.276-10.382,14.635-15.168,29.635c-7.387-7.443-21.06-20.573-24.903-19.852c-4.379,0.821-10.862,23.611-13.066,31.835    c-6.18-6.436-26.402-26.654-29.627-19.141c-3.815,8.888-7.359,33.369-7.359,33.369s-26.182-15.488-30.028-6.888    c-2.474,5.531-1.21,25.353,0.006,38.804c-7.108,11.801-9.667,26.005-4.484,43.037c12.797,42.054,53.902,34.977,113.595,35.239    c59.693,0.262,106.533,10.818,106.533,10.818C201.138,324.744,84.692,392.9,63.73,360.284    C48.773,337.008,82.051,328.457,102.343,325.467z"/>
		<path style="fill:#EBE99A;" d="M218.212,323.962c0,0-18.628-18.244-8.403-23.005c10.225-4.762,66.791-14.698,85.963-7.765    c8.969,3.243,14.794,23.3,14.794,23.3S295.772,326.632,218.212,323.962z"/>
		<path style="fill:#EBE99A;" d="M89.623,369.768c-26.331,0.008-53.202-7.234-38.333-36.403s76.808-30.078,87.41-25.089    c10.602,4.989,22.101,18.819,22.101,18.819s-64.126-3.513-79.559,3.76c-15.432,7.273-15.774,15.764-15.973,23.491    S89.623,369.768,89.623,369.768z"/>
		<path style="fill:#251626;" d="M134.336,326.568c-0.418,0-0.789-0.298-0.866-0.724l-3.473-19.172    c-0.086-0.478,0.231-0.936,0.71-1.023c0.486-0.079,0.937,0.23,1.024,0.71l3.473,19.172c0.086,0.478-0.231,0.936-0.71,1.024    C134.441,326.563,134.387,326.568,134.336,326.568z"/>
		<path style="fill:#251626;" d="M109.796,327.481c-0.421,0-0.792-0.301-0.867-0.729l-3.49-20.085    c-0.083-0.48,0.237-0.936,0.717-1.018c0.479-0.095,0.935,0.236,1.018,0.716l3.49,20.085c0.083,0.48-0.237,0.936-0.717,1.018    C109.897,327.478,109.846,327.481,109.796,327.481z"/>
		<path style="fill:#251626;" d="M90.602,329.226c-0.355,0-0.69-0.217-0.823-0.568l-6.614-17.431    c-0.173-0.456,0.056-0.963,0.511-1.137c0.454-0.169,0.962,0.057,1.135,0.511l6.614,17.431c0.173,0.456-0.056,0.963-0.511,1.137    C90.812,329.207,90.706,329.226,90.602,329.226z"/>
		<path style="fill:#251626;" d="M74.978,335.284c-0.291,0-0.575-0.143-0.743-0.406l-9.433-14.775    c-0.261-0.411-0.142-0.955,0.268-1.218c0.409-0.26,0.955-0.143,1.216,0.268l9.433,14.775c0.261,0.411,0.142,0.955-0.268,1.218    C75.304,335.24,75.139,335.284,74.978,335.284z"/>
		<path style="fill:#251626;" d="M66.538,345.75c-0.151,0-0.303-0.038-0.443-0.12l-16.233-9.461    c-0.42-0.244-0.562-0.784-0.317-1.204c0.247-0.42,0.785-0.564,1.205-0.317l16.233,9.461c0.42,0.244,0.562,0.784,0.317,1.204    C67.136,345.593,66.841,345.75,66.538,345.75z"/>
		<path style="fill:#251626;" d="M50.305,359.046c-0.428,0-0.804-0.313-0.87-0.75c-0.072-0.48,0.259-0.929,0.741-1.001L65.413,355    c0.477-0.076,0.929,0.258,1.002,0.74c0.072,0.48-0.259,0.929-0.741,1.001l-15.238,2.295    C50.393,359.042,50.348,359.046,50.305,359.046z"/>
		<path style="fill:#251626;" d="M234.675,324.843c-0.403,0-0.767-0.279-0.858-0.69l-6.231-27.931    c-0.107-0.475,0.193-0.944,0.667-1.051c0.476-0.098,0.946,0.193,1.051,0.669l6.231,27.931c0.107,0.473-0.193,0.944-0.667,1.051    C234.803,324.836,234.738,324.843,234.675,324.843z"/>
		<path style="fill:#251626;" d="M259.491,324.041c-0.448,0-0.832-0.341-0.876-0.795l-2.922-29.969    c-0.047-0.485,0.307-0.915,0.791-0.963c0.474-0.029,0.915,0.308,0.962,0.791l2.922,29.969c0.047,0.485-0.307,0.915-0.791,0.963    C259.549,324.039,259.52,324.041,259.491,324.041z"/>
		<path style="fill:#251626;" d="M288.045,322.336c-0.353,0-0.688-0.215-0.822-0.564l-11.518-29.988    c-0.175-0.454,0.052-0.965,0.507-1.139c0.452-0.175,0.964,0.053,1.138,0.506l11.518,29.988c0.175,0.454-0.052,0.965-0.507,1.139    C288.257,322.317,288.15,322.336,288.045,322.336z"/>
		<path style="fill:#251626;" d="M240.566,351.36c-2.264,0-8.696-3.406-9.422-3.795c-0.429-0.229-0.591-0.762-0.361-1.19    c0.23-0.43,0.762-0.595,1.192-0.361c2.118,1.132,5.592,2.807,7.542,3.382c-1.021-1.338-3.331-3.702-5.438-5.647    c-0.358-0.329-0.38-0.886-0.051-1.244c0.33-0.359,0.887-0.38,1.245-0.05c7.09,6.54,6.64,7.691,6.448,8.183    C241.543,351.09,241.112,351.36,240.566,351.36z"/>
		<path style="fill:#251626;" d="M231.666,361.297c-0.885,0-3.297-0.421-10.619-2.917c-0.461-0.158-0.707-0.659-0.55-1.118    c0.157-0.461,0.662-0.7,1.117-0.55c3.423,1.168,7.403,2.377,9.182,2.735c-0.577-1.02-1.853-2.764-3.032-4.192    c-0.311-0.375-0.257-0.931,0.118-1.24c0.378-0.311,0.931-0.256,1.239,0.119c4.067,4.922,3.798,5.978,3.71,6.325    c-0.089,0.349-0.328,0.624-0.657,0.757C232.094,361.247,231.971,361.297,231.666,361.297z"/>
		<path style="fill:#251626;" d="M209.828,367.523c-0.018,0-0.037,0-0.055,0c-1.866-0.076-6.752-3.628-8.205-4.715    c-0.39-0.291-0.47-0.843-0.178-1.233c0.292-0.389,0.843-0.47,1.233-0.177c2.342,1.751,5.242,3.637,6.627,4.199    c-0.317-1.435-1.812-4.815-3.287-7.624c-0.226-0.43-0.06-0.963,0.371-1.189c0.434-0.227,0.962-0.058,1.19,0.37    c2.868,5.463,3.987,8.766,3.322,9.817C210.622,367.323,210.253,367.523,209.828,367.523z"/>
		<path style="fill:#251626;" d="M389.582,341.357c-2.264,0-8.696-3.404-9.422-3.791c-0.429-0.231-0.591-0.764-0.361-1.192    c0.228-0.43,0.764-0.592,1.192-0.363c2.118,1.134,5.592,2.807,7.542,3.382c-1.022-1.338-3.332-3.702-5.439-5.647    c-0.358-0.329-0.38-0.886-0.051-1.244c0.329-0.36,0.888-0.38,1.245-0.05c7.091,6.54,6.641,7.691,6.448,8.183    C390.56,341.087,390.128,341.357,389.582,341.357z"/>
		<path style="fill:#251626;" d="M380.682,351.296c-0.887,0-3.298-0.423-10.619-2.917c-0.461-0.158-0.707-0.659-0.55-1.118    c0.157-0.459,0.661-0.702,1.117-0.55c3.423,1.168,7.405,2.377,9.183,2.735c-0.577-1.02-1.853-2.763-3.033-4.192    c-0.31-0.375-0.257-0.931,0.118-1.24c0.377-0.31,0.932-0.256,1.239,0.119c4.067,4.92,3.799,5.976,3.71,6.325    c-0.088,0.348-0.327,0.623-0.655,0.757C381.112,351.246,380.987,351.296,380.682,351.296z"/>
		<path style="fill:#251626;" d="M358.844,357.521c-0.018,0-0.036,0-0.055,0c-1.866-0.076-6.752-3.628-8.205-4.715    c-0.39-0.291-0.47-0.843-0.178-1.233c0.291-0.389,0.844-0.47,1.233-0.177c2.342,1.751,5.241,3.637,6.627,4.199    c-0.317-1.436-1.813-4.815-3.288-7.624c-0.226-0.43-0.06-0.963,0.371-1.189c0.431-0.227,0.962-0.059,1.19,0.37    c2.868,5.463,3.987,8.766,3.323,9.817C359.638,357.322,359.269,357.521,358.844,357.521z"/>
		<path style="fill:#251626;" d="M368.667,306.844c-0.278,0-0.551-0.131-0.722-0.375c-0.341-0.489-8.346-12.016-7.157-18.193    c0.261-1.35,0.925-2.384,1.976-3.071c3.249-2.128,10.133-3.831,18.847-5.986c7.536-1.863,16.915-4.182,26.479-7.431    c0.461-0.151,0.96,0.088,1.118,0.55c0.157,0.461-0.091,0.962-0.55,1.118c-9.637,3.272-19.056,5.601-26.624,7.473    c-8.551,2.116-15.306,3.786-18.305,5.749c-0.646,0.423-1.042,1.055-1.211,1.932c-0.871,4.524,4.664,13.696,6.87,16.848    c0.279,0.399,0.182,0.948-0.217,1.227C369.017,306.792,368.841,306.844,368.667,306.844z"/>
		<path style="fill:#251626;" d="M198.551,383.689c-0.364,0-0.704-0.227-0.831-0.588c-2.543-7.233-7.61-19.113-10.382-20.202    c-0.224-0.086-0.315-0.038-0.36-0.017c-3.077,1.62-9.975,12.348-12.373,16.342c-0.163,0.274-0.433,0.421-0.78,0.428    c-0.317-0.009-0.606-0.189-0.754-0.471c-2.508-4.763-9.855-17.34-13.68-18.31c-0.428-0.107-0.65-0.005-0.782,0.084    c-3.416,2.286-8.42,15.165-10.059,19.935c-0.113,0.33-0.409,0.561-0.755,0.592c-0.341,0.022-0.679-0.146-0.847-0.451    c-3.836-6.912-11.105-18.045-14.281-18.487c-0.259-0.034-0.427,0.015-0.59,0.179c-3.754,3.772-14.698,19.493-14.808,19.652    c-0.185,0.267-0.501,0.411-0.822,0.373c-0.322-0.036-0.598-0.246-0.718-0.547c-1.671-4.158-6.861-15.171-10.75-16.201    c-3.108-0.831-9.816,9.026-13.596,16.28c-0.175,0.337-0.549,0.528-0.925,0.461c-0.376-0.062-0.669-0.358-0.727-0.735    c-0.025-0.158-2.526-15.869-9.733-15.977c-0.025,0-0.052,0-0.077,0c-7.413,0-16.553,16.111-16.644,16.275    c-0.188,0.334-0.574,0.507-0.95,0.43c-0.377-0.079-0.658-0.394-0.695-0.778c-0.972-10.013-3.111-18.709-4.672-18.988    c-2.136-0.42-10.338,5.844-15.469,10.387c-0.28,0.248-0.682,0.294-1.011,0.112c-0.326-0.181-0.503-0.547-0.442-0.915    c2.243-13.505,3.039-28.383,0.648-29.003c-3.608-0.956-12.804,4.405-16.041,6.544c-0.281,0.188-0.643,0.194-0.932,0.024    c-0.291-0.172-0.458-0.492-0.431-0.829c0.904-11.383,1.181-30.243-1.925-32.388c-0.179-0.122-0.4-0.205-0.829-0.003    c-2.354,1.113-8.107,11.565-11.18,17.892c-0.212,0.437-0.739,0.619-1.177,0.408c-0.438-0.213-0.62-0.74-0.408-1.178    c0.841-1.732,8.326-16.972,12.012-18.714c1.165-0.549,2.048-0.224,2.583,0.148c4.433,3.06,3.341,24.63,2.811,32.221    c3.501-2.162,11.82-6.9,15.96-5.83c4.663,1.211,2.364,19.91,1.029,28.605c3.925-3.33,11.994-9.762,15.112-9.213    c3.329,0.593,5.106,11.801,5.834,17.942c2.952-4.679,10.168-14.909,16.823-14.909c0.033,0,0.064,0,0.096,0    c6.773,0.102,9.877,10.234,10.968,15.029c2.938-5.264,9.706-16.253,14.437-15c4.626,1.225,9.543,11.668,11.311,15.761    c2.75-3.917,10.837-15.312,14.088-18.577c0.556-0.557,1.281-0.788,2.081-0.683c4.347,0.607,11.869,12.938,14.625,17.701    c1.692-4.617,6.323-16.485,10.095-19.008c0.627-0.42,1.387-0.533,2.194-0.327c4.591,1.165,11.683,13.469,14.075,17.837    c2.346-3.798,8.774-13.841,12.259-15.678c0.387-0.205,1.017-0.382,1.823-0.064c4.429,1.739,10.701,19.265,11.401,21.257    c0.162,0.459-0.08,0.962-0.538,1.123C198.746,383.674,198.648,383.689,198.551,383.689z"/>
		<path style="fill:#251626;" d="M8.558,320.509c-0.022,0-0.042,0-0.064-0.002c-0.486-0.036-0.851-0.458-0.815-0.943    c0.388-5.401,2.517-32.484,6.311-35.12c0.361-0.251,0.978-0.513,1.877-0.342c3.902,0.745,10.766,10.006,13.715,14.226    c0.879-6.668,3.486-24.313,6.814-27.578c0.355-0.347,0.985-0.778,1.995-0.692c4.804,0.275,14.938,11.871,18.548,16.182    c1.577-7.553,6.393-28.559,11.466-30.167c5.164-1.648,17.697,13.769,22.044,19.373c1.494-4.574,5.829-17.501,8.455-21.678    c0.44-0.7,1.139-1.134,2.022-1.257c5.118-0.736,17.421,9.688,21.089,12.902c2-4.302,9.46-19.731,14.927-22.705    c3.112-1.7,16.241,9.712,22.803,15.704c1.995-7.184,6.188-20.71,9.506-20.832c6.974-0.289,16.203,13.18,19.119,17.708    c2.372-5.508,9.75-22.067,13.532-24.11c4.07-2.223,15.467,10.397,20.298,16.068c2.417-9.145,6.531-22.634,9.777-22.684    c0.035,0,0.07,0,0.104,0c7.344,0,16.816,11.629,19.88,15.662c1.78-4.879,7.246-19.581,9.49-22.378    c0.238-0.298,0.677-0.652,1.415-0.654c0.001,0,0.003,0,0.003,0c3.905,0,14.815,12.759,19.003,17.837    c1.234-6.76,4.207-21.236,7.202-22.409c3.853-1.519,15.41,10.347,20.319,15.664c1.534-6.127,6.852-25.069,13.535-23.897    c0.208,0.038,0.395,0.148,0.527,0.313l11.562,14.262c0.307,0.377,0.249,0.932-0.129,1.239c-0.379,0.308-0.933,0.246-1.239-0.131    l-11.334-13.98c-0.013,0-0.027,0-0.04,0c-4.348,0-9.362,14.684-11.556,24.208c-0.074,0.32-0.319,0.571-0.636,0.654    c-0.315,0.088-0.655-0.017-0.875-0.26c-7.739-8.544-17.396-17.242-19.493-16.431c-1.643,0.669-4.625,12.439-6.445,22.96    c-0.059,0.341-0.311,0.616-0.647,0.704c-0.335,0.086-0.689-0.031-0.907-0.299c-8.633-10.688-17.284-19.21-18.914-18.664    c-2.02,2.532-7.721,17.754-9.746,23.405c-0.111,0.308-0.384,0.53-0.709,0.575c-0.334,0.038-0.649-0.095-0.839-0.361    c-0.116-0.163-11.641-16.256-19.424-16.256c-0.028,0-0.055,0-0.084,0c-1.724,0.483-5.777,12.322-8.527,23.011    c-0.083,0.32-0.337,0.566-0.66,0.638c-0.322,0.077-0.66-0.04-0.87-0.294c-7.551-9.062-17.04-18.121-19.207-16.953    c-2.835,1.533-9.572,15.669-13.408,24.797c-0.128,0.306-0.417,0.514-0.747,0.538c-0.328,0.016-0.648-0.141-0.818-0.423    c-3.121-5.162-12.467-18.458-18.451-18.296c-1.49,0.304-5.274,9.888-8.252,20.925c-0.081,0.298-0.311,0.532-0.606,0.618    c-0.298,0.081-0.616,0.01-0.842-0.2c-9.067-8.367-19.994-17.003-21.846-16.423c-5.7,3.103-14.556,22.762-14.645,22.96    c-0.115,0.258-0.347,0.444-0.622,0.502c-0.274,0.052-0.563-0.019-0.772-0.206c-4.316-3.884-16.431-13.81-20.562-13.261    c-0.477,0.067-0.665,0.275-0.774,0.449c-3.025,4.813-8.727,22.696-8.784,22.877c-0.1,0.313-0.366,0.545-0.69,0.602    c-0.328,0.057-0.654-0.076-0.852-0.337c-6.797-8.973-17.87-21.146-21.132-20.094c-3.544,1.123-8.408,19.392-10.641,30.644    c-0.066,0.334-0.321,0.6-0.652,0.683c-0.333,0.077-0.681-0.034-0.896-0.301c-3.758-4.638-14.399-16.729-18.459-16.961    c-0.398-0.019-0.566,0.1-0.661,0.193c-2.917,2.859-5.746,21.785-6.59,28.836c-0.044,0.366-0.311,0.666-0.671,0.752    c-0.36,0.079-0.734-0.062-0.938-0.368c-3.901-5.868-10.822-14.811-13.895-15.398c-0.322-0.062-0.462,0.007-0.541,0.062    c-2.272,1.576-4.618,20.713-5.559,33.799C9.402,320.155,9.015,320.509,8.558,320.509z"/>
		<path style="fill:#251626;" d="M213.36,329.257c-0.052,0-0.103-0.005-0.156-0.014c-3.389-0.606-5.496-5.532-5.584-5.742    c-0.188-0.447,0.022-0.963,0.47-1.153c0.452-0.186,0.965,0.024,1.154,0.47c0.499,1.182,2.24,4.328,4.27,4.691    c0.479,0.086,0.798,0.544,0.712,1.022C214.15,328.957,213.779,329.257,213.36,329.257z"/>
		<path style="fill:#251626;" d="M213.36,336.586c-0.051,0-0.103-0.005-0.156-0.014c-3.389-0.604-5.496-5.532-5.584-5.742    c-0.188-0.447,0.022-0.963,0.47-1.153c0.448-0.188,0.964,0.022,1.153,0.47c0.499,1.182,2.239,4.33,4.27,4.691    c0.478,0.084,0.797,0.542,0.712,1.022C214.151,336.287,213.779,336.586,213.36,336.586z"/>
		<path style="fill:#251626;" d="M201.015,327.899c-0.052,0-0.103-0.005-0.156-0.014c-3.389-0.605-5.496-5.534-5.584-5.744    c-0.188-0.447,0.022-0.963,0.47-1.153c0.449-0.186,0.965,0.024,1.153,0.47c0.499,1.182,2.24,4.33,4.27,4.693    c0.479,0.086,0.798,0.544,0.712,1.022C201.805,327.6,201.434,327.899,201.015,327.899z"/>
		<path style="fill:#251626;" d="M204.56,321.992c-0.052,0-0.103-0.005-0.156-0.014c-3.389-0.606-5.496-5.534-5.584-5.744    c-0.188-0.447,0.022-0.963,0.47-1.153c0.447-0.184,0.965,0.024,1.153,0.47c0.499,1.182,2.24,4.33,4.27,4.693    c0.479,0.086,0.798,0.544,0.712,1.022C205.349,321.693,204.979,321.992,204.56,321.992z"/>
		<path style="fill:#251626;" d="M204.56,311.664c-0.052,0-0.103-0.005-0.156-0.014c-3.389-0.606-5.496-5.534-5.584-5.744    c-0.188-0.447,0.022-0.963,0.47-1.153c0.447-0.188,0.965,0.022,1.153,0.47c0.499,1.182,2.24,4.33,4.27,4.693    c0.479,0.086,0.798,0.544,0.712,1.022C205.349,311.365,204.979,311.664,204.56,311.664z"/>
		<path style="fill:#251626;" d="M196.087,314.874c-0.134,0-0.27-0.031-0.398-0.096c-3.069-1.559-3.657-6.888-3.68-7.113    c-0.051-0.483,0.3-0.915,0.784-0.967c0.479-0.045,0.918,0.301,0.968,0.783c0.136,1.276,0.889,4.793,2.727,5.728    c0.434,0.22,0.606,0.75,0.386,1.184C196.717,314.699,196.408,314.874,196.087,314.874z"/>
		<path style="fill:#251626;" d="M365.397,316.796c-0.052,0-0.103-0.005-0.156-0.014c-3.389-0.606-5.496-5.534-5.584-5.744    c-0.188-0.447,0.022-0.963,0.47-1.153c0.448-0.188,0.964,0.024,1.153,0.47c0.499,1.182,2.24,4.33,4.27,4.693    c0.479,0.086,0.798,0.544,0.712,1.022C366.186,316.496,365.816,316.796,365.397,316.796z"/>
		<path style="fill:#251626;" d="M365.397,324.125c-0.052,0-0.103-0.005-0.156-0.014c-3.389-0.606-5.496-5.532-5.584-5.742    c-0.188-0.447,0.022-0.963,0.47-1.153c0.452-0.188,0.965,0.024,1.154,0.47c0.499,1.182,2.24,4.328,4.27,4.691    c0.479,0.086,0.798,0.544,0.712,1.022C366.186,323.826,365.816,324.125,365.397,324.125z"/>
		<path style="fill:#251626;" d="M353.052,315.437c-0.052,0-0.103-0.005-0.156-0.014c-3.389-0.605-5.496-5.532-5.584-5.742    c-0.188-0.447,0.022-0.963,0.47-1.153c0.45-0.186,0.965,0.024,1.154,0.47c0.499,1.182,2.24,4.328,4.27,4.691    c0.479,0.086,0.798,0.544,0.712,1.022C353.841,315.137,353.47,315.437,353.052,315.437z"/>
		<path style="fill:#251626;" d="M356.596,309.531c-0.052,0-0.103-0.005-0.156-0.014c-3.389-0.606-5.496-5.534-5.584-5.744    c-0.188-0.447,0.022-0.963,0.47-1.153c0.447-0.186,0.964,0.024,1.153,0.47c0.499,1.182,2.24,4.33,4.27,4.693    c0.479,0.086,0.798,0.544,0.712,1.022C357.386,309.232,357.015,309.531,356.596,309.531z"/>
		<path style="fill:#251626;" d="M356.596,299.203c-0.052,0-0.103-0.005-0.156-0.014c-3.389-0.606-5.496-5.534-5.584-5.744    c-0.188-0.447,0.022-0.963,0.47-1.153c0.447-0.188,0.964,0.024,1.153,0.47c0.499,1.182,2.24,4.33,4.27,4.693    c0.479,0.086,0.798,0.544,0.712,1.022C357.386,298.904,357.015,299.203,356.596,299.203z"/>
		<path style="fill:#251626;" d="M348.123,302.413c-0.134,0-0.271-0.031-0.399-0.096c-3.068-1.562-3.656-6.888-3.68-7.113    c-0.051-0.483,0.3-0.915,0.784-0.967c0.475-0.043,0.918,0.301,0.968,0.783c0.136,1.276,0.889,4.793,2.728,5.728    c0.434,0.22,0.606,0.75,0.385,1.184C348.754,302.237,348.444,302.413,348.123,302.413z"/>
		<path style="fill:#251626;" d="M422.895,296.487c-3.225,0-6.382-3.619-6.521-3.783c-0.317-0.368-0.275-0.924,0.093-1.242    c0.366-0.313,0.922-0.277,1.242,0.093c0.838,0.97,3.47,3.411,5.505,3.15c0.471-0.064,0.925,0.27,0.993,0.752    c0.067,0.483-0.27,0.927-0.752,0.993C423.266,296.475,423.08,296.487,422.895,296.487z"/>
		<path style="fill:#251626;" d="M425.15,303.46c-3.224,0-6.379-3.618-6.52-3.781c-0.316-0.368-0.275-0.924,0.093-1.24    c0.365-0.318,0.922-0.279,1.242,0.091c0.838,0.97,3.473,3.409,5.505,3.148c0.47-0.064,0.925,0.27,0.993,0.752    c0.067,0.483-0.27,0.927-0.752,0.993C425.523,303.448,425.337,303.46,425.15,303.46z"/>
		<path style="fill:#251626;" d="M410.731,298.995c-3.225,0-6.382-3.619-6.521-3.783c-0.317-0.368-0.275-0.924,0.093-1.242    c0.365-0.315,0.922-0.279,1.242,0.093c0.838,0.97,3.478,3.404,5.505,3.15c0.468-0.058,0.925,0.268,0.993,0.752    s-0.27,0.927-0.752,0.993C411.103,298.983,410.917,298.995,410.731,298.995z"/>
		<path style="fill:#251626;" d="M412.284,292.284c-3.225,0-6.382-3.619-6.521-3.783c-0.317-0.368-0.275-0.924,0.093-1.242    c0.365-0.315,0.922-0.277,1.242,0.093c0.838,0.97,3.442,3.399,5.508,3.15c0.466-0.062,0.925,0.27,0.991,0.753    c0.067,0.482-0.27,0.925-0.753,0.991C412.658,292.272,412.472,292.284,412.284,292.284z"/>
		<path style="fill:#251626;" d="M409.105,282.457c-3.225,0-6.38-3.618-6.521-3.781c-0.317-0.368-0.276-0.924,0.092-1.24    c0.369-0.318,0.923-0.279,1.243,0.091c0.838,0.97,3.444,3.413,5.508,3.148c0.466-0.065,0.925,0.27,0.991,0.753    c0.067,0.482-0.27,0.925-0.753,0.991C409.479,282.445,409.293,282.457,409.105,282.457z"/>
		<path style="fill:#251626;" d="M402.474,288.09c-0.046,0-0.092-0.003-0.139-0.01c-3.399-0.54-5.599-5.429-5.691-5.637    c-0.197-0.444,0.003-0.963,0.448-1.161c0.446-0.2,0.964,0.005,1.162,0.447c0.521,1.173,2.321,4.287,4.358,4.61    c0.48,0.077,0.809,0.528,0.731,1.008C403.274,287.781,402.899,288.09,402.474,288.09z"/>
		<path style="fill:#251626;" d="M462.158,227.74c-0.373,0-0.719-0.239-0.838-0.612c-0.15-0.463,0.107-0.958,0.569-1.108    c1.221-0.392,4.512-1.844,5.054-3.834c0.127-0.466,0.609-0.74,1.082-0.618c0.468,0.127,0.745,0.612,0.618,1.082    c-0.905,3.32-6.002,4.98-6.217,5.049C462.337,227.727,462.246,227.74,462.158,227.74z"/>
		<path style="fill:#251626;" d="M469.461,228.394c-0.373,0-0.719-0.239-0.838-0.612c-0.15-0.463,0.107-0.958,0.569-1.108    c1.221-0.392,4.51-1.844,5.052-3.834c0.127-0.468,0.607-0.745,1.08-0.619c0.47,0.127,0.747,0.611,0.619,1.08    c-0.903,3.323-6,4.983-6.215,5.052C469.639,228.38,469.548,228.394,469.461,228.394z"/>
		<path style="fill:#251626;" d="M469.461,220.397c-0.373,0-0.719-0.239-0.838-0.612c-0.15-0.463,0.107-0.958,0.569-1.108    c1.221-0.392,4.51-1.844,5.052-3.834c0.127-0.468,0.607-0.743,1.08-0.619c0.47,0.127,0.747,0.611,0.619,1.08    c-0.903,3.323-6,4.983-6.215,5.052C469.639,220.383,469.548,220.397,469.461,220.397z"/>
		<path style="fill:#251626;" d="M482.701,218.912c-0.291,0-0.575-0.143-0.743-0.404c-0.261-0.409-0.143-0.955,0.265-1.218    c1.079-0.695,3.881-2.948,3.889-5.011c0.002-0.485,0.396-0.877,0.881-0.877c0.002,0,0.002,0,0.003,0    c0.487,0.002,0.879,0.397,0.877,0.884c-0.014,3.444-4.507,6.365-4.7,6.487C483.028,218.868,482.863,218.912,482.701,218.912z"/>
		<path style="fill:#251626;" d="M459.705,239.914c-0.373,0-0.719-0.239-0.838-0.612c-0.15-0.463,0.107-0.958,0.569-1.108    c1.221-0.392,4.512-1.844,5.054-3.834c0.127-0.466,0.612-0.743,1.082-0.618c0.468,0.127,0.745,0.612,0.618,1.082    c-0.905,3.32-6.002,4.98-6.217,5.049C459.884,239.901,459.793,239.914,459.705,239.914z"/>
		<path style="fill:#251626;" d="M454.139,235.858c-0.373,0-0.719-0.239-0.838-0.612c-0.15-0.463,0.107-0.958,0.569-1.108    c1.221-0.392,4.512-1.844,5.054-3.834c0.129-0.466,0.611-0.74,1.082-0.618c0.468,0.127,0.745,0.612,0.618,1.082    c-0.905,3.32-6.002,4.98-6.217,5.049C454.318,235.844,454.226,235.858,454.139,235.858z"/>
		<path style="fill:#251626;" d="M443.852,234.938c-0.373,0-0.719-0.239-0.838-0.612c-0.15-0.463,0.107-0.958,0.569-1.108    c1.221-0.392,4.512-1.844,5.054-3.834c0.129-0.466,0.611-0.743,1.082-0.618c0.468,0.127,0.745,0.612,0.618,1.082    c-0.905,3.32-6.002,4.98-6.217,5.049C444.031,234.924,443.94,234.938,443.852,234.938z"/>
		<path style="fill:#251626;" d="M445.249,241.837c-0.48,0-0.872-0.385-0.881-0.867c-0.007-0.487,0.382-0.886,0.867-0.895    c1.283-0.021,4.853-0.458,5.947-2.205c0.26-0.413,0.802-0.537,1.214-0.279c0.413,0.258,0.537,0.802,0.279,1.214    c-1.829,2.916-7.185,3.028-7.414,3.031C445.257,241.837,445.252,241.837,445.249,241.837z"/>
		<path style="fill:#251626;" d="M74.373,291.689c-0.367,0-0.71-0.23-0.834-0.599c-0.156-0.461,0.091-0.96,0.551-1.116    c0.353-0.119,35.859-12.014,93.231-19.703c0.477-0.089,0.925,0.273,0.99,0.755c0.064,0.482-0.274,0.925-0.756,0.989    c-57.204,7.669-92.549,19.509-92.899,19.628C74.562,291.674,74.467,291.689,74.373,291.689z"/>
		<path style="fill:#251626;" d="M28.499,319.384c-0.026,0-0.052-0.002-0.08-0.003c-0.484-0.043-0.841-0.471-0.798-0.956    c1.577-17.567,33.017-23.391,34.355-23.63c0.48-0.072,0.937,0.234,1.022,0.712c0.086,0.478-0.233,0.936-0.711,1.022    c-0.315,0.057-31.454,5.823-32.911,22.055C29.334,319.04,28.95,319.384,28.499,319.384z"/>
		<path style="fill:#251626;" d="M189.436,265.616c-0.397,0-0.756-0.27-0.855-0.671c-0.115-0.473,0.174-0.95,0.647-1.065    c0.487-0.12,48.988-11.942,71.069-14.023c14.49-1.364,49.587-5.472,62.51-14.106c0.404-0.268,0.951-0.16,1.221,0.244    c0.271,0.404,0.162,0.951-0.243,1.221c-13.257,8.856-48.7,13.017-63.323,14.395c-21.953,2.068-70.33,13.86-70.816,13.978    C189.576,265.607,189.505,265.616,189.436,265.616z"/>
		<path style="fill:#251626;" d="M436.386,306.963c-2.286,0-4.424-0.036-4.586-0.04c-0.487-0.009-0.874-0.409-0.865-0.896    c0.009-0.482,0.401-0.865,0.881-0.865c0.005,0,0.01,0,0.015,0c0.062,0,5.207,0.095,8.104-0.005    c-1.135-0.798-3.06-1.934-4.787-2.845c-0.43-0.227-0.595-0.76-0.368-1.19c0.229-0.434,0.765-0.592,1.19-0.368    c6.91,3.645,6.719,4.603,6.606,5.176c-0.05,0.246-0.261,0.827-1.178,0.912C440.356,306.937,438.32,306.963,436.386,306.963z"/>
		<path style="fill:#251626;" d="M433.087,317.043c-2.247,0-5.049-0.115-7.543-0.249c-0.487-0.026-0.858-0.44-0.833-0.925    c0.026-0.485,0.451-0.882,0.925-0.833c3.239,0.172,6.776,0.267,8.899,0.234c-1.885-1.006-5.138-2.513-8.061-3.762    c-0.447-0.191-0.655-0.709-0.464-1.156c0.191-0.449,0.712-0.655,1.156-0.464c10.464,4.474,10.51,5.321,10.541,5.881    c0.017,0.335-0.217,0.748-0.509,0.913C436.725,316.947,435.137,317.043,433.087,317.043z"/>
		<path style="fill:#251626;" d="M423.665,327.175c-2.684,0-7.744-1.4-10.93-2.37c-0.466-0.143-0.728-0.635-0.587-1.099    c0.141-0.464,0.626-0.729,1.099-0.587c4.001,1.22,8.727,2.343,10.45,2.343c0.017,0,0.034,0,0.05,0    c-0.81-1.092-3.533-3.36-6.005-5.116c-0.397-0.28-0.49-0.831-0.208-1.227c0.28-0.397,0.838-0.487,1.227-0.208    c3.198,2.271,7.003,5.317,6.974,6.938c-0.007,0.427-0.217,0.803-0.571,1.037C424.856,327.087,424.334,327.175,423.665,327.175z"/>
		<path style="fill:#251626;" d="M156.719,354.504c-0.989,0-3.257-1.048-9.139-7.101c-0.339-0.349-0.331-0.907,0.017-1.245    c0.348-0.341,0.907-0.33,1.245,0.017c2.718,2.797,6.115,5.813,7.448,6.447c-0.106-1.116-1.216-3.977-2.623-6.674    c-0.224-0.432-0.058-0.963,0.373-1.189c0.434-0.224,0.963-0.057,1.189,0.373c4.11,7.879,2.636,8.844,2.152,9.16    C157.247,354.38,157.058,354.504,156.719,354.504z"/>
		<path style="fill:#251626;" d="M148.241,360.451c-0.144,0-0.283-0.026-0.398-0.079c-1.06-0.489-7.745-5.897-9.074-6.977    c-0.378-0.306-0.435-0.86-0.129-1.239c0.305-0.375,0.861-0.439,1.239-0.127c2.764,2.243,5.788,4.634,7.465,5.885    c-0.366-1.71-1.191-4.629-1.999-7.168c-0.147-0.463,0.109-0.958,0.573-1.106c0.46-0.146,0.958,0.108,1.106,0.573    c2.902,9.126,2.346,9.618,1.898,10.013C148.755,360.372,148.491,360.451,148.241,360.451z"/>
		<path style="fill:#251626;" d="M129.979,355.602c-0.034,0-0.066-0.002-0.096-0.005c-0.323-0.043-1.307-0.17-5.305-5.73    c-0.285-0.396-0.194-0.946,0.2-1.23c0.395-0.286,0.944-0.194,1.229,0.201c1.171,1.627,2.605,3.44,3.505,4.395    c0.051-1.443-0.071-4.084-0.264-6.37c-0.041-0.485,0.318-0.91,0.803-0.951c0.479-0.034,0.911,0.318,0.951,0.803    c0.663,7.853,0.025,8.377-0.318,8.66C130.52,355.509,130.214,355.602,129.979,355.602z"/>
	</g>
	<g>
		<path style="fill:#251626;" d="M293.334,131.455l-0.686-1.622c0,0,5.915-2.505,8.722-3.678c-1.625-0.798-4.882-2.076-7.764-3.089    c-0.459-0.162-0.701-0.664-0.539-1.123c0.161-0.458,0.664-0.702,1.122-0.538c9.747,3.423,9.766,4.27,9.78,4.887    c0.009,0.428-0.249,0.802-0.673,0.974C301.937,127.812,293.335,131.454,293.334,131.455z"/>
		<path style="fill:#E7808A;" d="M281.052,122.934c0,0-15.285-21.661-18.224-22.424s-15.572,18.99,2.502,31.03l-8.872,1.502    c0,0,1.328,18.051,18.394,18.077c16.324,0.025,27.587-28.537,18.835-37.253S281.052,122.934,281.052,122.934z"/>
		<path style="fill:#251626;" d="M273.492,129.936c-0.007,0-0.013,0-0.02,0c-5.893-0.136-8.902-3.96-10.172-6.227    c-1.488-2.658-2.014-5.684-1.226-7.039c0.26-0.446,0.686-0.716,1.199-0.76c0.565-0.052,1.269,0.234,2.02,0.714    c-1.593-2.816-2.775-5.606-2.094-6.833c0.21-0.377,0.579-0.614,1.012-0.649c2.273-0.101,8.959,7.928,12.748,12.778    c0.299,0.384,0.231,0.936-0.151,1.235c-0.388,0.303-0.938,0.231-1.237-0.151c-4.034-5.161-9.025-10.808-10.844-11.916    c0.243,1.624,2.823,6.262,6.107,10.863c0.275,0.384,0.197,0.917-0.176,1.206c-0.374,0.291-0.909,0.234-1.214-0.127    c-2.326-2.759-4.989-5.166-5.898-5.353c-0.221,0.688,0.007,2.88,1.291,5.173c1.086,1.939,3.657,5.211,8.674,5.326    c0.487,0.012,0.872,0.415,0.861,0.901C274.362,129.554,273.969,129.936,273.492,129.936z"/>
		<path style="fill:#251626;" d="M289.044,124.375c-1.427,0-2.373-1.749-3.264-6.041c-0.099-0.477,0.207-0.943,0.684-1.041    c0.472-0.11,0.942,0.206,1.042,0.683c0.87,4.19,1.602,4.639,1.632,4.657c0.313-0.246,1.174-2.465,1.63-4.657    c0.099-0.477,0.562-0.793,1.042-0.683c0.477,0.098,0.783,0.564,0.684,1.041C292.024,120.59,290.953,124.375,289.044,124.375z"/>
		<path style="fill:#251626;" d="M273.108,147.121c-0.453,0-0.923-0.048-1.404-0.16c-0.474-0.112-0.768-0.585-0.657-1.06    c0.111-0.473,0.586-0.769,1.058-0.657c2.691,0.638,5.073-1.538,5.096-1.559c0.355-0.33,0.913-0.311,1.245,0.05    c0.33,0.356,0.308,0.913-0.049,1.244C278.289,145.079,276.04,147.121,273.108,147.121z"/>
		<path style="fill:#251626;" d="M271.573,140.292c-0.452,0-0.922-0.048-1.402-0.16c-0.474-0.112-0.768-0.585-0.657-1.058    c0.11-0.475,0.581-0.771,1.058-0.659c2.684,0.64,5.072-1.536,5.096-1.559c0.358-0.33,0.916-0.31,1.245,0.05    c0.33,0.356,0.308,0.913-0.049,1.244C276.755,138.25,274.504,140.292,271.573,140.292z"/>
		<path style="fill:#251626;" d="M282.874,140.292c-0.453,0-0.923-0.048-1.403-0.16c-0.474-0.112-0.768-0.585-0.657-1.058    c0.11-0.475,0.585-0.771,1.058-0.659c2.69,0.642,5.074-1.536,5.097-1.559c0.357-0.33,0.917-0.31,1.245,0.05    c0.33,0.356,0.308,0.913-0.049,1.244C288.056,138.25,285.805,140.292,282.874,140.292z"/>
	</g>
	<path style="fill:#251626;" d="M170.54,166.539c-0.011,0-0.022,0-0.034,0c-1.733-0.065-3.542-0.287-5.377-0.661   c-0.476-0.098-0.784-0.563-0.687-1.039c0.096-0.478,0.564-0.786,1.038-0.688c1.742,0.354,3.455,0.566,5.092,0.626   c0.486,0.019,0.865,0.428,0.847,0.913C171.402,166.166,171.012,166.539,170.54,166.539z M175.809,166.324   c-0.441,0-0.821-0.33-0.874-0.778c-0.057-0.483,0.289-0.922,0.772-0.979c1.761-0.205,3.447-0.552,5.012-1.029   c0.467-0.141,0.957,0.122,1.099,0.587c0.141,0.464-0.121,0.956-0.587,1.099c-1.664,0.507-3.454,0.874-5.32,1.094   C175.878,166.322,175.843,166.324,175.809,166.324z M160.211,164.509c-0.093,0-0.188-0.015-0.281-0.046   c-1.604-0.54-3.237-1.18-4.994-1.952c-0.445-0.196-0.647-0.716-0.451-1.161c0.196-0.446,0.71-0.647,1.161-0.452   c1.707,0.752,3.293,1.373,4.846,1.897c0.461,0.155,0.709,0.655,0.553,1.116C160.922,164.277,160.578,164.509,160.211,164.509z    M185.828,163.205c-0.307,0-0.606-0.162-0.768-0.447c-0.239-0.423-0.089-0.962,0.335-1.201c1.498-0.846,2.862-1.856,4.054-3.003   c0.349-0.334,0.908-0.325,1.245,0.024c0.337,0.351,0.327,0.908-0.024,1.245c-1.298,1.249-2.782,2.348-4.41,3.268   C186.123,163.169,185.974,163.205,185.828,163.205z M150.527,160.289c-0.136,0-0.274-0.031-0.403-0.098   c-1.567-0.81-3.126-1.663-4.675-2.542c-0.423-0.239-0.572-0.776-0.332-1.199c0.242-0.425,0.776-0.576,1.201-0.332   c1.528,0.865,3.068,1.708,4.614,2.508c0.433,0.224,0.601,0.755,0.378,1.187C151.154,160.116,150.846,160.289,150.527,160.289z    M215.401,158.378c-1.461,0-3.015-0.055-4.61-0.165c-0.485-0.034-0.852-0.454-0.819-0.939c0.034-0.485,0.455-0.853,0.939-0.819   c1.556,0.107,3.069,0.162,4.496,0.162l0.711-0.003c0.458-0.021,0.887,0.38,0.894,0.869c0.007,0.485-0.382,0.886-0.868,0.893   L215.401,158.378z M221.398,158.043c-0.44,0-0.821-0.329-0.874-0.778c-0.057-0.483,0.288-0.92,0.771-0.977   c1.786-0.213,3.489-0.532,5.061-0.95c0.47-0.131,0.952,0.155,1.078,0.626c0.125,0.47-0.155,0.951-0.625,1.077   c-1.652,0.439-3.437,0.774-5.305,0.994C221.468,158.041,221.433,158.043,221.398,158.043z M205.6,157.651   c-0.044,0-0.088-0.003-0.132-0.01c-1.879-0.284-3.652-0.65-5.269-1.091c-0.47-0.127-0.747-0.612-0.618-1.08   c0.128-0.47,0.613-0.745,1.081-0.619c1.552,0.423,3.257,0.776,5.069,1.049c0.481,0.072,0.812,0.521,0.74,1.001   C206.404,157.337,206.028,157.651,205.6,157.651z M193.317,155.93c-0.151,0-0.303-0.038-0.442-0.119   c-0.421-0.246-0.562-0.784-0.318-1.204c0.187-0.322,0.362-0.647,0.526-0.975c-0.981-0.592-1.859-1.237-2.622-1.927   c-0.36-0.327-0.389-0.884-0.063-1.244c0.327-0.361,0.884-0.387,1.245-0.064c0.628,0.568,1.347,1.104,2.149,1.603   c0.249-0.671,0.451-1.352,0.605-2.038c0.106-0.473,0.58-0.769,1.051-0.667c0.475,0.107,0.774,0.578,0.667,1.053   c-0.19,0.852-0.447,1.693-0.769,2.522c0.163,0.081,0.33,0.163,0.5,0.243c0.439,0.206,0.628,0.733,0.421,1.171   c-0.206,0.44-0.734,0.626-1.172,0.421c-0.157-0.074-0.312-0.15-0.465-0.225c-0.172,0.341-0.355,0.678-0.55,1.011   C193.916,155.774,193.621,155.93,193.317,155.93z M231.534,155.266c-0.329,0-0.643-0.184-0.795-0.499   c-0.211-0.439-0.026-0.965,0.412-1.175c1.583-0.762,3.016-1.674,4.258-2.713c0.376-0.311,0.931-0.263,1.241,0.112   c0.311,0.373,0.262,0.929-0.111,1.24c-1.355,1.132-2.911,2.123-4.624,2.947C231.792,155.239,231.662,155.266,231.534,155.266z    M141.306,155.108c-0.152,0-0.306-0.04-0.446-0.122l-4.551-2.692c-0.42-0.246-0.559-0.786-0.312-1.206   c0.246-0.418,0.785-0.559,1.205-0.311l4.553,2.692c0.419,0.248,0.558,0.788,0.311,1.206   C141.901,154.953,141.608,155.108,141.306,155.108z M132.17,149.781c-0.145,0-0.292-0.036-0.427-0.112   c-1.713-0.953-3.23-1.753-4.637-2.443c-0.437-0.215-0.617-0.743-0.403-1.178c0.214-0.437,0.743-0.612,1.178-0.404   c1.435,0.704,2.978,1.517,4.718,2.487c0.425,0.236,0.578,0.772,0.341,1.197C132.779,149.617,132.479,149.781,132.17,149.781z    M239.473,148.508c-0.163,0-0.329-0.045-0.477-0.141c-0.409-0.263-0.526-0.809-0.261-1.218c1.607-2.487,1.889-4.479,1.891-4.498   c0.065-0.482,0.508-0.845,0.99-0.755c0.483,0.064,0.821,0.507,0.756,0.989c-0.013,0.096-0.34,2.405-2.158,5.221   C240.045,148.365,239.762,148.508,239.473,148.508z M188.101,147.627c-0.37,0-0.715-0.234-0.837-0.606   c-0.278-0.843-0.419-1.7-0.42-2.542c0-1.208,0.289-2.345,0.836-3.294c0.243-0.42,0.78-0.563,1.202-0.323   c0.421,0.244,0.567,0.783,0.323,1.204c-0.393,0.681-0.6,1.516-0.6,2.412c0.001,0.657,0.113,1.328,0.332,1.994   c0.152,0.461-0.1,0.96-0.562,1.111C188.285,147.613,188.192,147.627,188.101,147.627z M195.426,145.79   c-0.417,0-0.787-0.296-0.865-0.721c-0.28-1.519-0.893-2.768-1.771-3.609c-0.13-0.124-0.263-0.236-0.398-0.33   c-0.397-0.28-0.491-0.831-0.21-1.228c0.282-0.396,0.829-0.492,1.228-0.21c0.2,0.143,0.401,0.306,0.597,0.494   c1.149,1.103,1.939,2.68,2.286,4.564c0.089,0.478-0.228,0.938-0.706,1.027C195.533,145.785,195.479,145.79,195.426,145.79z    M122.659,145.184c-0.105,0-0.212-0.019-0.315-0.058c-1.758-0.673-3.367-1.165-4.92-1.503c-0.476-0.103-0.777-0.573-0.673-1.048   c0.103-0.476,0.575-0.778,1.048-0.673c1.641,0.358,3.333,0.874,5.174,1.579c0.454,0.174,0.682,0.683,0.507,1.137   C123.347,144.969,123.013,145.184,122.659,145.184z M108.43,143.648c-0.39,0-0.747-0.261-0.851-0.657   c-0.124-0.47,0.157-0.951,0.627-1.075c1.325-0.349,2.72-0.544,4.145-0.576c0.487-0.017,0.889,0.373,0.901,0.86   c0.011,0.487-0.374,0.889-0.86,0.901c-1.288,0.029-2.546,0.205-3.737,0.518C108.58,143.639,108.505,143.648,108.43,143.648z"/>
</g>















</svg>
