<?xml version="1.0" encoding="UTF-8"?>
<!-- Generator: Adobe Illustrator 25.1.0, SVG Export Plug-In . SVG Version: 6.00 Build 0)  -->
<svg xmlns="http://www.w3.org/2000/svg" xmlns:xlink="http://www.w3.org/1999/xlink" version="1.1" id="Capa_1" x="0px" y="0px" viewBox="0 0 500 500" style="enable-background:new 0 0 500 500;" xml:space="preserve" width="512" height="512">
<g>
	<polygon style="fill:#F5B2AF;" points="119.486,280.956 81.609,437.301 59.481,436.939 55.304,281.963  "/>
	<polygon style="fill:#F5B2AF;" points="168.52,288.345 140.227,424.693 116.138,428.033 104.506,293.079  "/>
	<polygon style="fill:#F5B2AF;" points="330.904,276.406 295.604,433.349 273.473,433.349 266.747,278.462  "/>
	<polygon style="fill:#F5B2AF;" points="355.123,270.899 366.63,431.328 345.436,437.677 294.274,291.272  "/>
	<g>
		<path style="fill:#FFFFFF;" d="M169.911,60.254c-40.081,16.21-26.367,63.242-11.6,51.663    c14.767-11.578-45.254-42.491-73.562-22.871c-53.358,36.981-28.422,98.147-7.326,86.568s-30.918-26.646-58.342,3.458    s-23.552,103.826,12.31,106.141c35.862,2.316,45.129-33.915,17.704-23.822C21.67,271.484,7.004,349.102,66.071,369.943    c59.067,20.841,82.804-38.44,53.27-30.565c-29.534,7.876-12.502,51.838,57.113,63.416s74.262-38.389,48.081-34.848    c-6.783,0.918-16.856,32.462,42.212,40.194s109.973-33.367,90.956-53.263c-19.017-19.896-16.576,36.652,42.165,22.186    c32.526-8.01,69.76-70.9,11.003-108.719c-33.416-21.508-6.763,37.575,17.497-32.096c19.203-55.148,7.416-100.993-39.534-76.796    c-18.183,9.371,0.963,37.051,9.402,0c8.438-37.051-20.493-66.315-53.957-71.221c-25.568-3.748-58.436,33.736-41.559,33.736    c16.876,0,5.183-71.447-43.15-66.899c-55.087,5.184-56.235,39.253-36.247,43.885C243.311,103.586,209.992,44.044,169.911,60.254z"/>
		<path style="fill:#251426;" d="M281.464,410.284c-4.97,0-9.973-0.327-14.871-0.966c-16.266-2.131-28.732-6.231-37.075-12.195    c-5.793,4.042-16.151,8.603-33.378,8.603c-6.167,0-12.856-0.593-19.88-1.76c-30.15-5.015-53.962-16.745-65.549-32.245    c-12.9,5.341-28.572,5.149-45.034-0.658c-16.345-5.768-28.609-16.522-35.463-31.101c-7.446-15.834-8.254-36.385-2.19-53.984    c-10.352-1.997-18.663-10.326-23.505-23.622c-8.677-23.826-5.249-63.298,13.685-84.082c11.875-13.036,27.08-16.691,35.993-17.671    c-7.204-21.099-0.806-51.267,29.876-72.531c6.299-4.366,14.395-6.578,24.061-6.578c11.131,0,23.701,3.002,34.738,8.269    c1.32-7.53,6.488-22.475,26.595-30.608c4.744-1.918,9.637-2.891,14.544-2.891c14.802,0,26.316,8.633,32.344,14.389    c8.107-8.966,23.338-14.903,43.103-16.763c1.506-0.141,3.014-0.213,4.481-0.213c28.626,0,43.192,26.689,46.486,45.907    c11.122-9.189,23.974-13.995,34.027-12.524c18.386,2.696,34.932,12.348,45.399,26.485c8.701,11.753,12.362,25.493,10.642,39.848    c13.532-3.966,24.076-1.135,30.638,8.098c10.154,14.287,9.525,43.083-1.642,75.148c-5.217,14.984-11.007,25.466-17.226,31.196    c23.211,15.241,33.839,36.47,29.938,59.865c-4.371,26.216-24.811,46.273-42.047,50.517c-16.294,4.017-30.238,3.011-40.409-2.805    C349.854,392.743,318.395,410.284,281.464,410.284z M231.508,395.622c8.018,5.504,19.913,9.319,35.393,11.343    c4.796,0.628,9.695,0.947,14.563,0.947c36.132,0,66.792-16.997,76.262-33.751c-10.02-6.701-12.802-16.474-11.47-21.136    c0.657-2.305,2.248-3.625,4.365-3.625c2.314,0,4.985,1.568,7.939,4.658c4.908,5.135,5.702,11.936,2.279,19.244    c9.636,5.55,23.027,6.483,38.746,2.611c20.722-5.103,37.039-29.202,40.275-48.603c3.769-22.61-6.706-43.16-29.499-57.882    c-2.822,2.131-5.625,3.21-8.343,3.21c-4.739,0-8.041-3.47-8.041-6.583c0-1.121,0.442-2.122,1.247-2.819    c2.517-2.17,7.848-1.059,14.958,3.278c4.35-3.824,10.649-12.226,17.067-30.654c10.918-31.354,11.665-59.326,1.949-72.996    c-6.124-8.614-16.115-10.979-29.073-6.879c-0.204,1.242-0.449,2.495-0.732,3.734c-4.044,17.759-10.237,19.677-12.712,19.677    c-2.941,0-5.412-2.353-6.295-5.995c-1.172-4.834,0.818-11.348,7.906-15c3.356-1.73,6.618-3.146,9.707-4.211    c1.964-14.134-1.504-27.685-10.054-39.234c-10.093-13.632-26.071-22.943-43.837-25.547c-9.719-1.434-22.428,3.574-33.279,12.941    c1.008,8.371-0.096,15.072-3.053,18.443c-1.355,1.545-3.103,2.363-5.055,2.363c-3.634,0-5-1.598-5.506-2.939    c-1.731-4.593,4.254-12.67,11.097-18.811c-2.658-18.47-16.51-45.356-44.373-45.356c-1.393,0-2.826,0.069-4.259,0.204    c-19.239,1.809-33.962,7.503-41.64,16.073c8.863,9.143,14.092,20.08,11.967,25.227c-0.759,1.835-2.411,2.847-4.652,2.847h-0.001    c-0.701,0-1.474-0.097-2.299-0.287c-5.841-1.355-10.196-5.11-11.952-10.303c-1.863-5.513-0.501-11.776,3.73-17.328    c-5.721-5.494-16.738-13.845-30.822-13.845c-4.6,0-9.195,0.915-13.655,2.719c-19.683,7.959-24.224,22.711-25.262,29.51    c9.96,5.135,16.171,11.123,16.671,16.098c0.228,2.277-0.712,4.313-2.722,5.888c-3.949,3.095-8.426,2.627-11.755-1.149    c-3.698-4.188-5.531-11.758-4.757-19.471c-10.749-5.246-23.543-8.367-34.397-8.367c-9.175,0-16.815,2.071-22.71,6.157    c-34.049,23.596-34.222,54.908-28.788,70.363c1.399-0.097,2.799-0.148,4.175-0.148c11.806,0,21.294,3.588,22.562,8.529    c0.506,1.976-0.016,4.945-5.378,7.889c-1.912,1.049-3.911,1.582-5.94,1.582c-6.715,0-13.175-5.853-17.004-15.339    c-8.46,0.843-23.465,4.211-35.092,16.974c-18.356,20.147-21.649,58.496-13.21,81.673c3.278,8.999,9.756,20.032,22.1,22.174    c4.596-11.961,11.792-20.479,19.838-23.441c6.929-2.548,12.334-2.441,15.304,0.239c1.465,1.32,2.239,3.18,2.239,5.376    c0.001,8.876-12.458,21.977-34.914,20.504c-0.301-0.019-0.601-0.044-0.899-0.074c-6.032,17.129-5.307,37.207,1.945,52.629    c6.578,13.993,18.373,24.321,34.107,29.874c15.687,5.534,30.578,5.809,42.84,0.906c-4.748-7.162-6.193-14.306-4.062-20.247    c1.967-5.478,6.735-9.367,13.79-11.25c7.564-2.011,12.844,0.185,13.965,5.545c1.633,7.808-6.024,20.261-20.06,26.95    c6.068,7.848,23.175,24.155,63.709,30.897c6.897,1.147,13.454,1.728,19.491,1.728c16.009,0,25.779-4.023,31.393-7.748    c-11.103-9.089-9.625-18.929-8.877-21.81c1.006-3.875,3.305-6.696,5.721-7.023c7.47-1.017,13.407,2.187,15.377,8.179    C241.98,381.726,238.754,389.702,231.508,395.622z M227.124,368.952c-0.781,0-1.598,0.058-2.43,0.169    c-1.209,0.164-2.941,2.18-3.743,5.272c-0.667,2.569-1.971,11.457,8.578,19.774c7.709-6.034,9.584-13.567,7.97-18.475    C236.093,371.41,232.31,368.952,227.124,368.952z M350.621,351.772c-1.023,0-1.725,0.642-2.085,1.904    c-1.171,4.1,1.797,12.559,10.277,18.357c2.119-4.67,3.192-10.938-1.968-16.335C353.581,352.281,351.544,351.772,350.621,351.772z     M124.293,339.841c-1.377,0-2.941,0.229-4.647,0.686c-6.27,1.67-10.478,5.045-12.169,9.759    c-1.906,5.311-0.469,11.848,4.044,18.491c14.265-6.608,20.395-18.588,19.157-24.511    C130.074,341.369,127.866,339.841,124.293,339.841z M31.276,284.015c0.064,0.005,0.127,0.009,0.191,0.014    c21.479,1.362,32.389-11.239,32.389-18.137c0-1.506-0.504-2.756-1.455-3.616c-2.233-2.008-6.965-1.95-12.896,0.227    C42.222,265.186,35.629,272.985,31.276,284.015z M398.653,264.521c-0.843,0-1.492,0.176-1.877,0.51    c-0.284,0.246-0.427,0.591-0.427,1.024c0,1.758,2.156,4.211,5.669,4.211c1.928,0,4.033-0.753,6.156-2.191    C403.221,265.165,400.282,264.521,398.653,264.521z M397.562,156.863c-2.622,0.971-5.366,2.191-8.185,3.644    c-6.35,3.273-7.571,8.691-6.687,12.334c0.607,2.499,2.21,4.181,3.99,4.181c3.065,0,7.405-4.686,10.4-17.833    C397.256,158.417,397.417,157.639,397.562,156.863z M57.537,162.703c4.489,10.542,12.422,15.663,19.315,11.871    c1.821-0.998,4.79-3.007,4.223-5.219c-0.833-3.245-8.816-6.747-20.264-6.747C59.731,162.608,58.635,162.64,57.537,162.703z     M308.647,104.315c-7.149,6.743-10.108,12.689-9.214,15.063c0.352,0.931,1.457,1.404,3.287,1.404c1.286,0,2.356-0.507,3.272-1.554    C308.283,116.615,309.24,111.134,308.647,104.315z M144.81,93.394c-0.49,6.75,1.118,13.184,4.255,16.738    c0.971,1.1,2.554,2.414,4.582,2.414c1.289,0,2.612-0.526,3.932-1.561c1.376-1.079,1.972-2.316,1.825-3.785    C159.01,103.27,153.342,97.941,144.81,93.394z M216.527,74.173c-3.595,4.848-4.755,10.208-3.177,14.878    c1.486,4.396,5.219,7.586,10.239,8.749c0.65,0.151,1.244,0.227,1.765,0.227l0,0c1.693,0,2.214-0.788,2.46-1.381    C229.317,93.005,225.05,83.051,216.527,74.173z"/>
	</g>
	<g>
		<path style="fill:#FFFFFF;" d="M377.717,67.471c-60.246-17.635-80.534,50.467-56.795,48.231    c12.077-1.137-22.982-35.324-53.92-4.402c-30.938,30.922-33.644,84.835,0,81.616c33.643-3.219-18.327-32.452-24.229,7.109    s12.665,93.474,65.138,87.036c52.472-6.437,29.399-44.997,19.947-38.994c-9.452,6.003,8.879,42.739,60.843,39.521    c51.964-3.219,60.604-20.487,44.286-43.619s-26.976,27.326,30.893,5.859c56.946-21.125,42.022-145.236-28.158-152.013    c-38.588-3.726-34.269,26.623-19.317,13.542C423.882,104.816,411.334,77.312,377.717,67.471z"/>
		<path style="fill:#251426;" d="M382.359,288.974c-22.099,0-36.144-7.229-44.242-13.622c-5.402,6.768-15.504,11.1-30.061,12.886    c-19.94,2.458-37.054-3.752-49.117-17.75c-14.435-16.749-21.241-44.476-17.338-70.638c0.848-5.677,2.678-10.342,5.443-13.886    c-11.078-15.313-5.334-51.056,19.12-75.5c8.802-8.797,18.645-13.259,29.257-13.259c5.096,0,10.273,1.086,15.069,3.155    c2.797-15.487,19.331-36.994,48.055-36.994c6.215,0,12.777,0.998,19.505,2.97c22.531,6.595,35.363,20.775,39.783,31.375    c5.01-1.376,11.11-1.742,18.002-1.075c37.443,3.616,58.734,40.035,63.225,74.523c4.135,31.759-5.012,68.746-34.768,79.783    c-8.941,3.317-16.874,5.156-23.613,5.476c1.718,5.971,1.091,11.243-1.87,15.691c-6.252,9.388-23.087,14.996-50.036,16.666    C386.615,288.907,384.456,288.974,382.359,288.974z M339.49,273.413c7.777,6.173,21.353,13.189,42.869,13.189    c2.049,0,4.158-0.067,6.269-0.197c26.17-1.621,42.389-6.875,48.208-15.614c2.651-3.979,3.114-8.797,1.382-14.326    c-6.18-0.058-11.264-1.554-14.721-4.336c-2.929-2.358-4.608-5.585-4.608-8.853c0-3.887,2.388-6.708,5.678-6.708    c2.121,0,5.472,1.167,9.389,6.72c2.674,3.792,4.671,7.415,5.944,10.785c6.629-0.211,14.552-2.011,23.569-5.355    c28.532-10.586,37.253-46.426,33.241-77.254c-4.371-33.554-24.957-68.975-61.101-72.466c-6.508-0.628-12.257-0.306-16.95,0.945    c1.736,5.413,1.211,9.96-1.473,12.307c-2.682,2.349-5.315,3.588-7.61,3.588h-0.001c-2.693,0-4.696-1.735-5.105-4.422    c-0.64-4.199,2.59-9.928,11.093-12.99c-4.277-10.074-16.578-23.492-38.179-29.816c-6.511-1.906-12.849-2.872-18.837-2.872    c-16.536,0-42.305,11.341-45.831,35.667c7.293,3.708,12.419,9.237,11.781,12.807c-0.129,0.718-0.723,2.414-3.462,2.673    c-3.435,0.317-6.209-0.683-8.136-2.861c-2.207-2.495-3.17-6.456-2.74-11.218c-4.67-2.115-9.747-3.229-14.736-3.229    c-9.96,0-19.239,4.227-27.58,12.564c-18.91,18.901-31.284,54.66-19.19,72c3.752-3.766,8.87-5.823,14.571-5.823    c8.115,0,15.993,4.306,16.211,8.862c0.102,2.133-1.363,5.87-12.317,6.919c-7.799,0.737-14.083-1.441-18.527-6.247    c-2.331,3.166-3.89,7.313-4.642,12.351c-3.806,25.507,2.784,52.49,16.788,68.737c11.677,13.548,27.668,19.309,47.032,16.946    c13.743-1.686,23.569-5.842,28.522-12.045c-7.702-6.687-12.375-14.929-11.977-21.229c0.16-2.518,1.166-4.436,2.91-5.543    c0.854-0.542,1.813-0.818,2.849-0.818c3.451,0,7.426,3.194,9.89,7.945C343.263,260.562,343.068,267.664,339.49,273.413z     M330.071,248.622c-0.587,0-1.104,0.146-1.577,0.447c-1.362,0.864-1.738,2.485-1.815,3.692    c-0.288,4.561,3.008,12.137,10.969,19.117c2.961-4.982,3.06-11.088,0.207-16.589C335.821,251.362,332.619,248.622,330.071,248.622    z M424.567,238.939c-2.271,0-3.307,2.247-3.307,4.336c0,2.548,1.357,5.101,3.723,7.005c2.876,2.314,7.134,3.618,12.368,3.794    c-1.208-2.946-2.997-6.108-5.334-9.42C429.456,241.024,426.741,238.939,424.567,238.939z M250.128,186.019    c3.968,4.457,9.568,6.421,16.762,5.717c7.622-0.73,10.253-2.773,10.173-4.443c-0.124-2.599-6.123-6.604-13.841-6.604    C259.519,180.689,254.327,181.638,250.128,186.019z M312.455,103.945c-0.185,3.676,0.584,6.657,2.219,8.506    c1.433,1.619,3.487,2.319,6.138,2.071c1.239-0.116,1.323-0.577,1.349-0.727C322.487,111.971,318.885,107.431,312.455,103.945z     M416.395,100.646c-7.745,2.775-9.997,7.679-9.581,10.412c0.234,1.531,1.24,2.407,2.761,2.407h0.001c1.689,0,3.837-1.066,6.049-3    C417.578,108.756,417.847,105.13,416.395,100.646z"/>
	</g>
	<g>
		<path style="fill:#F5B2AF;" d="M316.324,181.215c0,0-60.56,25.5-52.551,48.342s59.392-40.954,59.392-40.954    s108.004,49.165,134.876,27.467s-44.491-114.236-102.017-96.581c0,0,2.137-55.286-32.513-55.693    c-15.937-0.187,23.669,58.791,23.669,58.791S319.116,162.541,316.324,181.215z"/>
		<path style="fill:#251426;" d="M448.985,199.377c-0.43,0-0.843-0.234-1.054-0.642c-10.543-20.377-25.642-13.395-26.281-13.087    c-0.59,0.29-1.298,0.037-1.583-0.554c-0.284-0.591-0.036-1.299,0.555-1.582c0.175-0.086,17.826-8.262,29.416,14.134    c0.3,0.581,0.073,1.297-0.508,1.598C449.355,199.335,449.168,199.377,448.985,199.377z"/>
		<path style="fill:#251426;" d="M454.277,191.321c-0.177,0-0.358-0.039-0.528-0.125c-13.605-6.791-16.082-21.984-16.181-22.628    c-0.1-0.649,0.344-1.253,0.991-1.353c0.646-0.097,1.252,0.345,1.353,0.991c0.023,0.146,2.411,14.634,14.895,20.868    c0.586,0.292,0.825,1.005,0.532,1.591C455.132,191.08,454.712,191.321,454.277,191.321z"/>
		<path style="fill:#251426;" d="M398.315,216.791c-0.06,0-0.122-0.005-0.183-0.014c-0.547-0.086-13.437-2.159-17.683-9.698    c-1.709-3.034-1.785-6.493-0.224-10.275c0.251-0.607,0.95-0.899,1.55-0.644c0.605,0.25,0.893,0.943,0.644,1.547    c-1.288,3.12-1.257,5.805,0.096,8.207c3.686,6.548,15.858,8.501,15.98,8.519c0.647,0.1,1.09,0.706,0.99,1.353    C399.395,216.372,398.89,216.791,398.315,216.791z"/>
		<path style="fill:#251426;" d="M377.566,172.968c-8.729,0-19.981-8.524-20.516-8.932c-0.52-0.398-0.62-1.142-0.221-1.663    c0.397-0.519,1.142-0.618,1.662-0.222c0.14,0.107,13.944,10.569,21.632,8.079c0.95-0.308,1.023-0.723,1.053-0.899    c0.543-3.115-8.554-11.732-15.188-16.858c-0.519-0.401-0.614-1.144-0.213-1.663c0.397-0.521,1.144-0.616,1.663-0.213    c2.857,2.207,17.059,13.502,16.075,19.142c-0.159,0.913-0.75,2.131-2.66,2.747C379.821,172.82,378.715,172.968,377.566,172.968z"/>
		<path style="fill:#251426;" d="M401.033,151.498c-5.727,0-17.265-8.86-21.068-11.913c-0.511-0.41-0.593-1.156-0.183-1.665    c0.412-0.51,1.159-0.591,1.668-0.183c8.285,6.648,18.397,12.777,20.228,11.271c0.029-0.023,0.081-0.065,0.087-0.266    c0.089-3.111-8.865-12.453-14.529-17.609c-0.485-0.442-0.52-1.193-0.079-1.677c0.441-0.482,1.193-0.517,1.675-0.079    c2.582,2.351,15.451,14.331,15.304,19.432c-0.023,0.845-0.357,1.55-0.964,2.043C402.621,151.299,401.891,151.498,401.033,151.498z    "/>
		<path style="fill:#251426;" d="M284,220.478c-0.437,0-0.856-0.241-1.063-0.658c-2.715-5.455,1.775-12.478,13.345-20.875    c8.294-6.018,17.423-10.65,17.515-10.697c0.584-0.294,1.299-0.06,1.594,0.523c0.295,0.584,0.061,1.297-0.523,1.594    c-9.766,4.934-34.158,19.656-29.806,28.398c0.292,0.586,0.053,1.297-0.534,1.589C284.358,220.439,284.177,220.478,284,220.478z"/>
		<path style="fill:#251426;" d="M351.961,119.633c-0.364,0-0.722-0.167-0.954-0.479c-0.91-1.232-22.164-30.251-10.187-40.607    c0.496-0.431,1.244-0.378,1.674,0.12c0.427,0.496,0.374,1.244-0.122,1.672c-10.332,8.934,10.332,37.119,10.542,37.402    c0.39,0.528,0.279,1.269-0.248,1.661C352.453,119.556,352.205,119.633,351.961,119.633z"/>
	</g>
	<g>
		<path style="fill:#FFFFFF;" d="M222.282,136.135c0,0-24.021-30.391-59.795,1.338c-23.257,20.627-4.684,52.913,5.778,37.33    c8.564-12.757-26.947-36.875-52.141-1.363s11.004,65.669,23.78,51.449c12.776-14.22-7.798-22.436-19.726,3.033    s31.036,48.598,44.581,27.022"/>
		<path style="fill:#251426;" d="M148.538,264.664c-5.321,0-10.832-1.617-15.537-4.181c-11.272-6.148-20.43-19.117-13.898-33.063    c0.294-0.628,0.593-1.237,0.896-1.825c-0.497-0.347-0.99-0.716-1.479-1.107c-12.314-9.844-18.617-30.235-3.364-51.733    c11.047-15.573,24.539-20.446,35.804-18.855c1.408-5.86,4.697-11.957,10.74-17.314c12.115-10.745,24.25-15.656,36.033-14.621    c15.796,1.397,25.09,12.944,25.478,13.435c0.407,0.512,0.318,1.258-0.195,1.663c-0.514,0.41-1.261,0.317-1.665-0.192    c-0.089-0.113-9.089-11.255-23.859-12.545c-11.108-0.982-22.622,3.75-34.219,14.035c-5.588,4.957-8.647,10.574-9.973,15.966    c3.602,0.811,6.925,2.289,9.81,4.278c7.024,4.848,9.549,11.781,6.139,16.858c-2.287,3.41-5.241,5.024-8.314,4.556    c-4.094-0.628-7.903-4.985-9.707-11.1c-1.068-3.625-1.464-7.97-0.754-12.554c-9.539-1.288-22.156,1.936-33.384,17.762    c-14.362,20.245-8.559,39.338,2.912,48.508c0.372,0.299,0.754,0.586,1.142,0.864c5.646-9.754,12.488-13.344,17.277-13.224    c2.877,0.035,5.185,1.404,6.174,3.66c1.406,3.206,0.017,7.486-3.81,11.746c-4.384,4.88-11.731,5.214-18.774,1.191    c-0.257,0.503-0.511,1.019-0.761,1.554c-5.881,12.559,2.557,24.342,12.886,29.975c9.708,5.29,23.116,6.275,29.618-4.086    c0.349-0.554,1.083-0.723,1.634-0.375c0.555,0.35,0.723,1.082,0.374,1.635C161.678,262.082,155.261,264.664,148.538,264.664z     M123.144,224.782c5.406,3.109,11.748,3.908,15.876-0.686c3.132-3.486,4.403-6.928,3.404-9.21    c-0.614-1.399-2.084-2.217-4.032-2.24c-0.03-0.002-0.06-0.002-0.09-0.002C134.328,212.645,128.274,215.894,123.144,224.782z     M152.811,156.78c-0.643,4.193-0.281,8.16,0.694,11.468c1.52,5.156,4.651,8.946,7.791,9.427c2.697,0.401,4.748-1.691,5.985-3.532    c2.641-3.935,0.372-9.52-5.517-13.585C159.545,159.027,156.462,157.588,152.811,156.78z"/>
	</g>
	<g>
		<path style="fill:#FFFFFF;" d="M181.463,295.133c0,0-12.723,41.2,31.246,42.797c37.257,1.353,29.013-30.28,19.963-27.685    c-9.05,2.595-17.359,44.042,34.075,41.527c49.04-2.398,35.779-39.674,27.527-40.662c-7.227-0.865-15.776,25.955,28.577,25.955    s24.24-41.932,24.24-41.932"/>
		<path style="fill:#251426;" d="M262.35,353.069c-21.624,0-30.808-8.311-34.701-15.64c-3.814,1.207-8.709,1.909-14.983,1.686    c-13.509-0.491-23.183-4.716-28.754-12.561c-9.229-12.997-3.818-31.011-3.583-31.771c0.192-0.628,0.852-0.98,1.482-0.783    c0.625,0.192,0.976,0.857,0.784,1.482c-0.054,0.176-5.296,17.676,3.259,29.709c5.121,7.204,14.171,11.091,26.897,11.551    c5.352,0.202,10.012-0.315,13.878-1.482c-0.84-2.036-1.296-3.912-1.543-5.402c-1.663-10.039,2.535-19.399,7.257-20.754    c2.153-0.621,4.404,0.236,6.171,2.342c2.942,3.509,4.358,10.254,1.375,16.358c-1.309,2.678-4.12,6.395-10.063,8.837    c7.399,13.696,27.611,14.396,36.862,13.947c8.764-0.429,27.627-2.893,33.011-15.915c-6.114-2.478-9.278-5.874-10.894-8.948    c-2.705-5.147-1.472-10.159,0.408-12.886c1.406-2.041,3.356-3.148,5.201-2.905c4.388,0.523,9.429,8.619,9.103,17.887    c-0.051,1.455-0.266,3.319-0.864,5.372c4.747,1.589,11.262,2.687,20.197,2.687c12.285,0,20.576-3.275,24.643-9.738    c7.38-11.725-1.384-30.309-1.473-30.497c-0.284-0.591-0.035-1.297,0.556-1.582c0.592-0.285,1.298-0.032,1.582,0.558    c0.388,0.808,9.412,19.962,1.342,32.785c-4.53,7.197-13.496,10.845-26.65,10.845c-9.122,0-15.925-1.1-20.995-2.787    c-3.118,7.5-11.772,16.353-35.052,17.491C265.264,353.032,263.78,353.069,262.35,353.069z M233.732,311.28    c-0.237,0-0.482,0.032-0.734,0.104c-3.216,0.924-7.058,9.105-5.571,18.086c0.302,1.825,0.775,3.495,1.392,5.026    c4.213-1.691,7.259-4.297,8.94-7.734c2.512-5.138,1.328-10.942-1.062-13.791C236.131,312.295,235.06,311.28,233.732,311.28z     M293.937,312.276c-0.905,0-1.947,0.713-2.77,1.906c-1.623,2.356-2.333,6.497-0.262,10.437c1.196,2.277,3.822,5.388,9.569,7.762    c0.383-1.434,0.616-2.979,0.674-4.644c0.281-8.031-4.043-15.093-7.015-15.45C294.069,312.281,294.003,312.276,293.937,312.276z"/>
	</g>
	<g>
		<path style="fill:#FFFFFF;" d="M302.432,176.137c-10.903-11.26-2.856-33.01,6.119-30.164s9.638,14.101-0.63,5.562    c-10.268-8.539-4.257-23.033,9.205-22.627s15.272,14.28,8.464,11.403c-6.808-2.877-9.073-25.16,12.747-24.428    c12.15,0.408,25.125,21.957,11.416,30.09c-8.622,5.115-9.209-4.411-4.604-5.662s7.052,22.333-4.37,25.993    c-11.422,3.66-22.905-1.323-17.233-4.643C335.067,154.919,324.58,199.012,302.432,176.137z"/>
		<path style="fill:#251426;" d="M314.713,183.964c-4.215,0.002-8.633-2.356-13.134-7.002c-4.356-4.498-6.31-11.125-5.36-18.181    c0.732-5.439,3.144-10.247,6.263-12.624c-1.523-3.891-1.141-8.216,1.083-11.755c2.671-4.25,7.411-6.687,13.006-6.687l0.59,0.009    c0.908,0.028,1.794,0.116,2.648,0.259c0.895-6.868,6.143-13.678,18.568-13.286c8.19,0.276,15.852,8.89,17.87,16.763    c1.703,6.641-0.444,12.304-5.889,15.533c-0.116,0.069-0.23,0.137-0.344,0.199c0.764,7.058-0.942,17.699-8.875,20.242    c-3.829,1.228-8.185,1.624-11.999,1.128C327.87,175.331,322.864,183.964,314.713,183.964z M303.562,148.33    c-2.433,2.085-4.379,6.215-4.992,10.769c-0.852,6.33,0.865,12.239,4.714,16.214c4.035,4.167,7.88,6.282,11.428,6.28    c6.699,0,10.994-7.669,12.094-13.455c-3.411-0.822-5.589-2.323-5.903-4.111c-0.131-0.741-0.038-2.168,2.044-3.386    c2.129-1.249,4.022-1.121,5.22,0.236c0.965,1.093,1.405,2.963,1.269,5.334c3.469,0.456,7.471,0.09,10.98-1.035    c6.251-2.001,7.763-10.868,7.31-16.939c-3.457,1.158-6.18-0.303-6.57-3.231c-0.307-2.295,0.987-5.105,3.682-5.837    c2.073-0.565,3.901,1.506,4.772,5.501c5.638-3.655,5.154-9.444,4.34-12.619c-1.991-7.767-9.305-14.767-15.651-14.98    c-13.228-0.454-15.727,7.774-16.164,11.48c6.387,2.043,8.845,7.218,8.466,10.245c-0.235,1.881-1.539,3.095-3.323,3.095h-0.001    c-0.661,0-1.384-0.162-2.147-0.484c-3.154-1.334-5.409-5.971-5.461-11.037c-0.822-0.153-1.686-0.246-2.578-0.271l-0.518-0.009    c-4.762,0-8.771,2.034-10.998,5.578c-1.759,2.798-2.108,6.205-1,9.312c1.42-0.54,2.908-0.586,4.335-0.132    c5.076,1.61,8.126,5.895,7.687,8.735c-0.218,1.411-1.272,2.286-2.749,2.286h-0.001c-1.708,0-3.956-1.149-6.684-3.417    C305.683,151.218,304.476,149.838,303.562,148.33z M325.705,162.14c-0.285,0-0.788,0.095-1.561,0.547    c-0.669,0.391-0.938,0.748-0.906,0.929c0.073,0.419,1.155,1.448,3.844,2.145c0.059-1.772-0.292-2.858-0.695-3.317    C326.199,162.23,325.995,162.14,325.705,162.14z M305.607,147.128c0.776,1.269,1.806,2.444,3.073,3.495    c3.114,2.59,4.65,2.87,5.167,2.87c0.364,0,0.378-0.093,0.407-0.276c0.21-1.355-1.74-4.742-6.061-6.113    C307.338,146.833,306.473,146.838,305.607,147.128z M345.499,141.448c-1.462,0.394-2.16,1.987-1.992,3.241    c0.097,0.73,0.5,1.596,1.87,1.596c0.589,0,1.275-0.155,2.043-0.463C346.851,142.722,345.856,141.448,345.499,141.448z     M322.065,131.041c0.224,3.792,1.866,7.28,3.988,8.177c0.462,0.197,0.886,0.299,1.223,0.299c0.252,0,0.843,0,0.971-1.017    C328.514,136.359,326.451,132.734,322.065,131.041z"/>
	</g>
	<polygon style="fill:#251326;" points="366.154,424.693 342.066,428.033 342.066,446.324 372.419,444.99  "/>
	<polygon style="fill:#251326;" points="297.442,424.693 273.353,428.033 273.353,446.324 303.707,444.99  "/>
	<polygon style="fill:#251326;" points="140.227,424.693 116.138,428.033 116.138,446.324 146.492,444.99  "/>
	<polygon style="fill:#251326;" points="83.855,428.033 58.419,428.033 58.419,446.324 88.773,444.99  "/>
</g>















</svg>
