<?xml version="1.0" encoding="UTF-8"?>
<!-- Generator: Adobe Illustrator 25.1.0, SVG Export Plug-In . SVG Version: 6.00 Build 0)  -->
<svg xmlns="http://www.w3.org/2000/svg" xmlns:xlink="http://www.w3.org/1999/xlink" version="1.1" id="Capa_1" x="0px" y="0px" viewBox="0 0 500 500" style="enable-background:new 0 0 500 500;" xml:space="preserve" width="512" height="512">
<g>
	<path style="fill:#F9D9C8;" d="M385.882,323.504c0,0,86.595,62.834,80.482,107.725s-56.114-34.32-100.303-37.122   c-44.189-2.802,61.989,64.115,26.18,89.231c-49.612,34.797-69.139-78.789-165.201-66.706S95.657,537.272,61.444,484.252   c-16.107-24.962,77.263-89.778,47.801-95.754c-29.462-5.976-67.786,49.986-88.519,37.632   c-19.672-11.721-20.837-67.385,92.328-123.003C249.727,235.955,385.882,323.504,385.882,323.504z"/>
	<path style="fill:#F9D9C8;" d="M367.57,144.105c0,0,101.485-7.603,117.634,53.784c16.149,61.387-13.84,118.347-99.323,125.615   c-69.679,5.924-163.501-98.917-83.539-130.551C323.325,184.652,329.939,153.321,367.57,144.105z"/>
	<path style="fill:#F9D9C8;" d="M411.116,132.057c0,0,97.33,160.72-13.586,158.5c-95.211-1.906-203.789-162.022-224.23-213.602   c-19.032-48.025,35.06-67.239,128.966,99.091l55.462-27.717c0,0-90.39-103.249-104.881-134.038   C238.356-16.498,358.701-6.132,411.116,132.057z"/>
	<path style="fill:#251626;" d="M371.583,136.376c0.312,0,0.625-0.116,0.866-0.349c0.498-0.478,0.512-1.269,0.034-1.767   c-19.778-20.577-69.815-76.824-63.89-89.802c0.849-1.861,2.989-2.684,6.676-2.489c35.032,1.801,64.976,87.745,65.274,88.612   c0.225,0.65,0.932,1,1.586,0.775c0.654-0.223,1-0.935,0.776-1.587c-0.076-0.22-7.699-22.25-19.671-44.22   c-16.23-29.776-32.326-45.279-47.838-46.077c-4.683-0.237-7.767,1.085-9.075,3.948c-3.404,7.455,6.21,24.833,29.39,53.126   c16.816,20.524,34.79,39.257,34.971,39.445C370.927,136.247,371.256,136.376,371.583,136.376z"/>
	<path style="fill:#251626;" d="M274.481,199.138c0.422,0,0.835-0.215,1.069-0.604c0.356-0.592,0.168-1.359-0.425-1.715   c-18.7-11.275-67.455-85.29-65.838-104.817c0.256-3.097,1.733-3.681,2.218-3.874c3.66-1.452,13.897,2.174,41.357,42.596   c15.859,23.346,29.812,47.844,29.951,48.09c0.342,0.602,1.105,0.807,1.703,0.469c0.6-0.34,0.81-1.103,0.469-1.703   c-5.757-10.129-56.753-98.762-74.403-91.774c-1.552,0.615-3.47,2.155-3.787,5.991c-1.711,20.69,47.411,95.328,67.041,107.163   C274.037,199.081,274.262,199.138,274.481,199.138z"/>
	<path style="fill:#251626;" d="M405.534,214.415c0.22,0,0.439-0.056,0.639-0.176c0.593-0.354,0.788-1.12,0.434-1.713   c-40.903-68.629-98.068-41.016-98.639-40.728c-0.617,0.31-0.866,1.059-0.559,1.676c0.31,0.617,1.061,0.866,1.676,0.559   c2.257-1.124,55.689-26.816,95.374,39.771C404.695,214.198,405.11,214.415,405.534,214.415z"/>
	<path style="fill:#251626;" d="M426.271,214.415c0.085,0,0.173-0.009,0.264-0.028c0.674-0.145,1.103-0.809,0.959-1.484   c-15.657-72.785-69.403-65.896-69.944-65.811c-0.683,0.098-1.157,0.731-1.059,1.413c0.098,0.684,0.715,1.166,1.415,1.06   c0.522-0.072,51.997-6.572,67.143,63.862C425.176,214.015,425.693,214.415,426.271,214.415z"/>
	<path style="fill:#251626;" d="M451.633,200.077c1.191,0,2.221-0.483,2.992-1.406c3.841-4.596,0.144-20.481-0.29-22.277   c-0.164-0.666-0.832-1.081-1.508-0.92c-0.671,0.162-1.083,0.837-0.922,1.508c1.525,6.312,3.092,17.348,0.803,20.087   c-0.317,0.383-0.644,0.536-1.193,0.505c-4.539-0.267-9.18-11.669-11.042-18.793c-0.173-0.665-0.847-1.066-1.523-0.893   c-0.669,0.174-1.069,0.858-0.893,1.525c0.539,2.066,5.495,20.195,13.311,20.655C451.457,200.074,451.545,200.077,451.633,200.077z"/>
	<path style="fill:#251626;" d="M362.174,211.146c1.191,0,2.221-0.483,2.992-1.406c3.841-4.596,0.142-20.48-0.293-22.276   c-0.163-0.669-0.832-1.086-1.508-0.92c-0.671,0.162-1.083,0.837-0.922,1.508c1.528,6.312,3.094,17.348,0.805,20.086   c-0.32,0.383-0.649,0.539-1.193,0.505c-4.539-0.267-9.18-11.669-11.042-18.793c-0.173-0.665-0.852-1.068-1.523-0.893   c-0.669,0.174-1.069,0.858-0.893,1.525c0.539,2.066,5.495,20.195,13.311,20.655C361.998,211.143,362.086,211.146,362.174,211.146z"/>
	<path style="fill:#251626;" d="M392.242,484.586c0.195,0,0.395-0.045,0.578-0.143c0.613-0.32,0.849-1.074,0.53-1.686   c-6.833-13.061-18.704-19.084-19.207-19.334c-0.62-0.306-1.367-0.051-1.674,0.561c-0.307,0.617-0.056,1.368,0.559,1.675   c0.117,0.059,11.664,5.936,18.107,18.257C391.359,484.342,391.793,484.586,392.242,484.586z"/>
	<path style="fill:#251626;" d="M399.111,475.532c0.195,0,0.395-0.045,0.578-0.143c0.613-0.32,0.849-1.074,0.53-1.686   c-6.764-12.933-14.854-19.593-15.195-19.871c-0.534-0.432-1.32-0.356-1.757,0.182c-0.434,0.534-0.354,1.321,0.181,1.757   c0.078,0.065,8.045,6.644,14.556,19.091C398.228,475.288,398.662,475.532,399.111,475.532z"/>
	<path style="fill:#251626;" d="M382.669,489.638c0.195,0,0.395-0.045,0.578-0.143c0.612-0.32,0.849-1.074,0.53-1.686   c-6.977-13.337-17.687-13.95-18.141-13.969c-0.705-0.016-1.269,0.504-1.298,1.19c-0.034,0.687,0.498,1.271,1.186,1.307   c0.395,0.02,9.761,0.63,16.037,12.632C381.786,489.394,382.22,489.638,382.669,489.638z"/>
	<path style="fill:#251626;" d="M463.314,442.319c0.195,0,0.395-0.045,0.578-0.143c0.612-0.32,0.849-1.074,0.53-1.686   c-6.757-12.916-18.568-23.152-19.066-23.581c-0.527-0.451-1.315-0.388-1.762,0.132c-0.449,0.523-0.39,1.312,0.132,1.762   c0.12,0.102,11.952,10.364,18.48,22.847C462.431,442.075,462.865,442.319,463.314,442.319z"/>
	<path style="fill:#251626;" d="M466.364,432.477c0.098,0,0.195-0.011,0.295-0.035c0.669-0.162,1.081-0.838,0.92-1.508   c-3.885-16.013-11.803-17.799-12.14-17.867c-0.664-0.132-1.335,0.298-1.474,0.975c-0.137,0.671,0.293,1.326,0.961,1.47   c0.132,0.033,6.774,1.787,10.222,16.01C465.288,432.094,465.801,432.477,466.364,432.477z"/>
	<path style="fill:#251626;" d="M455.191,444.89c0.195,0,0.395-0.045,0.578-0.143c0.613-0.32,0.849-1.074,0.53-1.686   c-6.921-13.231-19.005-15.781-19.517-15.884c-0.686-0.137-1.33,0.304-1.467,0.979c-0.137,0.675,0.3,1.334,0.976,1.471   c0.112,0.023,11.445,2.457,17.792,14.593C454.307,444.646,454.742,444.89,455.191,444.89z"/>
	<circle style="fill:#F4B3B5;" cx="466.673" cy="223.582" r="15.249"/>
	<path style="fill:#251626;" d="M76.549,500c0.52,0,1.005-0.326,1.181-0.846c0.922-2.693,9.124-8.749,14.078-11.935   c0.581-0.373,0.749-1.146,0.376-1.726c-0.373-0.581-1.147-0.75-1.728-0.375c-1.386,0.891-13.587,8.832-15.088,13.229   c-0.225,0.653,0.124,1.363,0.776,1.586C76.278,499.978,76.415,500,76.549,500z"/>
	<path style="fill:#251626;" d="M68.123,493.709c0.52,0,1.005-0.326,1.181-0.846c0.922-2.693,9.124-8.748,14.078-11.934   c0.581-0.372,0.749-1.146,0.376-1.726c-0.376-0.581-1.147-0.75-1.728-0.375c-1.386,0.891-13.587,8.831-15.088,13.227   c-0.225,0.653,0.124,1.363,0.776,1.586C67.852,493.687,67.988,493.709,68.123,493.709z"/>
	<path style="fill:#251626;" d="M62.559,489.638c0.017,0,0.034,0,0.054-0.001c0.688-0.029,1.223-0.611,1.196-1.301   c-0.122-2.845,5.32-11.467,8.778-16.234c0.405-0.558,0.283-1.34-0.276-1.745c-0.556-0.405-1.34-0.283-1.745,0.278   c-0.969,1.334-9.451,13.165-9.256,17.805C61.339,489.112,61.893,489.638,62.559,489.638z"/>
	<path style="fill:#251626;" d="M30.565,423.101c0.52,0,1.005-0.326,1.181-0.846c0.922-2.692,9.124-8.748,14.078-11.934   c0.581-0.373,0.749-1.146,0.376-1.726c-0.376-0.582-1.147-0.748-1.728-0.375c-1.386,0.891-13.587,8.832-15.088,13.227   c-0.225,0.653,0.124,1.363,0.776,1.586C30.294,423.079,30.431,423.101,30.565,423.101z"/>
	<path style="fill:#251626;" d="M22.139,416.811c0.52,0,1.005-0.326,1.181-0.846c0.922-2.693,9.124-8.749,14.078-11.935   c0.581-0.373,0.749-1.146,0.376-1.726s-1.147-0.75-1.728-0.375c-1.386,0.891-13.587,8.832-15.088,13.229   c-0.225,0.653,0.124,1.363,0.776,1.586C21.868,416.789,22.005,416.811,22.139,416.811z"/>
	<path style="fill:#251626;" d="M16.575,412.74c0.017,0,0.034,0,0.054-0.001c0.688-0.029,1.223-0.611,1.196-1.301   c-0.122-2.845,5.32-11.467,8.778-16.234c0.405-0.558,0.283-1.34-0.276-1.745c-0.556-0.404-1.34-0.282-1.745,0.278   c-0.969,1.334-9.451,13.165-9.256,17.805C15.355,412.214,15.909,412.74,16.575,412.74z"/>
	<path style="fill:#251626;" d="M128.353,334.697c-2.75,0.939-5.983,1.415-9.627,1.415l-0.537-0.004   c-10.366-0.131-18.944-6.857-23.534-18.454c-3.929-9.926-3.716-21.004,0.364-25.917c-2.238-4.778-4.202-11.413-1.896-17.3   c1.711-4.37,5.503-7.706,11.271-9.913c4.944-1.894,9.837-2.761,14.241-2.549c1.379-3.681,5.129-8.875,14.768-8.236   c12.328,0.853,24.742,13.069,31.301,24.322c2.533-0.12,5.11,0.655,7.555,2.266c8.236,5.42,11.084,17.639,7.257,31.133   c-4.026,14.195-15.298,28.73-31.401,29.204c-0.366,0.01-0.732,0.016-1.093,0.016C139.966,340.679,133.526,338.614,128.353,334.697z    M169.515,302.654c-1.515,3.762-4.492,6.335-8.853,7.645c-7.906,2.376-12.953-0.875-13.37-8.16   c-0.52-9.05,6.174-21.217,14.761-23.651c-6.34-10.458-17.692-21.486-28.819-22.255c-7.233-0.505-10.578,2.745-12.004,5.986   c8.363,1.205,13.207,6.165,14.202,10.505c0.849,3.693-0.805,7.173-4.427,9.31c-3.372,1.991-7.152,0.944-9.859-2.683   c-2.943-3.947-4.175-9.866-3.202-14.9c-3.904-0.072-8.25,0.719-12.658,2.406c-5.083,1.946-8.394,4.804-9.839,8.492   c-1.889,4.822-0.359,10.425,1.537,14.679c0.566-0.342,1.171-0.597,1.811-0.765c1.074-0.283,2.118-0.427,3.097-0.427   c3.041,0,4.902,1.33,5.927,2.445c1.262,1.369,1.984,3.213,1.984,5.059c0,3.156-2.04,5.361-4.963,5.361   c-1.332,0-2.814-0.445-4.397-1.326c-0.144-0.078-0.268-0.185-0.371-0.312c-0.088-0.11-1.901-2.393-3.785-5.828   c-2.838,4.593-2.64,14.083,0.691,22.5c1.986,5.018,8.031,16.71,21.24,16.875l0.508,0.004c2.728,0,5.188-0.282,7.345-0.841   c-6.467-6.069-8.743-14.012-7.118-18.657c1.086-3.103,3.756-4.73,7.44-4.359c6.105,0.622,10.918,5.221,11.703,11.181   c0.551,4.194-1.086,9.494-7.052,12.612c4.778,3.206,10.598,4.835,16.999,4.615c14.839-0.436,25.293-14.069,29.071-27.387   c3.524-12.422,1.079-23.556-6.227-28.364c-1.576-1.037-3.182-1.646-4.788-1.816C170.503,289.138,171.752,297.096,169.515,302.654z    M121.31,314.941c-1.401,4.008,1.079,11.506,7.484,16.912c4.885-2.1,7.428-6.015,6.825-10.588c-0.634-4.807-4.532-8.518-9.48-9.022   c-0.266-0.028-0.522-0.041-0.771-0.041C123.311,312.202,121.947,313.124,121.31,314.941z M149.785,301.997   c0.173,3.006,1.369,6.59,6.088,6.59c1.198,0,2.567-0.229,4.07-0.681c3.594-1.081,6.035-3.161,7.252-6.185   c2.052-5.094,0.647-12.706-3.851-20.98C155.715,282.336,149.312,293.729,149.785,301.997z M99.431,291.679   c-0.476,0.126-0.927,0.331-1.347,0.613c1.613,3.078,3.292,5.36,3.792,6.019c1.12,0.592,2.116,0.892,2.965,0.892   c2.345,0,2.465-2.384,2.465-2.862c0-1.226-0.481-2.452-1.323-3.366c-0.986-1.072-2.401-1.639-4.09-1.639   C101.129,291.335,100.3,291.451,99.431,291.679z M123.15,277.857c0.92,1.232,2.416,2.7,4.329,2.7c0.739,0,1.498-0.227,2.257-0.675   c2.711-1.601,3.87-3.943,3.26-6.597c-0.825-3.59-5.083-7.716-12.538-8.649C119.519,269.022,120.588,274.421,123.15,277.857z"/>
	<path style="fill:#FDFAE7;" d="M408.944,232.754c0,0-119.783-12.379-83.353,56.346s126.277,33.592,144.225,2.591   S475.954,225.464,408.944,232.754z"/>
	<path style="fill:#251626;" d="M417.677,279.25c2.338,0,4.558-0.788,6.62-2.351c10.142-7.695,13.348-32.11,13.48-33.146   c0.088-0.684-0.398-1.309-1.081-1.397c-0.674-0.085-1.31,0.397-1.398,1.082c-0.032,0.243-3.204,24.41-12.514,31.471   c-1.994,1.512-4.065,2.084-6.328,1.751c-10.103-1.491-17.331-24.567-19.263-33.334c-0.149-0.671-0.81-1.093-1.489-0.95   c-0.674,0.149-1.101,0.815-0.952,1.49c0.3,1.354,7.479,33.22,21.337,35.266C416.625,279.211,417.155,279.25,417.677,279.25z"/>
	<path style="fill:#251626;" d="M418.599,279.249c0.017,0,0.037,0,0.054-0.001c0.691-0.029,1.225-0.612,1.196-1.302l-2.345-54.239   c-0.029-0.689-0.583-1.255-1.303-1.194c-0.691,0.029-1.225,0.613-1.196,1.302l2.345,54.239   C417.379,278.724,417.933,279.249,418.599,279.249z"/>
	<path style="fill:#E7808A;" d="M431.052,209.492h-36.793c0,0,10.911,28.536,20.143,28.536   C423.635,238.029,431.052,209.492,431.052,209.492z"/>
	<circle style="fill:#F4B3B5;" cx="342.479" cy="231.785" r="15.249"/>
	<path style="fill:#251626;" d="M392.001,324.995c0.681,0,1.237-0.545,1.249-1.229c0.012-0.689-0.539-1.258-1.227-1.27   c-0.444-0.007-44.62-1.082-67.541-29.394c-0.432-0.536-1.218-0.619-1.757-0.185c-0.537,0.434-0.62,1.221-0.185,1.757   c23.663,29.23,68.986,30.314,69.442,30.321C391.986,324.995,391.993,324.995,392.001,324.995z"/>
	<path style="fill:#FDFAE7;" d="M396.432,405.459c0,0-54.916-51.989-69.202-40.587c-14.286,11.402,32.053,56.696,46.978,57.768   C389.133,423.711,396.432,405.459,396.432,405.459z"/>
	<path style="fill:#FDFAE7;" d="M86.512,390.49c0,0,32.07-29.953,46.839-22.131s-18.565,47.573-29.651,45.407   S84.368,394.435,86.512,390.49z"/>
	<path style="fill:#251626;" d="M261.692,409.459c0.542,0,1.042-0.355,1.201-0.902c0.193-0.663-0.19-1.356-0.852-1.547   c-1.335-0.39-8.133-2.199-11.001,0.249c-0.525,0.448-0.588,1.236-0.142,1.762c0.451,0.527,1.24,0.588,1.762,0.139   c1.369-1.166,5.905-0.558,8.682,0.249C261.46,409.443,261.577,409.459,261.692,409.459z"/>
	<path style="fill:#251626;" d="M246.955,398.59c0.542,0,1.042-0.355,1.201-0.902c0.193-0.663-0.19-1.356-0.852-1.547   c-1.332-0.388-8.133-2.201-11.003,0.249c-0.525,0.448-0.588,1.236-0.142,1.761c0.449,0.527,1.24,0.591,1.762,0.14   c1.369-1.166,5.903-0.556,8.685,0.249C246.724,398.574,246.841,398.59,246.955,398.59z"/>
	<path style="fill:#251626;" d="M238.639,410.994c0.542,0,1.042-0.355,1.201-0.902c0.19-0.663-0.19-1.356-0.852-1.547   c-1.332-0.389-8.133-2.197-11.001,0.249c-0.525,0.448-0.588,1.236-0.142,1.761c0.451,0.527,1.24,0.589,1.762,0.14   c1.369-1.164,5.9-0.556,8.685,0.25C238.407,410.978,238.524,410.994,238.639,410.994z"/>
	<path style="fill:#251626;" d="M220.928,398.59c0.542,0,1.042-0.355,1.201-0.902c0.19-0.663-0.19-1.356-0.852-1.547   c-1.335-0.39-8.136-2.199-11.001,0.249c-0.525,0.448-0.588,1.236-0.142,1.761c0.449,0.527,1.24,0.591,1.762,0.14   c1.369-1.165,5.898-0.555,8.685,0.25C220.696,398.574,220.813,398.59,220.928,398.59z"/>
	<path style="fill:#251626;" d="M216.008,410.994c0.542,0,1.042-0.355,1.201-0.902c0.19-0.663-0.19-1.356-0.852-1.547   c-1.332-0.389-8.133-2.197-11.001,0.249c-0.525,0.448-0.588,1.236-0.142,1.761c0.451,0.527,1.24,0.589,1.762,0.14   c1.369-1.164,5.898-0.556,8.685,0.25C215.777,410.978,215.894,410.994,216.008,410.994z"/>
	<path style="fill:#251626;" d="M198.431,402.77c0.542,0,1.042-0.355,1.201-0.902c0.193-0.663-0.19-1.356-0.852-1.547   c-1.332-0.389-8.133-2.197-11.001,0.249c-0.525,0.448-0.588,1.236-0.142,1.762c0.451,0.527,1.242,0.588,1.762,0.139   c1.369-1.168,5.905-0.559,8.682,0.249C198.199,402.754,198.317,402.77,198.431,402.77z"/>
	<path style="fill:#251626;" d="M183.729,417.715c0.325,0,0.647-0.124,0.891-0.373c1.262-1.284,5.83-1.075,8.673-0.515   c0.666,0.127,1.335-0.306,1.467-0.985c0.134-0.677-0.307-1.334-0.983-1.468c-1.367-0.266-8.299-1.468-10.937,1.215   c-0.483,0.493-0.478,1.284,0.015,1.768C183.097,417.596,183.412,417.715,183.729,417.715z"/>
	<path style="fill:#251626;" d="M170.652,415.54c0.449,0,0.886-0.245,1.108-0.672c0.83-1.593,5.259-2.733,8.141-3.032   c0.686-0.072,1.184-0.686,1.113-1.373s-0.703-1.181-1.371-1.114c-1.381,0.143-8.36,1.024-10.098,4.364   c-0.32,0.612-0.081,1.368,0.532,1.685C170.259,415.495,170.456,415.54,170.652,415.54z"/>
	<path style="fill:#251626;" d="M234.513,389.684c0.53,0,1.02-0.338,1.188-0.867c0.212-0.656-0.149-1.36-0.805-1.572   c-1.327-0.423-8.08-2.421-11.005-0.062c-0.537,0.433-0.622,1.22-0.19,1.757c0.432,0.539,1.227,0.619,1.757,0.19   c1.406-1.131,5.92-0.39,8.673,0.494C234.259,389.665,234.386,389.684,234.513,389.684z"/>
	<path style="fill:#251626;" d="M266.399,398.901c0.515,0,0.998-0.321,1.179-0.835c0.229-0.652-0.112-1.364-0.764-1.593   c-1.31-0.46-7.999-2.645-10.996-0.368c-0.549,0.417-0.656,1.202-0.239,1.751c0.42,0.55,1.201,0.656,1.752,0.238   c1.428-1.087,5.918-0.226,8.653,0.737C266.121,398.878,266.263,398.901,266.399,398.901z"/>
	<path style="fill:#251626;" d="M279.464,410.203c0.417,0,0.825-0.209,1.062-0.591c0.364-0.586,0.183-1.356-0.403-1.72   c-1.176-0.733-7.235-4.312-10.659-2.731c-0.625,0.29-0.898,1.032-0.61,1.658c0.293,0.63,1.03,0.899,1.659,0.611   c1.635-0.755,5.835,1.059,8.292,2.584C279.01,410.142,279.237,410.203,279.464,410.203z"/>
	<path style="fill:#251626;" d="M418.265,368.616c0.317,0,0.634-0.121,0.879-0.362c0.49-0.486,0.495-1.275,0.01-1.766   c-0.979-0.988-6.018-5.871-9.734-5.135c-0.676,0.135-1.115,0.794-0.979,1.47c0.137,0.678,0.803,1.115,1.471,0.98   c1.742-0.356,5.427,2.385,7.465,4.444C417.621,368.493,417.943,368.616,418.265,368.616z"/>
	<path style="fill:#251626;" d="M418.265,378.608c0.317,0,0.634-0.121,0.879-0.362c0.49-0.486,0.495-1.275,0.01-1.766   c-0.979-0.987-6.018-5.866-9.734-5.135c-0.676,0.135-1.115,0.794-0.979,1.47c0.137,0.678,0.803,1.116,1.471,0.98   c1.742-0.354,5.427,2.385,7.465,4.444C417.621,378.485,417.943,378.608,418.265,378.608z"/>
	<path style="fill:#251626;" d="M432.267,376.187c0.317,0,0.634-0.121,0.879-0.362c0.49-0.486,0.495-1.275,0.01-1.766   c-0.979-0.987-6.025-5.866-9.734-5.135c-0.676,0.135-1.115,0.794-0.979,1.47c0.137,0.678,0.81,1.118,1.471,0.98   c1.745-0.36,5.427,2.384,7.465,4.444C431.623,376.064,431.945,376.187,432.267,376.187z"/>
	<path style="fill:#251626;" d="M436.564,386.423c0.317,0,0.634-0.121,0.878-0.361c0.49-0.486,0.495-1.276,0.01-1.767   c-0.979-0.987-6.025-5.869-9.732-5.135c-0.676,0.135-1.115,0.794-0.979,1.47c0.137,0.68,0.81,1.119,1.471,0.98   c1.781-0.355,5.427,2.384,7.462,4.442C435.92,386.3,436.242,386.423,436.564,386.423z"/>
	<path style="fill:#251626;" d="M352.903,418.533c0.317,0,0.634-0.121,0.879-0.361c0.49-0.486,0.495-1.276,0.01-1.767   c-0.979-0.987-6.013-5.872-9.732-5.135c-0.676,0.135-1.115,0.794-0.979,1.47c0.137,0.68,0.81,1.113,1.471,0.98   c1.786-0.367,5.427,2.385,7.462,4.442C352.259,418.409,352.581,418.533,352.903,418.533z"/>
	<path style="fill:#251626;" d="M352.903,428.525c0.317,0,0.634-0.121,0.879-0.362c0.49-0.484,0.495-1.275,0.01-1.766   c-0.976-0.987-6.013-5.893-9.732-5.135c-0.676,0.135-1.115,0.794-0.979,1.471s0.81,1.114,1.471,0.979   c1.769-0.362,5.425,2.384,7.462,4.444C352.259,428.402,352.581,428.525,352.903,428.525z"/>
	<path style="fill:#251626;" d="M366.905,426.104c0.317,0,0.634-0.121,0.879-0.361c0.49-0.486,0.495-1.276,0.01-1.767   c-0.979-0.987-6.013-5.872-9.732-5.135c-0.676,0.135-1.115,0.794-0.979,1.47c0.137,0.678,0.805,1.116,1.471,0.98   c1.781-0.351,5.427,2.384,7.462,4.442C366.261,425.98,366.583,426.104,366.905,426.104z"/>
	<path style="fill:#251626;" d="M371.205,436.339c0.317,0,0.634-0.121,0.878-0.362c0.49-0.486,0.495-1.275,0.01-1.766   c-0.979-0.988-6.025-5.868-9.734-5.135c-0.676,0.135-1.115,0.794-0.979,1.47c0.137,0.678,0.808,1.118,1.471,0.98   c1.73-0.362,5.427,2.384,7.465,4.444C370.561,436.216,370.883,436.339,371.205,436.339z"/>
	<path style="fill:#251626;" d="M91.132,443.512c0.564,0,1.074-0.382,1.213-0.952c0.429-1.745,4.466-3.901,7.194-4.873   c0.649-0.232,0.988-0.947,0.756-1.597c-0.229-0.649-0.944-0.986-1.596-0.758c-1.308,0.466-7.882,2.973-8.78,6.633   c-0.166,0.67,0.244,1.347,0.915,1.51C90.934,443.501,91.034,443.512,91.132,443.512z"/>
	<path style="fill:#251626;" d="M100.18,447.753c0.564,0,1.074-0.382,1.213-0.952c0.429-1.75,4.463-3.902,7.191-4.872   c0.649-0.232,0.988-0.946,0.756-1.596c-0.229-0.649-0.944-0.983-1.596-0.759c-1.308,0.466-7.882,2.973-8.778,6.631   c-0.166,0.671,0.246,1.347,0.915,1.512C99.982,447.742,100.082,447.753,100.18,447.753z"/>
	<path style="fill:#251626;" d="M103.931,434.048c0.564,0,1.074-0.382,1.213-0.952c0.429-1.75,4.463-3.902,7.191-4.872   c0.649-0.232,0.988-0.946,0.756-1.596c-0.232-0.649-0.944-0.983-1.596-0.759c-1.308,0.466-7.882,2.973-8.778,6.631   c-0.166,0.671,0.246,1.347,0.915,1.512C103.733,434.037,103.833,434.048,103.931,434.048z"/>
	<path style="fill:#251626;" d="M115.024,434.5c0.564,0,1.074-0.382,1.213-0.952c0.429-1.75,4.463-3.902,7.191-4.872   c0.649-0.232,0.988-0.946,0.756-1.596c-0.229-0.649-0.942-0.982-1.596-0.759c-1.308,0.466-7.882,2.973-8.778,6.631   c-0.166,0.671,0.246,1.347,0.915,1.512C114.826,434.489,114.926,434.5,115.024,434.5z"/>
	<path style="fill:#251626;" d="M34.357,366.606c0.564,0,1.074-0.382,1.213-0.952c0.427-1.744,4.463-3.9,7.194-4.872   c0.649-0.232,0.988-0.947,0.756-1.596c-0.232-0.652-0.947-0.987-1.596-0.759c-1.308,0.466-7.884,2.973-8.78,6.631   c-0.166,0.671,0.246,1.347,0.915,1.512C34.16,366.595,34.26,366.606,34.357,366.606z"/>
	<path style="fill:#251626;" d="M43.403,370.848c0.564,0,1.074-0.382,1.213-0.952c0.429-1.745,4.466-3.901,7.194-4.873   c0.649-0.232,0.988-0.947,0.756-1.597c-0.229-0.65-0.944-0.986-1.596-0.758c-1.308,0.466-7.882,2.973-8.78,6.633   c-0.166,0.67,0.244,1.347,0.915,1.51C43.205,370.837,43.306,370.848,43.403,370.848z"/>
	<path style="fill:#251626;" d="M47.156,357.142c0.564,0,1.074-0.382,1.213-0.952c0.429-1.75,4.463-3.902,7.191-4.872   c0.649-0.232,0.988-0.946,0.756-1.596c-0.229-0.65-0.947-0.985-1.596-0.759c-1.308,0.466-7.882,2.973-8.778,6.631   c-0.166,0.671,0.246,1.347,0.915,1.512C46.959,357.132,47.059,357.142,47.156,357.142z"/>
	<path style="fill:#251626;" d="M58.247,357.595c0.564,0,1.074-0.382,1.213-0.952c0.429-1.748,4.466-3.903,7.194-4.873   c0.649-0.232,0.988-0.947,0.756-1.596c-0.232-0.652-0.947-0.988-1.596-0.759c-1.308,0.466-7.882,2.975-8.78,6.633   c-0.166,0.67,0.244,1.347,0.915,1.51C58.049,357.584,58.149,357.595,58.247,357.595z"/>
	<path style="fill:#251626;" d="M275.272,305.256c0.542,0,1.042-0.355,1.201-0.902c0.19-0.663-0.19-1.356-0.852-1.547   c-1.332-0.388-8.133-2.2-11.001,0.249c-0.525,0.448-0.588,1.236-0.142,1.761c0.451,0.528,1.24,0.588,1.762,0.14   c1.369-1.164,5.9-0.556,8.685,0.25C275.04,305.24,275.157,305.256,275.272,305.256z"/>
	<path style="fill:#251626;" d="M260.535,294.388c0.542,0,1.042-0.355,1.201-0.902c0.193-0.663-0.19-1.356-0.852-1.547   c-1.335-0.39-8.136-2.2-11.001,0.249c-0.525,0.448-0.588,1.236-0.142,1.762c0.451,0.527,1.24,0.587,1.762,0.139   c1.369-1.168,5.905-0.556,8.682,0.249C260.303,294.372,260.421,294.388,260.535,294.388z"/>
	<path style="fill:#251626;" d="M252.219,306.792c0.542,0,1.042-0.355,1.201-0.902c0.193-0.663-0.19-1.356-0.852-1.547   c-1.332-0.39-8.133-2.199-11.001,0.249c-0.525,0.448-0.588,1.236-0.142,1.762c0.454,0.528,1.24,0.588,1.762,0.139   c1.369-1.166,5.905-0.558,8.682,0.249C251.987,306.776,252.104,306.792,252.219,306.792z"/>
	<path style="fill:#251626;" d="M234.51,294.388c0.542,0,1.042-0.355,1.201-0.902c0.193-0.663-0.19-1.356-0.852-1.547   c-1.335-0.39-8.136-2.2-11.001,0.249c-0.525,0.448-0.588,1.236-0.142,1.762c0.451,0.527,1.24,0.587,1.762,0.139   c1.369-1.168,5.903-0.556,8.682,0.249C234.278,294.372,234.396,294.388,234.51,294.388z"/>
	<path style="fill:#251626;" d="M229.588,306.792c0.542,0,1.042-0.355,1.201-0.902c0.193-0.663-0.19-1.356-0.852-1.547   c-1.332-0.39-8.133-2.199-11.001,0.249c-0.525,0.448-0.588,1.236-0.142,1.762c0.451,0.528,1.242,0.588,1.762,0.139   c1.371-1.166,5.905-0.558,8.682,0.249C229.356,306.776,229.474,306.792,229.588,306.792z"/>
	<path style="fill:#251626;" d="M211.086,301.732c0.542,0,1.042-0.355,1.201-0.902c0.193-0.663-0.19-1.356-0.852-1.547   c-1.335-0.39-8.136-2.199-11.001,0.249c-0.525,0.448-0.588,1.236-0.142,1.762c0.451,0.527,1.24,0.588,1.762,0.139   c1.369-1.168,5.903-0.556,8.682,0.249C210.855,301.716,210.972,301.732,211.086,301.732z"/>
	<path style="fill:#251626;" d="M188.631,295.051c0.325,0,0.647-0.124,0.891-0.373c1.264-1.285,5.827-1.075,8.673-0.515   c0.661,0.129,1.332-0.306,1.467-0.985c0.134-0.677-0.307-1.334-0.983-1.468c-1.367-0.265-8.302-1.468-10.937,1.215   c-0.483,0.493-0.478,1.284,0.015,1.768C187.999,294.931,188.314,295.051,188.631,295.051z"/>
	<path style="fill:#251626;" d="M207.453,289.826c0.451,0,0.886-0.245,1.108-0.673c0.827-1.592,5.259-2.732,8.141-3.031   c0.686-0.072,1.184-0.686,1.113-1.371c-0.071-0.688-0.703-1.176-1.371-1.115c-1.381,0.143-8.363,1.024-10.098,4.366   c-0.32,0.612-0.081,1.367,0.532,1.685C207.06,289.781,207.258,289.826,207.453,289.826z"/>
	<path style="fill:#251626;" d="M248.093,285.481c0.53,0,1.02-0.338,1.188-0.869c0.212-0.656-0.149-1.359-0.808-1.57   c-1.32-0.423-8.07-2.418-11.003-0.061c-0.537,0.433-0.622,1.219-0.19,1.757c0.432,0.538,1.22,0.62,1.757,0.19   c1.401-1.126,5.913-0.39,8.675,0.493C247.839,285.462,247.966,285.481,248.093,285.481z"/>
	<path style="fill:#251626;" d="M279.982,294.698c0.515,0,0.998-0.321,1.179-0.835c0.229-0.65-0.112-1.364-0.764-1.593   c-1.31-0.462-7.999-2.649-10.998-0.368c-0.549,0.417-0.656,1.202-0.239,1.751c0.42,0.549,1.201,0.656,1.752,0.238   c1.432-1.09,5.925-0.226,8.656,0.737C279.703,294.675,279.845,294.698,279.982,294.698z"/>
	<path style="fill:#251626;" d="M293.044,306.001c0.42,0,0.827-0.21,1.064-0.591c0.364-0.587,0.183-1.357-0.403-1.72   c-1.181-0.732-7.238-4.303-10.661-2.732c-0.625,0.289-0.898,1.032-0.61,1.658c0.293,0.63,1.03,0.9,1.659,0.611   c1.62-0.756,5.83,1.059,8.294,2.585C292.593,305.94,292.82,306.001,293.044,306.001z"/>
</g>















</svg>
