<?xml version="1.0" encoding="UTF-8"?>
<!-- Generator: Adobe Illustrator 25.1.0, SVG Export Plug-In . SVG Version: 6.00 Build 0)  -->
<svg xmlns="http://www.w3.org/2000/svg" xmlns:xlink="http://www.w3.org/1999/xlink" version="1.1" id="Capa_1" x="0px" y="0px" viewBox="0 0 500 500" style="enable-background:new 0 0 500 500;" xml:space="preserve" width="512" height="512">
<g>
	<path style="fill:#251426;" d="M102.661,306.791l-37.123-34.759c0,0-2.09,22.27,6.27,34.759   c8.359,12.489,30.853,7.676,30.853,7.676V306.791z"/>
	<path style="fill:#F0925E;" d="M344.227,272.032c0,0-239.013,19.617-245.251,38.192c-9.389,27.958,0.34,95.753,18.73,96.82   s198.714-4.263,198.714-4.263S364.752,285.887,344.227,272.032z"/>
	<path style="fill:#251626;" d="M290.882,115.366c-0.315,0-0.624-0.155-0.808-0.44L267.304,79.59   c-3.308,4.118-14.301,17.039-21.095,16.321c-7.53-0.836-24.27-51.998-27.548-62.245c-0.142-0.441,0.053-0.92,0.46-1.139   c0.407-0.22,0.914-0.114,1.204,0.248l27.636,34.606c4.905-5.747,17.416-20.302,18.993-21.091   c1.123-0.557,1.798-0.907,21.708,31.657c9.616,15.725,19.156,31.756,19.251,31.915c0.271,0.456,0.122,1.045-0.334,1.316   c-0.458,0.272-1.045,0.12-1.316-0.334c-13.901-23.366-35.118-58.266-38.87-62.488c-2.433,2.257-12.491,13.833-18.726,21.155   c-0.187,0.218-0.489,0.297-0.746,0.338c-0.287-0.005-0.556-0.137-0.735-0.361l-25.07-31.395   c9.084,27.632,20.218,55.456,24.305,55.91c5.544,0.589,16.463-11.81,20.203-16.649c0.19-0.248,0.505-0.383,0.801-0.372   c0.311,0.013,0.597,0.177,0.766,0.439l23.499,36.464c0.287,0.446,0.158,1.04-0.287,1.328   C291.241,115.316,291.061,115.366,290.882,115.366z"/>
	<path style="fill:#251626;" d="M329.776,104.021c-0.422,0-0.809-0.28-0.925-0.708l-13.894-51.049   c-0.082-0.301-0.012-0.623,0.186-0.863c0.198-0.24,0.509-0.368,0.811-0.347c0.136,0.008,13.531,0.929,18.45-3.981   c1.285-1.283,1.845-2.827,1.71-4.718c-0.612-8.56-8.907-28.301-12.669-36.886v27.905c0,1.174-0.419,2.116-1.246,2.799   c-2.704,2.241-9.372,0.972-16.429-0.368c-3.228-0.613-6.566-1.247-9.295-1.475c-0.285-0.015-0.366,0.064-0.447,0.179   c-3.245,4.581,12.558,44.237,23.281,68.158c0.217,0.484,0.001,1.052-0.483,1.268c-0.484,0.216-1.051,0-1.268-0.483   c-2.885-6.435-28.041-63.073-23.097-70.054c0.503-0.708,1.275-1.069,2.174-0.982c2.829,0.235,6.217,0.878,9.493,1.501   c6.017,1.144,12.841,2.439,14.847,0.776c0.236-0.196,0.55-0.545,0.55-1.321V0.961c0-0.451,0.314-0.842,0.755-0.938   c0.444-0.099,0.89,0.127,1.077,0.537c0.566,1.23,13.858,30.271,14.671,41.658c0.175,2.447-0.589,4.538-2.27,6.215   c-4.598,4.587-14.9,4.713-18.602,4.6l13.547,49.775c0.14,0.512-0.162,1.04-0.674,1.178   C329.945,104.01,329.859,104.021,329.776,104.021z"/>
	<path style="fill:#F0925E;" d="M343.552,106.302c0,0,98.048,63.204,90.755,74.549c-7.293,11.344-102.91-15.719-102.91-15.719   l24.595,149.335l-88.61,3.327c0,0,4.238-224.457,28.049-227.698C319.242,86.854,343.552,106.302,343.552,106.302z"/>
	<path style="fill:#F0925E;" d="M290.376,121.234l-58.588-6.829c0,0-3.225,11.689,17.738,21.756s38.969-8.27,38.969-8.27   L290.376,121.234z"/>
	<path style="fill:#251626;" d="M260.645,134.259c-5.207,0-10.804-1.743-15.602-7.179c-0.351-0.398-0.313-1.004,0.084-1.356   c0.398-0.351,1.004-0.312,1.356,0.084c12.19,13.815,30.262,1.421,30.442,1.296c0.432-0.303,1.034-0.199,1.337,0.236   c0.304,0.434,0.199,1.033-0.236,1.337C277.901,128.765,269.888,134.259,260.645,134.259z"/>
	<path style="fill:#FCDCAD;" d="M365.829,149.368c0,0-31.706-47.921-58.889-41.382c-27.182,6.539-2.841,36.257,12.769,39.634   C377.534,160.129,365.829,149.368,365.829,149.368z"/>
	<path style="fill:#251426;" d="M422.542,163.816c0,0-18.378,30.748,11.765,17.035C434.307,180.851,436.592,175.594,422.542,163.816   z"/>
	<path style="fill:#F0925E;" d="M320.06,328.142c0,0,93.238,25.847,102.835,45.811c9.596,19.965-22.932,89.271-22.932,89.271   h-14.295l13.397-77.529l-69.523-33.361L320.06,328.142z"/>
	<path style="fill:#F0925E;" d="M165.607,368.953c0,0,27.245,111.662,29.378,123.391h-19.263c0,0-25.519-108.296-31.917-113.325   S165.607,368.953,165.607,368.953z"/>
	<path style="fill:#F0925E;" d="M313.959,369.248c0,0,8.52,114.622,8.695,126.542l-19.001-3.167c0,0-7.37-111.018-12.854-117.03   C285.315,369.581,313.959,369.248,313.959,369.248z"/>
	<path style="fill:#F0925E;" d="M133.295,373.912c0,0-25.24,112.133-28.544,123.587l-17.255-8.564c0,0,25.289-108.35,21.795-115.699   S133.295,373.912,133.295,373.912z"/>
	<path style="fill:#FCDCAD;" d="M295.431,403.365c0,0-8.367-47.163-38.322-52.736c-29.955-5.573-142.147-20.682-131.331,56.535   C125.778,407.164,274.952,410.943,295.431,403.365z"/>
	<path style="fill:#251426;" d="M127.149,382.145c0,0,90.949-42.547,157.615-8.408c0,0-2.179-31.662-71.542-39.441   S127.149,382.145,127.149,382.145z"/>
	<path style="fill:#FCDCAD;" d="M331.397,165.132c0,0-27.3,15.154-22.844,53.24c4.457,38.086,31.895,130.464,7.866,184.409   l42.39-9.301C358.81,393.48,383.894,357.847,331.397,165.132z"/>
	<path style="fill:#251426;" d="M322.217,118.363c0,0,20.091,12.765,20.676,20.817c0.585,8.051-33.939,3.112-37.84-8.657   C301.152,118.753,312.316,111.153,322.217,118.363z"/>
	<path style="fill:#FFFFFF;" d="M317.758,137.12c-0.313,0-0.629-0.072-0.933-0.218c-3.326-1.583-5.731-13.404-6.179-15.757   c-0.099-0.521,0.243-1.024,0.763-1.123c0.533-0.09,1.024,0.245,1.123,0.763c1.04,5.456,3.315,13.526,5.118,14.384   c0.099,0.049,0.132,0.038,0.203,0.001c1.783-0.96,1.691-8.737,0.583-15.391c-0.087-0.523,0.266-1.017,0.789-1.104   c0.525-0.097,1.018,0.265,1.104,0.789c0.423,2.536,2.334,15.297-1.567,17.398C318.442,137.034,318.101,137.12,317.758,137.12z"/>
	<polygon style="fill:#251426;" points="388.287,448.066 406.067,449.308 401.814,468.52 383.933,466.025  "/>
	<polygon style="fill:#251426;" points="302.63,478.1 321.685,478.1 322.654,498.461 302.63,498.461  "/>
	<polygon style="fill:#251426;" points="172.58,479.237 191.434,479.237 196.164,498.461 174.424,498.461  "/>
	<polygon style="fill:#251426;" points="91.336,472.146 110.396,478.1 106.051,500 83.934,492.344  "/>
	<path style="fill:#251626;" d="M311.98,440.475c-0.121,0-0.244-0.022-0.362-0.071c-0.491-0.2-0.728-0.76-0.527-1.251   c1.059-2.6-1.531-4.931-1.557-4.955c-0.398-0.352-0.435-0.958-0.083-1.355c0.353-0.398,0.962-0.432,1.355-0.083   c0.149,0.131,3.631,3.271,2.064,7.117C312.717,440.25,312.358,440.475,311.98,440.475z"/>
	<path style="fill:#251626;" d="M314.453,430.805c-0.121,0-0.244-0.022-0.362-0.071c-0.491-0.2-0.728-0.759-0.527-1.251   c1.058-2.6-1.532-4.932-1.559-4.956c-0.397-0.352-0.434-0.958-0.083-1.356c0.353-0.396,0.961-0.431,1.356-0.082   c0.148,0.132,3.63,3.272,2.063,7.118C315.191,430.58,314.832,430.805,314.453,430.805z"/>
	<path style="fill:#251626;" d="M306.05,434.439c-0.121,0-0.244-0.023-0.362-0.071c-0.491-0.2-0.728-0.759-0.527-1.251   c1.058-2.6-1.531-4.931-1.557-4.955c-0.397-0.352-0.435-0.958-0.083-1.356c0.352-0.397,0.961-0.432,1.355-0.082   c0.149,0.132,3.63,3.271,2.064,7.117C306.788,434.213,306.429,434.439,306.05,434.439z"/>
	<path style="fill:#251626;" d="M308.803,452.044c-0.121,0-0.244-0.022-0.362-0.071c-0.491-0.2-0.728-0.76-0.527-1.251   c1.059-2.6-1.531-4.932-1.558-4.956c-0.397-0.352-0.434-0.958-0.083-1.356c0.353-0.397,0.961-0.43,1.356-0.082   c0.148,0.132,3.63,3.272,2.063,7.118C309.54,451.819,309.182,452.044,308.803,452.044z"/>
	<path style="fill:#251626;" d="M315.522,456.341c-0.121,0-0.244-0.022-0.362-0.071c-0.491-0.199-0.728-0.759-0.527-1.251   c1.058-2.6-1.531-4.931-1.557-4.955c-0.398-0.352-0.435-0.958-0.083-1.356c0.352-0.395,0.961-0.43,1.356-0.082   c0.148,0.132,3.629,3.271,2.063,7.117C316.259,456.116,315.9,456.341,315.522,456.341z"/>
	<path style="fill:#251626;" d="M176.317,445.592c-0.067,0-0.135-0.007-0.202-0.022c-0.518-0.112-0.848-0.622-0.737-1.14   c0.591-2.744-2.366-4.59-2.396-4.609c-0.452-0.277-0.594-0.867-0.317-1.32c0.278-0.451,0.867-0.594,1.32-0.317   c0.17,0.103,4.144,2.59,3.27,6.649C177.158,445.285,176.76,445.592,176.317,445.592z"/>
	<path style="fill:#251626;" d="M177.069,435.64c-0.067,0-0.135-0.007-0.203-0.022c-0.518-0.112-0.848-0.622-0.737-1.14   c0.591-2.744-2.366-4.59-2.396-4.609c-0.452-0.277-0.594-0.867-0.317-1.32c0.276-0.451,0.867-0.595,1.32-0.317   c0.17,0.103,4.144,2.59,3.27,6.649C177.91,435.333,177.512,435.64,177.069,435.64z"/>
	<path style="fill:#251626;" d="M169.427,440.68c-0.067,0-0.135-0.007-0.202-0.022c-0.518-0.112-0.848-0.622-0.737-1.14   c0.591-2.744-2.366-4.59-2.396-4.609c-0.452-0.277-0.594-0.867-0.317-1.32c0.276-0.451,0.867-0.594,1.32-0.317   c0.17,0.103,4.144,2.59,3.27,6.649C170.268,440.373,169.87,440.68,169.427,440.68z"/>
	<path style="fill:#251626;" d="M175.202,457.537c-0.067,0-0.135-0.008-0.203-0.021c-0.518-0.112-0.848-0.622-0.737-1.142   c0.591-2.743-2.366-4.589-2.396-4.608c-0.452-0.277-0.594-0.867-0.317-1.32c0.276-0.451,0.867-0.595,1.32-0.317   c0.17,0.103,4.144,2.59,3.27,6.65C176.043,457.23,175.644,457.537,175.202,457.537z"/>
	<path style="fill:#251626;" d="M182.565,460.599c-0.067,0-0.135-0.008-0.202-0.021c-0.518-0.113-0.848-0.623-0.737-1.142   c0.586-2.721-2.276-4.532-2.398-4.609c-0.45-0.278-0.59-0.869-0.312-1.319c0.278-0.452,0.866-0.589,1.317-0.316   c0.169,0.103,4.144,2.589,3.27,6.649C183.406,460.292,183.008,460.599,182.565,460.599z"/>
	<path style="fill:#251626;" d="M254.294,399.182c-0.703,0-1.448-0.139-2.215-0.487c-0.483-0.219-0.697-0.788-0.478-1.271   c0.219-0.483,0.788-0.698,1.271-0.478c2.537,1.157,4.915-1.261,5.014-1.364c0.367-0.379,0.976-0.392,1.357-0.024   c0.382,0.367,0.395,0.971,0.029,1.354C259.162,397.025,257.058,399.182,254.294,399.182z"/>
	<path style="fill:#251626;" d="M263.861,402.032c-0.703,0-1.449-0.14-2.216-0.488c-0.483-0.218-0.697-0.788-0.477-1.27   c0.219-0.483,0.786-0.698,1.27-0.477c2.559,1.162,4.989-1.337,5.012-1.362c0.367-0.383,0.975-0.397,1.358-0.03   c0.383,0.367,0.397,0.974,0.03,1.358C268.728,399.875,266.625,402.032,263.861,402.032z"/>
	<path style="fill:#251626;" d="M260.558,393.493c-0.703,0-1.448-0.139-2.215-0.487c-0.483-0.219-0.697-0.788-0.478-1.271   c0.219-0.483,0.788-0.698,1.271-0.478c2.536,1.156,4.915-1.26,5.014-1.364c0.368-0.381,0.975-0.392,1.357-0.024   c0.382,0.367,0.395,0.971,0.029,1.354C265.426,391.336,263.322,393.493,260.558,393.493z"/>
	<path style="fill:#251626;" d="M242.858,395.554c-0.703,0-1.448-0.139-2.214-0.488c-0.483-0.218-0.697-0.788-0.477-1.27   c0.219-0.482,0.786-0.701,1.27-0.477c2.559,1.158,4.988-1.337,5.012-1.363c0.367-0.384,0.977-0.396,1.358-0.03   c0.383,0.367,0.397,0.975,0.03,1.358C247.727,393.398,245.623,395.554,242.858,395.554z"/>
	<path style="fill:#251626;" d="M238.302,402.099c-0.703,0-1.448-0.139-2.214-0.488c-0.483-0.218-0.697-0.788-0.477-1.27   c0.218-0.482,0.788-0.699,1.27-0.477c2.559,1.155,4.988-1.338,5.012-1.363c0.367-0.383,0.975-0.397,1.358-0.03   c0.383,0.367,0.397,0.975,0.03,1.358C243.171,399.943,241.067,402.099,238.302,402.099z"/>
	<path style="fill:#251626;" d="M220.568,403.084c-0.703,0-1.449-0.14-2.216-0.488c-0.483-0.218-0.697-0.788-0.477-1.27   c0.219-0.483,0.786-0.698,1.27-0.477c2.562,1.16,4.988-1.336,5.012-1.362c0.367-0.383,0.976-0.397,1.358-0.03   c0.383,0.367,0.397,0.974,0.03,1.358C225.435,400.927,223.332,403.084,220.568,403.084z"/>
	<path style="fill:#251626;" d="M227.722,397.633c-0.703,0-1.448-0.139-2.214-0.488c-0.483-0.218-0.697-0.788-0.477-1.27   c0.218-0.482,0.786-0.699,1.27-0.477c2.559,1.159,4.988-1.338,5.012-1.363c0.368-0.384,0.977-0.396,1.358-0.03   c0.383,0.367,0.397,0.975,0.03,1.358C232.591,395.477,230.487,397.633,227.722,397.633z"/>
	<path style="fill:#251626;" d="M236.757,388.401c-0.703,0-1.448-0.14-2.215-0.488c-0.483-0.218-0.697-0.788-0.477-1.27   c0.218-0.482,0.787-0.699,1.27-0.477c2.558,1.163,4.989-1.337,5.012-1.363c0.368-0.383,0.976-0.397,1.358-0.03   c0.383,0.367,0.397,0.974,0.03,1.358C241.625,386.244,239.521,388.401,236.757,388.401z"/>
	<path style="fill:#251626;" d="M251.244,387.417c-0.703,0-1.448-0.14-2.215-0.488c-0.483-0.218-0.697-0.788-0.477-1.27   c0.218-0.482,0.787-0.7,1.27-0.477c2.56,1.16,4.988-1.337,5.012-1.362c0.367-0.384,0.977-0.396,1.358-0.03   c0.383,0.367,0.397,0.975,0.03,1.358C256.111,385.26,254.008,387.417,251.244,387.417z"/>
	<path style="fill:#251626;" d="M207.036,402.032c-0.703,0-1.448-0.14-2.215-0.488c-0.483-0.218-0.697-0.788-0.477-1.27   c0.218-0.483,0.786-0.698,1.27-0.477c2.559,1.158,4.988-1.337,5.012-1.362c0.368-0.383,0.976-0.397,1.358-0.03   c0.383,0.367,0.397,0.975,0.03,1.358C211.904,399.875,209.8,402.032,207.036,402.032z"/>
	<path style="fill:#251626;" d="M217.516,394.571c-0.703,0-1.448-0.14-2.215-0.488c-0.483-0.218-0.697-0.788-0.477-1.27   c0.219-0.483,0.786-0.698,1.27-0.477c2.562,1.163,4.989-1.337,5.012-1.363c0.368-0.383,0.977-0.396,1.358-0.03   c0.383,0.367,0.397,0.974,0.03,1.358C222.384,392.414,220.28,394.571,217.516,394.571z"/>
	<path style="fill:#251626;" d="M349.713,292.221c-0.112,0-0.225-0.02-0.336-0.061c-0.497-0.185-0.749-0.738-0.563-1.235   c0.972-2.607-1.598-4.814-1.708-4.907c-0.404-0.341-0.457-0.946-0.118-1.352c0.339-0.405,0.943-0.46,1.349-0.122   c0.153,0.128,3.727,3.161,2.275,7.052C350.469,291.983,350.102,292.221,349.713,292.221z"/>
	<path style="fill:#251626;" d="M351.896,282.481c-0.112,0-0.225-0.02-0.336-0.06c-0.497-0.186-0.749-0.739-0.564-1.236   c0.981-2.629-1.678-4.883-1.705-4.905c-0.408-0.339-0.463-0.945-0.124-1.352c0.339-0.406,0.944-0.463,1.352-0.124   c0.153,0.128,3.727,3.161,2.277,7.052C352.652,282.243,352.285,282.481,351.896,282.481z"/>
	<path style="fill:#251626;" d="M343.605,286.365c-0.112,0-0.225-0.02-0.336-0.061c-0.497-0.185-0.749-0.738-0.563-1.235   c0.972-2.607-1.598-4.814-1.708-4.907c-0.404-0.341-0.458-0.946-0.118-1.352c0.34-0.405,0.942-0.46,1.349-0.122   c0.153,0.128,3.727,3.161,2.275,7.052C344.361,286.127,343.994,286.365,343.605,286.365z"/>
	<path style="fill:#251626;" d="M346.885,303.88c-0.112,0-0.225-0.02-0.336-0.061c-0.497-0.185-0.749-0.738-0.563-1.235   c0.981-2.63-1.678-4.884-1.705-4.906c-0.408-0.339-0.463-0.945-0.124-1.352s0.945-0.462,1.352-0.124   c0.153,0.128,3.727,3.161,2.275,7.053C347.64,303.642,347.274,303.88,346.885,303.88z"/>
	<path style="fill:#251626;" d="M353.729,307.973c-0.112,0-0.225-0.02-0.336-0.06c-0.497-0.186-0.749-0.739-0.564-1.236   c0.981-2.629-1.678-4.883-1.705-4.905c-0.408-0.339-0.463-0.945-0.124-1.352c0.34-0.408,0.946-0.463,1.352-0.124   c0.153,0.128,3.727,3.161,2.277,7.052C354.484,307.735,354.118,307.973,353.729,307.973z"/>
	<path style="fill:#251626;" d="M355.936,325.599c-0.112,0-0.225-0.02-0.336-0.06c-0.497-0.186-0.749-0.739-0.564-1.236   c0.981-2.63-1.678-4.884-1.705-4.906c-0.408-0.339-0.463-0.945-0.124-1.352s0.944-0.462,1.352-0.124   c0.153,0.128,3.727,3.161,2.277,7.053C356.691,325.361,356.325,325.599,355.936,325.599z"/>
	<path style="fill:#251626;" d="M350.004,318.836c-0.112,0-0.225-0.02-0.336-0.061c-0.497-0.185-0.749-0.738-0.563-1.235   c0.981-2.63-1.678-4.884-1.705-4.906c-0.408-0.339-0.463-0.945-0.124-1.352c0.34-0.407,0.945-0.462,1.352-0.124   c0.153,0.128,3.727,3.161,2.275,7.053C350.76,318.598,350.393,318.836,350.004,318.836z"/>
	<path style="fill:#251626;" d="M340.169,310.462c-0.112,0-0.225-0.02-0.336-0.061c-0.497-0.185-0.749-0.738-0.563-1.235   c0.972-2.607-1.598-4.814-1.708-4.907c-0.404-0.341-0.458-0.946-0.118-1.352c0.34-0.406,0.942-0.459,1.349-0.122   c0.153,0.128,3.727,3.161,2.275,7.052C340.925,310.223,340.558,310.462,340.169,310.462z"/>
	<path style="fill:#251626;" d="M338.186,296.078c-0.112,0-0.225-0.02-0.336-0.061c-0.497-0.185-0.749-0.738-0.563-1.235   c0.981-2.63-1.678-4.884-1.705-4.906c-0.408-0.339-0.463-0.945-0.124-1.352c0.34-0.407,0.946-0.462,1.352-0.124   c0.153,0.128,3.727,3.161,2.275,7.053C338.942,295.84,338.575,296.078,338.186,296.078z"/>
	<path style="fill:#251626;" d="M355.82,339.17c-0.112,0-0.225-0.02-0.336-0.061c-0.497-0.185-0.749-0.738-0.563-1.235   c0.972-2.607-1.598-4.814-1.708-4.907c-0.404-0.341-0.458-0.946-0.118-1.352c0.34-0.406,0.943-0.459,1.349-0.122   c0.153,0.128,3.727,3.161,2.275,7.052C356.576,338.931,356.209,339.17,355.82,339.17z"/>
	<path style="fill:#251626;" d="M351.139,346.538c-0.112,0-0.225-0.02-0.336-0.061c-0.497-0.185-0.749-0.738-0.563-1.235   c0.981-2.63-1.678-4.884-1.705-4.906c-0.408-0.339-0.463-0.945-0.124-1.352c0.34-0.407,0.946-0.462,1.352-0.124   c0.153,0.128,3.727,3.161,2.275,7.053C351.895,346.299,351.528,346.538,351.139,346.538z"/>
	<path style="fill:#251626;" d="M347.654,329.231c-0.112,0-0.225-0.02-0.336-0.061c-0.497-0.185-0.749-0.738-0.563-1.235   c0.981-2.63-1.678-4.884-1.705-4.906c-0.408-0.339-0.463-0.945-0.124-1.352c0.34-0.406,0.945-0.463,1.352-0.124   c0.153,0.128,3.727,3.161,2.275,7.053C348.409,328.993,348.043,329.231,347.654,329.231z"/>
	<path style="fill:#251626;" d="M128.723,310.29c-0.174,0-0.351-0.047-0.509-0.146c-0.449-0.282-0.585-0.875-0.304-1.324   c0.108-0.168,2.649-4.105,6.685-3.2c0.518,0.117,0.842,0.632,0.725,1.148s-0.634,0.839-1.148,0.725   c-2.736-0.619-4.615,2.316-4.633,2.347C129.355,310.131,129.043,310.29,128.723,310.29z"/>
	<path style="fill:#251626;" d="M118.778,309.43c-0.174,0-0.351-0.047-0.509-0.146c-0.449-0.282-0.585-0.875-0.304-1.324   c0.107-0.168,2.64-4.103,6.685-3.199c0.518,0.117,0.842,0.632,0.725,1.148c-0.117,0.518-0.634,0.835-1.148,0.725   c-2.743-0.623-4.614,2.316-4.633,2.346C119.41,309.271,119.098,309.43,118.778,309.43z"/>
	<path style="fill:#251626;" d="M123.736,317.126c-0.174,0-0.351-0.047-0.509-0.146c-0.449-0.282-0.585-0.875-0.304-1.324   c0.106-0.169,2.641-4.107,6.685-3.199c0.518,0.117,0.842,0.632,0.725,1.148c-0.118,0.518-0.637,0.836-1.148,0.725   c-2.741-0.63-4.615,2.316-4.633,2.346C124.368,316.967,124.056,317.126,123.736,317.126z"/>
	<path style="fill:#251626;" d="M140.655,311.534c-0.174,0-0.351-0.047-0.509-0.146c-0.449-0.282-0.585-0.875-0.304-1.324   c0.107-0.168,2.647-4.105,6.685-3.2c0.518,0.117,0.842,0.632,0.725,1.148c-0.117,0.518-0.634,0.837-1.148,0.725   c-2.731-0.624-4.615,2.317-4.633,2.347C141.287,311.375,140.974,311.534,140.655,311.534z"/>
	<path style="fill:#251626;" d="M143.796,304.202c-0.175,0-0.353-0.048-0.511-0.148c-0.447-0.282-0.582-0.872-0.301-1.32   c0.106-0.168,2.642-4.105,6.684-3.199c0.518,0.117,0.842,0.632,0.725,1.148c-0.117,0.518-0.632,0.835-1.148,0.725   c-2.7-0.615-4.558,2.228-4.635,2.349C144.425,304.044,144.114,304.202,143.796,304.202z"/>
	<path style="fill:#251626;" d="M160.968,299.659c-0.174,0-0.351-0.047-0.509-0.146c-0.449-0.282-0.585-0.875-0.304-1.324   c0.107-0.168,2.639-4.105,6.685-3.199c0.518,0.117,0.842,0.632,0.725,1.148c-0.118,0.517-0.631,0.839-1.148,0.725   c-2.743-0.624-4.615,2.315-4.633,2.346C161.6,299.5,161.288,299.659,160.968,299.659z"/>
	<path style="fill:#251626;" d="M155.06,306.442c-0.174,0-0.351-0.047-0.509-0.146c-0.449-0.282-0.585-0.875-0.304-1.324   c0.106-0.169,2.641-4.108,6.685-3.199c0.518,0.117,0.842,0.632,0.725,1.148c-0.117,0.518-0.635,0.837-1.148,0.725   c-2.738-0.631-4.615,2.316-4.633,2.346C155.692,306.283,155.38,306.442,155.06,306.442z"/>
	<path style="fill:#251626;" d="M148.075,317.308c-0.174,0-0.351-0.047-0.509-0.147c-0.449-0.281-0.585-0.874-0.303-1.323   c0.106-0.169,2.64-4.112,6.685-3.199c0.518,0.117,0.842,0.632,0.725,1.148c-0.118,0.518-0.636,0.838-1.148,0.725   c-2.746-0.623-4.616,2.316-4.635,2.346C148.707,317.149,148.395,317.308,148.075,317.308z"/>
	<path style="fill:#251626;" d="M165.229,314.299c-0.174,0-0.351-0.047-0.509-0.147c-0.449-0.281-0.585-0.874-0.303-1.323   c0.106-0.168,2.64-4.106,6.685-3.199c0.518,0.117,0.842,0.632,0.725,1.148c-0.118,0.518-0.638,0.841-1.148,0.725   c-2.74-0.621-4.616,2.316-4.635,2.346C165.861,314.139,165.549,314.299,165.229,314.299z"/>
	<path style="fill:#251626;" d="M185.189,305.937c-0.175,0-0.353-0.048-0.511-0.148c-0.447-0.282-0.582-0.872-0.301-1.32   c0.106-0.168,2.635-4.109,6.684-3.199c0.518,0.117,0.842,0.632,0.725,1.148c-0.117,0.518-0.634,0.838-1.148,0.725   c-2.705-0.611-4.557,2.228-4.635,2.349C185.818,305.779,185.507,305.937,185.189,305.937z"/>
	<path style="fill:#251626;" d="M196.163,299.341c-0.175,0-0.353-0.048-0.511-0.148c-0.447-0.282-0.582-0.872-0.301-1.32   c0.106-0.168,2.644-4.104,6.684-3.199c0.518,0.117,0.842,0.632,0.725,1.148c-0.118,0.518-0.632,0.837-1.148,0.725   c-2.704-0.607-4.557,2.228-4.635,2.348C196.792,299.183,196.481,299.341,196.163,299.341z"/>
	<path style="fill:#251626;" d="M134.086,321.197c-0.174,0-0.351-0.047-0.509-0.146c-0.449-0.282-0.585-0.875-0.304-1.324   c0.106-0.168,2.642-4.103,6.685-3.199c0.518,0.117,0.842,0.632,0.725,1.148c-0.118,0.517-0.636,0.838-1.148,0.725   c-2.74-0.625-4.615,2.316-4.633,2.346C134.718,321.038,134.406,321.197,134.086,321.197z"/>
	<path style="fill:#251626;" d="M174.432,297.958c-0.174,0-0.351-0.047-0.509-0.147c-0.449-0.281-0.585-0.874-0.303-1.323   c0.106-0.168,2.636-4.107,6.685-3.199c0.518,0.117,0.842,0.632,0.725,1.148c-0.118,0.518-0.636,0.837-1.148,0.725   c-2.745-0.623-4.617,2.316-4.635,2.346C175.064,297.798,174.752,297.958,174.432,297.958z"/>
	<path style="fill:#251626;" d="M182.36,301.612c-0.174,0-0.351-0.047-0.509-0.146c-0.449-0.282-0.585-0.875-0.304-1.324   c0.106-0.168,2.644-4.102,6.685-3.199c0.518,0.117,0.842,0.632,0.725,1.148c-0.118,0.518-0.635,0.841-1.148,0.725   c-2.736-0.623-4.615,2.316-4.633,2.346C182.992,301.453,182.679,301.612,182.36,301.612z"/>
	<path style="fill:#251626;" d="M165.675,307.381c-0.174,0-0.351-0.047-0.509-0.147c-0.449-0.281-0.585-0.874-0.303-1.323   c0.106-0.168,2.636-4.105,6.685-3.199c0.518,0.117,0.842,0.632,0.725,1.148c-0.118,0.517-0.635,0.835-1.148,0.725   c-2.744-0.622-4.616,2.316-4.635,2.346C166.306,307.221,165.994,307.381,165.675,307.381z"/>
	<path style="fill:#251626;" d="M112.089,443.863c-0.195,0-0.392-0.059-0.563-0.183c-0.429-0.31-0.525-0.911-0.214-1.341   c1.646-2.273-0.315-5.155-0.335-5.183c-0.303-0.436-0.194-1.034,0.241-1.336c0.435-0.306,1.035-0.194,1.336,0.241   c0.113,0.164,2.748,4.042,0.312,7.405C112.68,443.726,112.386,443.863,112.089,443.863z"/>
	<path style="fill:#251626;" d="M116.79,435.059c-0.195,0-0.392-0.059-0.563-0.183c-0.429-0.311-0.525-0.911-0.214-1.341   c1.633-2.254-0.255-5.067-0.336-5.185c-0.299-0.437-0.189-1.034,0.247-1.334c0.435-0.298,1.032-0.193,1.332,0.242   c0.113,0.164,2.748,4.042,0.311,7.405C117.381,434.921,117.087,435.059,116.79,435.059z"/>
	<path style="fill:#251626;" d="M107.764,436.59c-0.195,0-0.392-0.059-0.563-0.183c-0.429-0.311-0.525-0.911-0.214-1.341   c1.646-2.273-0.315-5.153-0.335-5.182c-0.303-0.436-0.194-1.034,0.241-1.336c0.437-0.303,1.034-0.193,1.336,0.241   c0.113,0.164,2.749,4.041,0.312,7.404C108.355,436.452,108.062,436.59,107.764,436.59z"/>
	<path style="fill:#251626;" d="M106.252,454.345c-0.195,0-0.392-0.059-0.563-0.183c-0.429-0.311-0.525-0.911-0.214-1.341   c1.633-2.254-0.256-5.066-0.337-5.185c-0.299-0.437-0.189-1.034,0.247-1.334c0.437-0.297,1.031-0.192,1.332,0.242   c0.113,0.164,2.749,4.042,0.312,7.405C106.843,454.207,106.549,454.345,106.252,454.345z"/>
	<path style="fill:#251626;" d="M111.755,460.115c-0.195,0-0.392-0.06-0.563-0.182c-0.429-0.311-0.525-0.911-0.214-1.341   c1.646-2.273-0.315-5.154-0.335-5.183c-0.303-0.436-0.194-1.034,0.241-1.336c0.435-0.303,1.034-0.193,1.336,0.241   c0.113,0.164,2.749,4.041,0.312,7.403C112.346,459.979,112.053,460.115,111.755,460.115z"/>
	<path style="fill:#251626;" d="M411.76,403.106c-0.204,0-0.41-0.065-0.584-0.199c-0.421-0.323-0.499-0.926-0.176-1.346   c1.698-2.207-0.11-5.072-0.188-5.193c-0.286-0.445-0.158-1.039,0.285-1.327c0.445-0.289,1.036-0.162,1.326,0.28   c0.109,0.166,2.631,4.118,0.099,7.409C412.333,402.978,412.048,403.106,411.76,403.106z"/>
	<path style="fill:#251626;" d="M416.712,394.44c-0.204,0-0.41-0.065-0.584-0.199c-0.421-0.323-0.499-0.926-0.176-1.346   c1.698-2.206-0.11-5.073-0.188-5.194c-0.286-0.444-0.158-1.039,0.285-1.326c0.446-0.289,1.036-0.164,1.326,0.28   c0.109,0.167,2.631,4.119,0.099,7.409C417.285,394.311,417,394.44,416.712,394.44z"/>
	<path style="fill:#251626;" d="M407.646,395.712c-0.204,0-0.41-0.065-0.584-0.199c-0.421-0.323-0.499-0.926-0.176-1.346   c1.698-2.207-0.11-5.072-0.188-5.193c-0.286-0.445-0.158-1.039,0.285-1.327c0.446-0.288,1.036-0.163,1.326,0.28   c0.109,0.166,2.631,4.118,0.099,7.409C408.219,395.583,407.934,395.712,407.646,395.712z"/>
	<path style="fill:#251626;" d="M405.625,413.415c-0.204,0-0.41-0.065-0.584-0.199c-0.421-0.323-0.499-0.926-0.176-1.346   c1.698-2.206-0.11-5.073-0.188-5.194c-0.286-0.444-0.158-1.039,0.285-1.326c0.447-0.29,1.037-0.163,1.326,0.28   c0.109,0.167,2.631,4.119,0.099,7.409C406.198,413.287,405.913,413.415,405.625,413.415z"/>
	<path style="fill:#251626;" d="M410.96,419.342c-0.204,0-0.41-0.065-0.584-0.199c-0.421-0.323-0.499-0.926-0.176-1.346   c1.698-2.207-0.11-5.072-0.188-5.193c-0.286-0.445-0.158-1.039,0.285-1.327c0.446-0.29,1.037-0.163,1.326,0.28   c0.109,0.166,2.631,4.118,0.099,7.409C411.533,419.214,411.248,419.342,410.96,419.342z"/>
	<path style="fill:#FCDCAD;" d="M361.606,367.72c0,0,15.233,42.108-45.187,35.06C316.419,402.781,355.219,382.843,361.606,367.72z"/>
</g>















</svg>
