<svg height="512" viewBox="0 0 24 24" width="512" xmlns="http://www.w3.org/2000/svg"><g id="Layer_2" data-name="Layer 2"><path d="m15.5 4.75a7.25 7.25 0 1 0 7.25 7.25 7.26 7.26 0 0 0 -7.25-7.25zm2.28 9.53a.75.75 0 0 1 -1.06 0l-1.72-1.75a.75.75 0 0 1 -.22-.53v-3a.75.75 0 0 1 1.5 0v2.69l1.53 1.53a.75.75 0 0 1 -.03 1.06z"/><path d="m6.5 12.75h-4.5a.75.75 0 0 1 0-1.5h4.5a.75.75 0 0 1 0 1.5z"/><path d="m7.5 8.75h-2.5a.75.75 0 0 1 0-1.5h2.5a.75.75 0 0 1 0 1.5z"/><path d="m7.5 16.75h-2.5a.75.75 0 0 1 0-1.5h2.5a.75.75 0 0 1 0 1.5z"/></g></svg>