<?xml version="1.0" encoding="UTF-8"?>
<!-- Generator: Adobe Illustrator 25.1.0, SVG Export Plug-In . SVG Version: 6.00 Build 0)  -->
<svg xmlns="http://www.w3.org/2000/svg" xmlns:xlink="http://www.w3.org/1999/xlink" version="1.1" id="Capa_1" x="0px" y="0px" viewBox="0 0 500 500" style="enable-background:new 0 0 500 500;" xml:space="preserve" width="512" height="512">
<g>
	<path style="fill:#FBD49E;" d="M326.146,342.294c0,0,3.536,120.243,3.764,136.276c0,0-17.231,2.004-26.538,0   s-23.113-110.223-15.208-136.276S326.146,342.294,326.146,342.294z"/>
	<path style="fill:#FBD49E;" d="M396.272,342.294c0,0,3.536,120.243,3.764,136.276c0,0-17.231,2.004-26.538,0   c-9.307-2.004-23.113-110.223-15.208-136.276C366.197,316.242,396.272,342.294,396.272,342.294z"/>
	<g>
		<path style="fill:#F5B29F;" d="M350.289,380.95c0,0-18.51,29.297-2.918,33.557c15.592,4.26,18.597-17.19,7.781-9.319    c-10.815,7.872-10.011,42.876,6.424,45.308s19.352-17.995,9.139-14.104c-10.213,3.891-23.967,23.344,10.875,24.803    s24.991-51.552,16.724-48.147s-5.343,8.939,4.383,10.884c9.727,1.945,16.487-48.472-2.66-59.072"/>
		<path style="fill:#251426;" d="M382.987,462.293c-0.471,0-0.952-0.01-1.442-0.029c-17.916-0.751-22.54-6.22-23.263-10.676    c-0.052-0.321-0.085-0.64-0.1-0.961c-4.745-2.07-8.266-7.077-10.082-14.46c-1.546-6.291-1.602-13.964-0.052-20.394    c-0.315-0.069-0.633-0.148-0.957-0.236c-3.094-0.847-5.199-2.654-6.256-5.38c-3.862-9.944,8.044-28.972,8.553-29.777    c0.316-0.5,0.975-0.644,1.473-0.334c0.498,0.315,0.647,0.974,0.333,1.472c-0.119,0.19-11.842,18.922-8.368,27.867    c0.81,2.087,2.39,3.426,4.829,4.091c0.326,0.09,0.646,0.167,0.96,0.231c1.255-4.041,3.214-7.421,5.91-9.383    c3.914-2.846,6.003-1.962,6.896-1.184c1.583,1.378,1.634,4.308,0.125,7.127c-1.781,3.324-5.623,6.316-11.371,5.828    c-1.465,5.832-1.599,13.063-0.001,19.562c0.957,3.889,3.214,10.083,8.186,12.688c1.129-5.696,7.12-11.101,11.976-12.951    c3.505-1.337,5.347-0.017,6.135,0.886c1.715,1.966,1.671,5.475-0.109,8.732c-1.038,1.897-5.195,7.986-14.941,6.537    c-0.342-0.05-0.679-0.113-1.011-0.19c0.937,5.121,8.465,8.234,21.226,8.768c9.932,0.436,16.908-3.634,20.677-12.041    c3.244-7.242,3.329-16.241,2.059-23.188c-0.68,0.2-1.317,0.196-1.883,0.081c-5.999-1.199-9.757-3.743-10.053-6.806    c-0.134-1.387,0.398-4.024,5.472-6.111c0.778-0.323,2.338-0.592,4.06,1.18c1.529,1.578,2.872,4.393,3.83,7.902    c0.803-1.076,1.588-2.615,2.297-4.548c4.821-13.144,5.234-43.159-8.574-50.803c-0.516-0.286-0.703-0.936-0.417-1.451    c0.286-0.517,0.938-0.696,1.451-0.417c15.021,8.315,14.716,39.304,9.544,53.408c-1.195,3.255-2.471,5.221-3.7,6.353    c1.538,7.604,1.353,17.479-2.138,25.271C401.503,455.112,395.584,462.293,382.987,462.293z M360.389,449.153    c0.432,0.121,0.879,0.219,1.344,0.288c8.385,1.226,11.883-3.859,12.755-5.45c1.312-2.4,1.468-5.05,0.374-6.305    c-0.935-1.074-2.566-0.751-3.766-0.296C366.191,439.259,361.087,444.428,360.389,449.153z M399.082,413.959    c-0.174,0-0.294,0.05-0.362,0.077c-2.775,1.143-4.292,2.577-4.161,3.935c0.16,1.647,2.802,3.807,8.348,4.917    c0.333,0.065,0.671,0.027,1.02-0.108c-0.89-3.755-2.172-6.687-3.493-8.048C399.824,414.101,399.376,413.959,399.082,413.959z     M350.781,413.988c4.506,0.252,7.488-2.127,8.883-4.729c1.086-2.029,1.029-3.92,0.353-4.508c-0.535-0.471-1.934-0.375-4.236,1.301    C353.647,407.605,351.943,410.445,350.781,413.988z"/>
	</g>
	<g>
		<path style="fill:#F5B29F;" d="M276.562,380.95c0,0-18.51,29.297-2.918,33.557c15.592,4.26,18.597-17.19,7.781-9.319    c-10.815,7.872-10.011,42.876,6.424,45.308s19.352-17.995,9.139-14.104c-10.213,3.891-23.967,23.344,10.875,24.803    s24.628-36.962,16.36-33.557s-8.754,9.727,0.973,11.672c9.727,1.945,26.245-38.521,7.097-49.12"/>
		<path style="fill:#251426;" d="M309.79,462.306c-0.64,0-1.297-0.015-1.972-0.042c-17.916-0.751-22.54-6.22-23.263-10.676    c-0.052-0.321-0.085-0.64-0.1-0.961c-4.745-2.07-8.266-7.077-10.082-14.46c-1.546-6.291-1.602-13.964-0.052-20.394    c-0.314-0.069-0.633-0.148-0.957-0.236c-3.094-0.847-5.199-2.654-6.256-5.38c-3.862-9.944,8.044-28.972,8.553-29.777    c0.315-0.5,0.974-0.644,1.473-0.334c0.498,0.315,0.647,0.974,0.333,1.472c-0.119,0.19-11.842,18.922-8.368,27.867    c0.81,2.087,2.389,3.426,4.829,4.091c0.326,0.09,0.646,0.167,0.961,0.231c1.255-4.043,3.214-7.421,5.91-9.383    c3.915-2.848,6-1.962,6.895-1.184c1.583,1.378,1.634,4.308,0.125,7.125c-1.781,3.326-5.625,6.318-11.371,5.83    c-1.464,5.832-1.599,13.061-0.001,19.56c0.957,3.891,3.213,10.086,8.186,12.69c1.129-5.696,7.12-11.101,11.976-12.951    c3.503-1.337,5.348-0.017,6.135,0.886c1.715,1.966,1.671,5.475-0.109,8.732c-1.039,1.897-5.197,7.986-14.941,6.537    c-0.342-0.05-0.679-0.113-1.011-0.19c0.937,5.121,8.465,8.234,21.226,8.768c13.834,0.592,19.424-5.275,21.67-10.292    c1.717-3.832,1.964-8.09,1.376-11.797c-1.939,1.772-3.978,2.719-5.968,2.319c-4.855-0.972-7.797-3.159-8.072-6.001    c-0.285-2.93,2.297-5.809,6.903-7.704c1.686-0.699,3.501-0.163,5.111,1.499c1.271,1.309,2.347,3.199,3.121,5.421    c1.843-2.538,3.632-5.94,5.051-9.81c4.506-12.285,4.607-27.142-5.323-32.638c-0.516-0.286-0.703-0.936-0.417-1.451    c0.287-0.517,0.938-0.698,1.451-0.417c11.791,6.526,10.76,23.063,6.294,35.242c-1.561,4.258-3.807,8.555-6.336,11.614    c1.014,4.554,0.835,9.96-1.243,14.598C329.122,456.076,323.397,462.306,309.79,462.306z M286.661,449.153    c0.432,0.121,0.879,0.219,1.344,0.288c8.385,1.226,11.883-3.859,12.754-5.45c1.312-2.4,1.468-5.05,0.374-6.305    c-0.936-1.074-2.567-0.751-3.766-0.296C292.463,439.259,287.36,444.428,286.661,449.153z M325.287,428.494    c-0.224,0-0.444,0.044-0.658,0.131c-3.579,1.474-5.774,3.643-5.591,5.526c0.175,1.814,2.555,3.351,6.367,4.114    c1.432,0.279,3.205-0.732,5.016-2.69c-0.708-2.56-1.808-4.679-3.027-5.936C326.656,428.878,325.949,428.494,325.287,428.494z     M277.054,413.988c4.475,0.252,7.489-2.127,8.881-4.729c1.086-2.029,1.03-3.92,0.354-4.508c-0.541-0.471-1.936-0.373-4.236,1.301    C279.92,407.605,278.216,410.445,277.054,413.988z"/>
	</g>
	<path style="fill:#FBD49E;" d="M128.965,342.294c0,0,3.536,120.243,3.764,136.276c0,0-17.231,2.004-26.538,0   S83.078,368.347,90.984,342.294S128.965,342.294,128.965,342.294z"/>
	<path style="fill:#FBD49E;" d="M199.091,342.294c0,0,3.536,120.243,3.764,136.276c0,0-17.231,2.004-26.538,0   c-9.306-2.004-23.113-110.223-15.208-136.276C169.015,316.242,199.091,342.294,199.091,342.294z"/>
	<g>
		<path style="fill:#F5B29F;" d="M153.108,380.95c0,0-14.397,22.179-2.918,33.557c13.817,13.696,22.086-10.081,11.27-2.21    c-10.815,7.872-13.499,35.767,2.935,38.199s19.352-17.995,9.139-14.104s-23.967,23.344,10.875,24.803s24.628-36.962,16.36-33.557    s-8.754,9.727,0.973,11.672c9.727,1.945,26.245-38.521,7.097-49.12"/>
		<path style="fill:#251426;" d="M186.337,462.306c-0.64,0-1.297-0.015-1.973-0.042c-17.917-0.751-22.541-6.22-23.264-10.676    c-0.049-0.3-0.08-0.6-0.097-0.901c-4.277-1.712-7.287-5.484-8.621-10.909c-1.619-6.581-0.474-14.548,2.472-20.68    c-1.656-0.701-3.472-1.906-5.416-3.832c-11.958-11.854,2.167-33.962,2.774-34.898c0.32-0.496,0.983-0.636,1.476-0.313    c0.495,0.319,0.636,0.98,0.315,1.476c-0.139,0.215-13.79,21.585-3.062,32.217c1.809,1.793,3.454,2.865,4.919,3.449    c1.386-2.377,3.065-4.377,4.971-5.763c3.781-2.752,5.441-1.814,6.096-1.013c1.301,1.601,0.269,4.883-2.254,7.169    c-1.026,0.93-3.821,2.967-7.802,2.146c-2.837,5.694-3.954,13.276-2.416,19.535c0.813,3.303,2.636,7.248,6.706,9.166    c1.082-5.73,7.111-11.182,11.993-13.04c3.502-1.341,5.344-0.019,6.134,0.886c1.715,1.966,1.671,5.475-0.109,8.732    c-1.038,1.897-5.192,7.986-14.941,6.537c-0.342-0.05-0.679-0.111-1.009-0.183c0.941,5.119,8.47,8.228,21.225,8.762    c13.84,0.592,19.422-5.275,21.669-10.29c1.718-3.834,1.965-8.092,1.377-11.8c-1.941,1.772-3.975,2.719-5.969,2.319    c-4.855-0.972-7.797-3.159-8.072-6.001c-0.285-2.93,2.297-5.809,6.903-7.704c1.685-0.699,3.501-0.163,5.112,1.499    c1.27,1.309,2.346,3.199,3.121,5.421c1.842-2.54,3.631-5.94,5.05-9.81c4.506-12.285,4.607-27.142-5.323-32.638    c-0.516-0.286-0.703-0.936-0.417-1.451c0.286-0.517,0.937-0.698,1.451-0.417c11.791,6.526,10.76,23.063,6.294,35.242    c-1.561,4.256-3.807,8.555-6.336,11.614c1.015,4.554,0.836,9.96-1.243,14.598C205.668,456.076,199.944,462.306,186.337,462.306z     M163.205,449.17c0.43,0.111,0.877,0.2,1.346,0.271c8.381,1.226,11.883-3.859,12.755-5.45c1.312-2.4,1.469-5.05,0.374-6.305    c-0.935-1.074-2.565-0.751-3.765-0.296C169.005,439.261,163.895,444.441,163.205,449.17z M201.833,428.494    c-0.224,0-0.444,0.044-0.658,0.131c-3.579,1.474-5.774,3.643-5.591,5.526c0.175,1.814,2.555,3.351,6.367,4.114    c1.428,0.279,3.207-0.732,5.016-2.69c-0.708-2.563-1.807-4.679-3.025-5.936C203.202,428.878,202.496,428.494,201.833,428.494z     M157.983,417.743c2.554,0.259,4.359-0.922,5.257-1.737c1.897-1.718,2.355-3.841,2.031-4.239    c-0.072-0.088-0.972-0.215-3.182,1.393C160.539,414.288,159.156,415.867,157.983,417.743z"/>
	</g>
	<g>
		<path style="fill:#F5B29F;" d="M320.335,48.424c0,0,2.065-32.233,35.053-25.553s11.851,54.778,7.723,41.417    c-4.128-13.36,24.43-28.057,42.884-9.352c18.454,18.705,0.736,54.778-3.765,41.417s6.275-27.599,26.271,2.901    s-4.11,57.221-10.761,49.205c-6.651-8.016-11.846-22.713,5.448-14.696c17.294,8.016,27.702,70.356-6.371,75.026    c-28.82,3.95-20.626-19.526-9.246-12.846c11.379,6.68,32.075,66.133,9.251,74.043c-22.824,7.91-22.413-17.971-9.993-10.902    c12.419,7.069,16.453,53.842-3.634,65.866c-20.087,12.024-15.248-8.096-1.363-4.088s24.967,40.455-17.261,64.503    s-46.124-27.183-34.211-20.503c11.913,6.68,8.123,34.25-30.485,35.586s-70.778-20.854-52.575-30.206    c18.203-9.352,13.194,45.475-28.776,42.803c-41.971-2.672-57.068-27.358-35.665-32.094c14.816-3.278,9.779,36.025-47.745,40.143    c-36.141,2.588-79.153-28.724-48.031-34.068s5.756,18.62-43.158,8.6c-36.346-7.446-36.589-91.898-8.627-105.258    c27.962-13.36,18.728,16.653,11.328,15.743c-12.231-1.503-6.818-18.704-6.818-18.704s-2.957-56.114,35.883-62.794    s53.842,38.745,35.653,33.401c-18.189-5.344,7.4-55.304,40.03-44.352s23.355,51.13,15.968,36.385s28.289-72.863,73.99-50.15    s33.628,47.429,17.543,44.757c-16.085-2.672-11.616-33.654,12.83-46.699c40.771-21.758,21.732,15.708,8.567-0.062    c-10.308-12.346-28.462-50.769-6.919-69.474c21.543-18.705,24.048,19.298,7.733,16.032c-16.315-3.266-35.664-52.501-13.216-73.909    c21.005-20.033,43.932-31.737,43.932-11.696S318.273,58.993,320.335,48.424z"/>
		<path style="fill:#251426;" d="M150.789,422.314c-23.196,0-48.769-12.771-54.366-23.551c-10.126,0.947-21.364,0.231-32.715-2.091    c-14.954-3.065-25.658-19.396-28.632-43.689c-4.068-33.22,7.144-57.551,19.757-63.579c1.303-0.623,2.565-1.17,3.756-1.628    c0.058-0.217,0.106-0.388,0.141-0.505c-0.134-3.645-1.395-57.146,36.776-63.712c2.653-0.455,5.295-0.686,7.852-0.686    c12.217,0,20.685,5.071,25.869,9.698c5.911-10.2,17.728-21.541,32.764-21.541c3.248,0,6.517,0.544,9.72,1.62    c10.27,3.447,15.975,9.581,19.084,14.679c9.127-17.056,27.593-33.703,49.476-33.703c7.193,0,14.437,1.787,21.534,5.313    c5.95,2.959,11.202,6.093,15.626,9.325c3.79-4.612,8.418-8.395,13.769-11.251c1.788-0.953,3.515-1.822,5.152-2.592    c-10.26-15.109-20.619-42.713-9.121-60.574c-10.907-16.825-16.935-48.022-0.101-64.079c12.16-11.595,23.825-19.46,32.172-21.714    c0.207-2.275,3.133-27.16,27.588-27.16c2.724,0,5.655,0.313,8.71,0.932c17.334,3.511,19.271,17.64,19.02,25.157    c3.378-1.295,7.049-1.972,10.718-1.972c5.639,0,13.932,1.593,21.416,9.176c6.738,6.831,9.684,17.1,8.131,28.265    c4.49,2.925,9.367,8.378,14.508,16.218c11.184,17.06,8.944,33.403,3.016,43.251c7.837,13.557,11.221,38.03,3.796,53.531    c-3.724,7.773-9.864,12.644-17.814,14.162c7.667,16.403,12.852,39.952,7.625,52.592c-1.833,4.433-4.809,7.392-8.847,8.791    c-0.504,0.173-0.997,0.334-1.478,0.475c4.426,14.913,3.946,40.023-8.181,51.52c5.434,4.963,8.459,13.883,7.764,23.161    c-0.67,8.955-5.482,26.076-30.178,40.14c-13.527,7.702-25.02,8.626-32.869,2.884c-6.39,7.467-17.809,11.837-32.319,12.34    c-1.131,0.038-2.26,0.058-3.38,0.058c-14.87,0-29.788-3.361-41.154-9.249c-5.981,13.726-18.574,21.881-33.915,21.881    c-0.002,0-0.004,0-0.004,0c-0.982,0-1.979-0.031-3.001-0.096c-14.278-0.909-26.893-4.491-35.661-10.106    c-6.084,6.216-19.982,16.178-47.605,18.157c-1.428,0.102-2.906,0.154-4.391,0.154    C150.795,422.314,150.791,422.314,150.789,422.314z M98.73,398.514c5.978,9.892,30.475,21.662,52.059,21.664    c0.003,0,0.003,0,0.006,0c1.435,0,2.861-0.05,4.239-0.15c26.53-1.9,39.966-11.247,45.961-17.246    c-6.362-4.583-9.613-9.994-8.737-14.635c0.756-4.001,4.437-6.929,10.367-8.24c3.468-0.769,6.368,0.594,7.65,3.545    c1.778,4.089,0.555,11.445-6.01,18.958c8.452,5.307,20.575,8.693,34.323,9.568c0.977,0.063,1.929,0.092,2.865,0.092    c0,0,0.003,0,0.005,0c20.862-0.002,29.458-14.904,32.027-20.767c-8-4.516-12.538-9.723-12.486-14.368    c0.024-2.137,1.051-5.198,5.809-7.642c3.98-2.045,7.476-1.387,9.547,1.676c2.749,4.068,2.659,11.76-0.177,19.366    c10.955,5.711,25.952,9.104,40.35,9.104c1.096,0,2.2-0.019,3.307-0.058c13.88-0.48,24.742-4.575,30.741-11.558    c-6.787-6.218-8.164-16.247-6.443-21.059c1.18-3.307,3.842-4.46,6.747-2.834c3.219,1.806,5.43,4.981,6.222,8.941    c0.963,4.814-0.332,10.09-3.558,14.623c7.168,5.192,17.814,4.166,30.495-3.057c23.837-13.574,28.467-29.913,29.106-38.443    c0.656-8.757-2.181-17.114-7.264-21.597c-0.689,0.538-1.405,1.03-2.139,1.468c-4.47,2.677-8.105,4.035-10.804,4.035    c-2.417,0-3.432-1.134-3.822-1.808c-0.691-1.199-0.577-2.771,0.315-4.316c1.204-2.085,4.222-4.52,8.767-4.52    c1.275,0,2.597,0.196,3.928,0.58c1.265,0.365,2.507,0.972,3.702,1.806c10.637-9.871,12.635-33.534,7.797-49.631    c-6.931,1.537-12.601-0.261-15.117-4.618c-1.495-2.59-1.624-5.713-0.329-7.957c1.677-2.907,5.27-3.499,9.176-1.278    c3.069,1.747,5.715,5.638,7.681,11.282c0.467-0.138,0.946-0.292,1.435-0.461c3.435-1.191,5.983-3.743,7.573-7.588    c5.054-12.225-0.236-35.44-7.856-51.443c-1.945,0.24-3.788,0.361-5.489,0.361c-9.129,0.002-12.481-3.447-13.668-5.5    c-1.327-2.298-1.316-5.061,0.03-7.392c2.133-3.693,6.868-4.85,11.048-2.394c2.787,1.637,6.083,6.097,9.319,12.596    c7.629-1.27,13.297-5.669,16.851-13.09c6.967-14.541,3.995-37.361-3.192-50.599c-3.15,4.379-6.978,7.037-10.244,7.037    c-1.577,0.002-2.934-0.63-3.925-1.824c-4.246-5.117-7.8-12.598-6.023-16.385c0.511-1.086,1.681-2.381,4.359-2.381    c2.099,0,4.919,0.815,8.382,2.419c2.665,1.236,5.18,3.609,7.495,7.068c5.164-9.366,6.761-24.335-3.523-40.021    c-4.608-7.029-9.109-12.196-13.111-15.067c-1.693,8.709-5.806,15.546-9.507,15.549h-0.001c-1.163,0-2.761-0.63-3.771-3.628    c-1.714-5.083-1.331-10.442,0.973-13.651c2.323-3.232,6.259-3.92,10.685-1.743c0.661-5.807,0.643-17.217-7.642-25.613    c-6.966-7.06-14.664-8.543-19.896-8.543c-3.748,0-7.495,0.761-10.877,2.204c-0.95,9.514-5.355,18.338-9.233,18.34    c-0.997,0-2.35-0.536-3.138-3.086c-1.867-6.041,2.375-12.832,10.347-16.681c0.518-7.84-1.204-20.753-17.261-24.004    c-14.082-2.861-24.283,1.176-29.943,11.777c-2.63,4.929-3.485,9.89-3.736,11.885c0.828-0.131,1.617-0.196,2.358-0.196    c4.111,0,9.011,1.987,9.011,11.462c0,6.41-1.381,9.66-4.105,9.66c-1.296,0-2.669-0.828-4.079-2.462    c-3.005-3.478-5.79-10.169-5.623-15.697c-7.876,2.433-19.105,10.142-30.455,20.968c-15.761,15.031-10.253,44.298-0.046,60.643    c1.199-1.566,2.571-3.023,4.093-4.345c4.175-3.624,7.98-5.463,11.31-5.463c6.033,0,8.781,5.863,8.781,11.312    c0,6.091-3.338,12.258-9.72,12.258c-0.692,0-1.416-0.075-2.149-0.221c-4.041-0.809-8.38-4.241-12.326-9.723    c-10.125,17.044,0.289,43.902,9.778,57.749c5.472-2.406,9.898-3.624,13.163-3.624c5.544,0,5.975,3.457,5.976,4.516    c0,3.845-4.499,8.541-9.749,8.543c-2.102,0-5.242-0.761-8.266-4.383c-0.6-0.719-1.221-1.518-1.85-2.381    c-1.704,0.792-3.514,1.699-5.394,2.702c-5.075,2.709-9.465,6.289-13.065,10.651c11.87,9.208,17.303,19.544,14.552,27.79    c-1.739,5.213-6.621,8.582-12.438,8.582h-0.003c-0.841,0-1.7-0.071-2.553-0.213c-4.354-0.724-7.526-3.349-9.175-7.594    c-2.981-7.671-0.329-18.874,6.592-28.17c-4.314-3.144-9.442-6.201-15.26-9.093c-6.797-3.378-13.723-5.09-20.583-5.09    c-21.52,0-39.656,16.898-48.234,33.806c4.337,8.607,4.299,18.399,1.726,22.659c-1.048,1.737-2.254,2.102-3.081,2.102    c-1.588,0-3.034-1.28-4.298-3.803c-2.204-4.4-0.985-12.196,3.256-20.93c-3.824-6.962-10.246-12.114-18.608-14.921    c-2.983-1.001-6.024-1.508-9.04-1.508c-14.343,0-25.638,11.107-31.167,20.916c7.818,7.813,10.566,17.194,8.673,21.908    c-1.245,3.094-4.34,4.258-8.458,3.048c-2.747-0.807-4.775-2.613-5.864-5.225c-1.964-4.706-0.839-11.883,2.998-19.314    c-4.857-4.456-12.968-9.489-24.815-9.489c-2.436,0-4.956,0.221-7.49,0.657c-35.844,6.164-35.165,56.47-35.013,61.314    c2.352-0.738,4.456-1.111,6.27-1.111c5.118,0,8.174,3.073,8.174,8.221c0.001,5.778-3.926,13.109-8.343,13.111h-0.001    c-0.155,0-0.309-0.01-0.463-0.029c-3.052-0.375-5.371-1.685-6.894-3.893c-2.63-3.812-2.206-9.443-1.569-12.973    c-0.737,0.313-1.497,0.655-2.275,1.026c-15.42,7.369-21.546,37.002-18.558,61.393c2.858,23.338,12.929,38.985,26.941,41.854    c10.908,2.235,21.69,2.955,31.458,2.114c-0.509-1.833-0.363-3.559,0.438-5.05c1.493-2.779,5.148-4.687,10.866-5.669    c3.104-0.532,5.798-0.803,8.007-0.803c5.559,0,6.814,1.722,6.887,3.167C122.004,392.474,111.789,396.93,98.73,398.514z     M204.535,381.823c-0.455,0-0.941,0.056-1.448,0.169c-5.042,1.116-8.142,3.442-8.73,6.551c-0.729,3.859,2.294,8.555,8.115,12.671    c6.08-6.854,7.321-13.522,5.847-16.912C207.612,382.68,206.304,381.823,204.535,381.823z M114.906,387.305    c-2.089,0-4.661,0.261-7.646,0.774c-4.965,0.853-8.196,2.433-9.345,4.573c-0.589,1.097-0.64,2.381-0.154,3.828    c14.637-1.635,21.986-6.339,21.901-8.034C119.641,388.072,118.455,387.305,114.906,387.305z M271.158,370.234    c-1.003,0-2.138,0.321-3.374,0.955c-3.061,1.572-4.625,3.513-4.65,5.769c-0.042,3.743,4.102,8.311,11.148,12.342    c2.464-6.797,2.614-13.718,0.303-17.135C273.72,370.883,272.567,370.234,271.158,370.234z M348.326,365.322    c-1.167,0-1.831,1.174-2.183,2.158c-1.542,4.312-0.034,13.228,5.75,18.649c2.822-4.024,3.955-8.649,3.116-12.84    c-0.668-3.338-2.505-6.001-5.173-7.496C349.279,365.48,348.771,365.322,348.326,365.322z M398.197,321.389    c-3.634,0-5.998,1.86-6.917,3.453c-0.493,0.855-0.611,1.668-0.316,2.179c0.276,0.48,0.977,0.742,1.974,0.742    c1.586,0,4.558-0.648,9.707-3.73c0.497-0.298,0.986-0.623,1.463-0.974c-0.844-0.53-1.707-0.924-2.574-1.174    C400.394,321.556,399.272,321.389,398.197,321.389z M60.393,289.385c-0.664,2.944-1.583,8.993,0.961,12.679    c1.179,1.71,2.944,2.686,5.398,2.988c0.003,0,0.005,0,0.008,0c2.768,0,6.404-5.671,6.403-10.963c0-2.777-1.048-6.086-6.038-6.086    C65.256,288.003,62.993,288.468,60.393,289.385z M402.824,258.911c-1.553,0-2.378,0.863-2.796,1.589    c-0.907,1.57-0.775,3.91,0.328,5.822c0.888,1.537,3.167,4.116,8.461,4.116c1.288,0,2.676-0.158,4.142-0.469    c-1.767-4.992-4.112-8.507-6.662-9.958C405.018,259.283,403.849,258.911,402.824,258.911z M129.776,236.059    c-3.267,6.583-4.28,12.978-2.63,16.931c0.844,2.025,2.357,3.369,4.497,3.999c3.014,0.882,5.033,0.296,5.874-1.797    C139.079,251.299,136.531,243.061,129.776,236.059z M190.847,232.051c-3.328,7.41-4.314,14.001-2.553,17.517    c0.969,1.933,1.869,2.623,2.388,2.623c0.386,0,0.843-0.39,1.253-1.07C193.804,248.027,194.303,239.971,190.847,232.051z     M277.821,211.228c-6.394,8.605-8.989,19.216-6.309,26.112c1.361,3.503,3.967,5.667,7.536,6.262    c0.738,0.123,1.405,0.15,2.206,0.183c4.882,0,8.969-2.796,10.412-7.123C294.118,229.312,288.951,219.851,277.821,211.228z     M403.491,195.804c-1.901,0-3.612,1.001-4.58,2.677c-0.96,1.664-0.972,3.628-0.031,5.257c0.957,1.656,3.764,4.433,11.819,4.433    c1.398,0,2.902-0.085,4.488-0.259c-2.906-5.699-5.846-9.691-8.158-11.049C405.833,196.161,404.644,195.804,403.491,195.804z     M299.591,195.3c0.51,0.686,1.011,1.326,1.497,1.908c2.004,2.4,4.233,3.616,6.627,3.616c4.202-0.002,7.614-3.878,7.614-6.405    c-0.001-1.97-2.089-2.383-3.841-2.383C309.47,192.034,305.797,192.616,299.591,195.3z M415.254,132.509    c-1.884,0-2.292,0.869-2.426,1.155c-1.171,2.494,1.454,8.955,5.733,14.112c2.255,2.717,7.567-0.24,11.339-5.886    c-2.223-3.545-4.69-6.013-7.162-7.158C419.558,133.258,417.041,132.509,415.254,132.509z M289.805,133.856    c3.756,5.432,7.818,8.814,11.487,9.548c0.595,0.119,1.177,0.179,1.73,0.179c4.979,0,7.585-5.094,7.585-10.123    c0-4.42-2.08-9.176-6.646-9.176c-2.761,0-6.188,1.708-9.91,4.942C292.443,130.62,291.018,132.176,289.805,133.856z M408.002,82.16    c-1.691,0-3.062,0.715-4.076,2.127c-1.917,2.669-2.185,7.271-0.685,11.727c0.274,0.811,0.865,2.173,1.748,2.173    c2.053,0,6.032-5.813,7.565-14.65C410.892,82.623,409.363,82.16,408.002,82.16z M321.228,49.794    c-0.378,4.898,2.269,11.612,5.07,14.854c0.931,1.078,1.853,1.722,2.464,1.722c0.731,0,1.969-1.585,1.969-7.525    C330.73,51.476,327.585,48.559,321.228,49.794z M372.181,50.455c-6.233,3.43-9.507,8.805-8.052,13.518    c0.307,0.99,0.717,1.58,1.099,1.58C367.015,65.553,371,59.154,372.181,50.455z"/>
	</g>
	<g>
		<path style="fill:#F5B29F;" d="M72.908,372.333c0,0-12.037,37.914,3.554,42.174c15.592,4.26,18.597-17.19,7.781-9.319    s-10.011,42.876,6.424,45.308s19.352-17.995,9.139-14.104s-23.967,23.344,10.875,24.803s24.628-36.962,16.36-33.557    s-8.754,9.727,0.973,11.672c9.727,1.945,30.23-51.751,11.083-62.35"/>
		<path style="fill:#251426;" d="M112.609,462.306c-0.64,0-1.297-0.015-1.972-0.042c-17.917-0.751-22.541-6.22-23.264-10.676    c-0.052-0.321-0.085-0.64-0.1-0.961c-4.744-2.07-8.265-7.077-10.081-14.46c-1.546-6.291-1.602-13.962-0.052-20.394    c-0.315-0.069-0.634-0.148-0.958-0.236c-2.764-0.755-4.911-2.508-6.382-5.213c-6.289-11.556,1.747-37.227,2.092-38.314    c0.178-0.561,0.778-0.867,1.341-0.694c0.562,0.179,0.873,0.778,0.694,1.341c-0.081,0.256-8.107,25.888-2.251,36.648    c1.199,2.204,2.857,3.568,5.069,4.172c0.326,0.09,0.646,0.167,0.961,0.231c1.255-4.043,3.214-7.421,5.91-9.383    c3.916-2.848,6.002-1.962,6.895-1.184c1.583,1.378,1.634,4.308,0.125,7.125c-1.782,3.326-5.634,6.318-11.37,5.83    c-1.465,5.832-1.599,13.063-0.001,19.562c0.957,3.889,3.213,10.081,8.186,12.688c1.128-5.699,7.12-11.101,11.976-12.951    c3.505-1.341,5.346-0.019,6.134,0.886c1.715,1.966,1.671,5.475-0.109,8.732c-1.038,1.897-5.191,7.994-14.94,6.537    c-0.342-0.05-0.68-0.113-1.011-0.19c0.936,5.121,8.464,8.234,21.226,8.768c13.843,0.584,19.422-5.275,21.669-10.29    c1.802-4.02,1.985-8.507,1.285-12.333c-1.996,2.098-4.011,3.221-5.877,2.852c-4.855-0.972-7.797-3.159-8.072-6.001    c-0.284-2.93,2.297-5.809,6.903-7.704c1.684-0.699,3.5-0.163,5.112,1.499c1.142,1.178,2.127,2.823,2.876,4.756    c2.129-3.151,4.404-7.619,6.464-13.236c5.93-16.17,7.674-36.141-2.506-41.777c-0.516-0.286-0.703-0.936-0.417-1.451    c0.286-0.515,0.938-0.701,1.451-0.417c11.342,6.278,9.918,26.814,3.477,44.381c-2.073,5.651-4.8,11.201-7.668,15.019    c1.192,4.689,1.105,10.411-1.079,15.284C131.94,456.076,126.217,462.306,112.609,462.306z M89.48,449.153    c0.431,0.121,0.879,0.219,1.344,0.288c8.395,1.226,11.883-3.859,12.753-5.45c1.312-2.4,1.469-5.05,0.374-6.305    c-0.936-1.074-2.566-0.751-3.765-0.296C95.282,439.259,90.179,444.428,89.48,449.153z M128.106,428.494    c-0.224,0-0.444,0.044-0.658,0.131c-3.579,1.474-5.774,3.643-5.591,5.526c0.176,1.814,2.556,3.351,6.367,4.114    c1.198,0.242,2.918-0.899,4.85-3.261c-0.708-2.304-1.733-4.204-2.86-5.365C129.474,428.878,128.769,428.494,128.106,428.494z     M79.872,413.988c4.489,0.252,7.488-2.127,8.881-4.729c1.086-2.029,1.03-3.92,0.354-4.508c-0.543-0.471-1.937-0.373-4.236,1.301    C82.738,407.605,81.035,410.445,79.872,413.988z"/>
	</g>
	<path style="fill:#FBD49E;" d="M358.71,152.075c-0.69-0.815-56.581,14.363-33.095-26.981s56.225-42.411,58.36-12.875   c0,0,11.462-30.202,28.684-24.353c17.221,5.849,9.037,36.937,7.969,37.228c-1.068,0.292,45.143,15.157,45.143,29.203   C465.772,168.343,424.302,229.511,358.71,152.075z"/>
	<path style="fill:#FBD49E;" d="M316.191,92.102c0,0-31.001-94.616-45.937-78.583c-14.937,16.032,30.015,84.17,30.015,84.17   L316.191,92.102z"/>
	<path style="fill:#FBD49E;" d="M388.677,69.632c0,0,7.749-73.482,27.377-69.474c19.628,4.008-15.036,77.49-15.036,77.49   L388.677,69.632z"/>
	<path style="fill:#251426;" d="M375.949,137.434c-4.353,0-8.131-6.245-11.245-18.599c-0.08-0.319-0.133-0.536-0.162-0.623   c-0.176-0.559,0.129-1.161,0.687-1.343c0.555-0.181,1.154,0.115,1.341,0.671c0.031,0.096,0.101,0.365,0.204,0.774   c4.119,16.339,8.21,17.26,9.768,16.916c0.626-0.142,1.122-0.532,1.518-1.189c2.435-4.039,0.056-15.761-1.065-19.938   c-0.153-0.569,0.185-1.155,0.754-1.307c0.572-0.154,1.155,0.186,1.308,0.753c0.174,0.648,4.231,15.957,0.832,21.595   c-0.703,1.163-1.669,1.893-2.873,2.166C376.656,137.392,376.3,137.434,375.949,137.434z"/>
	<path style="fill:#251426;" d="M447.149,155.366c-0.573,0-1.126-0.111-1.656-0.336c-4.565-1.939-5.056-11.691-5.097-12.796   c-0.022-0.59,0.438-1.084,1.027-1.107c0.591,0.004,1.084,0.438,1.106,1.028c0.139,3.653,1.292,9.846,3.799,10.909   c1.15,0.496,2.686-0.119,4.564-1.799c0.437-0.394,1.111-0.361,1.508,0.081c0.393,0.44,0.357,1.116-0.083,1.508   C450.451,154.526,448.719,155.366,447.149,155.366z"/>
	<path style="fill:#251426;" d="M422.608,180.36c-2.442,0.002-4.434-0.673-5.963-2.025c-7.023-6.199-1.096-24.279-0.839-25.046   c0.186-0.559,0.786-0.865,1.35-0.676c0.559,0.188,0.861,0.792,0.674,1.351c-1.616,4.852-4.726,18.399,0.229,22.771   c2.75,2.429,7.786,1.922,14.963-1.512c0.533-0.259,1.17-0.031,1.424,0.503c0.254,0.532,0.029,1.17-0.503,1.424   C429.471,179.29,425.682,180.36,422.608,180.36z"/>
	<path style="fill:#251426;" d="M405.61,128.345c-0.207,0-0.418-0.04-0.623-0.119c-3.448-1.343-7.146-15.221-8.198-19.441   c-0.142-0.573,0.206-1.151,0.779-1.295c0.567-0.142,1.151,0.204,1.294,0.778c1.92,7.713,4.908,16.364,6.627,17.798   c1.066-2.016,1.244-12.296,0.774-21.224c-0.03-0.588,0.421-1.091,1.01-1.122c0.559-0.063,1.092,0.421,1.123,1.009   c0.335,6.37,0.83,21.389-1.807,23.295C406.294,128.237,405.955,128.345,405.61,128.345z"/>
	<path style="fill:#251426;" d="M306.326,87.461c-0.415,0-0.81-0.244-0.983-0.651c-5.921-13.962-13.635-29.17-16.435-30.897   c0.086,3.253,6.958,17.383,13.986,29.959c0.288,0.515,0.103,1.166-0.411,1.453c-0.518,0.286-1.166,0.104-1.453-0.411   c-4.847-8.674-15.905-29.202-13.923-32.496c0.312-0.521,0.902-0.809,1.473-0.797c4.562,0.098,14.618,22.659,18.729,32.354   c0.23,0.542-0.024,1.17-0.566,1.399C306.606,87.434,306.465,87.461,306.326,87.461z"/>
	<path style="fill:#251426;" d="M399.224,69.692c-0.147,0-0.297-0.031-0.441-0.096c-0.537-0.244-0.774-0.876-0.53-1.414   c7.056-15.526,11.724-29.869,10.194-31.322c-3.141,1.457-8.663,16.614-11.439,25.838c-0.171,0.563-0.766,0.882-1.33,0.713   c-0.565-0.169-0.885-0.765-0.715-1.33c1.246-4.137,7.697-24.886,12.439-27.1c0.822-0.384,1.49-0.252,1.907-0.073   c0.379,0.163,0.897,0.523,1.205,1.32c2.061,5.319-9.044,30.038-10.317,32.838C400.018,69.46,399.63,69.692,399.224,69.692z"/>
	<path style="fill:#251426;" d="M332.679,120.111c-0.246,0-0.492-0.085-0.692-0.259c-0.314-0.269-7.615-6.772-2.595-22.49   c2.608-8.165,6.414-10.238,9.146-10.538c0.394-0.044,0.783-0.054,1.168-0.031c0.956-3.478,2.648-6.975,5.327-9.539   c2.704-2.588,7.541-5.159,15.222-2.754c2.728,0.857,4.907,1.827,6.647,2.834c2.584-3.849,7.359-6.508,14.069-3.72   c13.716,5.703,11.14,19.675,11.112,19.817c-0.114,0.578-0.675,0.957-1.252,0.84c-0.578-0.113-0.955-0.673-0.843-1.251   c0.097-0.505,2.244-12.41-9.836-17.433c-6.358-2.646-9.872,0.609-11.448,2.909c3.857,2.782,4.793,5.634,5.009,7.064   c0.301,1.995-0.372,3.828-1.758,4.783c-1.299,0.897-2.959,0.897-4.554,0c-3.352-1.885-3.41-7.083-1.544-11.145   c-1.598-0.93-3.638-1.843-6.242-2.658c-5.371-1.687-9.779-0.926-13.108,2.258c-2.333,2.233-3.834,5.319-4.706,8.407   c2.514,0.84,4.584,2.779,5.507,4.36c1.173,2.004,0.293,4.921-1.099,6.923c-1.319,1.895-2.979,2.859-4.416,2.621   c-0.888-0.156-2.076-0.83-2.691-3.146c-0.535-2.014-0.599-5.407,0.105-9.043c-0.145,0.002-0.291,0.013-0.437,0.029   c-3.017,0.332-5.558,3.468-7.347,9.066c-4.559,14.277,1.69,19.988,1.958,20.225c0.441,0.388,0.488,1.061,0.102,1.503   C333.273,119.986,332.977,120.111,332.679,120.111z M341.307,89.283c-0.647,3.297-0.609,6.368-0.14,8.132   c0.246,0.928,0.619,1.522,0.996,1.589c0.491,0.111,1.425-0.484,2.294-1.735c1.151-1.656,1.585-3.645,1.009-4.627   C344.778,91.464,343.194,89.965,341.307,89.283z M367.667,80.388c-1.424,3.349-1.101,7.035,0.782,8.094   c0.869,0.488,1.685,0.523,2.295,0.104c0.708-0.49,1.037-1.526,0.859-2.706C371.469,85,370.816,82.744,367.667,80.388z"/>
	<path style="fill:#251426;" d="M419.88,179.995c-0.241,0-0.484-0.081-0.684-0.248c-0.452-0.379-0.512-1.053-0.134-1.503   l23.38-27.959c0.377-0.455,1.051-0.513,1.504-0.136c0.452,0.379,0.512,1.053,0.134,1.503l-23.38,27.959   C420.488,179.866,420.185,179.995,419.88,179.995z"/>
	<circle style="fill:#F19A86;" cx="359.72" cy="140.943" r="7.303"/>
	<circle style="fill:#F19A86;" cx="419.259" cy="133.64" r="7.303"/>
	<path style="fill:#251426;" d="M378.174,495.897c-0.341,0-0.828-0.231-1.032-0.496c-1.035-1.351-5.222-14.216-6.48-18.126   c-0.18-0.561,0.128-1.163,0.689-1.343c0.565-0.181,1.162,0.127,1.344,0.688c2.185,6.791,4.75,14.329,5.792,16.762   c1.817-1.678,6.391-7.769,10.277-13.424c0.201-0.292,0.479-0.419,0.893-0.463c0.357,0.004,0.688,0.188,0.882,0.486   c3.632,5.596,7.655,10.436,9.026,10.897c0.824-1.585,0.382-10.081-0.587-17.377c-0.078-0.584,0.334-1.12,0.917-1.199   c0.591-0.071,1.122,0.334,1.199,0.92c1.104,8.317,1.895,18.48-0.604,19.656c-2,0.94-5.643-2.563-10.87-10.405   c-9.283,13.367-10.889,13.409-11.428,13.422C378.187,495.897,378.18,495.897,378.174,495.897z"/>
	<path style="fill:#251426;" d="M310.266,497.356c-0.139,0-0.272-0.017-0.381-0.056c-0.515-0.183-2.08-0.738-7.532-18.415   c-0.174-0.563,0.142-1.161,0.705-1.334c0.57-0.177,1.162,0.142,1.334,0.705c2.045,6.631,4.584,13.862,5.875,16.332   c0.978-2.154,2.887-7.934,4.362-13.013c0.108-0.375,0.416-0.663,0.799-0.744c0.383-0.083,0.781,0.05,1.036,0.346   c4.524,5.265,10.039,11.105,11.973,12.402c0.394-1.904,0.553-8.935,0.407-14.983c-0.014-0.588,0.452-1.078,1.042-1.093   c0.608-0.029,1.078,0.452,1.094,1.043c0.378,15.784-0.928,16.797-1.357,17.129c-0.764,0.592-2.025,1.56-13.495-11.622   c-1.76,5.903-3.899,12.302-5.119,13.115C310.824,497.289,310.534,497.356,310.266,497.356z"/>
	<path style="fill:#251426;" d="M185.215,500c-1.169,0-3.738-1.9-10.681-20.159c-0.21-0.55,0.067-1.168,0.618-1.378   c0.554-0.202,1.169,0.069,1.377,0.619c3.034,7.975,7.062,16.975,8.673,18.597c1.057-1.645,3.067-10.588,4.336-18.388   c0.073-0.45,0.423-0.803,0.873-0.882c0.457-0.077,0.898,0.142,1.117,0.538c3.828,6.956,8.714,14.694,10.619,16.276   c0.672-2.54,0.231-10.899-0.353-16.543c-0.06-0.588,0.366-1.111,0.953-1.172c0.578-0.075,1.11,0.365,1.172,0.951   c0.268,2.59,1.52,15.644-0.149,18.401c-0.297,0.488-0.827,0.755-1.343,0.753c-2.284-0.048-7.135-7.65-11.286-14.979   c-1.917,10.959-3.758,16.77-5.481,17.285C185.537,499.956,185.392,500,185.215,500z"/>
	<path style="fill:#251426;" d="M130.222,498.459c-2.27,0.002-6.121-4.929-11.476-14.692c-1.001,4.07-2.968,11.232-4.852,13.265   c-0.433,0.467-1.028,0.663-1.628,0.53c-2.93-0.634-7.106-11.96-9.335-18.655c-0.186-0.561,0.117-1.163,0.677-1.351   c0.561-0.19,1.163,0.117,1.35,0.676c2.478,7.446,5.97,15.801,7.567,17.11c1.591-2.158,3.752-10.092,4.782-14.79   c0.096-0.436,0.455-0.767,0.898-0.828c0.452-0.06,0.878,0.161,1.087,0.557c3.873,7.296,8.997,15.294,10.705,16.026   c1.127-1.368,1.77-10.109,1.666-17.723c-0.008-0.59,0.464-1.074,1.053-1.082c0.005,0,0.01,0,0.015,0   c0.583,0,1.059,0.469,1.068,1.053c0.094,6.883-0.174,18.609-3.033,19.8C130.594,498.424,130.414,498.459,130.222,498.459z"/>
	<g>
		<path style="fill:#F5B29F;" d="M344.233,257.401c0,0,20.961,7.949,9.616,26.393s-21.722-9.09-9.616-7.177    s11.616,26.155-11.871,28.824s-30.959-21.943-18.682-21.647s14.412,20.58-13.345,15.776s-17.165-29.358-7.782-28.824"/>
		<path style="fill:#251426;" d="M328.921,306.706c-6.348,0-12.013-2.002-16.154-5.663c-3.148,0.505-7.257,0.503-12.614-0.421    c-18.869-3.267-19.024-14.969-18.622-18.478c0.794-6.931,5.981-12.817,11.083-12.465c0.589,0.033,1.038,0.538,1.005,1.126    c-0.033,0.588-0.556,1.061-1.126,1.005c-3.862-0.167-8.191,4.917-8.841,10.576c-0.446,3.895,0.303,13.265,16.865,16.13    c4.28,0.744,7.672,0.857,10.347,0.605c-0.523-0.607-1.012-1.247-1.464-1.92c-2.677-3.989-3.374-8.453-1.773-11.368    c1.136-2.07,3.298-3.171,6.078-3.105c3.918,0.094,7.311,2.135,8.856,5.329c1.341,2.771,1.039,5.888-0.805,8.336    c-0.998,1.324-2.871,3.005-6.29,4.039c3.399,2.521,8.805,4.86,16.774,3.947c11.808-1.341,17.702-8.376,18.619-15.248    c-3.231,2.752-6.002,2.3-7.612,1.576c-4.23-1.887-6.306-7.89-5.206-11.599c0.819-2.761,3.139-4.053,6.357-3.547    c4.17,0.661,7.218,3.739,8.296,8.065c0.082-0.127,0.164-0.259,0.245-0.39c3.101-5.042,3.958-9.704,2.547-13.855    c-2.526-7.435-11.543-10.949-11.634-10.982c-0.55-0.211-0.828-0.828-0.618-1.378c0.211-0.55,0.829-0.826,1.376-0.619    c0.409,0.156,10.034,3.891,12.893,12.279c1.631,4.787,0.707,10.061-2.746,15.674c-0.554,0.901-1.102,1.691-1.643,2.383    c0.008,0.279,0.009,0.561,0.003,0.847c-0.181,8.269-6.632,17.327-20.635,18.918C331.277,306.637,330.086,306.706,328.921,306.706z     M313.465,284.86c-1.878,0-3.246,0.688-3.966,2c-1.201,2.189-0.529,5.867,1.675,9.151c0.42,0.626,1.168,1.622,2.29,2.717    c3.965-0.857,5.809-2.59,6.587-3.622c1.353-1.795,1.573-4.083,0.588-6.122c-1.194-2.469-3.871-4.047-6.986-4.122    C313.59,284.86,313.527,284.86,313.465,284.86z M343.074,277.588c-1.564,0-2.566,0.713-2.986,2.127    c-0.836,2.819,0.895,7.644,4.03,9.043c2.13,0.947,4.488-0.017,6.815-2.729c-0.399-4.47-3.036-7.752-6.868-8.357    C343.713,277.615,343.383,277.588,343.074,277.588z"/>
	</g>
	<g>
		<path style="fill:#F5B29F;" d="M180.075,273.94c0,0,20.961,7.949,9.616,26.393s-21.722-9.09-9.616-7.177    c12.106,1.913,11.616,26.155-11.871,28.824s-30.959-21.943-18.682-21.647s14.412,20.58-13.345,15.776s-17.165-29.358-7.782-28.824    "/>
		<path style="fill:#251426;" d="M164.763,323.245c-6.348,0-12.013-2.002-16.154-5.663c-3.151,0.503-7.259,0.5-12.614-0.421    c-18.869-3.267-19.024-14.969-18.622-18.478c0.794-6.931,5.995-12.813,11.083-12.465c0.589,0.033,1.038,0.538,1.005,1.126    c-0.033,0.588-0.538,1.074-1.126,1.005c-3.843-0.169-8.191,4.917-8.841,10.576c-0.446,3.895,0.303,13.265,16.865,16.13    c4.281,0.744,7.671,0.855,10.347,0.605c-0.523-0.607-1.012-1.247-1.464-1.92c-2.677-3.989-3.374-8.453-1.773-11.368    c1.136-2.068,3.29-3.148,6.078-3.105c3.918,0.094,7.311,2.135,8.856,5.329c1.341,2.771,1.039,5.888-0.805,8.336    c-0.998,1.324-2.871,3.005-6.29,4.039c3.399,2.521,8.807,4.858,16.774,3.947c11.808-1.341,17.702-8.376,18.619-15.248    c-3.231,2.754-5.999,2.3-7.612,1.576c-4.23-1.887-6.306-7.89-5.206-11.599c0.819-2.761,3.132-4.055,6.358-3.547    c4.17,0.661,7.218,3.736,8.296,8.065c0.081-0.129,0.163-0.259,0.244-0.39c3.101-5.042,3.958-9.704,2.547-13.855    c-2.525-7.435-11.542-10.949-11.633-10.982c-0.55-0.211-0.828-0.828-0.618-1.378c0.21-0.55,0.827-0.824,1.376-0.619    c0.409,0.156,10.033,3.891,12.892,12.279c1.632,4.787,0.707,10.061-2.746,15.674c-0.554,0.901-1.102,1.691-1.643,2.383    c0.008,0.277,0.009,0.561,0.003,0.847c-0.18,8.269-6.632,17.327-20.635,18.918C167.119,323.176,165.928,323.245,164.763,323.245z     M149.307,301.399c-1.878,0-3.246,0.688-3.966,2c-1.201,2.189-0.529,5.867,1.675,9.151c0.42,0.626,1.168,1.622,2.29,2.717    c3.965-0.857,5.809-2.59,6.587-3.622c1.353-1.795,1.573-4.083,0.588-6.122c-1.194-2.469-3.871-4.047-6.986-4.122    C149.432,301.399,149.369,301.399,149.307,301.399z M178.917,294.127c-1.564,0-2.567,0.713-2.986,2.127    c-0.836,2.821,0.893,7.644,4.029,9.043c2.134,0.949,4.49-0.015,6.815-2.729c-0.398-4.47-3.035-7.752-6.867-8.357    C179.556,294.154,179.226,294.127,178.917,294.127z"/>
	</g>
	<g>
		<path style="fill:#F5B29F;" d="M392.814,204.726c0,0,2.498,18.861-14.826,16.876c-22.574-2.587-9.087-24.349-5.116-18.477    c3.97,5.872-15.458,13.285-27.735-2.965s4.417-22.656,7.279-18.386c2.862,4.27-18.302,17.503-22.506,4.804    c-6.659-20.112,11.214-25.088,11.214-25.088"/>
		<path style="fill:#251426;" d="M380.444,222.816c-0.825,0-1.684-0.05-2.577-0.152c-10.925-1.253-13.216-6.814-13.609-10.017    c-0.065-0.523-0.088-1.049-0.073-1.572c-6.288,0.221-14.068-2.554-19.899-10.271c-2.312-3.061-3.595-5.734-4.208-8.028    c-1.332,0.24-2.663,0.313-3.929,0.169c-3.573-0.407-6.079-2.494-7.251-6.032c-2.212-6.683-2.045-12.49,0.496-17.258    c3.72-6.975,11.131-9.106,11.444-9.193c0.57-0.163,1.155,0.173,1.314,0.74c0.159,0.567-0.172,1.155-0.739,1.316    c-0.068,0.019-6.87,1.998-10.145,8.163c-2.246,4.229-2.361,9.464-0.343,15.561c0.904,2.729,2.743,4.272,5.466,4.583    c1.043,0.119,2.157,0.054,3.29-0.154c-0.239-2.235,0.178-4.026,0.782-5.382c1.643-3.689,5.309-5.592,8.212-5.84    c2.085-0.188,3.771,0.452,4.629,1.731c0.479,0.713,0.816,1.945-0.288,3.759c-1.602,2.631-6.083,5.892-10.864,7.335    c0.547,2.023,1.711,4.427,3.838,7.242c5.762,7.629,13.042,9.744,18.456,9.393c0.77-3.607,3.098-6.741,5.41-7.606    c1.533-0.573,2.992-0.119,3.901,1.224c1.392,2.058,0.731,4.427-1.724,6.182c-1.48,1.059-3.45,1.818-5.707,2.166    c-0.025,0.5-0.01,1.005,0.052,1.512c0.555,4.518,4.612,7.34,11.734,8.155c4.495,0.523,7.956-0.411,10.263-2.752    c4.425-4.495,3.392-12.84,3.382-12.923c-0.076-0.584,0.335-1.122,0.92-1.197c0.587-0.075,1.12,0.334,1.197,0.917    c0.051,0.384,1.184,9.445-3.97,14.692C387.591,221.632,384.416,222.816,380.444,222.816z M371.141,203.19    c-0.161,0-0.337,0.038-0.536,0.113c-1.418,0.532-3.133,2.669-3.894,5.311c1.69-0.348,3.096-0.938,4.079-1.641    c0.855-0.611,2.147-1.845,1.198-3.249C371.743,203.361,371.479,203.19,371.141,203.19z M349.343,181.555    c-0.157,0-0.319,0.006-0.486,0.021c-2.278,0.196-5.155,1.689-6.444,4.583c-0.45,1.011-0.763,2.331-0.637,3.985    c4.111-1.307,8.066-4.097,9.415-6.314c0.189-0.311,0.599-1.072,0.338-1.462C351.183,181.851,350.368,181.555,349.343,181.555z"/>
	</g>
	<g>
		<path style="fill:#F5B29F;" d="M287.819,318.488c0,0,14.042,12.838-0.501,22.458c-18.951,12.535-22.617-12.803-15.8-10.86    c6.816,1.943-3.294,20.115-23.147,15.564c-19.852-4.55-11.187-20.191-6.249-18.761c4.938,1.43-2.76,25.173-14.146,18.152    c-18.033-11.12-7.545-26.424-7.545-26.424"/>
		<path style="fill:#251426;" d="M254.465,347.428c-2.008,0-4.123-0.229-6.333-0.736c-3.739-0.857-6.439-2.079-8.383-3.442    c-0.866,1.043-1.837,1.954-2.9,2.656c-2.997,1.987-6.258,2.002-9.433,0.044c-5.992-3.695-9.597-8.249-10.716-13.534    c-1.638-7.734,2.668-14.133,2.851-14.4c0.334-0.488,0.997-0.613,1.482-0.277c0.487,0.332,0.611,0.995,0.28,1.482    c-0.041,0.058-3.978,5.947-2.521,12.775c1,4.681,4.279,8.766,9.744,12.135c2.448,1.512,4.847,1.508,7.133-0.004    c0.875-0.58,1.686-1.347,2.422-2.233c-1.622-1.56-2.454-3.199-2.863-4.625c-1.113-3.882,0.469-7.696,2.532-9.754    c1.48-1.476,3.182-2.075,4.659-1.651c0.825,0.24,1.877,0.965,2.197,3.063c0.466,3.046-0.868,8.426-3.603,12.604    c1.72,1.197,4.157,2.292,7.596,3.08c9.325,2.139,16.231-0.92,20.175-4.675c-1.731-3.259-1.963-7.156-0.75-9.306    c0.806-1.426,2.215-2.014,3.775-1.57c2.388,0.68,3.406,2.919,2.655,5.842c-0.454,1.762-1.473,3.609-2.979,5.327    c0.302,0.4,0.639,0.778,1.012,1.126c3.33,3.105,8.25,2.654,14.23-1.301c3.78-2.5,5.829-5.43,6.089-8.707    c0.498-6.287-5.658-12.014-5.72-12.071c-0.434-0.4-0.463-1.074-0.066-1.51c0.397-0.432,1.074-0.463,1.508-0.067    c0.286,0.261,6.982,6.474,6.407,13.805c-0.311,3.97-2.679,7.446-7.04,10.33c-9.171,6.068-14.502,3.282-16.863,1.082    c-0.386-0.359-0.741-0.746-1.068-1.157C266.411,344.98,261.027,347.426,254.465,347.428z M241.467,327.867    c-0.648,0-1.455,0.417-2.198,1.159c-1.62,1.614-2.863,4.608-1.989,7.652c0.305,1.065,0.915,2.277,2.076,3.463    c2.308-3.645,3.543-8.328,3.151-10.892c-0.055-0.359-0.23-1.205-0.681-1.334C241.713,327.882,241.593,327.867,241.467,327.867z     M270.799,331.045c-0.383,0-0.66,0.202-0.904,0.634c-0.744,1.32-0.682,4.06,0.433,6.572c1.072-1.353,1.769-2.711,2.069-3.88    c0.262-1.018,0.457-2.794-1.173-3.259C271.069,331.068,270.928,331.045,270.799,331.045z"/>
	</g>
</g>















</svg>
