<svg id="Layer_1" enable-background="new 0 0 40 40" height="512" viewBox="0 0 40 40" width="512" xmlns="http://www.w3.org/2000/svg"><g id="_x36_6"><g><path d="m15.1661663 23.7087936s4.7282219 1.2179375 4.9630661-.1943684c.2348442-1.4123077 3.3800488 2.3244534 3.3800488 2.3244534l-2.6265354 2.2136383z" fill="#1d2943"/></g><g><g><path d="m35.6955986 6.3529534c-4.4185524 1.639432-9.6271973 10.4388103-9.6271973 10.4388103s.2835293 6.9797878-2.0192146 3.2171879c-1.9111576-3.1209106-1.9328156-6.8386612-1.8840103-8.0178566.0094776-.245018.0992241-.4772329.2526913-.6653109.727314-.8869238 3.0804634-3.6053123 5.7368793-5.1305323 2.7101421-1.5545306 6.3005905-1.5163693 7.6333237-.3037815.1560974.1420232.1053848.3880717-.0924721.4614831z" fill="#1d2943"/></g><g><path d="m34.2692032 11.698554c-2.8117905 1.6422377-3.5665665 3.8353119-3.0966473 5.8649187-2.3075848-2.9359579-4.8738461-5.0982933-8.4034557-5.6058292.0215092-.0938597.06073-.1798029.1150208-.2582092 7.6154689-4.3879795 10.8724441-.1972361 11.3850822-.0008803z" fill="#4c5c75"/></g><g opacity=".9"><path d="m34.2005882 11.735877c-.5281944.2852726-3.8553238 2.2544699-3.0280323 5.8275957-2.6074104-3.3174276-5.3873158-5.2687149-8.3702679-5.6024141 1.8893147-.931633 4.1829147-.4660215 5.5176277 1.1472301.3286514.3943701.6799183.8942928 1.197897.868741.875536-.0392237 1.1516838-1.4677715 3.6702099-2.146306.3291054-.0889263.6834717-.1473026 1.0125656-.0948467z" fill="#31445b"/></g><g><path d="m31.1725559 17.5634727s-4.3445797-.5095901-4.1999111 7.2716274l-2.2463722-2.5373993-.2185726-2.8963489c-.0495129-.1374683-2.1771641-3.6022243-1.7559452-7.350585.0045147-.031683.009058-.0633287.0173454-.0931234 2.9954109.3220291 5.7870045 2.2763434 8.4034557 5.6058292z" fill="#4c5c75"/></g><g opacity=".9"><path d="m31.1725559 17.5634727s-4.3445797-.5095901-4.1999111 7.2716274l-2.2463722-2.5373993-.2185726-2.8963489s-.5159588-.8829803-.9952564-2.2103806c.2701836.3886185 1.0788803 1.5451336 1.4887753 1.7908707.2156086.1304665.4949417.1825275.7245407.0739956.4150734-.200489.4498558-.7731075.7175636-1.1481514.2028675-.2887306.5440407-.4526768.7665062-.7278309.5279198-.6465225.27141-1.5240765-.1636314-2.235508-.9196014-1.5061722-2.5573845-2.5468712-4.3068981-2.7593765.0030556-.0596895.0137196-.1695156.0298004-.2273273 2.9954108.3220291 5.7870044 2.2763434 8.4034556 5.6058292z" fill="#31445b"/></g><g><path d="m35.9281998 6.3934898c-.5193253.5961056-2.1759148 2.739068-1.6597519 5.3009129-3.0764542-2.7113113-6.8371868-2.6149988-11.3843269.0050316.1336956-.2674923 2.7286472-3.5426397 5.4447441-5.2719502 1.3123989-.835535 2.846014-1.2691941 4.2189674-1.3421245 1.481945-.0825839 2.7740173.2561698 3.3909531.9595709.0869979.0991883.0760765.249082-.0105858.3485593z" fill="#4c5c75"/></g><g opacity=".9"><path d="m35.9281998 6.3934898c-.5193253.5961056-2.1759148 2.739068-1.6597519 5.3009129-3.0764542-2.7113113-6.8371868-2.6149988-11.3843269.0050316.3492832-.6988277 3.8308048-2.8894939 7.3074532-3.2431412.7336063-.0741453 1.490593-.0951319 2.168808-.3845549 1.4679527-.6317458 1.7038307-2.3035798.1874504-2.9863787 1.481945-.0825839 2.7740173.2561698 3.3909531.9595709.0869978.0991884.0760764.2490821-.0105859.3485594z" fill="#31445b"/></g><g><g><path d="m34.2187386 11.4018784c.0127945.0987654.0297432.1967764.0504646.2966757 0 0-.0652199.0324183-.1752968.0961151-2.9242039-2.5428028-6.5371552-2.538455-11.020174.0099754 2.7669468.3943682 5.4616718 2.1974878 8.0246296 5.3645124.0176792.1304188.0433083.2620087.074194.3943157 0 0-.0900974-.0101814-.2442894-.0053196-.5044155-.4797096-3.5808144-4.9223156-8.185955-5.4131413.0200768-.3393059.1379299-.4567337.4276199-.8247633 4.4483413-2.4470281 8.0771083-2.4208459 11.0488071.0816299z" fill="#111d33"/></g></g></g><g><g><path d="m5.0738292 34.790493c1.7816687-3.9508762 10.6811638-7.5771923 10.6811638-7.5771923s6.6667519 1.3279495 3.2167816-1.4159698c-2.8615208-2.2770271-6.4211922-2.8623238-7.5539742-2.9954472-.2353287-.0282879-.4637671.0210915-.654192.1372833-.8982325.5513401-3.6595778 2.3581028-5.2983198 4.6322346-1.7214437 2.3912449-1.8852289 5.9214191-.6999974 7.2811222.0893364.1024857.2526474.0619087.308538-.0620308z" fill="#1d2943"/></g><g><path d="m10.3275261 34.1754875c1.4761763-2.0140114 3.5203705-2.9357834 5.8250713-2.0300522-2.5614738-2.5277958-4.5514059-5.2916393-4.8072557-8.7789383-.0913439.006031-.1762915.0299702-.2550278.0692711-4.706182 6.5080605-.93155 10.1762619-.7627878 10.7397194z" fill="#4c5c75"/></g><g opacity=".9"><path d="m10.3678694 34.1164322c.3086033-.4549179 2.4175043-3.2942924 5.7847281-1.9709969-3.0031643-2.9636803-4.6861982-5.8825111-4.8062048-8.7471123-1.0092735 1.6253109-.7407074 3.8601952.7296305 5.3792324.3557606.3699455.8111124.7772636.7519712 1.2620049-.0433092.369278-.3742933.6038074-.6573353.8315334-.7446461.594759-1.3174114 1.3972626-1.6441727 2.3045692-.1072054.2969438-.1868382.6223565-.158617.9407693z" fill="#31445b"/></g><g><path d="m16.1525974 32.1454353s-.1973619-4.1757832 7.2463474-2.8570557l-2.2801609-2.5045929c-.8256702.1888657-1.756815-.0748024-2.7597008-.6462536-.1020298-.0522957-3.3720226-2.6042824-6.9233799-2.7732487-.0306501-.000555-.0612669-.0010777-.0903616.0022125.1079951 2.8745805 1.7931462 5.8048994 4.8072558 8.7789384z" fill="#4c5c75"/></g><g opacity=".9"><path d="m16.1525974 32.1454353s-.1973619-4.1757832 7.2463474-2.8570557l-2.2801609-2.5045929c-.8027725.1980133-1.7389412-.074831-2.7597008-.6462536 0 0-.811245-.6208668-2.050642-1.2746811.3554306.3150406 1.407917 1.252676 1.6157818 1.6765003.1105404.2232113.1417141.4946251.0223885.6947212-.21982.3610897-.7706413.3068981-1.1478024.502449-.4871025.247633-.7274494 1.036068-1.8486328.6999512-1.3306704-.3964138-3.2554283-2.5403175-3.3850899-5.0635471-.0564251-.0060844-.162899-.0128593-.2197447-.0064297.1079951 2.8745805 1.7931462 5.8048994 4.8072558 8.7789384z" fill="#31445b"/></g><g><path d="m5.0921793 34.9629402c.539752-.3642197 2.7511549-1.6870003 5.2314215-.7887955-2.391192-3.3140507-2.0472507-6.8470173.7667131-10.7383766-.0149546.0048199-.0273371.0097008-.0395441.0171089-1.8254356.9989491-4.0159979 2.6184921-5.3746848 4.318058-.888165 1.1110725-1.4061913 2.4918842-1.5679336 3.7759476-.1827543 1.4201508.0719261 2.719368.7405319 3.3952904.064262.0649643.1677499.0718803.243496.0207672z" fill="#4c5c75"/></g><g opacity=".9"><path d="m5.0921793 34.9629402c.539752-.3642197 2.7511549-1.6870003 5.2314215-.7887955-2.391192-3.3140507-2.0472507-6.8470173.7667131-10.7383766-.0617905.0199184-.3266144.1786861-.3823376.2119999-1.5573816 1.6562653-2.8063221 3.8914871-3.2132182 6.1885624-.1201181.6807671-.1908817 1.3916626-.5135002 1.9874687-.7136798 1.3076553-2.3269353 1.2395592-2.8731065-.2769165-.1827543 1.4201508.0719261 2.719368.7405319 3.3952904.064262.0649643.1677499.0718803.243496.0207672z" fill="#31445b"/></g><g><g><path d="m10.0467272 34.0828056c.0937481.0270805.1864958.0579567.2807989.0926819 0 0 .0354176-.0565948.1037979-.1507607-2.2399721-3.1448231-1.9940109-6.5523567.7470779-10.3941059.1925755 2.6700516 1.7393847 5.486021 4.6014557 8.3849163.1237421.0364914.2480717.0806618.3727398.1298981 0 0-.0037231-.0865364.0112514-.2312508l-.0013695-.001297c-2.9771872-2.9746571-4.5370922-5.8480816-4.63587-8.5431919-.3428278-.0342598-.4835596.0822468-.8186331.2780724-2.6416386 3.8244457-2.859414 7.2515373-.661249 10.4350376z" fill="#111d33"/></g></g></g><g><path d="m27.334877 25.337923c.0855656.1266842.0885487.2940617-.0008202.4199619-1.319334 1.8726196-.5912476 3.3527412-.7707386 3.7040634-.1866589.3637409-1.3190308.2641182-2.1212502.2719135-.4704571.0040703-.7257175.5112076-.9626083.688818-.4195843.3145866-.6559277.1092854-.780304-.0471668-2.180378-2.7635937-2.4484062-5.2200241-2.4484062-5.2200241s4.0611305-2.1496391 5.1056786-1.7525234c.8145848.3103695 1.6509171 1.4478398 1.9784489 1.9349575z" fill="#111d33"/></g><g><path d="m27.649559 25.2796326c.0855408.1266727.0885334.2940426-.0008354.4199409-1.3634682 1.9476089-.5677547 3.3054028-.7707386 3.7040653-.186655.3637676-1.4492016.6059513-2.2513981.6137581-.1752987.0018501-.3411751.0319786-.4915905.0764542l-.0015011.0011253c-.2241726.0694199-.4233875.1746883-.6115074.30299-.1628819.11269-.3837757.0757084-.5081501-.0807438-2.1803894-2.763588-2.4484043-5.2199993-2.4484043-5.2199993s4.0611267-2.1496639 5.1056671-1.7525425c.8146057.3103809 1.6509381 1.4478512 1.9784584 1.9349518z" fill="#4c5c75"/></g><g><path d="m27.3097363 26.2529297c-.8424168 1.606926-.2707272 2.8344555-.4317513 3.1507092-.186655.3637676-1.4492016.6059513-2.2513981.6137581-.1752987.0018501-.3411751.0319786-.4915905.0764542.6096058-.2332649 1.5981464-.4562721 1.683403-.4856987.3438892-.1186943.2898846-.7346535.1836128-.9329491-.5562305-1.0324364-1.7312298-1.9079075-2.2252369-2.8454227-.2551289-.4848099-.2870674-1.1464195.1008987-1.5338974-.025404 2.1442547 2.0039349 3.5805054 2.5776234 3.3374023.3697911-.1572972.2605057-.7135373.8544389-1.3803559z" fill="#31445b"/></g><g><path d="m25.1384392 25.6507397c-2.5773811 2.7717724-5.3089828-.5691471-6.6385612-2.4612331-.4091301-.6033955-.9810314-1.3127003-.9810314-1.3127003l5.4206295-.4704323-.0687103-4.187994s.8869076.6390381 1.8380699 1.9174919c1.3091659 1.7693596 2.4444159 4.336504.4296035 6.5148678z" fill="#111d33"/></g><g><path d="m24.9869366 25.4784946c-2.5261345 2.7166595-5.5233803-.8319702-6.8265228-2.6864357-.4009953-.5913963-.6415672-1.0124607-.6415672-1.0124607l5.312849-.4610767-.2205658-4.3305511c.0684566.1000041 5.7766723 4.8135948 2.3758068 8.4905242z" fill="#c9cee2"/></g><g><path d="m24.9869366 25.4784946c-2.5261345 2.7166595-5.5233803-.8319702-6.8265228-2.6864357.5003281-.4502335 1.0370502-.0461388 1.5236473.4110298.7017097.6817036 1.2064686 1.6088276 2.1487522 1.8594341.9422836.2606411 2.3421612-.2154388 3.0337753-.8971443.6817055-.6817036.8521004-1.7442112.6716709-2.6865559-.1604233-.8519173-.5613575-1.6338387-.9723854-2.3856583 1.2831345 1.7341787 2.395813 4.2502786.4210625 6.3853303z" fill="#9ea9c9"/></g><g><g><g><path d="m20.4038334 15.1563129c-.0074406.7919979 1.1080627 6.6120853 2.503912 7.0536423-.0410976-.00453-.8904133-.0910034-1.6087055-1.5549164-.7789765-1.5713825-1.1399861-4.4660682-.8952065-5.4987259z" fill="#4c5c75"/></g></g><g><path d="m22.9077454 22.2099552c-.0410976-.00453-.8904133-.0910034-1.6087055-1.5549164.0836926.0268021.2906418.0954323.5337734.2029057.1979885.419981.6638889 1.2219829 1.0749321 1.3520107z" fill="#31445b"/></g><g><path d="m23.6509914 18.3215485-.0003777.0026417c.1236267.2088642.2264977.4214973.3060017.6375046.7378216 1.9958401.1981106 3.5571842.1981106 3.5571842l-1.2443523-.3085632c-.0451679-.10462-1.1535549.0622845-2.30019-5.6256027-.0007534-.0041504-.0018864-.005661-.0018864-.005661-.2290134-1.1381235-.2033386-1.4400902-.2033386-1.4400902s2.2386456 1.4524688 3.2460327 3.1825866z" fill="#31445b"/></g><g><path d="m23.6506138 18.3241901c.6516628 1.1009712.8933334 2.8643188.5158157 4.1600323-.0071678.0218544-.0117035.0346565-.0117035.0346565-1.3565388-.3363819-1.3188305-.3013725-1.5127335-.4748383-1.046711-.7731857-1.7672653-4.1793785-2.0318089-5.4593277.063324.1504326 1.171545 3.1053467 2.228447 3.9808445 1.0832921.8981305 1.168398-.9584636.8119832-2.2413673z" fill="#1d2943"/></g><g><path d="m24.2313004 22.2282429c-.0271568.124033-.0516834.210722-.0648708.2559795-.0109348.0105572-.0256348.0192204-.0403423.0278912l-1.2157135-.3017979s0 0-.0026283-.0003605c-.416893-.1318779-.8604336-.8970032-1.0749321-1.3520107.3373604.1451817.7489929.3642635 1.0098133.6493092-.0000001-.0000001 1.1482886-.0081006 1.3886737.7209892z" fill="#111d33"/></g></g><g><g><g><path d="m23.2043571 22.5930061c-.0112953-.0339203-.1262169-.3505955-.801342-.7043285-.5036049-.2631969-1.3167019-.5464401-2.6311798-.7505798-3.0161152-.4690437-3.8062906-.3760681-3.8941212-.3643951 1.2911167-.4529209 5.2914448-.3535881 6.757925.9288006.5081044.4483031.5649682.8603572.568718.8905028z" fill="#4c5c75"/></g></g><g><path d="m23.2043571 22.5930061c-.0112953-.0339203-.1262169-.3505955-.801342-.7043285.0720139-.0704708.149683-.1334209.2326241-.1861744.5081043.4483032.5649681.8603573.5687179.8905029z" fill="#1d2943"/></g><g><path d="m19.2528687 23.824398.0026894-.0007019c.2186203.1059818.4402943.189682.6645145.2483959 2.071867.5459137 3.6493855-.2026024 3.6493855-.2026024l-.3641396-1.2740612s-.2538109-.9638004-3.4329128-1.4578285c-3.2085266-.5004749-3.8034649-.3559227-3.9035912-.3619366 0 .0000001 1.5737724 2.1883832 3.3840542 3.0487347z" fill="#31445b"/></g><g><path d="m23.2054901 22.5945148.3643436 1.2746296c-.1079082.0256958-1.5608902.7521782-3.6495476.2037582-.2242813-.0603523-.4466991-.1433258-.6645718-.2485409 1.32617.2260246 3.223547-.077528 2.262413-1.1143799-.9366207-1.0104294-4.0054665-1.8357315-4.1611595-1.886282 5.8772603.5658647 5.7339574 1.7279226 5.8485223 1.770815z" fill="#1d2943"/></g><g><path d="m23.2054901 22.5945148.3643436 1.2746296s-.2035789.096096-.5598507.1959305c-1.200428-.1843414-1.3523979-1.4620895-.6069679-2.1763973.7139416.3740921.802475.7058372.802475.7058372z" fill="#111d33"/></g></g><g><path d="m23.9169712 21.8841267c.4304237.3438091.7174244 1.0160713.3497314 1.5829754-.3607521.5562-1.3371964.5359631-1.767622.192152-.4272804-.3412971-.4598103-1.0157318-.0683193-1.5058575.391491-.4901276 1.0589295-.610569 1.4862099-.2692699z" fill="#31445b"/></g><g><path d="m24.2541332 22.6749783c.2176819.1694889.2125587.5366459-.0084267.8204918-.2209873.2838459-.574255.3770256-.7919369.2075367-.2160931-.1682529-.2139702-.5348358.0070171-.8186836.2209855-.283846.5772535-.377596.7933465-.2093449z" fill="#4c5c75"/></g><g><g><path d="m22.6825733 22.9930267c.1439571.1045685-.0258884.3404961-.1708374.2352085-.146204-.1062011.0260143-.3404045.1708374-.2352085z" fill="#e3e7f0"/></g><g><path d="m22.6825733 22.9930267c.1109467.0805893.0348015.2678528-.1016407.2586079.1175938-.0672379.0866909-.257103-.0498257-.261179.0466538-.0287933.1067696-.0298958.1514664.0025711z" fill="#c9cee2"/></g></g><g><g><path d="m23.6667919 22.1364708c-.1505623.1193523-.3182411-.0932617-.1682148-.2121906.0631619-.0500698.3198643.0919761.1682148.2121906z" fill="#e3e7f0"/></g><g><path d="m23.6667919 22.1364708c-.0411625.032629-.0936661.0407467-.1370201.0254135.1311531-.0330811.1528168-.2242451.0222569-.2649384.1489563-.0429305.23806.1417847.1147632.2395249z" fill="#c9cee2"/></g></g><g><path d="m23.8768501 23.6364517c-.0473614.0726624-.438261-.1816025-.3907127-.2545567.0195541-.0299987.438261.1816045.3907127.2545567z" fill="#111d33"/></g><g><path d="m24.2236519 23.0867996c-.0529537.0686932-.4225216-.215641-.3693542-.2846088.0529537-.0686913.4225196.2156429.3693542.2846088z" fill="#111d33"/></g></g></svg>