<?xml version="1.0" encoding="UTF-8"?>
<!-- Generator: Adobe Illustrator 25.1.0, SVG Export Plug-In . SVG Version: 6.00 Build 0)  -->
<svg xmlns="http://www.w3.org/2000/svg" xmlns:xlink="http://www.w3.org/1999/xlink" version="1.1" id="Capa_1" x="0px" y="0px" viewBox="0 0 500 500" style="enable-background:new 0 0 500 500;" xml:space="preserve" width="512" height="512">
<g>
	<path style="fill:#251626;" d="M423.308,388.852c0.451,0,0.857-0.119,1.178-0.402c0.29-0.253,0.886-0.989,0.198-2.361   c-1.272-2.533-1.009-10.241-0.464-16.793c1.024,2.322,2.343,4.395,3.426,5.469c1.316,1.303,2.327,1.263,2.945,0.993   c1.418-0.615,1.523-2.694,1.481-4.204c-0.264-9.205,8.804-17.214,8.894-17.294c0.47-0.408,0.519-1.119,0.11-1.588   c-0.407-0.468-1.119-0.516-1.587-0.109c-0.407,0.354-9.96,8.799-9.668,19.054c0.031,1.085-0.07,1.653-0.154,1.928   c-0.514-0.355-1.587-1.52-2.791-3.881c-1.187-2.327-1.919-4.667-2.055-6.391c0.097-0.835,0.191-1.58,0.275-2.204   c0.077-0.559-0.273-1.087-0.818-1.236c-0.547-0.145-1.114,0.127-1.334,0.648c-0.321,0.763-0.431,1.686-0.38,2.693   c-0.646,5.503-1.886,18.205-0.209,23.157c-1.567-0.705-4.481-2.755-6.971-6.082c-2.947-3.938-5.848-10.347-2.923-18.513   c0.167-0.463,0.011-0.98-0.38-1.277c-0.396-0.297-0.934-0.303-1.334-0.018c-0.193,0.138-4.461,3.219-6.525,7.002   c-1.503-2.424-4.171-10.826-2.771-18.352c1.127-6.058,4.565-9.831,10.219-11.214c0.602-0.148,0.974-0.757,0.824-1.36   c-0.147-0.603-0.754-0.974-1.36-0.826c-8.173,2-12.547,8.609-12.316,18.613c0.165,7.118,2.945,15.444,5.312,15.909   c0.554,0.108,1.332-0.089,1.723-0.991c0.754-1.727,2.202-3.391,3.51-4.657c-2.059,10.965,4.995,19.221,9.947,22.591   C420.552,388.003,422.099,388.852,423.308,388.852z"/>
	<path style="fill:#D7998E;" d="M76.451,223.445c0,0-15.683,32.425-39.357,27.702c-23.674-4.723-11.141-64.662-11.141-64.662H14.812   c0,0-44.027,108.576,59.453,84.954L76.451,223.445z"/>
	<path style="fill:#D7998E;" d="M418.328,250.366c0,0-14.981-179.18-67.001-195.181S100.41,119.388,77.46,148.136   S55.929,377.479,94.051,377.479c8.537,0,263.336-1.116,274.841-6.762C380.397,365.071,421.706,280.319,418.328,250.366z"/>
	<g>
		<path style="fill:#FFFFFF;" d="M407.175,199.132c0,0-10.932-72.134-29.567-67.674s-26.301,20.313-33.101,9.445    s-18.449-56.021-18.449-56.021s-35.181,54.975-22.531,83.409s85.057-12.784,93.014,36.995L407.175,199.132z"/>
		<path style="fill:#251626;" d="M396.056,206.303c-0.334-0.159-0.569-0.473-0.629-0.838c-3.598-22.517-20.817-25.621-38.891-25.621    c-4.338,0-8.808,0.192-13.133,0.378c-4.34,0.187-8.441,0.363-12.439,0.363c-11.474,0-23.828-1.407-28.467-11.836    c-12.749-28.658,21.162-82.207,22.612-84.473c0.242-0.378,0.681-0.574,1.125-0.504c0.442,0.07,0.8,0.397,0.912,0.83    c0.116,0.451,11.681,45.107,18.313,55.705c1.8,2.876,3.367,3.208,4.391,3.208c2.319,0,5.217-1.891,8.89-4.286    c4.76-3.105,10.683-6.969,18.606-8.866c8.505-2.031,16.551,9.604,23.564,34.528c4.738,16.841,7.349,33.903,7.375,34.073    c0.07,0.457-0.147,0.91-0.549,1.142l-10.635,6.155c-0.174,0.101-0.367,0.152-0.563,0.152    C396.375,206.412,396.21,206.376,396.056,206.303z M377.87,132.551c-7.543,1.805-13.285,5.551-17.9,8.561    c-3.984,2.599-7.132,4.651-10.118,4.651c-2.444,0-4.503-1.394-6.299-4.265c-5.954-9.512-15.322-43.977-17.916-53.78    c-6.323,10.537-31.919,55.757-21.083,80.115c4.105,9.227,15.118,10.5,26.41,10.5c3.949,0,8.026-0.176,12.342-0.36    c4.347-0.187,8.844-0.38,13.23-0.38c17.749,0,36.383,3.125,40.829,25.914l8.58-4.965    C402.863,178.75,391.991,129.189,377.87,132.551z"/>
	</g>
	<g>
		<path style="fill:#FFFFFF;" d="M417.714,201.689c6.853-8.443-1.229-68.63,13.098-73.335c14.327-4.705,34.695,31.246,37.803,16.947    c3.108-14.299-4.35-55.202-4.35-55.202s49.607,31.224,30.102,70.179s-64.219,13.554-56.42,38.298L417.714,201.689z"/>
		<path style="fill:#251626;" d="M416.737,202.249c-0.231-0.404-0.191-0.909,0.101-1.269c2.543-3.131,2.868-15.214,3.211-28.005    c0.565-20.967,1.147-42.648,10.411-45.69c0.978-0.321,2.018-0.483,3.088-0.483c7.063,0,14.637,6.888,21.32,12.965    c4.213,3.831,8.569,7.792,10.837,7.793c0.002,0,0.004,0,0.009,0c0.352,0,1.264-0.02,1.802-2.497    c3.024-13.916-4.283-54.355-4.358-54.761c-0.079-0.44,0.108-0.885,0.477-1.134c0.374-0.252,0.855-0.259,1.231-0.021    c0.503,0.318,50.242,32.223,30.509,71.634c-10.892,21.753-29.223,23.913-42.607,25.49c-6.681,0.788-11.96,1.41-13.813,4.277    c-1.066,1.648-1.044,4.164,0.066,7.69c0.099,0.313,0.057,0.654-0.116,0.933c-0.174,0.279-0.459,0.468-0.785,0.518l-20.234,3.113    c-0.057,0.009-0.114,0.013-0.171,0.013C417.313,202.814,416.939,202.602,416.737,202.249z M437.063,189.326    c2.428-3.756,8.169-4.433,15.439-5.289c12.876-1.519,30.511-3.597,40.858-24.263c16.476-32.908-18.289-60.638-27.524-67.236    c1.602,9.367,6.571,40.605,3.877,53.001c-0.767,3.528-2.602,4.27-4.009,4.27c0,0,0,0-0.002,0    c-3.136-0.002-7.202-3.699-12.349-8.379c-6.063-5.516-13.613-12.38-19.806-12.38c-0.831,0-1.635,0.124-2.385,0.371    c-7.76,2.548-8.371,25.316-8.863,43.612c-0.316,11.726-0.596,22.09-2.543,27.201l16.755-2.578    C435.575,194.077,435.758,191.343,437.063,189.326z"/>
	</g>
	<path style="fill:#D7998E;" d="M323.21,353.263c0,0-20.135,74.289-23.6,93.642h-17.55c0,0-15.365-56.155-10.168-88.707   C277.09,325.645,323.21,353.263,323.21,353.263z"/>
	<path style="fill:#D7998E;" d="M379.634,353.263c0,0-20.135,74.289-23.6,93.642h-17.55c0,0-15.365-56.155-10.168-88.707   C333.514,325.645,379.634,353.263,379.634,353.263z"/>
	<polygon style="fill:#241726;" points="303.255,430.325 278.092,430.325 280.246,446.905 303.255,446.905  "/>
	<polygon style="fill:#241726;" points="359.159,430.325 333.997,430.325 336.15,446.905 359.159,446.905  "/>
	<path style="fill:#D7998E;" d="M146.373,353.263c0,0-20.135,74.289-23.6,93.642h-17.55c0,0-15.365-56.155-10.168-88.707   S146.373,353.263,146.373,353.263z"/>
	<path style="fill:#D7998E;" d="M202.797,353.263c0,0-20.135,74.289-23.6,93.642h-17.55c0,0-15.365-56.155-10.168-88.707   S202.797,353.263,202.797,353.263z"/>
	<polygon style="fill:#241726;" points="126.417,430.325 101.255,430.325 103.408,446.905 126.417,446.905  "/>
	<polygon style="fill:#241726;" points="182.774,430.325 157.611,430.325 159.765,446.905 182.774,446.905  "/>
	<path style="fill:#D7998E;" d="M364.526,209.891c0,0,70.273-43.487,85.637-17.211c15.364,26.276,30.005,133.464,19.294,156.857   S373.752,374.441,364.526,209.891z"/>
	<path style="fill:#251626;" d="M395.555,328.787c0.385,0,0.793-0.16,1.013-0.447c0.637-0.84,0.341-1.258-2.481-5.26   c-28.605-40.566-38.187-78.546-28.478-112.882c0.169-0.599-0.18-1.22-0.778-1.389c-0.596-0.173-1.22,0.179-1.389,0.776   c-9.903,35.022-0.211,73.643,28.805,114.792c0.916,1.298,1.789,2.537,2.169,3.159c-0.057,0.509,0.237,1.009,0.741,1.188   C395.281,328.766,395.417,328.787,395.555,328.787z"/>
	<path style="fill:#251626;" d="M452.043,346.007c0.492,0,0.943-0.324,1.083-0.82c5.367-19.027,4.165-21.306,2.475-22.01   c-2.112-0.859-5.624,3.001-10.444,11.537c-0.305,0.541-0.114,1.227,0.426,1.533c0.541,0.298,1.229,0.116,1.534-0.427   c2.905-5.146,6.224-9.703,7.562-10.437c0.246,0.904,0.398,4.591-3.721,19.194c-0.169,0.598,0.18,1.22,0.778,1.389   C451.839,345.994,451.942,346.007,452.043,346.007z"/>
	<path style="fill:#251626;" d="M409.979,346.007c0.209,0,0.418-0.057,0.607-0.177c0.523-0.335,0.677-1.031,0.341-1.555   c-6.048-9.463-7.668-16.754-4.811-21.667c4.701-8.082,20.127-7.382,20.283-7.375c0.701,0.025,1.147-0.447,1.18-1.066   c0.033-0.621-0.444-1.151-1.066-1.182c-0.681-0.036-16.957-0.764-22.342,8.492c-3.314,5.702-1.679,13.78,4.861,24.012   C409.245,345.823,409.61,346.007,409.979,346.007z"/>
	<path style="fill:#251626;" d="M458.139,346.935c0.527,0,1-0.375,1.103-0.913c1.552-8.074,4.642-16.92,6.925-17.133   c0.675-0.092,1.824,1.035,3.11,4.29c0.229,0.58,0.883,0.86,1.459,0.633c0.578-0.227,0.861-0.881,0.633-1.459   c-1.591-4.031-3.389-5.915-5.411-5.704c-4.993,0.466-8.094,14.622-8.927,18.95c-0.116,0.61,0.284,1.2,0.892,1.318   C457.996,346.929,458.069,346.935,458.139,346.935z"/>
	<path style="fill:#251626;" d="M407.454,256.707c0.459,0,1.029-0.123,1.642-0.544c4.518-3.103,7.78-21.907,8.138-24.041   c0.103-0.613-0.312-1.193-0.923-1.296c-0.615-0.095-1.193,0.311-1.297,0.924c-1.288,7.696-4.382,20.627-7.193,22.557   c-0.257,0.177-0.374,0.152-0.422,0.144c-2.103-0.429-3.314-12.065-2.648-25.412c0.031-0.621-0.446-1.148-1.066-1.18   c-0.69-0.054-1.149,0.448-1.18,1.068c-1.2,23.965,2.71,27.375,4.446,27.728C407.095,256.687,407.265,256.707,407.454,256.707z"/>
	<path style="fill:#251626;" d="M443.503,256.716c0.633,0,1.262-0.209,1.848-0.615c4.189-2.905,6.525-16.981,6.778-18.576   c0.097-0.613-0.323-1.19-0.936-1.287c-0.596-0.101-1.191,0.321-1.288,0.935c-0.897,5.66-3.275,15.302-5.835,17.078   c-0.341,0.235-0.558,0.226-0.697,0.201c-2.103-0.429-3.314-12.065-2.648-25.412c0.031-0.621-0.446-1.148-1.066-1.18   c-0.679-0.054-1.152,0.448-1.18,1.068c-1.2,23.965,2.71,27.375,4.446,27.728C443.116,256.696,443.309,256.716,443.503,256.716z"/>
	<path style="fill:#251626;" d="M334.58,378.118c44.565,0,57.877-43.911,58.022-44.409c0.171-0.597-0.171-1.22-0.767-1.393   c-0.602-0.176-1.222,0.17-1.396,0.766c-0.04,0.135-4.053,13.622-15.015,25.321c-14.632,15.611-34.071,20.819-57.773,15.472   c-0.613-0.136-1.211,0.246-1.345,0.851c-0.138,0.605,0.244,1.209,0.848,1.345C323.431,377.485,329.235,378.118,334.58,378.118z"/>
	<path style="fill:#251626;" d="M372.833,341.301c0.068,0,0.136-0.005,0.207-0.019c5.02-0.922,6.345-5.562,6.345-7.886   c0-0.62-0.501-1.121-1.121-1.123c-0.002,0-0.002,0-0.004,0c-0.618,0-1.121,0.5-1.125,1.119c-0.002,0.199-0.088,4.867-4.503,5.678   c-0.611,0.112-1.015,0.699-0.903,1.31C371.829,340.921,372.301,341.301,372.833,341.301z"/>
	<path style="fill:#251626;" d="M357.346,337.389c0.068,0,0.136-0.005,0.204-0.019c5.02-0.921,6.347-5.561,6.347-7.885   c0-0.62-0.501-1.121-1.121-1.123c-0.002,0-0.002,0-0.004,0c-0.618,0-1.121,0.5-1.125,1.119c-0.002,0.199-0.088,4.866-4.501,5.677   c-0.613,0.112-1.018,0.699-0.905,1.31C356.342,337.009,356.814,337.389,357.346,337.389z"/>
	<path style="fill:#251626;" d="M358.612,349.397c0.068,0,0.136-0.005,0.204-0.019c5.022-0.922,6.349-5.561,6.349-7.885   c0-0.62-0.501-1.121-1.121-1.123c-0.002,0-0.002,0-0.004,0c-0.618,0-1.121,0.5-1.125,1.119c-0.002,0.199-0.088,4.866-4.503,5.677   c-0.613,0.112-1.018,0.699-0.905,1.31C357.607,349.018,358.08,349.397,358.612,349.397z"/>
	<path style="fill:#251626;" d="M365.183,356.176c0.068,0,0.136-0.005,0.204-0.019c5.022-0.921,6.349-5.561,6.349-7.885   c0-0.62-0.501-1.121-1.121-1.123c-0.002,0-0.002,0-0.004,0c-0.618,0-1.121,0.5-1.125,1.119c-0.002,0.199-0.088,4.866-4.503,5.677   c-0.613,0.112-1.018,0.699-0.905,1.31C364.179,355.797,364.651,356.176,365.183,356.176z"/>
	<path style="fill:#251626;" d="M348.502,349.397c0.068,0,0.136-0.005,0.207-0.019c5.02-0.922,6.345-5.561,6.345-7.885   c0-0.62-0.501-1.121-1.121-1.123c-0.002,0-0.002,0-0.004,0c-0.618,0-1.121,0.5-1.125,1.119c-0.002,0.199-0.088,4.866-4.503,5.677   c-0.611,0.112-1.015,0.699-0.903,1.31C347.498,349.018,347.97,349.397,348.502,349.397z"/>
	<path style="fill:#251626;" d="M352.456,362.483c0.068,0,0.136-0.005,0.207-0.019c5.02-0.922,6.345-5.562,6.345-7.886   c0-0.62-0.501-1.121-1.121-1.123c0,0-0.002,0-0.004,0c-0.618,0-1.121,0.5-1.125,1.119c-0.002,0.199-0.088,4.867-4.503,5.678   c-0.611,0.112-1.015,0.699-0.903,1.31C351.452,362.104,351.924,362.483,352.456,362.483z"/>
	<path style="fill:#251626;" d="M341.151,362.483c0.068,0,0.136-0.005,0.207-0.019c5.02-0.922,6.345-5.562,6.345-7.886   c0-0.62-0.501-1.121-1.121-1.123c-0.002,0-0.002,0-0.004,0c-0.618,0-1.121,0.5-1.125,1.119c-0.002,0.199-0.088,4.867-4.503,5.678   c-0.611,0.112-1.015,0.699-0.903,1.31C340.147,362.104,340.619,362.483,341.151,362.483z"/>
	<path style="fill:#251626;" d="M333.017,357.926c0.068,0,0.136-0.005,0.207-0.019c5.02-0.922,6.345-5.561,6.345-7.885   c0-0.62-0.501-1.121-1.121-1.123c-0.626,0.051-1.125,0.499-1.13,1.119c-0.002,0.199-0.088,4.866-4.503,5.677   c-0.611,0.112-1.015,0.699-0.903,1.31C332.013,357.547,332.485,357.926,333.017,357.926z"/>
	<path style="fill:#251626;" d="M336.589,371.279c4.426,0,6.758-3.659,7.393-5.733c0.182-0.592-0.149-1.218-0.741-1.402   c-0.602-0.18-1.224,0.148-1.409,0.738c-0.062,0.189-1.483,4.62-5.971,4.103c-0.598-0.082-1.174,0.37-1.248,0.987   c-0.07,0.618,0.371,1.176,0.989,1.248C335.94,371.261,336.27,371.279,336.589,371.279z"/>
	<path style="fill:#251626;" d="M163.018,379.976c20.916,0,50.255-4.054,67.316-24.129c17.922-21.088,18.696-54.947,2.301-100.635   c-0.209-0.583-0.855-0.889-1.439-0.679c-0.585,0.21-0.888,0.855-0.679,1.439c16.103,44.875,15.465,77.988-1.897,98.418   c-27.638,32.523-89.047,21.627-89.662,21.511c-0.602-0.118-1.198,0.291-1.31,0.902c-0.114,0.611,0.29,1.198,0.901,1.311   C138.801,378.16,149.025,379.976,163.018,379.976z"/>
	<path style="fill:#251626;" d="M355.887,409.548c0.229,0,0.459-0.069,0.659-0.213c4.059-2.937,2.734-8.795,2.675-9.044   c-0.141-0.604-0.749-0.979-1.349-0.836c-0.604,0.141-0.98,0.745-0.842,1.35c0.011,0.046,1.035,4.653-1.802,6.705   c-0.503,0.365-0.618,1.068-0.253,1.571C355.194,409.387,355.539,409.548,355.887,409.548z"/>
	<path style="fill:#251626;" d="M359.394,391.655c0.229,0,0.459-0.069,0.659-0.213c4.061-2.936,2.736-8.795,2.677-9.044   c-0.141-0.605-0.754-0.977-1.349-0.836c-0.604,0.141-0.98,0.745-0.842,1.35c0.011,0.046,1.035,4.653-1.804,6.705   c-0.503,0.364-0.618,1.068-0.253,1.571C358.702,391.494,359.047,391.655,359.394,391.655z"/>
	<path style="fill:#251626;" d="M350.137,401.675c0.229,0,0.459-0.069,0.659-0.213c4.061-2.936,2.736-8.795,2.677-9.044   c-0.141-0.604-0.752-0.978-1.349-0.836c-0.604,0.141-0.98,0.745-0.842,1.35c0.011,0.046,1.035,4.653-1.804,6.705   c-0.503,0.364-0.618,1.068-0.253,1.571C349.445,401.513,349.79,401.675,350.137,401.675z"/>
	<path style="fill:#251626;" d="M346.577,414.457c0.229,0,0.459-0.069,0.659-0.213c4.061-2.936,2.736-8.795,2.677-9.044   c-0.141-0.604-0.749-0.978-1.349-0.836c-0.604,0.141-0.98,0.745-0.842,1.35c0.011,0.046,1.035,4.653-1.804,6.705   c-0.503,0.364-0.618,1.068-0.253,1.571C345.885,414.295,346.23,414.457,346.577,414.457z"/>
	<path style="fill:#251626;" d="M353.939,422.331c0.229,0,0.459-0.069,0.659-0.213c4.059-2.938,2.734-8.796,2.675-9.045   c-0.141-0.604-0.749-0.979-1.349-0.836c-0.604,0.141-0.98,0.745-0.842,1.35c0.011,0.046,1.035,4.653-1.802,6.706   c-0.503,0.365-0.618,1.068-0.253,1.571C353.247,422.17,353.592,422.331,353.939,422.331z"/>
	<path style="fill:#251626;" d="M299.981,409.762c0.229,0,0.459-0.069,0.659-0.213c4.064-2.937,2.734-8.796,2.675-9.044   c-0.141-0.604-0.752-0.971-1.349-0.836c-0.604,0.141-0.98,0.746-0.842,1.35c0.011,0.046,1.037,4.653-1.802,6.705   c-0.503,0.364-0.618,1.068-0.253,1.571C299.289,409.601,299.634,409.762,299.981,409.762z"/>
	<path style="fill:#251626;" d="M303.491,391.87c0.229,0,0.459-0.069,0.659-0.213c4.059-2.937,2.734-8.795,2.675-9.044   c-0.141-0.605-0.749-0.977-1.349-0.836c-0.604,0.141-0.98,0.745-0.842,1.35c0.011,0.046,1.035,4.653-1.802,6.705   c-0.503,0.365-0.618,1.068-0.253,1.571C302.799,391.708,303.144,391.87,303.491,391.87z"/>
	<path style="fill:#251626;" d="M294.234,401.889c0.229,0,0.459-0.069,0.659-0.213c4.059-2.937,2.734-8.796,2.675-9.045   c-0.141-0.604-0.754-0.977-1.349-0.836c-0.604,0.141-0.98,0.745-0.842,1.35c0.011,0.046,1.035,4.654-1.802,6.706   c-0.503,0.365-0.618,1.068-0.253,1.571C293.542,401.728,293.887,401.889,294.234,401.889z"/>
	<path style="fill:#251626;" d="M290.674,414.671c0.229,0,0.459-0.069,0.659-0.213c4.059-2.937,2.734-8.795,2.675-9.044   c-0.141-0.604-0.752-0.978-1.349-0.836c-0.604,0.141-0.98,0.745-0.842,1.35c0.011,0.046,1.035,4.653-1.802,6.705   c-0.503,0.365-0.618,1.068-0.253,1.571C289.982,414.509,290.327,414.671,290.674,414.671z"/>
	<path style="fill:#251626;" d="M298.034,422.544c0.229,0,0.459-0.069,0.659-0.213c4.061-2.936,2.736-8.795,2.677-9.044   c-0.141-0.604-0.754-0.979-1.349-0.836c-0.604,0.141-0.98,0.745-0.842,1.35c0.011,0.046,1.035,4.653-1.804,6.705   c-0.503,0.364-0.618,1.068-0.253,1.571C297.342,422.383,297.687,422.544,298.034,422.544z"/>
	<path style="fill:#251626;" d="M177.47,413.29c0.229,0,0.459-0.069,0.659-0.213c4.059-2.937,2.734-8.796,2.675-9.045   c-0.141-0.604-0.754-0.978-1.349-0.836c-0.604,0.141-0.98,0.745-0.842,1.35c0.011,0.046,1.035,4.654-1.802,6.706   c-0.503,0.365-0.618,1.068-0.253,1.571C176.778,413.128,177.123,413.29,177.47,413.29z"/>
	<path style="fill:#251626;" d="M180.978,395.397c0.229,0,0.459-0.069,0.659-0.213c4.061-2.938,2.736-8.796,2.677-9.045   c-0.141-0.605-0.752-0.976-1.349-0.836c-0.604,0.141-0.98,0.745-0.842,1.35c0.011,0.046,1.035,4.653-1.804,6.706   c-0.503,0.365-0.618,1.068-0.253,1.571C180.285,395.236,180.63,395.397,180.978,395.397z"/>
	<path style="fill:#251626;" d="M171.721,405.415c0.229,0,0.459-0.069,0.659-0.213c4.061-2.936,2.736-8.795,2.677-9.044   c-0.141-0.605-0.749-0.977-1.349-0.836c-0.604,0.141-0.98,0.745-0.842,1.35c0.011,0.046,1.035,4.653-1.804,6.705   c-0.503,0.364-0.618,1.068-0.253,1.571C171.029,405.254,171.374,405.415,171.721,405.415z"/>
	<path style="fill:#251626;" d="M168.161,418.198c0.229,0,0.459-0.069,0.659-0.213c4.064-2.938,2.734-8.797,2.675-9.045   c-0.141-0.605-0.752-0.977-1.349-0.836c-0.604,0.141-0.98,0.746-0.842,1.35c0.011,0.046,1.037,4.653-1.802,6.706   c-0.503,0.365-0.618,1.068-0.253,1.571C167.468,418.037,167.813,418.198,168.161,418.198z"/>
	<path style="fill:#251626;" d="M175.523,426.072c0.229,0,0.459-0.069,0.659-0.213c4.059-2.937,2.734-8.795,2.675-9.044   c-0.141-0.604-0.754-0.979-1.349-0.836c-0.604,0.141-0.98,0.745-0.842,1.35c0.011,0.046,1.035,4.653-1.802,6.705   c-0.503,0.365-0.618,1.068-0.253,1.571C174.831,425.91,175.176,426.072,175.523,426.072z"/>
	<path style="fill:#251626;" d="M121.846,410.691c0.229,0,0.459-0.069,0.659-0.213c4.061-2.938,2.736-8.796,2.677-9.045   c-0.141-0.605-0.749-0.976-1.349-0.836c-0.604,0.141-0.98,0.745-0.842,1.35c0.011,0.046,1.035,4.653-1.804,6.706   c-0.503,0.365-0.618,1.068-0.253,1.571C121.154,410.529,121.499,410.691,121.846,410.691z"/>
	<path style="fill:#251626;" d="M125.356,392.797c0.229,0,0.459-0.069,0.659-0.213c4.064-2.937,2.734-8.796,2.675-9.044   c-0.141-0.605-0.754-0.973-1.349-0.836c-0.604,0.141-0.98,0.746-0.842,1.35c0.011,0.046,1.037,4.653-1.802,6.705   c-0.503,0.364-0.618,1.068-0.253,1.571C124.664,392.636,125.009,392.797,125.356,392.797z"/>
	<path style="fill:#251626;" d="M116.099,402.817c0.229,0,0.459-0.069,0.659-0.213c4.064-2.937,2.734-8.796,2.675-9.044   c-0.141-0.605-0.752-0.975-1.349-0.836c-0.604,0.141-0.98,0.746-0.842,1.35c0.011,0.046,1.037,4.653-1.802,6.705   c-0.503,0.364-0.618,1.068-0.253,1.571C115.407,402.655,115.752,402.817,116.099,402.817z"/>
	<path style="fill:#251626;" d="M112.539,415.598c0.229,0,0.459-0.069,0.659-0.213c4.059-2.937,2.734-8.795,2.675-9.044   c-0.141-0.605-0.749-0.975-1.349-0.836c-0.604,0.141-0.98,0.745-0.842,1.35c0.011,0.046,1.035,4.653-1.802,6.705   c-0.503,0.365-0.618,1.068-0.253,1.571C111.847,415.437,112.192,415.598,112.539,415.598z"/>
	<path style="fill:#251626;" d="M119.901,423.473c0.229,0,0.459-0.069,0.659-0.213c4.059-2.937,2.734-8.796,2.675-9.045   c-0.141-0.605-0.749-0.975-1.349-0.836c-0.604,0.141-0.98,0.745-0.842,1.35c0.011,0.046,1.035,4.654-1.802,6.706   c-0.503,0.365-0.618,1.068-0.253,1.571C119.209,423.311,119.554,423.473,119.901,423.473z"/>
	<path style="fill:#251626;" d="M24.567,189.543c-0.354-0.511-0.226-1.212,0.284-1.566c0.178-0.124,17.806-12.574,12.841-28.37   c-1.103-3.509-2.661-5.136-4.688-4.811c-1.556,0.245-3.226,1.508-4.679,3.193c1.382,3.931,1.976,8.092,0.934,10.472   c-0.708,1.614-2.13,2.396-3.925,2.143c-1.996-0.282-3.149-1.745-3.167-4.015c-0.02-2.489,1.424-6.089,3.611-9.027   c-1.108-2.804-2.613-5.377-4.154-6.635c-1.292-1.053-1.916-0.61-2.149-0.445c-0.985,0.693-1.756,1.669-2.319,2.787   c2.872,3.531,4.611,8.436,3.905,10.945c-0.321,1.137-1.165,1.823-2.257,1.835c-0.015,0-0.031,0-0.046,0   c-2.009,0-3.628-1.459-4.453-4.01c-0.782-2.423-0.743-5.56,0.231-8.336c-2.894-2.95-5.776-3.193-8.553-0.725   c-3.644,3.233-4.703,9.506-2.833,16.779c2.046,7.958,7.057,14.532,11.912,15.63c0.607,0.137,0.987,0.74,0.848,1.346   c-0.134,0.605-0.732,0.988-1.345,0.849c-6.679-1.511-11.727-10.009-13.593-17.265c-2.086-8.107-0.771-15.218,3.516-19.023   c2.934-2.603,6.285-2.947,9.446-0.969c0.552,0.347,1.088,0.76,1.602,1.225c0.677-1.138,1.554-2.142,2.642-2.908   c0.844-0.593,2.595-1.312,4.87,0.542c1.56,1.275,3.123,3.701,4.351,6.473c1.582-1.612,3.395-2.792,5.255-3.084   c1.853-0.29,5.233,0.149,7.182,6.359c5.459,17.357-13.512,30.76-13.703,30.893c-0.196,0.136-0.42,0.201-0.642,0.201   C25.136,190.027,24.787,189.858,24.567,189.543z M24.417,166.572c0.011,1.632,0.835,1.748,1.233,1.804   c0.807,0.11,1.242-0.115,1.547-0.816c0.662-1.512,0.354-4.372-0.51-7.345C25.318,162.386,24.402,164.787,24.417,166.572z    M16.446,161.348c0.24,0.741,0.945,2.46,2.352,2.46c0.002,0,0.004,0,0.007,0c0.543-0.544-0.127-4.45-2.536-7.984   C15.86,157.727,15.925,159.73,16.446,161.348z"/>
	<path style="fill:#251626;" d="M85.999,176.398c0.622,0,1.125-0.503,1.125-1.125c0-3.166,4.446-6.334,6.16-7.286   c0.543-0.302,0.738-0.988,0.435-1.531c-0.301-0.544-0.987-0.74-1.53-0.436c-0.299,0.166-7.316,4.131-7.316,9.253   C84.874,175.894,85.377,176.398,85.999,176.398z"/>
	<path style="fill:#251626;" d="M73.174,207.487c0.215,0,0.433-0.062,0.626-0.19c0.516-0.345,0.655-1.044,0.31-1.56   c-1.756-2.623,0.178-7.735,1.07-9.483c0.281-0.553,0.064-1.231-0.49-1.513c-0.556-0.282-1.231-0.066-1.514,0.488   c-0.156,0.304-3.787,7.5-0.938,11.759C72.455,207.312,72.811,207.487,73.174,207.487z"/>
	<path style="fill:#251626;" d="M86.03,201.026c0.002,0,0.004,0,0.009,0c0.62-0.004,1.121-0.512,1.116-1.133   c-0.024-3.167,4.4-6.368,6.105-7.334c0.541-0.307,0.732-0.993,0.426-1.534c-0.31-0.543-1-0.731-1.534-0.424   c-0.299,0.168-7.285,4.184-7.248,9.307C84.909,200.527,85.413,201.026,86.03,201.026z"/>
	<path style="fill:#251626;" d="M82.63,161.646c0.622,0,1.125-0.503,1.125-1.125c0-3.166,4.446-6.334,6.16-7.286   c0.543-0.302,0.738-0.988,0.435-1.531c-0.301-0.546-0.987-0.738-1.53-0.436c-0.299,0.166-7.316,4.131-7.316,9.253   C81.505,161.142,82.008,161.646,82.63,161.646z"/>
	<path style="fill:#251626;" d="M102.629,161.646c0.622,0,1.125-0.503,1.125-1.125c0-3.166,4.446-6.334,6.16-7.286   c0.543-0.302,0.738-0.988,0.435-1.531c-0.301-0.546-0.989-0.738-1.53-0.436c-0.299,0.166-7.316,4.131-7.316,9.253   C101.504,161.142,102.007,161.646,102.629,161.646z"/>
	<path style="fill:#251626;" d="M95.891,148.354c0.622,0,1.125-0.503,1.125-1.125c0-3.166,4.446-6.334,6.16-7.286   c0.543-0.302,0.738-0.988,0.435-1.531c-0.299-0.544-0.989-0.74-1.53-0.436c-0.299,0.166-7.316,4.131-7.316,9.253   C94.766,147.851,95.269,148.354,95.891,148.354z"/>
	<path style="fill:#251626;" d="M95.891,182.961c0.622,0,1.125-0.503,1.125-1.125c0-3.155,4.448-6.329,6.16-7.286   c0.543-0.302,0.738-0.988,0.435-1.53c-0.303-0.543-0.982-0.74-1.53-0.436c-0.299,0.166-7.316,4.128-7.316,9.252   C94.766,182.458,95.269,182.961,95.891,182.961z"/>
	<path style="fill:#251626;" d="M113.508,168.128c0.622,0,1.125-0.503,1.125-1.125c0-3.155,4.448-6.329,6.162-7.288   c0.543-0.302,0.738-0.988,0.435-1.53c-0.303-0.541-0.985-0.742-1.53-0.436c-0.299,0.166-7.318,4.129-7.318,9.253   C112.383,167.624,112.886,168.128,113.508,168.128z"/>
	<path style="fill:#251626;" d="M113.508,141.918c0.622,0,1.125-0.503,1.125-1.125c0-3.155,4.448-6.329,6.162-7.288   c0.543-0.302,0.738-0.988,0.435-1.53c-0.303-0.543-0.985-0.741-1.53-0.436c-0.299,0.166-7.318,4.129-7.318,9.253   C112.383,141.415,112.886,141.918,113.508,141.918z"/>
	<path style="fill:#251626;" d="M80.514,194.923c0.101,0,0.204-0.013,0.305-0.043c0.598-0.169,0.947-0.791,0.778-1.389   c-0.859-3.035,2.554-7.302,3.943-8.69c0.44-0.44,0.44-1.152,0-1.591c-0.44-0.442-1.154-0.44-1.589-0.002   c-0.244,0.241-5.914,5.967-4.521,10.896C79.571,194.6,80.022,194.923,80.514,194.923z"/>
	<path style="fill:#251626;" d="M75.004,185.264c0.143,0,0.288-0.027,0.429-0.085c0.576-0.237,0.848-0.896,0.611-1.47   c-1.207-2.926,1.694-7.55,2.916-9.085c0.387-0.486,0.305-1.193-0.18-1.58c-0.488-0.385-1.198-0.309-1.582,0.18   c-0.213,0.267-5.189,6.609-3.233,11.345C74.143,185.003,74.562,185.264,75.004,185.264z"/>
	<path style="fill:#251626;" d="M197.399,346.761c0.174,0,0.349-0.04,0.514-0.124c0.303-0.156,7.452-3.881,7.624-9.002   c0.02-0.621-0.466-1.141-1.088-1.161c-0.013-0.001-0.026-0.001-0.037-0.001c-0.604,0-1.103,0.479-1.125,1.088   c-0.105,3.163-4.657,6.179-6.402,7.074c-0.552,0.283-0.771,0.961-0.488,1.514C196.597,346.538,196.992,346.761,197.399,346.761z"/>
	<path style="fill:#251626;" d="M216.917,318.664c0.396,0,0.778-0.209,0.985-0.579c0.165-0.299,4.035-7.369,1.332-11.72   c-0.332-0.53-1.026-0.685-1.549-0.363c-0.527,0.327-0.69,1.022-0.363,1.549c1.664,2.68-0.437,7.724-1.389,9.441   c-0.301,0.544-0.103,1.229,0.44,1.53C216.545,318.618,216.732,318.664,216.917,318.664z"/>
	<path style="fill:#251626;" d="M198.256,322.198c0.176,0,0.354-0.041,0.521-0.127c0.303-0.159,7.424-3.938,7.558-9.059   c0.015-0.621-0.475-1.138-1.097-1.155c-0.657,0.064-1.138,0.477-1.154,1.096c-0.084,3.165-4.611,6.215-6.349,7.123   c-0.552,0.288-0.765,0.968-0.477,1.519C197.46,321.978,197.852,322.198,198.256,322.198z"/>
	<path style="fill:#251626;" d="M200.269,361.617c0.174,0,0.349-0.04,0.514-0.124c0.303-0.156,7.452-3.88,7.624-9.002   c0.02-0.621-0.466-1.141-1.088-1.161c-0.721-0.053-1.141,0.466-1.163,1.087c-0.105,3.164-4.657,6.179-6.402,7.074   c-0.552,0.284-0.771,0.962-0.488,1.514C199.467,361.394,199.86,361.617,200.269,361.617z"/>
	<path style="fill:#251626;" d="M187.733,339.867c0.174,0,0.349-0.04,0.514-0.124c0.303-0.156,7.452-3.88,7.624-9.001   c0.02-0.621-0.466-1.141-1.088-1.161c-0.013-0.001-0.026-0.001-0.037-0.001c-0.604,0-1.103,0.479-1.125,1.088   c-0.105,3.162-4.657,6.178-6.402,7.073c-0.552,0.284-0.771,0.961-0.488,1.514C186.931,339.643,187.325,339.867,187.733,339.867z"/>
	<path style="fill:#251626;" d="M184.228,359.429c0.171,0,0.347-0.04,0.512-0.124c0.303-0.156,7.45-3.88,7.626-9.001   c0.02-0.621-0.466-1.142-1.088-1.163c-0.591-0.091-1.141,0.464-1.163,1.086c-0.108,3.154-4.659,6.177-6.404,7.076   c-0.552,0.285-0.769,0.963-0.486,1.515C183.426,359.206,183.819,359.429,184.228,359.429z"/>
	<path style="fill:#251626;" d="M205.959,330.037c0.275,0,0.549-0.1,0.767-0.302c0.251-0.233,6.112-5.765,4.883-10.738   c-0.149-0.602-0.745-0.976-1.363-0.823c-0.602,0.148-0.971,0.758-0.822,1.361c0.756,3.064-2.8,7.213-4.233,8.553   c-0.455,0.424-0.479,1.136-0.055,1.59C205.359,329.918,205.658,330.037,205.959,330.037z"/>
	<path style="fill:#251626;" d="M212.282,340.336c0.319,0,0.635-0.134,0.857-0.396c0.222-0.26,5.409-6.429,3.615-11.228   c-0.218-0.583-0.87-0.878-1.448-0.66c-0.582,0.218-0.879,0.866-0.662,1.447c1.11,2.966-1.947,7.49-3.22,8.982   c-0.402,0.474-0.345,1.183,0.127,1.587C211.763,340.248,212.022,340.336,212.282,340.336z"/>
	<path style="fill:#251626;" d="M122.292,150.188c0.622,0,1.125-0.503,1.125-1.125c0-3.166,4.446-6.334,6.16-7.286   c0.543-0.302,0.738-0.988,0.435-1.531c-0.299-0.545-0.987-0.737-1.53-0.436c-0.299,0.166-7.316,4.131-7.316,9.253   C121.167,149.685,121.67,150.188,122.292,150.188z"/>
	<path style="fill:#251626;" d="M137.076,146.053c0.622,0,1.125-0.503,1.125-1.125c0-3.155,4.448-6.329,6.162-7.288   c0.543-0.302,0.738-0.988,0.435-1.53c-0.301-0.542-0.982-0.742-1.53-0.436c-0.299,0.166-7.318,4.13-7.318,9.253   C135.951,145.55,136.454,146.053,137.076,146.053z"/>
	<path style="fill:#251626;" d="M144.111,130.941c0.622,0,1.125-0.503,1.125-1.125c0-3.155,4.448-6.329,6.162-7.288   c0.543-0.302,0.738-0.988,0.435-1.53c-0.303-0.542-0.982-0.74-1.53-0.436c-0.299,0.166-7.318,4.129-7.318,9.253   C142.986,130.438,143.489,130.941,144.111,130.941z"/>
	<path style="fill:#251626;" d="M363.721,77.782c0.266,0,0.532-0.093,0.745-0.284c0.466-0.412,0.51-1.122,0.097-1.588   c-0.224-0.256-5.609-6.256-10.608-5.155c-0.607,0.134-0.991,0.734-0.857,1.341s0.725,0.992,1.341,0.857   c3.09-0.689,7.136,2.982,8.441,4.449C363.102,77.654,363.412,77.782,363.721,77.782z"/>
	<path style="fill:#251626;" d="M338.246,69.602c0.369,0,0.727-0.18,0.945-0.51c0.338-0.521,0.193-1.218-0.327-1.557   c-0.286-0.188-7.059-4.56-11.595-2.172c-0.549,0.289-0.763,0.969-0.473,1.519c0.288,0.552,0.971,0.762,1.519,0.473   c2.798-1.472,7.674,0.994,9.318,2.065C337.821,69.543,338.035,69.602,338.246,69.602z"/>
	<path style="fill:#251626;" d="M353.733,65.63c0.367,0,0.725-0.179,0.943-0.51c0.338-0.52,0.193-1.218-0.327-1.557   c-0.286-0.187-7.068-4.55-11.595-2.174c-0.549,0.289-0.763,0.97-0.473,1.52c0.288,0.552,0.971,0.757,1.519,0.474   c2.796-1.469,7.674,0.991,9.318,2.064C353.306,65.571,353.52,65.63,353.733,65.63z"/>
	<path style="fill:#251626;" d="M350.129,79.135c0.367,0,0.725-0.179,0.941-0.509c0.341-0.521,0.196-1.218-0.325-1.558   c-0.286-0.188-7.066-4.553-11.593-2.174c-0.549,0.289-0.763,0.97-0.473,1.52c0.288,0.553,0.974,0.759,1.519,0.474   c2.806-1.475,7.674,0.992,9.316,2.064C349.702,79.076,349.915,79.135,350.129,79.135z"/>
	<path style="fill:#251626;" d="M327.791,77.782c0.367,0,0.725-0.179,0.941-0.509c0.341-0.521,0.196-1.218-0.325-1.558   c-0.284-0.188-7.068-4.553-11.593-2.174c-0.549,0.289-0.763,0.969-0.473,1.52c0.288,0.554,0.971,0.756,1.519,0.474   c2.802-1.475,7.674,0.992,9.316,2.064C327.365,77.723,327.578,77.782,327.791,77.782z"/>
	<path style="fill:#251626;" d="M315.4,68.857c0.367,0,0.725-0.179,0.941-0.509c0.341-0.521,0.196-1.218-0.325-1.558   c-0.286-0.188-7.066-4.557-11.593-2.172c-0.552,0.289-0.763,0.969-0.473,1.52c0.288,0.552,0.971,0.76,1.519,0.471   c2.802-1.468,7.674,0.992,9.316,2.065C314.974,68.798,315.187,68.857,315.4,68.857z"/>
	<path style="fill:#251626;" d="M313.115,85.19c0.367,0,0.725-0.179,0.941-0.509c0.341-0.521,0.196-1.218-0.325-1.558   c-0.286-0.187-7.066-4.55-11.593-2.174c-0.549,0.289-0.763,0.97-0.473,1.52c0.288,0.553,0.974,0.758,1.519,0.474   c2.804-1.478,7.674,0.991,9.316,2.064C312.688,85.13,312.902,85.19,313.115,85.19z"/>
	<path style="fill:#251626;" d="M300.781,77.782c0.367,0,0.725-0.179,0.941-0.509c0.341-0.521,0.196-1.218-0.325-1.558   c-0.284-0.188-7.068-4.553-11.593-2.174c-0.549,0.289-0.763,0.969-0.473,1.52c0.288,0.554,0.971,0.756,1.519,0.474   c2.804-1.475,7.674,0.992,9.316,2.064C300.355,77.723,300.568,77.782,300.781,77.782z"/>
	<path style="fill:#251626;" d="M293.16,67.679c0.411,0,0.807-0.225,1.004-0.615c0.281-0.554,0.062-1.231-0.492-1.512   c-0.303-0.157-7.507-3.771-11.76-0.911c-0.514,0.347-0.653,1.046-0.305,1.561c0.347,0.52,1.046,0.653,1.563,0.307   c2.62-1.761,7.732,0.162,9.483,1.048C292.815,67.64,292.988,67.679,293.16,67.679z"/>
	<path style="fill:#251626;" d="M286.643,85.19c0.367,0,0.725-0.179,0.941-0.509c0.341-0.521,0.196-1.218-0.325-1.558   c-0.286-0.187-7.063-4.55-11.593-2.174c-0.549,0.289-0.763,0.97-0.473,1.52c0.288,0.553,0.971,0.758,1.519,0.474   c2.802-1.478,7.674,0.991,9.316,2.064C286.217,85.13,286.43,85.19,286.643,85.19z"/>
	<path style="fill:#251626;" d="M280.235,75.426c0.442,0,0.861-0.264,1.042-0.699c0.235-0.575-0.04-1.231-0.613-1.467   c-0.319-0.131-7.793-3.147-11.797,0.048c-0.486,0.388-0.567,1.096-0.178,1.581c0.387,0.489,1.094,0.565,1.58,0.179   c2.47-1.97,7.725-0.47,9.54,0.273C279.947,75.399,280.092,75.426,280.235,75.426z"/>
	<path style="fill:#251626;" d="M315.306,60.702c0.275,0,0.549-0.1,0.767-0.301c2.31-2.146,7.661-1.053,9.529-0.448   c0.585,0.193,1.226-0.132,1.418-0.723s-0.132-1.225-0.723-1.418c-0.323-0.107-8.004-2.548-11.758,0.941   c-0.455,0.423-0.479,1.135-0.057,1.59C314.704,60.581,315.005,60.702,315.306,60.702z"/>
	<path style="fill:#251626;" d="M358.21,92.217c0.174,0,0.349-0.04,0.512-0.124c0.554-0.282,0.774-0.959,0.49-1.513   c-0.156-0.304-3.868-7.458-8.989-7.639c-0.618-0.056-1.141,0.464-1.165,1.085c-0.022,0.621,0.464,1.142,1.086,1.164   c3.154,0.112,6.169,4.669,7.063,6.416C357.407,91.993,357.801,92.217,358.21,92.217z"/>
	<path style="fill:#251626;" d="M375.547,92.217c0.174,0,0.349-0.04,0.512-0.124c0.554-0.282,0.774-0.959,0.49-1.513   c-0.156-0.304-3.868-7.458-8.989-7.639c-0.613-0.056-1.141,0.464-1.165,1.085c-0.022,0.621,0.464,1.142,1.086,1.164   c3.154,0.112,6.169,4.669,7.063,6.416C374.745,91.993,375.139,92.217,375.547,92.217z"/>
	<path style="fill:#251626;" d="M370.554,103.489c0.084,0,0.167-0.01,0.253-0.03c0.604-0.138,0.982-0.742,0.844-1.347   c-0.077-0.333-1.93-8.178-6.848-9.604c-0.602-0.176-1.222,0.17-1.396,0.767c-0.174,0.597,0.171,1.221,0.767,1.393   c3.031,0.879,4.842,6.035,5.283,7.948C369.578,103.136,370.042,103.489,370.554,103.489z"/>
	<path style="fill:#251626;" d="M129.03,135.076c0.622,0,1.125-0.503,1.125-1.125c0-3.155,4.448-6.329,6.162-7.288   c0.543-0.302,0.738-0.988,0.435-1.53c-0.303-0.541-0.985-0.741-1.53-0.436c-0.299,0.166-7.318,4.129-7.318,9.253   C127.905,134.573,128.408,135.076,129.03,135.076z"/>
	<path style="fill:#251626;" d="M345.557,154.749c9.866,0,28.038-9.36,30.513-10.659c0.549-0.289,0.763-0.969,0.473-1.52   c-0.288-0.552-0.974-0.759-1.519-0.474c-10.929,5.738-29.559,13.365-33.025,9.412c-5.14-5.86-13.608-30.088-13.692-30.333   c-0.204-0.587-0.855-0.896-1.433-0.692c-0.587,0.204-0.897,0.845-0.694,1.433c0.354,1.013,8.701,24.888,14.127,31.076   C341.399,154.237,343.252,154.749,345.557,154.749z"/>
	<path style="fill:#251626;" d="M471.123,160.262c0.991,0,1.848-0.168,2.538-0.538c7.022-3.777,1.708-34.206,0.571-40.269   c-0.114-0.613-0.714-1.012-1.312-0.898c-0.611,0.114-1.013,0.702-0.899,1.313c2.512,13.409,4.892,35.549,0.574,37.871   c-4.398,2.361-22.265-8.29-32.495-15.565c-0.505-0.359-1.209-0.242-1.569,0.266c-0.36,0.505-0.242,1.209,0.264,1.569   C441.344,145.823,461.939,160.262,471.123,160.262z"/>
	<path style="fill:#251626;" d="M418.523,201.424c0.622,0,1.125-0.503,1.125-1.125c0-5.966-5.211-8.456-5.433-8.559   c-0.565-0.258-1.224-0.019-1.492,0.544c-0.262,0.56-0.02,1.23,0.538,1.496c0.169,0.08,4.136,2.013,4.136,6.52   C417.398,200.921,417.902,201.424,418.523,201.424z"/>
	<path style="fill:#251626;" d="M433.626,197.655c0.622,0,1.125-0.503,1.125-1.125c0-5.966-5.209-8.456-5.431-8.559   c-0.563-0.26-1.226-0.02-1.492,0.544c-0.262,0.56-0.02,1.23,0.538,1.496c0.169,0.08,4.134,2.012,4.134,6.52   C432.501,197.152,433.004,197.655,433.626,197.655z"/>
	<path style="fill:#251626;" d="M428.846,216.411c0.622,0,1.125-0.503,1.125-1.125c0-5.965-5.209-8.456-5.431-8.559   c-0.563-0.26-1.226-0.019-1.49,0.543c-0.264,0.562-0.022,1.231,0.536,1.497c0.169,0.08,4.134,2.013,4.134,6.52   C427.721,215.908,428.224,216.411,428.846,216.411z"/>
	<path style="fill:#251626;" d="M416.132,210.181c0.622,0,1.125-0.503,1.125-1.125c0-5.966-5.209-8.456-5.431-8.559   c-0.56-0.259-1.226-0.02-1.492,0.544c-0.262,0.56-0.02,1.23,0.538,1.496c0.169,0.08,4.134,2.012,4.134,6.52   C415.007,209.678,415.51,210.181,416.132,210.181z"/>
	<path style="fill:#251626;" d="M431.237,205.193c0.622,0,1.125-0.503,1.125-1.125c0-5.966-5.211-8.456-5.433-8.559   c-0.563-0.259-1.226-0.018-1.492,0.544c-0.262,0.56-0.02,1.23,0.538,1.496c0.169,0.08,4.136,2.013,4.136,6.52   C430.112,204.69,430.615,205.193,431.237,205.193z"/>
	<circle style="fill:#D47B80;" cx="391.709" cy="262.964" r="8.226"/>
	<circle style="fill:#D47B80;" cx="455.894" cy="266.996" r="8.226"/>
</g>















</svg>
