<?xml version="1.0" encoding="UTF-8"?>
<!-- Generator: Adobe Illustrator 25.1.0, SVG Export Plug-In . SVG Version: 6.00 Build 0)  -->
<svg xmlns="http://www.w3.org/2000/svg" xmlns:xlink="http://www.w3.org/1999/xlink" version="1.1" id="Capa_1" x="0px" y="0px" viewBox="0 0 500 500" style="enable-background:new 0 0 500 500;" xml:space="preserve" width="512" height="512">
<g>
	<path style="fill:#251426;" d="M15.176,366.908c-0.344,0-0.666-0.171-0.858-0.459c-0.526-0.788-12.883-19.461-14.164-33.397   c-1.288-14.015,5.94-26.022,6.248-26.526c0.296-0.487,0.932-0.639,1.418-0.343c0.486,0.297,0.639,0.932,0.343,1.418   c-0.073,0.118-7.179,11.945-5.954,25.26c1.032,11.222,9.926,26.242,12.879,30.961c2.001-3.824,7.353-14.077,12.846-24.815   c6.631-12.96-10.238-36.219-10.409-36.452c-0.336-0.46-0.238-1.105,0.222-1.443c0.46-0.339,1.104-0.238,1.443,0.222   c0.729,0.995,17.787,24.531,10.583,38.611c-6.92,13.525-13.615,26.282-13.681,26.409c-0.169,0.322-0.497,0.532-0.859,0.551   C15.212,366.908,15.194,366.908,15.176,366.908z"/>
	<path style="fill:#251426;" d="M15.177,366.908c-0.39,0-0.763-0.222-0.937-0.598c-12.227-26.436-1.098-59.33-0.973-59.636   c0.215-0.528,0.814-0.782,1.345-0.565c0.527,0.215,0.781,0.817,0.565,1.345c-0.121,0.297-10.948,32.295,0.935,57.99   c0.24,0.517,0.014,1.13-0.503,1.369C15.469,366.878,15.321,366.908,15.177,366.908z"/>
	<path style="fill:#251426;" d="M15.175,363.409c-0.148,0-0.299-0.032-0.442-0.1c-0.514-0.245-0.733-0.86-0.489-1.375   c11.805-24.824,2.542-55.489,1.337-57.652c-0.278-0.267-0.395-0.681-0.265-1.071c0.18-0.541,0.766-0.828,1.305-0.654   c0.517,0.172,0.762,0.662,1.006,1.236c1.95,4.576,9.954,34.898-1.519,59.027C15.93,363.193,15.561,363.409,15.175,363.409z"/>
	<path style="fill:#FCEBDF;" d="M55.349,198.107c0,0-58.932,23.232-49.305,109.703h17.39c0,0,14.207-88.3,47.232-99.247   L55.349,198.107z"/>
	<path style="fill:#F5B2AF;" d="M250.374,386.717c0,0-1.895,33.264-38.189,33.479c-36.293,0.215-39.732-40.529-39.732-40.529   L250.374,386.717z"/>
	<path style="fill:#FCEBDF;" d="M423.784,158.425c0,0-69.18-190.633-348.404,4.331c-49.335,34.447-4.636,224.986-4.636,227.525   c0,2.54,364.521,3.186,371.085-1.223C461.281,375.993,449.169,154.372,423.784,158.425z"/>
	<path style="fill:#FCEBDF;" d="M432.166,328.963c0,0,16.899,100.144,14.142,99.212c-2.757-0.932-29.45,4.719-29.887,0.791   c-0.437-3.928-11.463-89.56-11.463-89.56L432.166,328.963z"/>
	<path style="fill:#251326;" d="M413.127,414.802c1.423-0.678,33.485-3.29,33.485-3.29l2.453,26.681c0,0-36.039,1.18-35.938-1.025   C413.228,434.962,413.127,414.802,413.127,414.802z"/>
	<path style="fill:#FCEBDF;" d="M379.293,328.963c0,0,16.899,100.144,14.142,99.212c-2.757-0.932-29.45,4.719-29.887,0.791   s-11.463-89.56-11.463-89.56L379.293,328.963z"/>
	<path style="fill:#251326;" d="M360.254,414.802c1.423-0.678,33.485-3.29,33.485-3.29l2.453,26.681c0,0-36.039,1.18-35.938-1.025   S360.254,414.802,360.254,414.802z"/>
	<path style="fill:#FCEBDF;" d="M142.657,328.963c0,0,16.899,100.144,14.142,99.212c-2.757-0.932-29.45,4.719-29.887,0.791   c-0.437-3.928-11.463-89.56-11.463-89.56L142.657,328.963z"/>
	<path style="fill:#251326;" d="M123.617,414.802c1.423-0.678,33.485-3.29,33.485-3.29l2.453,26.681c0,0-36.039,1.18-35.938-1.025   C123.719,434.962,123.617,414.802,123.617,414.802z"/>
	<path style="fill:#FCEBDF;" d="M89.784,328.963c0,0,16.899,100.144,14.142,99.212c-2.757-0.932-29.45,4.719-29.887,0.791   s-11.463-89.56-11.463-89.56L89.784,328.963z"/>
	<path style="fill:#251326;" d="M70.745,414.802c1.423-0.678,33.485-3.29,33.485-3.29l2.453,26.681c0,0-36.039,1.18-35.938-1.025   S70.745,414.802,70.745,414.802z"/>
	<path style="fill:#251326;" d="M217.751,87.795c0,0,71.558,88.711,8.44,126.548s-76.735-69.123-102.574-22.172   s-61.041-17.595-61.041-17.595S79.211,111.65,217.751,87.795z"/>
	<path style="fill:#251326;" d="M146.348,284.668c0,0,42.609-70.959,79.741-45.702s41.456,28.479,78.49,26.868   s46.647,80.276-17.985,91.593c-64.631,11.318-72.642-29.535-105.89-20.314S138.53,296.148,146.348,284.668z"/>
	<path style="fill:#251326;" d="M52.317,234.029c0,0,57.306-0.481,59.153,29.687s-39.107,35.669-22.756,54.923   c16.351,19.254-24.013,40.785-24.013,40.785S47.058,275.062,52.317,234.029z"/>
	<path style="fill:#251326;" d="M449.065,366.699c0,0-62.508-15.052-52.66-43.933c9.848-28.881,36.265-29.44,31.308-50.478   s19.314-23.368,19.314-23.368S458.489,317.365,449.065,366.699z"/>
	<g>
		<path style="fill:#251426;" d="M384.978,117.251c-0.382,0-0.75-0.213-0.928-0.579c-0.054-0.11-5.454-11.189-10.371-22.913    c-10.112-24.113-8.355-27.466-7.778-28.568c0.384-0.732,0.999-1.183,1.779-1.302c1.258-0.19,5.103-0.778,22.501,15.929    c8.442,8.108,16.082,16.461,16.158,16.544c0.385,0.42,0.355,1.073-0.066,1.457c-0.419,0.382-1.073,0.356-1.457-0.066    c-11.602-12.706-31.823-32.6-36.825-31.825c-0.075,0.012-0.159,0.024-0.262,0.221c-2.281,4.354,9.938,32.745,18.175,49.618    c0.25,0.512,0.037,1.129-0.474,1.379C385.284,117.218,385.13,117.251,384.978,117.251z"/>
		<path style="fill:#251426;" d="M344.888,142.389c-0.419,0-0.813-0.257-0.967-0.673c-4.293-11.578-18.009-49.668-14.308-53.715    c0.473-0.519,1.16-0.704,1.893-0.503c6.677,1.815,38.065,32.076,41.623,35.521c0.41,0.397,0.42,1.05,0.024,1.459    c-0.398,0.411-1.049,0.418-1.459,0.024c-9.504-9.203-35.204-33.304-40.633-34.985c-1.541,3.098,6.233,28.386,14.795,51.482    c0.198,0.534-0.075,1.128-0.608,1.326C345.129,142.369,345.007,142.389,344.888,142.389z"/>
		<path style="fill:#FCEBDF;" d="M325.701,147.932c0,0,66.458-49.352,75.253-52.773c0,0,27.041-25.379,11.501-3.842    c0,0,94.14,106.161,70.336,148.785c-43.147,77.258-153.004-78.86-153.004-78.86L325.701,147.932z"/>
		<path style="fill:#251326;" d="M355.572,122.448c0,0,43.902,24.009,46.583,45.193s-3.964,46.861,21.921,52.356l-20.282,35.711    c0,0-75.192-97.528-80.368-103.815c0,0-0.624,40.999-47.219,57.826c0,0-0.729-70.582,46.208-60.853L355.572,122.448z"/>
		<path style="fill:#251326;" d="M393.096,101.392c0,0,3.112,49.194,34.407,53.944c24.973,3.791,29.126,32.409,29.126,32.409    l24.549-8.224l-63.426-91.876c0,0,35.528,19.296,47.454-22.764c0,0-39.052-15.817-53.457,20.884L393.096,101.392z"/>
		<path style="fill:#F5B2AF;" d="M389.598,237.303c0,0,51.851-68.861,85.383-61.893c12.975,2.696,41.25,59.464,12.7,79.328    C459.132,274.603,406.938,285.462,389.598,237.303z"/>
		<path style="fill:#251426;" d="M466.326,250.151c-0.4,0-0.78-0.233-0.948-0.624c-8.898-20.633-15.528-25.024-19.555-25.024    c-0.039,0-0.078,0-0.117,0.001c-5.192,0.111-8.076,7.51-8.104,7.585c-0.202,0.534-0.8,0.8-1.332,0.596    c-0.533-0.203-0.799-0.8-0.596-1.332c0.137-0.359,3.423-8.772,9.989-8.911c0.053-0.002,0.108-0.002,0.162-0.002    c6.714,0,13.928,8.837,21.446,26.271c0.226,0.523-0.015,1.129-0.539,1.355C466.6,250.124,466.462,250.151,466.326,250.151z"/>
		<path style="fill:#251426;" d="M476.837,241.332c-0.294,0-0.585-0.125-0.79-0.367c-18.223-21.626-10.215-37.249-9.865-37.904    c0.268-0.502,0.893-0.692,1.393-0.423c0.502,0.266,0.693,0.891,0.427,1.393c-0.078,0.149-7.645,15.113,9.623,35.604    c0.368,0.436,0.311,1.087-0.124,1.454C477.307,241.253,477.071,241.332,476.837,241.332z"/>
		<path style="fill:#FFFFFF;" d="M381.789,182.11c-0.208,0-0.433-0.024-0.677-0.08c-5.033-1.159-14.408-16.947-15.46-18.744    c-0.287-0.492-0.123-1.124,0.369-1.412c0.491-0.287,1.123-0.123,1.412,0.369c3.802,6.49,11.003,17.054,14.142,17.776    c0.284,0.065,0.385-0.002,0.421-0.026c1.981-1.322-0.693-11.872-4.306-20.888c-0.212-0.529,0.045-1.129,0.574-1.342    c0.529-0.214,1.129,0.045,1.342,0.574c1.908,4.763,7.803,20.523,3.536,23.373C382.844,181.909,382.394,182.11,381.789,182.11z"/>
		<path style="fill:#FFFFFF;" d="M431.576,148.581c-0.209,0-0.434-0.024-0.678-0.081c-5.033-1.158-14.408-16.946-15.46-18.743    c-0.287-0.492-0.123-1.124,0.369-1.412c0.493-0.289,1.124-0.123,1.412,0.369c3.802,6.49,11.003,17.054,14.142,17.775    c0.283,0.067,0.384,0,0.422-0.025c1.981-1.323-0.693-11.873-4.307-20.889c-0.213-0.529,0.044-1.129,0.573-1.342    c0.528-0.211,1.129,0.046,1.341,0.574c1.909,4.763,7.805,20.523,3.538,23.374C432.629,148.38,432.179,148.581,431.576,148.581z"/>
		<path style="fill:#FFFFFF;" d="M290.655,194.512c-0.065,0-0.133-0.006-0.2-0.019c-0.559-0.11-0.923-0.653-0.813-1.212    c5.557-28.233,28.332-35.476,28.562-35.547c0.541-0.167,1.119,0.141,1.286,0.686c0.166,0.544-0.14,1.12-0.685,1.287    c-0.218,0.068-21.829,6.993-27.138,33.972C291.57,194.172,291.138,194.512,290.655,194.512z"/>
		<path style="fill:#FFFFFF;" d="M422.682,83.68c-0.269,0-0.538-0.105-0.74-0.313c-0.396-0.408-0.387-1.061,0.022-1.459    c0.84-0.816,20.713-19.896,31.95-11.195c0.45,0.35,0.533,0.997,0.184,1.448c-0.349,0.452-0.995,0.534-1.448,0.184    c-9.833-7.612-29.057,10.856-29.25,11.044C423.2,83.583,422.941,83.68,422.682,83.68z"/>
		<path style="fill:#251426;" d="M339.177,126.223c-0.309,0-0.615-0.138-0.818-0.402c-0.348-0.451-0.264-1.099,0.187-1.447    l19.117-14.739c0.451-0.35,1.097-0.263,1.447,0.187c0.348,0.451,0.264,1.099-0.187,1.447l-19.117,14.739    C339.619,126.154,339.397,126.223,339.177,126.223z"/>
		<path style="fill:#251426;" d="M334.409,111.484c-0.301,0-0.6-0.131-0.804-0.384c-0.358-0.443-0.288-1.093,0.155-1.451    l11.601-9.362c0.443-0.36,1.094-0.287,1.451,0.155c0.358,0.443,0.288,1.093-0.155,1.451l-11.601,9.362    C334.866,111.409,334.636,111.484,334.409,111.484z"/>
		<path style="fill:#251426;" d="M370.394,83.68c-0.361,0-0.71-0.188-0.9-0.525c-0.28-0.497-0.105-1.125,0.392-1.405l13.266-7.479    c0.497-0.28,1.126-0.105,1.405,0.392c0.28,0.497,0.105,1.125-0.392,1.405L370.9,83.547C370.74,83.638,370.566,83.68,370.394,83.68    z"/>
		<path style="fill:#251426;" d="M377.028,99.978c-0.318,0-0.633-0.147-0.834-0.423c-0.336-0.46-0.235-1.106,0.225-1.442    l17.869-13.039c0.464-0.337,1.107-0.234,1.442,0.225c0.336,0.46,0.235,1.106-0.225,1.442l-17.869,13.039    C377.451,99.913,377.239,99.978,377.028,99.978z"/>
	</g>
	<path style="fill:#F5B2AF;" d="M233.698,407.688c-0.24,0.958,4.551,18.923,0,20.36c-4.551,1.437-13.414-16.537-13.414-16.537   L233.698,407.688z"/>
	<path style="fill:#F5B2AF;" d="M213.985,414.869c-0.621,0.768-3.837,19.081-8.57,18.469c-4.733-0.612-5.207-20.647-5.207-20.647   L213.985,414.869z"/>
	<path style="fill:#F5B2AF;" d="M197.731,412.534c-0.932,0.328-13.286,14.222-16.993,11.215c-3.706-3.007,6.413-20.304,6.413-20.304   L197.731,412.534z"/>
	<path style="fill:#251326;" d="M238.739,81.839c-13.083,4.039,12.106,57.462,46.488,46.048s33.588-50.847,33.588-50.847   S275.432,70.511,238.739,81.839z"/>
	<path style="fill:#FFFFFF;" d="M169.532,111.284c-0.328,0-0.652-0.157-0.852-0.449c-0.321-0.469-0.201-1.111,0.268-1.434   c0.361-0.245,8.877-6.006,14.145-4.218c0.54,0.183,0.828,0.77,0.646,1.309c-0.182,0.54-0.769,0.828-1.309,0.646   c-3.568-1.217-10.101,2.451-12.316,3.966C169.936,111.225,169.732,111.284,169.532,111.284z"/>
	<path style="fill:#FFFFFF;" d="M162.917,125.674c-0.329,0-0.652-0.157-0.852-0.448c-0.321-0.47-0.201-1.112,0.268-1.435   c0.361-0.245,8.876-6.01,14.144-4.218c0.54,0.183,0.828,0.77,0.646,1.309c-0.183,0.54-0.767,0.829-1.309,0.646   c-3.573-1.215-10.103,2.45-12.314,3.966C163.321,125.616,163.118,125.674,162.917,125.674z"/>
	<path style="fill:#FFFFFF;" d="M270.398,95.653c-0.329,0-0.652-0.157-0.852-0.448c-0.321-0.47-0.201-1.112,0.268-1.435   c0.36-0.245,8.874-6.007,14.144-4.218c0.54,0.183,0.828,0.77,0.646,1.309c-0.183,0.54-0.765,0.83-1.309,0.646   c-3.573-1.214-10.103,2.45-12.314,3.966C270.802,95.594,270.599,95.653,270.398,95.653z"/>
	<path style="fill:#FFFFFF;" d="M284.041,102.172c-0.328,0-0.652-0.157-0.852-0.449c-0.321-0.469-0.201-1.111,0.268-1.434   c0.36-0.245,8.861-6.008,14.146-4.217c0.539,0.183,0.828,0.77,0.645,1.31c-0.182,0.539-0.766,0.828-1.31,0.645   c-3.56-1.219-10.1,2.451-12.315,3.965C284.445,102.113,284.241,102.172,284.041,102.172z"/>
	<path style="fill:#FFFFFF;" d="M297.965,91.676c-0.329,0-0.652-0.157-0.852-0.448c-0.321-0.47-0.201-1.112,0.268-1.435   c0.36-0.245,8.873-6.005,14.146-4.217c0.539,0.184,0.828,0.77,0.644,1.31c-0.181,0.539-0.764,0.832-1.309,0.644   c-3.574-1.211-10.102,2.451-12.314,3.966C298.369,91.617,298.165,91.676,297.965,91.676z"/>
	<path style="fill:#FFFFFF;" d="M252.212,93.458c-0.329,0-0.652-0.157-0.852-0.448c-0.321-0.47-0.201-1.112,0.268-1.435   c0.361-0.245,8.876-6.004,14.146-4.217c0.539,0.184,0.828,0.77,0.644,1.31c-0.181,0.539-0.764,0.833-1.309,0.644   c-3.576-1.215-10.101,2.452-12.314,3.966C252.616,93.399,252.412,93.458,252.212,93.458z"/>
	<path style="fill:#FFFFFF;" d="M143.701,121.048c-0.329,0-0.652-0.157-0.852-0.449c-0.321-0.469-0.201-1.111,0.268-1.434   c0.36-0.246,8.861-6.005,14.146-4.217c0.539,0.183,0.828,0.77,0.645,1.31c-0.183,0.539-0.763,0.831-1.31,0.645   c-3.565-1.213-10.1,2.451-12.315,3.965C144.105,120.99,143.902,121.048,143.701,121.048z"/>
	<path style="fill:#FFFFFF;" d="M137.086,139.596c-0.329,0-0.652-0.157-0.852-0.448c-0.321-0.47-0.201-1.112,0.268-1.435   c0.361-0.245,8.871-6.003,14.146-4.217c0.539,0.184,0.828,0.77,0.644,1.31c-0.181,0.54-0.764,0.834-1.309,0.644   c-3.576-1.213-10.102,2.452-12.314,3.966C137.49,139.538,137.286,139.596,137.086,139.596z"/>
	<path style="fill:#FFFFFF;" d="M120.738,132.706c-0.329,0-0.652-0.157-0.852-0.448c-0.321-0.47-0.201-1.112,0.268-1.435   c0.361-0.245,8.872-6.006,14.145-4.218c0.54,0.183,0.828,0.77,0.646,1.309c-0.182,0.541-0.77,0.831-1.309,0.646   c-3.576-1.214-10.102,2.45-12.315,3.966C121.142,132.647,120.938,132.706,120.738,132.706z"/>
	<path style="fill:#FFFFFF;" d="M102.22,144.583c-0.328,0-0.652-0.157-0.852-0.449c-0.321-0.469-0.201-1.111,0.268-1.434   c0.361-0.245,8.863-6.01,14.146-4.217c0.539,0.183,0.828,0.77,0.645,1.31c-0.182,0.539-0.764,0.831-1.31,0.645   c-3.565-1.215-10.1,2.451-12.315,3.965C102.624,144.525,102.42,144.583,102.22,144.583z"/>
	<path style="fill:#FFFFFF;" d="M118.623,146.778c-0.329,0-0.652-0.157-0.852-0.449c-0.321-0.469-0.201-1.111,0.268-1.434   c0.361-0.245,8.878-6.007,14.145-4.218c0.54,0.183,0.828,0.77,0.646,1.309c-0.183,0.54-0.766,0.828-1.309,0.646   c-3.574-1.215-10.101,2.451-12.316,3.966C119.027,146.72,118.824,146.778,118.623,146.778z"/>
	<path style="fill:#FFFFFF;" d="M159.224,141.792c-0.329,0-0.652-0.157-0.852-0.448c-0.321-0.47-0.201-1.112,0.268-1.435   c0.361-0.245,8.879-6.008,14.145-4.218c0.54,0.183,0.828,0.77,0.646,1.309c-0.182,0.541-0.77,0.831-1.309,0.646   c-3.57-1.216-10.102,2.451-12.315,3.966C159.628,141.733,159.425,141.792,159.224,141.792z"/>
	<path style="fill:#251426;" d="M343.347,387.283c-2.067,0-3.767-0.24-4.149-0.298c-0.563-0.086-0.95-0.611-0.864-1.175   c0.086-0.563,0.605-0.955,1.175-0.864c2.108,0.318,8.062,0.71,10.225-1.276c0.421-0.384,1.072-0.358,1.458,0.061   s0.358,1.072-0.061,1.458C349.285,386.885,346.01,387.283,343.347,387.283z"/>
	<path style="fill:#251426;" d="M334.991,376.153c-2.067,0-3.768-0.24-4.15-0.298c-0.563-0.086-0.95-0.611-0.864-1.175   c0.086-0.563,0.612-0.951,1.175-0.864c2.113,0.32,8.064,0.716,10.225-1.276c0.418-0.384,1.073-0.358,1.458,0.061   c0.385,0.419,0.359,1.072-0.061,1.458C340.928,375.755,337.655,376.153,334.991,376.153z"/>
	<path style="fill:#251426;" d="M319.931,385.474c-2.067,0-3.767-0.24-4.149-0.298c-0.563-0.086-0.95-0.611-0.864-1.175   s0.608-0.958,1.175-0.864c2.109,0.32,8.065,0.714,10.225-1.276c0.419-0.385,1.072-0.358,1.458,0.061   c0.386,0.419,0.358,1.072-0.061,1.458C325.87,385.076,322.596,385.474,319.931,385.474z"/>
	<path style="fill:#251426;" d="M306.677,376.153c-2.067,0-3.768-0.24-4.15-0.298c-0.563-0.086-0.95-0.611-0.864-1.175   c0.085-0.563,0.612-0.951,1.175-0.864c2.108,0.32,8.063,0.716,10.225-1.276c0.418-0.384,1.073-0.358,1.458,0.061   s0.358,1.072-0.061,1.458C312.613,375.755,309.34,376.153,306.677,376.153z"/>
	<path style="fill:#251426;" d="M295.596,385.474c-2.067,0-3.767-0.24-4.149-0.298c-0.563-0.086-0.95-0.611-0.864-1.175   c0.086-0.563,0.608-0.958,1.175-0.864c2.112,0.32,8.065,0.714,10.226-1.276c0.419-0.385,1.072-0.358,1.458,0.061   c0.386,0.419,0.358,1.072-0.061,1.458C301.535,385.076,298.261,385.474,295.596,385.474z"/>
</g>















</svg>
