<?xml version="1.0" encoding="UTF-8"?>
<!-- Generator: Adobe Illustrator 25.1.0, SVG Export Plug-In . SVG Version: 6.00 Build 0)  -->
<svg xmlns="http://www.w3.org/2000/svg" xmlns:xlink="http://www.w3.org/1999/xlink" version="1.1" id="Capa_1" x="0px" y="0px" viewBox="0 0 500 500" style="enable-background:new 0 0 500 500;" xml:space="preserve" width="512" height="512">
<g>
	<path style="fill:#251326;" d="M320.181,171.991c0,0-56.615-23.348-58.125-14.218c-1.509,9.13,26.956,59.89,38.163,57.491   C311.426,212.864,325.493,180.294,320.181,171.991z"/>
	<path style="fill:#251326;" d="M370.361,145.822c0,0-36.721-49.01-42.686-41.935c-5.965,7.075-7.451,65.253,3.408,68.92   C341.942,176.474,370.682,155.673,370.361,145.822z"/>
	<path style="fill:#251326;" d="M359.857,312.919c0,0,86.98,38.594,97.536,63.028c10.555,24.434-86.422-20.236-112.327-19.173   C319.162,357.837,347.979,307.405,359.857,312.919z"/>
	<path style="fill:#251326;" d="M130.19,357.323c0,0-63.555,70.823-63.181,97.436s70.562-53.845,94.631-63.481   S138.77,347.429,130.19,357.323z"/>
	<path style="fill:#251326;" d="M87.627,323.543c0,0-80.39,50.917-87.253,76.633c-6.863,25.716,82.526-32.675,108.307-35.417   S98.57,316.348,87.627,323.543z"/>
	<path style="fill:#EB8858;" d="M290.258,207.254c0,0,11.777-34.872,56.449-57.089c58.236-28.963,76.862,85.281,144.827,48.824   c12.414-6.659,0.941,61.897-58.25,72.617C350.743,286.556,275.452,238.478,290.258,207.254z"/>
	<path style="fill:#EB8858;" d="M349.032,251.735c0,0,32.415,137.451-35.911,132.778c-88.906-6.08-142.999-2.614-185.873,0.812   c-82.385,6.582-55.32-148.409,27.026-123.555c94.926,28.652,88.853,36.954,142.859-19.316   C355.484,181.659,349.761,236.461,349.032,251.735z"/>
	<path style="fill:#EB8858;" d="M131.157,265.07c0,0,64.511-144.418-94.963-215.548c0,0-38.865,99.327-20.732,144.024   s108.249,69.661,104.271,85.744L131.157,265.07z"/>
	<path style="fill:#F9D9C8;" d="M480.614,205.678c0,0-32.277,61.201-86.046,35.854c-64.145-30.238-69.001,24.809-77.848,72.651   c-8.847,47.841-41.518,68.437-41.518,68.437s79.921,24.242,88.47-30.852c8.549-55.094-3.768-70.752-0.336-70.157   c3.432,0.596,43.429,12.235,81.948-3.363C466.835,269.521,507.253,239.207,480.614,205.678z"/>
	<path style="fill:#251326;" d="M468.671,206.129c0,0,12.644,41.09,23.425,26.609c16.994-22.826,1.294-34.171,1.294-34.171   S475.958,204.159,468.671,206.129z"/>
	<path style="fill:#F9D9C8;" d="M85.109,363.207c0,0,10.469-44.358,47.833-35.983s61.475,54.946,68.898,55.111   S78.888,405.865,85.109,363.207z"/>
	<path style="fill:#251626;" d="M450.582,272.507c-6.723,0-10.968-1.715-12.631-5.11c-3.547-7.238,6.4-19.144,6.826-19.646   c0.365-0.435,1.013-0.487,1.447-0.122c0.433,0.365,0.487,1.013,0.121,1.446c-2.654,3.147-9.007,12.408-6.549,17.419   c1.417,2.892,5.63,4.203,12.524,3.921c0.572,0.024,1.046,0.415,1.069,0.983c0.024,0.568-0.416,1.047-0.983,1.071   C451.78,272.495,451.171,272.507,450.582,272.507z"/>
	<path style="fill:#251626;" d="M354.75,330.968c-0.208,0-0.416-0.062-0.598-0.193c-0.461-0.331-0.567-0.973-0.236-1.434   c1.564-2.176,1.926-9.957,1.934-12.771c0.002-0.568,0.461-1.025,1.027-1.025c0.001,0,0.002,0,0.003,0   c0.567,0.002,1.025,0.463,1.024,1.029c-0.003,1.103-0.092,10.864-2.319,13.966C355.385,330.819,355.07,330.968,354.75,330.968z"/>
	<path style="fill:#251626;" d="M339.662,338.228c-0.208,0-0.416-0.062-0.598-0.193c-0.461-0.331-0.567-0.973-0.236-1.434   c1.564-2.176,1.926-9.957,1.934-12.771c0.002-0.568,0.461-1.025,1.027-1.025c0.001,0,0.002,0,0.003,0   c0.567,0.002,1.025,0.463,1.024,1.029c-0.003,1.103-0.092,10.864-2.319,13.966C340.297,338.079,339.982,338.228,339.662,338.228z"/>
	<path style="fill:#251626;" d="M233.774,300.728c-1.84,0-3.527-0.178-4.612-0.684c-0.513-0.239-0.736-0.85-0.496-1.364   c0.24-0.515,0.851-0.738,1.365-0.497c2.426,1.129,10.141,0.046,12.909-0.467c0.555-0.108,1.093,0.265,1.197,0.82   c0.103,0.558-0.265,1.095-0.822,1.197C242.571,299.871,237.806,300.728,233.774,300.728z"/>
	<path style="fill:#251626;" d="M216.117,311.441c-1.84,0-3.527-0.178-4.612-0.684c-0.513-0.239-0.736-0.85-0.496-1.364   c0.241-0.515,0.852-0.736,1.365-0.497c2.428,1.129,10.14,0.044,12.909-0.467c0.56-0.11,1.093,0.265,1.197,0.82   c0.103,0.558-0.265,1.095-0.822,1.197C224.914,310.584,220.149,311.441,216.117,311.441z"/>
	<path style="fill:#251626;" d="M202.939,301.604c-1.84,0-3.527-0.178-4.612-0.684c-0.513-0.239-0.736-0.85-0.496-1.364   c0.241-0.515,0.851-0.738,1.365-0.497c2.425,1.129,10.14,0.044,12.909-0.467c0.553-0.11,1.093,0.265,1.197,0.82   c0.103,0.558-0.265,1.095-0.822,1.197C211.736,300.748,206.971,301.604,202.939,301.604z"/>
	<path style="fill:#251626;" d="M182.693,306.914c-1.84,0-3.528-0.178-4.613-0.684c-0.514-0.241-0.736-0.85-0.496-1.366   c0.24-0.513,0.851-0.736,1.365-0.495c2.429,1.137,10.141,0.046,12.909-0.467c0.553-0.106,1.093,0.263,1.197,0.82   c0.103,0.558-0.265,1.095-0.822,1.197C191.488,306.058,186.724,306.914,182.693,306.914z"/>
	<path style="fill:#251626;" d="M175.41,294.537c-1.84,0-3.527-0.178-4.612-0.684c-0.513-0.239-0.736-0.85-0.496-1.364   c0.241-0.515,0.851-0.738,1.365-0.497c2.428,1.127,10.14,0.044,12.909-0.467c0.558-0.108,1.094,0.263,1.197,0.82   c0.103,0.558-0.265,1.095-0.822,1.197C184.207,293.68,179.442,294.537,175.41,294.537z"/>
	<path style="fill:#251626;" d="M240.962,310.811c-1.84,0-3.528-0.178-4.613-0.684c-0.514-0.241-0.736-0.85-0.496-1.366   c0.242-0.511,0.853-0.736,1.365-0.495c2.431,1.133,10.141,0.044,12.909-0.467c0.556-0.108,1.093,0.263,1.197,0.82   c0.103,0.558-0.265,1.095-0.822,1.197C249.758,309.955,244.994,310.811,240.962,310.811z"/>
	<path style="fill:#251626;" d="M257.479,300.671c-0.703,0-1.333-0.064-1.851-0.215c-0.545-0.158-0.859-0.726-0.702-1.271   c0.157-0.543,0.726-0.864,1.271-0.702c2.577,0.742,10.028-1.52,12.682-2.457c0.536-0.187,1.121,0.092,1.311,0.628   c0.189,0.533-0.092,1.121-0.627,1.31C268.67,298.279,261.742,300.671,257.479,300.671z"/>
	<path style="fill:#251626;" d="M354.366,354.195c-0.208,0-0.416-0.062-0.598-0.193c-0.461-0.331-0.567-0.973-0.236-1.434   c1.564-2.176,1.926-9.957,1.934-12.771c0.002-0.568,0.461-1.025,1.027-1.025c0.001,0,0.002,0,0.003,0   c0.567,0.002,1.025,0.463,1.024,1.029c-0.003,1.103-0.092,10.864-2.319,13.966C355.001,354.047,354.686,354.195,354.366,354.195z"/>
	<path style="fill:#251626;" d="M326.246,375.271c-0.208,0-0.416-0.062-0.598-0.193c-0.461-0.331-0.567-0.973-0.236-1.434   c1.564-2.176,1.926-9.957,1.934-12.771c0.002-0.568,0.461-1.025,1.027-1.025h0.003c0.567,0.002,1.025,0.463,1.024,1.029   c-0.003,1.103-0.092,10.864-2.319,13.966C326.88,375.122,326.565,375.271,326.246,375.271z"/>
	<path style="fill:#251626;" d="M146.443,380.527c-1.128,0-2.129-0.112-2.875-0.389c-0.531-0.199-0.802-0.79-0.605-1.322   c0.199-0.531,0.789-0.8,1.321-0.604c2.516,0.933,10.114-0.766,12.829-1.502c0.553-0.142,1.112,0.174,1.259,0.722   c0.148,0.547-0.175,1.111-0.722,1.259C156.807,378.921,150.719,380.527,146.443,380.527z"/>
	<path style="fill:#251626;" d="M130.491,370.68c-1.792,0-3.428-0.174-4.49-0.664c-0.514-0.237-0.74-0.848-0.502-1.362   c0.238-0.517,0.843-0.744,1.363-0.503c2.43,1.117,10.14,0,12.906-0.525c0.564-0.104,1.095,0.261,1.201,0.816   c0.106,0.558-0.26,1.095-0.816,1.201C139.401,369.786,134.549,370.68,130.491,370.68z"/>
	<path style="fill:#251626;" d="M102.529,371.448c-1.794,0-3.432-0.174-4.495-0.664c-0.514-0.239-0.74-0.848-0.502-1.362   c0.238-0.515,0.848-0.74,1.363-0.503c2.436,1.123,10.142,0.004,12.906-0.523c0.565-0.102,1.096,0.261,1.201,0.816   c0.106,0.557-0.26,1.095-0.816,1.201C111.434,370.556,106.586,371.448,102.529,371.448z"/>
	<path style="fill:#251626;" d="M158.334,369.537c-1.792,0-3.428-0.174-4.49-0.664c-0.514-0.237-0.74-0.848-0.502-1.362   c0.237-0.515,0.844-0.744,1.363-0.503c2.43,1.119,10.14,0.002,12.906-0.525c0.566-0.098,1.095,0.261,1.201,0.816   c0.106,0.557-0.26,1.095-0.816,1.201C167.243,368.643,162.392,369.537,158.334,369.537z"/>
	<path style="fill:#251626;" d="M120.537,380.707c-2.063,0-3.994-0.195-5.18-0.776c-0.509-0.251-0.72-0.864-0.471-1.374   c0.251-0.509,0.863-0.714,1.374-0.471c2.41,1.177,10.142,0.241,12.916-0.221c0.563-0.094,1.089,0.285,1.181,0.844   c0.093,0.56-0.285,1.089-0.844,1.181C128.802,380.009,124.434,380.707,120.537,380.707z"/>
	<path style="fill:#251626;" d="M343.258,373.552c-0.344,0-0.68-0.172-0.874-0.485c-0.298-0.483-0.149-1.115,0.333-1.414   c2.28-1.414,5.597-8.459,6.683-11.056c0.22-0.523,0.819-0.768,1.344-0.549c0.523,0.219,0.77,0.82,0.551,1.344   c-0.426,1.017-4.252,9.997-7.497,12.007C343.629,373.502,343.442,373.552,343.258,373.552z"/>
	<path style="fill:#251626;" d="M339.278,361.455c-0.208,0-0.416-0.062-0.598-0.193c-0.461-0.331-0.567-0.973-0.236-1.434   c1.564-2.176,1.926-9.957,1.934-12.771c0.002-0.568,0.461-1.025,1.027-1.025c0.001,0,0.002,0,0.003,0   c0.567,0.002,1.025,0.463,1.024,1.029c-0.003,1.103-0.092,10.864-2.319,13.966C339.913,361.307,339.598,361.455,339.278,361.455z"/>
	<path style="fill:#251626;" d="M378.278,216.46c-5.296,0-16.314-16.128-18.483-19.381c-0.315-0.471-0.188-1.109,0.285-1.424   c0.471-0.317,1.108-0.189,1.424,0.285c5.133,7.701,13.685,18.466,16.741,18.466c0.019,0,0.037,0,0.056-0.002   c0.158-0.006,0.329-0.042,0.514-0.383c2.393-4.394-3.784-18.312-6.366-23.303c-0.26-0.503-0.063-1.123,0.441-1.384   c0.501-0.263,1.124-0.062,1.384,0.441c1.001,1.935,9.686,19.092,6.344,25.229c-0.624,1.145-1.555,1.422-2.226,1.452   C378.354,216.458,378.316,216.46,378.278,216.46z"/>
	<path style="fill:#251626;" d="M407.754,203.866c-5.296,0-16.315-16.126-18.484-19.379c-0.315-0.471-0.188-1.109,0.285-1.424   c0.47-0.315,1.11-0.187,1.424,0.285c5.166,7.751,13.87,18.639,16.797,18.464c0.158-0.006,0.329-0.042,0.514-0.383   c2.393-4.394-3.784-18.312-6.366-23.303c-0.26-0.503-0.063-1.123,0.441-1.384c0.5-0.265,1.123-0.062,1.384,0.441   c1.001,1.935,9.686,19.092,6.344,25.229c-0.624,1.145-1.555,1.422-2.226,1.452C407.829,203.866,407.791,203.866,407.754,203.866z"/>
	<circle style="fill:#EA717D;" cx="347.64" cy="220.379" r="10.467"/>
	<path style="fill:#FFFFFF;" d="M291.668,191.273c-0.252,0-0.504-0.092-0.702-0.279c-6.068-5.687-19.989-19.355-18.232-23.376   c0.287-0.654,1.003-1.408,2.825-1.277c8.896,0.636,27.381,5.688,28.163,5.902c0.546,0.15,0.868,0.716,0.718,1.261   c-0.149,0.549-0.716,0.86-1.261,0.72c-0.19-0.052-19.072-5.214-27.766-5.834c-0.64-0.054-0.816,0.076-0.818,0.078   c-0.691,1.693,7.439,11.335,17.775,21.029c0.414,0.387,0.435,1.037,0.047,1.45C292.215,191.165,291.942,191.273,291.668,191.273z"/>
	<path style="fill:#FFFFFF;" d="M334.591,151.234c-0.547,0-1.003-0.433-1.025-0.985c-1.551-37.965-0.129-38.73,0.555-39.097   c0.346-0.185,0.902-0.144,1.221,0.088c1.799,1.302,17.058,22.19,20.1,26.366c0.334,0.457,0.233,1.099-0.226,1.434   c-0.458,0.331-1.1,0.235-1.435-0.227c-5.983-8.212-15.368-20.881-18.616-24.782c-0.517,5.437-0.035,24.192,0.452,36.132   c0.023,0.568-0.417,1.045-0.984,1.069C334.62,151.234,334.605,151.234,334.591,151.234z"/>
	<path style="fill:#251626;" d="M367.64,172.843c-0.442,0-0.849-0.287-0.984-0.732c-1.039-3.455-4.043-3.722-4.17-3.732   c-0.563-0.042-0.989-0.531-0.951-1.095c0.037-0.564,0.49-1.011,1.084-0.955c0.185,0.012,4.544,0.335,6.004,5.192   c0.162,0.541-0.145,1.115-0.688,1.277C367.837,172.829,367.738,172.843,367.64,172.843z"/>
	<path style="fill:#251626;" d="M352.725,163.373c-0.442,0-0.849-0.287-0.984-0.73c-1.053-3.502-4.132-3.73-4.163-3.732   c-0.566-0.034-0.997-0.521-0.962-1.087c0.034-0.566,0.516-1.015,1.088-0.963c0.184,0.012,4.543,0.335,6.004,5.188   c0.163,0.543-0.144,1.117-0.688,1.279C352.922,163.359,352.822,163.373,352.725,163.373z"/>
	<path style="fill:#251626;" d="M343.896,166.203c-0.27,0-0.539-0.106-0.741-0.317c-2.502-2.607-5.296-1.478-5.413-1.426   c-0.526,0.215-1.123-0.024-1.345-0.543c-0.222-0.517,0.013-1.117,0.53-1.342c0.168-0.074,4.199-1.775,7.709,1.891   c0.393,0.409,0.379,1.059-0.03,1.452C344.407,166.109,344.151,166.203,343.896,166.203z"/>
	<path style="fill:#251626;" d="M357.837,172.566c-0.29,0-0.579-0.122-0.781-0.361c-2.341-2.745-5.2-1.783-5.322-1.741   c-0.532,0.191-1.119-0.09-1.31-0.62c-0.191-0.531,0.079-1.117,0.609-1.312c0.174-0.06,4.296-1.52,7.585,2.34   c0.368,0.431,0.317,1.079-0.115,1.448C358.31,172.486,358.072,172.566,357.837,172.566z"/>
	<path style="fill:#251626;" d="M361.806,159.868c-0.442,0-0.849-0.287-0.984-0.732c-1.053-3.502-4.133-3.73-4.164-3.732   c-0.566-0.034-0.997-0.521-0.962-1.087c0.035-0.566,0.521-0.999,1.088-0.963c0.185,0.012,4.544,0.335,6.005,5.192   c0.162,0.541-0.144,1.115-0.688,1.277C362.004,159.854,361.904,159.868,361.806,159.868z"/>
	<path style="fill:#251626;" d="M377.306,173.649c-0.442,0-0.849-0.287-0.984-0.732c-1.053-3.502-4.133-3.73-4.164-3.732   c-0.566-0.034-0.997-0.521-0.962-1.087c0.035-0.568,0.502-1.005,1.088-0.963c0.184,0.012,4.544,0.335,6.005,5.192   c0.162,0.541-0.145,1.115-0.688,1.277C377.503,173.635,377.403,173.649,377.306,173.649z"/>
	<path style="fill:#251626;" d="M369.321,155.694c-0.442,0-0.849-0.287-0.984-0.732c-1.039-3.453-4.043-3.72-4.17-3.73   c-0.563-0.042-0.989-0.531-0.951-1.095c0.038-0.564,0.479-1.009,1.084-0.955c0.185,0.012,4.544,0.335,6.004,5.19   c0.162,0.541-0.145,1.115-0.688,1.277C369.518,155.68,369.418,155.694,369.321,155.694z"/>
	<path style="fill:#251626;" d="M375.797,165.068c-0.442,0-0.849-0.287-0.984-0.73c-1.053-3.502-4.133-3.73-4.164-3.732   c-0.566-0.034-0.997-0.521-0.962-1.087c0.034-0.568,0.519-1.005,1.088-0.963c0.185,0.012,4.544,0.335,6.005,5.188   c0.163,0.543-0.144,1.117-0.688,1.279C375.994,165.054,375.894,165.068,375.797,165.068z"/>
	<path style="fill:#251326;" d="M299.349,349.126c0,0,73.242,60.751,76.771,87.132s-83.414-45.762-108.634-51.769   C242.264,378.482,289.412,340.595,299.349,349.126z"/>
	<path style="fill:#FFFFFF;" d="M451.697,382.063c-0.305,0-0.606-0.134-0.808-0.393c-3.486-4.436-13.676-6.397-13.779-6.417   c-0.557-0.104-0.924-0.642-0.819-1.199c0.104-0.556,0.645-0.919,1.198-0.818c0.449,0.084,11.051,2.122,15.014,7.168   c0.351,0.445,0.273,1.091-0.172,1.442C452.142,381.991,451.919,382.063,451.697,382.063z"/>
	<path style="fill:#FFFFFF;" d="M454.547,378.668c-0.367,0-0.723-0.197-0.908-0.543c-2.851-5.353-12.393-6.829-12.489-6.845   c-0.561-0.082-0.948-0.606-0.864-1.165c0.085-0.562,0.612-0.951,1.167-0.864c0.434,0.064,10.666,1.652,13.999,7.908   c0.267,0.501,0.077,1.123-0.423,1.39C454.875,378.63,454.709,378.668,454.547,378.668z"/>
	<path style="fill:#FFFFFF;" d="M369.125,438.964c-0.37,0-0.728-0.201-0.911-0.551c-2.616-5.01-12.268-8.802-12.366-8.84   c-0.529-0.205-0.791-0.8-0.587-1.328c0.207-0.529,0.803-0.794,1.329-0.586c0.426,0.164,10.474,4.115,13.445,9.803   c0.262,0.503,0.067,1.123-0.435,1.386C369.448,438.926,369.286,438.964,369.125,438.964z"/>
	<path style="fill:#FFFFFF;" d="M372.549,436.148c-0.437,0-0.841-0.281-0.98-0.718c-1.816-5.772-10.929-8.986-11.02-9.019   c-0.536-0.186-0.82-0.77-0.636-1.306c0.185-0.537,0.767-0.82,1.306-0.636c0.415,0.142,10.182,3.582,12.31,10.342   c0.17,0.541-0.13,1.119-0.672,1.288C372.754,436.132,372.65,436.148,372.549,436.148z"/>
	<path style="fill:#FFFFFF;" d="M71.485,458.423c-0.166,0-0.335-0.04-0.49-0.126c-0.498-0.271-0.682-0.894-0.41-1.392   c0.219-0.401,5.428-9.859,11.448-12.073c0.532-0.193,1.122,0.078,1.318,0.61c0.196,0.533-0.077,1.123-0.61,1.32   c-5.294,1.945-10.303,11.034-10.353,11.126C72.201,458.229,71.849,458.423,71.485,458.423z"/>
	<path style="fill:#FFFFFF;" d="M68.935,453.389c-0.153,0-0.31-0.034-0.456-0.108c-0.507-0.253-0.715-0.868-0.462-1.376   c0.196-0.393,4.86-9.636,11.837-10.88c0.572-0.086,1.093,0.273,1.191,0.83c0.099,0.56-0.273,1.091-0.83,1.191   c-5.956,1.061-10.316,9.686-10.359,9.773C69.676,453.181,69.312,453.389,68.935,453.389z"/>
	<path style="fill:#FFFFFF;" d="M10.125,403.14c-0.206,0-0.413-0.062-0.593-0.189c-0.463-0.329-0.572-0.971-0.244-1.432   c0.265-0.373,6.549-9.151,12.788-10.641c0.554-0.136,1.106,0.209,1.237,0.76c0.131,0.551-0.209,1.105-0.76,1.237   c-5.496,1.314-11.53,9.747-11.591,9.831C10.764,402.99,10.447,403.14,10.125,403.14z"/>
	<path style="fill:#FFFFFF;" d="M8.184,397.842c-0.193,0-0.387-0.054-0.561-0.166c-0.475-0.311-0.609-0.947-0.298-1.422   c0.24-0.367,5.962-9.001,13.038-9.41c0.549-0.05,1.052,0.399,1.084,0.965c0.033,0.568-0.399,1.053-0.966,1.085   c-6.053,0.351-11.384,8.403-11.437,8.483C8.848,397.678,8.519,397.842,8.184,397.842z"/>
	<path style="fill:#F9D9C8;" d="M12.101,139.751c0,0,11.804-101.635,22.204-99.858c10.4,1.777,73.315,53.491,85.341,75.289   l-25.26-11.504l-2.457,31.254l-27.863-21.946c0,0-8.654,34.165-13.58,33.323c-4.926-0.842-16.769-27.143-16.769-27.143   L12.101,139.751z"/>
	<path style="fill:#251626;" d="M134.102,187.313c-0.118,0-0.24-0.02-0.357-0.064c-0.532-0.197-0.803-0.788-0.606-1.32   c1.657-4.464-3.768-8.156-3.823-8.192c-0.471-0.317-0.599-0.953-0.283-1.426c0.316-0.469,0.955-0.594,1.424-0.283   c0.28,0.189,6.823,4.647,4.608,10.615C134.911,187.058,134.519,187.313,134.102,187.313z"/>
	<path style="fill:#251626;" d="M131.264,169.199c-0.119,0-0.24-0.02-0.357-0.064c-0.532-0.197-0.803-0.788-0.606-1.32   c1.649-4.442-3.771-8.154-3.825-8.192c-0.47-0.315-0.596-0.953-0.281-1.424c0.316-0.469,0.951-0.596,1.423-0.283   c0.28,0.189,6.824,4.647,4.609,10.613C132.074,168.945,131.682,169.199,131.264,169.199z"/>
	<path style="fill:#251626;" d="M124.752,174.752c-0.118,0-0.24-0.02-0.357-0.064c-0.532-0.197-0.803-0.788-0.606-1.32   c1.649-4.444-3.77-8.154-3.825-8.192c-0.47-0.315-0.596-0.953-0.281-1.424c0.315-0.469,0.95-0.596,1.423-0.283   c0.28,0.187,6.824,4.645,4.609,10.613C125.561,174.498,125.169,174.752,124.752,174.752z"/>
	<path style="fill:#251626;" d="M118.869,161.729c-0.118,0-0.24-0.02-0.357-0.064c-0.532-0.197-0.803-0.788-0.606-1.32   c1.657-4.464-3.768-8.154-3.823-8.19c-0.471-0.315-0.599-0.953-0.283-1.424c0.314-0.473,0.949-0.6,1.424-0.285   c0.28,0.187,6.823,4.645,4.608,10.613C119.678,161.474,119.286,161.729,118.869,161.729z"/>
	<path style="fill:#251626;" d="M125.496,153.037c-0.118,0-0.24-0.02-0.357-0.064c-0.532-0.197-0.803-0.788-0.606-1.32   c1.657-4.464-3.769-8.156-3.824-8.192c-0.471-0.315-0.599-0.953-0.283-1.426c0.315-0.469,0.953-0.594,1.424-0.283   c0.28,0.189,6.824,4.647,4.609,10.615C126.305,152.783,125.913,153.037,125.496,153.037z"/>
	<path style="fill:#251626;" d="M124.053,194.043c-0.118,0-0.24-0.02-0.357-0.064c-0.532-0.197-0.803-0.788-0.606-1.32   c1.657-4.464-3.768-8.154-3.823-8.19c-0.471-0.315-0.599-0.953-0.283-1.424c0.313-0.471,0.95-0.6,1.424-0.285   c0.28,0.187,6.823,4.645,4.608,10.613C124.862,193.788,124.47,194.043,124.053,194.043z"/>
	<path style="fill:#251626;" d="M131.066,212.315c-0.119,0-0.24-0.02-0.357-0.064c-0.532-0.197-0.803-0.788-0.606-1.32   c1.649-4.442-3.771-8.154-3.825-8.192c-0.47-0.315-0.596-0.953-0.281-1.424c0.315-0.469,0.95-0.596,1.423-0.283   c0.28,0.189,6.824,4.647,4.609,10.613C131.875,212.06,131.483,212.315,131.066,212.315z"/>
	<path style="fill:#251626;" d="M136.316,203.571c-0.164,0-0.332-0.04-0.487-0.124c-0.498-0.269-0.685-0.892-0.415-1.39   c2.268-4.197-2.594-8.543-2.643-8.585c-0.426-0.375-0.468-1.025-0.093-1.45c0.372-0.425,1.022-0.467,1.449-0.094   c0.252,0.223,6.132,5.485,3.094,11.104C137.035,203.376,136.681,203.571,136.316,203.571z"/>
</g>















</svg>
