<?xml version="1.0" encoding="UTF-8"?>
<!-- Generator: Adobe Illustrator 25.4.6, SVG Export Plug-In . SVG Version: 6.00 Build 0)  -->
<svg xmlns="http://www.w3.org/2000/svg" xmlns:xlink="http://www.w3.org/1999/xlink" version="1.1" id="Capa_1" x="0px" y="0px" viewBox="0 0 492.725 492.725" style="enable-background:new 0 0 492.725 492.725;" xml:space="preserve" width="512" height="512">
<g>
	<path style="fill:#241726;" d="M472.389,347.082c-0.812,0-1.582,0-3.723-8.527c-7.228-1.392-7.861-2.242-8.072-2.527   c-0.204-0.274-0.292-0.776-0.2-1.104c0.131-0.463,0.434-1.536,8.691-4.865c2.965-7.731,3.971-7.731,4.639-7.731   c0.348,0,0.824,0.249,1.032,0.527c0.531,0.714,1.012,2.564,1.741,5.527c0.229,0.927,0.503,2.048,0.662,2.54   c0.434,0.193,1.392,0.537,2.186,0.821c4.243,1.522,5.338,2.04,5.536,3.053c0.074,0.38-0.119,0.934-0.407,1.192   c-0.863,0.774-4.966,2.298-7.119,3.064c-3.496,7.955-4.243,7.994-4.904,8.029C472.434,347.082,472.409,347.082,472.389,347.082z    M463.39,335.083c1.444,0.416,4.077,1.014,6.374,1.442c0.424,0.079,0.762,0.399,0.865,0.818c0.587,2.38,1.355,5.091,1.908,6.637   c0.801-1.44,2.013-3.991,2.996-6.245c0.122-0.28,0.355-0.497,0.643-0.598c1.963-0.69,4.18-1.539,5.56-2.143   c-0.966-0.407-2.279-0.878-3.131-1.184c-2.429-0.87-2.886-1.059-3.198-1.479c-0.271-0.365-0.44-0.975-1.043-3.427   c-0.226-0.922-0.574-2.336-0.884-3.395c-0.72,1.374-1.727,3.71-2.51,5.779c-0.109,0.288-0.335,0.517-0.62,0.631   C467.8,332.938,464.906,334.235,463.39,335.083z"/>
	<path style="fill:#241726;" d="M19.645,316.313c-0.812,0-1.582,0-3.723-8.527c-7.228-1.392-7.861-2.242-8.072-2.527   c-0.204-0.274-0.292-0.776-0.2-1.104c0.131-0.463,0.434-1.536,8.691-4.865c2.965-7.731,3.971-7.731,4.639-7.731   c0.348,0,0.824,0.249,1.032,0.527c0.531,0.714,1.012,2.564,1.741,5.527c0.229,0.927,0.503,2.048,0.662,2.54   c0.434,0.193,1.392,0.537,2.186,0.821c4.243,1.522,5.338,2.04,5.536,3.053c0.074,0.38-0.119,0.934-0.407,1.192   c-0.863,0.774-4.966,2.298-7.119,3.064c-3.496,7.955-4.243,7.994-4.904,8.029C19.689,316.313,19.664,316.313,19.645,316.313z    M10.645,304.314c1.444,0.416,4.077,1.014,6.374,1.442c0.424,0.079,0.762,0.399,0.865,0.818c0.587,2.38,1.355,5.091,1.908,6.637   c0.801-1.44,2.013-3.991,2.996-6.245c0.122-0.28,0.355-0.497,0.643-0.598c1.963-0.69,4.18-1.539,5.56-2.143   c-0.966-0.407-2.279-0.878-3.131-1.184c-2.429-0.87-2.886-1.059-3.198-1.479c-0.272-0.365-0.44-0.975-1.043-3.427   c-0.226-0.922-0.574-2.336-0.884-3.395c-0.72,1.374-1.727,3.71-2.51,5.779c-0.109,0.288-0.335,0.517-0.62,0.631   C15.055,302.169,12.162,303.466,10.645,304.314z"/>
	<path style="fill:#241726;" d="M191.072,103.127c-0.812,0-1.582,0-3.723-8.527c-7.228-1.392-7.861-2.242-8.072-2.527   c-0.204-0.274-0.292-0.776-0.2-1.104c0.131-0.463,0.434-1.536,8.691-4.865c2.965-7.731,3.971-7.731,4.639-7.731   c0.348,0,0.824,0.249,1.032,0.527c0.531,0.714,1.012,2.564,1.741,5.527c0.229,0.927,0.503,2.048,0.662,2.54   c0.434,0.193,1.392,0.537,2.186,0.821c4.243,1.522,5.338,2.04,5.536,3.053c0.074,0.38-0.119,0.934-0.407,1.192   c-0.863,0.774-4.966,2.298-7.119,3.064c-3.496,7.955-4.243,7.994-4.904,8.029C191.116,103.127,191.092,103.127,191.072,103.127z    M182.073,91.128c1.444,0.416,4.077,1.014,6.374,1.442c0.424,0.079,0.762,0.399,0.865,0.818c0.587,2.38,1.355,5.091,1.908,6.637   c0.801-1.44,2.013-3.991,2.996-6.245c0.122-0.28,0.355-0.497,0.643-0.598c1.963-0.69,4.18-1.539,5.56-2.143   c-0.966-0.407-2.279-0.878-3.131-1.184c-2.429-0.87-2.886-1.059-3.198-1.479c-0.271-0.365-0.44-0.975-1.043-3.427   c-0.226-0.922-0.574-2.336-0.884-3.395c-0.72,1.374-1.727,3.71-2.51,5.779c-0.109,0.288-0.335,0.517-0.62,0.631   C186.483,88.983,183.589,90.281,182.073,91.128z"/>
	<path style="fill:#241726;" d="M36.065,244.673h-0.006l-4.251,0.041l4.464-3.112c0.498-0.348,0.62-1.032,0.273-1.53   c-0.35-0.5-1.039-0.616-1.53-0.273l-6.022,4.198l0.042-7.1c0.004-0.607-0.485-1.101-1.092-1.105h-0.006   c-0.603,0-1.095,0.487-1.099,1.092l-0.037,6.266l-3.768-3.982c-0.419-0.438-1.112-0.461-1.554-0.043   c-0.44,0.416-0.459,1.114-0.043,1.554l3.877,4.097l-7.04,0.067c-0.607,0.006-1.095,0.502-1.088,1.11   c0.006,0.603,0.496,1.088,1.099,1.088h0.011l6.422-0.061l-4.974,3.467c-0.498,0.348-0.62,1.032-0.273,1.53   c0.215,0.307,0.556,0.47,0.901,0.47c0.219,0,0.438-0.064,0.629-0.197l5.771-4.023l-0.042,7.152   c-0.004,0.607,0.485,1.101,1.092,1.105h0.006c0.603,0,1.095-0.487,1.099-1.092l0.04-6.755l4.016,4.244   c0.217,0.227,0.507,0.343,0.798,0.343c0.27,0,0.543-0.099,0.755-0.3c0.44-0.416,0.459-1.114,0.043-1.554l-4.206-4.444l5.708-0.054   c0.607-0.006,1.095-0.502,1.088-1.11C37.162,245.158,36.673,244.673,36.065,244.673z"/>
	<path style="fill:#241726;" d="M450.763,362.31h-0.006l-4.251,0.041l4.464-3.112c0.498-0.348,0.62-1.032,0.273-1.53   c-0.35-0.5-1.039-0.616-1.53-0.273l-6.022,4.198l0.042-7.1c0.004-0.607-0.485-1.101-1.092-1.105h-0.006   c-0.603,0-1.095,0.487-1.099,1.092l-0.037,6.266l-3.768-3.982c-0.419-0.438-1.112-0.461-1.554-0.043   c-0.44,0.416-0.459,1.114-0.043,1.554l3.877,4.097l-7.04,0.067c-0.607,0.006-1.095,0.502-1.088,1.11   c0.006,0.603,0.496,1.088,1.099,1.088h0.011l6.422-0.061l-4.974,3.467c-0.498,0.348-0.62,1.032-0.273,1.53   c0.215,0.307,0.556,0.47,0.901,0.47c0.219,0,0.438-0.064,0.629-0.197l5.771-4.023l-0.042,7.152   c-0.004,0.607,0.485,1.101,1.092,1.105h0.006c0.603,0,1.095-0.487,1.099-1.092l0.04-6.755l4.016,4.244   c0.217,0.228,0.507,0.343,0.798,0.343c0.27,0,0.543-0.099,0.755-0.3c0.44-0.416,0.459-1.114,0.043-1.554l-4.206-4.444l5.708-0.054   c0.607-0.006,1.095-0.502,1.088-1.11C451.859,362.795,451.37,362.31,450.763,362.31z"/>
	<path style="fill:#241726;" d="M237.922,92.842h-0.006l-4.251,0.041l4.464-3.112c0.498-0.348,0.62-1.032,0.273-1.53   c-0.35-0.5-1.039-0.616-1.53-0.273l-6.022,4.198l0.042-7.1c0.004-0.607-0.485-1.101-1.092-1.105h-0.006   c-0.603,0-1.095,0.487-1.099,1.092l-0.037,6.266l-3.768-3.982c-0.419-0.438-1.112-0.461-1.554-0.043   c-0.44,0.416-0.459,1.114-0.043,1.554l3.877,4.097l-7.04,0.067c-0.607,0.006-1.095,0.502-1.088,1.11   c0.006,0.603,0.496,1.088,1.099,1.088h0.011l6.422-0.061l-4.974,3.467c-0.498,0.348-0.62,1.032-0.273,1.53   c0.215,0.307,0.556,0.47,0.901,0.47c0.219,0,0.438-0.064,0.629-0.197l5.771-4.023l-0.042,7.152   c-0.004,0.607,0.485,1.101,1.092,1.105h0.006c0.603,0,1.095-0.487,1.099-1.092l0.04-6.755l4.016,4.244   c0.217,0.228,0.507,0.343,0.798,0.343c0.27,0,0.543-0.099,0.755-0.3c0.44-0.416,0.459-1.114,0.043-1.554l-4.206-4.444l5.708-0.054   c0.607-0.006,1.095-0.502,1.088-1.11C239.019,93.327,238.53,92.842,237.922,92.842z"/>
	<path style="fill:#241726;" d="M40.17,347.42c-1.944,1.463-4.369,3.776-6.221,5.629c-4.079-1.691-7.784-3.129-9.234-3.675   c-0.452-0.171-0.915-0.115-1.27,0.152c-0.83,0.624-1.436,1.078,3.7,10.805c-2.643,3.017-5.624,6.668-5.95,8.129   c-0.109,0.485,0.022,0.972,0.359,1.336c0.669,0.722,2.072,1.32,10.864,0.093c2.037,3.558,5.251,9.029,5.999,9.778   c0.386,0.389,1.185,0.442,1.623,0.113c0.429-0.322,1.218-0.914,2.792-11.612c5.704-1.051,10.458-2.063,10.508-2.074   c0.341-0.074,0.629-0.307,0.775-0.627c0.723-1.624-0.707-3.529-9.936-7.915c0.374-3.517,0.855-8.837,0.548-10.382   c-0.107-0.54-0.446-0.956-0.931-1.142C42.96,345.709,41.91,346.112,40.17,347.42z M39.066,376.778   c-0.887-1.398-2.36-3.836-4.312-7.232c1.764-0.271,3.704-0.594,5.795-0.965C39.904,372.861,39.388,375.418,39.066,376.778z    M25.566,352.054c1.662,0.644,4.082,1.602,6.722,2.688c-1.199,1.24-2.41,2.538-3.582,3.835   C26.911,355.141,26.014,353.174,25.566,352.054z M23.63,368.346c0.577-0.965,2.017-2.924,4.622-5.938   c0.965,1.787,1.987,3.633,2.996,5.423C26.504,368.459,24.479,368.444,23.63,368.346z M51.501,364.233   c-1.697,0.351-4.796,0.979-8.341,1.639c0.273-1.979,0.531-4.013,0.762-6.006C48.696,362.173,50.679,363.517,51.501,364.233z    M41.822,358.876c-0.275,2.449-0.596,4.983-0.939,7.413c-2.693,0.484-5.14,0.89-7.297,1.211c-1.273-2.246-2.583-4.611-3.785-6.854   c1.515-1.695,3.111-3.403,4.67-4.997C37.192,356.793,39.659,357.874,41.822,358.876z M42.07,356.571   c-1.794-0.821-3.778-1.692-5.928-2.602c2.15-2.121,3.984-3.764,5.348-4.792c0.497-0.373,0.868-0.615,1.136-0.771   C42.648,349.69,42.51,352.302,42.07,356.571z"/>
	<path style="fill:#241726;" d="M475.374,102.652c-1.944,1.463-4.369,3.776-6.221,5.629c-4.079-1.691-7.784-3.129-9.234-3.675   c-0.452-0.171-0.915-0.115-1.27,0.152c-0.83,0.624-1.436,1.078,3.7,10.805c-2.643,3.017-5.624,6.668-5.95,8.129   c-0.109,0.485,0.022,0.972,0.359,1.336c0.669,0.722,2.072,1.32,10.864,0.093c2.037,3.558,5.251,9.029,5.999,9.778   c0.386,0.389,1.185,0.442,1.623,0.113c0.429-0.322,1.218-0.914,2.792-11.612c5.704-1.051,10.458-2.063,10.508-2.074   c0.341-0.074,0.629-0.307,0.775-0.627c0.723-1.624-0.707-3.529-9.936-7.915c0.374-3.517,0.855-8.837,0.548-10.382   c-0.107-0.54-0.446-0.956-0.931-1.142C478.164,100.941,477.113,101.344,475.374,102.652z M474.27,132.009   c-0.887-1.398-2.36-3.836-4.312-7.232c1.764-0.271,3.704-0.594,5.795-0.965C475.107,128.092,474.591,130.65,474.27,132.009z    M460.769,107.286c1.662,0.644,4.082,1.602,6.722,2.688c-1.199,1.24-2.41,2.538-3.582,3.835   C462.115,110.373,461.218,108.405,460.769,107.286z M458.834,123.577c0.577-0.965,2.017-2.924,4.622-5.938   c0.965,1.787,1.987,3.633,2.996,5.423C461.708,123.69,459.683,123.676,458.834,123.577z M486.704,119.464   c-1.697,0.351-4.796,0.979-8.341,1.639c0.273-1.979,0.531-4.013,0.762-6.006C483.9,117.404,485.882,118.748,486.704,119.464z    M477.025,114.107c-0.275,2.45-0.596,4.983-0.939,7.413c-2.693,0.484-5.14,0.89-7.297,1.211c-1.273-2.246-2.583-4.611-3.785-6.854   c1.515-1.695,3.111-3.403,4.67-4.997C472.396,112.024,474.862,113.106,477.025,114.107z M477.274,111.802   c-1.794-0.821-3.778-1.692-5.928-2.602c2.15-2.121,3.984-3.764,5.348-4.792c0.497-0.373,0.868-0.615,1.136-0.771   C477.852,104.922,477.713,107.534,477.274,111.802z"/>
	<g>
		<path style="fill:#FFFFFF;" d="M30.386,100.371c0,0-2.169-16.462,13.677-11.136s10.683,20.399,4.642,15.241    s5.294-22.651,17.419-14.862s9.413,22.904,0.813,24.019s5.207-17.599,16.041-6.041s-12.821,32.629-22.495,24.882    c-9.674-7.747-2.103-20.251,0.217-12.631c2.321,7.621-3.938,15.094-21.096,14.798c-17.158-0.295-9.348-26.693-3.351-19.009    s-3.959,16.357-16.063,7.304S21.894,95.171,30.386,100.371z"/>
		<path style="fill:#241726;" d="M40.583,135.75l-0.998-0.009c-5.624-0.097-9.583-2.978-10.977-7.942    c-2.96-0.375-6.08-1.741-9.076-3.981c-4.743-3.547-6.349-8.931-4.406-14.772c1.99-5.983,7.291-10.67,12.067-10.67    c0.688,0,1.354,0.092,1.993,0.275c-0.02-2.291,0.333-6.191,2.656-8.839c2.597-2.962,6.87-3.532,12.571-1.617    c2.199,0.739,4.125,1.699,5.741,2.86c2.727-2.876,6.205-4.506,9.682-4.506c2.353,0,4.669,0.721,6.883,2.143    c5.24,3.366,8.421,8.543,8.682,14.025c3.076,0.087,5.893,1.474,8.379,4.127c3.373,3.597,3.995,8.432,1.75,13.613    c-3.413,7.878-12.732,14.789-19.943,14.789c-2.259,0.001-4.207-0.643-5.791-1.911c-0.757-0.605-1.441-1.261-2.043-1.956    C53.965,134.241,48.065,135.75,40.583,135.75z M30.937,127.883c0.98,2.774,3.304,5.567,8.686,5.66l0.959,0.009    c8.626,0,13.338-2.024,15.866-3.946c-2.416-3.909-2.23-8.182-0.885-10.828c0.776-1.528,1.904-2.405,3.093-2.405    c0.797,0,2.26,0.409,3.095,3.152c1.162,3.816,0.3,7.547-2.361,10.386c0.522,0.605,1.117,1.176,1.779,1.707    c1.185,0.948,2.67,1.429,4.417,1.428c6.329,0,14.874-6.418,17.927-13.465c1.326-3.062,2.17-7.495-1.337-11.237    c-2.066-2.204-4.362-3.358-6.829-3.432c-0.518,5.263-3.812,9.233-8.269,9.812c-2.897,0.369-3.875-1.141-3.931-2.549    c-0.126-3.1,4.344-8.311,10.061-9.301c-0.209-4.79-3.025-9.347-7.677-12.335c-4.576-2.939-9.818-2.067-13.677,1.916    c3.744,3.563,4.441,7.946,3.395,10.871c-0.728,2.04-2.289,3.307-4.073,3.307h-0.001c-1.07,0-2.171-0.457-3.184-1.322    c-3.334-2.847-2.257-8.406,0.754-12.564c-1.412-0.992-3.1-1.821-5.033-2.47c-4.785-1.609-8.215-1.297-10.214,0.977    c-2.743,3.121-2.03,8.917-2.023,8.975c0.055,0.42-0.136,0.834-0.491,1.065c-0.357,0.231-0.811,0.237-1.172,0.015    c-0.796-0.487-1.678-0.735-2.62-0.735c-3.824,0-8.301,4.112-9.982,9.167c-0.768,2.31-1.953,8.137,3.637,12.318    c2.444,1.828,4.945,3.003,7.316,3.448c-0.487-4.265,0.817-8.419,2.537-10.553c0.959-1.19,2.078-1.819,3.236-1.819    c0.803,0,2.007,0.317,3.184,1.824c2.131,2.73,2.615,5.808,1.327,8.446C37.178,126.007,34.337,127.685,30.937,127.883z     M58.657,118.571c-0.202,0-0.689,0.326-1.133,1.202c-0.984,1.937-1.146,5.223,0.571,8.294c1.891-2.218,2.445-4.98,1.554-7.903    C59.295,119.003,58.852,118.571,58.657,118.571z M33.936,115.331c-0.463,0-1.004,0.354-1.524,0.999    c-1.465,1.819-2.539,5.706-2.005,9.375c2.785-0.045,5.1-1.288,6.065-3.266c0.905-1.853,0.509-4.088-1.085-6.13    C35.039,115.863,34.504,115.331,33.936,115.331z M73.108,105.133c-4.607,1.023-7.834,5.254-7.765,6.955    c0.009,0.209,0.02,0.496,0.897,0.496c0.17,0,0.355-0.013,0.555-0.039C70.093,112.117,72.567,109.145,73.108,105.133z     M50.443,94.147c-2.598,3.62-3.095,7.726-1.024,9.493c1.562,1.336,3.081,0.849,3.761-1.053    C53.97,100.374,53.383,97.008,50.443,94.147z"/>
	</g>
	<g>
		<path style="fill:#FFFFFF;" d="M434.143,200.01c0,0-2.169-16.462,13.677-11.136c15.846,5.326,10.683,20.399,4.642,15.241    c-6.041-5.158,5.294-22.651,17.419-14.862s9.413,22.904,0.813,24.019c-8.601,1.115,5.207-17.599,16.041-6.041    s-12.821,32.629-22.495,24.882c-9.674-7.747-2.103-20.251,0.217-12.631c2.321,7.621-3.938,15.094-21.096,14.798    s-9.348-26.693-3.351-19.009s-3.959,16.357-16.063,7.304C411.843,213.524,425.651,194.81,434.143,200.01z"/>
		<path style="fill:#241726;" d="M444.337,235.39l-0.995-0.009c-5.624-0.097-9.583-2.979-10.977-7.943    c-2.96-0.375-6.08-1.741-9.076-3.981c-4.743-3.547-6.35-8.931-4.407-14.772c1.99-5.983,7.291-10.67,12.067-10.67    c0.688,0,1.354,0.092,1.993,0.275c-0.02-2.291,0.333-6.19,2.656-8.839c2.599-2.962,6.868-3.534,12.572-1.617    c2.199,0.739,4.125,1.7,5.741,2.86c2.727-2.875,6.205-4.505,9.681-4.505c2.353,0,4.669,0.721,6.882,2.142    c5.241,3.366,8.422,8.543,8.683,14.025c3.076,0.087,5.894,1.474,8.38,4.127c3.373,3.598,3.995,8.433,1.75,13.613    c-3.413,7.878-12.733,14.789-19.944,14.789c-2.259,0.001-4.207-0.643-5.791-1.911c-0.757-0.605-1.44-1.261-2.043-1.956    C457.721,233.881,451.818,235.39,444.337,235.39z M434.694,227.522c0.979,2.774,3.305,5.569,8.686,5.661l0.956,0.009    c8.627,0,13.339-2.024,15.869-3.946c-2.416-3.908-2.231-8.181-0.886-10.827c0.777-1.529,1.905-2.407,3.094-2.407    c0.798,0,2.26,0.41,3.096,3.152c1.162,3.817,0.299,7.548-2.361,10.387c0.52,0.604,1.116,1.176,1.778,1.706    c1.185,0.948,2.67,1.429,4.417,1.428c6.329,0,14.875-6.417,17.928-13.465c1.326-3.061,2.17-7.495-1.337-11.237    c-2.067-2.204-4.363-3.358-6.831-3.432c-0.517,5.263-3.811,9.233-8.269,9.812c-0.302,0.039-0.582,0.057-0.838,0.057    c-0.001,0-0.001,0-0.001,0c-2.202,0-3.041-1.346-3.092-2.605c-0.126-3.1,4.343-8.313,10.061-9.302    c-0.208-4.789-3.025-9.347-7.677-12.335c-4.574-2.938-9.82-2.066-13.676,1.916c3.743,3.563,4.44,7.946,3.395,10.871    c-0.729,2.04-2.289,3.307-4.074,3.308c0,0,0,0-0.001,0c-1.07,0-2.17-0.457-3.184-1.322c-3.333-2.847-2.256-8.406,0.755-12.564    c-1.412-0.993-3.1-1.822-5.033-2.471c-4.783-1.609-8.216-1.3-10.215,0.978c-2.743,3.121-2.03,8.916-2.023,8.975    c0.055,0.42-0.136,0.833-0.491,1.063c-0.356,0.232-0.811,0.236-1.172,0.015c-0.796-0.487-1.678-0.735-2.62-0.735    c-3.823,0-8.301,4.112-9.982,9.167c-0.768,2.31-1.952,8.137,3.638,12.318c2.444,1.828,4.945,3.003,7.316,3.448    c-0.487-4.264,0.817-8.419,2.537-10.553c0.958-1.19,2.078-1.819,3.236-1.819c0.803,0,2.007,0.317,3.183,1.824    c2.131,2.73,2.615,5.808,1.329,8.446C440.934,225.645,438.094,227.324,434.694,227.522z M462.413,218.21    c-0.202,0-0.689,0.327-1.134,1.204c-0.984,1.937-1.145,5.223,0.572,8.292c1.891-2.217,2.446-4.979,1.555-7.903    C463.052,218.643,462.609,218.21,462.413,218.21z M437.693,214.97c-0.464,0-1.004,0.355-1.524,1    c-1.465,1.818-2.539,5.705-2.005,9.374c2.784-0.045,5.099-1.288,6.064-3.266c0.905-1.853,0.509-4.088-1.085-6.13    C438.795,215.502,438.26,214.97,437.693,214.97z M476.866,204.772c-4.608,1.024-7.835,5.255-7.766,6.955    c0.009,0.209,0.02,0.496,0.895,0.496h0.001c0.171,0,0.356-0.013,0.556-0.039C473.849,211.756,476.323,208.784,476.866,204.772z     M454.2,193.786c-2.598,3.621-3.095,7.727-1.025,9.494c1.564,1.335,3.082,0.846,3.761-1.053    C457.727,200.012,457.14,196.647,454.2,193.786z"/>
	</g>
	<g>
		<path style="fill:#241726;" d="M408.591,110.726c-1.53,0-5.003-3.67-10.327-10.914c-6.623,6.568-10.617,9.896-11.876,9.896    c-0.346,0-0.819-0.224-1.027-0.501c-0.707-0.944-1.909-6.997-2.694-11.302c-3.593,1.397-13.135,5.012-15.732,5.012    c-1.332,0-1.58-0.868-1.624-1.134c-0.241-1.441,2.109-9.924,3.432-14.521c-14.737-3.691-14.976-5.124-15.092-5.822    c-0.103-0.619-0.339-2.037,10.262-9.995c-4.501-2.699-12.005-7.693-11.503-10.707c0.501-3.011,8.464-5.384,13.088-6.516    c-7.409-14-6.473-14.702-5.717-15.27c0.38-0.285,0.863-0.324,1.286-0.324c2.441,0,10.093,1.79,13.205,2.542    c0.528-15.117,1.415-15.338,2.275-15.552c0.087-0.023,0.221-0.038,0.311-0.038c1.041,0,5.902,2.873,14.456,8.542    c3.968-13.263,5.199-13.264,6.022-13.264c0.14,0,0.344,0.04,0.474,0.092c0.446,0.178,1.612,0.644,6.368,12.853    c3.24-1.745,11.003-5.795,13.255-5.795c0.308,0,0.57,0.056,0.802,0.172c0.652,0.326,2.141,1.071-0.528,12.319    c2.855-0.392,8.804-1.144,12.398-1.144c1.447,0,3.87,0,3.87,1.716c0,1.62-3.262,8.189-5.206,11.957    c5.712,1.618,12.076,3.766,12.807,5.472c0.317,0.736,1.042,2.43-10.763,11.075c4.496,3.138,10.574,7.973,9.821,10.734    c-0.744,2.724-9.266,4.691-15.231,5.745c2.293,4.249,5.217,10.361,4.238,12.32c-0.568,1.136-2.202,1.289-3.726,1.29    c-3.524,0-9.151-1.05-11.403-1.5c-1.14,3.442-3.724,10.957-4.922,12.155C409.33,110.581,408.974,110.726,408.591,110.726z     M398.397,97.031c0.029,0,0.058,0.001,0.087,0.003c0.32,0.026,0.614,0.19,0.803,0.451c3.302,4.551,7.441,9.639,9.042,10.826    c0.902-1.681,2.874-7.07,4.403-11.762c0.175-0.535,0.719-0.856,1.276-0.734c0.076,0.016,7.752,1.65,11.911,1.65    c1.077-0.001,1.568-0.113,1.766-0.18c0.096-1.427-2.413-6.986-4.944-11.52c-0.175-0.312-0.186-0.691-0.03-1.013    c0.156-0.322,0.458-0.548,0.811-0.606c7.561-1.241,14.433-3.273,15.004-4.439c0.071-1.153-4.704-5.47-10.229-9.195    c-0.298-0.201-0.48-0.534-0.485-0.894s0.165-0.699,0.457-0.909c4.866-3.504,10.297-7.966,11.146-9.478    c-1.19-0.928-7.271-3.004-12.532-4.448c-0.321-0.087-0.584-0.316-0.717-0.62c-0.132-0.305-0.12-0.654,0.034-0.948    c2.375-4.545,4.851-9.711,5.447-11.586c-0.305-0.04-0.788-0.076-1.539-0.076c-4.594,0-13.598,1.336-13.688,1.35    c-0.353,0.056-0.73-0.076-0.975-0.349c-0.247-0.272-0.341-0.648-0.252-1.004c1.12-4.487,2.069-9.843,1.857-11.375    c-1.726,0.347-8.487,3.725-12.913,6.156c-0.279,0.15-0.611,0.175-0.907,0.069c-0.297-0.109-0.534-0.341-0.648-0.637    c-1.807-4.698-4.077-10.033-5.232-12.082c-1.044,2.098-2.923,7.633-4.347,12.492c-0.099,0.336-0.351,0.604-0.679,0.723    c-0.328,0.123-0.694,0.078-0.985-0.118c-5.511-3.673-11.676-7.577-13.894-8.703c-0.424,2.256-0.835,8.704-1.019,14.521    c-0.01,0.333-0.171,0.642-0.436,0.842c-0.263,0.202-0.604,0.275-0.928,0.189c-2.905-0.725-10.562-2.53-13.441-2.772    c0.718,2.261,3.65,8.28,6.489,13.592c0.162,0.303,0.173,0.663,0.03,0.975c-0.142,0.311-0.422,0.539-0.757,0.615    c-6.498,1.472-12.6,3.885-12.803,5.062c-0.046,1.268,5.5,5.611,11.869,9.287c0.321,0.186,0.527,0.519,0.547,0.89    c0.021,0.37-0.146,0.725-0.443,0.945c-4.368,3.229-9.273,7.239-10.492,8.777c1.821,0.998,8.503,2.975,14.319,4.405    c0.291,0.071,0.54,0.259,0.689,0.517c0.149,0.26,0.187,0.569,0.103,0.856c-1.594,5.481-3.208,11.574-3.599,13.865    c2.913-0.5,10.794-3.388,15.535-5.27c0.306-0.12,0.652-0.098,0.941,0.062c0.288,0.16,0.488,0.442,0.546,0.767    c0.772,4.341,1.749,9.139,2.298,11.01c1.731-1.224,6.642-5.772,10.728-9.859C397.827,97.146,398.106,97.031,398.397,97.031z"/>
		<circle style="fill:#EEBA00;" cx="396.784" cy="67.853" r="28.206"/>
		<g>
			<path style="fill:#FFFFFF;" d="M398.944,48.419c0,0,4.094,0.833,4.69,2.834"/>
			<path style="fill:#241726;" d="M403.633,52.352c-0.474,0-0.911-0.308-1.053-0.784c-0.267-0.894-2.41-1.778-3.856-2.072     c-0.595-0.12-0.979-0.701-0.857-1.295c0.121-0.595,0.702-0.975,1.295-0.857c0.792,0.161,4.777,1.09,5.523,3.596     c0.174,0.582-0.157,1.194-0.738,1.367C403.843,52.337,403.736,52.352,403.633,52.352z"/>
		</g>
		<g>
			<path style="fill:#FFFFFF;" d="M402.27,57.094c0,0,4.094,0.833,4.69,2.834"/>
			<path style="fill:#241726;" d="M406.959,61.028c-0.474,0-0.911-0.308-1.054-0.786c-0.276-0.929-2.464-1.785-3.856-2.071     c-0.593-0.121-0.978-0.702-0.856-1.296c0.122-0.595,0.701-0.97,1.295-0.857c0.792,0.161,4.778,1.09,5.525,3.598     c0.173,0.582-0.159,1.193-0.74,1.367C407.168,61.013,407.062,61.028,406.959,61.028z"/>
		</g>
		<g>
			<path style="fill:#FFFFFF;" d="M411.573,57.005c0,0,3.886,1.533,4.124,3.608"/>
			<path style="fill:#241726;" d="M415.696,61.713c-0.552,0-1.026-0.413-1.09-0.973c-0.111-0.964-2.116-2.188-3.437-2.713     c-0.563-0.224-0.84-0.862-0.617-1.426c0.224-0.566,0.862-0.838,1.425-0.618c0.751,0.297,4.514,1.908,4.812,4.506     c0.07,0.603-0.363,1.148-0.966,1.217C415.779,61.71,415.737,61.713,415.696,61.713z"/>
		</g>
		<g>
			<path style="fill:#FFFFFF;" d="M391.622,54.829c0,0,4.094,0.833,4.69,2.834"/>
			<path style="fill:#241726;" d="M396.311,58.761c-0.474,0-0.911-0.308-1.053-0.786c-0.266-0.894-2.41-1.777-3.856-2.071     c-0.595-0.12-0.979-0.701-0.857-1.295c0.12-0.595,0.705-0.978,1.295-0.857c0.792,0.161,4.778,1.09,5.523,3.597     c0.174,0.582-0.158,1.193-0.739,1.366C396.521,58.746,396.414,58.761,396.311,58.761z"/>
		</g>
		<g>
			<path style="fill:#FFFFFF;" d="M386.798,47.898c0,0,4.176-0.11,5.207,1.706"/>
			<path style="fill:#241726;" d="M392.007,50.703c-0.383,0-0.754-0.2-0.957-0.557c-0.478-0.842-2.826-1.188-4.224-1.15     c-0.633,0.052-1.11-0.465-1.126-1.071c-0.015-0.606,0.463-1.111,1.069-1.127c0.803-0.018,4.9-0.012,6.193,2.264     c0.299,0.527,0.114,1.198-0.414,1.498C392.377,50.657,392.191,50.703,392.007,50.703z"/>
		</g>
	</g>
	<g>
		<g>
			<path style="fill:#FFFFFF;" d="M98.279,62.837c0,0-13.574,6.305-9.13,14.696s19.128-8.421,12.426-8.457     c-2.892-0.016-0.62,14.219,6.246,13.645C114.687,82.147,111.868,57.179,98.279,62.837z"/>
			<path style="fill:#241726;" d="M107.421,83.838h-0.001c-3.537-0.001-5.905-3.127-7.147-6.553     c-2.109,1.963-4.882,3.693-7.488,3.693c-1.394,0-3.324-0.509-4.607-2.931c-1.126-2.126-1.324-4.315-0.587-6.504     c1.951-5.802,9.889-9.546,10.226-9.702c1.503-0.627,2.928-0.936,4.273-0.936c6.458,0,10.128,6.983,10.417,13.881     c0.218,5.235-1.585,8.779-4.594,9.03C107.746,83.83,107.583,83.838,107.421,83.838z M101.995,75.466     c0.839,2.961,2.696,6.173,5.425,6.174h0.001c0.102,0,0.204-0.004,0.309-0.013c1.653-0.138,2.738-2.977,2.58-6.75     c-0.238-5.708-3.2-11.774-8.22-11.774c-1.054,0-2.195,0.252-3.388,0.749c-0.033,0.017-7.383,3.49-9.029,8.395     c-0.543,1.617-0.397,3.179,0.447,4.772c0.628,1.185,1.499,1.761,2.665,1.761c2.171,0,4.902-1.902,6.803-3.908     c-0.465-2.218-0.568-4.836,0.436-6.115c0.395-0.502,0.944-0.779,1.546-0.779c1.721,0.009,2.374,0.899,2.611,1.429     C105.044,71.34,103.182,74.032,101.995,75.466z M101.569,70.175c-0.043,0.129-0.203,0.939-0.112,2.276     c0.664-1.116,0.828-1.896,0.716-2.147C102.158,70.271,101.988,70.178,101.569,70.175z"/>
		</g>
		<g>
			<path style="fill:#FFFFFF;" d="M96.521,54.108c0,0-11.286-9.83-4.684-16.655s16.032,13.407,9.585,11.578     c-2.782-0.789,3.357-13.831,9.793-11.37C117.651,40.121,108.001,63.321,96.521,54.108z"/>
			<path style="fill:#241726;" d="M101.966,57.359c-2.09,0-4.154-0.805-6.133-2.393c-0.314-0.273-6.897-6.075-7.159-12.191     c-0.099-2.308,0.7-4.356,2.373-6.086c1.121-1.159,2.396-1.747,3.789-1.747c3.075,0,5.84,2.87,7.62,5.848     c1.41-1.925,3.911-4.536,7.11-4.536c0.693,0,1.38,0.129,2.041,0.382c2.295,0.877,3.245,3.686,2.539,7.514     C113.162,49.477,108.611,57.359,101.966,57.359z M94.836,37.14c-0.786,0-1.509,0.353-2.21,1.077     c-1.255,1.296-1.829,2.755-1.757,4.459c0.218,5.171,6.312,10.55,6.373,10.604c1.544,1.238,3.145,1.881,4.723,1.881     c5.163,0,9.136-6.627,10.019-11.411c0.384-2.085,0.281-4.51-1.163-5.062c-2.639-1.015-5.534,1.617-7.22,4.323     c0.692,1.597,1.671,4.48,0.608,6.162c-0.604,0.951-1.72,1.303-3.089,0.915c-0.583-0.165-1.036-0.583-1.277-1.175     c-0.613-1.507,0.214-3.995,1.278-6C99.604,39.968,97.049,37.14,94.836,37.14z M102.244,45.788     c-0.438,1.253-0.472,2.092-0.361,2.305c0.058-0.058,0.207-0.043,0.291-0.044l0,0C102.464,47.736,102.525,46.939,102.244,45.788z"/>
		</g>
		<path style="fill:#EEBA00;" d="M109.64,61.834c0,0,4.014,7.618,11.179,6.438c7.165-1.18,13.878-5.577,11.854-10.421    c-2.024-4.844-8.793-9.952-15.712-7.279S108.186,59.727,109.64,61.834z"/>
		<g>
			<path style="fill:#FFFFFF;" d="M114.908,67.224c0,0,0.774-13.3-0.529-15.339"/>
			<path style="fill:#241726;" d="M114.909,68.323c-0.021,0-0.043-0.001-0.064-0.002c-0.606-0.035-1.069-0.555-1.033-1.16     c0.362-6.226,0.327-13.611-0.358-14.685c-0.326-0.511-0.177-1.19,0.335-1.517c0.509-0.326,1.191-0.177,1.517,0.335     c1.386,2.17,0.886,12.791,0.7,15.994C115.972,67.872,115.487,68.323,114.909,68.323z"/>
		</g>
		<g>
			<path style="fill:#FFFFFF;" d="M121.42,67.936c0,0,0.432-15.55-1.248-18.129"/>
			<path style="fill:#241726;" d="M121.421,69.035c-0.011,0-0.021,0-0.031,0c-0.607-0.017-1.085-0.523-1.069-1.129     c0.175-6.315-0.041-15.92-1.07-17.5c-0.332-0.509-0.188-1.189,0.321-1.521c0.511-0.331,1.19-0.187,1.521,0.321     c1.777,2.728,1.499,16.106,1.426,18.76C122.502,68.562,122.014,69.035,121.421,69.035z"/>
		</g>
		<g>
			<path style="fill:#FFFFFF;" d="M95.662,60.319c0,0-8.825-0.821-12.544,7.739"/>
			<path style="fill:#241726;" d="M83.118,69.157c-0.146,0-0.294-0.029-0.437-0.091c-0.557-0.241-0.812-0.889-0.57-1.446     c3.989-9.184,13.553-8.407,13.654-8.396c0.603,0.057,1.045,0.59,0.991,1.193c-0.053,0.604-0.593,1.07-1.191,0.996     c-0.321-0.029-8.091-0.616-11.438,7.083C83.947,68.91,83.543,69.157,83.118,69.157z"/>
		</g>
		<g>
			<path style="fill:#FFFFFF;" d="M126.756,65.273c0,0,1.207-11.321-0.979-14.318"/>
			<path style="fill:#241726;" d="M126.757,66.372c-0.039,0-0.078-0.002-0.117-0.006c-0.604-0.064-1.041-0.605-0.977-1.208     c0.449-4.215,0.635-11.623-0.774-13.556c-0.358-0.49-0.25-1.177,0.24-1.535c0.49-0.36,1.179-0.251,1.535,0.24     c2.367,3.245,1.312,13.881,1.184,15.083C127.788,65.954,127.312,66.372,126.757,66.372z"/>
		</g>
		<g>
			<path style="fill:#FFFFFF;" d="M83.169,50.231c0,0,2.251,8.034,13.13,7.528"/>
			<path style="fill:#241726;" d="M95.334,58.881c-10.756,0-13.2-8.267-13.223-8.353c-0.164-0.584,0.177-1.191,0.762-1.354     c0.578-0.167,1.188,0.175,1.353,0.757l0,0c0.086,0.293,2.231,7.207,12.021,6.732c0.647-0.036,1.121,0.441,1.149,1.046     c0.028,0.606-0.441,1.121-1.046,1.149C96.004,58.873,95.665,58.881,95.334,58.881z"/>
		</g>
	</g>
	<g>
		<g>
			<path style="fill:#FFFFFF;" d="M359.728,438.683c0,0,6.317-13.569-2.489-17.121c-8.806-3.552-9.2,18.765-4.052,14.474     c2.222-1.852-8.688-11.273-13.569-6.409S352.983,451.766,359.728,438.683z"/>
			<path style="fill:#241726;" d="M352.592,444.583h-0.001c-5.781-0.001-12.315-5.366-14.296-10.16     c-0.949-2.297-0.753-4.276,0.548-5.574c2.279-2.273,6.119-2.189,10.048,0.07c0.545-4.549,2.665-8.841,6.526-8.841     c0.718,0,1.47,0.157,2.234,0.465c2.232,0.9,3.794,2.447,4.641,4.595c2.247,5.695-1.411,13.672-1.568,14.009     C358.406,443.646,355.024,444.583,352.592,444.583z M343.141,429.347c-1.133,0-2.031,0.347-2.746,1.058     c-0.809,0.806-0.484,2.173-0.069,3.179c1.681,4.069,7.405,8.801,12.265,8.802h0.001c2.649,0,4.721-1.415,6.16-4.206     c0.014-0.034,3.396-7.426,1.495-12.238c-0.628-1.587-1.745-2.686-3.418-3.36c-0.502-0.203-0.977-0.306-1.412-0.306     c-2.643,0-4.221,4.048-4.444,8.047c1.788,1.399,3.554,3.337,3.607,4.964c0.021,0.64-0.223,1.205-0.688,1.593     c-1.271,1.056-2.664,1.046-3.625,0.059c-1.278-1.309-1.502-3.973-1.517-5.518C346.801,430.098,344.781,429.347,343.141,429.347z      M351.102,433.381c0.171,1.037,0.455,1.735,0.737,2.024c0.177,0.082,0.364,0.021,0.644-0.212     C352.433,435.065,352.034,434.343,351.102,433.381z"/>
		</g>
		<g>
			<path style="fill:#FFFFFF;" d="M366.698,444.225c0,0,14.965,0.244,14.314,9.717s-20.899,0.079-14.79-2.677     c2.636-1.19,6.345,12.74-0.162,15.006C359.553,468.537,351.983,444.578,366.698,444.225z"/>
			<path style="fill:#241726;" d="M365.174,467.52c-4.37,0-7.979-7.488-8.053-13.689c-0.078-6.558,3.492-10.56,9.55-10.706     c0.416,0.006,9.189,0.201,13.331,4.709c1.562,1.702,2.271,3.782,2.107,6.182c-0.225,3.277-2.503,5.158-6.248,5.159     c-1.555,0-3.348-0.334-5.111-0.938c0.28,3.844-0.722,7.815-4.328,9.07C366.017,467.449,365.597,467.52,365.174,467.52z      M366.68,445.324c-6.485,0.157-7.398,5.381-7.361,8.481c0.075,6.244,3.819,12.319,6.379,11.428     c2.745-0.955,3.196-4.764,2.737-7.958c-1.667-0.826-4.463-2.53-4.459-4.648c0.001-0.581,0.236-1.659,1.794-2.362     c0.248-0.113,0.511-0.17,0.779-0.17c1.952,0,3.257,2.928,3.844,5.658c1.869,0.782,3.835,1.226,5.468,1.226     c3.841-0.001,4.002-2.342,4.054-3.111c0.124-1.8-0.376-3.285-1.529-4.542C374.888,445.511,366.761,445.325,366.68,445.324z      M366.473,452.282c-0.18,0.158-0.299,0.312-0.299,0.349c-0.001,0.275,0.464,0.918,1.515,1.663     C367.215,453.042,366.696,452.372,366.473,452.282z"/>
		</g>
		<path style="fill:#EEBA00;" d="M351.687,446.771c0,0-7.979-3.239-12.698,2.281s-7.019,13.208-2.349,15.608    s13.137,1.944,16.706-4.559C356.915,453.599,354.157,447.446,351.687,446.771z"/>
		<g>
			<path style="fill:#FFFFFF;" d="M344.185,446.045c0,0,7.979,10.669,10.289,11.389"/>
			<path style="fill:#241726;" d="M354.475,458.532c-0.107,0-0.218-0.016-0.326-0.049c-2.46-0.765-8.921-9.21-10.843-11.78     c-0.364-0.486-0.264-1.174,0.222-1.538c0.486-0.365,1.174-0.264,1.538,0.222c3.735,4.993,8.52,10.618,9.736,10.996     c0.579,0.18,0.904,0.796,0.723,1.376C355.378,458.23,354.944,458.532,354.475,458.532z"/>
		</g>
		<g>
			<path style="fill:#FFFFFF;" d="M338.747,449.697c0,0,9.691,12.169,12.637,13.059"/>
			<path style="fill:#241726;" d="M351.383,463.855c-0.105,0-0.211-0.015-0.318-0.047c-3.116-0.941-11.524-11.35-13.178-13.426     c-0.378-0.475-0.299-1.167,0.175-1.544c0.478-0.379,1.168-0.302,1.544,0.175c3.935,4.942,10.289,12.147,12.094,12.692     c0.581,0.175,0.91,0.789,0.734,1.369C352.292,463.549,351.855,463.855,351.383,463.855z"/>
		</g>
		<g>
			<path style="fill:#FFFFFF;" d="M363.352,438.923c0,0,7.277-5.06,4.605-14.001"/>
			<path style="fill:#241726;" d="M363.354,440.021c-0.347,0-0.688-0.164-0.901-0.47c-0.348-0.497-0.225-1.182,0.269-1.529     c0.27-0.19,6.586-4.742,4.182-12.786c-0.174-0.582,0.157-1.193,0.738-1.367c0.581-0.175,1.193,0.156,1.367,0.738     c2.867,9.594-4.951,15.162-5.03,15.218C363.789,439.957,363.57,440.021,363.354,440.021z"/>
		</g>
		<g>
			<path style="fill:#FFFFFF;" d="M336.383,455.171c0,0,6.372,9.435,9.975,10.318"/>
			<path style="fill:#241726;" d="M346.359,466.588c-0.087,0-0.175-0.01-0.263-0.031c-3.901-0.957-9.947-9.769-10.624-10.77     c-0.339-0.502-0.207-1.186,0.296-1.525c0.503-0.341,1.187-0.207,1.526,0.295c2.373,3.511,7.003,9.296,9.326,9.864     c0.589,0.145,0.95,0.74,0.806,1.33C347.302,466.252,346.853,466.588,346.359,466.588z"/>
		</g>
		<g>
			<path style="fill:#FFFFFF;" d="M379.406,438.586c0,0-6.898-4.693-14.892,2.705"/>
			<path style="fill:#241726;" d="M364.515,442.39c-0.295,0-0.59-0.118-0.807-0.352c-0.412-0.446-0.385-1.141,0.06-1.554     c8.537-7.9,16.179-2.859,16.256-2.806c0.502,0.341,0.632,1.025,0.291,1.527c-0.34,0.5-1.021,0.63-1.523,0.293l0,0     c-0.254-0.17-6.314-4.079-13.53,2.6C365.051,442.293,364.783,442.39,364.515,442.39z"/>
		</g>
	</g>
	<g>
		<path style="fill:#AFC548;" d="M393.213,368.158c0,0,87.927-70.809,69.252-98.043c-18.675-27.234-75.477,4.669-75.477,4.669    s-0.623,1.082-1.685,2.932c23.662-81.6-75.307-114.986-75.307-114.986c34.358-24.814,43.192-72.432-15.981-76.25    c-59.173-3.818-27.921,59.071-27.921,59.071c-49.629-20.997-76.352,7.635-76.352,7.635c-5.726-74.443-74.443-51.538-91.622-9.544    c-17.179,41.994,53.446,41.994,53.446,41.994c-37.096,28.791-51.521,55.648-53.343,79.28c-18.049-6.375-42.22-10.82-53.205,5.2    c-18.675,27.234,69.252,98.043,69.252,98.043s-68.474,31.903-70.809,38.906c-2.334,7.003,66.14-22.565,66.14-22.565    s-32.681,36.572-28.79,41.24c3.891,4.669,38.906-33.459,38.906-33.459s-25.678,40.462-20.231,45.131    c5.103,4.374,54.597-60.913,61.466-73.012c23.469,36.213,52.414,67.644,55.965,63.942c6.141-6.403-18.042-31.963-18.042-31.963    s35.412,27.065,41.892,22.972c6.479-4.093-26.173-28.415-26.173-28.415s13.681,8.15,32.272,6.219    c18.591-1.932-10.884-9.18-38.849-22.64c-6.743-3.246-12.878-8.027-18.446-13.829l129.761-2.961    c-6.847,10.103-14.461,18.686-22.826,24.409c-20.879,14.286-47.246,26.602-28.571,25.824c13.447-0.56,22.831-7.616,27.048-11.533    c-6.858,7.137-24.981,26.777-19.265,29.317c7.003,3.112,38.128-28.79,38.128-28.79s-20.231,28.79-13.228,34.237    c3.579,2.784,23.625-30.823,42.889-68.085c10.412,16.014,59.592,78.51,64.491,74.31c5.447-4.669-20.231-45.131-20.231-45.131    s35.015,38.128,38.906,33.459c3.891-4.669-28.79-41.24-28.79-41.24s68.474,29.568,66.14,22.565    C461.687,400.061,393.213,368.158,393.213,368.158z"/>
		<path style="fill:#241726;" d="M234.891,199.916c-0.635,0-1.282-0.117-1.938-0.352c-11.155-3.985-22.671-24.529-23.156-25.401    c-0.295-0.53-0.104-1.199,0.427-1.494s1.199-0.103,1.494,0.427c0.115,0.206,11.597,20.692,21.974,24.399    c1.079,0.382,2.03,0.273,2.998-0.352c5.947-3.831,8.906-24.517,9.544-32.164c0.049-0.605,0.572-1.077,1.186-1.003    c0.605,0.05,1.054,0.581,1.003,1.186c-0.097,1.167-2.474,28.63-10.544,33.829C236.922,199.607,235.922,199.916,234.891,199.916z"/>
		<circle style="fill:#241726;" cx="157.067" cy="154.955" r="15.562"/>
		<circle style="fill:#241726;" cx="293.237" cy="130.833" r="15.562"/>
		<path style="fill:#241726;" d="M221.649,163.833c-0.511,0-0.968-0.358-1.075-0.878c-0.006-0.027-0.591-2.748-2.624-3.735    c-1.321-0.642-3.055-0.438-5.146,0.607c-0.542,0.27-1.204,0.051-1.475-0.492c-0.271-0.543-0.052-1.203,0.492-1.475    c2.742-1.371,5.132-1.575,7.105-0.611c3.011,1.473,3.77,5.115,3.801,5.269c0.119,0.593-0.265,1.17-0.859,1.291    C221.795,163.826,221.722,163.833,221.649,163.833z"/>
		<path style="fill:#241726;" d="M228.653,161.501c-0.528,0-0.994-0.381-1.083-0.919c-0.57-3.419-0.036-6.031,1.586-7.763    c2.245-2.398,5.687-2.084,5.831-2.07c0.604,0.06,1.044,0.599,0.984,1.203c-0.061,0.602-0.612,1.032-1.199,0.984    c-0.059-0.009-2.541-0.201-4.023,1.397c-1.121,1.207-1.462,3.188-1.012,5.888c0.1,0.599-0.305,1.164-0.904,1.264    C228.773,161.496,228.713,161.501,228.653,161.501z"/>
		<path style="fill:#DBD75B;" d="M189.571,360.683c0,0-9.004-9.469-14.904-23.863c-10.945-26.7-16.46-70.347,28.982-101.941    c47.905-33.306,110.503-5.336,129.187,40.537c3.569,8.763,3.875,26.788,3.83,36.555c-0.08,17.594-4.296,27.702-19.814,45.807    C316.853,357.778,202.021,364.573,189.571,360.683z"/>
		<path style="fill:#E17B8D;" d="M271.781,172.242c0,0,14.286-9.157,22.711,2.564C302.916,186.527,254.931,185.795,271.781,172.242z    "/>
		<path style="fill:#E17B8D;" d="M171.781,184.33c0,0,14.286-9.157,22.711,2.564C202.917,198.615,154.931,197.883,171.781,184.33z"/>
		<path style="fill:#241726;" d="M171.783,379.652c-0.279,0-0.559-0.106-0.773-0.318c-30.197-29.886-38.587-59.951-40.308-79.91    c-1.867-21.67,3.355-36.049,3.578-36.65c0.21-0.569,0.842-0.854,1.412-0.648c0.569,0.21,0.859,0.844,0.648,1.412    c-0.212,0.574-20.57,58.034,36.215,114.234c0.431,0.427,0.436,1.123,0.009,1.554C172.349,379.543,172.066,379.652,171.783,379.652    z"/>
		<path style="fill:#241726;" d="M192.709,364.704c-0.265,0-0.53-0.094-0.74-0.287c-37.435-34.132-20.816-93.202-20.643-93.796    c0.17-0.583,0.779-0.916,1.362-0.748c0.583,0.168,0.918,0.779,0.748,1.362c-0.167,0.579-16.401,58.356,20.014,91.557    c0.449,0.409,0.481,1.104,0.072,1.553C193.304,364.584,193.007,364.704,192.709,364.704z"/>
		<path style="fill:#241726;" d="M340.462,365.098c-0.265,0-0.531-0.096-0.743-0.289c-0.447-0.41-0.478-1.105-0.068-1.553    c41.417-45.181,23.189-112.878,23.001-113.556c-0.163-0.585,0.178-1.191,0.763-1.353c0.586-0.164,1.19,0.178,1.353,0.763    c0.193,0.691,18.735,69.562-23.496,115.632C341.055,364.978,340.759,365.098,340.462,365.098z"/>
		<path style="fill:#241726;" d="M317.935,359.054c-0.281,0-0.562-0.107-0.777-0.322c-0.429-0.429-0.429-1.125,0-1.554    c31.013-31.013,13.996-84.176,13.82-84.709c-0.189-0.576,0.124-1.198,0.701-1.388c0.575-0.189,1.197,0.123,1.388,0.701    c0.179,0.545,17.622,54.974-14.354,86.95C318.497,358.947,318.216,359.054,317.935,359.054z"/>
		<path style="fill:#241726;" d="M110.794,312.351c-0.323,0-0.642-0.142-0.86-0.412c-17.69-22.112-11.823-56.036-11.762-56.376    c0.109-0.597,0.68-0.996,1.276-0.886c0.598,0.108,0.995,0.679,0.887,1.276c-0.06,0.331-5.743,33.291,11.315,54.613    c0.379,0.474,0.302,1.165-0.172,1.545C111.277,312.273,111.034,312.351,110.794,312.351z"/>
		<path style="fill:#241726;" d="M376.724,309.604c-0.155,0-0.311-0.032-0.461-0.102c-0.551-0.255-0.79-0.908-0.534-1.459    c10.202-22.015,9.793-43.798,9.788-44.016c-0.015-0.606,0.465-1.111,1.072-1.126c0.509-0.028,1.111,0.465,1.126,1.071    c0.005,0.223,0.435,22.495-9.992,44.996C377.537,309.368,377.14,309.604,376.724,309.604z"/>
		<g>
			<path style="fill:#241726;" d="M119.399,227.552c-0.483,0-0.926-0.321-1.059-0.81c-1.297-4.755,3.209-7.687,3.401-7.809     c0.511-0.322,1.187-0.176,1.513,0.335c0.327,0.51,0.179,1.189-0.329,1.517c-0.136,0.088-3.332,2.197-2.464,5.38     c0.16,0.585-0.186,1.189-0.772,1.349C119.593,227.541,119.496,227.552,119.399,227.552z"/>
			<path style="fill:#241726;" d="M128.557,228.285c-0.483,0-0.926-0.321-1.059-0.81c-1.297-4.756,3.209-7.687,3.401-7.809     c0.509-0.324,1.188-0.175,1.513,0.335c0.327,0.51,0.178,1.189-0.329,1.517c-0.136,0.088-3.332,2.196-2.464,5.38     c0.16,0.585-0.186,1.189-0.772,1.349C128.75,228.274,128.653,228.285,128.557,228.285z"/>
			<path style="fill:#241726;" d="M122.33,237.442c-0.483,0-0.926-0.321-1.059-0.81c-1.297-4.755,3.208-7.687,3.4-7.809     c0.509-0.323,1.188-0.176,1.513,0.335c0.327,0.51,0.179,1.189-0.329,1.517c-0.136,0.088-3.331,2.197-2.463,5.38     c0.16,0.585-0.186,1.189-0.772,1.349C122.523,237.431,122.427,237.442,122.33,237.442z"/>
			<path style="fill:#241726;" d="M112.806,239.274c-0.483,0-0.926-0.321-1.059-0.81c-1.297-4.756,3.209-7.687,3.401-7.809     c0.511-0.324,1.186-0.176,1.513,0.335c0.327,0.51,0.178,1.189-0.329,1.517c-0.136,0.088-3.332,2.196-2.464,5.38     c0.16,0.585-0.186,1.189-0.772,1.349C112.999,239.263,112.903,239.274,112.806,239.274z"/>
			<path style="fill:#241726;" d="M115.066,249.066c-0.35,0-0.694-0.166-0.908-0.478c-2.788-4.066,0.505-8.315,0.647-8.493     c0.376-0.474,1.065-0.554,1.539-0.181c0.476,0.375,0.559,1.065,0.187,1.542c-0.1,0.128-2.425,3.168-0.559,5.889     c0.342,0.5,0.216,1.185-0.285,1.528C115.496,249.003,115.28,249.066,115.066,249.066z"/>
			<path style="fill:#241726;" d="M129.226,217.203c-0.603,0-1.095-0.486-1.099-1.09c-0.038-4.93,5.066-6.612,5.283-6.681     c0.581-0.184,1.192,0.135,1.378,0.71c0.186,0.576-0.132,1.195-0.707,1.383c-0.155,0.05-3.782,1.272-3.756,4.571     c0.004,0.607-0.484,1.103-1.09,1.107C129.232,217.203,129.228,217.203,129.226,217.203z"/>
		</g>
		<g>
			<path style="fill:#241726;" d="M184.897,328.35c-0.182,0-0.367-0.045-0.538-0.141c-4.298-2.416-3.222-7.682-3.173-7.905     c0.127-0.592,0.708-0.97,1.301-0.842c0.592,0.124,0.971,0.707,0.849,1.301c-0.033,0.159-0.775,3.914,2.101,5.53     c0.529,0.297,0.717,0.968,0.42,1.497C185.655,328.149,185.282,328.35,184.897,328.35z"/>
			<path style="fill:#241726;" d="M191.848,322.344c-0.182,0-0.367-0.045-0.538-0.141c-4.297-2.416-3.222-7.682-3.173-7.905     c0.128-0.591,0.704-0.971,1.301-0.842c0.592,0.124,0.971,0.707,0.849,1.3c-0.033,0.16-0.775,3.915,2.101,5.531     c0.529,0.298,0.717,0.968,0.42,1.497C192.606,322.142,192.232,322.344,191.848,322.344z"/>
			<path style="fill:#241726;" d="M193.998,333.207c-0.182,0-0.367-0.045-0.538-0.141c-4.298-2.416-3.222-7.682-3.173-7.905     c0.127-0.591,0.715-0.966,1.301-0.842c0.592,0.124,0.971,0.707,0.849,1.301c-0.033,0.159-0.775,3.914,2.101,5.53     c0.529,0.297,0.717,0.968,0.42,1.497C194.755,333.006,194.382,333.207,193.998,333.207z"/>
			<path style="fill:#241726;" d="M188.615,341.275c-0.182,0-0.367-0.045-0.538-0.141c-4.297-2.416-3.222-7.682-3.173-7.905     c0.127-0.591,0.705-0.966,1.301-0.842c0.592,0.124,0.971,0.707,0.849,1.3c-0.033,0.16-0.775,3.915,2.101,5.531     c0.529,0.298,0.717,0.968,0.42,1.497C189.372,341.073,188.999,341.275,188.615,341.275z"/>
			<path style="fill:#241726;" d="M197.174,346.541c-0.064,0-0.13-0.005-0.195-0.017c-4.852-0.87-5.565-6.196-5.593-6.423     c-0.075-0.601,0.351-1.147,0.952-1.223c0.591-0.083,1.149,0.349,1.229,0.95c0.02,0.161,0.554,3.95,3.801,4.533     c0.597,0.107,0.995,0.678,0.887,1.276C198.159,346.168,197.697,346.541,197.174,346.541z"/>
			<path style="fill:#241726;" d="M184.427,314.087c-0.276,0-0.552-0.103-0.765-0.31c-3.538-3.434-1.151-8.249-1.048-8.453     c0.276-0.539,0.934-0.754,1.473-0.482c0.541,0.273,0.758,0.933,0.487,1.474c-0.072,0.145-1.749,3.585,0.618,5.883     c0.436,0.423,0.446,1.118,0.024,1.554C185.001,313.976,184.714,314.087,184.427,314.087z"/>
		</g>
		<g>
			<path style="fill:#241726;" d="M355.594,198.866c-0.005,0-0.012,0-0.018,0c-0.607-0.011-1.09-0.511-1.081-1.117     c0.055-3.299-3.561-4.552-3.715-4.604c-0.573-0.193-0.885-0.815-0.694-1.389c0.191-0.574,0.808-0.885,1.383-0.699     c0.217,0.071,5.307,1.799,5.224,6.728C356.684,198.387,356.193,198.866,355.594,198.866z"/>
			<path style="fill:#241726;" d="M346.902,201.838c-0.005,0-0.012,0-0.018,0c-0.607-0.011-1.09-0.511-1.081-1.117     c0.056-3.328-3.674-4.591-3.712-4.603c-0.577-0.189-0.891-0.81-0.702-1.386c0.19-0.577,0.809-0.892,1.387-0.702     c0.217,0.071,5.308,1.799,5.225,6.728C347.991,201.358,347.501,201.838,346.902,201.838z"/>
			<path style="fill:#241726;" d="M355.197,209.174c-0.005,0-0.012,0-0.018,0c-0.607-0.011-1.09-0.511-1.081-1.117     c0.055-3.299-3.561-4.552-3.715-4.604c-0.573-0.193-0.885-0.815-0.694-1.389c0.191-0.574,0.81-0.885,1.383-0.699     c0.217,0.071,5.307,1.799,5.224,6.728C356.286,208.694,355.796,209.174,355.197,209.174z"/>
			<path style="fill:#241726;" d="M364.879,208.596c-0.005,0-0.012,0-0.018,0c-0.607-0.011-1.09-0.511-1.081-1.117     c0.055-3.3-3.562-4.553-3.716-4.605c-0.573-0.193-0.885-0.815-0.694-1.389c0.191-0.575,0.808-0.886,1.383-0.699     c0.217,0.071,5.308,1.799,5.225,6.729C365.968,208.117,365.478,208.596,364.879,208.596z"/>
			<path style="fill:#241726;" d="M365.11,218.641c-0.126,0-0.253-0.021-0.378-0.068c-0.57-0.208-0.863-0.839-0.654-1.409     c1.145-3.125-1.964-5.544-1.995-5.567c-0.483-0.368-0.575-1.058-0.207-1.54c0.366-0.481,1.058-0.576,1.54-0.207     c0.181,0.138,4.421,3.442,2.725,8.07C365.978,218.365,365.557,218.641,365.11,218.641z"/>
			<path style="fill:#241726;" d="M343.516,191.264c-0.494,0-0.942-0.335-1.066-0.836c-0.797-3.231-4.726-3.499-4.766-3.502     c-0.606-0.035-1.068-0.555-1.032-1.161c0.035-0.605,0.57-1.075,1.161-1.032c0.228,0.013,5.59,0.382,6.77,5.169     c0.146,0.589-0.215,1.185-0.804,1.33C343.692,191.255,343.603,191.264,343.516,191.264z"/>
		</g>
		<g>
			<path style="fill:#241726;" d="M442.109,310.703c-0.538,0-1.008-0.395-1.086-0.942c-0.087-0.6,0.329-1.158,0.93-1.245     c3.293-0.475,3.946-4.359,3.952-4.398c0.093-0.598,0.658-1.015,1.257-0.913c0.6,0.094,1.009,0.658,0.913,1.257     c-0.035,0.225-0.929,5.526-5.809,6.231C442.214,310.699,442.16,310.703,442.109,310.703z"/>
			<path style="fill:#241726;" d="M437.789,302.595c-0.538,0-1.008-0.394-1.086-0.941c-0.087-0.601,0.329-1.159,0.929-1.245     c3.266-0.472,3.927-4.242,3.953-4.403c0.099-0.597,0.665-1,1.26-0.907c0.598,0.097,1.006,0.657,0.91,1.255     c-0.035,0.225-0.929,5.525-5.808,6.23C437.895,302.592,437.841,302.595,437.789,302.595z"/>
			<path style="fill:#241726;" d="M431.87,311.954c-0.538,0-1.008-0.395-1.086-0.942c-0.087-0.6,0.329-1.158,0.93-1.244     c3.292-0.476,3.946-4.36,3.952-4.399c0.096-0.6,0.655-1.013,1.257-0.913c0.6,0.094,1.009,0.658,0.913,1.257     c-0.035,0.225-0.93,5.526-5.809,6.23C431.975,311.951,431.921,311.954,431.87,311.954z"/>
			<path style="fill:#241726;" d="M433.983,321.419c-0.538,0-1.008-0.395-1.086-0.942c-0.087-0.6,0.329-1.158,0.93-1.245     c3.293-0.475,3.946-4.359,3.952-4.398c0.094-0.598,0.661-1.013,1.257-0.913c0.6,0.094,1.009,0.658,0.913,1.257     c-0.035,0.225-0.929,5.526-5.809,6.231C434.088,321.416,434.034,321.419,433.983,321.419z"/>
			<path style="fill:#241726;" d="M425.15,323.351c-0.4,0-0.818-0.039-1.256-0.123c-0.596-0.115-0.985-0.691-0.869-1.288     c0.115-0.595,0.686-0.983,1.288-0.869c3.238,0.633,5.101-2.717,5.179-2.86c0.29-0.531,0.954-0.731,1.488-0.442     c0.532,0.288,0.733,0.95,0.448,1.483C431.329,319.435,429.181,323.351,425.15,323.351z"/>
			<path style="fill:#241726;" d="M447.689,297.567c-0.427,0-0.834-0.251-1.011-0.67c-0.238-0.558,0.023-1.203,0.582-1.44     c3.063-1.302,2.701-5.223,2.697-5.262c-0.061-0.604,0.379-1.144,0.982-1.205c0.629-0.042,1.144,0.38,1.205,0.982     c0.023,0.228,0.512,5.579-4.025,7.507C447.979,297.539,447.833,297.567,447.689,297.567z"/>
		</g>
		<g>
			<path style="fill:#241726;" d="M76.094,326.377c-0.122,0-0.248-0.02-0.37-0.064c-0.215-0.077-5.255-1.942-5.039-6.867     c0.027-0.605,0.512-1.07,1.146-1.05c0.606,0.027,1.076,0.54,1.05,1.146c-0.144,3.296,3.437,4.647,3.59,4.702     c0.569,0.208,0.863,0.838,0.657,1.407C76.964,326.099,76.544,326.377,76.094,326.377z"/>
			<path style="fill:#241726;" d="M84.864,323.64c-0.122,0-0.248-0.02-0.37-0.064c-0.215-0.077-5.255-1.942-5.039-6.867     c0.027-0.604,0.516-1.058,1.146-1.05c0.606,0.027,1.076,0.54,1.05,1.146c-0.144,3.296,3.437,4.647,3.59,4.702     c0.569,0.208,0.863,0.838,0.657,1.407C85.734,323.362,85.313,323.64,84.864,323.64z"/>
			<path style="fill:#241726;" d="M76.769,316.083c-0.122,0-0.247-0.02-0.369-0.064c-0.215-0.077-5.256-1.94-5.042-6.865     c0.027-0.606,0.559-1.075,1.145-1.051c0.606,0.027,1.077,0.539,1.051,1.145c-0.143,3.297,3.438,4.647,3.591,4.703     c0.568,0.208,0.863,0.838,0.657,1.407C77.639,315.805,77.219,316.083,76.769,316.083z"/>
			<path style="fill:#241726;" d="M67.077,316.4c-0.123,0-0.248-0.02-0.371-0.064c-0.215-0.077-5.256-1.942-5.041-6.867     c0.027-0.605,0.516-1.069,1.146-1.05c0.606,0.027,1.076,0.54,1.05,1.146c-0.145,3.325,3.55,4.689,3.588,4.701     c0.571,0.205,0.868,0.834,0.663,1.406C67.951,316.121,67.528,316.4,67.077,316.4z"/>
			<path style="fill:#241726;" d="M64.977,307.448c-0.241,0-0.486-0.079-0.689-0.244c-0.177-0.143-4.327-3.56-2.507-8.141     c0.225-0.566,0.866-0.838,1.427-0.616c0.564,0.224,0.839,0.864,0.616,1.427c-1.229,3.093,1.813,5.594,1.844,5.619     c0.472,0.381,0.546,1.073,0.165,1.545C65.617,307.308,65.298,307.448,64.977,307.448z"/>
			<path style="fill:#241726;" d="M89.3,333.007c-0.031,0-0.063-0.001-0.096-0.004c-0.226-0.019-5.577-0.533-6.628-5.35     c-0.13-0.592,0.246-1.178,0.839-1.307c0.592-0.133,1.178,0.247,1.307,0.839c0.704,3.223,4.511,3.613,4.674,3.628     c0.603,0.056,1.048,0.589,0.995,1.192C90.34,332.576,89.862,333.007,89.3,333.007z"/>
		</g>
	</g>
	<path style="fill:#241726;" d="M298.094,66.395c-0.425,0-0.86-0.006-1.305-0.021c-0.673-0.02-1.307-0.067-1.906-0.135   c-0.603-0.069-1.036-0.614-0.966-1.217c0.069-0.603,0.616-1.043,1.217-0.966c0.541,0.062,1.115,0.102,1.726,0.122   c0.878,0.028,1.71,0.027,2.494-0.003c0.577-0.042,1.117,0.45,1.14,1.056c0.024,0.606-0.45,1.117-1.056,1.14   C299.002,66.387,298.555,66.395,298.094,66.395z M303.755,65.885c-0.512,0-0.971-0.36-1.076-0.881   c-0.12-0.595,0.265-1.175,0.86-1.295c1.461-0.295,2.765-0.728,3.877-1.287c0.547-0.27,1.203-0.054,1.476,0.488   c0.273,0.543,0.054,1.203-0.488,1.476c-1.288,0.646-2.777,1.144-4.429,1.478C303.9,65.879,303.827,65.885,303.755,65.885z    M290.792,65.107c-0.162,0-0.326-0.035-0.482-0.112c-1.561-0.763-2.799-1.872-3.679-3.293c-0.319-0.516-0.16-1.193,0.356-1.513   c0.516-0.32,1.192-0.16,1.513,0.356c0.667,1.08,1.575,1.889,2.775,2.476c0.545,0.266,0.771,0.925,0.504,1.47   C291.589,64.881,291.198,65.107,290.792,65.107z M311.361,61.839c-0.25,0-0.502-0.085-0.708-0.26   c-0.464-0.392-0.522-1.085-0.13-1.549c0.822-0.973,1.424-2.134,1.792-3.452c0.163-0.585,0.766-0.928,1.353-0.763   c0.585,0.162,0.926,0.768,0.763,1.353c-0.452,1.624-1.202,3.065-2.23,4.281C311.984,61.707,311.674,61.839,311.361,61.839z    M286.143,58.096c-0.53,0-0.996-0.383-1.084-0.923c-0.209-1.291-0.309-2.738-0.314-4.553c-0.002-0.607,0.489-1.1,1.096-1.102   c0.001,0,0.002,0,0.003,0c0.605,0,1.097,0.49,1.099,1.096c0.004,1.698,0.096,3.034,0.287,4.208c0.097,0.599-0.31,1.163-0.909,1.261   C286.261,58.092,286.201,58.096,286.143,58.096z M236.554,56.336c-0.419,0-0.818-0.239-1.002-0.645   c-0.25-0.553-0.005-1.204,0.547-1.455c0.694-0.314,1.396-1.377,1.877-2.84c0.19-0.577,0.808-0.892,1.387-0.702   c0.577,0.19,0.891,0.81,0.702,1.386c-0.699,2.129-1.757,3.566-3.057,4.157C236.86,56.305,236.705,56.336,236.554,56.336z    M233.143,54.439c-0.451,0-0.872-0.279-1.035-0.728c-0.28-0.779-0.422-1.713-0.422-2.775c0-0.648,0.054-1.355,0.159-2.101   c0.085-0.601,0.635-1.016,1.242-0.935c0.601,0.085,1.019,0.641,0.935,1.242c-0.09,0.636-0.137,1.237-0.137,1.794   c0,0.808,0.099,1.492,0.293,2.033c0.205,0.571-0.091,1.2-0.663,1.406C233.392,54.418,233.266,54.439,233.143,54.439z    M187.91,53.692c-1.449,0-2.558-0.974-3.045-2.673c-0.166-0.583,0.172-1.191,0.755-1.359c0.582-0.158,1.191,0.172,1.359,0.755   c0.308,1.079,0.76,1.079,0.93,1.079c0.392,0,0.732-0.055,1.012-0.162c0.562-0.217,1.201,0.065,1.42,0.632   c0.218,0.566-0.065,1.202-0.632,1.42C189.178,53.588,188.572,53.692,187.91,53.692z M313.84,53.618   c-0.588,0-1.076-0.467-1.097-1.059c-0.047-1.318-0.25-2.703-0.603-4.118c-0.148-0.589,0.21-1.185,0.799-1.332   c0.583-0.149,1.185,0.209,1.332,0.799c0.391,1.562,0.615,3.1,0.667,4.571c0.023,0.607-0.452,1.116-1.058,1.138   C313.866,53.618,313.853,53.618,313.84,53.618z M191.048,49.791c-0.556,0-1.033-0.42-1.092-0.985   c-0.113-1.09-0.555-2.382-1.277-3.736c-0.287-0.535-0.084-1.201,0.452-1.486c0.533-0.285,1.2-0.084,1.486,0.452   c0.855,1.601,1.382,3.172,1.525,4.543c0.063,0.603-0.375,1.144-0.979,1.206C191.124,49.789,191.085,49.791,191.048,49.791z    M285.957,49.321c-0.015,0-0.03,0-0.045-0.001c-0.606-0.024-1.079-0.534-1.054-1.142l0.018-0.469   c0.052-1.279,0.104-2.583,0.123-3.898c0.01-0.601,0.499-1.082,1.099-1.082c0.005,0,0.011,0,0.017,0   c0.606,0.01,1.09,0.509,1.082,1.116c-0.02,1.332-0.073,2.655-0.124,3.951l-0.019,0.469   C287.03,48.857,286.544,49.321,285.957,49.321z M239.771,48.518c-0.019,0-0.038,0-0.057-0.001   c-0.606-0.031-1.072-0.547-1.042-1.154c0.017-0.339,0.027-0.686,0.027-1.038c0.001-1.024-0.074-2.079-0.224-3.138   c-0.085-0.6,0.334-1.157,0.935-1.242c0.605-0.08,1.157,0.334,1.242,0.935c0.164,1.16,0.247,2.32,0.246,3.446   c0,0.39-0.01,0.773-0.029,1.148C240.838,48.062,240.352,48.518,239.771,48.518z M149.117,47.724c-0.127,0-0.256-0.023-0.382-0.069   c-0.569-0.211-0.86-0.842-0.648-1.411c0.027-0.073,0.673-1.804,1.992-4.132c0.3-0.527,0.967-0.713,1.498-0.414   c0.528,0.299,0.714,0.97,0.414,1.498c-1.226,2.162-1.837,3.795-1.844,3.811C149.983,47.451,149.563,47.724,149.117,47.724z    M185.802,47.446c-0.047,0-0.094-0.003-0.143-0.01c-0.602-0.078-1.026-0.629-0.948-1.231c0.181-1.399,0.516-2.904,0.993-4.47   c0.058-0.189,0.161-0.35,0.294-0.476c-0.794-0.907-1.682-1.782-2.642-2.608c-0.46-0.396-0.513-1.089-0.118-1.55   c0.398-0.463,1.091-0.512,1.55-0.118c1.186,1.019,2.27,2.111,3.22,3.244c0.391,0.465,0.331,1.158-0.135,1.547   c-0.015,0.013-0.03,0.025-0.045,0.036c0.041,0.18,0.036,0.375-0.02,0.563c-0.442,1.451-0.75,2.834-0.918,4.113   C186.818,47.043,186.346,47.446,185.802,47.446z M233.988,45.822c-0.116,0-0.235-0.018-0.351-0.058   c-0.575-0.194-0.884-0.818-0.69-1.392c0.458-1.359,1.035-2.769,1.714-4.193c0.26-0.546,0.918-0.781,1.465-0.518   c0.547,0.261,0.78,0.916,0.518,1.465c-0.641,1.345-1.185,2.673-1.615,3.948C234.875,45.533,234.446,45.822,233.988,45.822z    M286.003,40.533c-0.573,0-1.056-0.444-1.096-1.025c-0.104-1.538-0.291-2.909-0.571-4.19c-0.13-0.593,0.246-1.179,0.838-1.308   c0.599-0.135,1.178,0.246,1.308,0.838c0.304,1.388,0.505,2.863,0.618,4.511c0.041,0.605-0.416,1.129-1.023,1.171   C286.054,40.532,286.028,40.533,286.003,40.533z M153.445,40.074c-0.231,0-0.464-0.073-0.662-0.223   c-0.484-0.366-0.579-1.055-0.212-1.539c0.959-1.268,1.984-2.418,3.046-3.417c0.442-0.417,1.136-0.397,1.553,0.046   c0.416,0.442,0.396,1.138-0.046,1.553c-0.972,0.915-1.914,1.974-2.801,3.144C154.106,39.924,153.777,40.074,153.445,40.074z    M238.566,39.858c-0.463,0-0.893-0.294-1.044-0.757c-0.173-0.527-0.364-1.048-0.572-1.561c-0.18-0.192-0.283-0.441-0.296-0.698   c-0.241-0.545-0.502-1.08-0.781-1.602c-0.287-0.535-0.085-1.201,0.451-1.487c0.536-0.287,1.2-0.084,1.487,0.451   c0.044,0.083,0.088,0.165,0.131,0.249c0.45-0.67,0.916-1.326,1.397-1.967c0.364-0.484,1.051-0.584,1.539-0.219   c0.485,0.364,0.583,1.053,0.219,1.539c-0.727,0.968-1.421,1.978-2.069,3.009c0.211,0.528,0.406,1.062,0.583,1.602   c0.189,0.576-0.126,1.198-0.702,1.386C238.795,39.841,238.679,39.858,238.566,39.858z M188.298,39.038   c-0.149,0-0.3-0.03-0.445-0.094c-0.555-0.247-0.804-0.897-0.558-1.451c0.612-1.375,1.31-2.727,2.077-4.021   c0.31-0.52,0.983-0.693,1.506-0.385c0.522,0.309,0.694,0.983,0.385,1.506c-0.722,1.22-1.382,2.497-1.958,3.794   C189.121,38.796,188.72,39.038,188.298,39.038z M180.538,36.307c-0.201,0-0.405-0.055-0.587-0.171   c-1.184-0.749-2.439-1.427-3.731-2.014c-0.553-0.251-0.796-0.903-0.545-1.455c0.249-0.551,0.898-0.801,1.455-0.545   c1.383,0.629,2.728,1.354,3.997,2.158c0.512,0.324,0.665,1.003,0.34,1.516C181.258,36.127,180.902,36.307,180.538,36.307z    M159.862,34.136c-0.376,0-0.742-0.192-0.947-0.539c-0.309-0.522-0.137-1.197,0.385-1.506c1.383-0.82,2.834-1.434,4.312-1.823   c0.579-0.156,1.187,0.194,1.342,0.782c0.155,0.586-0.195,1.188-0.782,1.342c-1.281,0.338-2.543,0.872-3.752,1.589   C160.245,34.087,160.052,34.136,159.862,34.136z M172.564,32.673c-0.102,0-0.207-0.014-0.31-0.045   c-1.375-0.405-2.738-0.633-4.052-0.68c-0.606-0.021-1.081-0.53-1.059-1.136c0.02-0.607,0.571-1.106,1.136-1.059   c1.499,0.053,3.046,0.311,4.595,0.768c0.583,0.172,0.915,0.782,0.744,1.364C173.477,32.363,173.039,32.673,172.564,32.673z    M234.439,32.148c-0.325,0-0.648-0.144-0.865-0.42c-0.856-1.088-1.823-2.118-2.873-3.063c-0.451-0.406-0.488-1.1-0.082-1.552   c0.406-0.45,1.101-0.485,1.552-0.082c1.143,1.028,2.196,2.151,3.13,3.337c0.375,0.476,0.293,1.168-0.185,1.543   C234.917,32.07,234.676,32.148,234.439,32.148z M284.035,32.019c-0.416,0-0.813-0.236-0.999-0.639   c-0.579-1.257-1.312-2.423-2.178-3.464c-0.388-0.467-0.325-1.16,0.142-1.547c0.468-0.39,1.161-0.323,1.547,0.142   c0.989,1.19,1.825,2.519,2.485,3.949c0.254,0.552,0.013,1.204-0.538,1.458C284.345,31.987,284.189,32.019,284.035,32.019z    M192.781,31.492c-0.234,0-0.47-0.075-0.671-0.229c-0.48-0.371-0.569-1.061-0.199-1.542c0.943-1.222,1.957-2.366,3.012-3.4   c0.435-0.427,1.129-0.416,1.555,0.015c0.424,0.434,0.417,1.13-0.016,1.555c-0.984,0.963-1.93,2.03-2.811,3.173   C193.435,31.345,193.11,31.492,192.781,31.492z M243.024,30.865c-0.266,0-0.533-0.096-0.744-0.29   c-0.447-0.411-0.475-1.106-0.065-1.553c1.04-1.13,2.129-2.191,3.238-3.152c0.458-0.398,1.15-0.349,1.551,0.109   c0.397,0.458,0.348,1.153-0.111,1.551c-1.046,0.907-2.075,1.91-3.06,2.979C243.616,30.746,243.32,30.865,243.024,30.865z    M227.948,26.286c-0.205,0-0.411-0.057-0.596-0.176c-1.15-0.745-2.4-1.428-3.713-2.034c-0.552-0.253-0.793-0.906-0.539-1.457   c0.252-0.552,0.904-0.797,1.457-0.539c1.408,0.648,2.75,1.383,3.988,2.184c0.51,0.331,0.656,1.011,0.326,1.52   C228.661,26.109,228.308,26.286,227.948,26.286z M199.061,25.389c-0.346,0-0.686-0.162-0.899-0.466   c-0.35-0.496-0.231-1.182,0.265-1.531c1.275-0.898,2.613-1.67,3.977-2.292c0.551-0.254,1.203-0.009,1.456,0.544   c0.251,0.553,0.008,1.204-0.544,1.456c-1.241,0.566-2.46,1.268-3.623,2.088C199.501,25.324,199.28,25.389,199.061,25.389z    M278.497,25.326c-0.224,0-0.452-0.069-0.647-0.211c-1.062-0.776-2.274-1.485-3.601-2.107c-0.549-0.256-0.787-0.911-0.529-1.461   c0.258-0.549,0.912-0.788,1.461-0.529c1.455,0.68,2.79,1.462,3.966,2.321c0.49,0.358,0.597,1.045,0.239,1.536   C279.17,25.17,278.836,25.326,278.497,25.326z M249.666,25.129c-0.355,0-0.704-0.172-0.915-0.489   c-0.337-0.505-0.2-1.188,0.305-1.524c1.29-0.86,2.623-1.614,3.962-2.244c0.547-0.261,1.202-0.024,1.463,0.527   c0.258,0.549,0.021,1.204-0.527,1.463c-1.242,0.583-2.479,1.285-3.679,2.083C250.086,25.069,249.875,25.129,249.666,25.129z    M220.003,22.595c-0.109,0-0.221-0.016-0.332-0.052l-0.744-0.228c-1.128-0.337-2.26-0.598-3.365-0.776   c-0.599-0.097-1.007-0.661-0.91-1.26c0.096-0.599,0.658-1.015,1.26-0.91c1.199,0.193,2.424,0.475,3.643,0.839l0.779,0.239   c0.578,0.182,0.899,0.801,0.716,1.379C220.902,22.295,220.47,22.595,220.003,22.595z M207.008,21.786   c-0.501,0-0.953-0.344-1.07-0.853c-0.136-0.591,0.234-1.182,0.825-1.317c1.486-0.341,3.023-0.532,4.568-0.569   c0.605-0.044,1.11,0.466,1.125,1.073c0.014,0.606-0.467,1.11-1.073,1.125c-1.397,0.032-2.786,0.205-4.128,0.513   C207.173,21.778,207.09,21.786,207.008,21.786z M270.606,21.565c-0.101,0-0.203-0.014-0.305-0.043   c-1.368-0.396-2.754-0.67-4.118-0.815c-0.603-0.063-1.041-0.605-0.977-1.208c0.062-0.603,0.585-1.046,1.208-0.977   c1.492,0.158,3.005,0.457,4.495,0.887c0.584,0.168,0.92,0.778,0.751,1.361C271.522,21.253,271.083,21.565,270.606,21.565z    M257.596,21.437c-0.482,0-0.924-0.32-1.058-0.807c-0.162-0.585,0.181-1.19,0.767-1.351c1.487-0.411,3.007-0.683,4.516-0.808   c0.617-0.065,1.135,0.399,1.186,1.003c0.05,0.604-0.398,1.135-1.003,1.186c-1.374,0.115-2.757,0.363-4.114,0.737   C257.792,21.424,257.694,21.437,257.596,21.437z"/>
	<path style="fill:#241726;" d="M239.194,487.965l0.085-1.096l-0.089,1.096c-1.539-0.1-3.029-0.27-4.455-0.508   c-0.599-0.1-1.003-0.665-0.904-1.264c0.1-0.599,0.669-1.009,1.264-0.904c1.353,0.225,2.77,0.387,4.21,0.481L239.194,487.965z    M243.668,487.941c-0.568,0-1.05-0.437-1.095-1.013c-0.047-0.604,0.405-1.133,1.01-1.182c1.418-0.112,2.816-0.334,4.156-0.662   c0.579-0.148,1.184,0.217,1.329,0.807c0.144,0.589-0.217,1.184-0.807,1.329c-1.454,0.355-2.97,0.597-4.506,0.718   C243.726,487.94,243.697,487.941,243.668,487.941z M230.634,486.515c-0.101,0-0.202-0.014-0.303-0.042   c-1.471-0.421-2.908-0.928-4.268-1.512c-0.558-0.239-0.817-0.885-0.577-1.442c0.238-0.559,0.886-0.817,1.442-0.577   c1.276,0.546,2.624,1.024,4.006,1.418c0.584,0.166,0.922,0.775,0.755,1.359C231.551,486.201,231.111,486.515,230.634,486.515z    M252.157,485.849c-0.424,0-0.827-0.246-1.008-0.659c-0.244-0.556,0.011-1.204,0.567-1.447c1.277-0.559,2.517-1.234,3.684-2.009   c0.505-0.339,1.188-0.199,1.523,0.308c0.336,0.505,0.197,1.188-0.308,1.523c-1.274,0.845-2.625,1.582-4.019,2.191   C252.453,485.82,252.302,485.849,252.157,485.849z M222.586,483.051c-0.193,0-0.388-0.05-0.566-0.158   c-1.302-0.782-2.553-1.663-3.718-2.616c-0.47-0.384-0.54-1.076-0.156-1.546c0.386-0.47,1.075-0.539,1.546-0.156   c1.085,0.887,2.249,1.706,3.461,2.436c0.52,0.312,0.688,0.987,0.375,1.508C223.322,482.861,222.959,483.051,222.586,483.051z    M259.45,481.029c-0.294,0-0.588-0.118-0.805-0.35c-0.413-0.444-0.388-1.14,0.056-1.554c1.013-0.942,1.978-1.989,2.865-3.107   c0.378-0.476,1.068-0.557,1.543-0.178c0.475,0.377,0.556,1.068,0.178,1.543c-0.956,1.206-1.995,2.333-3.089,3.351   C259.986,480.931,259.718,481.029,259.45,481.029z M289.118,480.574c-0.313,0-0.624-0.006-0.931-0.02   c-0.606-0.027-1.076-0.54-1.05-1.146c0.027-0.605,0.564-1.057,1.146-1.05c1.35,0.058,2.757-0.028,4.153-0.255   c0.599-0.102,1.163,0.31,1.261,0.909c0.097,0.599-0.31,1.163-0.909,1.261C291.561,480.471,290.326,480.573,289.118,480.574z    M283.902,479.902c-0.092,0-0.187-0.012-0.28-0.036c-1.463-0.383-2.915-0.93-4.314-1.625c-0.544-0.269-0.766-0.928-0.496-1.472   c0.268-0.543,0.928-0.765,1.472-0.496c1.266,0.628,2.577,1.121,3.896,1.468c0.587,0.153,0.938,0.754,0.783,1.341   C284.835,479.576,284.389,479.902,283.902,479.902z M296.866,479.202c-0.456,0-0.882-0.285-1.039-0.742   c-0.197-0.573,0.107-1.199,0.681-1.396c1.33-0.458,2.626-1.026,3.853-1.689c0.537-0.29,1.201-0.089,1.49,0.444   c0.289,0.534,0.089,1.201-0.444,1.49c-1.333,0.72-2.74,1.336-4.183,1.833C297.105,479.182,296.984,479.202,296.866,479.202z    M215.811,477.504c-0.298,0-0.596-0.121-0.812-0.358c-1.015-1.115-1.962-2.318-2.813-3.576c-0.34-0.503-0.208-1.186,0.294-1.526   c0.503-0.341,1.186-0.206,1.526,0.294c0.792,1.171,1.673,2.29,2.617,3.327c0.409,0.449,0.377,1.144-0.072,1.553   C216.34,477.409,216.075,477.504,215.811,477.504z M191.586,476.921c-1.235,0-2.525-0.057-3.832-0.168   c-0.605-0.052-1.053-0.584-1.001-1.188c0.05-0.605,0.556-1.068,1.188-1.001c1.246,0.106,2.473,0.16,3.645,0.16l0.635-0.005   c0.582-0.065,1.106,0.475,1.115,1.083c0.009,0.606-0.475,1.105-1.083,1.115L191.586,476.921z M196.615,476.585   c-0.54,0-1.011-0.397-1.087-0.947c-0.084-0.601,0.335-1.157,0.936-1.241c1.434-0.201,2.826-0.497,4.137-0.879   c0.579-0.171,1.194,0.164,1.363,0.747c0.17,0.583-0.164,1.193-0.747,1.363c-1.413,0.412-2.909,0.731-4.448,0.945   C196.717,476.582,196.666,476.585,196.615,476.585z M183.482,476.189c-0.058,0-0.118-0.005-0.178-0.016   c0,0-0.207-0.035-0.208-0.035c-1.477-0.261-2.885-0.597-4.186-0.997c-0.581-0.179-0.906-0.794-0.728-1.374   c0.178-0.582,0.791-0.91,1.374-0.728c1.216,0.375,2.535,0.689,3.92,0.934c0.597,0.105,1.098,0.691,0.994,1.288   C184.376,475.798,183.992,476.189,183.482,476.189z M276.056,476.056c-0.228,0-0.456-0.07-0.654-0.216   c-1.187-0.88-2.345-1.887-3.443-2.991c-0.428-0.43-0.426-1.127,0.004-1.554c0.43-0.429,1.126-0.428,1.554,0.004   c1.021,1.027,2.095,1.961,3.194,2.774c0.487,0.362,0.589,1.05,0.229,1.538C276.725,475.903,276.393,476.056,276.056,476.056z    M304.564,475.049c-0.329,0-0.655-0.147-0.871-0.428c-0.37-0.481-0.281-1.171,0.2-1.541c1.092-0.841,2.148-1.793,3.138-2.829   c0.419-0.439,1.114-0.455,1.554-0.034c0.438,0.42,0.454,1.115,0.034,1.554c-1.066,1.115-2.205,2.141-3.385,3.05   C305.034,474.974,304.798,475.049,304.564,475.049z M264.91,474.175c-0.19,0-0.382-0.049-0.557-0.152   c-0.523-0.308-0.696-0.982-0.388-1.505c0.714-1.211,1.359-2.488,1.919-3.796c0.238-0.558,0.884-0.817,1.442-0.577   c0.558,0.238,0.817,0.884,0.577,1.442c-0.596,1.394-1.285,2.756-2.045,4.047C265.652,473.982,265.286,474.175,264.91,474.175z    M205.004,474.098c-0.407,0-0.797-0.226-0.988-0.616c-0.266-0.545-0.041-1.203,0.504-1.47c1.275-0.623,2.473-1.358,3.559-2.182   c0.483-0.368,1.172-0.27,1.54,0.211c0.367,0.484,0.271,1.173-0.211,1.54c-1.2,0.91-2.519,1.719-3.921,2.405   C205.33,474.062,205.166,474.098,205.004,474.098z M175.184,473.555c-0.171,0-0.343-0.04-0.504-0.123   c-1.413-0.733-2.703-1.598-3.834-2.57c-0.459-0.395-0.512-1.089-0.116-1.55c0.396-0.458,1.09-0.511,1.55-0.116   c1.001,0.862,2.15,1.63,3.412,2.285c0.539,0.279,0.749,0.942,0.47,1.481C175.966,473.339,175.582,473.555,175.184,473.555z    M210.91,470.244c-0.409,0-0.802-0.229-0.991-0.621c-0.665-1.38-1.228-2.806-1.672-4.24c-0.179-0.579,0.145-1.195,0.724-1.375   c0.583-0.177,1.197,0.145,1.375,0.724c0.23,0.743,0.495,1.483,0.791,2.215c0.898-1.059,1.66-2.198,2.266-3.385   c0.276-0.541,0.934-0.757,1.478-0.48c0.541,0.276,0.755,0.937,0.48,1.478c-0.691,1.356-1.562,2.653-2.587,3.855   c-0.214,0.25-0.516,0.381-0.822,0.385c0.172,0.516-0.063,1.091-0.566,1.334C211.232,470.21,211.07,470.244,210.91,470.244z    M269.856,469.859c-0.331,0-0.658-0.148-0.875-0.431c-0.902-1.183-1.754-2.446-2.528-3.753c-0.309-0.523-0.136-1.197,0.385-1.506   c0.205-0.121,0.432-0.175,0.654-0.149c0.302-1.168,0.531-2.327,0.684-3.457c0.082-0.601,0.634-1.017,1.236-0.942   c0.602,0.082,1.023,0.635,0.942,1.236c-0.196,1.455-0.512,2.954-0.936,4.454c-0.055,0.196-0.16,0.365-0.298,0.497   c0.511,0.788,1.05,1.553,1.609,2.285c0.368,0.483,0.276,1.172-0.206,1.541C270.323,469.785,270.089,469.859,269.856,469.859z    M310.634,468.731c-0.223,0-0.45-0.068-0.644-0.209c-0.491-0.356-0.601-1.043-0.245-1.535c0.817-1.126,1.585-2.337,2.285-3.599   c0.294-0.531,0.965-0.723,1.494-0.429c0.531,0.294,0.723,0.964,0.429,1.494c-0.743,1.34-1.56,2.627-2.429,3.825   C311.31,468.573,310.974,468.731,310.634,468.731z M168.642,467.885c-0.348,0-0.69-0.164-0.904-0.472   c-0.85-1.224-1.565-2.553-2.185-4.061c-0.231-0.561,0.038-1.203,0.599-1.434c0.559-0.225,1.203,0.038,1.434,0.599   c0.559,1.359,1.199,2.55,1.957,3.642c0.347,0.498,0.223,1.184-0.276,1.529C169.076,467.822,168.857,467.885,168.642,467.885z    M265.384,462.304c-0.423,0-0.825-0.245-1.007-0.655c-0.644-1.458-1.165-2.9-1.551-4.283c-0.163-0.585,0.178-1.191,0.763-1.353   c0.586-0.164,1.19,0.178,1.353,0.763c0.357,1.282,0.843,2.623,1.445,3.985c0.245,0.556-0.006,1.204-0.561,1.45   C265.682,462.274,265.532,462.304,265.384,462.304z M208.338,461.869c-0.543,0-1.014-0.401-1.088-0.953   c-0.133-1-0.201-1.975-0.2-2.895c0-0.612,0.03-1.197,0.087-1.75c0.062-0.603,0.597-1.037,1.207-0.98   c0.603,0.063,1.042,0.603,0.98,1.207c-0.05,0.481-0.076,0.991-0.076,1.524c-0.001,0.825,0.06,1.7,0.18,2.602   c0.08,0.602-0.342,1.155-0.943,1.235C208.436,461.866,208.386,461.869,208.338,461.869z M314.901,461.056   c-0.141,0-0.282-0.027-0.42-0.084c-0.561-0.232-0.827-0.874-0.596-1.435c0.973-2.357,1.362-3.989,1.366-4.005   c0.138-0.59,0.731-0.955,1.321-0.819c0.59,0.138,0.957,0.729,0.819,1.32c-0.017,0.073-0.427,1.807-1.476,4.343   C315.741,460.8,315.332,461.056,314.901,461.056z M215.838,461.027c-0.071,0-0.143-0.006-0.215-0.021   c-0.596-0.117-0.982-0.695-0.865-1.291c0.15-0.753,0.225-1.494,0.225-2.2c0-0.612-0.057-1.193-0.168-1.728   c-0.124-0.595,0.256-1.176,0.85-1.301c0.592-0.121,1.176,0.255,1.301,0.85c0.143,0.683,0.216,1.415,0.216,2.178   c0,0.849-0.09,1.733-0.266,2.627C216.812,460.664,216.352,461.027,215.838,461.027z M165.232,459.853   c-0.494,0-0.943-0.336-1.066-0.837c-0.321-1.303-0.597-2.703-0.87-4.406c-0.097-0.599,0.311-1.162,0.911-1.259   c0.592-0.104,1.162,0.311,1.259,0.911c0.264,1.642,0.529,2.987,0.834,4.23c0.145,0.589-0.216,1.185-0.805,1.329   C165.407,459.843,165.319,459.853,165.232,459.853z M269.464,457.422c-0.578,0-1.063-0.452-1.096-1.037   c-0.087-1.538-0.376-2.877-0.833-3.873c-0.254-0.552-0.012-1.204,0.539-1.457c0.554-0.255,1.204-0.012,1.457,0.539   c0.581,1.262,0.927,2.833,1.03,4.667c0.034,0.606-0.429,1.125-1.035,1.159C269.506,457.421,269.486,457.422,269.464,457.422z    M209.661,453.394c-0.252,0-0.507-0.086-0.713-0.263c-0.463-0.394-0.517-1.087-0.123-1.549c1.024-1.204,2.453-1.64,3.978-1.207   c0.503,0.144,0.978,0.356,1.411,0.632c0.512,0.326,0.662,1.006,0.337,1.517c-0.326,0.514-1.006,0.662-1.517,0.337   c-0.254-0.162-0.534-0.288-0.833-0.372c-0.686-0.194-1.228-0.039-1.704,0.518C210.28,453.263,209.971,453.394,209.661,453.394z    M263.845,454.338c-0.171,0.185-0.407,0.313-0.677,0.344c-0.603,0.072-1.149-0.359-1.22-0.961   c-0.188-1.569,0.463-2.914,1.817-3.739c0.447-0.272,0.926-0.475,1.423-0.606c0.587-0.154,1.188,0.197,1.342,0.784   c0.156,0.589-0.197,1.188-0.784,1.342c-0.292,0.077-0.574,0.197-0.839,0.358c-0.608,0.371-0.862,0.875-0.777,1.603   C264.169,453.794,264.055,454.11,263.845,454.338z M163.746,451.18c-0.54,0-1.01-0.397-1.087-0.947   c-0.206-1.465-0.416-2.906-0.679-4.294c-0.113-0.597,0.279-1.172,0.875-1.285c0.604-0.106,1.173,0.279,1.285,0.875   c0.269,1.422,0.486,2.897,0.696,4.399c0.085,0.601-0.335,1.156-0.936,1.241C163.848,451.177,163.796,451.18,163.746,451.18z    M161.985,442.573c-0.458,0-0.885-0.289-1.041-0.746c-0.487-1.438-1.068-2.633-1.774-3.657c-0.346-0.499-0.22-1.184,0.279-1.528   c0.499-0.347,1.185-0.222,1.528,0.279c0.825,1.193,1.495,2.567,2.049,4.2c0.194,0.575-0.114,1.199-0.688,1.394   C162.221,442.555,162.102,442.573,161.985,442.573z M156.972,435.614c-0.206,0-0.414-0.058-0.6-0.179   c-1.042-0.679-2.275-1.207-3.666-1.569c-0.588-0.152-0.94-0.752-0.788-1.339c0.152-0.588,0.751-0.945,1.339-0.788   c1.623,0.421,3.075,1.045,4.316,1.857c0.508,0.332,0.651,1.012,0.319,1.521C157.683,435.439,157.331,435.614,156.972,435.614z"/>
	<g>
		<path style="fill:#52AFA6;" d="M385.478,163.415c0,0,70.3,1.599,72.736-2.399c2.436-3.998-6.96-22.39-12.529-24.789    c-5.568-2.399-7.308,15.193-14.617,13.594c-7.308-1.599-8.7-12.794-13.225-11.595s-10.093,12.794-13.225,13.594    s-8.7-11.994-13.921-11.595c-5.22,0.4-8.7,13.594-12.877,13.194c-4.176-0.4-11.137-15.193-14.617-11.595    s-10.419,22.39-6.949,22.79C359.724,165.014,385.478,163.415,385.478,163.415z"/>
		<path style="fill:#241726;" d="M406.933,161.404c-4.784,0-9.547-4.645-12.884-7.9c-0.896-0.875-1.67-1.629-2.257-2.104    c-0.752-0.616-2.563,1.509-4.161,3.377c-2.408,2.817-5.138,6.01-8.57,6.274c-5.147,0.392-9.347-4.303-11.367-6.561    c-0.185-0.206-0.392-0.438-0.572-0.632c-0.906,1.07-2.673,4.172-4.006,6.885c-0.268,0.543-0.928,0.765-1.47,0.502    c-0.545-0.267-0.769-0.926-0.502-1.47c2.533-5.16,4.415-7.958,5.595-8.32c0.377-0.119,0.767-0.077,1.097,0.111    c0.376,0.215,0.73,0.603,1.497,1.459c1.921,2.148,5.516,6.152,9.558,5.835c2.524-0.194,4.939-3.019,7.069-5.511    c2.358-2.759,4.797-5.618,7.214-3.657c0.666,0.54,1.474,1.327,2.409,2.24c3.579,3.489,8.99,8.763,13.303,6.866    c3.056-1.341,4.989-4.544,6.542-7.116c1.476-2.447,2.87-4.758,4.911-3.61c1.027,0.577,1.667,1.765,2.408,3.142    c1.433,2.661,3.216,5.974,8.435,5.974c4.565,0,7.146-3.551,9.03-6.145c1.4-1.925,2.846-3.922,4.73-2.808    c1.773,1.042,4.007,4.004,5.802,6.383c0.743,0.985,1.667,2.211,1.948,2.429c0.543,0.27,0.725,0.908,0.454,1.451    c-0.273,0.543-0.968,0.738-1.513,0.469c-0.537-0.268-1.085-0.958-2.643-3.024c-1.5-1.989-3.767-4.992-5.162-5.813    c-0.307,0.099-1.192,1.317-1.838,2.206c-2.04,2.807-5.123,7.051-10.809,7.051c-6.532,0-8.842-4.291-10.371-7.13    c-0.554-1.03-1.079-2.004-1.55-2.27c-0.333,0.147-1.268,1.698-1.952,2.831c-1.623,2.688-3.845,6.371-7.539,7.994    C408.831,161.222,407.882,161.404,406.933,161.404z"/>
	</g>
	<g>
		<path style="fill:#52AFA6;" d="M30.168,217.627c0,0,70.3,1.599,72.736-2.399c2.436-3.998-6.96-22.39-12.529-24.789    s-7.308,15.193-14.617,13.594c-7.308-1.599-8.7-12.794-13.225-11.595s-10.093,12.794-13.225,13.594    c-3.132,0.8-8.7-11.994-13.921-11.595c-5.22,0.4-8.7,13.594-12.877,13.194c-4.176-0.4-11.137-15.193-14.617-11.595    s-10.419,22.39-6.949,22.79S30.168,217.627,30.168,217.627z"/>
		<path style="fill:#241726;" d="M51.623,215.616c-4.784,0.001-9.546-4.645-12.884-7.9c-0.895-0.874-1.669-1.628-2.256-2.103    c-0.759-0.614-2.562,1.508-4.162,3.377c-2.408,2.817-5.138,6.01-8.57,6.274c-5.126,0.409-9.344-4.301-11.365-6.56    c-0.186-0.207-0.393-0.44-0.573-0.633c-0.906,1.069-2.673,4.171-4.006,6.884c-0.267,0.545-0.926,0.766-1.47,0.502    c-0.545-0.267-0.769-0.926-0.502-1.47c2.533-5.159,4.414-7.958,5.593-8.32c0.38-0.117,0.767-0.078,1.098,0.111    c0.376,0.215,0.731,0.603,1.498,1.462c1.922,2.148,5.506,6.153,9.558,5.834c2.523-0.194,4.938-3.019,7.069-5.511    c2.358-2.759,4.795-5.616,7.214-3.657c0.666,0.54,1.473,1.327,2.408,2.239c3.579,3.49,8.989,8.773,13.304,6.866    c3.056-1.341,4.989-4.543,6.542-7.116c1.476-2.446,2.869-4.758,4.911-3.609c1.027,0.577,1.667,1.765,2.407,3.141    c1.433,2.661,3.216,5.974,8.436,5.974c4.565,0,7.146-3.551,9.03-6.145c1.398-1.925,2.847-3.918,4.729-2.809    c1.773,1.043,4.007,4.004,5.801,6.383c0.744,0.985,1.668,2.211,1.95,2.429c0.543,0.272,0.725,0.909,0.454,1.452    c-0.272,0.542-0.968,0.74-1.513,0.469c-0.537-0.268-1.086-0.959-2.645-3.026c-1.499-1.987-3.765-4.99-5.161-5.811    c-0.307,0.099-1.191,1.317-1.838,2.206c-2.039,2.807-5.122,7.051-10.808,7.051c-6.532,0-8.843-4.291-10.371-7.131    c-0.555-1.029-1.078-2.002-1.55-2.266c-0.333,0.146-1.268,1.697-1.952,2.829c-1.623,2.689-3.845,6.371-7.539,7.994    C53.522,215.433,52.572,215.616,51.623,215.616z"/>
	</g>
	<polygon style="fill:#EEBA00;" points="122.697,454.658 136.605,448.714 131.924,462.348 140.281,472.553 128.456,474.663    120.815,485.939 116.497,474.174 102.279,471.206 114.358,462.232 111.165,448.924  "/>
	<polygon style="fill:#EEBA00;" points="326.359,10.704 340.267,4.76 335.586,18.395 343.942,28.599 332.118,30.71 324.477,41.985    320.159,30.221 305.941,27.252 318.02,18.278 314.827,4.971  "/>
	<path style="fill:#241726;" d="M59.009,433.72l-0.03,0.01c-3.971,1.335-8.287-0.81-9.623-4.783   c-1.33-3.955,0.801-8.266,4.751-9.612c1.955-0.657,4.017-0.517,5.835,0.387c1.816,0.903,3.174,2.46,3.82,4.383   C65.089,428.06,62.957,432.374,59.009,433.72z M54.837,421.407c-2.83,0.965-4.343,4.029-3.399,6.839   c0.949,2.824,4.018,4.349,6.839,3.401l0.377,1.033l-0.355-1.04c2.806-0.956,4.321-4.021,3.378-6.834   c-0.459-1.367-1.424-2.474-2.717-3.115C57.669,421.047,56.205,420.948,54.837,421.407z"/>
	<path style="fill:#241726;" d="M135.932,24.931l-0.03,0.01c-3.971,1.335-8.287-0.81-9.623-4.783   c-1.33-3.955,0.801-8.266,4.751-9.612c1.955-0.657,4.017-0.517,5.835,0.387c1.816,0.903,3.174,2.46,3.82,4.383   C142.012,19.271,139.879,23.585,135.932,24.931z M131.76,12.618c-2.83,0.965-4.343,4.029-3.399,6.839   c0.949,2.824,4.018,4.349,6.839,3.401l0.377,1.033l-0.355-1.04c2.806-0.956,4.321-4.021,3.378-6.834   c-0.459-1.367-1.424-2.474-2.717-3.115C134.592,12.258,133.127,12.159,131.76,12.618z"/>
	<path style="fill:#241726;" d="M487.578,277.677l-0.03,0.01c-3.971,1.335-8.287-0.81-9.623-4.783   c-1.33-3.955,0.801-8.266,4.751-9.612c1.955-0.657,4.017-0.517,5.835,0.387c1.816,0.903,3.174,2.46,3.82,4.383   C493.658,272.017,491.526,276.331,487.578,277.677z M483.407,265.364c-2.83,0.965-4.343,4.029-3.399,6.839   c0.949,2.824,4.018,4.349,6.839,3.401l0.377,1.033l-0.355-1.04c2.806-0.956,4.321-4.021,3.378-6.834   c-0.459-1.367-1.424-2.474-2.717-3.115C486.239,265.004,484.774,264.905,483.407,265.364z"/>
</g>















</svg>
