<?xml version="1.0" encoding="UTF-8"?>
<!-- Generator: Adobe Illustrator 25.1.0, SVG Export Plug-In . SVG Version: 6.00 Build 0)  -->
<svg xmlns="http://www.w3.org/2000/svg" xmlns:xlink="http://www.w3.org/1999/xlink" version="1.1" id="Capa_1" x="0px" y="0px" viewBox="0 0 500 500" style="enable-background:new 0 0 500 500;" xml:space="preserve" width="512" height="512">
<g>
	<path style="fill:#251626;" d="M190.659,304.785c-6.417-22.674-0.068-31.645,6.39-35.18c1.492-0.817,3.087-1.379,4.705-1.729   c-2.708-5.092-5.044-12.151-6.423-21.233c-1.914-12.61,2.147-18.504,5.892-21.229c0.247-0.179,0.5-0.35,0.757-0.512   c-2.97-3.772-5.404-9.302-6.213-17.403c-1.718-17.172,1.788-25.295,5.328-29.128c-2.042-4.135-3.486-10.056-3.2-18.512   c0.198-5.828,1.447-10.066,3.163-13.147c-5.664-12.877-3.797-41.4,6.759-56.568c0.632-0.91,1.266-1.723,1.898-2.453   c-0.55-0.714-1.085-1.482-1.599-2.301c-7.578-12.089-9.111-32.357-3.348-44.256c2.636-5.442,6.985-8.728,12.064-9.296   c0.074-7.477,5.085-18.367,23.519-27.71c9.216-4.674,17.749-5.381,25.357-2.108c15.178,6.533,21.227,26.393,21.478,27.235   c0.156,0.527-0.144,1.081-0.671,1.239c-0.535,0.154-1.083-0.146-1.239-0.671c-0.058-0.198-6.026-19.805-20.354-25.973   c-7.047-3.031-15.007-2.338-23.672,2.054c-16.681,8.456-22.262,18.652-22.435,25.851c0.691,0.018,1.391,0.082,2.101,0.198   c4.567,0.743,8.28,3.398,8.64,6.178c0.123,0.953-0.064,2.729-2.702,3.902c-3.322,1.48-6.952-0.222-8.811-4.135   c-0.523-1.099-0.928-2.47-1.109-4.054c-3.27,0.395-7.485,2.198-10.371,8.158c-5.407,11.167-3.892,30.947,3.243,42.33   c0.387,0.619,0.819,1.257,1.297,1.891c6.186-5.985,11.931-4.293,13.754-3.511c3.486,1.496,5.68,4.742,5.102,7.551   c-0.266,1.295-1.576,4.312-7.963,4.312c-4.032,0-7.767-1.828-10.98-5.337c-0.519,0.613-1.041,1.292-1.564,2.042   c-9.095,13.069-12.219,40.291-7.121,53.456c3.597-4.849,8.374-5.925,10.383-6.16c5.236-0.617,10.148,1.673,11.118,5.217   c0.428,1.558,0.564,5.565-7.37,9.092c-6.752,2.999-10.887,0.344-13.167-2.412c-0.387-0.467-0.755-0.99-1.101-1.558   c-1.257,2.708-2.147,6.285-2.307,11.011c-0.265,7.751,0.965,13.206,2.731,17.035c1.01-0.79,1.959-1.27,2.713-1.562   c4.68-1.801,10.115,0.078,13.507,4.686c1.55,2.105,1.753,4.244,0.554,5.87c-1.581,2.144-5.209,2.764-8.831,1.507   c-1.702-0.591-5.47-2.389-8.461-7.265c-4.005,4.861-5.616,14.472-4.353,27.104c0.788,7.86,3.173,13.116,6.038,16.627   c6.407-2.91,14.863-1.502,20.636,1.385c2.801,1.4,2.809,3.062,2.564,3.927c-0.716,2.523-5.291,4.151-10.428,3.686   c-2.505-0.222-8.356-1.311-13.26-6.497c-0.309,0.185-0.609,0.383-0.901,0.595c-4.731,3.441-6.493,10.121-5.096,19.319   c1.402,9.243,3.816,16.3,6.524,21.2c5.756-0.624,11.418,1.198,13.604,3.665c1.175,1.325,1.332,2.809,0.43,4.073   c-1.546,2.163-3.752,3.034-6.221,2.443c-2.85-0.683-6.01-3.342-8.858-8.043c-1.62,0.298-3.241,0.833-4.775,1.671   c-8.228,4.505-10.156,16.185-5.427,32.892c0.15,0.529-0.158,1.08-0.689,1.229c-0.089,0.025-0.181,0.037-0.27,0.037   C191.182,305.51,190.784,305.225,190.659,304.785z M204.942,269.421c2.393,3.717,4.931,5.833,7.158,6.366   c1.663,0.391,3.064-0.16,4.135-1.665c0.15-0.208,0.498-0.696-0.298-1.593c-1.412-1.591-5.372-3.143-9.842-3.143   C205.714,269.385,205.329,269.397,204.942,269.421z M205.193,225.486c4.355,4.332,9.35,5.264,11.54,5.456   c4.571,0.399,7.998-1.058,8.333-2.245c0.13-0.457-0.443-1.056-1.537-1.603c-3.311-1.655-7.557-2.797-11.686-2.797   C209.529,224.297,207.249,224.655,205.193,225.486z M206.045,177.258c-0.901,0.346-1.735,0.844-2.503,1.482   c2.692,4.641,6.129,6.304,7.675,6.841c3.122,1.083,5.67,0.414,6.571-0.809c0.883-1.198,0.033-2.712-0.552-3.505   c-2.149-2.916-5.229-4.55-8.255-4.55C207.984,176.717,206.994,176.892,206.045,177.258z M212.944,140.553   c-1.863,0.218-6.431,1.278-9.642,6.328c0.461,0.869,0.969,1.648,1.527,2.322c2.677,3.241,6.318,3.863,10.823,1.86   c4.592-2.04,6.874-4.499,6.259-6.744c-0.55-2.007-3.583-3.853-7.489-3.853C213.942,140.466,213.448,140.495,212.944,140.553z    M212.376,87.768c2.359,2.612,5.555,4.814,9.619,4.814c3.466,0,5.656-0.992,6.012-2.721c0.383-1.871-1.344-4.207-3.935-5.32   c-0.628-0.268-1.817-0.663-3.371-0.663C218.488,83.878,215.53,84.676,212.376,87.768z M219.842,37.041   c1.391,2.927,3.879,4.207,6.203,3.171c1.111-0.494,1.628-1.109,1.535-1.826c-0.208-1.609-3.126-3.84-6.985-4.466   c-0.459-0.076-1.031-0.142-1.683-0.163C219.066,34.981,219.387,36.088,219.842,37.041z"/>
	<path style="fill:#F7C67C;" d="M251.82,300.724c0,0-4.731-266.36,36.75-271.794s171.744,45.298,149.335,53.346   c-22.408,8.048-104.131,9.978-104.131,9.978s11.072,285.478,3.675,307.132c-7.398,21.654-224.898,18.032-230.348,5.556   C94.395,375.853,114.989,291.211,251.82,300.724z"/>
	<path style="fill:#251626;" d="M330.783,70.459c4.803,0,7.889-12.361,8.479-14.935c0.123-0.535-0.212-1.07-0.747-1.192   c-0.55-0.132-1.072,0.214-1.194,0.747c-1.309,5.701-4.334,13.95-6.732,13.365c-2.27-0.504-3.674-9.393-3.674-17.339   c0-0.55-0.445-0.996-0.996-0.996s-0.996,0.445-0.996,0.996c0,3.027,0.253,18.177,5.234,19.284   C330.368,70.435,330.576,70.459,330.783,70.459z"/>
	<path style="fill:#251626;" d="M402.245,89.307c0.494,0,0.922-0.368,0.986-0.871c0.068-0.545-0.317-1.045-0.864-1.113   c-5.069-0.64-8.201-2.276-9.306-4.863c-1.846-4.32,2.4-10.132,2.443-10.191c0.327-0.442,0.235-1.066-0.206-1.393   c-0.443-0.325-1.064-0.237-1.393,0.206c-0.204,0.274-4.968,6.779-2.678,12.153c1.401,3.287,5.065,5.328,10.891,6.063   C402.161,89.305,402.202,89.307,402.245,89.307z"/>
	<path style="fill:#251626;" d="M370.349,91.707c0.177,0,0.354-0.047,0.515-0.144c0.471-0.284,0.62-0.897,0.336-1.367   c-10.494-17.384,10.126-41.085,10.336-41.322c0.364-0.412,0.325-1.043-0.088-1.406c-0.414-0.364-1.043-0.323-1.406,0.088   c-0.222,0.253-5.497,6.273-9.496,14.651c-5.365,11.239-5.728,21.274-1.05,29.021C369.683,91.536,370.012,91.707,370.349,91.707z"/>
	<path style="fill:#251626;" d="M429.844,80.99c0.498,0,0.93-0.375,0.988-0.883c0.572-5.022-6.475-11.142-6.775-11.398   c-0.42-0.358-1.048-0.311-1.404,0.105c-0.358,0.418-0.311,1.046,0.105,1.404c1.823,1.57,6.471,6.363,6.094,9.663   c-0.062,0.547,0.331,1.041,0.877,1.103C429.768,80.988,429.805,80.99,429.844,80.99z"/>
	<path style="fill:#F7C67C;" d="M287.319,39.638L245.75,12.42c0,0-4.454,17.32,0,27.218c4.454,9.897,38.105,6.433,38.105,6.433   L287.319,39.638z"/>
	<path style="fill:#251626;" d="M290.289,35.189c0.436,0,0.836-0.288,0.959-0.729l6.057-21.774c0.119-0.424-0.056-0.877-0.432-1.111   c-1.459-0.914-5.229-3.803-5.157-6.166c0.027-0.929,0.727-1.772,2.077-2.507c2.71-1.474,5.993-0.471,8.164,0.962   c2.268,1.499,3.688,3.595,3.532,5.215c-0.099,1.028-0.858,1.843-2.254,2.421c-0.372,0.154-0.615,0.517-0.615,0.92v21.774   c0,0.55,0.445,0.996,0.996,0.996s0.996-0.445,0.996-0.996V13.058c2.149-1.095,2.748-2.641,2.859-3.788   c0.228-2.37-1.506-5.144-4.417-7.068c-2.649-1.752-6.72-2.95-10.214-1.048c-2.017,1.098-3.066,2.51-3.116,4.198   c-0.097,3.303,3.844,6.376,5.468,7.499l-5.863,21.076c-0.148,0.529,0.161,1.078,0.692,1.225   C290.112,35.178,290.201,35.189,290.289,35.189z"/>
	<path style="fill:#251626;" d="M312.419,39.029c0.436,0,0.836-0.288,0.959-0.729l6.059-21.774c0.119-0.425-0.056-0.878-0.432-1.112   c-1.459-0.914-5.229-3.803-5.157-6.167c0.027-0.928,0.726-1.771,2.075-2.506c2.708-1.474,5.997-0.471,8.164,0.962   c2.268,1.499,3.688,3.594,3.532,5.214c-0.099,1.029-0.858,1.844-2.254,2.422c-0.372,0.154-0.615,0.517-0.615,0.92v21.775   c0,0.55,0.445,0.996,0.996,0.996s0.996-0.445,0.996-0.996V16.896c2.151-1.096,2.748-2.641,2.859-3.789   c0.228-2.369-1.506-5.143-4.415-7.067c-2.655-1.752-6.726-2.944-10.216-1.048c-2.017,1.098-3.064,2.51-3.114,4.197   c-0.099,3.303,3.844,6.377,5.468,7.5l-5.865,21.077c-0.148,0.529,0.161,1.078,0.692,1.225   C312.242,39.018,312.331,39.029,312.419,39.029z"/>
	<path style="fill:#251626;" d="M270.974,44.832c1,0,2.042-0.08,3.137-0.251c0.543-0.086,0.916-0.595,0.831-1.138   c-0.086-0.547-0.595-0.918-1.138-0.831c-11.628,1.832-17.102-7.989-18.934-12.352L277,38.961c0.51,0.2,1.089-0.053,1.292-0.564   c0.2-0.512-0.053-1.089-0.564-1.292l-24.192-9.51c-0.348-0.134-0.753-0.064-1.033,0.189c-0.28,0.255-0.393,0.646-0.29,1.01   C252.261,28.965,256.912,44.83,270.974,44.832z"/>
	<path style="fill:#EA613B;" d="M265.544,79.993c0,0,21.79,11.875,24.744,29.011s-33.206,24.752-33.206,24.752   S258.41,88.68,265.544,79.993z"/>
	<path style="fill:#EA613B;" d="M314.695,74.414c0,0-8.037-9.214-16.303-4.951s-15.614,19.647-1.378,23.55   C311.25,96.916,321.813,84.287,314.695,74.414z"/>
	<path style="fill:#EA613B;" d="M203.225,341.039c0,0-10.413-11.938-21.123-6.415c-10.71,5.523-20.23,25.456-1.785,30.513   S212.448,353.832,203.225,341.039z"/>
	<path style="fill:#EA613B;" d="M327.971,270.784c0,0-14.026-16.081-28.454-8.642c-14.427,7.44-27.251,34.29-2.405,41.103   C321.959,310.058,340.394,288.017,327.971,270.784z"/>
	<path style="fill:#EA613B;" d="M334.391,108.833c0,0-36.181,4.351-34.162,21.377c2.741,23.118,35.791,25.948,35.791,25.948   S335.489,111.565,334.391,108.833z"/>
	<polygon style="fill:#F7C67C;" points="291.915,380.358 288.253,498.102 266.923,496.295 263.38,382.85  "/>
	<polygon style="fill:#F7C67C;" points="336.869,380.673 333.208,498.417 311.878,496.611 308.334,383.166  "/>
	<polygon style="fill:#F7C67C;" points="137.471,374.092 123.578,491.071 102.485,487.415 108.827,374.092  "/>
	<polygon style="fill:#F7C67C;" points="182.227,378.318 168.334,495.296 147.242,491.641 153.584,378.318  "/>
	<path style="fill:#251626;" d="M264.337,414.568c0.054,0,0.109-0.004,0.163-0.014c0.543-0.089,0.91-0.601,0.821-1.144   c-0.084-0.519-8.988-51.818-48.774-45.483c-23.989,3.814-38.696,42.565-39.311,44.213c-0.193,0.515,0.07,1.089,0.585,1.282   c0.515,0.189,1.089-0.07,1.282-0.585c0.146-0.393,14.915-39.311,37.755-42.941c37.845-6.02,46.417,43.338,46.498,43.837   C263.436,414.222,263.858,414.568,264.337,414.568z"/>
	<polygon style="fill:#251326;" points="333.669,483.576 311.47,483.576 310.034,498.417 335.395,498.417  "/>
	<polygon style="fill:#251326;" points="288.705,483.576 266.526,483.576 266.526,500 290.495,500  "/>
	<polygon style="fill:#251326;" points="169.726,483.576 147.693,483.576 145.404,498.417 171.724,498.102  "/>
	<polygon style="fill:#251326;" points="124.666,481.904 102.485,481.904 100.989,498.417 126.322,498.417  "/>
	<path style="fill:#F7C67C;" d="M141.292,337.249c0,0-48.878-18.846-63.958,36.843l10.281,6.581c0,0,9.939-41.368,45.743-29.715   L141.292,337.249z"/>
	<path style="fill:#251626;" d="M66.044,409.295c5.802,0.002,10.484-8.337,12.887-13.67c0.323,3.686,1.177,8.446,3.404,10.204   c0.873,0.689,1.918,0.908,3.015,0.638c1.305-0.327,2.404-1.64,3.268-3.904c2.319-6.075,2.653-18.284-0.179-22.451   c-0.311-0.457-0.934-0.57-1.383-0.263c-0.455,0.309-0.572,0.928-0.263,1.383c2.422,3.563,2.05,15.151-0.035,20.62   c-0.866,2.266-1.665,2.624-1.891,2.68c-0.504,0.128-0.903,0.043-1.297-0.266c-2.155-1.702-2.885-9.049-2.84-13.279   c0.006-0.49-0.344-0.91-0.827-0.992c-0.475-0.101-0.951,0.195-1.111,0.656c-1.733,5.034-7.543,17.812-13.595,16.565   c-1.033-0.216-1.332-0.737-1.467-1.111c-1.241-3.41,5.011-13.186,9.243-18.547c0.294-0.373,0.284-0.903-0.025-1.262   c-0.309-0.364-0.833-0.453-1.245-0.224c-4.565,2.56-9.276,4.091-10.078,3.281c-0.23-0.231-0.245-1.397,1.336-4.147   c1.556-2.71,11.599-9.43,15.335-11.789c0.465-0.294,0.605-0.908,0.311-1.373c-0.294-0.469-0.912-0.605-1.373-0.311   c-1.418,0.895-13.917,8.854-16.001,12.482c-1.183,2.056-2.575,4.974-1.025,6.54c1.589,1.607,5.53,0.36,8.679-1.039   c-3.342,4.729-8.512,12.997-7.032,17.07c0.317,0.873,1.083,1.994,2.935,2.379C65.215,409.252,65.634,409.295,66.044,409.295z"/>
	<path style="fill:#EA613B;" d="M336.02,79.993c0,0-6.44-4.803-10.101-1.604s-2.062,9.105,3.879,9.922   C335.738,89.127,339.729,83.882,336.02,79.993z"/>
	<path style="fill:#EA613B;" d="M177.034,375.278c0,0-6.44-4.803-10.101-1.604c-3.661,3.199-2.062,9.105,3.879,9.922   C176.752,384.411,180.743,379.167,177.034,375.278z"/>
	<path style="fill:#EA613B;" d="M329.629,382.035c0,0-6.44-4.803-10.101-1.604c-3.661,3.199-2.062,9.105,3.879,9.922   C329.346,391.169,333.338,385.924,329.629,382.035z"/>
	<path style="fill:#EA613B;" d="M262.398,189.884c0,0-2.285-30.44,21.02-33.726c23.304-3.287,45.238,31.441,21.477,46.978   C281.132,218.672,263.311,205.877,262.398,189.884z"/>
	<path style="fill:#EA613B;" d="M252.614,212.698c0,0,37.803,10.087,33.617,34.762s-33.617,23.761-33.617,23.761   S250.906,232.38,252.614,212.698z"/>
	<path style="fill:#EA613B;" d="M336.869,199.023c0,0-35.147,14.165-28.535,34.271s30.509,23.758,30.478,22.388   S337.251,216.876,336.869,199.023z"/>
	<path style="fill:#EA613B;" d="M338.812,317.829c0,0-30.978,2.285-31.306,23.304c-0.328,21.02,32.154,31.441,32.154,31.441   S343.486,324.226,338.812,317.829z"/>
	<path style="fill:#EA613B;" d="M260.57,305.514c0,0,23.761,0.457,27.874,16.907c4.113,16.45,1.402,32.096-21.918,34.783   c-23.32,2.687-41.598-11.222-34.287-28.486C239.55,311.454,251.963,304.29,260.57,305.514z"/>
	<path style="fill:#EA613B;" d="M230.607,299.988c0,0-3.896,32.705-27.201,31.435s-27.201-24.967-27.201-24.967   S206.127,293.571,230.607,299.988z"/>
	<path style="fill:#EA613B;" d="M307.661,370.982c0,0-15.201-18.874-26.308-9.113c-11.107,9.76-7.853,22.232,8.956,26.57   S311.524,375.06,307.661,370.982z"/>
	<path style="fill:#EA613B;" d="M126.322,334.301c0,0,9.044,14.055,25.038,10.901s12.162-34.051,12.162-34.051   S130.986,323.356,126.322,334.301z"/>
	<path style="fill:#EA613B;" d="M149.196,360.398c0,0-8.037-9.214-16.303-4.951s-15.614,19.647-1.378,23.55   S156.314,370.271,149.196,360.398z"/>
	<path style="fill:#EA613B;" d="M113.655,335.02c0,0,2.961,9.233-4.342,10.643s-11.528-4.041-11.528-4.041   S107.66,335.764,113.655,335.02z"/>
	<path style="fill:#251626;" d="M327.015,454.455c0.181,0,0.364-0.049,0.527-0.152c3.972-2.48,2.202-8.992,2.124-9.269   c-0.148-0.531-0.7-0.844-1.225-0.691c-0.531,0.148-0.84,0.696-0.692,1.225c0.014,0.054,1.447,5.353-1.26,7.045   c-0.467,0.292-0.609,0.904-0.317,1.371C326.359,454.29,326.684,454.455,327.015,454.455z"/>
	<path style="fill:#251626;" d="M321.543,445.459c0.181,0,0.364-0.049,0.527-0.152c3.974-2.478,2.204-8.992,2.126-9.269   c-0.148-0.531-0.702-0.84-1.225-0.691c-0.529,0.148-0.84,0.696-0.692,1.225c0.014,0.054,1.447,5.355-1.262,7.045   c-0.467,0.29-0.609,0.904-0.317,1.371C320.888,445.294,321.213,445.459,321.543,445.459z"/>
	<path style="fill:#251626;" d="M325.957,471.275c0.181,0,0.364-0.049,0.527-0.152c3.972-2.478,2.202-8.992,2.124-9.269   c-0.148-0.531-0.7-0.84-1.225-0.691c-0.529,0.148-0.84,0.696-0.692,1.225c0.014,0.054,1.447,5.355-1.26,7.045   c-0.467,0.29-0.609,0.904-0.317,1.371C325.301,471.109,325.626,471.275,325.957,471.275z"/>
	<path style="fill:#251626;" d="M319.427,464.636c0.181,0,0.364-0.049,0.527-0.152c3.974-2.478,2.204-8.99,2.126-9.267   c-0.146-0.531-0.702-0.84-1.225-0.691c-0.531,0.148-0.84,0.696-0.692,1.225c0.014,0.054,1.447,5.353-1.262,7.043   c-0.467,0.29-0.609,0.904-0.317,1.371C318.771,464.471,319.096,464.636,319.427,464.636z"/>
	<path style="fill:#251626;" d="M328.588,437.303c0.181,0,0.364-0.049,0.527-0.152c3.974-2.478,2.202-8.99,2.124-9.267   c-0.148-0.531-0.687-0.842-1.227-0.691c-0.529,0.148-0.838,0.696-0.691,1.227c0.014,0.053,1.449,5.351-1.26,7.041   c-0.467,0.29-0.609,0.904-0.317,1.371C327.933,437.138,328.258,437.303,328.588,437.303z"/>
	<path style="fill:#251626;" d="M321.543,431.514c0.181,0,0.364-0.049,0.527-0.152c3.974-2.478,2.204-8.99,2.126-9.267   c-0.148-0.531-0.702-0.842-1.225-0.691c-0.531,0.148-0.84,0.696-0.692,1.225c0.014,0.054,1.447,5.353-1.262,7.043   c-0.467,0.29-0.609,0.904-0.317,1.371C320.888,431.349,321.213,431.514,321.543,431.514z"/>
	<path style="fill:#251626;" d="M328.071,425.305c0.181,0,0.364-0.049,0.527-0.152c3.974-2.478,2.204-8.992,2.126-9.269   c-0.148-0.531-0.7-0.842-1.225-0.691c-0.529,0.148-0.84,0.696-0.692,1.225c0.014,0.054,1.447,5.355-1.262,7.045   c-0.467,0.29-0.609,0.904-0.317,1.371C327.416,425.14,327.74,425.305,328.071,425.305z"/>
	<path style="fill:#251626;" d="M280.458,456.54c0.181,0,0.364-0.049,0.527-0.152c3.974-2.478,2.202-8.99,2.124-9.267   c-0.148-0.531-0.689-0.844-1.227-0.691c-0.529,0.148-0.838,0.696-0.691,1.227c0.014,0.053,1.449,5.351-1.26,7.041   c-0.467,0.29-0.609,0.904-0.317,1.371C279.803,456.375,280.127,456.54,280.458,456.54z"/>
	<path style="fill:#251626;" d="M274.988,447.546c0.181,0,0.364-0.049,0.527-0.152c3.972-2.48,2.202-8.992,2.124-9.269   c-0.148-0.531-0.696-0.84-1.225-0.691c-0.531,0.148-0.84,0.696-0.692,1.225c0.014,0.054,1.447,5.353-1.26,7.045   c-0.467,0.292-0.609,0.904-0.317,1.371C274.333,447.381,274.658,447.546,274.988,447.546z"/>
	<path style="fill:#251626;" d="M279.4,473.362c0.181,0,0.364-0.049,0.527-0.152c3.974-2.478,2.202-8.992,2.124-9.269   c-0.148-0.531-0.7-0.84-1.225-0.691c-0.531,0.148-0.84,0.696-0.692,1.227c0.014,0.053,1.449,5.353-1.26,7.043   c-0.467,0.29-0.609,0.904-0.317,1.371C278.744,473.197,279.069,473.362,279.4,473.362z"/>
	<path style="fill:#251626;" d="M272.872,466.723c0.181,0,0.364-0.049,0.527-0.152c3.972-2.478,2.202-8.99,2.124-9.267   c-0.146-0.531-0.702-0.84-1.225-0.691c-0.531,0.148-0.84,0.696-0.692,1.225c0.014,0.054,1.447,5.353-1.26,7.043   c-0.467,0.29-0.609,0.904-0.317,1.371C272.217,466.558,272.541,466.723,272.872,466.723z"/>
	<path style="fill:#251626;" d="M282.032,439.39c0.181,0,0.364-0.049,0.527-0.152c3.974-2.478,2.204-8.99,2.126-9.267   c-0.148-0.531-0.7-0.84-1.225-0.691c-0.531,0.148-0.84,0.696-0.692,1.225c0.014,0.054,1.447,5.353-1.262,7.043   c-0.467,0.29-0.609,0.904-0.317,1.371C281.376,439.225,281.701,439.39,282.032,439.39z"/>
	<path style="fill:#251626;" d="M274.988,433.601c0.181,0,0.364-0.049,0.527-0.152c3.972-2.478,2.202-8.992,2.124-9.269   c-0.148-0.531-0.696-0.84-1.225-0.691c-0.529,0.148-0.84,0.696-0.692,1.225c0.014,0.054,1.447,5.355-1.26,7.045   c-0.467,0.29-0.609,0.904-0.317,1.371C274.333,433.436,274.658,433.601,274.988,433.601z"/>
	<path style="fill:#251626;" d="M281.516,427.393c0.181,0,0.364-0.049,0.527-0.152c3.974-2.478,2.202-8.992,2.124-9.269   c-0.148-0.531-0.7-0.842-1.225-0.691c-0.531,0.148-0.84,0.696-0.692,1.227c0.014,0.053,1.449,5.353-1.26,7.043   c-0.467,0.29-0.609,0.904-0.317,1.371C280.861,427.227,281.186,427.393,281.516,427.393z"/>
	<path style="fill:#251626;" d="M166.681,457.787c0.181,0,0.364-0.049,0.527-0.152c3.974-2.478,2.204-8.992,2.126-9.269   c-0.146-0.531-0.696-0.842-1.225-0.691c-0.529,0.148-0.84,0.696-0.692,1.225c0.014,0.054,1.447,5.355-1.262,7.045   c-0.467,0.29-0.609,0.904-0.317,1.371C166.026,457.622,166.351,457.787,166.681,457.787z"/>
	<path style="fill:#251626;" d="M161.212,448.791c0.181,0,0.364-0.049,0.527-0.152c3.974-2.478,2.204-8.99,2.126-9.267   c-0.148-0.531-0.698-0.84-1.225-0.691c-0.531,0.148-0.84,0.696-0.692,1.225c0.014,0.054,1.447,5.353-1.262,7.043   c-0.467,0.29-0.609,0.904-0.317,1.371C160.556,448.626,160.881,448.791,161.212,448.791z"/>
	<path style="fill:#251626;" d="M165.623,474.607c0.181,0,0.364-0.049,0.527-0.152c3.974-2.478,2.204-8.99,2.126-9.267   c-0.146-0.531-0.702-0.842-1.225-0.691c-0.531,0.148-0.84,0.696-0.692,1.225c0.014,0.054,1.447,5.353-1.262,7.043   c-0.467,0.29-0.609,0.904-0.317,1.371C164.968,474.441,165.293,474.607,165.623,474.607z"/>
	<path style="fill:#251626;" d="M159.095,467.97c0.181,0,0.364-0.049,0.527-0.152c3.974-2.48,2.204-8.992,2.126-9.269   c-0.148-0.531-0.698-0.84-1.225-0.691c-0.531,0.148-0.84,0.696-0.692,1.225c0.014,0.054,1.447,5.353-1.262,7.045   c-0.467,0.29-0.609,0.904-0.317,1.371C158.44,467.805,158.765,467.97,159.095,467.97z"/>
	<path style="fill:#251626;" d="M168.257,440.637c0.181,0,0.364-0.049,0.527-0.152c3.974-2.48,2.202-8.992,2.124-9.269   c-0.148-0.531-0.689-0.84-1.227-0.691c-0.529,0.148-0.838,0.696-0.691,1.227c0.014,0.053,1.449,5.351-1.26,7.043   c-0.467,0.29-0.609,0.904-0.317,1.371C167.601,440.472,167.926,440.637,168.257,440.637z"/>
	<path style="fill:#251626;" d="M161.212,434.848c0.181,0,0.364-0.049,0.527-0.152c3.974-2.48,2.204-8.992,2.126-9.269   c-0.148-0.531-0.698-0.842-1.225-0.691c-0.531,0.148-0.84,0.696-0.692,1.225c0.014,0.054,1.447,5.353-1.262,7.045   c-0.467,0.29-0.609,0.904-0.317,1.371C160.556,434.683,160.881,434.848,161.212,434.848z"/>
	<path style="fill:#251626;" d="M167.74,428.637c0.181,0,0.364-0.049,0.527-0.152c3.974-2.478,2.204-8.99,2.126-9.267   c-0.146-0.531-0.696-0.844-1.225-0.691c-0.531,0.148-0.84,0.696-0.692,1.225c0.014,0.054,1.447,5.353-1.262,7.043   c-0.467,0.29-0.609,0.905-0.317,1.371C167.084,428.472,167.409,428.637,167.74,428.637z"/>
	<path style="fill:#251626;" d="M220.523,406.239c2.626,0,5.137-1.227,5.299-1.309c0.492-0.245,0.692-0.842,0.447-1.334   c-0.243-0.49-0.842-0.692-1.334-0.449c-0.051,0.027-4.985,2.428-7.152,0.086c-0.373-0.405-1.004-0.428-1.408-0.054   c-0.403,0.373-0.428,1.004-0.054,1.408C217.479,405.837,219.019,406.239,220.523,406.239z"/>
	<path style="fill:#251626;" d="M232.765,409.962c2.626,0,5.137-1.227,5.299-1.309c0.492-0.245,0.692-0.842,0.447-1.334   c-0.245-0.49-0.842-0.692-1.334-0.449c-0.051,0.027-4.985,2.428-7.152,0.086c-0.375-0.405-1.004-0.426-1.408-0.054   c-0.403,0.373-0.428,1.004-0.054,1.408C229.721,409.56,231.262,409.962,232.765,409.962z"/>
	<path style="fill:#251626;" d="M232.765,401.744c2.626,0,5.135-1.227,5.299-1.309c0.492-0.245,0.692-0.842,0.447-1.334   c-0.245-0.49-0.842-0.691-1.334-0.449c-0.051,0.027-4.985,2.428-7.152,0.086c-0.377-0.405-1.006-0.424-1.408-0.054   c-0.403,0.375-0.428,1.004-0.054,1.408C229.721,401.341,231.262,401.744,232.765,401.744z"/>
	<path style="fill:#251626;" d="M220.521,397.692c2.626,0,5.139-1.229,5.3-1.311c0.492-0.245,0.692-0.842,0.447-1.334   c-0.243-0.49-0.842-0.692-1.334-0.449c-0.049,0.025-4.987,2.431-7.152,0.088c-0.377-0.405-1.006-0.424-1.408-0.054   c-0.403,0.375-0.428,1.004-0.054,1.408C217.479,397.29,219.019,397.692,220.521,397.692z"/>
	<path style="fill:#251626;" d="M209.264,402.411c2.626,0,5.137-1.227,5.3-1.309c0.492-0.245,0.692-0.842,0.447-1.334   c-0.243-0.49-0.84-0.691-1.334-0.449c-0.049,0.025-4.981,2.431-7.154,0.086c-0.373-0.405-1.004-0.428-1.408-0.054   c-0.403,0.373-0.428,1.004-0.054,1.408C206.22,402.009,207.761,402.411,209.264,402.411z"/>
	<path style="fill:#251626;" d="M283.776,59.943c0.479,0,0.901-0.348,0.98-0.834c0.01-0.056,0.936-5.466,4.104-5.861   c0.547-0.068,0.934-0.566,0.866-1.111c-0.066-0.545-0.564-0.947-1.111-0.866c-4.649,0.58-5.779,7.234-5.824,7.516   c-0.089,0.543,0.28,1.052,0.823,1.142C283.668,59.939,283.722,59.943,283.776,59.943z"/>
	<path style="fill:#251626;" d="M273.026,81.76c0.002,0,0.004,0,0.006,0c0.55-0.004,0.992-0.453,0.99-1.002   c0-0.056,0.006-5.544,3.064-6.466c0.527-0.158,0.825-0.714,0.665-1.241c-0.159-0.525-0.71-0.823-1.241-0.665   c-4.482,1.35-4.482,8.1-4.48,8.385C272.034,81.318,272.479,81.76,273.026,81.76z"/>
	<path style="fill:#251626;" d="M279.025,52.845c0.455,0,0.866-0.313,0.971-0.774c0.014-0.054,1.276-5.396,4.464-5.594   c0.549-0.033,0.967-0.506,0.932-1.056c-0.033-0.547-0.465-0.992-1.056-0.932c-4.674,0.29-6.219,6.86-6.281,7.141   c-0.123,0.535,0.214,1.068,0.749,1.19C278.877,52.838,278.953,52.845,279.025,52.845z"/>
	<path style="fill:#251626;" d="M272.263,69.013c0.479,0,0.901-0.348,0.98-0.834c0.01-0.056,0.936-5.466,4.106-5.863   c0.545-0.068,0.932-0.566,0.864-1.113c-0.068-0.549-0.568-0.939-1.113-0.864c-4.647,0.582-5.777,7.236-5.822,7.518   c-0.089,0.543,0.28,1.052,0.823,1.142C272.154,69.01,272.209,69.013,272.263,69.013z"/>
	<path style="fill:#251626;" d="M281.563,70.385c0.479,0,0.901-0.348,0.98-0.836c0.01-0.054,0.934-5.466,4.102-5.861   c0.547-0.068,0.934-0.566,0.866-1.111c-0.066-0.547-0.566-0.943-1.111-0.866c-4.649,0.58-5.777,7.236-5.822,7.518   c-0.089,0.543,0.28,1.054,0.823,1.142C281.456,70.381,281.508,70.385,281.563,70.385z"/>
	<path style="fill:#251626;" d="M202.785,406.908c2.626,0,5.137-1.227,5.3-1.309c0.492-0.245,0.692-0.84,0.447-1.332   c-0.245-0.492-0.842-0.692-1.334-0.451c-0.049,0.025-4.981,2.431-7.154,0.086c-0.375-0.405-1.006-0.424-1.408-0.054   c-0.403,0.375-0.428,1.004-0.054,1.408C199.741,406.506,201.281,406.908,202.785,406.908z"/>
	<path style="fill:#251626;" d="M121.926,454.955c0.181,0,0.364-0.049,0.527-0.152c3.974-2.478,2.202-8.99,2.124-9.267   c-0.148-0.531-0.689-0.84-1.227-0.691c-0.529,0.148-0.838,0.696-0.691,1.227c0.014,0.053,1.449,5.351-1.26,7.041   c-0.467,0.29-0.609,0.904-0.317,1.371C121.27,454.79,121.595,454.955,121.926,454.955z"/>
	<path style="fill:#251626;" d="M116.456,445.961c0.181,0,0.364-0.049,0.527-0.152c3.972-2.48,2.202-8.992,2.124-9.269   c-0.148-0.531-0.7-0.84-1.225-0.691c-0.531,0.148-0.84,0.696-0.692,1.225c0.014,0.054,1.447,5.353-1.26,7.045   c-0.467,0.292-0.609,0.904-0.317,1.371C115.801,445.795,116.125,445.961,116.456,445.961z"/>
	<path style="fill:#251626;" d="M120.868,471.777c0.181,0,0.364-0.049,0.527-0.152c3.974-2.48,2.202-8.992,2.124-9.269   c-0.148-0.531-0.687-0.842-1.227-0.691c-0.529,0.148-0.838,0.696-0.691,1.227c0.014,0.053,1.449,5.351-1.26,7.043   c-0.467,0.29-0.609,0.904-0.317,1.371C120.212,471.611,120.537,471.777,120.868,471.777z"/>
	<path style="fill:#251626;" d="M114.34,465.138c0.181,0,0.364-0.049,0.527-0.152c3.972-2.478,2.202-8.99,2.124-9.267   c-0.148-0.531-0.7-0.842-1.225-0.691c-0.531,0.148-0.84,0.696-0.692,1.225c0.014,0.054,1.447,5.353-1.26,7.043   c-0.467,0.29-0.609,0.905-0.317,1.371C113.684,464.973,114.009,465.138,114.34,465.138z"/>
	<path style="fill:#251626;" d="M123.499,437.805c0.181,0,0.364-0.049,0.527-0.152c3.974-2.478,2.204-8.99,2.126-9.267   c-0.148-0.531-0.698-0.842-1.225-0.691c-0.531,0.148-0.84,0.696-0.692,1.225c0.014,0.054,1.447,5.353-1.262,7.043   c-0.467,0.29-0.609,0.904-0.317,1.371C122.844,437.64,123.169,437.805,123.499,437.805z"/>
	<path style="fill:#251626;" d="M116.456,432.016c0.181,0,0.364-0.049,0.527-0.152c3.972-2.478,2.202-8.992,2.124-9.269   c-0.148-0.531-0.7-0.842-1.225-0.691c-0.529,0.148-0.84,0.696-0.692,1.225c0.014,0.054,1.447,5.355-1.26,7.045   c-0.467,0.29-0.609,0.905-0.317,1.371C115.801,431.851,116.125,432.016,116.456,432.016z"/>
	<path style="fill:#251626;" d="M122.984,425.807c0.181,0,0.364-0.049,0.527-0.152c3.974-2.48,2.202-8.992,2.124-9.269   c-0.148-0.531-0.689-0.844-1.227-0.691c-0.529,0.148-0.838,0.696-0.691,1.227c0.014,0.053,1.449,5.351-1.26,7.043   c-0.467,0.29-0.609,0.905-0.317,1.371C122.328,425.642,122.653,425.807,122.984,425.807z"/>
</g>















</svg>
