<?xml version="1.0" encoding="UTF-8"?>
<!-- Generator: Adobe Illustrator 25.1.0, SVG Export Plug-In . SVG Version: 6.00 Build 0)  -->
<svg xmlns="http://www.w3.org/2000/svg" xmlns:xlink="http://www.w3.org/1999/xlink" version="1.1" id="Capa_1" x="0px" y="0px" viewBox="0 0 500 500" style="enable-background:new 0 0 500 500;" xml:space="preserve" width="512" height="512">
<g>
	<path style="fill:#251426;" d="M216.409,242.478c-18.702-22.044-13.435-36.873-8.631-43.752c1.244-1.781,2.693-3.354,4.242-4.697   c-0.317-0.243-0.634-0.494-0.949-0.756c-4.816-3.992-20.008-19.553-13.221-52.087c3.159-15.146,8.988-22.332,14.426-25.662   c-2.148-4.511-3.634-10.375-4.147-17.073c-1.833-23.981,9.354-51.027,38.248-53.741c3.451-0.323,6.212-0.266,8.426,0.064   c0.916-3.585,2.263-7.756,4.038-12.488c16.433-43.81,82.783-30.38,83.452-30.241c0.484,0.102,0.832,0.527,0.836,1.022l0.554,61.879   c0.006,0.583-0.463,1.058-1.044,1.065c-0.004,0-0.008,0-0.01,0c-0.579,0-1.048-0.465-1.054-1.044l-0.546-61.016   c-7.641-1.386-65.395-10.428-80.215,29.077c-1.863,4.968-3.117,8.959-3.939,12.165c3.739,0.99,5.397,2.885,6.091,4.658   c1.322,3.377-0.529,7.415-3.082,9.367c-1.643,1.258-3.383,1.445-4.651,0.507c-2.162-1.606-2.458-5.99-0.922-12.892   c-2.139-0.29-4.734-0.303-7.734-0.021c-14.854,1.394-39.224,13.806-36.344,51.48c0.486,6.356,1.898,11.971,3.896,16.235   c4.023-1.89,7.62-1.83,9.457-1.62c5.29,0.624,9.513,3.813,9.416,7.112c-0.039,1.375-0.986,4.629-8.893,5.096   c-4.132,0.261-7.973-2.642-10.849-7.699c-4.968,3.105-10.353,9.861-13.345,24.204c-6.546,31.38,7.917,46.229,12.504,50.032   c0.439,0.362,0.873,0.702,1.305,1.021c4.641-3.397,9.789-4.798,12.852-3.671c1.942,0.712,2.936,2.372,2.73,4.548   c-0.204,2.146-1.351,3.754-3.231,4.532c-3.105,1.285-7.73,0.189-12.303-2.809c-1.526,1.281-2.988,2.831-4.266,4.662   c-4.456,6.379-9.276,20.213,8.51,41.18c0.377,0.443,0.323,1.108-0.121,1.485c-0.198,0.169-0.441,0.251-0.682,0.251   C216.913,242.851,216.617,242.726,216.409,242.478z M215.563,193.912c4.159,2.539,7.783,3.016,9.706,2.22   c1.155-0.478,1.806-1.412,1.935-2.78c0.117-1.235-0.313-1.989-1.357-2.372c-0.478-0.175-1.058-0.264-1.715-0.264   C221.867,190.717,218.682,191.769,215.563,193.912z M215.099,116.415c2.444,4.305,5.58,6.749,8.883,6.595   c5.038-0.299,6.873-1.773,6.91-3.054c0.056-1.913-3.165-4.439-7.557-4.956c-0.43-0.051-0.966-0.091-1.59-0.091   C220.037,114.91,217.677,115.21,215.099,116.415z M256.486,58.029c0.698,0.525,1.793-0.243,2.115-0.486   c1.9-1.454,3.317-4.581,2.401-6.924c-0.626-1.596-2.203-2.73-4.62-3.379C254.412,56.085,256.196,57.815,256.486,58.029z"/>
	<path style="fill:#251426;" d="M248.975,242.52c-0.206-0.218-20.442-22.108-6.222-41.738c0.465-0.642,0.922-1.223,1.369-1.746   c-6.927-9.459-3.914-21.663-1.262-28.526c1.94-5.024,4.734-9.844,7.594-13.485c-1.641-2.108-3.432-5.069-5.36-9.159   c-5.353-11.351,5.889-27.644,17.201-35.767c-2.755-3.603-5.615-9.156-7.948-17.712c-5.152-18.902,9.115-27.36,18.078-30.719   c2.693-1.009,5.757-1.83,8.706-2.374c-1.975-4.783-1.855-12.671,2.104-21.791c7.198-16.575,34.898-21.107,36.072-21.292   c0.292-0.041,0.577,0.029,0.803,0.204c0.229,0.173,0.377,0.434,0.41,0.719l6.175,54.465c0.066,0.579-0.35,1.102-0.929,1.167   c-0.574,0.054-1.1-0.35-1.167-0.929l-6.047-53.345c-5.185,1.011-27.41,6.099-33.381,19.851c-3.85,8.864-3.867,16.487-1.911,20.603   c5.131-0.729,9.515-0.496,10.334,1.198c0.264,0.546,0.43,1.625-1.413,2.739c-3.266,1.973-6.35,1.929-8.697-0.121   c-0.486-0.424-0.933-0.939-1.334-1.536c-4.915,0.822-10.927,2.617-16.159,5.938c-9.241,5.864-12.474,14.164-9.609,24.667   c2.3,8.434,5.043,13.752,7.618,17.106c0.214-0.14,0.428-0.274,0.642-0.406c5.844-3.599,10.452-4.058,12.636-1.26   c1.678,2.146,1.997,4.627,0.857,6.64c-1.167,2.059-3.589,3.113-6.325,2.782c-1.398-0.177-4.6-1.027-8.164-4.966   c-10.518,7.526-21.472,23.005-16.645,33.241c1.804,3.822,3.42,6.513,4.835,8.397c2.582-2.92,5.117-4.75,7.03-4.777   c1.973,0.043,3.418,1.342,3.768,3.568c0.451,2.864-0.978,6.519-3.824,7.394c-1.713,0.527-4.071,0.163-6.97-2.903   c-2.493,3.243-5.08,7.616-7.013,12.622c-2.452,6.346-5.261,17.553,0.776,26.199c3.212-3.037,5.891-3.253,7.738-2.751   c3.226,0.877,5.203,4.314,5.487,7.256c0.21,2.162-0.525,3.875-1.964,4.585c-2.281,1.124-5.625-0.352-9.947-4.39   c-0.513-0.478-0.992-0.968-1.439-1.466c-0.338,0.408-0.677,0.846-1.015,1.314c-13.194,18.214,5.856,38.852,6.049,39.058   c0.397,0.424,0.379,1.091-0.045,1.491c-0.204,0.191-0.463,0.286-0.723,0.286C249.463,242.851,249.183,242.74,248.975,242.52z    M246.911,199.14c0.445,0.509,0.924,1.005,1.441,1.489c4.019,3.749,6.548,4.544,7.577,4.038c0.731-0.36,0.894-1.524,0.799-2.491   c-0.21-2.166-1.662-4.804-3.943-5.423c-0.319-0.086-0.649-0.13-0.986-0.13C250.29,196.622,248.625,197.485,246.911,199.14z    M258.893,152.697c-1.25,0.016-3.375,1.598-5.71,4.299c2.627,2.85,4.357,2.743,5.005,2.539c1.723-0.529,2.666-3.103,2.362-5.051   c-0.13-0.817-0.517-1.787-1.631-1.787C258.911,152.697,258.901,152.697,258.893,152.697z M265.747,112.327   c-0.126,0.076-0.251,0.156-0.377,0.237c2.969,3.191,5.545,3.892,6.7,4.038c1.886,0.231,3.492-0.43,4.229-1.732   c0.717-1.262,0.467-2.829-0.682-4.297c-0.523-0.669-1.375-0.999-2.477-0.999C271.276,109.575,268.69,110.513,265.747,112.327z    M284.569,62.888c0.099,0.101,0.2,0.198,0.303,0.286c2.051,1.789,4.511,0.937,6.218-0.095c0.08-0.047,0.148-0.093,0.208-0.134   C290.219,62.614,287.752,62.53,284.569,62.888z"/>
	<path style="fill:#251426;" d="M12.965,369.852c-4.919-8.119-1.975-19.522,1.207-25.205c1.888-3.375,5.168-5.738,8.638-6.966   c0.927-4.042,4.499-10.009,17.045-12.673c3.64-0.772,5.938-2.158,7.023-4.237c2.327-4.452-0.834-11.961-4.495-20.658   c-7.05-16.742-15.824-37.577,7.618-52.075c16.132-9.982,31.334-12.778,45.173-8.325c24,7.725,35.244,34.194,35.712,35.316   c0.222,0.537-0.031,1.155-0.568,1.38c-0.537,0.214-1.155-0.033-1.38-0.568c-0.111-0.268-11.353-26.708-34.423-34.124   c-13.223-4.252-27.828-1.522-43.406,8.113c-21.906,13.55-13.522,33.465-6.784,49.466c3.869,9.187,7.209,17.121,4.423,22.452   c-1.396,2.671-4.161,4.413-8.456,5.325c-8.16,1.732-13.47,5.277-15.121,9.955c2.872-0.579,5.703-0.377,7.808,0.694   c3.344,1.701,4.172,5.259,2.213,9.515c-1.27,2.763-3.41,4.034-5.852,3.5c-3.721-0.824-6.848-5.636-6.828-10.511   c0-0.058,0-0.119,0.002-0.179c-2.58,1.095-4.999,2.949-6.5,5.631c-3.546,6.334-5.187,16.577-1.246,23.084   c3.016,4.975,8.811,7.398,17.139,7.135c10.517-0.305,16.793-6.97,20.152-13.884c-5.197-1.254-8.022-3.472-8.415-6.618   c-0.651-5.195,6.189-11.086,9.984-12.434c0.877-0.317,1.756-0.101,2.405,0.583c2.17,2.279,1.701,10.069-0.966,16.917   c0.939,0.148,1.946,0.272,3.019,0.371c11.323,1.062,18.96-10.958,22.382-22.538c0.383-1.301,0.694-2.528,0.937-3.671   c-2.018-0.016-3.774-0.896-4.806-2.143c-1.297-1.571-1.853-4.283,0.478-7.184c2.03-2.526,3.797-3.412,5.275-2.65   c1.96,1.025,2.286,4.773,1.682,9.216c0.023-0.012,0.045-0.025,0.07-0.037c5.292-2.804,8.59-13.876,1.975-36.546   c-2.617-8.963-1.868-15.292,2.23-18.807c10.25-8.788,37.688,3.854,38.85,4.398c0.529,0.247,0.758,0.873,0.511,1.4   c-0.247,0.531-0.879,0.76-1.4,0.511c-0.274-0.128-27.362-12.616-36.589-4.709c-3.412,2.928-3.943,8.52-1.579,16.618   c2.22,7.598,8.557,32.87-3.01,38.998c-0.49,0.259-0.98,0.461-1.464,0.607c-0.301,1.52-0.688,3.076-1.137,4.596   c-3.659,12.385-12.062,25.198-24.597,24.041c-1.316-0.121-2.539-0.28-3.673-0.476c-2.879,6.206-9.27,15.173-22.25,15.55   c-0.393,0.01-0.776,0.016-1.153,0.016C20.19,378.02,15.246,373.62,12.965,369.852z M45.734,355.132   c0.282,2.255,2.745,3.927,7.194,4.923c1.104-2.701,1.779-5.351,2.104-7.587c0.719-4.919-0.15-7.388-0.7-7.524   C51.178,346.066,45.248,351.257,45.734,355.132z M24.664,339.312c-0.029,0.303-0.043,0.609-0.045,0.92   c-0.019,4.299,2.712,7.9,5.174,8.444c1.806,0.383,2.893-1.042,3.482-2.323c1.04-2.261,1.666-5.269-1.254-6.754   c-0.997-0.507-2.308-0.768-3.77-0.768C27.119,338.833,25.896,338.989,24.664,339.312z M81.372,324.51   c-0.179-0.084-1.038,0.093-2.654,2.104c-1.326,1.649-1.505,3.297-0.496,4.52c0.717,0.863,2.057,1.445,3.579,1.357   C82.548,327.769,82.074,324.879,81.372,324.51z"/>
	<path style="fill:#F8BF95;" d="M255.764,234.299c0,0,42.127-177.259,67.224-177.369c25.097-0.11,183.957,42.959,150.853,102.868   c-5.711,10.335-98.165-11.612-98.165-11.612s18.271,144.111-3.996,225.517c-2.023,7.395-250.42,21.444-260.767-11.107   S83.456,229.172,255.764,234.299z"/>
	<path style="fill:#FFE9CB;" d="M407.2,154.975c0,0,17.904-67.2,40.445-53.83s49.72,43.789,39.973,60.379   C477.87,178.114,407.2,154.975,407.2,154.975z"/>
	<path style="fill:#251426;" d="M354.664,110.979c0.642,0,1.242-0.235,1.756-0.696c4.371-3.906,0.194-22.8-0.69-26.547   c-0.132-0.564-0.696-0.933-1.266-0.784c-0.566,0.132-0.918,0.7-0.784,1.266c1.929,8.207,3.999,22.112,1.336,24.492   c-0.171,0.152-0.307,0.194-0.521,0.138c-2.671-0.624-7.756-10.569-10.515-17.43c-0.216-0.542-0.828-0.801-1.371-0.585   c-0.539,0.216-0.803,0.832-0.585,1.371c1.178,2.93,7.291,17.598,11.99,18.696C354.234,110.952,354.452,110.979,354.664,110.979z"/>
	<path style="fill:#251426;" d="M467.851,157.06c0.264,0,0.529-0.099,0.733-0.297c0.418-0.406,0.428-1.073,0.025-1.491   c-4.396-4.534-19.116-19.184-24.14-17.312c-0.76,0.284-1.688,1.019-1.795,2.918c-0.57,10.155,9.562,11.382,9.663,11.393   c0.574,0.062,1.097-0.354,1.161-0.931c0.066-0.579-0.352-1.1-0.929-1.165c-0.338-0.039-8.248-1.036-7.791-9.177   c0.035-0.612,0.179-0.968,0.428-1.06c2.578-0.988,13.151,7.793,21.887,16.802C467.301,156.953,467.575,157.06,467.851,157.06z"/>
	<path style="fill:#251426;" d="M472.436,153.889c0.22,0,0.443-0.068,0.632-0.21c0.465-0.35,0.56-1.011,0.212-1.476   c-8.59-11.448-17.253-25.085-16.27-27.154c3.725,0.274,8.316,1.874,10.384,4.983c1.18,1.775,1.369,3.828,0.564,6.097   c-0.196,0.548,0.091,1.151,0.64,1.345c0.544,0.202,1.153-0.091,1.345-0.64c1.027-2.887,0.752-5.642-0.793-7.968   c-2.64-3.972-8.076-5.633-11.928-5.85c-1.289-0.086-1.847,0.62-2.071,1.04c-2.174,4.062,12.035,23.541,16.441,29.413   C471.8,153.743,472.117,153.889,472.436,153.889z"/>
	<path style="fill:#251426;" d="M395.622,153.662c0.488,0,0.924-0.34,1.03-0.838c0.091-0.428-0.095-0.85-0.434-1.085   c-1.205-1.359-7.015-12.189-4.859-17.487c0.791-1.944,2.605-2.926,5.549-3c0.583-0.014,1.042-0.498,1.027-1.081   c-0.014-0.581-0.539-0.988-1.081-1.027c-6.138,0.156-7.754,3.791-8.03,6.813c-0.585,6.424,4.981,17.347,6.581,17.683   C395.476,153.656,395.55,153.662,395.622,153.662z"/>
	<path style="fill:#F8BF95;" d="M315.799,73.511l-39.376-39.92c0,0-20.648,53.681,32.832,51.793   C309.254,85.384,316.424,71.098,315.799,73.511z"/>
	<path style="fill:#251426;" d="M303.784,82.152c1.32,0,2.66-0.261,4.013-0.784c0.542-0.212,0.813-0.822,0.603-1.365   c-0.212-0.544-0.824-0.807-1.365-0.603c-2.533,0.98-4.903,0.846-7.24-0.406c-7.316-3.916-11.92-17.508-13.711-23.821l26.522,23.139   c0.439,0.377,1.106,0.338,1.489-0.101c0.383-0.439,0.338-1.106-0.101-1.489l-29.098-25.386c-0.344-0.299-0.838-0.344-1.231-0.111   c-0.393,0.233-0.591,0.69-0.492,1.135c0.208,0.933,5.189,22.903,15.626,28.491C300.417,81.718,302.083,82.152,303.784,82.152z"/>
	<path style="fill:#251426;" d="M424.601,113.901c0.173,0,0.348-0.041,0.509-0.132c0.511-0.28,0.696-0.922,0.414-1.431   c-9.371-16.995-98.341-54.778-102.126-56.38c-0.533-0.222-1.153,0.023-1.382,0.562c-0.226,0.535,0.025,1.153,0.562,1.382   c0.918,0.387,92.078,39.095,101.1,55.454C423.87,113.703,424.231,113.901,424.601,113.901z"/>
	<path style="fill:#F8BF95;" d="M386.241,295.964c0,0,57.781-29.127,67.438-15.478c9.658,13.649,7.265,117.794,7.265,117.794   l-31.238-1.757c0,0,10.985-85.161,3.44-88.669c-7.544-3.508-49.029,25.85-49.029,25.85L386.241,295.964z"/>
	<path style="fill:#F8BF95;" d="M341.974,340.565c2.975,2.157,41.283,9.286,42.143,138.657l-30.503,5.247   c0,0-3.909-108.652-34.143-123.285L341.974,340.565z"/>
	<path style="fill:#F8BF95;" d="M140.907,350.924c0.448,3.413,18.866,37.473-59.873,100.123l-21.358-21.889   c0,0,64.233-55.165,55.214-86.36L140.907,350.924z"/>
	<path style="fill:#F8BF95;" d="M186.153,367.503c1.592,3.056,31.963,61.647-18.594,127.197l-27.579-13.309   c0,0,41.432-73.707,22.255-99.962L186.153,367.503z"/>
	<path style="fill:#FCDBB8;" d="M334.903,380.216c0,0-14.662-34.797-52.096-48.217s-134.909-11.776-141.616,44.966   C141.191,376.965,228.958,396.93,334.903,380.216z"/>
	<path style="fill:#FCDBB8;" d="M383.481,262.051c0,0-42.107,61.952-13.121,114.685c0,0,19.353-6.774,19.945-28.209   C390.929,325.923,383.481,262.051,383.481,262.051z"/>
	<path style="fill:#251426;" d="M381.541,348.022c0.119,0,0.241-0.021,0.36-0.064c0.548-0.198,0.83-0.803,0.63-1.351   c-1.575-4.334,2.391-9.692,2.43-9.745c0.35-0.465,0.257-1.126-0.21-1.474c-0.463-0.352-1.126-0.257-1.474,0.21   c-0.194,0.255-4.688,6.334-2.726,11.73C380.705,347.756,381.11,348.022,381.541,348.022z"/>
	<path style="fill:#251426;" d="M380.036,328.214c0.119,0,0.241-0.021,0.36-0.064c0.548-0.198,0.83-0.803,0.63-1.351   c-1.575-4.334,2.391-9.692,2.43-9.745c0.35-0.465,0.257-1.126-0.21-1.474c-0.463-0.354-1.126-0.257-1.474,0.21   c-0.194,0.255-4.688,6.334-2.726,11.73C379.2,327.949,379.605,328.214,380.036,328.214z"/>
	<path style="fill:#251426;" d="M374.186,343.986c0.119,0,0.241-0.021,0.36-0.064c0.548-0.198,0.83-0.803,0.63-1.351   c-1.575-4.334,2.391-9.692,2.43-9.745c0.35-0.465,0.257-1.126-0.21-1.474c-0.465-0.352-1.126-0.255-1.474,0.21   c-0.194,0.255-4.688,6.334-2.726,11.73C373.35,343.721,373.756,343.986,374.186,343.986z"/>
	<path style="fill:#251426;" d="M374.186,364.385c0.119,0,0.241-0.021,0.36-0.064c0.548-0.198,0.83-0.803,0.63-1.351   c-1.575-4.334,2.391-9.692,2.43-9.745c0.35-0.465,0.257-1.126-0.21-1.474c-0.465-0.352-1.126-0.255-1.474,0.21   c-0.194,0.255-4.688,6.334-2.726,11.73C373.35,364.119,373.756,364.385,374.186,364.385z"/>
	<path style="fill:#251426;" d="M152.139,280.216c0.428,0,0.83-0.262,0.988-0.686c1.606-4.307,8.104-5.827,8.17-5.844   c0.566-0.128,0.922-0.692,0.795-1.26c-0.128-0.568-0.688-0.92-1.258-0.797c-0.313,0.072-7.676,1.781-9.684,7.163   c-0.204,0.546,0.074,1.153,0.62,1.357C151.892,280.196,152.017,280.216,152.139,280.216z"/>
	<path style="fill:#251426;" d="M163.84,263.227c0.428,0,0.83-0.262,0.988-0.686c1.61-4.322,8.104-5.827,8.168-5.841   c0.568-0.128,0.927-0.692,0.799-1.26c-0.128-0.568-0.686-0.92-1.26-0.799c-0.313,0.072-7.678,1.783-9.684,7.163   c-0.204,0.546,0.074,1.153,0.62,1.357C163.593,263.207,163.719,263.227,163.84,263.227z"/>
	<path style="fill:#251426;" d="M144.856,270.471c0.428,0,0.83-0.262,0.988-0.686c1.612-4.322,8.104-5.827,8.168-5.841   c0.568-0.13,0.927-0.692,0.799-1.26c-0.13-0.568-0.704-0.92-1.26-0.799c-0.313,0.072-7.676,1.783-9.684,7.163   c-0.204,0.546,0.074,1.153,0.62,1.357C144.609,270.45,144.732,270.471,144.856,270.471z"/>
	<path style="fill:#251426;" d="M172.714,269.581c0.264,0,0.527-0.097,0.731-0.294c3.325-3.196,9.83-1.742,9.896-1.725   c0.572,0.136,1.132-0.222,1.264-0.791c0.132-0.566-0.222-1.132-0.791-1.264c-0.311-0.072-7.69-1.717-11.831,2.261   c-0.42,0.404-0.432,1.071-0.029,1.491C172.161,269.472,172.439,269.581,172.714,269.581z"/>
	<path style="fill:#251426;" d="M180.722,256.725c0.264,0,0.527-0.097,0.731-0.294c3.325-3.198,9.828-1.744,9.894-1.728   c0.57,0.132,1.132-0.222,1.264-0.791c0.13-0.566-0.222-1.132-0.791-1.264c-0.309-0.072-7.695-1.717-11.829,2.263   c-0.42,0.404-0.432,1.071-0.029,1.491C180.17,256.616,180.446,256.725,180.722,256.725z"/>
	<path style="fill:#251426;" d="M280.716,187.696c0.212,0,0.426-0.064,0.614-0.196c0.474-0.34,0.583-0.997,0.245-1.472   c-2.681-3.754-0.294-9.976-0.27-10.038c0.212-0.544-0.056-1.155-0.597-1.367c-0.55-0.212-1.155,0.056-1.367,0.597   c-0.115,0.299-2.819,7.361,0.517,12.035C280.064,187.542,280.389,187.696,280.716,187.696z"/>
	<path style="fill:#251426;" d="M290.237,182.137c0.156,0,0.315-0.035,0.465-0.109c0.523-0.255,0.737-0.887,0.48-1.41   c-2.036-4.139,1.326-9.896,1.359-9.953c0.299-0.5,0.132-1.147-0.369-1.443c-0.498-0.299-1.147-0.134-1.443,0.369   c-0.165,0.276-3.974,6.807-1.437,11.959C289.476,181.92,289.848,182.137,290.237,182.137z"/>
	<path style="fill:#251426;" d="M284.132,205.148c0.117,0,0.237-0.019,0.352-0.06c0.55-0.196,0.836-0.799,0.642-1.347   c-1.544-4.349,2.463-9.675,2.504-9.727c0.354-0.463,0.264-1.124-0.198-1.478c-0.461-0.352-1.122-0.266-1.478,0.198   c-0.194,0.255-4.738,6.299-2.817,11.712C283.292,204.879,283.698,205.148,284.132,205.148z"/>
	<path style="fill:#251426;" d="M274.525,210.636c0.251,0,0.5-0.089,0.702-0.268c0.434-0.387,0.472-1.054,0.084-1.489   c-3.072-3.443-1.373-9.887-1.357-9.951c0.152-0.562-0.179-1.141-0.741-1.293c-0.57-0.152-1.141,0.181-1.293,0.741   c-0.084,0.309-2.005,7.623,1.818,11.907C273.946,210.516,274.235,210.636,274.525,210.636z"/>
	<path style="fill:#251426;" d="M284.738,167.413c0.156,0,0.313-0.035,0.461-0.107c0.523-0.253,0.741-0.885,0.486-1.408   c-2.01-4.132,1.369-9.889,1.404-9.947c0.297-0.5,0.134-1.147-0.366-1.445c-0.494-0.297-1.143-0.138-1.443,0.362   c-0.165,0.274-4.003,6.791-1.489,11.953C283.972,167.194,284.349,167.413,284.738,167.413z"/>
	<path style="fill:#251426;" d="M158.489,288.407c0.439,0,0.848-0.276,0.999-0.714c1.482-4.369,7.929-6.066,7.995-6.082   c0.564-0.144,0.904-0.719,0.76-1.283c-0.144-0.562-0.71-0.902-1.283-0.76c-0.311,0.08-7.623,2.008-9.469,7.445   c-0.187,0.552,0.109,1.151,0.659,1.338C158.262,288.389,158.375,288.407,158.489,288.407z"/>
	<path style="fill:#251426;" d="M236.132,378.897c2.58,0,6.113-0.513,8.467-2.93c0.406-0.416,0.397-1.085-0.021-1.491   c-0.416-0.404-1.081-0.395-1.491,0.021c-3.216,3.303-9.77,2.061-9.832,2.053c-0.574-0.119-1.128,0.257-1.237,0.83   c-0.113,0.572,0.259,1.126,0.83,1.237C232.978,378.644,234.32,378.897,236.132,378.897z"/>
	<path style="fill:#251426;" d="M214.628,381.506c2.58,0,6.115-0.515,8.469-2.932c0.406-0.418,0.397-1.085-0.021-1.491   c-0.416-0.406-1.085-0.397-1.491,0.021c-3.202,3.292-9.766,2.065-9.834,2.053c-0.577-0.107-1.126,0.264-1.235,0.834   c-0.111,0.57,0.259,1.124,0.83,1.235C211.476,381.253,212.818,381.506,214.628,381.506z"/>
	<path style="fill:#251426;" d="M208.053,371.17c2.58,0,6.115-0.515,8.469-2.932c0.406-0.418,0.397-1.085-0.021-1.491   c-0.414-0.404-1.085-0.395-1.491,0.021c-3.202,3.292-9.766,2.067-9.834,2.053c-0.574-0.105-1.124,0.266-1.235,0.834   c-0.111,0.57,0.259,1.124,0.83,1.235C204.901,370.916,206.244,371.17,208.053,371.17z"/>
	<path style="fill:#251426;" d="M194.326,377.369c2.58,0,6.115-0.515,8.469-2.932c0.406-0.418,0.397-1.085-0.021-1.491   c-0.416-0.404-1.085-0.395-1.491,0.021c-3.202,3.29-9.764,2.067-9.834,2.053c-0.577-0.109-1.126,0.264-1.235,0.834   c-0.111,0.57,0.259,1.124,0.83,1.235C191.174,377.116,192.516,377.369,194.326,377.369z"/>
	<path style="fill:#251426;" d="M257.054,380.2c2.58,0,6.111-0.513,8.463-2.93c0.406-0.418,0.397-1.085-0.021-1.491   c-0.416-0.404-1.087-0.395-1.491,0.021c-3.206,3.292-9.764,2.065-9.832,2.051c-0.574-0.105-1.124,0.266-1.235,0.834   c-0.111,0.57,0.259,1.124,0.83,1.235C253.898,379.947,255.242,380.2,257.054,380.2z"/>
	<path style="fill:#251426;" d="M257.054,369.864c2.58,0,6.111-0.513,8.463-2.93c0.406-0.418,0.397-1.085-0.021-1.491   c-0.416-0.404-1.087-0.395-1.491,0.021c-3.206,3.292-9.764,2.065-9.832,2.051c-0.574-0.105-1.124,0.264-1.235,0.834   c-0.111,0.57,0.259,1.124,0.83,1.235C253.898,369.611,255.242,369.864,257.054,369.864z"/>
	<path style="fill:#251426;" d="M276.555,376.064c2.58,0,6.111-0.513,8.465-2.93c0.406-0.416,0.397-1.085-0.021-1.491   c-0.414-0.404-1.083-0.395-1.491,0.021c-3.206,3.292-9.768,2.065-9.834,2.051c-0.579-0.109-1.124,0.264-1.235,0.834   c-0.111,0.57,0.259,1.124,0.83,1.235C273.399,375.811,274.743,376.064,276.555,376.064z"/>
	<path style="fill:#251426;" d="M296.054,378.897c2.58,0,6.113-0.513,8.467-2.93c0.406-0.416,0.397-1.085-0.021-1.491   c-0.416-0.404-1.083-0.395-1.491,0.021c-3.216,3.303-9.768,2.061-9.832,2.053c-0.579-0.119-1.126,0.257-1.237,0.83   c-0.113,0.572,0.259,1.126,0.83,1.237C292.9,378.644,294.242,378.897,296.054,378.897z"/>
	<path style="fill:#251426;" d="M289.323,365.693c2.58,0,6.111-0.513,8.463-2.93c0.406-0.418,0.397-1.085-0.021-1.491   c-0.416-0.404-1.085-0.397-1.491,0.021c-3.204,3.292-9.766,2.065-9.832,2.051c-0.579-0.107-1.122,0.266-1.235,0.834   c-0.111,0.57,0.259,1.124,0.83,1.235C286.167,365.439,287.511,365.693,289.323,365.693z"/>
	<path style="fill:#251426;" d="M230.74,368.561c2.58,0,6.111-0.513,8.463-2.93c0.406-0.418,0.397-1.085-0.021-1.491   c-0.414-0.406-1.085-0.397-1.491,0.021c-3.206,3.29-9.764,2.065-9.832,2.051c-0.574-0.105-1.122,0.266-1.235,0.834   c-0.111,0.57,0.259,1.124,0.83,1.235C227.583,368.308,228.928,368.561,230.74,368.561z"/>
	<path style="fill:#251426;" d="M135.93,289.014c0.428,0,0.83-0.262,0.988-0.686c1.61-4.322,8.104-5.827,8.168-5.841   c0.568-0.128,0.927-0.692,0.799-1.26c-0.13-0.566-0.688-0.914-1.26-0.799c-0.313,0.072-7.678,1.783-9.684,7.163   c-0.204,0.546,0.074,1.153,0.62,1.357C135.683,288.994,135.808,289.014,135.93,289.014z"/>
	<path style="fill:#251426;" d="M130.243,301.78c0.465,0,0.889-0.309,1.017-0.778c1.202-4.435,7.534-6.552,7.598-6.572   c0.552-0.181,0.854-0.776,0.675-1.328c-0.181-0.554-0.776-0.857-1.328-0.677c-0.305,0.099-7.478,2.483-8.979,8.026   c-0.152,0.562,0.179,1.141,0.741,1.293C130.06,301.768,130.152,301.78,130.243,301.78z"/>
	<path style="fill:#251426;" d="M110.217,413.569c0.126,0,0.251-0.023,0.375-0.068c0.299-0.115,7.347-2.854,8.57-8.465   c0.124-0.568-0.237-1.13-0.805-1.254c-0.562-0.121-1.13,0.235-1.254,0.805c-0.98,4.489-7.198,6.918-7.262,6.943   c-0.542,0.208-0.815,0.815-0.607,1.359C109.393,413.312,109.793,413.569,110.217,413.569z"/>
	<path style="fill:#251426;" d="M119.274,400.202c0.126,0,0.251-0.023,0.375-0.068c0.299-0.115,7.347-2.854,8.57-8.465   c0.124-0.568-0.237-1.13-0.805-1.254c-0.56-0.119-1.13,0.233-1.254,0.805c-0.98,4.489-7.198,6.918-7.262,6.943   c-0.542,0.208-0.815,0.815-0.607,1.359C118.451,399.944,118.85,400.202,119.274,400.202z"/>
	<path style="fill:#251426;" d="M109.086,401.828c0.126,0,0.251-0.023,0.375-0.068c0.299-0.115,7.347-2.854,8.57-8.465   c0.124-0.568-0.237-1.13-0.805-1.254c-0.56-0.119-1.13,0.233-1.254,0.805c-0.98,4.489-7.198,6.918-7.262,6.943   c-0.542,0.208-0.815,0.815-0.607,1.359C108.263,401.571,108.662,401.828,109.086,401.828z"/>
	<path style="fill:#251426;" d="M98.75,417.419c0.126,0,0.251-0.023,0.375-0.068c0.299-0.115,7.347-2.852,8.57-8.465   c0.124-0.568-0.237-1.13-0.805-1.254c-0.562-0.119-1.13,0.233-1.254,0.805c-0.984,4.509-7.196,6.918-7.26,6.941   c-0.544,0.208-0.817,0.817-0.612,1.361C97.924,417.16,98.326,417.419,98.75,417.419z"/>
	<path style="fill:#251426;" d="M182.093,444.424c0.249,0,0.5-0.089,0.7-0.266c0.241-0.214,5.854-5.279,4.999-10.96   c-0.084-0.579-0.626-0.978-1.198-0.885c-0.577,0.086-0.972,0.622-0.885,1.198c0.686,4.563-4.266,9.027-4.316,9.07   c-0.437,0.387-0.474,1.054-0.089,1.489C181.515,444.304,181.803,444.424,182.093,444.424z"/>
	<path style="fill:#251426;" d="M185.804,428.707c0.249,0,0.5-0.089,0.7-0.266c0.241-0.214,5.854-5.279,4.999-10.958   c-0.086-0.579-0.622-0.976-1.198-0.885c-0.577,0.086-0.972,0.622-0.885,1.198c0.686,4.561-4.266,9.025-4.316,9.068   c-0.437,0.387-0.474,1.054-0.089,1.489C185.225,428.588,185.513,428.707,185.804,428.707z"/>
	<path style="fill:#251426;" d="M176.861,433.85c0.249,0,0.5-0.089,0.7-0.266c0.241-0.214,5.854-5.279,4.999-10.958   c-0.086-0.579-0.63-0.98-1.198-0.885c-0.577,0.086-0.972,0.622-0.885,1.198c0.686,4.561-4.266,9.025-4.316,9.068   c-0.437,0.387-0.474,1.054-0.089,1.489C176.283,433.731,176.571,433.85,176.861,433.85z"/>
	<path style="fill:#251426;" d="M172.747,452.102c0.249,0,0.5-0.089,0.7-0.266c0.241-0.214,5.852-5.279,4.999-10.96   c-0.086-0.579-0.622-0.98-1.198-0.885c-0.577,0.086-0.972,0.622-0.885,1.198c0.679,4.546-4.266,9.027-4.318,9.072   c-0.432,0.387-0.472,1.054-0.084,1.489C172.169,451.982,172.459,452.102,172.747,452.102z"/>
	<path style="fill:#251426;" d="M375.656,432.619c0.418,0,0.815-0.251,0.98-0.663c0.117-0.299,2.866-7.342-0.439-12.039   c-0.336-0.474-0.992-0.589-1.47-0.255c-0.476,0.336-0.589,0.992-0.255,1.47c2.656,3.772,0.229,9.98,0.204,10.042   c-0.214,0.542,0.049,1.155,0.589,1.371C375.395,432.594,375.526,432.619,375.656,432.619z"/>
	<path style="fill:#251426;" d="M371.935,416.907c0.418,0,0.815-0.251,0.98-0.663c0.117-0.299,2.866-7.342-0.439-12.039   c-0.338-0.474-0.992-0.589-1.47-0.255c-0.476,0.336-0.589,0.992-0.255,1.47c2.656,3.772,0.229,9.98,0.204,10.042   c-0.214,0.542,0.049,1.155,0.589,1.371C371.674,416.882,371.806,416.907,371.935,416.907z"/>
	<path style="fill:#251426;" d="M366.242,425.509c0.418,0,0.815-0.251,0.98-0.663c0.117-0.299,2.868-7.34-0.437-12.037   c-0.338-0.474-0.992-0.591-1.47-0.255c-0.476,0.336-0.589,0.992-0.255,1.47c2.656,3.772,0.229,9.978,0.202,10.04   c-0.214,0.542,0.049,1.155,0.589,1.371C365.979,425.485,366.112,425.509,366.242,425.509z"/>
	<path style="fill:#251426;" d="M370.737,443.67c0.418,0,0.815-0.251,0.98-0.663c0.117-0.299,2.866-7.34-0.439-12.037   c-0.336-0.474-0.992-0.589-1.47-0.255c-0.476,0.336-0.589,0.992-0.255,1.47c2.646,3.758,0.229,9.98,0.204,10.042   c-0.214,0.542,0.049,1.153,0.591,1.369C370.476,443.645,370.607,443.67,370.737,443.67z"/>
	<path style="fill:#251426;" d="M455.184,333.959c0.418,0,0.815-0.251,0.98-0.663c0.117-0.299,2.866-7.342-0.439-12.039   c-0.336-0.476-0.99-0.591-1.47-0.255c-0.476,0.336-0.589,0.992-0.255,1.47c2.656,3.772,0.229,9.98,0.204,10.042   c-0.214,0.542,0.049,1.155,0.589,1.371C454.922,333.934,455.054,333.959,455.184,333.959z"/>
	<path style="fill:#251426;" d="M451.463,318.244c0.418,0,0.815-0.251,0.98-0.663c0.117-0.299,2.866-7.34-0.439-12.037   c-0.338-0.474-0.992-0.589-1.47-0.255c-0.476,0.336-0.589,0.992-0.255,1.47c2.646,3.758,0.229,9.98,0.204,10.042   c-0.214,0.542,0.049,1.153,0.591,1.369C451.202,318.22,451.333,318.244,451.463,318.244z"/>
	<path style="fill:#251426;" d="M445.77,326.849c0.418,0,0.815-0.251,0.98-0.663c0.117-0.299,2.868-7.34-0.437-12.037   c-0.336-0.476-0.992-0.589-1.47-0.255c-0.476,0.336-0.589,0.992-0.255,1.47c2.656,3.772,0.229,9.978,0.202,10.04   c-0.214,0.542,0.049,1.155,0.589,1.371C445.506,326.824,445.64,326.849,445.77,326.849z"/>
	<path style="fill:#251426;" d="M450.265,345.01c0.418,0,0.815-0.251,0.98-0.663c0.117-0.299,2.866-7.342-0.439-12.039   c-0.338-0.474-0.99-0.591-1.47-0.255c-0.476,0.336-0.589,0.992-0.255,1.47c2.656,3.772,0.229,9.98,0.204,10.042   c-0.214,0.542,0.049,1.155,0.589,1.371C450.003,344.985,450.135,345.01,450.265,345.01z"/>
	<path style="fill:#251426;" d="M127.204,287.32c0.027,0,0.051,0,0.076-0.002c0.581-0.041,1.019-0.546,0.978-1.126   c-0.325-4.602,4.96-8.662,5.014-8.703c0.465-0.352,0.556-1.013,0.204-1.476c-0.354-0.467-1.017-0.554-1.476-0.204   c-0.255,0.194-6.249,4.804-5.846,10.532C126.193,286.896,126.656,287.32,127.204,287.32z"/>
	<polygon style="fill:#251326;" points="384.161,459.848 352.285,464.32 351.795,494.7 385.014,493.475  "/>
	<path style="fill:#251426;" d="M56.87,331.274c-0.175-0.556,0.134-1.147,0.688-1.322c3.824-1.205,6.29-3.103,7.542-5.802   c2.946-6.352-1.233-16.307-5.273-25.935c-4.128-9.838-8.028-19.13-4.62-24.974c2.205-3.782,4.454-5.364,6.344-5.907   c1.769-5.401,5.841-11.242,13.361-15.651c21.035-12.329,38.858,16.662,39.035,16.954c0.301,0.5,0.142,1.147-0.356,1.447   c-0.496,0.301-1.145,0.144-1.447-0.356c-0.167-0.278-16.911-27.521-36.165-16.225c-6.62,3.879-10.361,8.903-12.13,13.62   c2.526,0.262,4.756,2.178,5.837,5.03c1.209,3.187,0.612,6.579-1.561,8.85c-1.623,1.695-3.146,1.509-3.908,1.25   c-1.927-0.665-3.338-3.222-3.679-6.675c-0.169-1.688-0.082-3.601,0.323-5.627c-1.324,0.817-2.631,2.292-3.834,4.353   c-2.876,4.933,0.826,13.756,4.744,23.094c4.219,10.052,8.58,20.444,5.242,27.638c-1.495,3.224-4.462,5.555-8.821,6.927   c-0.105,0.033-0.212,0.049-0.317,0.049C57.426,332.011,57.01,331.723,56.87,331.274z M63.189,269.201   c-0.587,2.236-0.735,4.347-0.554,6.169c0.29,2.922,1.38,4.583,2.269,4.888c0.507,0.175,1.077-0.064,1.697-0.712   c1.917-2.005,1.833-4.746,1.114-6.645c-0.797-2.096-2.428-3.544-4.157-3.688c-0.101-0.008-0.202-0.012-0.303-0.012   C63.232,269.201,63.209,269.201,63.189,269.201z"/>
	<polygon style="fill:#251326;" points="81.034,451.047 59.677,429.158 77.118,412.552 98.75,435.987  "/>
	<polygon style="fill:#251326;" points="181.642,473.016 151.486,457.039 139.979,481.39 172.687,500  "/>
	<polygon style="fill:#251326;" points="461.195,376.965 432.338,373.703 429.706,396.523 460.945,398.28  "/>
</g>















</svg>
