<?xml version="1.0" encoding="UTF-8"?>
<!-- Generator: Adobe Illustrator 25.1.0, SVG Export Plug-In . SVG Version: 6.00 Build 0)  -->
<svg xmlns="http://www.w3.org/2000/svg" xmlns:xlink="http://www.w3.org/1999/xlink" version="1.1" id="Capa_1" x="0px" y="0px" viewBox="0 0 500 500" style="enable-background:new 0 0 500 500;" xml:space="preserve" width="512" height="512">
<g>
	<g>
		<path style="fill:#FFFFFF;" d="M446.055,419.968c0,0,15.347,17.939,12.526,21.135c-2.821,3.197-15.376-11.492-15.376-11.492    s14.432,20.808,7.788,21.695c-6.644,0.887-13.659-16.112-13.659-16.112s0.582,21.964-2.292,22.609    c-2.874,0.645-7.902-23.643-7.902-23.643"/>
		<path style="fill:#251426;" d="M434.926,458.989c-0.291,0-0.644-0.076-1.022-0.318c-3.093-1.996-6.838-19.084-7.913-24.272    c-0.13-0.634,0.277-1.254,0.91-1.385c0.626-0.144,1.254,0.272,1.386,0.909c1.996,9.639,5.006,20.572,6.636,22.54    c1.005-1.874,1.478-12.246,1.239-21.235c-0.015-0.565,0.375-1.062,0.928-1.179c0.56-0.112,1.111,0.176,1.327,0.7    c2.58,6.25,8.254,15.921,12.42,15.397c0.433-0.06,0.537-0.217,0.606-0.375c1.159-2.623-4.682-12.978-9.2-19.491    c-0.356-0.513-0.247-1.215,0.247-1.595c0.494-0.384,1.198-0.309,1.605,0.165c4.086,4.781,10.94,11.52,13.388,11.539    c1.192-1.254-3.963-9.889-12.318-19.659c-0.421-0.492-0.363-1.231,0.128-1.652c0.492-0.421,1.234-0.362,1.652,0.128    c4.813,5.628,15.667,19.1,12.514,22.675c-0.498,0.563-1.258,0.767-1.996,0.851c-1.944-0.016-4.789-2.032-7.509-4.456    c2.576,4.73,4.748,9.916,3.632,12.443c-0.306,0.691-0.976,1.554-2.441,1.751c-5.039,0.62-9.808-6.63-12.561-11.875    c0.025,11.692-1.078,17.857-3.289,18.354C435.191,458.97,435.065,458.989,434.926,458.989z"/>
	</g>
	<g>
		<path style="fill:#FFFFFF;" d="M375.273,459.35c0,0,15.347,17.939,12.526,21.135c-2.821,3.197-15.376-11.492-15.376-11.492    s14.431,20.808,7.788,21.695c-6.644,0.887-13.659-16.112-13.659-16.112s0.582,21.964-2.292,22.609    c-2.874,0.645-7.902-23.643-7.902-23.643"/>
		<path style="fill:#251426;" d="M364.143,498.372c-0.291,0-0.644-0.076-1.022-0.318c-3.093-1.998-6.838-19.084-7.913-24.272    c-0.13-0.634,0.277-1.254,0.91-1.385c0.625-0.149,1.254,0.275,1.386,0.909c1.996,9.639,5.006,20.572,6.636,22.54    c1.005-1.872,1.478-12.246,1.239-21.238c-0.015-0.565,0.375-1.062,0.928-1.179c0.557-0.112,1.11,0.176,1.327,0.7    c2.581,6.25,8.231,15.979,12.421,15.397c0.431-0.057,0.535-0.215,0.605-0.373c1.158-2.623-4.684-12.978-9.2-19.491    c-0.356-0.513-0.247-1.215,0.247-1.595c0.495-0.387,1.2-0.309,1.605,0.165c4.086,4.778,10.94,11.518,13.387,11.536    c1.195-1.254-3.96-9.889-12.317-19.656c-0.421-0.492-0.363-1.231,0.128-1.652c0.492-0.421,1.232-0.362,1.652,0.128    c4.813,5.625,15.667,19.098,12.514,22.672c-0.499,0.561-1.164,0.858-1.996,0.851c-1.944-0.016-4.789-2.032-7.509-4.456    c2.576,4.73,4.748,9.916,3.632,12.443c-0.306,0.691-0.976,1.556-2.44,1.751c-5.023,0.691-9.808-6.63-12.562-11.875    c0.025,11.692-1.078,17.86-3.289,18.356C364.409,498.354,364.283,498.372,364.143,498.372z"/>
	</g>
	<g>
		<path style="fill:#FFFFFF;" d="M113.146,450.148c0,0-4.479,23.179-8.737,22.962c-4.258-0.217-0.584-19.187-0.584-19.187    s-7.294,24.25-12.126,19.603s4.1-20.721,4.1-20.721s-16.823,14.133-19.118,12.286c-2.294-1.847,13.578-20.906,13.578-20.906"/>
		<path style="fill:#251426;" d="M93.008,475.29c-0.635,0-1.385-0.211-2.121-0.92c-3.652-3.513-0.92-11.802,1.468-17.221    c-9.131,7.3-14.64,10.271-16.409,8.854c-0.26-0.211-0.585-0.6-0.651-1.263c-0.364-3.662,10.673-17.233,14.064-21.306    c0.414-0.492,1.152-0.565,1.65-0.149c0.498,0.414,0.565,1.151,0.151,1.65c-6.299,7.564-12.977,16.725-13.502,19.226    c2.091-0.38,10.502-6.467,17.387-12.253c0.434-0.364,1.063-0.366,1.499-0.007c0.436,0.359,0.554,0.979,0.279,1.474    c-3.282,5.911-7.354,16.379-4.312,19.306c0.314,0.304,0.503,0.284,0.671,0.24c2.774-0.725,7.237-11.745,9.52-19.336    c0.18-0.6,0.801-0.947,1.403-0.801c0.606,0.149,0.989,0.748,0.87,1.359c-1.195,6.174-2.198,15.734-0.69,17.661    c0.014,0,0.029,0.002,0.042,0.002c1.738,0,5.248-9.362,7.668-21.881c0.122-0.636,0.743-1.039,1.372-0.929    c0.636,0.124,1.052,0.739,0.928,1.373c-1.394,7.218-5.132,23.911-9.844,23.911c-0.034,0-0.069,0-0.102-0.002    c-0.751-0.037-1.41-0.394-1.909-1.03c-1.199-1.531-1.393-5.014-1.19-8.651c-2.097,4.962-4.802,9.891-7.474,10.591    C93.551,475.249,93.291,475.29,93.008,475.29z"/>
	</g>
	<g>
		<path style="fill:#FFFFFF;" d="M40.493,421.687c0,0-10.986,20.896-14.999,19.458c-4.014-1.438,4.985-18.537,4.985-18.537    s-13.99,21.108-17.273,15.264s9.913-18.652,9.913-18.652s-20.189,8.669-21.852,6.238s19.04-16.091,19.04-16.091"/>
		<path style="fill:#251426;" d="M25.801,442.367c-0.244,0-0.478-0.039-0.703-0.119c-0.708-0.254-1.237-0.785-1.53-1.538    c-0.706-1.812,0.116-5.202,1.361-8.625c-3.441,4.142-7.387,8.14-10.216,7.978c-0.754-0.027-1.806-0.332-2.529-1.618    c-2.482-4.417,2.53-11.564,6.383-16.063C7.715,426.73,1.582,427.993,0.3,426.119c-0.19-0.277-0.388-0.744-0.259-1.398    c0.709-3.611,15.197-13.413,19.62-16.331c0.541-0.362,1.268-0.208,1.624,0.332c0.356,0.54,0.207,1.268-0.333,1.623    c-8.217,5.422-17.258,12.264-18.482,14.507c2.111,0.213,11.924-3.16,20.187-6.708c0.515-0.227,1.123-0.043,1.437,0.426    c0.314,0.469,0.247,1.096-0.159,1.49c-4.851,4.712-11.774,13.557-9.707,17.237c0.213,0.38,0.399,0.419,0.571,0.426    c0.017,0,0.033,0,0.049,0c2.9,0,10.297-9.191,14.655-15.761c0.343-0.522,1.032-0.682,1.573-0.359c0.537,0.318,0.73,1,0.439,1.552    c-2.927,5.566-6.65,14.427-5.763,16.706c1.612,0.673,7.725-7.348,13.703-18.718c0.301-0.577,1.008-0.792,1.583-0.492    c0.572,0.3,0.793,1.009,0.491,1.581C38.256,428.457,30.424,442.367,25.801,442.367z"/>
	</g>
	<path style="fill:#FBC677;" d="M325.356,330.854c0,0,68.136,113.181,51.961,140.276c-16.175,27.095-60.684-33.316-80.772-73.357   C276.456,357.732,325.356,330.854,325.356,330.854z"/>
	<path style="fill:#FBC677;" d="M395.997,294.672c0,0,68.136,113.181,51.961,140.276c-16.175,27.095-60.684-33.316-80.772-73.357   S395.997,294.672,395.997,294.672z"/>
	<path style="fill:#FBC677;" d="M164.42,323.61c0,0-89.467,97.202-79.059,126.992c10.408,29.79,66.136-20.458,93.852-55.652   S164.42,323.61,164.42,323.61z"/>
	<path style="fill:#FBC677;" d="M91.344,288.116c0,0-89.467,97.202-79.059,126.992c10.408,29.79,66.136-20.458,93.852-55.652   S91.344,288.116,91.344,288.116z"/>
	<path style="fill:#FBC677;" d="M394.932,284.265c0,0,1.88,88.905-50.708,105.767c-92.65,29.708-293.951-8.745-286.277-78.91   c6.846-62.605-6.953-111.195,183.511-110.812S394.932,284.265,394.932,284.265z"/>
	<g>
		<path style="fill:#FFFFFF;" d="M384.26,8.076c53.055,15.879,23.908,83.567,16.393,67.293S420.076,38.34,452.46,64.6    s23.53,89.343,5.969,90.57c-28.787,2.011,1.521-45.289,31.628,5.233c30.107,50.523-25.69,101.867-42.645,80.633    c-16.955-21.234-1.483-26.08,14.522-10.775s-0.246,88.651-56.13,78.327s-30.082-39.313-16.107-24.588s1.565,64.539-70.138,49.185    s-65.34-62.258-45.102-55.561c20.238,6.697,3.509,40.909-54.187,30.565s-63.129-97.842-28.778-95.849    c34.351,1.994-21.199,47.485-46.826,1.869c-23.407-41.665-8.458-90.205,21.233-83.099c30.965,7.41,15.361,24.158-0.103,9.417    s-3.572-105.887,53.778-82.593c16.124,6.549,2.905,31.443-3.373,7.789c-2.872-10.822,2.08-51.097,53.557-58.165    c50.594-6.947,62.427,45.976,52.86,49.11C313.052,59.801,297.964-17.752,384.26,8.076z"/>
		<path style="fill:#251426;" d="M344.754,337.259c-7.8,0-16.36-0.986-25.44-2.929c-30.912-6.621-45.664-18.503-52.644-27.586    c-11.978,4.966-28.179,5.902-46.607,2.597c-38.619-6.925-54.202-47.855-50.54-74.286c-7.64-1.412-17.947-6.156-25.879-20.274    c-15.775-28.08-13.545-56.955-4.798-71.903c5.014-8.566,12.337-13.386,20.678-13.63c-3.402-17.212,0.933-45.141,14.219-61.854    c10.377-13.054,24.431-17.375,40.932-12.436c2.299-20.414,17.821-43.466,54.926-48.56c3.087-0.426,6.134-0.639,9.056-0.639    c19.398,0,31.151,9.095,37.845,17.42c3.401-8.889,12.485-21.551,36.615-21.551c9.081,0,19.672,1.792,31.48,5.328    c29.804,8.918,32.462,32.969,31.916,44.464c1.817-0.33,3.705-0.497,5.633-0.497c6.983,0,18.04,2.215,31.053,12.765    c23.329,18.919,25.301,55.209,19.259,75.602c6.531,3.854,12.787,10.749,18.606,20.514c11.721,19.668,9.786,37.697,6.099,49.359    c-4.932,15.601-16.046,29.328-28.461,35.239c1.393,13.674-3.115,34.799-16.477,49.906c-9.515,10.754-21.954,16.441-35.973,16.441    c-0.002,0-0.006,0-0.008,0c-3.435,0-7.018-0.339-10.651-1.012c-3.899-0.719-7.548-1.558-10.866-2.499    c-4.093,14.734-19.212,30.019-49.964,30.021C344.758,337.259,344.756,337.259,344.754,337.259z M268.873,305.76    c6.871,8.703,21.211,19.915,50.93,26.277c8.92,1.911,17.315,2.879,24.951,2.879c0.002,0,0.003,0,0.006,0    c29.464-0.002,43.877-14.445,47.718-28.346c-22.151-6.895-22.546-16.704-22.127-19.581c0.685-4.705,5.19-8.252,10.479-8.252    c3.539,0,6.989,1.581,9.716,4.456c4.697,4.95,6.47,13.209,4.727,21.764c3.271,0.931,6.88,1.764,10.743,2.478    c3.492,0.645,6.933,0.97,10.225,0.97c0.002,0,0.005,0,0.007,0c13.33,0,25.162-5.412,34.219-15.651    c12.657-14.306,17.082-34.191,15.971-47.37c-2.967,1.156-5.816,1.742-8.488,1.742h-0.003c-4.691,0-8.651-1.851-11.451-5.36    c-6.406-8.021-8.897-14.594-7.014-18.505c0.965-2.005,2.997-3.108,5.724-3.108c4.917,0,11.474,3.463,17.538,9.262    c2.794,2.673,4.728,6.985,5.633,12.532c9.693-4.941,21.302-16.887,26.55-33.49c3.543-11.205,5.397-28.531-5.878-47.453    c-5.478-9.193-11.302-15.718-17.328-19.42c-3.131,9.033-7.902,14.386-13.212,14.756c-0.633,0.043-1.242,0.064-1.819,0.064    c-0.001,0-0.003,0-0.003,0c-6.217,0.002-8.9-2.389-10.058-4.394c-1.426-2.469-1.239-5.744,0.501-8.76    c2.073-3.588,6.768-7.426,13.729-7.426c3.112,0,6.299,0.785,9.494,2.334c9.446-32.012-5.078-61.658-18.631-72.647    c-12.479-10.12-22.972-12.244-29.577-12.244c-1.999,0-3.947,0.192-5.804,0.572c-1.245,13.301-7.192,25.208-12.693,25.208    c-1.181,0-2.842-0.552-4.06-3.186c-1.903-4.122-1.83-8.703,0.208-12.896c2.548-5.248,7.747-9.227,14.34-11.01    c0.641-10.612-1.407-34.136-30.213-42.757c-11.588-3.467-21.954-5.227-30.807-5.227c-22.936,0-31.662,11.525-34.923,21.437    c7.433,10.399,9.919,22.65,8.004,28.616c-0.802,2.497-2.19,3.421-3.213,3.758c-1.542,0.494-3.191-0.259-4.625-2.204    c-3.483-4.73-6.314-17.601-2.754-29.737c-6.178-8.204-17.536-17.738-36.949-17.738c-2.815,0-5.756,0.206-8.738,0.616    c-23.765,3.263-50.017,17.32-52.967,46.974c1.007,0.35,2.028,0.735,3.064,1.156c7.027,2.854,9.187,9.177,8.212,14.177    c-0.684,3.506-2.803,5.861-5.274,5.861h-0.001c-2.282,0.002-5.5-1.883-7.884-10.866c-0.6-2.256-0.809-5.309-0.604-8.676    c-15.736-4.865-29.02-0.904-38.888,11.509c-13.002,16.356-17.146,43.821-13.651,60.449c1.394,0.101,2.818,0.325,4.246,0.666    c14.506,3.472,19.17,8.98,18.698,12.976c-0.326,2.769-3.06,4.627-6.803,4.627c-2.456,0.002-7.421-0.803-13.08-6.197    c-2.142-2.044-3.801-5.335-4.938-9.793c-7.694,0.055-14.501,4.483-19.181,12.482c-8.421,14.388-10.504,42.294,4.819,69.569    c6.006,10.692,14.359,17.276,24.212,19.112c2.639-14.081,10.638-22.229,21.661-21.574c10.617,0.616,12.074,5.126,11.998,7.758    c-0.212,7.353-13.391,16.681-27.901,16.683c-0.002,0-0.005,0-0.006,0c-1.275,0-2.552-0.071-3.81-0.213    c-3.529,25.497,11.461,64.971,48.636,71.636c17.704,3.172,33.283,2.362,44.776-2.245c-6.59-9.655-6.4-18.205-3.923-23.1    c2.525-4.989,7.807-7.062,13.494-5.179c5.504,1.822,8.793,5.682,9.02,10.591C284.166,294.002,278.334,301.215,268.873,305.76z     M380.83,281.081c-4.133,0-7.641,2.684-8.16,6.245c-0.719,4.934,4.289,11.916,20.346,16.958c1.492-7.644-0.096-15.184-4.171-19.48    C385.925,281.726,382.875,281.081,380.83,281.081z M270.654,278.144c-3.163,0-5.73,1.634-7.233,4.602    c-2.102,4.154-2.253,12.106,4.027,21.096c8.85-4.122,14.339-10.582,14.057-16.631c-0.181-3.888-2.885-6.975-7.417-8.477    C272.903,278.343,271.747,278.144,270.654,278.144z M445.206,222.496c-1.258,0-2.904,0.309-3.612,1.78    c-0.534,1.11-1.629,5.552,6.734,16.029c2.373,2.971,5.609,4.476,9.62,4.476c0,0,0.001,0,0.002,0c2.549,0,5.309-0.609,8.214-1.815    c-0.776-5.353-2.511-9.44-5.039-11.859C454.484,224.757,448.548,222.496,445.206,222.496z M172.218,233.085    c1.134,0.121,2.284,0.183,3.433,0.183c0.001,0,0.003,0,0.003,0c13.88-0.002,25.397-8.719,25.561-14.406    c0.088-3.037-3.481-4.987-9.79-5.353C181.557,212.944,174.658,220.123,172.218,233.085z M460.859,138.166    c-5.964,0-9.954,3.231-11.699,6.255c-1.317,2.282-1.505,4.68-0.501,6.417c1.2,2.078,4.051,3.222,8.028,3.222    c0.001,0,0.001,0,0.001,0c0.529,0,1.082-0.018,1.659-0.059c4.402-0.307,8.492-5.241,11.295-13.58    C466.664,138.926,463.713,138.166,460.859,138.166z M162.508,131.706c1.006,3.625,2.41,6.364,4.098,7.971    c3.702,3.529,7.879,5.554,11.461,5.552c2.498,0,4.297-1.028,4.476-2.559c0.253-2.144-2.957-7.081-16.916-10.422    C164.578,131.996,163.534,131.816,162.508,131.706z M413.924,54.454c-5.544,1.7-9.874,5.117-12.019,9.534    c-1.724,3.55-1.792,7.417-0.188,10.889c0.56,1.213,1.209,1.826,1.93,1.826C406.881,76.703,412.53,67.261,413.924,54.454z     M216.771,58.116c-0.127,2.842,0.07,5.449,0.563,7.305c1.785,6.728,4.074,9.124,5.618,9.122c1.276,0,2.527-1.668,2.975-3.966    c0.733-3.76-0.605-9.044-6.794-11.559C218.337,58.695,217.549,58.393,216.771,58.116z M317.366,28.346    c-2.531,10.722-0.063,21.846,2.88,25.84c0.645,0.879,1.317,1.403,1.797,1.403c1.127-0.334,1.648-1.423,1.923-2.282    C325.611,48.181,323.538,37.755,317.366,28.346z"/>
	</g>
	<path style="fill:#251426;" d="M333.711,281.914c-5.738,0-11.926-0.7-18.392-2.085c-13.852-2.966-24.315-7.873-30.324-14.212   c-6.61,1.568-14.917,1.515-24.309-0.169c-16.07-2.881-29.839-13.921-36.832-29.531c-4.036-9.012-4.846-17.848-2.254-23.606   c-6.633-1.52-17.316-5.898-24.395-18.494c-6.327-11.262-7.485-22.43-3.26-31.449c3.186-6.799,9.335-11.797,16.635-13.603   c-4.314-9.905-6.748-27.897,0.794-40.006c6.515-10.459,18.817-14.145,36.024-10.678c1.028,0.206,1.989,0.563,2.877,1.066   c2.388-15.644,13.733-34.17,38.691-37.596c2.086-0.286,4.145-0.433,6.121-0.433c12.759,0,20.645,5.808,25.253,11.312   c2.496-6.012,8.802-14.079,24.659-14.079c6.124,0,13.26,1.206,21.21,3.584c19.829,5.936,21.958,21.741,21.687,29.717   c1.093-0.172,2.221-0.259,3.369-0.259c4.744,0,12.248,1.499,21.059,8.644c17.221,13.965,21.622,41.18,13.373,53.792   c3.067,2.874,6.046,6.724,8.868,11.459c8.417,14.125,9.868,29.314,3.981,41.67c-3.467,7.275-9.118,12.473-14.978,13.878   c1.882,8.484,0.756,20.482-6.033,29.323c-6.593,8.587-17.159,11.976-30.137,9.58c-5.381-0.993-10.121-2.186-14.119-3.547   c-0.276,4.675-2.624,9.626-6.607,13.825c-7.279,7.671-18.982,11.898-32.955,11.898   C333.715,281.914,333.713,281.914,333.711,281.914z M287.583,264.896c4.348,4.156,12.626,9.301,28.226,12.64   c6.305,1.35,12.328,2.035,17.902,2.035c0,0,0.003,0,0.006,0c17.978,0,27.3-6.998,31.257-11.168c3.81-4.019,5.965-8.731,5.99-13.054   c-7.598-2.943-11.779-6.518-11.22-9.632c0.259-1.437,1.575-2.364,3.353-2.364c2.299,0,4.949,1.403,7.271,3.849   c1.597,1.682,2.577,3.913,2.856,6.488c4.051,1.444,8.957,2.703,14.601,3.746c12.067,2.22,21.81-0.835,27.853-8.703   c6.329-8.243,7.314-19.812,5.567-27.545c-2.888,0.185-5.544-0.636-7.808-2.401c-6.158-4.806-9.168-9.083-8.255-11.738   c0.402-1.167,1.485-1.838,2.974-1.838c2.75,0,6.71,2.215,10.592,5.927c1.791,1.712,3.239,4.268,4.221,7.431   c5.197-1.213,10.284-5.948,13.462-12.621c2.623-5.504,7.497-20.373-3.879-39.461c-2.654-4.453-5.433-8.072-8.276-10.777   c-2.742,3.131-6.402,4.783-10.66,4.792c-5.685,0-7.798-2.202-8.556-3.515c-0.923-1.6-0.878-3.513,0.125-5.25   c1.414-2.449,4.396-3.971,7.782-3.971c2.492,0,6.351,0.808,10.945,4.508c7.411-11.823,2.722-37.617-13.063-50.416   c-8.278-6.715-15.218-8.122-19.583-8.122c-1.213,0-2.397,0.108-3.532,0.32c-0.914,8.982-5.034,16.958-8.863,16.96   c-0.001,0-0.001,0-0.001,0c-0.904,0-2.17-0.41-3.071-2.359c-1.325-2.872-1.275-6.06,0.143-8.978   c1.722-3.545,5.189-6.248,9.589-7.509c0.37-7.138-1.193-22.364-19.993-27.991c-7.731-2.314-14.641-3.485-20.537-3.485   c-14.998,0-20.786,7.438-22.979,13.917c5.148,7.282,6.59,15.356,5.304,19.361c-0.587,1.831-1.631,2.517-2.402,2.771   c-0.244,0.078-0.497,0.119-0.751,0.119c-0.685,0-1.724-0.3-2.781-1.735c-2.364-3.211-4.296-11.882-1.96-20.082   c-4.114-5.394-11.611-11.585-24.343-11.585c-1.87,0-3.822,0.137-5.803,0.41c-31.1,4.27-36.175,31.639-36.866,36.919   c3.722,3.742,4.424,10.111,3.519,12.489c-0.497,1.304-1.409,1.446-1.778,1.446c-1.09,0-2.412-0.776-3.941-6.538   c-0.406-1.531-0.497-3.804-0.26-6.447c-0.893-0.68-1.906-1.137-3.022-1.362c-16.136-3.245-27.607,0.043-33.572,9.621   c-7.218,11.585-4.659,29.019-0.427,38.303c3.275-0.49,6.653-0.334,9.927,0.451c9.7,2.321,10.811,5.534,10.61,7.241   c-0.281,2.385-3.312,4.051-7.368,4.051c-4.085,0-8.193-1.682-11.27-4.614c-1.121-1.071-2.202-2.581-3.218-4.502   c-6.824,1.531-12.597,6.129-15.551,12.434c-3.895,8.314-2.766,18.72,3.181,29.305c6.599,11.747,16.312,16.022,23.568,17.512   c2.234-3.119,5.666-4.653,10.089-4.392c5.45,0.316,8.072,1.433,8.014,3.414c-0.078,2.655-5.642,4.046-11.101,4.046   c-1.924,0-3.886-0.16-5.844-0.476c-2.578,5.042-1.822,13.617,2.016,22.185c6.676,14.903,19.799,25.439,35.107,28.183   c8.503,1.524,16.071,1.671,22.167,0.455c-3.85-5.039-4.912-10.681-2.816-15.386c2.142-4.808,7.287-7.211,12.191-5.591   c4.659,1.542,7.464,5.195,7.319,9.534C299.814,256.536,296.448,262.029,287.583,264.896z M289.455,244.437   c-2.934,0-5.563,1.813-6.863,4.728c-1.847,4.142-0.65,9.269,3.195,13.827c8.528-2.417,11.713-7.351,11.832-10.916   c0.109-3.259-2.08-6.028-5.713-7.232C291.089,244.574,290.265,244.437,289.455,244.437z M363.096,245.695   c-0.446,0-0.989,0.112-1.046,0.435c-0.173,0.963,1.782,3.728,8.637,6.582c-0.351-1.536-1.036-2.861-2.021-3.9   C366.485,246.515,364.359,245.695,363.096,245.695z M408.154,207.555c-0.201,0-0.679,0.025-0.758,0.256   c-0.232,0.675,0.645,3.797,7.48,9.127c1.675,1.307,3.642,2.025,5.726,1.929c-0.855-2.595-2.044-4.664-3.476-6.035   C413.052,208.937,409.747,207.555,408.154,207.555z M225.482,210.624c1.457,0.185,2.909,0.281,4.338,0.281   c4.901,0,7.806-1.08,8.597-1.71c-0.471-0.281-1.867-0.849-5.646-1.069C229.661,207.948,227.232,208.79,225.482,210.624z    M412.966,150.11c-3.049,0-4.971,1.446-5.752,2.799c-0.581,1.007-0.626,2.039-0.126,2.906c0.86,1.49,3.22,2.343,6.473,2.343   c3.655-0.009,6.65-1.353,8.957-3.998C418.421,150.836,415.09,150.11,412.966,150.11z M214.067,150.517   c0.778,1.359,1.589,2.458,2.387,3.215c2.644,2.522,6.163,3.968,9.652,3.968c3.136,0,4.942-1.151,5.04-1.982   c0.102-0.865-1.611-2.961-8.827-4.687C219.601,150.382,216.802,150.206,214.067,150.517z M252.177,104.28   c-0.01,1.348,0.093,2.504,0.307,3.307c0.593,2.234,1.097,3.46,1.446,4.122C254.117,110.123,253.755,106.921,252.177,104.28z    M385.302,94.7c-3.34,1.16-5.938,3.293-7.255,6.005c-1.104,2.273-1.149,4.749-0.122,6.969c0.172,0.373,0.524,1,0.943,1   C380.642,108.674,384.265,102.996,385.302,94.7z M321.213,77.651c-1.334,6.779,0.219,13.582,2.064,16.088   c0.471,0.641,0.804,0.78,0.894,0.78c0.503-0.162,0.792-0.86,0.921-1.263C326.098,90.123,324.847,83.599,321.213,77.651z"/>
	<g>
		<path style="fill:#FBC677;" d="M340.838,231.374c109.674-13.403,44.913-160.753,33.629-171.463    c-11.284-10.71-13.516,44.642-13.516,44.642l-95.49,19.318c0,0-12.513-47.369-24.656-54.016S194.939,249.203,340.838,231.374z"/>
		<path style="fill:#251326;" d="M315.966,160.103l45.29-6.69C361.256,153.413,352.619,211.205,315.966,160.103z"/>
		<path style="fill:#251426;" d="M355.033,160.516c-0.601,0-1.112-0.458-1.166-1.069c-3.418-38.397,5.678-54.797,6.067-55.476    c0.322-0.561,1.032-0.758,1.597-0.435c0.561,0.318,0.756,1.034,0.438,1.597c-0.092,0.16-9.112,16.551-5.768,54.108    c0.057,0.643-0.419,1.213-1.063,1.27C355.103,160.514,355.067,160.516,355.033,160.516z"/>
		<path style="fill:#251426;" d="M324.042,160.177c-0.417,0-0.819-0.222-1.031-0.613c-25.326-46.768-55.825-35.131-57.111-34.605    c-0.598,0.236-1.283-0.048-1.524-0.648c-0.243-0.6,0.045-1.282,0.643-1.524c0.332-0.14,33.686-13.026,60.052,35.66    c0.309,0.57,0.097,1.282-0.471,1.588C324.421,160.132,324.23,160.177,324.042,160.177z"/>
		<path style="fill:#251426;" d="M335.183,215.844c-0.752,0-1.475-0.24-2.135-0.714c-4.909-3.529-5.553-20.858-5.611-22.821    c-0.018-0.648,0.491-1.185,1.137-1.206c0.605-0.005,1.187,0.487,1.206,1.137c0.204,6.973,1.644,18.837,4.635,20.986    c0.391,0.281,0.75,0.346,1.19,0.206c4.224-1.286,5.812-13.539,5.82-20.961c0.001-0.645,0.525-1.169,1.172-1.169h0.001    c0.648,0,1.172,0.526,1.171,1.174c-0.002,2.142-0.233,20.99-7.481,23.199C335.916,215.786,335.546,215.844,335.183,215.844z"/>
		<circle style="fill:#F1937B;" cx="288.091" cy="181.035" r="17.083"/>
		<circle style="fill:#F1937B;" cx="378.074" cy="173.513" r="17.083"/>
		<path style="fill:#251426;" d="M293.832,158.18c-0.338,0-0.685-0.057-1.037-0.174c-4.133-1.353-9.232-11.461-9.799-12.61    c-0.287-0.581-0.049-1.284,0.531-1.57c0.578-0.288,1.282-0.048,1.57,0.531c1.977,3.998,6.013,10.633,8.428,11.422    c0.326,0.11,0.46,0.037,0.518,0.009c1.721-0.895,1.175-8.93-0.415-15.873c-0.144-0.629,0.249-1.259,0.88-1.403    c0.625-0.151,1.259,0.249,1.404,0.881c0.867,3.785,3.374,16.31-0.788,18.473C294.723,158.074,294.287,158.18,293.832,158.18z"/>
		<path style="fill:#251426;" d="M381.066,147.167c-0.326,0-0.705-0.073-1.119-0.284c-3.484-1.769-7.248-13.818-7.966-16.217    c-0.185-0.62,0.166-1.272,0.786-1.458c0.622-0.192,1.272,0.165,1.459,0.785c2.297,7.655,5.5,14.585,6.856,14.83    c1.222-0.579,2.017-8.495,1.624-16.926c-0.03-0.648,0.469-1.195,1.116-1.224c0.675-0.062,1.195,0.469,1.225,1.115    c0.251,5.355,0.434,17.951-3.258,19.256C381.597,147.11,381.352,147.167,381.066,147.167z"/>
		<path style="fill:#FFFFFF;" d="M373.408,102.328c0,0-2.268-30.96,2.896-26.671c5.163,4.29,8,25.487,8,25.487L373.408,102.328z"/>
		<path style="fill:#FFFFFF;" d="M253.38,120.17l-15.024,4.132c0,0,0.302-27.676,4.531-27.304    C247.116,97.37,253.38,120.17,253.38,120.17z"/>
		<path style="fill:#251426;" d="M317.461,127.422c-0.589,0-1.097-0.444-1.164-1.041c-0.207-1.867-4.447-4.042-7.392-4.989    c-0.616-0.197-0.954-0.858-0.756-1.474c0.199-0.616,0.857-0.954,1.475-0.755c1.425,0.458,8.557,2.948,9.003,6.957    c0.071,0.643-0.392,1.224-1.036,1.295C317.548,127.419,317.503,127.422,317.461,127.422z"/>
		<path style="fill:#251426;" d="M327.181,123.932c-0.112,0-0.228-0.016-0.341-0.05c-0.619-0.188-0.968-0.844-0.78-1.462    c0.546-1.794-2.49-5.467-4.819-7.502c-0.487-0.426-0.538-1.167-0.112-1.655c0.423-0.487,1.164-0.536,1.652-0.112    c1.128,0.984,6.696,6.087,5.521,9.951C328.148,123.607,327.684,123.932,327.181,123.932z"/>
		<path style="fill:#251426;" d="M329.113,139.766c-0.112,0-0.228-0.016-0.341-0.05c-0.619-0.188-0.968-0.844-0.78-1.462    c0.546-1.794-2.49-5.467-4.819-7.502c-0.487-0.426-0.538-1.167-0.112-1.655c0.423-0.487,1.165-0.533,1.652-0.112    c1.128,0.984,6.696,6.087,5.521,9.951C330.08,139.441,329.615,139.766,329.113,139.766z"/>
		<path style="fill:#251426;" d="M337.273,137.61c-0.112,0-0.228-0.016-0.341-0.05c-0.619-0.19-0.968-0.844-0.78-1.462    c0.547-1.796-2.489-5.467-4.819-7.5c-0.487-0.426-0.538-1.165-0.113-1.655c0.429-0.487,1.167-0.531,1.653-0.112    c1.128,0.984,6.696,6.087,5.521,9.948C338.24,137.285,337.775,137.61,337.273,137.61z"/>
		<path style="fill:#251426;" d="M338.269,125.79c-0.231,0-0.465-0.069-0.669-0.211c-0.531-0.371-0.66-1.101-0.291-1.632    c1.074-1.54-0.68-5.971-2.268-8.623c-0.333-0.554-0.152-1.275,0.403-1.607c0.557-0.336,1.275-0.153,1.607,0.403    c0.77,1.284,4.49,7.857,2.181,11.168C339.004,125.616,338.64,125.79,338.269,125.79z"/>
		<path style="fill:#251426;" d="M344.66,127.428c-0.342,0-0.681-0.149-0.912-0.435c-0.407-0.503-0.33-1.24,0.174-1.648    c1.46-1.181,1.004-5.925,0.214-8.914c-0.165-0.627,0.208-1.268,0.833-1.433c0.625-0.172,1.267,0.208,1.433,0.833    c0.382,1.449,2.131,8.797-1.006,11.335C345.18,127.344,344.919,127.428,344.66,127.428z"/>
	</g>
	<path style="fill:#251426;" d="M433.962,397.654c-0.641,0-1.164-0.515-1.172-1.158c-0.064-5.138-4.383-7.609-4.566-7.712   c-0.564-0.316-0.769-1.028-0.455-1.593c0.312-0.563,1.025-0.769,1.587-0.46c0.232,0.128,5.695,3.206,5.777,9.738   c0.008,0.645-0.51,1.176-1.157,1.185C433.972,397.654,433.967,397.654,433.962,397.654z"/>
	<path style="fill:#251426;" d="M427.909,408.904c-0.041,0-0.082-0.002-0.125-0.007c-0.643-0.069-1.11-0.645-1.041-1.288   c0.473-4.472-4.56-7.568-4.611-7.6c-0.554-0.334-0.731-1.055-0.396-1.609c0.333-0.554,1.052-0.732,1.609-0.396   c0.26,0.158,6.358,3.916,5.728,9.852C429.01,408.458,428.5,408.904,427.909,408.904z"/>
	<path style="fill:#251426;" d="M435.288,422.835c-0.041,0-0.082-0.002-0.125-0.007c-0.643-0.069-1.11-0.645-1.041-1.288   c0.473-4.472-4.56-7.568-4.611-7.6c-0.554-0.334-0.731-1.055-0.396-1.609c0.333-0.554,1.053-0.735,1.609-0.396   c0.26,0.158,6.358,3.916,5.728,9.852C436.389,422.388,435.88,422.835,435.288,422.835z"/>
	<path style="fill:#251426;" d="M441.311,415.243c-0.042,0-0.086-0.002-0.13-0.007c-0.643-0.071-1.107-0.65-1.036-1.293   c0.481-4.332-4.578-7.573-4.63-7.605c-0.547-0.346-0.712-1.069-0.366-1.616c0.343-0.547,1.07-0.714,1.616-0.366   c0.26,0.163,6.35,4.071,5.71,9.843C442.408,414.799,441.9,415.243,441.311,415.243z"/>
	<path style="fill:#251426;" d="M421.165,390.596c-0.042,0-0.086-0.002-0.13-0.007c-0.643-0.071-1.107-0.65-1.036-1.293   c0.477-4.312-4.582-7.575-4.632-7.607c-0.546-0.348-0.709-1.071-0.364-1.616c0.347-0.547,1.068-0.716,1.615-0.366   c0.26,0.162,6.35,4.071,5.711,9.845C422.262,390.152,421.754,390.596,421.165,390.596z"/>
	<path style="fill:#251426;" d="M426.588,382.151c-0.042,0-0.086-0.002-0.13-0.007c-0.643-0.071-1.107-0.65-1.036-1.293   c0.481-4.332-4.578-7.575-4.63-7.607c-0.547-0.346-0.712-1.069-0.366-1.616c0.344-0.545,1.068-0.712,1.616-0.366   c0.26,0.162,6.35,4.074,5.71,9.845C427.686,381.707,427.178,382.151,426.588,382.151z"/>
	<path style="fill:#251426;" d="M364.468,426.389c-0.641,0-1.164-0.515-1.172-1.158c-0.064-5.138-4.383-7.609-4.566-7.712   c-0.564-0.316-0.769-1.028-0.455-1.593c0.314-0.563,1.023-0.769,1.587-0.46c0.232,0.128,5.695,3.206,5.777,9.738   c0.008,0.645-0.51,1.176-1.157,1.185C364.479,426.389,364.473,426.389,364.468,426.389z"/>
	<path style="fill:#251426;" d="M358.414,437.639c-0.041,0-0.082-0.002-0.125-0.007c-0.643-0.069-1.11-0.645-1.041-1.288   c0.473-4.472-4.56-7.568-4.611-7.6c-0.554-0.334-0.731-1.055-0.396-1.609c0.333-0.554,1.05-0.735,1.609-0.396   c0.26,0.158,6.358,3.916,5.728,9.852C359.515,437.193,359.006,437.639,358.414,437.639z"/>
	<path style="fill:#251426;" d="M365.794,451.569c-0.041,0-0.082-0.002-0.125-0.007c-0.643-0.069-1.11-0.645-1.041-1.288   c0.471-4.447-4.562-7.57-4.613-7.6c-0.553-0.336-0.729-1.057-0.392-1.609c0.334-0.552,1.055-0.728,1.607-0.396   c0.26,0.156,6.359,3.916,5.728,9.852C366.894,451.123,366.385,451.569,365.794,451.569z"/>
	<path style="fill:#251426;" d="M371.816,443.978c-0.042,0-0.086-0.002-0.13-0.007c-0.643-0.071-1.107-0.65-1.036-1.293   c0.481-4.332-4.578-7.575-4.63-7.607c-0.547-0.346-0.712-1.069-0.366-1.616c0.344-0.547,1.068-0.714,1.616-0.366   c0.26,0.162,6.35,4.074,5.71,9.845C372.913,443.534,372.405,443.978,371.816,443.978z"/>
	<path style="fill:#251426;" d="M351.67,419.331c-0.042,0-0.086-0.002-0.13-0.007c-0.643-0.071-1.107-0.65-1.036-1.293   c0.481-4.334-4.578-7.575-4.63-7.607c-0.547-0.346-0.712-1.069-0.366-1.616c0.346-0.545,1.069-0.714,1.616-0.366   c0.26,0.163,6.35,4.071,5.71,9.845C352.767,418.887,352.259,419.331,351.67,419.331z"/>
	<path style="fill:#251426;" d="M357.095,410.886c-0.042,0-0.086-0.002-0.13-0.007c-0.643-0.071-1.107-0.65-1.036-1.293   c0.479-4.334-4.578-7.575-4.63-7.607c-0.547-0.346-0.712-1.069-0.366-1.616c0.344-0.547,1.068-0.714,1.616-0.366   c0.26,0.162,6.348,4.071,5.71,9.845C358.192,410.442,357.684,410.886,357.095,410.886z"/>
	<path style="fill:#251426;" d="M141.699,425.386c-0.455,0-0.888-0.268-1.078-0.712c-0.254-0.597,0.024-1.284,0.619-1.538   c4.73-2.014,5.377-6.948,5.402-7.159c0.079-0.639,0.674-1.089,1.3-1.025c0.641,0.076,1.101,0.655,1.028,1.295   c-0.03,0.263-0.802,6.486-6.812,9.044C142.008,425.357,141.853,425.386,141.699,425.386z"/>
	<path style="fill:#251426;" d="M128.993,424.059c-0.508,0-0.975-0.332-1.125-0.844c-0.181-0.62,0.175-1.27,0.796-1.451   c4.315-1.261,5.267-7.094,5.276-7.152c0.098-0.641,0.704-1.071,1.338-0.979c0.64,0.098,1.078,0.698,0.978,1.337   c-0.047,0.302-1.205,7.371-6.935,9.042C129.212,424.043,129.102,424.059,128.993,424.059z"/>
	<path style="fill:#251426;" d="M118.911,436.179c-0.508,0-0.975-0.332-1.125-0.842c-0.182-0.622,0.175-1.272,0.796-1.453   c4.315-1.263,5.268-7.094,5.277-7.154c0.1-0.636,0.7-1.073,1.338-0.977c0.64,0.098,1.078,0.698,0.978,1.339   c-0.047,0.3-1.207,7.367-6.937,9.04C119.13,436.163,119.02,436.179,118.911,436.179z"/>
	<path style="fill:#251426;" d="M128.221,438.866c-0.51,0-0.978-0.334-1.126-0.849c-0.179-0.622,0.181-1.27,0.802-1.449   c4.167-1.197,5.266-7.117,5.276-7.177c0.113-0.636,0.72-1.057,1.357-0.95c0.637,0.112,1.063,0.719,0.952,1.355   c-0.053,0.302-1.354,7.422-6.938,9.024C128.436,438.852,128.327,438.866,128.221,438.866z"/>
	<path style="fill:#251426;" d="M143.364,410.863c-0.509,0-0.977-0.334-1.125-0.849c-0.179-0.622,0.181-1.27,0.802-1.449   c4.169-1.197,5.266-7.115,5.276-7.175c0.114-0.636,0.719-1.057,1.357-0.95c0.637,0.112,1.063,0.719,0.952,1.355   c-0.053,0.302-1.354,7.419-6.938,9.021C143.58,410.85,143.472,410.863,143.364,410.863z"/>
	<path style="fill:#251426;" d="M153.237,412.673c-0.51,0-0.978-0.334-1.126-0.849c-0.178-0.622,0.181-1.27,0.802-1.449   c4.167-1.197,5.266-7.117,5.276-7.177c0.114-0.636,0.716-1.064,1.357-0.95c0.637,0.112,1.063,0.719,0.952,1.355   c-0.053,0.302-1.354,7.422-6.938,9.024C153.452,412.66,153.343,412.673,153.237,412.673z"/>
	<path style="fill:#251426;" d="M68.914,386.742c-0.455,0-0.888-0.268-1.078-0.712c-0.254-0.597,0.024-1.284,0.619-1.538   c4.73-2.014,5.377-6.948,5.402-7.156c0.078-0.641,0.669-1.08,1.3-1.028c0.641,0.076,1.101,0.652,1.028,1.295   c-0.03,0.263-0.801,6.486-6.812,9.044C69.223,386.712,69.067,386.742,68.914,386.742z"/>
	<path style="fill:#251426;" d="M56.208,385.415c-0.508,0-0.975-0.332-1.125-0.844c-0.181-0.62,0.175-1.27,0.796-1.451   c4.291-1.254,5.268-7.097,5.277-7.154c0.103-0.638,0.699-1.089,1.34-0.975c0.639,0.101,1.074,0.696,0.976,1.337   c-0.047,0.3-1.207,7.369-6.937,9.04C56.426,385.399,56.316,385.415,56.208,385.415z"/>
	<path style="fill:#251426;" d="M46.127,397.535c-0.508,0-0.975-0.332-1.125-0.842c-0.182-0.622,0.175-1.272,0.796-1.453   c4.315-1.263,5.267-7.094,5.276-7.152c0.101-0.639,0.696-1.076,1.338-0.979c0.64,0.098,1.078,0.698,0.978,1.336   c-0.047,0.302-1.205,7.369-6.935,9.042C46.345,397.519,46.235,397.535,46.127,397.535z"/>
	<path style="fill:#251426;" d="M55.435,400.222c-0.509,0-0.977-0.334-1.125-0.849c-0.179-0.622,0.181-1.27,0.802-1.449   c4.167-1.197,5.265-7.117,5.275-7.177c0.114-0.636,0.715-1.055,1.357-0.95c0.636,0.112,1.063,0.719,0.952,1.355   c-0.053,0.302-1.353,7.422-6.937,9.024C55.652,400.208,55.543,400.222,55.435,400.222z"/>
	<path style="fill:#251426;" d="M70.58,372.219c-0.51,0-0.978-0.334-1.126-0.849c-0.179-0.622,0.181-1.27,0.802-1.449   c4.169-1.197,5.266-7.115,5.277-7.175c0.112-0.636,0.712-1.064,1.356-0.95c0.637,0.112,1.063,0.719,0.952,1.355   c-0.053,0.302-1.354,7.419-6.938,9.021C70.795,372.205,70.686,372.219,70.58,372.219z"/>
	<path style="fill:#251426;" d="M80.451,374.029c-0.509,0-0.977-0.334-1.125-0.849c-0.179-0.622,0.181-1.27,0.802-1.449   c4.167-1.197,5.265-7.117,5.275-7.177c0.113-0.636,0.721-1.06,1.357-0.95c0.636,0.112,1.063,0.719,0.952,1.355   c-0.053,0.302-1.353,7.422-6.937,9.024C80.668,374.016,80.559,374.029,80.451,374.029z"/>
	<path style="fill:#FBC677;" d="M135.644,245.801c0,0-53.57,39.627-78.694,2.471s9.602-94.707,9.602-94.707   s-24.165-6.304-22.802-1.184c1.363,5.12-53.123,79.919-3.96,121.516s102.897,0.144,102.897,0.144L135.644,245.801z"/>
	<path style="fill:#FFE9CB;" d="M297.089,398.851c0,0-5.75-62.666-84.59-79.44c-72.341-15.392-111.537,46.402-111.537,46.402   S192.88,416.543,297.089,398.851z"/>
	<path style="fill:#FFE9CB;" d="M354.883,385.24c0.817,1.437,21.461-10.294,30.131-34.589c0,0-3.467-19.374-21.796-18.867   C344.889,332.292,344.952,367.766,354.883,385.24z"/>
	<g>
		<path style="fill:#FFFFFF;" d="M46.924,125.375c0,0,2.457-31.265,22.346-17.041s1.228,27.027-1.938,19.11    s15.668-20.941,25.052-9.05s7.649,32.83-4.988,28.788c-12.637-4.042-8.996-17.751-0.663-9.022s15.188,25.019-14.723,26.313    c-29.91,1.293-27.321-24.101-19.514-22.814c7.807,1.288,3.975,22.336-12.508,17.139s-15.004-40.938,0.475-42.864    C60.819,113.403,52.497,141.66,46.924,125.375z"/>
		<path style="fill:#251426;" d="M69.835,165.693c-10.273,0-15.965-3.275-19.03-6.296c-3.119,1.657-6.966,1.847-11.168,0.519    c-9.897-3.119-13.379-15.791-12.427-26.245c0.967-10.61,6.113-18.029,13.11-18.899c2.849-0.359,5.369-0.153,7.478,0.597    c3.982-12.173,11.995-15.253,22.155-7.989c2.793,1.998,5.006,4.087,6.591,6.223c2.03-0.769,4.12-1.172,6.099-1.172    c4.272,0,7.958,1.813,10.662,5.238c5.195,6.58,7.505,16.576,5.494,23.766c-0.856,3.06-2.408,5.266-4.52,6.449    c1.24,3.81,0.957,7.252-0.839,10.008c-3.035,4.662-10.227,7.268-21.378,7.751c-0.76,0.032-1.504,0.048-2.223,0.048    C69.838,165.693,69.836,165.693,69.835,165.693z M52.799,158.061c2.813,2.595,7.927,5.289,17.036,5.289c0.001,0,0.002,0,0.003,0    c0.687,0,1.397-0.016,2.123-0.048c10.206-0.439,16.953-2.753,19.515-6.687c1.401-2.149,1.602-4.808,0.604-7.914    c-1.536,0.316-3.234,0.176-5.04-0.4c-6.66-2.131-9.559-6.996-8.98-10.703c0.327-2.101,1.8-3.46,3.751-3.46    c1.767,0,3.762,1.112,5.772,3.215c2.498,2.618,4.531,5.531,5.823,8.326c1.76-1.14,2.671-3.211,3.136-4.872    c1.565-5.595,0.324-14.841-5.077-21.684c-3.226-4.087-8.322-5.328-13.617-3.499c2.684,4.859,1.501,8.625,0.489,10.518    c-1.569,2.932-4.55,4.902-7.417,4.902c-2.167,0-3.871-1.153-4.675-3.163c-1.919-4.797,2.547-10.378,8.104-13.29    c-1.413-1.799-3.345-3.577-5.759-5.305c-3.238-2.316-6.157-3.49-8.675-3.49c-5.396,0-8.387,5.57-9.987,10.605    c4.051,2.572,5.306,7.532,4.399,11.351c-0.569,2.394-1.934,3.881-3.564,3.881c-1.946,0-3.61-1.977-4.946-5.877    c-0.051-0.151-0.072-0.314-0.06-0.471c0.013-0.156,0.291-3.568,1.377-7.662c-1.774-0.661-3.909-0.847-6.525-0.524    c-7.117,0.886-10.408,9.596-11.064,16.786c-0.897,9.852,2.523,21.19,10.797,23.798c3.36,1.062,6.39,1.018,8.867-0.11    c-3.488-4.65-3.603-10.118-2.117-13.459c1.165-2.62,3.227-4.007,5.597-3.609c2.373,0.391,4.07,2.236,4.655,5.062    C58.128,149.359,56.762,154.783,52.799,158.061z M51.927,142.785c-1.068,0-2.051,0.833-2.695,2.282    c-1.226,2.758-1.069,7.339,1.976,11.266c3.218-2.609,4.495-7.126,3.84-10.292c-0.222-1.071-0.873-2.916-2.742-3.225    C52.178,142.796,52.052,142.785,51.927,142.785z M81.811,136.48c-1.048,0-1.35,0.927-1.436,1.478    c-0.331,2.117,1.381,6.19,7.379,8.108c1.25,0.4,2.408,0.538,3.437,0.407c-1.187-2.504-3.035-5.126-5.305-7.502    C84.376,137.388,82.89,136.48,81.811,136.48z M48.114,125.229c1.133,3.204,2.221,4.06,2.647,4.06c0.319,0,0.947-0.659,1.285-2.078    c0.542-2.289,0.154-6.152-2.792-8.429C48.487,121.847,48.191,124.451,48.114,125.229z M75.674,116.54    c-5.171,2.597-8.513,7.319-7.254,10.47c0.447,1.119,1.288,1.689,2.499,1.689c1.684,0,4.063-1.259,5.351-3.664    C77.61,122.531,77.393,119.544,75.674,116.54z"/>
	</g>
	<path style="fill:#251426;" d="M237.41,393.788c-1.778,0-3.687-0.419-5.341-1.714c-0.51-0.398-0.6-1.135-0.2-1.645   s1.135-0.597,1.644-0.199c3.411,2.671,8.853,0.087,8.906,0.064c0.586-0.281,1.284-0.041,1.565,0.54   c0.283,0.581,0.042,1.282-0.539,1.565C243.27,392.486,240.546,393.788,237.41,393.788z"/>
	<path style="fill:#251426;" d="M228.508,381.378c-1.778,0-3.687-0.419-5.341-1.714c-0.51-0.398-0.6-1.135-0.2-1.645   s1.135-0.595,1.644-0.199c3.412,2.668,8.852,0.087,8.906,0.064c0.585-0.279,1.284-0.041,1.565,0.54   c0.283,0.581,0.042,1.282-0.539,1.565C234.368,380.076,231.643,381.378,228.508,381.378z"/>
	<path style="fill:#251426;" d="M214.226,388.623c-1.778,0-3.688-0.419-5.343-1.714c-0.509-0.398-0.598-1.135-0.199-1.645   s1.135-0.597,1.645-0.199c3.427,2.687,8.847,0.092,8.902,0.064c0.581-0.279,1.284-0.046,1.568,0.538   c0.284,0.581,0.043,1.284-0.538,1.568C220.086,387.321,217.363,388.623,214.226,388.623z"/>
	<path style="fill:#251426;" d="M207.015,375.537c-1.778,0-3.689-0.419-5.345-1.716c-0.509-0.398-0.598-1.135-0.199-1.645   c0.4-0.508,1.134-0.597,1.645-0.199c3.433,2.687,8.849,0.094,8.904,0.066c0.58-0.281,1.283-0.043,1.566,0.538   c0.284,0.581,0.043,1.284-0.539,1.568C212.873,374.235,210.15,375.537,207.015,375.537z"/>
	<path style="fill:#251426;" d="M171.734,381.54c-1.778,0-3.687-0.419-5.341-1.714c-0.51-0.398-0.6-1.135-0.2-1.645   c0.398-0.51,1.135-0.595,1.644-0.199c3.412,2.671,8.853,0.087,8.906,0.064c0.582-0.281,1.284-0.039,1.565,0.54   c0.283,0.581,0.042,1.282-0.539,1.565C177.594,380.238,174.869,381.54,171.734,381.54z"/>
	<path style="fill:#251426;" d="M191.772,388.223c-1.778,0-3.688-0.419-5.343-1.714c-0.509-0.398-0.598-1.135-0.199-1.645   s1.134-0.595,1.645-0.199c3.427,2.689,8.85,0.092,8.902,0.064c0.584-0.281,1.283-0.046,1.568,0.538   c0.284,0.581,0.043,1.284-0.538,1.568C197.632,386.921,194.909,388.223,191.772,388.223z"/>
	<path style="fill:#251426;" d="M117.715,242.752c-0.221,0-0.445-0.064-0.643-0.195c-0.54-0.357-0.69-1.08-0.335-1.62   c0.169-0.259,4.178-6.261,9.956-5.52c0.641,0.085,1.094,0.673,1.009,1.314c-0.084,0.641-0.675,1.092-1.314,1.012   c-4.284-0.558-7.661,4.431-7.694,4.483C118.47,242.567,118.095,242.752,117.715,242.752z"/>
	<path style="fill:#251426;" d="M104.234,231.028c-0.221,0-0.444-0.062-0.643-0.192c-0.54-0.357-0.69-1.082-0.335-1.623   c0.169-0.259,4.159-6.266,9.956-5.52c0.641,0.085,1.094,0.673,1.009,1.314c-0.084,0.641-0.677,1.094-1.314,1.012   c-4.323-0.57-7.66,4.431-7.693,4.481C104.989,230.843,104.615,231.028,104.234,231.028z"/>
	<path style="fill:#251426;" d="M100.447,246.897c-0.222,0-0.445-0.064-0.644-0.195c-0.539-0.357-0.689-1.08-0.334-1.62   c0.168-0.259,4.17-6.268,9.956-5.518c0.641,0.085,1.094,0.673,1.009,1.314c-0.084,0.641-0.674,1.085-1.314,1.012   c-4.281-0.556-7.662,4.431-7.694,4.481C101.2,246.711,100.827,246.897,100.447,246.897z"/>
	<path style="fill:#251426;" d="M123.463,227.08c-0.221,0-0.445-0.064-0.643-0.195c-0.54-0.357-0.69-1.08-0.335-1.62   c0.168-0.259,4.174-6.266,9.956-5.52c0.641,0.085,1.094,0.673,1.009,1.314c-0.084,0.641-0.676,1.087-1.314,1.012   c-4.291-0.561-7.662,4.431-7.694,4.483C124.217,226.895,123.843,227.08,123.463,227.08z"/>
	<path style="fill:#251426;" d="M133.049,233.948c-0.221,0-0.445-0.064-0.644-0.195c-0.539-0.357-0.689-1.08-0.334-1.62   c0.169-0.256,4.197-6.255,9.956-5.518c0.641,0.085,1.094,0.673,1.009,1.314c-0.084,0.641-0.676,1.094-1.314,1.012   c-4.266-0.547-7.662,4.431-7.694,4.481C133.802,233.763,133.429,233.948,133.049,233.948z"/>
	<path style="fill:#251426;" d="M108.068,255.868c-0.221,0-0.444-0.062-0.643-0.192c-0.54-0.357-0.69-1.082-0.335-1.623   c0.169-0.259,4.203-6.245,9.955-5.52c0.642,0.085,1.094,0.673,1.01,1.314c-0.084,0.641-0.672,1.087-1.312,1.012   c-4.299-0.561-7.661,4.431-7.694,4.481C108.823,255.682,108.449,255.868,108.068,255.868z"/>
	<path style="fill:#251426;" d="M88.988,242.787c-0.221,0-0.445-0.064-0.644-0.195c-0.539-0.357-0.689-1.08-0.334-1.62   c0.169-0.259,4.21-6.243,9.956-5.518c0.641,0.085,1.094,0.673,1.009,1.314c-0.084,0.641-0.677,1.098-1.314,1.012   c-4.272-0.547-7.661,4.431-7.694,4.481C89.74,242.601,89.367,242.787,88.988,242.787z"/>
	<path style="fill:#251426;" d="M86.677,256.648c-0.221,0-0.445-0.064-0.643-0.195c-0.54-0.357-0.69-1.08-0.335-1.62   c0.169-0.259,4.177-6.255,9.956-5.52c0.641,0.085,1.094,0.673,1.009,1.314c-0.084,0.641-0.674,1.094-1.314,1.012   c-4.292-0.565-7.662,4.433-7.694,4.483C87.431,256.463,87.057,256.648,86.677,256.648z"/>
	<path style="fill:#251426;" d="M72.612,256.596c-0.072,0-0.144-0.007-0.217-0.021c-0.636-0.119-1.055-0.732-0.935-1.369   c0.056-0.3,1.454-7.399,7.059-8.928c0.617-0.16,1.268,0.199,1.438,0.822c0.17,0.625-0.198,1.27-0.823,1.439   c-4.205,1.147-5.361,7.042-5.372,7.101C73.657,256.204,73.165,256.596,72.612,256.596z"/>
	<path style="fill:#251426;" d="M174.897,371.343c-1.778,0-3.687-0.419-5.341-1.714c-0.51-0.398-0.6-1.135-0.2-1.645   c0.398-0.51,1.136-0.595,1.644-0.199c3.412,2.668,8.851,0.089,8.906,0.064c0.585-0.279,1.284-0.041,1.565,0.54   c0.283,0.581,0.042,1.282-0.539,1.565C180.757,370.04,178.032,371.343,174.897,371.343z"/>
	<path style="fill:#251426;" d="M159.039,378.435c-1.778,0-3.688-0.419-5.343-1.714c-0.509-0.398-0.598-1.135-0.199-1.645   s1.135-0.597,1.645-0.199c3.429,2.687,8.849,0.092,8.902,0.064c0.584-0.279,1.283-0.043,1.568,0.538   c0.284,0.581,0.043,1.284-0.538,1.568C164.899,377.133,162.176,378.435,159.039,378.435z"/>
	<path style="fill:#251426;" d="M248.719,382.49c-1.778,0-3.689-0.419-5.345-1.716c-0.509-0.398-0.598-1.135-0.199-1.645   c0.4-0.508,1.134-0.597,1.645-0.199c3.432,2.687,8.847,0.094,8.904,0.066c0.578-0.284,1.282-0.041,1.566,0.538   c0.284,0.581,0.043,1.284-0.539,1.568C254.577,381.188,251.854,382.49,248.719,382.49z"/>
	<path style="fill:#251426;" d="M255.664,392.333c-1.778,0-3.687-0.419-5.341-1.714c-0.51-0.398-0.6-1.135-0.2-1.645   c0.398-0.51,1.135-0.595,1.644-0.199c3.413,2.671,8.852,0.089,8.906,0.064c0.582-0.281,1.284-0.041,1.565,0.54   c0.283,0.581,0.042,1.282-0.539,1.565C261.523,391.031,258.799,392.333,255.664,392.333z"/>
	<path style="fill:#251426;" d="M360.785,371.684c-0.569,0-1.068-0.414-1.157-0.993c-0.098-0.641,0.341-1.238,0.981-1.337   c4.285-0.659,6.123-6.392,6.141-6.449c0.193-0.616,0.849-0.957,1.466-0.771c0.618,0.192,0.963,0.847,0.772,1.465   c-0.09,0.293-2.281,7.191-8.025,8.072C360.904,371.679,360.843,371.684,360.785,371.684z"/>
	<path style="fill:#251426;" d="M362.286,356.881c-0.569,0-1.068-0.414-1.157-0.993c-0.098-0.641,0.341-1.238,0.981-1.337   c4.284-0.659,6.123-6.392,6.141-6.449c0.193-0.616,0.85-0.954,1.466-0.771c0.618,0.192,0.963,0.847,0.772,1.465   c-0.09,0.293-2.282,7.191-8.025,8.072C362.405,356.877,362.345,356.881,362.286,356.881z"/>
	<path style="fill:#251426;" d="M371.127,359.74c-0.569,0-1.068-0.414-1.157-0.993c-0.098-0.641,0.341-1.238,0.981-1.337   c4.284-0.659,6.122-6.392,6.14-6.449c0.192-0.616,0.849-0.954,1.466-0.771c0.618,0.192,0.963,0.847,0.772,1.465   c-0.09,0.293-2.281,7.191-8.024,8.072C371.246,359.735,371.185,359.74,371.127,359.74z"/>
</g>















</svg>
