<?xml version="1.0" encoding="UTF-8"?>
<!-- Generator: Adobe Illustrator 25.2.1, SVG Export Plug-In . SVG Version: 6.00 Build 0)  -->
<svg xmlns="http://www.w3.org/2000/svg" xmlns:xlink="http://www.w3.org/1999/xlink" version="1.1" id="Capa_1" x="0px" y="0px" viewBox="0 0 512 512" style="enable-background:new 0 0 512 512;" xml:space="preserve" width="512" height="512">
<g>
	<g>
		<g>
			<g>
				<path style="fill:#FFCF00;" d="M327.523,247.201c3.348,11.601,2.577,19.192,11.189,27.859c2.594,2.611,5.7,4.104,9.508,3.914      c2.412-0.12,4.832-0.049,7.247-0.106c27.106-0.632,16.577,41.403,11.498,55.826c-10.023,28.458-27.771,54.645-50.62,74.353      C193.869,514.691-2.972,422.211,39.358,264.15c8.963-33.468,27.758-61.241,58.584-83.674      C180.729,120.233,298.839,147.799,327.523,247.201z M196.54,347.215c0,0.004,0,0.007,0,0.011c0.328,0,0.039,0.018,0.953-0.061      c-0.379-0.072-1.097-0.246-1.719-0.111c-0.331,0.072-0.094-0.284-0.239,0.029c-0.002,0.004,0.162,0.119,0.252,0.126      C196.037,347.227,196.289,347.215,196.54,347.215z M192.736,205.792c0.3,0,0.237,0.023,0.255-0.119      C192.694,205.661,192.754,205.641,192.736,205.792z M174.606,270.017c0.299,0,0.236,0.022,0.253-0.119      C174.562,269.886,174.624,269.866,174.606,270.017z M188.34,395.239c-0.291,0-0.238-0.026-0.238,0.122      C188.397,395.352,188.34,395.372,188.34,395.239z"/>
			</g>
			<g style="opacity:0.5;">
				<g>
					<path style="fill:#FFCF00;" d="M373.879,303.65c-0.356,4.198-0.453,13.057-6.938,31.195       c-44.737,125.147-205.32,156.936-291.979,71.195c-26.005-25.725-37.432-51.211-40.529-82.677       c-6.056-61.391,21.043-120.526,79.342-153.073c2.383-1.327,2.352-1.23,4.552,0.441c37.085,28.18,9.163,71.794-0.217,105.342       c-12.1,43.276,12.47,86.214,57.143,96.825c79.37,18.854,102.494-77.833,167.904-94.187c1.381-0.345,1.802,0.205,4.349,0.227       c6.992,0.086,3.982,0.356,14.362,1.457c6.977,0.744,11.29,11.074,11.665,18.117       C373.631,300.218,374.031,301.934,373.879,303.65z"/>
				</g>
				<g>
					<path style="fill:#FD8A02;" d="M373.879,303.65c-0.356,4.198-0.453,13.057-6.938,31.195       c-44.737,125.147-205.32,156.936-291.979,71.195c-26.005-25.725-37.432-51.211-40.529-82.677       c-6.056-61.391,21.043-120.526,79.342-153.073c2.383-1.327,2.352-1.23,4.552,0.441c37.085,28.18,9.163,71.794-0.217,105.342       c-12.1,43.276,12.47,86.214,57.143,96.825c79.37,18.854,102.494-77.833,167.904-94.187c1.381-0.345,1.802,0.205,4.349,0.227       c6.992,0.086,3.982,0.356,14.362,1.457c6.977,0.744,11.29,11.074,11.665,18.117       C373.631,300.218,374.031,301.934,373.879,303.65z"/>
				</g>
			</g>
			<g>
				<path style="fill:#018100;" d="M468.126,318.169c-0.05,1.767-0.99,12.325-1.948,18.746      c-11.964,80.264-68.937,122.27-149.785,134.562c-34.497,5.245-78.729,6.352-81.267,5.88c-0.114-0.021-0.258-0.23-0.268-0.362      c-0.254-3.198,88.091-6.241,137.064-99.719c9.038-17.253,16.259-38.63,19.045-51.825c6.135-29.064,40.057-51.536,72.998-57.622      c2.557-0.473,2.027-1.371,3.745,16.979C468.322,291.344,468.153,317.237,468.126,318.169z"/>
			</g>
			<path style="fill:#91D728;" d="M439.507,275.508c17.47-7.5,23.696-6.183,28.282-9.496     c60.728-43.852,35.123-120.011-23.717-135.118c-50.717-13.029-104.438,18.562-105.94,74.465c-0.043,1.403,0.399,2.74,0.41,4.111     c0.097,10.833,4.921,20.556,7.089,31.724c2.093,10.78,3.291,23.07-0.475,33.461c-0.842,2.352-3.313,4.489,2.503,4.5     c8.708,0.022,12.798-0.896,17.88,3.226c7.92,6.42,8.892,17.556,7.543,27.645c-2.59,19.487-14.211,48.977-32.867,73.148     c-70.58,91.46-211.115,95.992-280.551,4.824c-2.137-2.795-1.166-2.795-11.988,3.043c-12.646,6.83-29.63,17.966-38.554,29.188     c-6.204,7.812-9.776,17.599-3.172,25.131c2.946,3.367,6.517,5.859,10.769,7.37c51.632,18.322,137.2,24.732,192.177,24.732v0.086     c22.099,0,20.718,0.032,21.484-0.119c14.697-2.849,32.986-6.064,57.427-17.589c2.291-1.08,4.495-2.211,6.685-3.349     c-0.052,1.898,0.316,3.738,0.944,5.485c0.656,1.896,1.647,3.674,2.868,5.285c1.226,1.605,2.694,3.045,4.385,4.177     c1.671,1.147,3.544,2.032,5.6,2.362c0.482,0.076,0.997-0.022,1.434-0.315c0.918-0.617,1.162-1.861,0.545-2.779l-0.056-0.084     c-1.036-1.542-2.073-2.826-3.085-4.101l-2.96-3.777l-2.992-3.823c-1.023-1.308-2.067-2.648-3.381-4.009l-0.052-0.054     c-0.022-0.022-0.054-0.033-0.076-0.054c8.348-4.544,15.93-9.499,22.842-14.747c0.003,0.075-0.02,0.146-0.008,0.223     c0.521,3.167,1.703,6.18,3.248,8.98c1.528,2.819,3.474,5.409,5.696,7.728c2.228,2.313,4.744,4.358,7.502,5.995     c2.74,1.655,5.708,2.952,8.857,3.592c0.659,0.133,1.371-0.086,1.839-0.634c0.686-0.805,0.59-2.013-0.215-2.699l-0.019-0.016     l-6.576-5.605c-2.098-1.881-4.127-3.783-6.069-5.779c-1.948-1.99-3.798-4.071-5.627-6.221l-5.438-6.745l-0.017-0.022     c-0.222-0.273-0.524-0.467-0.861-0.574c6.285-4.94,11.989-10.117,17.172-15.447c0.029,0.132,0.039,0.266,0.101,0.393     c2.194,4.536,5.405,8.591,9.147,12.029c3.734,3.468,8.049,6.272,12.602,8.509c4.587,2.174,9.423,3.788,14.381,4.678     c4.945,0.911,10.003,1.183,14.958,0.57c0.779-0.097,1.447-0.68,1.612-1.492c0.206-1.017-0.451-2.01-1.468-2.217l-0.017-0.003     c-4.642-0.943-9.146-1.97-13.538-3.299c-4.378-1.352-8.654-2.93-12.726-4.909c-4.101-1.917-7.988-4.238-11.68-6.862     c-3.681-2.65-7.103-5.663-10.408-9.003l-0.016-0.017c-0.246-0.248-0.561-0.408-0.896-0.478     c4.924-5.238,9.353-10.604,13.354-16.012c0.061,0.131,0.107,0.267,0.202,0.384c3.963,4.878,8.977,8.906,14.433,12.093     c5.456,3.219,11.4,5.547,17.493,7.173c6.114,1.559,12.395,2.414,18.672,2.431c6.269,0.039,12.547-0.682,18.538-2.412     c0.797-0.23,1.372-0.974,1.352-1.842c-0.024-1.033-0.882-1.851-1.915-1.827l-0.015,0.001c-5.96,0.141-11.824,0.018-17.634-0.535     c-5.801-0.58-11.548-1.507-17.144-2.979c-11.233-2.853-21.823-7.658-31.371-14.631c-0.252-0.184-0.549-0.273-0.851-0.307     c4.455-6.236,8.353-12.501,11.768-18.678c0.114,0.195,0.266,0.373,0.458,0.517c5.568,4.207,11.987,7.235,18.614,9.382     c6.638,2.176,13.536,3.42,20.459,4.023c6.932,0.528,13.908,0.415,20.789-0.521c6.87-0.917,13.688-2.568,20.053-5.367     c0.775-0.341,1.246-1.18,1.085-2.049c-0.187-1.014-1.162-1.685-2.176-1.497l-0.029,0.006c-6.507,1.202-13.017,1.966-19.553,2.314     c-6.533,0.315-13.078,0.28-19.575-0.261c-6.503-0.476-12.955-1.462-19.299-2.907c-6.343-1.474-12.544-3.49-18.594-6.13     l-0.014-0.006c-0.25-0.109-0.516-0.135-0.78-0.122c3.631-6.802,6.686-13.454,9.292-19.793c0.154,0.089,0.308,0.182,0.49,0.225     c6.905,1.626,13.941,2.716,21.068,3.286c7.126,0.593,14.346,0.546,21.534-0.117c7.218-0.781,14.166-2.003,21.161-3.917     c6.938-1.914,13.802-4.608,19.872-8.611c0.668-0.44,0.97-1.298,0.679-2.079c-0.339-0.909-1.35-1.371-2.258-1.033l-0.021,0.008     c-6.444,2.4-13.028,4.107-19.754,5.386c-3.369,0.601-6.748,1.199-10.167,1.645c-3.429,0.483-6.837,0.962-10.222,1.237     c-6.793,0.673-13.647,0.863-20.55,0.866c-6.759-0.022-13.566-0.273-20.447-0.347c3.861-9.824,6.652-18.755,8.799-26.086     c0.002,0.001,0.003,0.002,0.005,0.003c7.128,2.04,14.547,2.039,21.704,1.288c7.189-0.762,14.214-2.453,21.037-4.704     c6.796-2.328,13.407-5.227,19.606-8.887c6.193-3.638,12.053-7.978,16.93-13.292c0.541-0.589,0.626-1.494,0.154-2.182     c-0.549-0.8-1.642-1.004-2.442-0.454l-0.014,0.009c-5.661,3.884-11.577,7.239-17.697,10.188     c-6.132,2.916-12.431,5.486-18.881,7.599c-6.43,2.171-13.01,3.897-19.649,5.169c-6.531,1.198-13.136,1.946-19.696,1.625     c1.954-6.793,3.361-11.867,4.666-14.445C404.2,296.485,421.972,283.051,439.507,275.508z"/>
			<g>
				<path style="fill:#FC09B2;" d="M412.294,71.995c-8.859,0.072-19.109-6.287-19.135-18.997      c-0.026-12.958,10.419-19.096,19.025-19.125c9.663-0.033,19.144,7.602,19.191,19.015      C431.42,64.037,422.242,72.016,412.294,71.995z"/>
				<path style="fill:#FC09B2;" d="M490.706,86.909c-11.919-0.536-19.104-9.739-19.072-19.217      c0.058-17.315,21.25-25.423,32.587-13.479C515.781,66.394,508.596,86.083,490.706,86.909z"/>
				<path style="fill:#FC09B2;" d="M387.497,239.567c-6.251-2.327-12.198-7.65-12.178-14.776      c0.037-12.715,15.775-17.1,25.945-14.935c8.607,1.832,17.445,9.236,14.854,18.943      C413.164,239.864,397.618,243.335,387.497,239.567z"/>
			</g>
			<g style="opacity:0.25;">
				<path style="fill:#000E3F;" d="M468.161,306.481c0,69.909-30.944,123.678-95.967,149.962      c-51.549,20.837-111.936,19.906-133.973,21.084c-0.769,0.041-3.273,0.253-3.362-0.516c-0.018-0.152,39.262-11.536,41.703-12.521      c13.032-5.255,24.451-12.803,37.709-17.297c26.281-8.909,50.06-16.104,71.505-34.398      c57.501-49.055,57.701-103.115,80.896-120.993c2.059-1.587,1.597,2.64,1.597,14.679      C468.233,306.481,468.197,306.481,468.161,306.481z"/>
				<path style="fill:#000E3F;" d="M507.521,76.908c-2.997,5.527-8.846,9.635-16.816,10.005      c-11.918-0.543-19.099-9.747-19.074-19.222c0.025-8.439,5.083-14.707,11.573-17.507c-1.455,2.628-2.307,5.725-2.319,9.179      c-0.025,9.475,7.156,18.679,19.074,19.222C502.746,78.45,505.289,77.87,507.521,76.908z"/>
				<path style="fill:#000E3F;" d="M429.05,61.99c-2.998,5.527-8.846,9.636-16.816,10.006c-11.919-0.543-19.099-9.747-19.074-19.222      c0.025-8.439,5.084-14.706,11.573-17.507c-1.456,2.628-2.307,5.725-2.319,9.179c-0.025,9.476,7.156,18.679,19.074,19.222      C424.275,63.532,426.817,62.952,429.05,61.99z"/>
			</g>
			<g style="opacity:0.5;">
				<path style="fill:#FFFFFF;" d="M396.762,142.595c1.717-0.621,16.247-3.75,13.228,1.477c-0.871,1.509-2.542,0.178-12.194,7.314      c-7.913,5.851-14.345,12.833-19.655,20.855c-12.204,18.628-11.194,32.309-17.183,38.155c-3.204,3.129-7.905,1.381-9.678-2.558      C345.208,194.353,360.056,155.875,396.762,142.595z"/>
				<path style="fill:#FFFFFF;" d="M500.753,69.675c-1.664,1.755-4.467,1.285-5.456-2.273c-3.212-11.555-7.596-9.224-7.134-11.734      c0.13-0.709,0.71-0.919,1.311-1.161c1.542-0.619,3.273-0.215,4.744,0.384C500.454,57.428,503.812,66.45,500.753,69.675z"/>
				<path style="fill:#FFFFFF;" d="M423.025,56.412c-1.664,1.755-4.467,1.285-5.456-2.273c-3.212-11.555-7.596-9.224-7.134-11.734      c0.13-0.709,0.71-0.919,1.31-1.16c1.658-0.666,3.24-0.229,4.745,0.384C422.726,44.165,426.084,53.187,423.025,56.412z"/>
			</g>
			<g>
				<path style="fill:#FD8A02;" d="M356.499,328.884c-4.841-6.062-15.504-10.326-22.425-10.504l-2.836-0.075l1.882,2.125      c4.528,5.116,14.376,10.462,22.042,10.462c0.135,0,0.27-0.001,0.405-0.006l2.482-0.061L356.499,328.884z"/>
				<path style="fill:#FD8A02;" d="M324.301,336.482l-2.795-0.437l1.583,2.346c3.875,5.745,13.2,12.446,20.909,13.266l2.475,0.263      l-1.289-2.13C341.164,343.152,331.139,337.55,324.301,336.482z"/>
				<path style="fill:#FD8A02;" d="M312.276,353.236l-2.716-0.781l1.275,2.522c3.118,6.178,11.533,13.993,19.087,15.777l2.427,0.573      l-1.015-2.276C328.171,361.958,318.927,355.148,312.276,353.236z"/>
				<path style="fill:#FD8A02;" d="M298.252,368.389l-2.598-1.111l0.952,2.66c2.325,6.506,9.714,15.295,17.001,18.006l2.337,0.87      l-0.725-2.386C312.958,379.01,304.621,371.111,298.252,368.389z"/>
				<path style="fill:#FD8A02;" d="M282.475,381.7l-2.441-1.427l0.614,2.76c1.506,6.743,7.75,16.375,14.651,19.968l2.208,1.149      l-0.422-2.454C295.769,394.07,288.468,385.199,282.475,381.7z"/>
				<path style="fill:#FD8A02;" d="M265.193,392.93l-2.246-1.726l0.265,2.82c0.648,6.879,5.632,17.222,12.015,21.654l2.043,1.417      l-0.106-2.484C276.829,406.891,270.704,397.169,265.193,392.93z"/>
				<path style="fill:#FD8A02;" d="M244.672,399.817l-0.106,2.84c-0.258,6.915,3.33,17.822,9.08,23.038l1.836,1.664l0.222-2.469      c0.689-7.663-4.111-18.109-9.029-23.057L244.672,399.817z"/>
				<path style="fill:#FD8A02;" d="M225.495,405.877l-0.492,2.81c-1.2,6.832,0.861,18.132,5.841,24.066l1.588,1.892l0.559-2.406      c1.735-7.464-1.593-18.475-5.786-24.077L225.495,405.877z"/>
				<path style="fill:#FD8A02;" d="M205.757,409.172l-0.892,2.722c-2.159,6.6-1.74,18.083,2.328,24.653l1.296,2.095l0.901-2.294      c2.79-7.111,1.082-18.492-2.268-24.659L205.757,409.172z"/>
				<path style="fill:#FD8A02;" d="M185.846,409.537l-1.294,2.572c-3.123,6.203-4.422,17.618-1.378,24.726l0.966,2.253l1.234-2.117      c3.81-6.534,3.822-18.057,1.441-24.722L185.846,409.537z"/>
				<path style="fill:#FD8A02;" d="M166.103,406.94l-1.646,2.332c-4.031,5.707-7.044,16.806-5.101,24.232l0.627,2.396l1.535-1.943      c4.798-6.074,6.54-17.426,5.157-24.219L166.103,406.94z"/>
				<path style="fill:#FD8A02;" d="M145.03,403.397c-4.839,5.004-9.49,15.512-8.704,23.182l0.248,2.439l1.81-1.654      c5.605-5.123,9.056-16.111,8.767-23.16l-0.121-2.876L145.03,403.397z"/>
				<path style="fill:#FD8A02;" d="M114.586,416.231l-0.123,2.447l2.039-1.359c6.335-4.224,11.434-14.546,12.222-21.538l0.323-2.863      l-2.296,1.743C121.183,398.889,114.969,408.565,114.586,416.231z"/>
				<path style="fill:#FD8A02;" d="M94.655,402.479l-0.511,2.379l2.222-0.992c6.914-3.086,13.651-12.433,15.605-19.226l0.805-2.795      l-2.569,1.365C103.99,386.514,96.258,395.045,94.655,402.479z"/>
				<path style="fill:#FD8A02;" d="M98.947,368.309l-2.841,0.913c-6.786,2.182-15.918,8.945-18.841,16.064l-0.904,2.202l2.32-0.531      c7.468-1.707,15.625-9.633,18.899-15.997L98.947,368.309z"/>
				<path style="fill:#FD8A02;" d="M86.392,354.941l1.858-2.297l-2.94,0.293c-7.121,0.709-17.579,5.601-21.793,11.751l-1.359,1.981      l2.4-0.049C72.093,366.465,81.932,360.457,86.392,354.941z"/>
				<path style="fill:#FD8A02;" d="M80.845,334.91l-2.913-0.303c-6.981-0.73-18.167,2.044-23.654,7.326l-1.742,1.676l2.379,0.428      c0.971,0.173,2,0.255,3.07,0.255c7.046,0,15.837-3.542,20.608-7.508L80.845,334.91z"/>
				<path style="fill:#FD8A02;" d="M74.269,317.27l2.508-1.453l-2.788-0.8c-6.759-1.939-18.253-1.175-24.569,3.063l-2.024,1.359      l2.292,0.826c2.234,0.806,4.872,1.161,7.632,1.161C63.406,321.426,70.076,319.699,74.269,317.27z"/>
				<path style="fill:#FD8A02;" d="M61.989,298.97c4.183,0,8.267-0.653,11.287-1.805l2.706-1.031l-2.622-1.236      c-6.412-3.027-17.883-4.152-24.741-1.008l-2.219,1.017l2.135,1.183C52.145,298.091,57.136,298.97,61.989,298.97z"/>
				<path style="fill:#FD8A02;" d="M70.307,277.59c1.899,0,3.689-0.156,5.251-0.467l2.834-0.565l-2.369-1.656      c-5.723-4-16.844-6.95-24.259-4.968l-2.361,0.63l1.908,1.526C55.895,275.75,63.767,277.59,70.307,277.59z"/>
				<path style="fill:#FD8A02;" d="M80.368,257.774c0.234,0,0.463-0.003,0.689-0.012l2.899-0.099l-2.084-2.019      c-5.055-4.904-15.528-9.636-23.112-8.883l-2.427,0.244l1.634,1.81C62.902,254.285,73.327,257.774,80.368,257.774z"/>
				<path style="fill:#FD8A02;" d="M89.638,239.723l2.904,0.417l-1.733-2.367c-4.231-5.782-13.759-12.305-21.198-12.802      l-2.407-0.161l1.28,2.046C72.519,233.315,82.681,238.724,89.638,239.723z"/>
				<path style="fill:#FD8A02;" d="M101.27,223.763l2.786,1.007l-1.248-2.686c-2.979-6.42-10.829-14.616-18.316-16.663l-2.313-0.631      l0.831,2.248C85.669,214.252,94.559,221.337,101.27,223.763z"/>
				<path style="fill:#FD8A02;" d="M115.709,210.632l2.532,1.585l-0.675-2.911c-1.624-6.987-7.583-16.681-14.381-20.156      l-2.118-1.085l0.335,2.356C102.484,198.049,109.672,206.852,115.709,210.632z"/>
				<path style="fill:#FD8A02;" d="M134.883,202.741l-0.048-2.911c-0.118-7.036-4.212-17.797-10.116-22.602l-1.884-1.534      l-0.125,2.427c-0.393,7.547,4.88,17.793,10.048,22.631L134.883,202.741z"/>
				<path style="fill:#FD8A02;" d="M153.368,196.312l0.458-2.841c1.106-6.899-1.07-18.191-6.072-24.007l-1.602-1.864l-0.537,2.4      c-1.665,7.459,1.764,18.444,6.012,24.022L153.368,196.312z"/>
				<path style="fill:#FD8A02;" d="M172.809,193.131l0.908-2.74c2.219-6.691,1.925-18.205-2.053-24.676l-1.279-2.083l-0.916,2.268      c-2.87,7.116-1.289,18.507,1.988,24.683L172.809,193.131z"/>
				<path style="fill:#FD8A02;" d="M193.863,190.586c3.277-6.221,4.858-17.625,1.988-24.683l-0.921-2.264l-1.275,2.084      c-3.979,6.506-4.275,18.013-2.055,24.677l0.916,2.745L193.863,190.586z"/>
				<path style="fill:#FD8A02;" d="M211.88,196.374l1.766-2.308c4.27-5.583,7.735-16.561,6.087-24.003l-0.525-2.374l-1.607,1.827      c-4.993,5.683-7.215,16.991-6.154,23.985L211.88,196.374z"/>
				<path style="fill:#FD8A02;" d="M242.669,178.32l-0.096-2.406l-1.897,1.484c-5.865,4.583-10.08,15.335-10.338,22.502      l-0.104,2.936l2.169-1.982C237.606,196.105,242.97,185.916,242.669,178.32z"/>
				<path style="fill:#FD8A02;" d="M263.822,190.791l0.34-2.373l-2.128,1.101c-6.716,3.473-12.906,13.192-14.478,20.09l-0.658,2.884      l2.513-1.564C255.494,207.143,262.732,198.367,263.822,190.791z"/>
				<path style="fill:#FD8A02;" d="M261.094,225.138l2.795-1.016c6.721-2.441,15.613-9.531,18.256-16.731l0.822-2.241l-2.304,0.625      c-7.461,2.025-15.314,10.228-18.314,16.667L261.094,225.138z"/>
				<path style="fill:#FD8A02;" d="M274.092,237.996l-1.851,2.387l2.993-0.41c7.116-0.974,17.323-6.009,21.405-12.446l1.265-1.993      l-2.359,0.1C287.965,225.955,278.507,232.301,274.092,237.996z"/>
				<path style="fill:#FD8A02;" d="M279.466,257.343l3.029,0.316c0.86,0.089,1.776,0.133,2.732,0.133      c7.058,0,16.273-2.423,21.051-7.017l1.689-1.624l-2.297-0.473c-7.422-1.534-18.14,2.329-23.81,6.784L279.466,257.343z"/>
				<path style="fill:#FD8A02;" d="M285.042,274.148l-2.783,1.207l2.836,1.079c3.354,1.276,7.848,2.041,12.335,2.041      c4.55,0,9.087-0.787,12.42-2.629l2.063-1.141l-2.113-1.045C302.979,270.29,291.635,271.288,285.042,274.148z"/>
				<path style="fill:#FD8A02;" d="M306.755,301.038l2.268-0.561l-1.742-1.557c-5.586-4.988-16.822-6.984-24.03-5.965l-3.031,0.428      l2.48,1.793c4.754,3.441,12.812,6.359,19.608,6.359C303.876,301.534,305.377,301.379,306.755,301.038z"/>
				<path style="fill:#FD8A02;" d="M299.654,324.581l-1.292-1.954c-4.142-6.265-14.492-11.063-21.707-11.913l-3.034-0.358      l1.935,2.364c4.571,5.587,14.188,11.694,21.755,11.821L299.654,324.581z"/>
				<path style="fill:#FD8A02;" d="M265.689,326.446l-2.807-1.03l1.265,2.711c3.01,6.445,10.865,14.65,18.311,16.667l2.294,0.622      l-0.812-2.234C281.343,336.028,272.444,328.926,265.689,326.446z"/>
				<path style="fill:#FD8A02;" d="M265.851,362.134l-0.333-2.378c-1.063-7.592-8.256-16.4-14.309-20.208l-2.501-1.572l0.639,2.883      c1.53,6.901,7.672,16.649,14.376,20.161L265.851,362.134z"/>
				<path style="fill:#FD8A02;" d="M232.05,347.485l0.072,2.94c0.176,7.116,4.092,17.781,10.111,22.604l1.882,1.507l0.12-2.407      c0.383-7.569-4.88-17.815-10.036-22.636L232.05,347.485z"/>
				<path style="fill:#FD8A02;" d="M213.994,353.381l-0.545,2.939c-1.301,6.989,0.323,18.23,5.212,24.207l1.506,1.842l0.636-2.296      c2.039-7.345-1.072-18.293-5.123-24.225L213.994,353.381z"/>
				<path style="fill:#FD8A02;" d="M195.157,355.347l-1.149,2.717c-2.766,6.532-3.439,18.039-0.034,24.763l1.089,2.147l1.109-2.138      c3.549-6.856,2.822-18.191,0.111-24.76L195.157,355.347z"/>
				<path style="fill:#FD8A02;" d="M176.265,353.328l-1.689,2.429c-4.055,5.84-7.191,16.758-5.183,24.211l0.624,2.318l1.521-1.857      c4.913-5.995,6.559-17.227,5.265-24.195L176.265,353.328z"/>
				<path style="fill:#FD8A02;" d="M145.719,371.623l0.072,2.359l1.896-1.405c6.109-4.528,10.391-15.077,10.854-22.255l0.195-3.029      l-2.253,2.034C151.124,354.162,145.485,364.063,145.719,371.623z"/>
				<path style="fill:#FD8A02;" d="M144.305,337.314l-2.911,1.407c-5.761,2.788-14.793,10.26-16.839,18.149l-0.561,2.17l2.135-0.685      c6.856-2.204,13.998-10.909,16.943-18.052L144.305,337.314z"/>
				<path style="fill:#FD8A02;" d="M110.59,337.374c7.35,0,16.497-5.553,21.545-10.955l2.241-2.397l-3.265,0.326      c-6.461,0.647-17.601,4.512-22.138,11.077l-1.265,1.83l2.222,0.105C110.149,337.369,110.369,337.374,110.59,337.374z"/>
				<path style="fill:#FD8A02;" d="M100.134,311.216l2.099,0.871c2.249,0.934,4.974,1.341,7.861,1.341      c5.79,0,12.224-1.644,16.757-3.98l2.817-1.453l-3.058-0.834c-7.241-1.972-18.422-1.476-24.603,2.769L100.134,311.216z"/>
				<path style="fill:#FD8A02;" d="M127.656,291.763l3.181-0.385l-2.619-1.848c-6.21-4.381-16.895-7.816-24.025-5.974l-2.186,0.564      l1.656,1.535c4.547,4.217,13.133,6.322,20.249,6.322C125.22,291.976,126.48,291.905,127.656,291.763z"/>
				<path style="fill:#FD8A02;" d="M137.635,275.281l-1.88-2.492c-4.46-5.904-13.803-12.524-21.121-12.921l-2.296-0.125l1.166,1.982      c3.788,6.45,13.88,11.782,21.056,13.023L137.635,275.281z"/>
				<path style="fill:#FD8A02;" d="M129.013,239.567l0.566,2.245c1.807,7.181,10.041,15.111,16.632,18.34l2.786,1.366l-1.087-2.906      c-2.549-6.811-9.665-15.731-16.719-18.264L129.013,239.567z"/>
				<path style="fill:#FD8A02;" d="M151.122,224.901l-0.161,2.246c-0.521,7.299,4.815,17.184,10.273,22.526l2.301,2.252      l-0.207-3.213c-0.489-7.607-4.513-18.092-10.4-22.467L151.122,224.901z"/>
				<path style="fill:#FD8A02;" d="M177.985,244.918l1.327,3.092l0.986-3.218c2.267-7.408,2.566-18.589-1.345-24.718l-1.181-1.847      l-0.966,1.966C173.53,226.844,174.968,237.896,177.985,244.918z"/>
				<path style="fill:#FD8A02;" d="M194.554,250.548l2.251-2.514c5.101-5.704,9.991-15.723,9-23.059l-0.289-2.159l-1.704,1.36      c-5.651,4.517-8.938,15.221-9.162,23L194.554,250.548z"/>
				<path style="fill:#FD8A02;" d="M228.237,241.541l0.718-2.033l-2.116,0.41c-7.928,1.53-15.557,10.504-18.75,16.162l-1.687,2.989      l3.205-1.231C216.823,255.063,225.804,248.41,228.237,241.541z"/>
				<path style="fill:#FD8A02;" d="M219.206,272.757c6.699,0,16.738-1.732,21.75-6.923l1.47-1.522l-2.048-0.529      c-7.181-1.858-17.384,2.159-23.832,6.674l-2.901,2.031l3.537,0.211C217.811,272.738,218.488,272.757,219.206,272.757z"/>
				<path style="fill:#FD8A02;" d="M240.532,294.614l2.031-0.508l-1.426-1.53c-5.658-6.069-17.564-7.265-23.731-7.018l-3.627,0.146      l2.967,2.094c5.364,3.788,13.342,7.249,20.008,7.249C238.074,295.046,239.346,294.91,240.532,294.614z"/>
				<path style="fill:#FD8A02;" d="M209.895,299.667l-3.371-1.658l1.733,3.334c3.581,6.897,10.369,15.559,17.721,17.275l1.99,0.465      l-0.518-1.978C225.367,309.132,215.435,302.392,209.895,299.667z"/>
				<path style="fill:#FD8A02;" d="M197.622,301.941l-1.036,3.993c-1.318,5.084-3.865,17.673,0.974,24.717l1.104,1.606l0.981-1.684      c4.388-7.549,0.976-19.806-0.694-24.725L197.622,301.941z"/>
				<path style="fill:#FD8A02;" d="M169.886,322.824l0.01,2.118l1.839-1.054c6.395-3.671,10.887-13.691,12.355-21.445l0.66-3.487      l-2.682,2.325C177.152,305.547,169.848,314.804,169.886,322.824z"/>
			</g>
			<path style="opacity:0.75;fill:#FFFFFF;" d="M286.01,208.404c7.202,7.676,14.427,16.487,17.823,26.759     c2.675,8.092,4.594,25.37-7.212,27.056c-7.257,1.036-9.647-4.146-21.688-23.581c-7.216-11.647-14.492-23.367-23.226-33.957     c-18.83-22.832-47.441-30.633-47.334-31.732C204.68,169.794,248.671,168.609,286.01,208.404z"/>
		</g>
		<g>
			<path style="fill:#000E3F;" d="M187.962,399.8c9.909,0,20.217-1.146,30.798-3.476c54.31-11.959,99.847-52.8,110.737-99.315     c0.342-1.46-0.564-2.921-2.023-3.262c-1.465-0.349-2.919,0.564-3.262,2.023c-10.433,44.557-54.276,83.726-106.62,95.253     c-44.529,9.806-83.866-2.226-107.927-33.002c-29.819-38.147-24.13-91.736,13.232-124.655     c24.331-21.437,54.141-29.824,81.789-23.015c22.843,5.626,40.631,21.101,48.805,42.456c4.381,11.447,7.198,29.917,1.968,47.423     c-6.965,23.321-25.911,39.675-50.678,43.748c-20.838,3.423-40.401-2.977-49.847-16.314c-8.708-12.294-9.462-28.391-1.921-41.008     c5.969-9.988,15.891-15.179,26.585-13.846c8.975,1.108,17.848,9.522,16.529,21.181c-0.167,1.489,0.904,2.834,2.393,3.002     c1.477,0.142,2.833-0.904,3.002-2.393c1.689-14.957-9.719-25.754-21.26-27.179c-12.884-1.584-24.804,4.559-31.911,16.45     c-8.642,14.462-7.798,32.883,2.152,46.93c10.638,15.018,32.283,22.295,55.157,18.533c26.863-4.418,47.424-22.195,54.999-47.551     c5.618-18.813,2.599-38.637-2.1-50.917c-8.818-23.04-27.982-39.729-52.576-45.787c-29.406-7.246-60.993,1.583-86.676,24.214     c-39.552,34.847-45.536,91.624-13.921,132.069C125.026,386.485,154.181,399.801,187.962,399.8z"/>
			<path style="fill:#000E3F;" d="M437.056,207.182c5.167,0.381,9.844-4.113,9.861-9.437c0.042-12.627-19.214-13.526-19.523-0.174     C427.256,203.584,432.213,207.421,437.056,207.182z"/>
			<path style="fill:#000E3F;" d="M500.31,47.416c-8.417-4.278-20.643-2.883-27.804,7.625c-12.801-2.154-25.136,6.005-33.343,22.253     c-7.993,15.826-8.941,33.055-8.878,48.319c-14.88-1.523-30.06,0.793-43.931,6.632c-9.843-15.022-14.744-33.208-13.451-50.199     c0.867-11.383,5.991-24.018,17.59-27.558c0.549,7.799,4.582,14.347,11.243,17.926c3.127,1.68,6.521,2.507,9.928,2.507     c4.73,0,9.482-1.596,13.565-4.724c6.875-5.265,9.781-14.258,7.405-22.911c-2.394-8.717-9.363-14.78-18.189-15.822     c-9.512-1.118-20.672,4.598-23.576,17.314c-15.584,3.435-22.323,18.964-23.38,32.857c-1.363,17.903,3.685,37.021,13.87,52.895     c-5.897,2.918-11.52,6.46-16.699,10.678c-21.054,17.146-31.454,41.681-28.534,67.312c0.628,5.516,2.185,11.015,3.833,16.835     c2.677,9.456,5.711,20.173,5.007,32.934c-0.234,4.237-0.655,8.647-2.706,12.415c-2.148-1.409-3.81-3.712-5.782-6.722     c-2.306-3.518-3.176-7.553-4.098-11.826c-0.207-0.961-0.414-1.924-0.639-2.882c-15.598-66.718-70.472-107.743-143.041-107.236     c-0.035,0-0.07,0.001-0.105,0.004c-0.122-0.008-0.243-0.004-0.365,0.007c-1.481,0.128-2.963,0.242-4.446,0.357     c-3.235,0.249-6.581,0.509-9.892,0.906c-60.168,7.221-115.409,51.328-134.333,107.262c-6.698,19.795-9.576,41.285-8.323,62.149     c1.608,26.777,8.666,48.324,22.49,68.102c-20.22,10.487-44.672,25.983-51.927,42.501c-2.157,4.911-2.38,9.632-0.663,14.031     c2.823,7.232,10.159,11.702,15.816,14.18c27.243,11.927,112.545,25.136,199.734,25.135c32.563,0,65.394-1.844,95.555-6.282     c20.921-3.079,37.347-6.898,51.694-12.016c57.858-20.643,92.699-60.293,103.557-117.846c4.383-23.239,4.396-51.013,2.14-66.437     c-0.201-1.381-0.322-2.778-0.444-4.178c-0.155-1.794-0.317-3.646-0.642-5.512c0.32-0.223,0.789-0.518,1.221-0.789     c2.439-1.531,6.976-4.382,13.551-11.346c18.756-19.867,25.841-45.734,19.439-70.97c-6.586-25.963-26.957-46.863-54.493-55.905     c-4.112-1.351-8.311-2.338-12.548-3.045c-0.094-14.815,0.697-31.574,8.289-46.602c3.316-6.565,12.189-20.806,26.042-19.548     c-2.422,7.694-0.952,15.466,4.188,21.265c4.091,4.615,9.83,7.095,15.909,7.095c2.276,0,4.601-0.348,6.904-1.064     c8.271-2.568,14.105-10.004,14.863-18.946C512.679,59.539,508.232,51.443,500.31,47.416z M413.811,36.856     c7.873,0.93,12.182,6.741,13.59,11.869c1.423,5.182,0.734,12.412-5.471,17.165c-5.306,4.064-12.059,4.733-17.623,1.743     c-5.457-2.931-8.526-8.625-8.42-15.354c0.26-0.485,0.417-1.031,0.337-1.618c-0.018-0.134-0.091-0.241-0.128-0.368     C398.208,40.456,406.658,36.015,413.811,36.856z M44.705,256.315c18.279-54.026,71.67-96.632,129.838-103.612     c3.198-0.384,6.484-0.639,9.664-0.884c1.468-0.113,2.936-0.228,4.404-0.353c0.045,0.001,0.089,0.001,0.136,0.003     c0.482-0.004,0.962-0.006,1.443-0.006c69.235,0,121.382,39.381,136.267,103.049c0.218,0.928,0.418,1.859,0.619,2.79     c0.986,4.568,2.005,9.293,4.864,13.657c2.695,4.113,6.048,9.234,12.72,10.451c2.873,0.523,5.552,0.429,7.913,0.342     c3.859-0.139,6.892-0.247,10.263,1.902c19.708,12.562-1.08,61.544-13.587,81.96c-29.873,48.76-81.895,80.669-139.157,85.357     c-4.912,0.402-9.79,0.601-14.644,0.601c-49.692-0.003-95.893-20.887-128.473-58.559c-19.113-22.099-28.463-45.728-30.317-76.615     C35.447,296.229,38.231,275.452,44.705,256.315z M497.5,186.63c4.1,16.165,2.208,32.626-5.105,47.355     c-2.829-2.59-6.393-4.485-10.812-5.739c-8.29-2.355-14.284,1.236-20.08,4.709c-2.559,1.533-5.206,3.117-7.993,4.106     c-9.206,3.27-17.948,0.119-24.609-8.866c-0.893-1.204-2.593-1.457-3.797-0.564c-1.204,0.893-1.457,2.593-0.564,3.798     c5.992,8.079,13.703,12.324,21.966,12.324c2.889,0,5.847-0.519,8.821-1.575c3.296-1.17,6.179-2.895,8.967-4.565     c5.246-3.143,9.772-5.859,15.808-4.143c4.173,1.186,7.213,2.984,9.543,5.508c-2.845,4.759-6.255,9.312-10.267,13.561     c-6.101,6.462-10.102,8.975-12.492,10.478c-2.142,1.346-4.358,2.739-3.757,5.898c0.336,1.76,0.493,3.563,0.658,5.47     c0.131,1.506,0.264,3.009,0.481,4.494c2.19,14.978,2.17,41.991-2.104,64.644c-10.474,55.525-44.135,93.792-100.046,113.739     c-14.003,4.997-30.101,8.733-50.661,11.758c-108.159,15.924-256.343-2.703-292.32-18.454c-6.669-2.92-11.263-6.89-12.938-11.18     c-1.19-3.051-1.001-6.281,0.577-9.874c5.355-12.195,22.714-26.091,50.197-40.244c1.865,2.453,3.814,4.887,5.899,7.298     c33.628,38.883,81.292,60.438,132.564,60.437c5,0,10.041-0.206,15.1-0.62c58.983-4.828,112.57-37.699,143.344-87.931     c6.348-10.362,15.332-28.761,19.755-46.513c5.324-21.362,2.599-36.183-7.879-42.862c-4.8-3.058-9.159-2.901-13.376-2.748     c-1.651,0.057-3.239,0.109-4.858-0.02c2.138-4.43,2.617-9.173,2.868-13.718c0.756-13.666-2.411-24.847-5.203-34.711     c-1.586-5.602-3.084-10.894-3.663-15.971c-2.706-23.757,6.977-46.533,26.569-62.487c21.94-17.866,52.02-23.561,78.484-14.872     C472.721,143.134,491.282,162.116,497.5,186.63z M506.505,68.087c-0.454,5.355-3.599,11.903-11.063,14.221     c-6.38,1.981-12.951,0.277-17.14-4.45c-4.232-4.775-5.096-11.426-2.39-17.885c0.318-0.327,0.585-0.706,0.707-1.18     c0.009-0.036-0.002-0.072,0.006-0.109c5.385-8.449,14.805-9.692,21.225-6.43C504.918,55.846,506.955,62.788,506.505,68.087z"/>
		</g>
	</g>
</g>















</svg>
