<?xml version="1.0" encoding="UTF-8"?>
<svg xmlns="http://www.w3.org/2000/svg" xmlns:xlink="http://www.w3.org/1999/xlink" width="512" height="512" viewBox="0 0 512 512"><defs><clipPath id="a"><path d="M66.5,419.629H454.259a6.986,6.986,0,0,0,6.993-7.042c-.17-21.11-1.452-83.228-10.6-96.5-11.059-16.053-41.915,2.008-53.064-19.289s1.339-79.561-22.793-103.583-216.822-25.56-238.541-22.746-14.374,46.9-42.068,65.155S46.053,257.5,38.9,278.255s13.289,64.766,0,75.982S25.61,419.629,66.5,419.629Z" fill="none"/></clipPath><clipPath id="b"><ellipse cx="270.577" cy="184.484" rx="104.693" ry="92.113" fill="none"/></clipPath></defs><title>Tarantula</title><g><g clip-path="url(#a)"><path d="M66.5,419.629H461.275s.439-87.491-10.619-103.544-41.915,2.008-53.064-19.289,1.339-79.561-22.793-103.583-216.822-25.56-238.541-22.746-14.374,46.9-42.068,65.155S46.053,257.5,38.9,278.255s13.289,64.766,0,75.982S25.61,419.629,66.5,419.629Z" fill="#00ccc1"/><rect x="369.237" y="340.717" width="110.468" height="37.935" rx="10.015" fill="#aaeeea"/><rect x="320.036" y="255.199" width="110.468" height="37.935" rx="10.015" fill="#aaeeea"/><rect x="73.136" y="181.555" width="110.468" height="37.935" rx="10.015" fill="#aaeeea"/><rect x="17.902" y="278.15" width="110.468" height="37.935" rx="10.015" fill="#aaeeea"/><rect x="88.962" y="395.54" width="110.468" height="37.935" rx="10.015" fill="#aaeeea"/><rect x="162.068" y="335.578" width="110.468" height="37.935" rx="10.015" fill="#aaeeea"/><rect x="278.586" y="400.661" width="110.468" height="37.935" rx="10.015" fill="#aaeeea"/></g><path d="M48.1,316.691a2.5,2.5,0,0,1-2.426-1.906c-6.3-25.689,4.553-45.47,5.017-46.3a2.5,2.5,0,0,1,4.363,2.443A63.929,63.929,0,0,0,50.525,313.6,2.5,2.5,0,0,1,48.1,316.691Z" fill="#fff"/><path d="M52.866,408.159a2.477,2.477,0,0,1-1.191-.3c-7.216-3.921-11.289-11.161-11.781-20.936a45.337,45.337,0,0,1,1.369-13.285A2.5,2.5,0,0,1,46.074,375h0c-.059.208-5.722,21.013,7.988,28.465A2.5,2.5,0,0,1,52.866,408.159Z" fill="#fff"/><path d="M425.98,322.941c-23.051,0-30.277-12.657-30.579-13.206a2.5,2.5,0,0,1,4.373-2.424c.278.484,6.6,11.019,27.407,10.618a2.5,2.5,0,0,1,.1,5C426.844,322.937,426.407,322.941,425.98,322.941Z" fill="#fff"/><path d="M453.413,392.488a2.5,2.5,0,0,1-2.5-2.394,176.881,176.881,0,0,0-6.716-41.146,2.5,2.5,0,1,1,4.764-1.518,178.442,178.442,0,0,1,6.948,42.451A2.5,2.5,0,0,1,453.413,392.488Z" fill="#fff"/><path d="M454.648,404.666c-3.921,0-3.34,6.074.564,6.074C459.134,410.74,458.553,404.666,454.648,404.666Z" fill="#fff"/><path d="M441.36,326.3c-3.922,0-3.341,6.074.564,6.074C445.845,332.372,445.264,326.3,441.36,326.3Z" fill="#fff"/><path d="M62.126,260.707c-3.921,0-3.34,6.074.565,6.074C66.612,266.781,66.031,260.707,62.126,260.707Z" fill="#fff"/><path d="M50.882,336.861c-3.921,0-3.34,6.074.564,6.074C55.368,342.935,54.787,336.861,50.882,336.861Z" fill="#fff"/><path d="M74.393,407.392c-3.922,0-3.341,6.074.564,6.074C78.878,413.466,78.3,407.392,74.393,407.392Z" fill="#fff"/><path d="M90.013,137.131a.607.607,0,0,1,.032,1.18,25.231,25.231,0,0,0-17.7,17.751.614.614,0,0,1-1.193-.048A22.5,22.5,0,0,0,53.44,138.066a.61.61,0,0,1-.032-1.188A24.351,24.351,0,0,0,70.9,119.27a.614.614,0,0,1,1.193.023A22.784,22.784,0,0,0,90.013,137.131Z" fill="#ffb833"/><path d="M423.211,150.475a.607.607,0,0,1,.032,1.18,25.231,25.231,0,0,0-17.7,17.751.615.615,0,0,1-1.193-.049,22.5,22.5,0,0,0-17.709-17.947.61.61,0,0,1-.032-1.188,24.353,24.353,0,0,0,17.49-17.608.614.614,0,0,1,1.193.022A22.787,22.787,0,0,0,423.211,150.475Z" fill="#ffb833"/><path d="M143.484,113.6a.156.156,0,0,0-.007.309,17.009,17.009,0,0,1,13.334,13.311.165.165,0,0,0,.326-.015,15.145,15.145,0,0,1,13.255-13.384.16.16,0,0,0,.012-.317,16.364,16.364,0,0,1-13.177-13.247.161.161,0,0,0-.319,0A15.357,15.357,0,0,1,143.484,113.6Z" fill="#ffb833"/><path d="M436.542,113.6a.156.156,0,0,0-.007.309,17.006,17.006,0,0,1,13.333,13.311.166.166,0,0,0,.327-.015,15.145,15.145,0,0,1,13.255-13.384.16.16,0,0,0,.012-.317,16.364,16.364,0,0,1-13.177-13.247.161.161,0,0,0-.319,0A15.357,15.357,0,0,1,436.542,113.6Z" fill="#ffb833"/><g><path d="M103.275,227.1c-21.39-23.127-25.881-47.824-26.062-48.864a7.171,7.171,0,0,1,14.126-2.477h0c.04.219,4.156,22.113,22.964,42.139,25.227,26.863,63.79,38.014,114.618,33.141a7.171,7.171,0,1,1,1.368,14.276C183.435,269.81,135.208,261.633,103.275,227.1Z" fill="#383333"/><path d="M107.63,284.933C76.865,269.04,59.512,245.9,58.788,244.926a7.171,7.171,0,0,1,11.519-8.544,139.127,139.127,0,0,0,44.382,36.053c36.918,18.874,76.122,16.883,116.524-5.914a7.171,7.171,0,1,1,7.047,12.491C195.819,302.96,150.41,307.03,107.63,284.933Z" fill="#383333"/><path d="M98.965,395.521a7.169,7.169,0,0,1-6.7-9.708c.28-.736,7.131-18.251,29.329-36.956,19.971-16.83,57.019-38.161,120.1-44.214a7.171,7.171,0,0,1,1.369,14.276c-58.769,5.638-93.028,24.988-111.42,40.228-19.775,16.385-25.933,31.657-25.992,31.809A7.2,7.2,0,0,1,98.965,395.521Z" fill="#383333"/><path d="M308.091,265.319a7.171,7.171,0,1,1,1.369-14.276c50.824,4.869,89.391-6.278,114.618-33.141,18.807-20.026,22.924-41.92,22.963-42.139a7.171,7.171,0,0,1,14.127,2.477c-.181,1.04-4.672,25.737-26.062,48.864C403.172,261.634,354.943,269.808,308.091,265.319Z" fill="#383333"/><path d="M300.12,279.01a7.171,7.171,0,1,1,7.048-12.491c40.4,22.8,79.605,24.785,116.523,5.914a140.386,140.386,0,0,0,44.382-36.054,7.171,7.171,0,0,1,11.519,8.544c-.723.977-18.077,24.115-48.842,40.007C388.046,306.989,342.649,303.006,300.12,279.01Z" fill="#383333"/><path d="M439.411,395.54a7.173,7.173,0,0,1-6.689-4.586c-.1-.242-6.275-15.47-25.991-31.807-18.392-15.24-52.651-34.59-111.42-40.228a7.171,7.171,0,1,1,1.369-14.276c63.082,6.053,100.13,27.384,120.1,44.214,22.2,18.7,29.048,36.22,29.328,36.956A7.177,7.177,0,0,1,439.411,395.54Z" fill="#383333"/><g clip-path="url(#b)"><ellipse cx="270.577" cy="184.484" rx="104.693" ry="92.113" fill="#ff1a26"/><path d="M220.863,79.527S197.71,211.5,266.8,214.391,319.6,81.488,319.6,81.488Z" fill="#ffb833"/></g><ellipse cx="270.577" cy="291.885" rx="70.751" ry="61.668" fill="#ffb833"/><path d="M189.546,251.406q-23.359-2.113-41.94-10.218c-.664,3.964-1.419,8.858-2.148,14.444a153.555,153.555,0,0,0,43.156,9.994C188.789,260.708,189.093,255.937,189.546,251.406Z" fill="#ffb833"/><path d="M188.91,297.383c-.217-4.772-.372-9.607-.444-14.422a109.117,109.117,0,0,1-45.612-.269c-.283,4.672-.482,9.5-.565,14.408A124.692,124.692,0,0,0,188.91,297.383Z" fill="#ffb833"/><path d="M144.2,333.169c.7,5.123,1.62,10.156,2.791,15.02a183.8,183.8,0,0,1,44.151-19.417c-.429-4.557-.848-9.461-1.224-14.582A204.539,204.539,0,0,0,144.2,333.169Z" fill="#ffb833"/><path d="M401.759,235.622Q383.8,246.087,360.43,249.934c.423,4.552.695,9.338.848,14.254a140.322,140.322,0,0,0,42.8-13.646C403.263,244.564,402.438,239.482,401.759,235.622Z" fill="#ffb833"/><path d="M361.3,284.676c-.12,4.778-.316,9.549-.565,14.233a123.825,123.825,0,0,0,46.829-4.631c-.087-5.044-.3-10-.591-14.786A108.1,108.1,0,0,1,361.3,284.676Z" fill="#ffb833"/><path d="M358.091,332.345c18.33,6.583,32.143,14.478,42.31,21.892a127.017,127.017,0,0,0,3.777-14.857,188.518,188.518,0,0,0-44.726-21.739C359.018,322.9,358.551,327.858,358.091,332.345Z" fill="#ffb833"/><circle cx="241.502" cy="291.885" r="24.2" fill="#fff"/><circle cx="245.454" cy="291.885" r="16.646" fill="#383333"/><circle cx="245.574" cy="281.528" r="4.071" fill="#fff"/><circle cx="302.786" cy="291.885" r="24.2" fill="#fff"/><circle cx="298.834" cy="291.885" r="16.646" fill="#383333"/><circle cx="298.714" cy="281.528" r="4.071" fill="#fff"/><path d="M274.656,332.689a14.34,14.34,0,0,1-14.036-12.016,1.5,1.5,0,0,1,2.959-.49,11.2,11.2,0,0,0,22.138,0,1.5,1.5,0,0,1,2.961.488A14.289,14.289,0,0,1,274.656,332.689Z" fill="#383333"/><ellipse cx="236.776" cy="326.671" rx="12.111" ry="6.243" fill="#ff1a26"/><ellipse cx="310.825" cy="325.809" rx="12.111" ry="6.243" fill="#ff1a26"/><path d="M177.37,201.08a2.5,2.5,0,0,1-2.5-2.466,129.185,129.185,0,0,1,6.226-37.428c8.5-26.446,24.673-45.227,46.759-54.312a2.5,2.5,0,0,1,1.9,4.625c-50.089,20.6-49.9,86.39-49.888,87.052A2.5,2.5,0,0,1,177.37,201.08Z" fill="#fff"/><path d="M363.1,201.082a2.5,2.5,0,0,1-2.451-3.008c8.064-38.866-23.247-66.4-23.563-66.676a2.5,2.5,0,0,1,3.261-3.79c.34.292,33.87,29.682,25.2,71.481A2.5,2.5,0,0,1,363.1,201.082Z" fill="#fff"/><path d="M234.417,246.733a2.5,2.5,0,0,1,1.534-3.185,132.13,132.13,0,0,1,23.282-5.375c17.555-2.409,31.329-.515,40.947,5.629a2.5,2.5,0,0,1-2.692,4.213c-20.664-13.2-59.5.118-59.887.254A2.5,2.5,0,0,1,234.417,246.733Z" fill="#fff"/><path d="M127.567,240.627c-14.776-5.008-25.716-22.3-26.175-23.032a2.5,2.5,0,0,1,4.239-2.651c.1.165,10.469,16.517,23.542,20.949a2.5,2.5,0,0,1-1.606,4.734Z" fill="#fff"/><path d="M125.982,288.1c-8.661,0-22.408-8.193-29.249-13.436a2.5,2.5,0,0,1,3.041-3.968c.157.119,15.765,11.978,26.308,12.406a2.5,2.5,0,0,1-.1,5Z" fill="#fff"/><path d="M117.852,365.531a2.5,2.5,0,0,1-2.031-3.956c.44-.614,10.86-15.043,19.668-17.894a2.5,2.5,0,1,1,1.539,4.758c-6.013,1.945-14.414,12.244-17.143,16.049A2.5,2.5,0,0,1,117.852,365.531Z" fill="#fff"/><path d="M417.353,362.185a2.5,2.5,0,0,1-1.954-.938c-5.346-6.683-18.83-13.777-18.965-13.847a2.5,2.5,0,0,1,2.316-4.432c.592.31,14.558,7.66,20.554,15.155A2.5,2.5,0,0,1,417.353,362.185Z" fill="#fff"/><path d="M418.108,281.232a2.5,2.5,0,0,1,1.846-3.016c12.421-2.989,20.625-12.1,20.706-12.19a2.5,2.5,0,0,1,3.738,3.32,49.4,49.4,0,0,1-23.274,13.732A2.5,2.5,0,0,1,418.108,281.232Z" fill="#fff"/><path d="M414.963,238.123a2.5,2.5,0,0,1-1.093-4.75c9.222-4.473,18.415-20.862,18.507-21.027a2.5,2.5,0,1,1,4.369,2.43c-.406.73-10.067,17.941-20.694,23.1A2.5,2.5,0,0,1,414.963,238.123Z" fill="#fff"/><path d="M442.424,200.522c-3.668,0-3.124,5.681.528,5.681C446.62,206.2,446.077,200.522,442.424,200.522Z" fill="#fff"/><path d="M404.659,237.491c-3.668,0-3.125,5.681.527,5.681C408.854,243.172,408.311,237.491,404.659,237.491Z" fill="#fff"/><path d="M450.392,258.366c-3.668,0-3.124,5.681.528,5.681C454.588,264.047,454.044,258.366,450.392,258.366Z" fill="#fff"/><path d="M410.554,282.268c-3.668,0-3.124,5.681.528,5.681C414.75,287.949,414.206,282.268,410.554,282.268Z" fill="#fff"/><path d="M426.967,367.043c-3.668,0-3.124,5.681.528,5.681C431.163,372.724,430.62,367.043,426.967,367.043Z" fill="#fff"/><path d="M388.723,335.81c-3.668,0-3.124,5.681.528,5.681C392.919,341.491,392.376,335.81,388.723,335.81Z" fill="#fff"/><path d="M308.093,248.167c-3.668,0-3.125,5.682.527,5.682C312.288,253.849,311.745,248.167,308.093,248.167Z" fill="#fff"/><path d="M225.549,251.036c-3.668,0-3.124,5.681.528,5.681C229.745,256.717,229.2,251.036,225.549,251.036Z" fill="#fff"/><path d="M147.468,336.129c-3.668,0-3.125,5.681.527,5.681C151.663,341.81,151.12,336.129,147.468,336.129Z" fill="#fff"/><path d="M108.586,368.636c-3.668,0-3.124,5.681.528,5.681C112.782,374.317,112.238,368.636,108.586,368.636Z" fill="#fff"/><path d="M136.313,284.5c-3.668,0-3.124,5.681.528,5.681C140.509,290.18,139.965,284.5,136.313,284.5Z" fill="#fff"/><path d="M87.233,260.916c-3.667,0-3.124,5.681.528,5.681C91.429,266.6,90.886,260.916,87.233,260.916Z" fill="#fff"/><path d="M139.5,242.112c-3.668,0-3.124,5.681.528,5.681C143.7,247.793,143.152,242.112,139.5,242.112Z" fill="#fff"/><path d="M93.926,200.362c-3.668,0-3.124,5.682.528,5.682C98.122,206.044,97.578,200.362,93.926,200.362Z" fill="#fff"/><path d="M178.063,208.011c-3.668,0-3.125,5.681.528,5.681S181.715,208.011,178.063,208.011Z" fill="#fff"/><path d="M243.715,100.61c-3.668,0-3.124,5.681.528,5.681C247.911,106.291,247.367,100.61,243.715,100.61Z" fill="#fff"/><path d="M323.39,114.632c-3.668,0-3.124,5.681.528,5.681C327.586,120.313,327.042,114.632,323.39,114.632Z" fill="#fff"/><path d="M357.81,208.967c-3.668,0-3.125,5.681.527,5.681C362.005,214.648,361.462,208.967,357.81,208.967Z" fill="#fff"/></g><path d="M329.741,144.163a1,1,0,0,1-.847-.467c-4.12-6.543-13.749-10.574-13.845-10.615a1,1,0,0,1,.762-1.849c.418.173,10.312,4.309,14.776,11.4A1,1,0,0,1,329.741,144.163Z" fill="#383333"/><path d="M332.55,165.042a1,1,0,0,1-.992-.883c-.951-8.154-8.307-12.237-8.381-12.277a1,1,0,1,1,.955-1.758c.34.185,8.343,4.63,9.412,13.8A1,1,0,0,1,332.55,165.042Z" fill="#383333"/><path d="M199.826,161.795a1,1,0,0,1-.942-1.333c.153-.434,3.844-10.653,11.431-13.384a1,1,0,1,1,.678,1.88c-6.691,2.41-10.189,12.074-10.224,12.171A1,1,0,0,1,199.826,161.795Z" fill="#383333"/><path d="M201.709,181.472a1,1,0,0,1-.989-.863c-1.073-7.779,5.338-15.062,5.611-15.368a1,1,0,0,1,1.492,1.331c-.06.068-6.067,6.909-5.123,13.763A1,1,0,0,1,201.709,181.472Z" fill="#383333"/></g></svg>
