<?xml version="1.0" encoding="UTF-8"?>
<!-- Generator: Adobe Illustrator 26.5.0, SVG Export Plug-In . SVG Version: 6.00 Build 0)  -->
<svg xmlns="http://www.w3.org/2000/svg" xmlns:xlink="http://www.w3.org/1999/xlink" version="1.1" id="Capa_1" x="0px" y="0px" viewBox="0 0 512 512" style="enable-background:new 0 0 512 512;" xml:space="preserve" width="512" height="512">
<g>
	<path style="fill:#241726;" d="M162.897,34.59l-6.677,0.485l3.355-4.186c0.36-0.45,0.288-1.11-0.162-1.47   c-0.452-0.362-1.107-0.286-1.469,0.162l-3.261,4.069l-0.523-5.938c-0.051-0.574-0.555-0.997-1.126-0.95l-0.006,0   c-0.575,0.051-1.001,0.558-0.949,1.133l0.592,6.729l-6.033-3.511c-0.493-0.287-1.136-0.124-1.429,0.378   c-0.291,0.499-0.121,1.139,0.377,1.43l4.472,2.603l-4.032,0.293l-0.006,0c-0.576,0.047-1.002,0.545-0.961,1.118   c0.041,0.576,0.541,1.009,1.117,0.967l5.414-0.393l-3.64,4.542c-0.36,0.45-0.288,1.11,0.162,1.47   c0.217,0.175,0.483,0.247,0.739,0.226c0.277-0.023,0.542-0.155,0.73-0.388l3.476-4.337l0.564,6.402   c0.051,0.574,0.555,0.997,1.126,0.95l0.006-0.001c0.575-0.051,1.001-0.558,0.949-1.133l-0.597-6.779l5.782,3.365   c0.191,0.111,0.404,0.155,0.611,0.138c0.327-0.027,0.638-0.208,0.818-0.516c0.291-0.499,0.121-1.139-0.377-1.43l-4.983-2.9   l6.091-0.442l0.01-0.001c0.571-0.047,0.998-0.545,0.957-1.117C163.974,34.981,163.473,34.549,162.897,34.59z"/>
	<path style="fill:#241726;" d="M491.571,165.243l-6.677,0.485l3.355-4.186c0.36-0.45,0.288-1.11-0.162-1.47   c-0.452-0.362-1.107-0.286-1.469,0.162l-3.261,4.069l-0.523-5.938c-0.051-0.574-0.555-0.997-1.126-0.95l-0.006,0   c-0.575,0.051-1.001,0.558-0.949,1.133l0.592,6.729l-6.033-3.511c-0.493-0.287-1.136-0.124-1.429,0.378   c-0.291,0.499-0.121,1.139,0.377,1.43l4.472,2.603l-4.032,0.293l-0.006,0c-0.576,0.047-1.002,0.545-0.961,1.118   c0.041,0.576,0.541,1.009,1.117,0.967l5.414-0.393l-3.64,4.542c-0.36,0.45-0.288,1.11,0.162,1.47   c0.217,0.175,0.483,0.247,0.739,0.226c0.277-0.023,0.542-0.155,0.73-0.388l3.476-4.337l0.564,6.402   c0.051,0.574,0.555,0.997,1.126,0.95l0.006-0.001c0.575-0.051,1.001-0.558,0.949-1.133l-0.597-6.779l5.782,3.365   c0.191,0.111,0.404,0.155,0.611,0.138c0.327-0.027,0.638-0.208,0.818-0.516c0.291-0.499,0.121-1.139-0.377-1.43l-4.983-2.9   l6.091-0.442l0.01-0.001c0.571-0.047,0.997-0.545,0.957-1.117C492.647,165.634,492.147,165.202,491.571,165.243z"/>
	<path style="fill:#241726;" d="M30.146,399.784l-6.677,0.485l3.355-4.186c0.36-0.45,0.288-1.11-0.162-1.47   c-0.452-0.362-1.107-0.286-1.469,0.162l-3.261,4.069l-0.523-5.938c-0.051-0.574-0.555-0.997-1.126-0.95l-0.006,0   c-0.575,0.051-1.001,0.558-0.949,1.133l0.592,6.729l-6.033-3.511c-0.493-0.287-1.136-0.124-1.429,0.378   c-0.291,0.499-0.121,1.139,0.377,1.43l4.472,2.603l-4.032,0.293l-0.006,0c-0.576,0.047-1.002,0.545-0.961,1.118   c0.041,0.576,0.541,1.009,1.117,0.967l5.414-0.393l-3.64,4.542c-0.36,0.45-0.288,1.109,0.162,1.47   c0.217,0.175,0.483,0.247,0.739,0.226c0.277-0.023,0.542-0.155,0.73-0.388l3.476-4.337l0.564,6.402   c0.051,0.574,0.555,0.997,1.126,0.95l0.006-0.001c0.575-0.051,1.001-0.558,0.949-1.133l-0.597-6.779l5.782,3.365   c0.191,0.111,0.404,0.155,0.611,0.138c0.327-0.027,0.638-0.208,0.818-0.516c0.291-0.499,0.121-1.139-0.377-1.43l-4.983-2.9   l6.091-0.442l0.01-0.001c0.571-0.047,0.998-0.545,0.957-1.117C31.222,400.175,30.722,399.742,30.146,399.784z"/>
	<g>
		<path style="fill:#241726;" d="M462.21,42.381c-0.306,0-0.61-0.135-0.816-0.392c-0.359-0.451-0.288-1.11,0.163-1.47    c0.663-0.584,4.863-5.316,6.818-7.815c-2.406,0.434-6.839,1.47-10.871,2.506c-0.553,0.145-1.126-0.194-1.271-0.752    c-0.143-0.559,0.194-1.129,0.753-1.273c13.81-3.552,13.977-3.031,14.344-2.006c0.6,1.686-8.371,10.897-8.467,10.974    C462.669,42.306,462.438,42.381,462.21,42.381z"/>
		<path style="fill:#E17B8D;" d="M446.163,43.311c0,0,0.34-16.323,8.951-13.713c11.929,3.614,18.587,33.724-3.341,41.225    c-21.928,7.501-30.684-10.438-30.684-10.438l11.812-3.229c0,0-8.854-7.367-8.307-13.722s7.447-1.059,7.447-1.059    s-8.391-14.257-1.934-14.952C436.564,26.726,446.163,43.311,446.163,43.311z"/>
		<path style="fill:#241726;" d="M456.002,40.995c-2.239,0-4.524-3.159-5.192-4.157c-0.32-0.481-0.19-1.129,0.29-1.45    c0.473-0.322,1.126-0.194,1.449,0.288c0.931,1.393,2.363,2.885,3.175,3.178c-0.025-0.87-0.708-2.987-1.596-4.863    c-0.247-0.522-0.025-1.145,0.498-1.392c0.518-0.245,1.143-0.028,1.392,0.497c0.933,1.97,2.371,5.506,1.514,7.042    c-0.269,0.483-0.724,0.782-1.278,0.843C456.171,40.991,456.085,40.995,456.002,40.995z"/>
		<path style="fill:#241726;" d="M436.627,56.946c-0.222,0-0.445-0.069-0.635-0.214c-0.657-0.503-6.426-5.027-6.181-8.948    c0.08-1.296,0.806-1.807,1.233-1.996c1.259-0.556,3.137,0.254,4.73,1.225c-0.88-3.97-0.602-6.245,0.833-6.776    c0.618-0.225,2.469-0.915,9.822,9.568c0.333,0.473,0.218,1.124-0.255,1.456c-0.469,0.332-1.122,0.218-1.455-0.255    c-2.667-3.801-6.141-8.005-7.418-8.691c-0.139,0.78,0.329,3.913,1.204,6.903c0.129,0.438-0.041,0.908-0.42,1.162    c-0.376,0.254-0.875,0.233-1.233-0.05c-1.931-1.542-4.263-2.783-4.932-2.639c0.006,0.019-0.014,0.093-0.022,0.224    c-0.133,2.128,3.22,5.518,5.365,7.156c0.457,0.35,0.547,1.007,0.196,1.465C437.251,56.804,436.941,56.946,436.627,56.946z"/>
		<path style="fill:#241726;" d="M445.853,67.273c-2.661,0-4.557-0.422-4.726-0.46c-0.561-0.13-0.912-0.69-0.784-1.252    c0.131-0.565,0.7-0.915,1.251-0.786c0.086,0.018,8.287,1.824,14.342-2.485c3.647-2.594,5.828-6.901,6.483-12.799    c0.063-0.575,0.549-0.992,1.155-0.924c0.573,0.064,0.986,0.581,0.922,1.155c-0.724,6.524-3.202,11.329-7.363,14.282    C453.396,66.657,449.067,67.273,445.853,67.273z"/>
	</g>
	<g>
		<path style="fill:#241726;" d="M46.685,435.858c-0.224,0-0.449-0.073-0.639-0.225c-0.096-0.078-9.067-9.289-8.467-10.972    c0.359-1.027,0.545-1.545,14.344,2.004c0.559,0.144,0.896,0.714,0.753,1.273c-0.145,0.559-0.718,0.896-1.271,0.752    c-4.033-1.037-8.467-2.073-10.871-2.506c1.955,2.499,6.157,7.234,6.832,7.828c0.424,0.375,0.486,1.031,0.12,1.466    C47.279,435.727,46.983,435.858,46.685,435.858z"/>
		<path style="fill:#E17B8D;" d="M62.747,436.793c0,0-0.339-16.323-8.951-13.713c-11.929,3.614-18.587,33.724,3.341,41.225    c21.928,7.501,30.684-10.438,30.684-10.438l-11.812-3.229c0,0,8.854-7.367,8.307-13.722c-0.547-6.354-7.447-1.059-7.447-1.059    s8.391-14.257,1.934-14.952C72.345,420.208,62.747,436.793,62.747,436.793z"/>
		<path style="fill:#241726;" d="M52.908,434.477c-0.084,0-0.169-0.004-0.253-0.013c-0.553-0.061-1.008-0.36-1.278-0.843    c-0.857-1.536,0.582-5.071,1.514-7.042c0.249-0.524,0.873-0.742,1.392-0.497c0.522,0.247,0.745,0.87,0.498,1.392    c-0.888,1.877-1.571,3.994-1.596,4.864c0.814-0.292,2.247-1.786,3.175-3.179c0.322-0.481,0.971-0.606,1.449-0.289    c0.48,0.321,0.61,0.97,0.29,1.451C57.432,431.318,55.146,434.477,52.908,434.477z"/>
		<path style="fill:#241726;" d="M72.282,450.428c-0.314,0-0.624-0.142-0.831-0.41c-0.349-0.459-0.261-1.115,0.196-1.466    c2.145-1.641,5.498-5.035,5.365-7.156c-0.012-0.196-0.051-0.262-0.051-0.263c-0.52-0.176-2.939,1.109-4.904,2.678    c-0.357,0.285-0.857,0.303-1.233,0.051c-0.38-0.254-0.549-0.724-0.42-1.162c0.829-2.831,1.292-5.792,1.102-6.845    c-1.351,0.841-4.716,4.928-7.316,8.632c-0.335,0.474-0.986,0.587-1.455,0.255c-0.473-0.332-0.588-0.983-0.255-1.456    c7.355-10.486,9.212-9.791,9.82-9.57c1.437,0.532,1.714,2.808,0.835,6.778c1.596-0.974,3.473-1.788,4.73-1.226    c0.427,0.189,1.153,0.7,1.233,1.997c0.245,3.919-5.524,8.444-6.181,8.948C72.727,450.359,72.505,450.428,72.282,450.428z"/>
		<path style="fill:#241726;" d="M63.056,460.754c-3.214,0-7.543-0.616-11.281-3.268c-4.161-2.954-6.639-7.758-7.363-14.282    c-0.063-0.574,0.349-1.09,0.922-1.155c0.584-0.056,1.09,0.349,1.155,0.924c0.655,5.898,2.837,10.205,6.483,12.799    c6.055,4.306,14.257,2.5,14.342,2.484c0.555-0.132,1.12,0.223,1.251,0.785c0.129,0.563-0.222,1.123-0.784,1.253    C67.613,460.332,65.715,460.754,63.056,460.754z"/>
	</g>
	<g>
		<g>
			<path style="fill:#E4B200;" d="M57.393,55.333C44.795,65.289,53.539,83.45,59.47,92.9l7.272-4.916     c0,0-13.299-21.312-1.735-26.245C76.572,56.807,88.6,73.429,88.6,73.429l9.24-5.584C90.233,59.301,72.731,43.21,57.393,55.333z"/>
			<path style="fill:#E17B8D;" d="M45.192,38.259c37.293-26.171,63.78,5.802,71.974,17.907l6.317-3.818     c0,0-37.225-51.502-80.899-24.995c-43.674,26.507-7.5,82.033-7.5,82.033l6.757-4.568C33.287,91.689,16.206,58.6,45.192,38.259z"/>
			<path style="fill:#B1739A;" d="M45.192,38.259c-28.986,20.342-11.905,53.431-3.351,66.56l8.901-6.017     c-8.892-13.772-22.589-42.78,7.589-57.28c19.777-9.503,40.615,10.013,49.669,20.184l9.167-5.54     C108.973,44.06,82.485,12.088,45.192,38.259z"/>
			<path style="fill:#DD7E0E;" d="M58.331,41.521c-30.178,14.5-16.481,43.508-7.589,57.28L59.47,92.9     c-5.932-9.45-14.675-27.611-2.078-37.567c15.339-12.123,32.84,3.968,40.448,12.512l10.159-6.139     C98.946,51.534,78.108,32.019,58.331,41.521z"/>
		</g>
		<path style="fill:#241726;" d="M41.841,105.864c-0.345,0-0.682-0.171-0.882-0.484c-0.68-1.069-16.575-26.425-10.612-48.982    c2.651-10.031,9.271-17.911,19.675-23.423c40.639-21.52,67.049,21.609,67.308,22.046c0.298,0.495,0.137,1.137-0.359,1.433    c-0.492,0.295-1.137,0.135-1.433-0.359c-0.063-0.106-6.479-10.69-17.636-18.541c-14.838-10.442-30.617-11.36-46.9-2.731    c-9.869,5.227-16.138,12.666-18.634,22.11c-5.73,21.68,10.194,47.07,10.355,47.324c0.31,0.487,0.165,1.133-0.32,1.444    C42.228,105.811,42.035,105.864,41.841,105.864z"/>
		<path style="fill:#241726;" d="M50.742,99.847c-0.339,0-0.669-0.164-0.871-0.468c-0.535-0.808-13.038-19.966-9.296-37.862    c1.639-7.843,6.19-14.221,13.524-18.957c24.801-16.019,54.4,18.119,54.694,18.466c0.376,0.439,0.324,1.099-0.114,1.473    c-0.439,0.377-1.098,0.326-1.473-0.115c-0.286-0.333-28.707-33.094-51.972-18.068c-6.847,4.421-11.089,10.35-12.612,17.622    c-3.569,17.033,8.865,36.095,8.992,36.286c0.318,0.481,0.186,1.13-0.294,1.449C51.142,99.79,50.94,99.847,50.742,99.847z"/>
		<path style="fill:#241726;" d="M59.471,93.945c-0.345,0-0.682-0.171-0.882-0.484c-0.429-0.673-10.475-16.645-7.577-29.566    c1.049-4.681,3.682-8.377,7.822-10.987c7.624-4.8,16.959-3.813,27.005,2.853c7.443,4.938,12.593,11.158,12.808,11.421    c0.367,0.445,0.304,1.104-0.143,1.471c-0.443,0.362-1.102,0.303-1.469-0.143c-0.202-0.244-20.352-24.371-37.086-13.831    c-3.653,2.301-5.975,5.556-6.898,9.674c-2.708,12.082,7.202,27.827,7.302,27.986c0.31,0.487,0.167,1.133-0.32,1.444    C59.858,93.892,59.665,93.945,59.471,93.945z"/>
	</g>
	<g>
		<path style="fill:#FFFFFF;" d="M441.589,103.616c0,0-2.062-15.662,13.005-10.594s10.157,19.407,4.413,14.5    s5.033-21.55,16.563-14.139c11.529,7.411,8.951,21.79,0.773,22.852c-8.178,1.061,4.951-16.743,15.253-5.747    c10.302,10.996-12.191,31.043-21.389,23.672c-9.199-7.371-2-19.267,0.207-12.017s-3.744,14.36-20.059,14.079    c-16.315-0.281-8.889-25.395-3.186-18.085c5.703,7.31-3.765,15.561-15.273,6.949C420.385,116.473,433.514,98.669,441.589,103.616z    "/>
		<path style="fill:#241726;" d="M451.28,137.275l-0.945-0.008c-5.347-0.092-9.112-2.834-10.438-7.557    c-2.812-0.356-5.779-1.656-8.628-3.788c-4.51-3.374-6.037-8.496-4.19-14.053c1.892-5.693,6.932-10.152,11.473-10.152    c0.655,0,1.288,0.088,1.896,0.261c-0.02-2.18,0.316-5.889,2.526-8.41c2.467-2.815,6.53-3.362,11.953-1.539    c2.09,0.703,3.922,1.616,5.459,2.721c2.592-2.736,5.9-4.287,9.204-4.287c2.239,0,4.441,0.686,6.545,2.039    c4.981,3.203,8.008,8.128,8.255,13.343c2.924,0.083,5.604,1.403,7.969,3.927c3.206,3.423,3.798,8.023,1.663,12.951    c-3.245,7.495-12.106,14.07-18.963,14.07c-2.147,0.001-4-0.612-5.506-1.818c-0.72-0.576-1.369-1.2-1.943-1.862    C464.008,135.84,458.396,137.275,451.28,137.275z M442.112,129.791c0.931,2.639,3.143,5.298,8.259,5.386l0.908,0.008    c8.204,0,12.685-1.926,15.089-3.755c-2.296-3.718-2.12-7.782-0.843-10.301c0.739-1.455,1.812-2.289,2.943-2.289    c0.757,0,2.149,0.39,2.943,2.999c1.104,3.631,0.286,7.18-2.245,9.881c0.496,0.576,1.061,1.119,1.692,1.624    c1.126,0.902,2.539,1.36,4.2,1.359c6.018,0,14.142-6.105,17.044-12.81c1.261-2.912,2.065-7.13-1.271-10.691    c-1.963-2.097-4.147-3.195-6.494-3.265c-0.492,5.007-3.622,8.784-7.861,9.335c-0.288,0.037-0.553,0.054-0.798,0.054l0,0    c-2.094,0-2.892-1.28-2.941-2.478c-0.118-2.95,4.13-7.908,9.567-8.85c-0.198-4.558-2.877-8.893-7.302-11.735    c-4.347-2.797-9.336-1.968-13.002,1.822c3.559,3.39,4.22,7.559,3.228,10.342c-0.694,1.941-2.177,3.147-3.873,3.148h-0.002    c-1.016,0-2.063-0.435-3.026-1.258c-3.171-2.709-2.145-7.998,0.718-11.954c-1.343-0.943-2.949-1.733-4.786-2.35    c-4.555-1.533-7.816-1.234-9.718,0.935c-2.614,2.982-1.926,8.476-1.918,8.531c0.051,0.4-0.131,0.794-0.467,1.014    c-0.341,0.22-0.773,0.225-1.114,0.014c-0.759-0.464-1.596-0.699-2.492-0.699c-3.635,0-7.892,3.912-9.492,8.721    c-0.731,2.198-1.855,7.741,3.461,11.719c2.322,1.739,4.7,2.857,6.953,3.28c-0.463-4.056,0.778-8.008,2.412-10.04    c0.912-1.132,1.977-1.731,3.077-1.731c0.763,0,1.908,0.301,3.028,1.736c2.024,2.597,2.486,5.526,1.261,8.035    C448.045,128.005,445.345,129.602,442.112,129.791z M468.469,120.931c-0.192,0-0.655,0.311-1.08,1.146    c-0.935,1.842-1.088,4.968,0.545,7.888c1.796-2.109,2.324-4.737,1.478-7.517C469.077,121.342,468.654,120.931,468.469,120.931z     M444.963,117.848c-0.441,0-0.955,0.338-1.449,0.952c-1.394,1.73-2.414,5.427-1.906,8.918c2.647-0.043,4.849-1.225,5.767-3.107    c0.859-1.763,0.484-3.889-1.033-5.832C446.012,118.355,445.504,117.848,444.963,117.848z M482.211,108.146    c-4.382,0.974-7.449,5-7.383,6.617c0.008,0.199,0.018,0.472,0.851,0.472l0,0c0.161,0,0.339-0.012,0.529-0.037    C479.344,114.791,481.695,111.963,482.211,108.146z M460.659,97.694c-2.469,3.444-2.943,7.351-0.973,9.032    c1.486,1.274,2.933,0.802,3.575-1.003C464.014,103.618,463.455,100.416,460.659,97.694z"/>
	</g>
	<g>
		<path style="fill:#FFFFFF;" d="M15.277,181.812c0,0-2.062-15.662,13.005-10.594s10.157,19.407,4.413,14.5    c-5.744-4.907,5.033-21.55,16.563-14.139c11.529,7.411,8.951,21.79,0.773,22.852c-8.178,1.061,4.951-16.743,15.253-5.747    s-12.191,31.043-21.389,23.672s-2-19.267,0.207-12.017c2.207,7.25-3.744,14.36-20.059,14.079s-8.889-25.395-3.186-18.085    c5.703,7.31-3.765,15.561-15.273,6.949C-5.927,194.669,7.202,176.865,15.277,181.812z"/>
		<path style="fill:#241726;" d="M24.968,215.471l-0.945-0.008c-5.347-0.092-9.112-2.834-10.438-7.557    c-2.812-0.356-5.779-1.656-8.628-3.788c-4.51-3.374-6.037-8.496-4.19-14.054c1.892-5.692,6.932-10.151,11.473-10.151    c0.655,0,1.288,0.088,1.896,0.261c-0.02-2.18,0.316-5.889,2.526-8.41c2.465-2.815,6.532-3.36,11.953-1.539    c2.09,0.703,3.922,1.616,5.459,2.721c2.592-2.736,5.9-4.287,9.204-4.287c2.239,0,4.441,0.686,6.545,2.039    c4.981,3.203,8.008,8.128,8.255,13.343c2.924,0.084,5.604,1.403,7.969,3.927c3.206,3.423,3.798,8.023,1.663,12.951    c-3.245,7.495-12.106,14.07-18.963,14.07c-2.147,0.001-4-0.612-5.506-1.818c-0.72-0.576-1.369-1.2-1.943-1.862    C37.696,214.036,32.084,215.471,24.968,215.471z M15.801,207.986c0.931,2.639,3.143,5.298,8.259,5.386l0.908,0.008    c8.204,0,12.685-1.926,15.089-3.755c-2.296-3.718-2.12-7.782-0.843-10.301c0.739-1.455,1.812-2.289,2.943-2.289    c0.757,0,2.149,0.39,2.943,2.999c1.104,3.631,0.286,7.18-2.245,9.881c0.496,0.576,1.061,1.119,1.692,1.624    c1.126,0.902,2.539,1.36,4.2,1.359c6.018,0,14.142-6.105,17.044-12.81c1.261-2.912,2.065-7.13-1.271-10.691    c-1.963-2.097-4.147-3.195-6.494-3.265c-0.492,5.007-3.622,8.784-7.861,9.335c-0.288,0.037-0.553,0.054-0.798,0.054l0,0    c-2.094,0-2.892-1.28-2.941-2.478c-0.118-2.95,4.13-7.908,9.567-8.85c-0.198-4.558-2.877-8.893-7.302-11.735    c-4.347-2.798-9.336-1.967-13.002,1.822c3.559,3.39,4.22,7.559,3.228,10.342c-0.694,1.941-2.177,3.147-3.873,3.148h-0.002    c-1.016,0-2.063-0.435-3.026-1.258c-3.171-2.709-2.145-7.998,0.718-11.954c-1.343-0.943-2.949-1.733-4.786-2.35    c-4.555-1.533-7.816-1.234-9.718,0.935c-2.614,2.982-1.926,8.476-1.918,8.531c0.051,0.4-0.131,0.794-0.467,1.014    c-0.341,0.221-0.773,0.225-1.114,0.014c-0.759-0.464-1.596-0.699-2.492-0.699c-3.635,0-7.892,3.912-9.489,8.721    c-0.731,2.198-1.857,7.741,3.459,11.719c2.322,1.739,4.7,2.857,6.953,3.28c-0.463-4.056,0.778-8.008,2.412-10.04    c0.912-1.132,1.977-1.731,3.077-1.731c0.763,0,1.908,0.301,3.028,1.736c2.024,2.597,2.486,5.526,1.261,8.035    C21.733,206.201,19.033,207.798,15.801,207.986z M42.157,199.126c-0.192,0-0.655,0.311-1.08,1.146    c-0.935,1.842-1.088,4.968,0.545,7.888c1.796-2.109,2.324-4.737,1.477-7.517C42.765,199.538,42.343,199.126,42.157,199.126z     M18.652,196.044c-0.441,0-0.955,0.338-1.449,0.952c-1.394,1.73-2.414,5.427-1.906,8.918c2.647-0.043,4.849-1.225,5.767-3.107    c0.859-1.763,0.484-3.889-1.033-5.832C19.701,196.551,19.192,196.044,18.652,196.044z M55.899,186.342    c-4.381,0.974-7.451,4.999-7.385,6.617c0.008,0.199,0.02,0.472,0.853,0.472l0,0c0.161,0,0.339-0.012,0.529-0.037    C53.032,192.986,55.383,190.159,55.899,186.342z M34.347,175.89c-2.469,3.444-2.943,7.351-0.973,9.032    c1.486,1.274,2.933,0.802,3.575-1.003C37.702,181.814,37.143,178.612,34.347,175.89z"/>
	</g>
	<path style="fill:#241726;" d="M10.364,278.642l-0.024-0.019c-3.148-2.442-3.723-6.992-1.281-10.143   c2.431-3.137,6.966-3.72,10.112-1.301c1.55,1.202,2.524,2.91,2.766,4.826c0.241,1.914-0.276,3.811-1.458,5.335   C18.046,280.476,13.508,281.06,10.364,278.642z M17.915,268.85c-2.254-1.734-5.477-1.318-7.204,0.911   c-1.736,2.24-1.328,5.474,0.909,7.21l-0.619,0.843l0.637-0.829c2.234,1.719,5.459,1.304,7.189-0.925   c0.841-1.084,1.209-2.431,1.035-3.793C19.691,270.904,18.998,269.691,17.915,268.85z"/>
	<path style="fill:#241726;" d="M489.607,320.461l-0.024-0.019c-3.148-2.442-3.723-6.992-1.281-10.143   c2.431-3.137,6.966-3.72,10.112-1.301c1.55,1.202,2.524,2.91,2.766,4.826c0.241,1.914-0.276,3.811-1.458,5.335   C497.289,322.295,492.751,322.879,489.607,320.461z M497.158,310.669c-2.254-1.734-5.477-1.318-7.204,0.911   c-1.736,2.24-1.328,5.474,0.909,7.21l-0.619,0.843l0.637-0.829c2.234,1.719,5.459,1.304,7.189-0.925   c0.841-1.084,1.209-2.431,1.035-3.793C498.934,312.723,498.242,311.51,497.158,310.669z"/>
	<path style="fill:#241726;" d="M206.798,139.246l-0.024-0.019c-3.148-2.442-3.723-6.992-1.281-10.143   c2.431-3.137,6.966-3.72,10.112-1.301c1.55,1.202,2.524,2.91,2.766,4.826c0.241,1.914-0.276,3.811-1.458,5.335   C214.48,141.081,209.942,141.664,206.798,139.246z M214.349,129.454c-2.254-1.734-5.477-1.318-7.204,0.911   c-1.736,2.24-1.328,5.474,0.909,7.21l-0.619,0.843l0.637-0.829c2.234,1.719,5.459,1.304,7.189-0.925   c0.841-1.084,1.209-2.431,1.035-3.793C216.125,131.508,215.432,130.295,214.349,129.454z"/>
	<path style="fill:#241726;" d="M337.754,487.736l-0.024-0.019c-3.148-2.442-3.723-6.992-1.281-10.143   c2.431-3.137,6.966-3.72,10.112-1.301c1.55,1.202,2.524,2.91,2.766,4.826c0.241,1.914-0.276,3.811-1.458,5.335   C345.436,489.57,340.898,490.154,337.754,487.736z M345.305,477.944c-2.254-1.734-5.477-1.318-7.204,0.911   c-1.736,2.24-1.328,5.474,0.909,7.21l-0.619,0.843l0.637-0.829c2.234,1.719,5.459,1.304,7.189-0.925   c0.841-1.084,1.209-2.431,1.035-3.793C347.081,479.998,346.388,478.785,345.305,477.944z"/>
	<path style="fill:#241726;" d="M116.691,122.296c-0.471,0-0.886-0.275-1.11-0.734c-0.018-0.038-1.814-3.74-3.971-8.578   c-0.99,0.028-1.955,0.042-2.869,0.042c-7.032,0-8.065-0.805-8.481-1.56c-0.255-0.463-0.233-0.999,0.065-1.469   c0.798-1.269,4.608-4.628,7.165-6.814c-3.504-9.067-3.245-11.319-1.684-11.967c0.31-0.13,0.657-0.103,0.945,0.074   c0.041,0.025,3.984,2.435,8.608,5.44c7.883-6.203,8.92-6.203,9.367-6.203c0.567,0,1.186,0.582,1.2,1.149   c0.027,1.007-1.331,6.888-2.251,10.679c6.871,4.903,7.449,6.234,7.439,7.171c-0.004,0.472-0.233,0.894-0.624,1.159   c-1.18,0.794-5.626,1.366-9.422,1.721C118.305,122.296,117.591,122.296,116.691,122.296z M113.863,112.902   c1.184,2.637,2.228,4.871,2.884,6.252c0.422-1.067,1.09-3.014,2.096-6.559C117.183,112.725,115.499,112.828,113.863,112.902z    M102.581,110.515c0.784,0.183,2.504,0.42,6.159,0.42c0.631,0,1.286-0.007,1.955-0.02c-0.89-2.035-1.69-3.935-2.392-5.676   C105.21,107.9,103.408,109.613,102.581,110.515z M109.981,103.809c0.841,2.107,1.835,4.468,2.967,7.038   c2.118-0.082,4.335-0.217,6.49-0.397c0.637-2.335,1.278-4.825,1.867-7.211c-1.698-1.188-3.655-2.509-5.828-3.936   C113.65,100.757,111.773,102.298,109.981,103.809z M123.136,104.54c-0.473,1.897-0.975,3.841-1.478,5.706   c3.769-0.379,6.045-0.789,7.073-1.079C128.211,108.544,126.821,107.21,123.136,104.54z M106.802,93.777   c0.1,1.032,0.59,3.258,2.38,7.974c1.459-1.225,2.967-2.462,4.451-3.65C110.753,96.238,108.204,94.645,106.802,93.777z    M117.205,97.937c1.686,1.112,3.237,2.157,4.632,3.124c0.867-3.608,1.443-6.247,1.745-7.796   C122.444,93.998,120.422,95.425,117.205,97.937z"/>
	<path style="fill:#241726;" d="M497.578,426.179c-0.471,0-0.886-0.275-1.11-0.734c-0.018-0.038-1.82-3.752-3.971-8.578   c-0.99,0.028-1.953,0.042-2.869,0.042c-7.032,0-8.065-0.806-8.481-1.56c-0.255-0.462-0.233-0.997,0.065-1.469   c0.798-1.269,4.608-4.628,7.165-6.815c-3.504-9.066-3.245-11.318-1.684-11.966c0.308-0.13,0.657-0.101,0.945,0.074   c0.041,0.025,3.984,2.435,8.608,5.44c7.885-6.203,8.92-6.203,9.369-6.203c0.567,0,1.186,0.582,1.2,1.149   c0.027,1.007-1.333,6.889-2.251,10.679c6.869,4.903,7.447,6.233,7.436,7.17c-0.004,0.473-0.233,0.894-0.624,1.159   c-1.18,0.794-5.624,1.366-9.42,1.721C499.192,426.179,498.478,426.179,497.578,426.179z M494.749,416.784   c1.182,2.634,2.228,4.87,2.884,6.253c0.422-1.067,1.09-3.014,2.096-6.56C498.072,416.608,496.388,416.712,494.749,416.784z    M483.468,414.397c0.784,0.183,2.504,0.421,6.159,0.421c0.631,0,1.286-0.007,1.955-0.02c-0.89-2.036-1.69-3.935-2.392-5.676   C486.097,411.782,484.295,413.497,483.468,414.397z M490.868,407.691c0.841,2.107,1.835,4.469,2.967,7.039   c2.118-0.082,4.335-0.217,6.492-0.397c0.637-2.335,1.277-4.825,1.867-7.21c-1.7-1.189-3.657-2.511-5.83-3.937   C494.537,404.641,492.66,406.18,490.868,407.691z M504.025,408.424c-0.473,1.896-0.975,3.84-1.477,5.704   c3.769-0.378,6.043-0.788,7.071-1.078C509.098,412.427,507.71,411.093,504.025,408.424z M487.688,397.66   c0.1,1.032,0.59,3.257,2.379,7.974c1.459-1.225,2.967-2.462,4.451-3.65C491.641,400.121,489.09,398.528,487.688,397.66z    M498.092,401.821c1.688,1.112,3.237,2.157,4.632,3.124c0.869-3.608,1.445-6.248,1.747-7.797   C503.333,397.88,501.308,399.307,498.092,401.821z"/>
	<path style="fill:#241726;" d="M391.675,104.839c-0.778,0-1.514,0-3.447-8.159c-6.855-1.411-7.424-2.2-7.645-2.503   c-0.19-0.262-0.267-0.742-0.176-1.053c0.131-0.439,0.433-1.457,8.324-4.52c2.906-7.298,3.857-7.297,4.49-7.297   c0.335,0,0.794,0.242,0.99,0.514c0.498,0.686,0.933,2.454,1.59,5.287c0.204,0.882,0.451,1.947,0.596,2.417   c0.41,0.19,1.314,0.527,2.063,0.807c4.02,1.502,5.055,2.008,5.23,2.976c0.065,0.362-0.124,0.887-0.402,1.13   c-0.829,0.724-4.751,2.122-6.806,2.824c-3.422,7.523-4.135,7.552-4.763,7.577C391.708,104.839,391.69,104.839,391.675,104.839z    M383.253,93.312c1.369,0.415,3.865,1.016,6.043,1.452c0.402,0.081,0.72,0.389,0.814,0.788c0.527,2.271,1.222,4.859,1.729,6.337   c0.78-1.361,1.965-3.771,2.926-5.903c0.12-0.264,0.345-0.467,0.618-0.559c1.875-0.633,3.994-1.412,5.314-1.969   c-0.914-0.4-2.161-0.866-2.967-1.167c-2.294-0.857-2.724-1.04-3.016-1.443c-0.255-0.352-0.406-0.933-0.949-3.267   c-0.204-0.882-0.518-2.235-0.8-3.249c-0.702,1.299-1.688,3.509-2.459,5.466c-0.106,0.273-0.322,0.488-0.596,0.593   C387.474,91.328,384.706,92.525,383.253,93.312z"/>
	<path style="fill:#241726;" d="M42.449,258.993c-0.778,0-1.514,0-3.449-8.159c-6.855-1.411-7.424-2.2-7.645-2.503   c-0.19-0.262-0.267-0.741-0.176-1.053c0.131-0.439,0.431-1.456,8.324-4.52c2.906-7.297,3.857-7.297,4.49-7.297   c0.335,0,0.794,0.243,0.992,0.515c0.496,0.684,0.929,2.449,1.586,5.276c0.206,0.886,0.453,1.955,0.598,2.426   c0.41,0.19,1.316,0.528,2.065,0.808c4.018,1.501,5.053,2.007,5.228,2.975c0.065,0.362-0.124,0.887-0.402,1.13   c-0.829,0.724-4.749,2.123-6.804,2.825c-3.422,7.525-4.135,7.552-4.763,7.576C42.479,258.993,42.463,258.993,42.449,258.993z    M34.027,247.466c1.367,0.415,3.863,1.016,6.041,1.452c0.402,0.081,0.72,0.388,0.814,0.788c0.529,2.271,1.224,4.859,1.731,6.338   c0.78-1.361,1.965-3.771,2.926-5.903c0.12-0.264,0.345-0.467,0.618-0.559c1.875-0.633,3.994-1.413,5.312-1.97   c-0.912-0.399-2.157-0.865-2.965-1.166c-2.296-0.858-2.726-1.042-3.018-1.446c-0.253-0.349-0.406-0.932-0.951-3.274   c-0.204-0.879-0.516-2.229-0.798-3.24c-0.702,1.299-1.688,3.509-2.459,5.466c-0.106,0.273-0.322,0.488-0.596,0.593   C38.245,245.481,35.478,246.679,34.027,247.466z"/>
	<path style="fill:#241726;" d="M494.725,225.558c-0.777,0-1.514,0-3.449-8.159c-6.855-1.412-7.424-2.201-7.645-2.504   c-0.19-0.262-0.267-0.741-0.176-1.053c0.131-0.439,0.431-1.456,8.324-4.52c2.906-7.297,3.857-7.297,4.49-7.297   c0.335,0,0.794,0.243,0.992,0.515c0.496,0.685,0.929,2.45,1.586,5.277c0.206,0.885,0.453,1.955,0.598,2.426   c0.41,0.189,1.314,0.526,2.063,0.806c4.02,1.502,5.055,2.008,5.23,2.976c0.065,0.362-0.124,0.887-0.402,1.13   c-0.829,0.724-4.749,2.123-6.804,2.825c-3.422,7.523-4.135,7.552-4.763,7.577C494.758,225.558,494.739,225.558,494.725,225.558z    M486.303,214.032c1.367,0.413,3.863,1.016,6.041,1.452c0.402,0.081,0.72,0.389,0.814,0.788c0.529,2.271,1.224,4.859,1.731,6.337   c0.78-1.36,1.965-3.771,2.926-5.903c0.12-0.264,0.345-0.467,0.618-0.559c1.875-0.633,3.994-1.413,5.312-1.97   c-0.914-0.399-2.159-0.865-2.967-1.167c-2.294-0.856-2.724-1.04-3.016-1.443c-0.253-0.351-0.406-0.934-0.949-3.275   c-0.206-0.879-0.518-2.229-0.8-3.24c-0.702,1.298-1.688,3.508-2.459,5.465c-0.106,0.273-0.322,0.488-0.596,0.593   C490.521,212.046,487.754,213.243,486.303,214.032z"/>
	<g>
		<path style="fill:#E8A900;" d="M223.279,98.365l-70.249-1.19c0,0-2.422-38.089,4.037-33.923s10.497,23.806,10.497,23.806    s0-43.445,8.075-36.899c8.075,6.547,12.112,35.113,12.112,35.113s-0.807-40.47,7.267-33.923s12.919,32.733,12.919,32.733    s8.882-38.684,12.919-26.781S223.279,98.365,223.279,98.365z"/>
		<path style="fill:#241726;" d="M161.192,93.426c-0.578,0-1.045-0.468-1.045-1.045c0-4.97-3.298-22.302-3.33-22.477    c-0.108-0.567,0.263-1.115,0.831-1.223c0.555-0.108,1.114,0.263,1.222,0.831c0.137,0.721,3.367,17.703,3.367,22.869    C162.236,92.958,161.769,93.426,161.192,93.426z"/>
		<path style="fill:#241726;" d="M176.758,92.637c-0.388,0-0.759-0.216-0.941-0.589c-3.255-6.718-0.604-25.254-0.49-26.04    c0.084-0.572,0.624-0.976,1.186-0.883c0.571,0.083,0.965,0.614,0.884,1.185c-0.029,0.186-2.675,18.683,0.302,24.825    c0.251,0.52,0.035,1.146-0.486,1.397C177.067,92.603,176.911,92.637,176.758,92.637z"/>
		<path style="fill:#241726;" d="M194.884,91.06c-0.094,0-0.19-0.012-0.284-0.04c-0.555-0.157-0.88-0.735-0.722-1.291    c2.855-10.095-0.186-26.366-0.216-26.529c-0.108-0.568,0.263-1.115,0.831-1.223c0.569-0.108,1.114,0.264,1.222,0.831    c0.131,0.686,3.163,16.925,0.176,27.491C195.76,90.76,195.341,91.06,194.884,91.06z"/>
		<path style="fill:#241726;" d="M214.98,93.82c-0.482,0-0.914-0.336-1.02-0.827c-0.604-2.825,2.518-19.237,3.149-22.498    c0.11-0.568,0.686-0.94,1.224-0.827c0.567,0.109,0.937,0.659,0.829,1.225c-1.433,7.389-3.555,19.805-3.157,21.663    c0.12,0.565-0.239,1.12-0.804,1.24C215.126,93.813,215.053,93.82,214.98,93.82z"/>
	</g>
	<g>
		<path style="fill:#E8A900;" d="M478.25,484.133l-70.249-1.19c0,0-2.422-38.089,4.037-33.923    c6.46,4.166,10.497,23.806,10.497,23.806s0-43.445,8.075-36.899c8.075,6.547,12.112,35.113,12.112,35.113    s-0.807-40.47,7.267-33.923s12.919,32.733,12.919,32.733s8.882-38.684,12.919-26.781    C479.865,454.971,478.25,484.133,478.25,484.133z"/>
		<path style="fill:#241726;" d="M416.162,479.193c-0.578,0-1.045-0.468-1.045-1.045c0-4.969-3.298-22.301-3.331-22.476    c-0.108-0.567,0.263-1.115,0.831-1.223c0.551-0.103,1.114,0.262,1.222,0.831c0.137,0.72,3.367,17.702,3.367,22.868    C417.207,478.725,416.74,479.193,416.162,479.193z"/>
		<path style="fill:#241726;" d="M431.729,478.405c-0.388,0-0.759-0.216-0.941-0.589c-3.255-6.719-0.602-25.254-0.488-26.04    c0.084-0.572,0.618-0.972,1.186-0.883c0.571,0.083,0.965,0.614,0.884,1.185c-0.029,0.186-2.677,18.682,0.3,24.825    c0.251,0.52,0.035,1.146-0.486,1.397C432.037,478.371,431.882,478.405,431.729,478.405z"/>
		<path style="fill:#241726;" d="M449.855,476.827c-0.094,0-0.19-0.012-0.286-0.04c-0.555-0.157-0.878-0.735-0.72-1.29    c2.857-10.094-0.186-26.366-0.216-26.529c-0.108-0.568,0.263-1.115,0.831-1.223c0.569-0.104,1.114,0.264,1.222,0.831    c0.131,0.686,3.165,16.926,0.176,27.491C450.731,476.527,450.312,476.827,449.855,476.827z"/>
		<path style="fill:#241726;" d="M469.954,479.587c-0.484,0-0.916-0.336-1.022-0.826c-0.604-2.825,2.516-19.237,3.147-22.499    c0.11-0.569,0.682-0.937,1.224-0.827c0.567,0.109,0.937,0.659,0.829,1.225c-1.433,7.389-3.555,19.804-3.155,21.662    c0.12,0.565-0.239,1.121-0.804,1.241C470.099,479.58,470.026,479.587,469.954,479.587z"/>
	</g>
	<polygon style="fill:#E3B000;" points="65.837,122.641 78.38,115.195 75.588,128.689 84.818,137.225 73.792,140.776    67.885,152.432 62.318,141.89 48.384,140.959 58.809,130.892 54.126,118.745  "/>
	<polygon style="fill:#E3B000;" points="485.905,350.594 498.449,343.149 495.657,356.642 504.886,365.179 493.861,368.73    487.954,380.386 482.387,369.844 468.452,368.913 478.878,358.846 474.194,346.698  "/>
	<g>
		<path style="fill:#DF7E0E;" d="M380.838,117.803C273.101,65.187,223.08,169.136,223.08,169.136s-2.692,4.33-7.55,11.216    c-28.957-12.044-48.883-18.915-48.883-18.915s6.413-43.633-6.413-48.766c-12.826-5.133-18.046,51.446-18.046,51.446    c-35.747,10.839-49.931,58.92-46.083,61.486c3.848,2.567,19.239,17.966,19.239,17.966s-15.883,17.337-21.649,30.332    c-62.725,11.354-105.656,70.782-86.91,72.033c19.239,1.283,102.147-38.199,114.972-40.766c1.854-0.371,3.706-0.576,5.49-0.629    c4.326,1.818,8.799,3.609,13.289,5.322c0.894,2.384,0.062,5.539-3.389,9.424c-10.261,11.55-69.702,28.094-92.346,57.75    c-30.327,39.719,97.544-17.868,136.022-33.268c38.477-15.4,119.212-5.231,132.038,3.752c12.826,8.983-69.259,12.833-50.021,30.8    s57.716-10.267,96.193-2.567c38.477,7.7,62.846-12.833,8.978,23.1c-53.868,35.933-105.172-20.533-179.561-17.966    c-74.39,2.567-111.585,88.549-24.369,55.183s189.822,60.316,262.929-29.517C500.118,316.719,488.574,170.42,380.838,117.803z"/>
		<path style="fill:#FCE2BD;" d="M327.421,270.064c0,0-13.54-5.961-45.496-10.297c-29.198-3.961-67.824,62.353-81.71,78.791    c41.387-7.212,101.707,1.299,112.646,8.961c0.88,0.617,1.299,1.208,1.349,1.782c0.254-0.041,0.499-0.073,0.754-0.115    C314.964,349.186,311.172,313.419,327.421,270.064z"/>
		<path style="fill:#241726;" d="M139.315,209.349c-0.708,0-1.229-0.214-1.645-0.503c-3.602-2.489,0.988-13.622,2.48-16.975    c0.235-0.528,0.861-0.764,1.38-0.529c0.529,0.235,0.765,0.853,0.531,1.38c-2.731,6.137-4.669,13.389-3.202,14.403    c0.386,0.273,2.924,1.058,14.512-10.424c0.41-0.405,1.071-0.403,1.477,0.008c0.406,0.409,0.402,1.072-0.008,1.478    C145.792,207.151,141.582,209.349,139.315,209.349z"/>
		<path style="fill:#241726;" d="M194.321,246.607c-1.033,0.001-1.663-0.345-2.116-0.78c-2.894-2.768,2.388-11.616,4.075-14.261    c0.312-0.487,0.963-0.627,1.443-0.319c0.488,0.31,0.631,0.957,0.32,1.444c-2.965,4.65-5.5,10.568-4.394,11.625    c0.186,0.181,2.186,1.51,14.016-6.811c0.469-0.333,1.122-0.217,1.455,0.254c0.331,0.473,0.218,1.124-0.255,1.457    C200.641,245.001,196.548,246.607,194.321,246.607z"/>
		<path style="fill:#FCE2BD;" d="M167.159,267.735c6.094-6.781,10.903-12.213,10.903-12.213s-36.186-32.964-44.229-35.647    c-1.752-0.584-6.845,5.069-11.747,11.687c-5.966-10.387-19.17-29.756-20.191-28.815c-2.841,2.617-29.876,33.087,8.784,46.878    c-1.436,2.6-2.358,4.427-2.487,4.813c-3.25,9.755,31.955,40.103,34.122,39.561c0.766-0.192,5.47-5.07,11.221-11.286    c26.449,30.539,51.419-4.3,52.292-8.043C206.527,271.676,178.953,268.818,167.159,267.735z"/>
		<path style="fill:#241726;" d="M156.814,159.472c-0.035,0-0.067-0.001-0.1-0.005c-0.576-0.054-0.996-0.565-0.943-1.139    c0.59-6.205,1.398-23.125-1.908-26.845c-0.12-0.137-0.188-0.168-0.188-0.168c-1.653,0.938-3.669,14.56-4.488,26.641    c-0.041,0.578-0.547,0.988-1.114,0.973c-0.576-0.04-1.01-0.538-0.971-1.114c0.551-8.128,2.245-27.173,6.059-28.478    c0.455-0.156,1.353-0.269,2.265,0.758c4.504,5.071,2.651,26.056,2.426,28.432C157.8,159.067,157.347,159.472,156.814,159.472z"/>
		<path style="fill:#241726;" d="M109.691,224.233c-0.231,0-0.461-0.076-0.653-0.23l-24.644-19.781    c-0.451-0.361-0.522-1.02-0.161-1.47c0.363-0.451,1.022-0.519,1.467-0.161l24.644,19.781c0.451,0.361,0.522,1.02,0.161,1.47    C110.299,224.099,109.997,224.233,109.691,224.233z"/>
		<path style="fill:#241726;" d="M106.44,230.193c-0.096,0-0.192-0.013-0.288-0.041l-27.35-7.857    c-0.555-0.159-0.875-0.738-0.716-1.294c0.159-0.555,0.737-0.875,1.292-0.716l27.35,7.857c0.555,0.159,0.875,0.738,0.716,1.294    C107.314,229.895,106.896,230.193,106.44,230.193z"/>
		<path style="fill:#241726;" d="M75.57,238.864c-0.567,0-1.035-0.455-1.045-1.025c-0.01-0.578,0.447-1.055,1.024-1.066    l28.162-0.542c0.559,0.02,1.055,0.449,1.065,1.025c0.01,0.578-0.447,1.055-1.024,1.066l-28.162,0.542    C75.584,238.864,75.576,238.864,75.57,238.864z"/>
		<path style="fill:#241726;" d="M210.974,288.722c-0.131,0-0.263-0.025-0.392-0.076l-32.225-13.006    c-0.535-0.216-0.794-0.826-0.578-1.361c0.218-0.537,0.826-0.793,1.361-0.579l32.225,13.006c0.535,0.216,0.794,0.826,0.578,1.361    C211.778,288.475,211.386,288.722,210.974,288.722z"/>
		<path style="fill:#241726;" d="M200.682,304.168c-0.267,0-0.535-0.102-0.739-0.306l-21.934-21.949    c-0.408-0.408-0.408-1.07,0-1.478c0.408-0.408,1.069-0.408,1.477,0l21.934,21.949c0.408,0.408,0.408,1.07,0,1.478    C201.217,304.065,200.949,304.168,200.682,304.168z"/>
		<path style="fill:#241726;" d="M184.977,314.464c-0.412,0-0.804-0.247-0.969-0.654l-11.375-28.181    c-0.216-0.535,0.043-1.145,0.578-1.36c0.535-0.217,1.143,0.04,1.361,0.578l11.375,28.181c0.216,0.535-0.043,1.145-0.578,1.36    C185.24,314.439,185.107,314.464,184.977,314.464z"/>
		<path style="fill:#241726;" d="M236.699,213.123c-0.353,0-0.698-0.18-0.896-0.506c-0.296-0.494-0.137-1.136,0.357-1.434    c8.134-4.906,16.806-10.735,18.897-13.025c-3.01,0.104-12.683,2.854-20.997,5.697c-0.549,0.181-1.141-0.105-1.326-0.651    c-0.188-0.546,0.104-1.14,0.649-1.327c22.142-7.57,23.495-5.66,23.936-5.038c0.231,0.323,0.31,0.727,0.224,1.141    c-0.588,2.839-14.395,11.433-20.305,14.995C237.071,213.075,236.883,213.123,236.699,213.123z"/>
		<path style="fill:#241726;" d="M6.062,342.645c-0.192,0-0.386-0.052-0.557-0.161c-0.488-0.308-0.635-0.955-0.327-1.443    c8.908-14.115,17.244-13.525,17.587-13.489c0.575,0.052,1,0.562,0.947,1.136c-0.051,0.573-0.571,0.994-1.129,0.946    c-0.145-0.007-7.532-0.319-15.638,12.523C6.748,342.472,6.407,342.645,6.062,342.645z"/>
		<path style="fill:#241726;" d="M6.785,346.98c-0.21,0-0.422-0.063-0.608-0.195c-0.469-0.335-0.578-0.988-0.243-1.458    c3.743-5.244,19.293-11.65,19.952-11.921c0.537-0.217,1.145,0.038,1.363,0.572c0.218,0.535-0.037,1.146-0.571,1.364    c-0.157,0.063-15.648,6.445-19.042,11.2C7.432,346.828,7.109,346.98,6.785,346.98z"/>
		<path style="fill:#241726;" d="M47.947,385.276c-0.212,0-0.427-0.064-0.612-0.198c-0.467-0.338-0.573-0.991-0.235-1.46    c9.61-13.314,22.04-12.745,22.573-12.714c0.575,0.034,1.014,0.527,0.982,1.103c-0.033,0.575-0.441,1.027-1.102,0.984    c-0.108-0.003-11.84-0.502-20.758,11.852C48.589,385.126,48.269,385.276,47.947,385.276z"/>
		<path style="fill:#241726;" d="M50.836,388.889c-0.137,0-0.278-0.027-0.412-0.085c-0.531-0.227-0.775-0.841-0.549-1.372    c2.296-5.36,16.404-9.529,18.003-9.987c0.557-0.157,1.135,0.164,1.292,0.719c0.159,0.554-0.161,1.133-0.716,1.293    c-4.086,1.168-15.042,5.027-16.657,8.799C51.626,388.652,51.24,388.889,50.836,388.889z"/>
		<path style="fill:#241726;" d="M268.927,374.438c-0.267,0-0.535-0.102-0.739-0.306c-0.408-0.408-0.408-1.07,0-1.478    c9.053-9.06,18.091-5.444,18.473-5.283c0.531,0.222,0.782,0.83,0.561,1.363c-0.218,0.534-0.837,0.782-1.361,0.569    c-0.329-0.134-8.163-3.208-16.195,4.83C269.461,374.335,269.194,374.438,268.927,374.438z"/>
		<path style="fill:#241726;" d="M293.477,378.051c-0.182,0-0.367-0.048-0.535-0.149c-0.139-0.082-13.885-8.172-21.865-0.848    c-0.42,0.389-1.084,0.362-1.475-0.064c-0.39-0.426-0.361-1.087,0.063-1.477c9.13-8.38,23.732,0.226,24.35,0.597    c0.496,0.297,0.655,0.938,0.359,1.433C294.179,377.869,293.832,378.051,293.477,378.051z"/>
		<path style="fill:#241726;" d="M314.964,350.231c-0.549,0-1.01-0.428-1.043-0.983c-0.01-0.166-0.965-16.851,1.402-36.2    c3.194-26.113,10.581-44.398,21.958-54.347c8.577-7.501,19.363-10.038,32.046-7.546c0.565,0.111,0.935,0.661,0.822,1.227    c-0.112,0.568-0.653,0.928-1.227,0.825c-12.006-2.363-22.199,0.016-30.266,7.069c-26.262,22.965-22.689,88.191-22.65,88.848    c0.035,0.576-0.404,1.071-0.98,1.106C315.005,350.23,314.984,350.231,314.964,350.231z"/>
		<path style="fill:#241726;" d="M272.867,186.533c-6.065-4.397-33.009,4.023-38.123,5.68l-4.655-3.698    c-0.589-0.649-1.62-1.445-2.896-2.3l-1.218-0.968c-0.185-0.147-0.407-0.203-0.629-0.207c-4.171-2.536-9.73-5.251-12.562-6.195    c0,0-12.102,29.44-10.477,29.982c1.438,0.479,22.508-13.308,27.342-17.992l4.236,3.365c0.273,0.221,0.647,0.285,0.975,0.175    c12.518-4.117,32.64-9.151,36.782-6.147c0.396,0.286,0.571,0.622,0.571,1.089c0,6.607-23.264,20.944-32.229,25.911    c-0.308,0.171-0.51,0.486-0.537,0.837c-0.055,0.746-1.349,18.355-0.259,25.435c0.226,1.467-1.893,4.417-5.362,8.126    c-1.662-1.164-18.304-12.714-19.333-9.368c-1.083,3.523,6.229,19.239,7.583,20.322c0.048,0.038,0.128,0.033,0.196,0.045    c-0.962,0.85-1.941,1.704-2.931,2.558c-3.654-2.796-18.156-13.64-20.284-11.275c-2.057,2.287,5.384,19.413,7.706,21.687    c-1.679,1.336-3.307,2.612-4.841,3.794c-0.457,0.352-0.543,1.009-0.192,1.467c0.206,0.267,0.516,0.407,0.829,0.407    c0.222,0,0.447-0.07,0.637-0.216c6.553-5.046,39.176-30.579,38.058-37.867c-0.947-6.159,0.024-21.298,0.239-24.402    c5.126-2.871,32.811-18.778,32.811-27.464C274.304,188.176,273.808,187.213,272.867,186.533z"/>
		<g>
			<path style="fill:#241726;" d="M265.166,323.621c-0.349,0-0.692-0.177-0.89-0.496c-1.126-1.828-2.477-2.894-4.018-3.17     c-2.541-0.454-4.814,1.301-4.837,1.319c-0.451,0.352-1.108,0.277-1.465-0.18c-0.357-0.455-0.276-1.113,0.18-1.468     c0.122-0.097,3.051-2.349,6.492-1.73c2.149,0.385,3.975,1.774,5.428,4.13c0.302,0.492,0.149,1.136-0.341,1.44     C265.543,323.571,265.353,323.621,265.166,323.621z"/>
			<path style="fill:#241726;" d="M273.522,331.89c-0.349,0-0.692-0.177-0.89-0.496c-1.126-1.828-2.477-2.894-4.018-3.17     c-2.514-0.448-4.812,1.301-4.837,1.319c-0.449,0.354-1.108,0.275-1.465-0.18c-0.357-0.455-0.275-1.113,0.18-1.468     c0.122-0.097,3.051-2.348,6.492-1.73c2.149,0.385,3.975,1.774,5.428,4.13c0.302,0.492,0.149,1.136-0.341,1.44     C273.9,331.84,273.71,331.89,273.522,331.89z"/>
			<path style="fill:#241726;" d="M280.161,322.902c-0.349,0-0.692-0.177-0.89-0.496c-1.126-1.828-2.479-2.894-4.018-3.17     c-2.539-0.45-4.814,1.301-4.837,1.319c-0.449,0.352-1.11,0.276-1.465-0.18c-0.357-0.455-0.276-1.112,0.18-1.468     c0.122-0.096,3.035-2.353,6.49-1.73c2.151,0.385,3.977,1.774,5.43,4.13c0.302,0.491,0.151,1.135-0.341,1.439     C280.538,322.852,280.349,322.902,280.161,322.902z"/>
			<path style="fill:#241726;" d="M288.414,332.011c-0.349,0-0.692-0.177-0.89-0.496c-1.126-1.829-2.477-2.894-4.018-3.171     c-2.539-0.449-4.812,1.302-4.835,1.32c-0.449,0.353-1.108,0.277-1.465-0.18c-0.357-0.455-0.276-1.112,0.18-1.468     c0.122-0.096,3.039-2.347,6.49-1.73c2.149,0.385,3.975,1.774,5.428,4.13c0.302,0.492,0.149,1.136-0.341,1.44     C288.791,331.961,288.601,332.011,288.414,332.011z"/>
			<path style="fill:#241726;" d="M295.95,326.117c-0.349,0-0.692-0.177-0.89-0.496c-1.126-1.828-2.477-2.894-4.018-3.17     c-2.522-0.455-4.814,1.301-4.837,1.319c-0.449,0.352-1.108,0.276-1.465-0.18c-0.357-0.455-0.275-1.113,0.18-1.468     c0.122-0.097,3.047-2.354,6.492-1.73c2.149,0.385,3.975,1.774,5.428,4.13c0.302,0.492,0.149,1.136-0.341,1.44     C296.328,326.067,296.138,326.117,295.95,326.117z"/>
			<path style="fill:#241726;" d="M256.739,329.833c-0.349,0-0.692-0.177-0.89-0.496c-1.126-1.828-2.477-2.894-4.018-3.17     c-2.533-0.459-4.812,1.301-4.837,1.319c-0.449,0.353-1.108,0.276-1.465-0.18s-0.276-1.113,0.18-1.468     c0.122-0.096,3.051-2.349,6.492-1.73c2.149,0.385,3.975,1.774,5.428,4.13c0.302,0.492,0.149,1.136-0.341,1.44     C257.117,329.783,256.927,329.833,256.739,329.833z"/>
		</g>
		<path style="fill:#241726;" d="M196.456,220.79c-0.275-0.504-0.908-0.696-1.418-0.418c-0.68,0.371-16.215,8.975-25.484,23.694    c-2.063-5.9-8.31-17.758-25.429-19.701c6.446-5.079,23.29-19.511,20.463-29.639c-0.155-0.556-0.731-0.889-1.288-0.726    c-0.555,0.155-0.88,0.732-0.724,1.287c2.78,9.968-18.071,26.199-21.577,28.843c-0.286-0.011-0.559-0.034-0.85-0.04    c0,0-4.014,21.57,0.258,29.872l-11.357,16.113c0.348-4.829,2.786-15.498,5.478-24.924c0.159-0.554-0.161-1.133-0.716-1.293    c-0.563-0.16-1.135,0.164-1.292,0.719c-0.245,0.856-0.57,2.016-0.933,3.347c-0.089-0.02-0.177-0.046-0.273-0.041    c-12.081,0.493-12.185,1.143-12.33,2.044c-0.024,0.156-0.1,0.958,0.902,1.334c1.686,0.632,7.261,4.242,9.267,5.581    c0.046,0.031,0.101,0.023,0.15,0.045c-1.686,7.187-3.061,14.828-1.84,16.761c0.349,0.551,0.812,0.733,1.141,0.787    c0.092,0.015,0.194,0.023,0.302,0.023c2.128-0.001,7.349-2.858,12.376-5.946c6.199,6.639,7.271,6.659,7.676,6.659    c0.308,0,0.735-0.206,0.933-0.442c0.295-0.352,1.07-1.293-0.668-11.335c0.932-0.625,1.742-1.176,2.349-1.592    c0.475-0.327,0.596-0.978,0.269-1.454c-0.324-0.477-0.973-0.594-1.453-0.272c-2.99,2.052-6.178,4.134-9.169,5.992    c-0.198,0.03-0.392,0.099-0.551,0.245c-0.056,0.052-0.087,0.118-0.129,0.178c-4.446,2.739-8.35,4.903-10.373,5.622l11.523-16.347    c0.762,0.764,1.677,1.262,2.793,1.38c10.291,1.084,25.998-9.755,25.998-9.755s-0.042-0.242-0.139-0.66    c0.008-0.013,0.023-0.017,0.031-0.031c8.804-15.18,25.499-24.402,25.666-24.494C196.543,221.933,196.731,221.298,196.456,220.79z     M123.026,250.528c2.096-0.215,5.178-0.416,8.005-0.537c-0.392,1.479-0.807,3.093-1.221,4.781    C128.558,253.945,125.442,251.91,123.026,250.528z M148.251,272.458c-1.21-1.023-3.255-3.055-5.159-5.07    c1.498-0.943,2.929-1.871,4.226-2.725C147.802,267.628,148.199,270.78,148.251,272.458z"/>
		<path style="fill:#241726;" d="M131.872,190.18c1.076-0.43-4.673-12.123-7.087-16.922c-3.998,3.092-7.564,6.634-10.72,10.388    C117.628,186.327,130.736,190.635,131.872,190.18z"/>
		<path style="fill:#241726;" d="M124.315,204.22c5.145-1.626-13.54-15.716-13.54-15.716c-0.777,0.888-2.191,2.69-3.626,4.634    c-1.587,2.519-3.012,5.042-4.269,7.509C104.801,202.628,119.581,205.715,124.315,204.22z"/>
		<path style="fill:#241726;" d="M191.656,408.076c-7.553-7.018-4.229-20.729-2.064-27.216c-0.381,0.01-0.759,0.012-1.141,0.026    c-74.39,2.567-111.585,88.549-24.369,55.183c13.183-5.043,26.718-7.171,40.449-7.482    C203.9,426.418,200.619,416.404,191.656,408.076z"/>
		<path style="fill:#241726;" d="M291.674,177.936c2.488-1.992-10.563-56.112-12.698-64.883    c-13.362,6.551-24.265,15.466-32.771,24.27C254.862,145.913,289.308,179.83,291.674,177.936z"/>
		<path style="fill:#241726;" d="M321.146,173.609c5.642,2.352,24.68-52.486,29.61-67.008c-20.413-5.156-38.278-4.459-53.663-0.355    C300.809,119.613,315.49,171.251,321.146,173.609z"/>
		<path style="fill:#241726;" d="M265.677,181.187c4.184,0-20.487-27.062-27.562-34.731c-10.1,12.431-15.035,22.68-15.035,22.68    s-0.634,1.016-1.811,2.808c-0.002,0.009-0.005,0.03-0.005,0.03S260.802,181.187,265.677,181.187z"/>
		<path style="fill:#241726;" d="M355.5,197.67c6.231,0.69,50.944-43.252,60.915-56.324c-10.404-9.09-22.252-17.035-35.578-23.543    c-2.37-1.158-4.703-2.213-7.017-3.222C368.58,129.564,345.707,196.585,355.5,197.67z"/>
		<path style="fill:#241726;" d="M382.89,233.564c8.223,3.872,67.808-10.403,81.625-17.748    c-5.476-17.205-13.477-33.474-24.075-48.114C427.307,179.984,374.824,229.766,382.89,233.564z"/>
		<path style="fill:#241726;" d="M389.165,270.606c2.641,4.419,66.163,24.951,82.96,27.565c1.8-15.878,1.781-31.835-0.085-47.439    C456.896,252.957,385.146,263.883,389.165,270.606z"/>
		<path style="fill:#241726;" d="M388.082,319.38c1.283,5.009,53.422,36.989,66.493,42.497    c6.702-14.795,11.647-30.269,14.791-45.993C459.137,315.382,386.207,312.057,388.082,319.38z"/>
		<path style="fill:#241726;" d="M86.156,275.545c-6.169,1.525-12.113,3.494-17.8,5.803c5.601,5.289,18.644,18.081,21.295,18.523    C92.358,300.322,87.767,281.765,86.156,275.545z"/>
		<path style="fill:#241726;" d="M163.273,185.058c1.871-0.936,17.873-12.378,20.806-17.227c-9.266-3.519-15.296-5.648-16.933-6.22    C165.615,168.042,161.493,185.948,163.273,185.058z"/>
		<path style="fill:#241726;" d="M185.422,202.342c3.341-1.433,21.813-18.848,25.045-24.081c-8.149-3.343-15.44-6.222-21.658-8.619    C187.294,177.179,182.166,203.738,185.422,202.342z"/>
		<path style="fill:#241726;" d="M59.508,285.292c-5.893,2.88-11.446,6.086-16.601,9.488c2.533,2.215,18.516,16.059,23.996,17.554    C71.735,313.653,62.989,293.11,59.508,285.292z"/>
		<path style="fill:#241726;" d="M135.477,330.081c-0.423,4.232,4.829,21.88,8.372,29.001c7.336-3.028,14.258-5.924,20.44-8.502    c-0.015-0.075,0.002-0.152-0.021-0.227C164.267,350.352,136.091,323.932,135.477,330.081z"/>
		<path style="fill:#241726;" d="M114.024,339.431c-1.626,0.813,0.912,20.831,2.279,30.767c6.767-2.651,13.527-5.373,20.068-8.046    C131.117,356.051,115.815,338.535,114.024,339.431z"/>
		<path style="fill:#241726;" d="M422.204,411.508c0.118,0.039,0.367-0.024,0.702-0.161c1.377-1.543,2.748-3.128,4.105-4.795    c5.454-6.702,10.427-13.725,14.934-20.993c-6.845-4.635-29.562-19.794-34.364-20.115    C405.871,365.33,420.579,410.966,422.204,411.508z"/>
		<path style="fill:#241726;" d="M381.583,396.876c0,3.769,2.864,34.145,3.613,42.023c8.766-3.637,17.287-8.732,25.51-15.653    C405.639,417.949,381.583,392.997,381.583,396.876z"/>
		<path style="fill:#241726;" d="M351.252,412.592c-1.771,0.886-3.217,25.213-3.685,34.063c9.001-0.321,17.843-1.522,26.482-3.916    C370.872,437.964,353.223,411.606,351.252,412.592z"/>
		<path style="fill:#241726;" d="M316.589,414.76c-3.058,2.185-8.579,21.283-10.602,28.594c7.275,1.188,14.5,2.152,21.651,2.747    C325.446,436.512,319.627,412.588,316.589,414.76z"/>
		<path style="fill:#241726;" d="M281.827,408.767c-2.523,2.524-11.89,19.45-15.955,26.898c7.143,1.407,14.278,2.879,21.385,4.275    C286.665,431.775,284.566,406.026,281.827,408.767z"/>
		<path style="fill:#241726;" d="M241.304,399.586c-3.609,2.809-10.49,20.811-13.821,29.973c8.266,0.825,16.572,2.089,24.884,3.563    C251.561,424.347,245.43,396.375,241.304,399.586z"/>
	</g>
	<path style="fill:#241726;" d="M246.25,70.197c-0.239,0-0.48-0.082-0.675-0.248c-1.108-0.94-2.12-2.023-3.012-3.216   c-0.345-0.463-0.251-1.118,0.21-1.463c0.459-0.348,1.118-0.252,1.463,0.211c0.798,1.068,1.704,2.035,2.69,2.873   c0.441,0.374,0.494,1.034,0.12,1.474C246.84,70.071,246.546,70.197,246.25,70.197z M296.322,68.793   c-0.563,0-1.026-0.447-1.045-1.014c-0.016-0.577,0.437-1.059,1.012-1.077c0.245-0.007,0.522-0.075,0.827-0.2   c0.665-0.278,1.282-0.783,1.835-1.502c0.351-0.457,1.01-0.543,1.465-0.191c0.457,0.352,0.543,1.009,0.192,1.467   c-0.778,1.01-1.682,1.736-2.69,2.156c-0.541,0.224-1.065,0.345-1.563,0.36C296.342,68.793,296.332,68.793,296.322,68.793z    M293.477,66.159c-0.437,0-0.843-0.275-0.99-0.711c-0.406-1.202-0.633-2.693-0.671-4.433c-0.012-0.577,0.445-1.056,1.02-1.069   c0.586,0.055,1.057,0.445,1.069,1.022c0.035,1.506,0.229,2.824,0.561,3.81c0.186,0.547-0.108,1.14-0.655,1.325   C293.701,66.141,293.587,66.159,293.477,66.159z M241.266,63.564c-0.394,0-0.771-0.224-0.947-0.604   c-0.606-1.305-1.096-2.693-1.453-4.128c-0.139-0.561,0.202-1.128,0.761-1.268c0.561-0.138,1.126,0.202,1.267,0.762   c0.324,1.306,0.769,2.569,1.318,3.752c0.243,0.524,0.016,1.146-0.506,1.39C241.564,63.532,241.415,63.564,241.266,63.564z    M301.601,62.945c-0.1,0-0.204-0.014-0.306-0.046c-0.551-0.169-0.861-0.753-0.694-1.306c0.361-1.174,0.614-2.486,0.757-3.897   c0.057-0.577,0.614-0.986,1.143-0.936c0.575,0.058,0.994,0.571,0.935,1.145c-0.155,1.549-0.437,2.996-0.835,4.301   C302.462,62.656,302.048,62.945,301.601,62.945z M356.328,61.819c-0.239,0-0.488-0.02-0.749-0.06   c-1.141-0.179-2.153-0.645-3.014-1.387c-0.437-0.377-0.486-1.037-0.11-1.474c0.378-0.437,1.041-0.483,1.473-0.11   c0.561,0.484,1.224,0.789,1.971,0.906c0.351,0.056,0.671,0.048,0.931-0.031c0.557-0.157,1.135,0.159,1.296,0.714   c0.159,0.554-0.159,1.134-0.712,1.296C357.073,61.769,356.707,61.819,356.328,61.819z M359.242,58.397   c-0.043,0-0.086-0.002-0.129-0.008c-0.573-0.069-0.98-0.59-0.91-1.164c0.041-0.346,0.061-0.718,0.061-1.11   c0-0.821-0.088-1.747-0.261-2.75c-0.1-0.569,0.282-1.11,0.851-1.209c0.559-0.101,1.108,0.283,1.206,0.851   c0.196,1.121,0.294,2.168,0.294,3.108c0,0.482-0.024,0.937-0.078,1.363C360.213,58.008,359.762,58.397,359.242,58.397z    M293.097,57.862c-0.043,0-0.086-0.002-0.131-0.008c-0.571-0.07-0.98-0.592-0.908-1.165c0.167-1.364,0.422-2.786,0.755-4.226   c0.131-0.562,0.692-0.909,1.255-0.783c0.561,0.131,0.912,0.692,0.782,1.255c-0.318,1.369-0.559,2.718-0.718,4.009   C294.067,57.475,293.616,57.862,293.097,57.862z M351.161,57.071c-0.457,0-0.875-0.301-1.006-0.763   c-0.337-1.2-0.508-2.548-0.508-4.007l0.006-0.447c0.016-0.577,0.553-0.989,1.075-1.015c0.578,0.017,1.031,0.499,1.014,1.076   l-0.006,0.386c0,1.268,0.145,2.426,0.431,3.442c0.155,0.555-0.167,1.133-0.722,1.289C351.348,57.059,351.254,57.071,351.161,57.071   z M401.542,55.871c-0.069,0-0.139-0.007-0.206-0.02c-0.567-0.113-0.933-0.665-0.82-1.23c0.004-0.016,0.316-1.614,0.39-3.987   c0.018-0.566,0.482-1.013,1.045-1.013c0.01,0,0.02,0,0.033,0c0.578,0.018,1.031,0.5,1.012,1.078   c-0.08,2.562-0.416,4.262-0.431,4.333C402.465,55.528,402.03,55.871,401.542,55.871z M239.246,55.496   c-0.549,0-1.008-0.427-1.043-0.981c-0.033-0.52-0.049-1.042-0.049-1.567c0-0.927,0.053-1.865,0.155-2.788   c0.063-0.574,0.592-0.994,1.155-0.923c0.573,0.064,0.986,0.582,0.922,1.156c-0.096,0.845-0.143,1.705-0.143,2.555   c0,0.482,0.016,0.962,0.045,1.439c0.035,0.577-0.402,1.072-0.98,1.108C239.289,55.495,239.266,55.496,239.246,55.496z    M302.513,54.669c-0.557,0-1.02-0.439-1.045-1.002c-0.055-1.319-0.198-2.676-0.422-4.032c-0.094-0.57,0.29-1.108,0.859-1.203   c0.551-0.104,1.106,0.289,1.202,0.86c0.239,1.441,0.39,2.882,0.451,4.287c0.022,0.577-0.424,1.064-1,1.088   C302.542,54.669,302.528,54.669,302.513,54.669z M357.997,50.18c-0.439,0-0.849-0.279-0.992-0.72   c-0.406-1.234-0.904-2.512-1.48-3.796c-0.237-0.526-0.002-1.145,0.524-1.381c0.522-0.237,1.145-0.003,1.382,0.526   c0.606,1.35,1.131,2.695,1.557,4c0.182,0.548-0.118,1.139-0.665,1.319C358.215,50.163,358.105,50.18,357.997,50.18z    M294.962,49.716c-0.108,0-0.218-0.016-0.327-0.052c-0.549-0.182-0.847-0.772-0.665-1.321c0.441-1.342,0.951-2.686,1.514-3.997   c0.227-0.533,0.841-0.775,1.371-0.548c0.531,0.228,0.775,0.842,0.547,1.373c-0.537,1.255-1.024,2.542-1.449,3.828   C295.809,49.437,295.401,49.716,294.962,49.716z M351.222,48.786c-0.076,0-0.153-0.008-0.229-0.026   c-0.563-0.127-0.918-0.686-0.792-1.25c0.312-1.385,0.751-2.781,1.302-4.149c0.218-0.536,0.827-0.792,1.361-0.577   c0.535,0.215,0.794,0.825,0.578,1.361c-0.51,1.262-0.914,2.549-1.2,3.825C352.132,48.456,351.701,48.786,351.222,48.786z    M401.808,47.529c-0.531,0-0.984-0.402-1.037-0.942c-0.139-1.375-0.371-2.707-0.696-3.958c-0.145-0.559,0.192-1.13,0.751-1.274   c0.565-0.152,1.129,0.192,1.273,0.749c0.349,1.356,0.602,2.794,0.749,4.277c0.057,0.574-0.361,1.086-0.935,1.143   C401.877,47.527,401.842,47.529,401.808,47.529z M240.164,47.227c-0.096,0-0.194-0.013-0.292-0.041   c-0.553-0.161-0.871-0.741-0.712-1.296c0.404-1.391,0.929-2.758,1.565-4.063c0.251-0.52,0.884-0.731,1.396-0.483   c0.518,0.253,0.735,0.878,0.482,1.398c-0.582,1.2-1.065,2.454-1.435,3.731C241.036,46.93,240.617,47.227,240.164,47.227z    M301.138,46.436c-0.451,0-0.867-0.295-1.002-0.749c-0.382-1.297-0.843-2.569-1.367-3.781c-0.302,0.167-0.682,0.181-1.004,0.006   c-0.508-0.274-0.698-0.908-0.424-1.416c0.351-0.648,0.716-1.289,1.094-1.917c-0.031,0.023-0.063,0.046-0.096,0.066   c-0.492,0.296-1.135,0.144-1.437-0.35c-0.704-1.163-1.49-2.266-2.331-3.277c-0.369-0.443-0.31-1.103,0.133-1.472   c0.447-0.368,1.104-0.308,1.471,0.135c0.908,1.091,1.755,2.279,2.514,3.528c0.139,0.231,0.18,0.494,0.133,0.74   c0.237-0.38,0.48-0.753,0.727-1.122c0.318-0.48,0.965-0.608,1.449-0.287c0.48,0.322,0.608,0.971,0.286,1.451   c-0.522,0.781-1.026,1.594-1.506,2.427c0.38,0.023,0.733,0.253,0.894,0.626c0.565,1.3,1.059,2.663,1.469,4.051   c0.163,0.554-0.153,1.135-0.706,1.299C301.336,46.423,301.236,46.436,301.138,46.436z M354.585,42.55   c-0.363,0-0.716-0.19-0.908-0.53c-0.673-1.187-1.404-2.353-2.173-3.465c-0.329-0.476-0.21-1.126,0.265-1.455   c0.471-0.328,1.124-0.21,1.453,0.264c0.267,0.387,0.531,0.779,0.788,1.177c0.59-0.911,1.231-1.787,1.914-2.616   c0.367-0.446,1.024-0.507,1.471-0.141c0.445,0.368,0.508,1.026,0.141,1.472c-0.843,1.022-1.618,2.124-2.304,3.275   c0.088,0.152,0.175,0.304,0.261,0.456c0.286,0.502,0.11,1.14-0.392,1.425C354.938,42.506,354.76,42.55,354.585,42.55z    M243.793,39.737c-0.21,0-0.42-0.062-0.604-0.193c-0.471-0.334-0.582-0.986-0.249-1.458c0.829-1.166,1.765-2.285,2.786-3.328   c0.408-0.409,1.069-0.42,1.477-0.014c0.412,0.404,0.42,1.066,0.016,1.478c-0.945,0.964-1.81,1.998-2.573,3.075   C244.442,39.584,244.119,39.737,243.793,39.737z M399.679,39.48c-0.392,0-0.767-0.222-0.945-0.599   c-0.573-1.218-1.265-2.349-2.053-3.363c-0.355-0.455-0.273-1.113,0.184-1.467c0.451-0.356,1.11-0.275,1.465,0.183   c0.884,1.135,1.655,2.399,2.294,3.755c0.247,0.523,0.022,1.146-0.5,1.392C399.981,39.448,399.828,39.48,399.679,39.48z    M349.832,35.678c-0.298,0-0.594-0.127-0.8-0.374c-0.888-1.057-1.818-2.062-2.769-2.988c-0.414-0.403-0.422-1.065-0.02-1.478   c0.404-0.413,1.069-0.422,1.478-0.02c1.002,0.975,1.982,2.033,2.912,3.144c0.371,0.442,0.314,1.102-0.129,1.472   C350.307,35.597,350.069,35.678,349.832,35.678z M302.911,35.102c-0.237,0-0.473-0.08-0.669-0.242   c-0.443-0.37-0.502-1.029-0.133-1.472c0.933-1.121,1.918-2.18,2.931-3.148c0.42-0.397,1.08-0.383,1.477,0.035   c0.4,0.418,0.384,1.079-0.033,1.478c-0.957,0.913-1.888,1.912-2.771,2.972C303.507,34.973,303.209,35.102,302.911,35.102z    M359.632,34.634c-0.29,0-0.578-0.119-0.784-0.354c-0.382-0.433-0.341-1.093,0.092-1.475c1.088-0.96,2.259-1.835,3.482-2.601   c0.494-0.304,1.135-0.158,1.441,0.331c0.306,0.489,0.159,1.134-0.331,1.442c-1.126,0.707-2.206,1.513-3.208,2.397   C360.124,34.549,359.877,34.634,359.632,34.634z M249.605,33.776c-0.314,0-0.627-0.142-0.831-0.412   c-0.351-0.459-0.261-1.115,0.198-1.465c1.116-0.85,2.328-1.65,3.6-2.376c0.5-0.285,1.139-0.112,1.426,0.391   c0.286,0.501,0.11,1.14-0.39,1.426c-1.194,0.68-2.326,1.427-3.371,2.223C250.048,33.706,249.825,33.776,249.605,33.776z    M394.581,32.952c-0.231,0-0.461-0.076-0.653-0.23c-1.002-0.802-2.12-1.511-3.326-2.107c-0.518-0.255-0.731-0.882-0.475-1.4   c0.255-0.518,0.888-0.729,1.398-0.475c1.343,0.662,2.592,1.453,3.71,2.35c0.451,0.361,0.522,1.019,0.161,1.469   C395.19,32.818,394.888,32.952,394.581,32.952z M292.456,32.408c-0.243,0-0.488-0.085-0.686-0.257   c-1.006-0.876-2.092-1.67-3.222-2.361c-0.494-0.3-0.649-0.943-0.349-1.437c0.298-0.493,0.945-0.649,1.435-0.348   c1.233,0.751,2.414,1.616,3.508,2.57c0.435,0.379,0.482,1.039,0.102,1.474C293.038,32.286,292.748,32.408,292.456,32.408z    M366.682,30.212c-0.408,0-0.796-0.24-0.963-0.64c-0.224-0.533,0.027-1.146,0.559-1.369c1.312-0.552,2.696-1.01,4.112-1.36   c0.559-0.142,1.126,0.204,1.265,0.764c0.139,0.561-0.204,1.127-0.763,1.266c-1.312,0.325-2.592,0.747-3.806,1.258   C366.956,30.185,366.817,30.212,366.682,30.212z M343.844,29.866c-0.224,0-0.451-0.071-0.641-0.22   c-1.082-0.84-2.206-1.606-3.341-2.279c-0.496-0.294-0.661-0.935-0.367-1.432c0.296-0.497,0.935-0.662,1.433-0.367   c1.21,0.717,2.406,1.532,3.557,2.426c0.455,0.354,0.539,1.011,0.184,1.467C344.465,29.727,344.155,29.866,343.844,29.866z    M256.835,29.628c-0.406,0-0.794-0.239-0.961-0.637c-0.227-0.532,0.022-1.146,0.553-1.371c1.282-0.543,2.635-1.036,4.024-1.464   c0.561-0.166,1.139,0.141,1.306,0.692c0.171,0.551-0.139,1.136-0.69,1.307c-1.322,0.406-2.608,0.874-3.824,1.391   C257.111,29.601,256.972,29.628,256.835,29.628z M308.956,29.35c-0.32,0-0.637-0.147-0.841-0.426   c-0.343-0.465-0.243-1.119,0.22-1.461c1.169-0.862,2.394-1.643,3.641-2.322c0.506-0.272,1.141-0.09,1.418,0.42   c0.276,0.507,0.088,1.141-0.418,1.418c-1.165,0.633-2.308,1.362-3.4,2.166C309.389,29.284,309.172,29.35,308.956,29.35z    M387.169,29.235c-0.094,0-0.192-0.013-0.288-0.04c-1.226-0.351-2.553-0.626-3.941-0.818c-0.571-0.079-0.971-0.606-0.892-1.178   c0.08-0.573,0.62-0.975,1.178-0.892c1.486,0.204,2.908,0.5,4.228,0.877c0.555,0.158,0.878,0.737,0.718,1.293   C388.043,28.935,387.625,29.235,387.169,29.235z M374.752,28.198c-0.531,0-0.984-0.402-1.037-0.942   c-0.057-0.575,0.361-1.086,0.935-1.143c1.398-0.14,2.839-0.186,4.302-0.15c0.578,0.015,1.033,0.495,1.018,1.072   c-0.014,0.577-0.508,1.063-1.071,1.019c-1.38-0.037-2.728,0.009-4.041,0.14C374.821,28.196,374.786,28.198,374.752,28.198z    M285.361,28.075c-0.129,0-0.261-0.023-0.388-0.075c-1.216-0.486-2.504-0.887-3.828-1.191c-0.561-0.13-0.912-0.69-0.784-1.253   c0.129-0.562,0.684-0.914,1.253-0.785c1.426,0.328,2.818,0.762,4.135,1.287c0.537,0.214,0.796,0.823,0.582,1.359   C286.167,27.827,285.775,28.075,285.361,28.075z M264.798,27.155c-0.484,0-0.916-0.338-1.02-0.83   c-0.118-0.565,0.243-1.12,0.808-1.238c1.361-0.287,2.773-0.528,4.196-0.716c0.561-0.081,1.098,0.326,1.173,0.899   c0.076,0.573-0.329,1.098-0.9,1.173c-1.369,0.182-2.728,0.413-4.041,0.689C264.943,27.148,264.87,27.155,264.798,27.155z    M277.257,26.199c-0.031,0-0.061-0.001-0.092-0.004c-1.29-0.109-2.63-0.142-4.049-0.099c-0.586,0.007-1.059-0.433-1.08-1.009   c-0.018-0.578,0.433-1.061,1.01-1.08c1.496-0.051,2.926-0.011,4.298,0.105c0.573,0.049,1,0.555,0.951,1.13   C278.249,25.788,277.794,26.199,277.257,26.199z M336.663,25.639c-0.135,0-0.269-0.026-0.402-0.08   c-1.249-0.521-2.531-0.943-3.81-1.259c-0.561-0.138-0.904-0.703-0.765-1.265c0.137-0.559,0.696-0.91,1.263-0.765   c1.384,0.34,2.767,0.796,4.116,1.357c0.533,0.223,0.784,0.834,0.563,1.367C337.461,25.397,337.071,25.639,336.663,25.639z    M316.276,25.379c-0.424,0-0.822-0.26-0.98-0.681c-0.2-0.542,0.076-1.143,0.616-1.345c1.339-0.498,2.735-0.905,4.147-1.208   c0.569-0.121,1.12,0.237,1.243,0.802c0.12,0.565-0.239,1.12-0.802,1.241c-1.316,0.283-2.614,0.661-3.861,1.124   C316.521,25.359,316.396,25.379,316.276,25.379z M328.588,23.654c-0.031,0-0.059-0.001-0.09-0.004   c-1.296-0.106-2.633-0.123-4.012-0.028c-0.616,0.023-1.075-0.395-1.116-0.971c-0.039-0.576,0.394-1.075,0.969-1.116   c1.484-0.102,2.933-0.089,4.335,0.032c0.576,0.048,1.002,0.553,0.953,1.129C329.582,23.242,329.125,23.654,328.588,23.654z"/>
	<path style="fill:#241726;" d="M243.709,492.229c-0.006,0-0.012,0-0.02,0c-0.549-0.01-1.11-0.034-1.684-0.068   c-0.871-0.054-1.729-0.125-2.573-0.213c-0.573-0.059-0.992-0.574-0.931-1.148c0.059-0.576,0.582-1.003,1.147-0.931   c0.816,0.085,1.645,0.153,2.486,0.205c0.543,0.033,1.075,0.054,1.596,0.064c0.575,0.011,1.035,0.488,1.024,1.066   C244.744,491.774,244.276,492.229,243.709,492.229z M247.868,492.064c-0.527,0-0.98-0.398-1.037-0.935   c-0.061-0.575,0.355-1.089,0.929-1.15c1.375-0.146,2.694-0.39,3.922-0.727c0.561-0.145,1.133,0.178,1.284,0.733   c0.153,0.556-0.176,1.131-0.733,1.284c-1.335,0.366-2.767,0.631-4.253,0.788C247.944,492.062,247.905,492.064,247.868,492.064z    M186.289,491.467c-0.843,0-1.682-0.023-2.512-0.07c-0.578-0.032-1.018-0.525-0.986-1.102c0.033-0.575,0.537-1.042,1.1-0.985   c0.812,0.045,1.624,0.099,2.451,0.066c0.541,0,1.075-0.015,1.606-0.047c0.561-0.029,1.069,0.405,1.104,0.981   c0.035,0.577-0.404,1.072-0.982,1.106C187.48,491.451,186.872,491.444,186.289,491.467z M235.403,491.369   c-0.061,0-0.124-0.005-0.188-0.016c-1.408-0.254-2.808-0.562-4.157-0.914c-0.559-0.146-0.894-0.718-0.747-1.276   c0.145-0.558,0.716-0.89,1.273-0.747c1.298,0.339,2.645,0.635,4.002,0.879c0.567,0.102,0.945,0.646,0.843,1.214   C236.338,491.015,235.899,491.369,235.403,491.369z M179.681,490.978c-0.051,0-0.102-0.003-0.153-0.011   c-1.398-0.204-2.81-0.477-4.196-0.81c-0.559-0.135-0.906-0.699-0.771-1.261c0.135-0.56,0.682-0.91,1.261-0.773   c1.322,0.319,2.671,0.579,4.008,0.775c0.571,0.084,0.967,0.615,0.884,1.185C180.636,490.604,180.191,490.978,179.681,490.978z    M192.146,490.867c-0.484,0-0.92-0.34-1.02-0.834c-0.118-0.566,0.247-1.119,0.812-1.235c1.292-0.266,2.6-0.631,3.89-1.082   c0.545-0.193,1.139,0.097,1.331,0.64c0.192,0.545-0.096,1.141-0.641,1.332c-1.375,0.483-2.775,0.873-4.159,1.158   C192.286,490.859,192.217,490.867,192.146,490.867z M255.845,489.836c-0.384,0-0.753-0.212-0.937-0.58   c-0.255-0.518-0.045-1.145,0.471-1.402c1.178-0.585,2.296-1.297,3.324-2.113c0.451-0.353,1.108-0.284,1.467,0.168   c0.359,0.452,0.284,1.11-0.169,1.469c-1.141,0.908-2.384,1.698-3.692,2.348C256.162,489.802,256.003,489.836,255.845,489.836z    M227.328,489.252c-0.114,0-0.233-0.018-0.347-0.059c-1.355-0.477-2.688-1.012-3.963-1.591c-0.524-0.238-0.757-0.858-0.518-1.383   c0.239-0.527,0.859-0.757,1.384-0.52c1.218,0.552,2.494,1.065,3.792,1.521c0.545,0.192,0.831,0.788,0.639,1.333   C228.163,488.984,227.759,489.252,227.328,489.252z M171.561,489.031c-0.11,0-0.222-0.017-0.335-0.055   c-1.351-0.456-2.692-0.977-3.984-1.547c-0.527-0.234-0.767-0.85-0.533-1.378c0.233-0.528,0.847-0.767,1.378-0.535   c1.233,0.545,2.514,1.042,3.808,1.479c0.547,0.185,0.841,0.777,0.655,1.324C172.403,488.756,171.997,489.031,171.561,489.031z    M200.023,488.125c-0.386,0-0.755-0.214-0.937-0.583c-0.255-0.519-0.043-1.146,0.475-1.401c1.188-0.586,2.382-1.258,3.543-1.997   c0.484-0.309,1.135-0.167,1.443,0.322c0.31,0.487,0.165,1.133-0.32,1.443c-1.226,0.78-2.486,1.49-3.743,2.109   C200.337,488.09,200.178,488.125,200.023,488.125z M219.73,485.795c-0.175,0-0.355-0.044-0.518-0.138   c-1.249-0.714-2.465-1.49-3.61-2.308c-0.469-0.335-0.578-0.988-0.243-1.458c0.335-0.472,0.988-0.578,1.459-0.243   c1.086,0.777,2.241,1.515,3.43,2.194c0.5,0.286,0.675,0.924,0.39,1.425C220.445,485.605,220.092,485.795,219.73,485.795z    M163.922,485.652c-0.173,0-0.349-0.043-0.51-0.133c-1.263-0.707-2.484-1.472-3.63-2.276c-0.471-0.332-0.588-0.984-0.255-1.457   c0.331-0.474,0.982-0.585,1.455-0.256c1.088,0.764,2.249,1.492,3.451,2.163c0.504,0.282,0.684,0.919,0.402,1.423   C164.643,485.459,164.287,485.652,163.922,485.652z M134.529,485.383c-0.555,0-1.018-0.437-1.043-0.997   c-0.027-0.577,0.418-1.066,0.994-1.092c1.322-0.061,2.661-0.229,3.979-0.499c0.557-0.112,1.118,0.247,1.235,0.814   c0.114,0.567-0.249,1.119-0.814,1.234c-1.426,0.292-2.873,0.474-4.302,0.54C134.562,485.383,134.546,485.383,134.529,485.383z    M130.36,485.246c-0.039,0-0.078-0.002-0.118-0.006l-0.451-0.054c-1.316-0.167-2.567-0.369-3.759-0.597   c-0.565-0.109-0.937-0.658-0.829-1.225c0.108-0.57,0.665-0.935,1.224-0.829c1.151,0.223,2.357,0.416,3.626,0.577l0.42,0.05   c0.573,0.064,0.986,0.581,0.922,1.155C131.338,484.851,130.884,485.246,130.36,485.246z M262.347,484.707   c-0.241,0-0.484-0.083-0.68-0.252c-0.439-0.376-0.49-1.035-0.114-1.474c0.824-0.962,1.62-2.054,2.365-3.246   c0.306-0.491,0.955-0.635,1.439-0.334c0.49,0.306,0.639,0.952,0.333,1.441c-0.798,1.281-1.657,2.458-2.549,3.501   C262.933,484.583,262.641,484.707,262.347,484.707z M142.684,483.721c-0.427,0-0.826-0.262-0.982-0.687   c-0.198-0.542,0.082-1.142,0.622-1.341c1.235-0.451,2.477-1.004,3.69-1.641c0.508-0.262,1.143-0.075,1.41,0.44   c0.269,0.512,0.071,1.143-0.439,1.412c-1.294,0.68-2.622,1.27-3.943,1.753C142.925,483.7,142.802,483.721,142.684,483.721z    M122.168,483.653c-0.092,0-0.188-0.012-0.282-0.039c-1.408-0.393-2.775-0.849-4.061-1.356c-0.537-0.211-0.8-0.819-0.588-1.356   c0.21-0.538,0.816-0.796,1.355-0.59c1.218,0.481,2.516,0.914,3.857,1.288c0.555,0.155,0.88,0.732,0.724,1.287   C123.046,483.351,122.626,483.653,122.168,483.653z M207.072,483.65c-0.308,0-0.616-0.137-0.822-0.399   c-0.355-0.454-0.278-1.112,0.178-1.468c1.055-0.831,2.094-1.731,3.086-2.673c0.235-0.225,0.537-0.321,0.841-0.281   c-0.39-0.407-0.765-0.821-1.126-1.237c-0.376-0.437-0.329-1.098,0.108-1.474c0.435-0.375,1.094-0.331,1.475,0.108   c0.853,0.991,1.808,1.961,2.835,2.884c0.431,0.386,0.465,1.048,0.08,1.476c-0.386,0.432-1.045,0.464-1.475,0.08   c-0.333-0.3-0.659-0.604-0.978-0.913c0.035,0.313-0.073,0.638-0.318,0.872c-1.041,0.988-2.129,1.931-3.237,2.802   C207.527,483.578,207.298,483.65,207.072,483.65z M157.098,480.848c-0.247,0-0.494-0.087-0.694-0.263   c-1.098-0.975-2.104-1.993-2.996-3.026c-0.892,0.75-1.812,1.456-2.745,2.103c-0.471,0.33-1.124,0.214-1.455-0.262   c-0.329-0.474-0.21-1.125,0.263-1.455c1.092-0.759,2.167-1.601,3.198-2.504c0.433-0.379,1.094-0.34,1.473,0.097   c0.069,0.08,0.124,0.167,0.167,0.258c0.241,0.035,0.471,0.154,0.645,0.354c0.837,0.978,1.792,1.944,2.837,2.871   c0.431,0.384,0.471,1.044,0.088,1.476C157.673,480.729,157.386,480.848,157.098,480.848z M114.426,480.572   c-0.169,0-0.341-0.041-0.5-0.128c-1.302-0.71-2.524-1.499-3.639-2.345c-0.459-0.349-0.549-1.005-0.2-1.465   c0.351-0.46,1.006-0.549,1.465-0.199c1.029,0.783,2.165,1.514,3.373,2.174c0.506,0.277,0.694,0.912,0.418,1.418   C115.154,480.375,114.795,480.572,114.426,480.572z M213.131,477.899c-0.245,0-0.492-0.086-0.69-0.26   c-0.433-0.381-0.475-1.041-0.096-1.475c0.908-1.033,1.765-2.106,2.553-3.191c0.339-0.469,0.994-0.569,1.459-0.232   c0.467,0.34,0.569,0.993,0.231,1.461c-0.824,1.135-1.722,2.259-2.671,3.342C213.71,477.779,213.42,477.899,213.131,477.899z    M266.825,477.669c-0.155,0-0.312-0.034-0.459-0.106c-0.518-0.254-0.733-0.88-0.48-1.399c0.608-1.243,1.163-2.505,1.692-3.763   c0.222-0.533,0.835-0.781,1.369-0.558c0.531,0.225,0.782,0.837,0.557,1.369c-0.545,1.295-1.116,2.594-1.741,3.872   C267.582,477.454,267.21,477.669,266.825,477.669z M107.832,475.51c-0.282,0-0.563-0.113-0.769-0.338   c-1.002-1.09-1.888-2.27-2.631-3.504c-0.298-0.494-0.141-1.137,0.353-1.435c0.494-0.295,1.137-0.142,1.435,0.355   c0.673,1.115,1.473,2.182,2.382,3.169c0.39,0.426,0.363,1.086-0.063,1.477C108.338,475.419,108.085,475.51,107.832,475.51z    M207.531,474.599c-0.347,0-0.688-0.174-0.886-0.491c-0.81-1.295-1.473-2.61-1.969-3.908c-0.206-0.539,0.063-1.143,0.602-1.35   c0.535-0.206,1.143,0.062,1.349,0.602c0.449,1.172,1.051,2.366,1.79,3.547c0.306,0.489,0.157,1.134-0.331,1.441   C207.912,474.548,207.721,474.599,207.531,474.599z M151.721,474.488c-0.357,0-0.706-0.185-0.902-0.517   c-0.796-1.358-1.39-2.726-1.769-4.066c-0.157-0.555,0.167-1.133,0.722-1.289c0.553-0.161,1.133,0.167,1.29,0.722   c0.329,1.169,0.855,2.372,1.561,3.576c0.292,0.498,0.124,1.138-0.373,1.43C152.084,474.442,151.9,474.488,151.721,474.488z    M156.349,474.35c-0.253,0-0.506-0.092-0.708-0.277c-0.424-0.391-0.451-1.053-0.061-1.477c0.924-1.003,1.796-2.059,2.592-3.137   c0.341-0.464,1.002-0.561,1.461-0.221c0.465,0.343,0.563,0.997,0.22,1.462c-0.841,1.139-1.761,2.254-2.735,3.313   C156.912,474.237,156.631,474.35,156.349,474.35z M218.026,471.129c-0.18,0-0.359-0.045-0.524-0.141   c-0.498-0.29-0.669-0.929-0.38-1.428c0.712-1.229,1.32-2.447,1.806-3.618c0.222-0.535,0.831-0.782,1.367-0.565   c0.533,0.223,0.784,0.834,0.563,1.367c-0.522,1.256-1.171,2.555-1.929,3.863C218.737,470.942,218.386,471.129,218.026,471.129z    M304.025,470.117c-0.422,0-0.82-0.258-0.978-0.677c-0.443-1.176-1.075-2.312-1.882-3.379c-0.347-0.46-0.255-1.116,0.204-1.464   c0.461-0.347,1.116-0.257,1.465,0.204c0.924,1.226,1.655,2.539,2.167,3.902c0.204,0.54-0.069,1.143-0.608,1.347   C304.272,470.096,304.148,470.117,304.025,470.117z M270.11,469.971c-0.131,0-0.261-0.025-0.39-0.076   c-0.535-0.215-0.796-0.824-0.58-1.36c0.541-1.349,1.075-2.66,1.631-3.899c0.237-0.528,0.855-0.764,1.38-0.528   c0.527,0.236,0.763,0.855,0.527,1.381c-0.543,1.217-1.065,2.503-1.598,3.826C270.916,469.723,270.525,469.971,270.11,469.971z    M103.569,468.387c-0.437,0-0.843-0.276-0.99-0.712c-0.859-2.555-0.869-4.361-0.869-4.436c0-0.576,0.465-1.042,1.041-1.043   c0.002,0,0.004,0,0.004,0c0.573,0,1.041,0.466,1.045,1.04c0,0.015,0.018,1.566,0.759,3.771c0.184,0.547-0.11,1.14-0.657,1.325   C103.792,468.37,103.679,468.387,103.569,468.387z M161.29,467.617c-0.173,0-0.351-0.043-0.512-0.134   c-0.502-0.284-0.682-0.921-0.398-1.424c0.708-1.261,1.273-2.483,1.677-3.63c0.194-0.545,0.79-0.824,1.335-0.638   c0.543,0.193,0.829,0.79,0.637,1.334c-0.445,1.26-1.061,2.592-1.829,3.958C162.008,467.425,161.655,467.617,161.29,467.617z    M204.668,466.823c-0.531,0-0.986-0.405-1.039-0.946c-0.039-0.42-0.059-0.833-0.059-1.24c0-1.158,0.161-2.269,0.48-3.301   c0.167-0.554,0.757-0.865,1.306-0.692c0.551,0.171,0.861,0.755,0.69,1.307c-0.255,0.833-0.386,1.737-0.386,2.686   c0,0.342,0.016,0.69,0.051,1.042c0.055,0.575-0.367,1.085-0.941,1.139C204.735,466.822,204.702,466.823,204.668,466.823z    M149.647,466.535c-0.037,0-0.071-0.002-0.106-0.005c-0.575-0.058-0.994-0.571-0.935-1.146c0.157-1.562,0.659-3.032,1.49-4.369   c0.308-0.493,0.951-0.636,1.441-0.335c0.49,0.305,0.639,0.95,0.335,1.44c-0.663,1.064-1.061,2.232-1.188,3.474   C150.631,466.134,150.176,466.535,149.647,466.535z M299.113,463.471c-0.237,0-0.473-0.079-0.667-0.241   c-0.973-0.809-2.077-1.57-3.288-2.265c-0.5-0.287-0.673-0.926-0.386-1.427c0.288-0.503,0.931-0.673,1.426-0.386   c1.312,0.753,2.518,1.585,3.582,2.469c0.445,0.37,0.506,1.028,0.137,1.472C299.711,463.342,299.413,463.471,299.113,463.471z    M221.151,463.405c-0.069,0-0.139-0.006-0.206-0.02c-0.567-0.113-0.935-0.664-0.82-1.23c0.159-0.793,0.239-1.54,0.239-2.219   c0-0.543-0.051-1.046-0.153-1.496c-0.129-0.564,0.224-1.123,0.788-1.252c0.565-0.128,1.122,0.226,1.249,0.788   c0.137,0.601,0.206,1.261,0.206,1.959c0,0.817-0.094,1.701-0.28,2.629C222.073,463.062,221.638,463.405,221.151,463.405z    M273.633,462.389c-0.186,0-0.373-0.049-0.543-0.152c-0.494-0.3-0.649-0.943-0.351-1.436c0.878-1.443,1.786-2.582,2.777-3.484   c0.427-0.385,1.09-0.357,1.475,0.07c0.388,0.428,0.357,1.088-0.071,1.477c-0.841,0.765-1.624,1.753-2.394,3.022   C274.329,462.21,273.984,462.389,273.633,462.389z M163.81,459.734c-0.557,0-1.02-0.44-1.045-1.002   c-0.076-1.822-1.057-1.976-1.429-2.033c-0.569-0.089-0.959-0.624-0.871-1.194c0.088-0.573,0.633-0.958,1.194-0.873   c1.937,0.302,3.102,1.764,3.196,4.011c0.022,0.578-0.424,1.065-1.002,1.088C163.838,459.734,163.824,459.734,163.81,459.734z    M153.827,459.581c-0.316,0-0.629-0.144-0.835-0.417c-0.347-0.461-0.255-1.117,0.206-1.464c0.804-0.605,1.72-1.167,2.724-1.669   c0.39-0.194,0.761-0.367,1.118-0.519c0.527-0.232,1.145,0.019,1.371,0.549c0.227,0.531-0.02,1.146-0.551,1.372   c-0.32,0.138-0.655,0.294-1.006,0.469c-0.89,0.445-1.698,0.939-2.4,1.468C154.267,459.513,154.047,459.581,153.827,459.581z    M291.926,459.278c-0.133,0-0.267-0.026-0.398-0.079c-1.194-0.492-2.486-0.949-3.841-1.36c-0.553-0.166-0.865-0.75-0.698-1.303   c0.167-0.552,0.753-0.864,1.302-0.698c1.42,0.429,2.777,0.91,4.033,1.427c0.535,0.221,0.788,0.832,0.567,1.365   C292.726,459.034,292.336,459.278,291.926,459.278z M207.163,459.131c-0.263,0-0.527-0.099-0.731-0.298   c-0.412-0.403-0.42-1.066-0.016-1.478c1.014-1.038,2.29-1.891,3.788-2.535c0.527-0.223,1.145,0.016,1.371,0.548   c0.229,0.531-0.016,1.146-0.547,1.373c-1.247,0.535-2.296,1.233-3.118,2.076C207.706,459.026,207.435,459.131,207.163,459.131z    M279.804,457.132c-0.461,0-0.882-0.305-1.008-0.771c-0.151-0.556,0.178-1.131,0.733-1.283c1.367-0.373,2.855-0.458,4.539-0.243   c0.571,0.075,0.975,0.598,0.902,1.171c-0.076,0.572-0.582,0.962-1.171,0.904c-1.388-0.183-2.618-0.114-3.718,0.186   C279.987,457.121,279.894,457.132,279.804,457.132z M218.743,456.095c-0.141,0-0.284-0.029-0.42-0.089   c-0.89-0.39-2.08-0.492-3.547-0.293c-0.569,0.068-1.098-0.323-1.175-0.895c-0.08-0.572,0.322-1.099,0.894-1.177   c1.898-0.255,3.424-0.096,4.669,0.452c0.529,0.232,0.769,0.849,0.537,1.377C219.526,455.863,219.145,456.095,218.743,456.095z"/>
	<path style="fill:#FFFFFF;" d="M163.004,243.72c-0.371,0-0.733-0.2-0.92-0.551c-3.722-6.95-8.502-8.036-8.702-8.079   c-0.563-0.119-0.926-0.672-0.81-1.234c0.116-0.564,0.673-0.937,1.224-0.815c0.241,0.048,5.91,1.263,10.128,9.14   c0.273,0.509,0.082,1.142-0.427,1.416C163.341,243.68,163.171,243.72,163.004,243.72z"/>
</g>















</svg>
