<?xml version="1.0" encoding="UTF-8"?>
<!-- Generator: Adobe Illustrator 25.1.0, SVG Export Plug-In . SVG Version: 6.00 Build 0)  -->
<svg xmlns="http://www.w3.org/2000/svg" xmlns:xlink="http://www.w3.org/1999/xlink" version="1.1" id="Capa_1" x="0px" y="0px" viewBox="0 0 500 500" style="enable-background:new 0 0 500 500;" xml:space="preserve" width="512" height="512">
<g>
	<path style="fill:#251626;" d="M132.122,212.653c0.109,0,0.223-0.016,0.334-0.049l37.768-11.549   c0.601-0.185,0.94-0.822,0.757-1.425c-0.185-0.601-0.813-0.942-1.425-0.757l-36.693,11.221   c-10.406-34.263,37.154-65.106,37.641-65.416c0.448-0.287,0.639-0.849,0.459-1.35s-0.686-0.82-1.214-0.744l-42.606,5.31   c-0.811-17.498,6.029-31.601,20.342-41.934c11.001-7.943,22.536-10.557,22.649-10.582c0.519-0.116,0.891-0.572,0.895-1.105   s-0.359-0.996-0.878-1.118l-36.314-8.624c18.894-32.944,74.018-7.856,74.577-7.597c0.508,0.243,1.114,0.071,1.428-0.396   c0.312-0.466,0.241-1.089-0.169-1.472l-37.492-34.942c50.671-10.428,96.347,24.34,96.812,24.699   c0.41,0.316,0.987,0.321,1.401-0.004c0.41-0.321,0.55-0.882,0.339-1.359l-12.315-27.824   c68.042,10.248,79.715,100.895,79.827,101.819c0.073,0.628,0.648,1.087,1.267,0.996c0.626-0.074,1.071-0.641,0.996-1.267   c-0.114-0.951-12.215-95.126-83.818-104.089c-0.428-0.051-0.815,0.123-1.058,0.452c-0.245,0.33-0.294,0.764-0.127,1.14   l11.473,25.919c-11.851-7.989-52.914-32.481-97.422-22.244c-0.41,0.096-0.735,0.408-0.846,0.815   c-0.109,0.408,0.016,0.842,0.325,1.131l34.581,32.229c-15.313-5.684-56.903-17.703-72.506,12.23   c-0.163,0.312-0.172,0.682-0.027,1.002c0.147,0.319,0.432,0.555,0.775,0.635l33.53,7.963c-4.477,1.472-11.863,4.432-19.173,9.698   c-10.564,7.606-22.83,21.618-21.28,45.188c0.02,0.312,0.169,0.604,0.412,0.804c0.241,0.198,0.561,0.296,0.866,0.252l39.265-4.893   c-11.526,8.484-44.698,36.111-34.439,66.463C131.202,212.352,131.645,212.653,132.122,212.653z"/>
	<g>
		<path style="fill:#FFFFFF;" d="M426.099,168.173c0,0,49.433,19.528,72.76-5.862c0,0-10.082,69.212-72.352,45.139    C426.507,207.449,409.72,184.421,426.099,168.173z"/>
		<path style="fill:#251626;" d="M426.095,208.514c-0.203-0.08-0.381-0.216-0.51-0.392c-0.174-0.238-17.168-24.015-0.29-40.757    c0.321-0.316,0.8-0.414,1.223-0.252c0.18,0.071,18.173,7.092,37.234,7.092c15.017,0,26.545-4.261,34.267-12.664    c0.339-0.37,0.882-0.477,1.33-0.258c0.452,0.214,0.711,0.699,0.639,1.194c-0.076,0.512-7.943,51.192-49.105,51.199    c-0.002,0-0.004,0-0.007,0C443.292,213.675,434.955,211.938,426.095,208.514z M463.752,176.486    c-17.324,0-33.784-5.673-37.359-6.985c-6.054,6.339-7.787,14.422-5.15,24.039c1.806,6.588,5.172,11.76,5.998,12.97    c8.475,3.241,16.424,4.884,23.634,4.884c0.002,0,0.004,0,0.007,0c16.393-0.002,29.247-8.234,38.203-24.469    c4.564-8.27,6.9-16.629,7.94-21.213C488.976,172.864,477.804,176.486,463.752,176.486z"/>
	</g>
	<path style="fill:#D7998E;" d="M180.854,307.141c-6.81-5.243-20.043-199.118,82.855-228.943s104.222,72.82,170.166,61.1   c0,0,51.054,147.105-107.836,59.133c0,0-6.964,76.771,97.279,44.744c0,0-25.624,48.83-62.327,65.234   C342.828,316.527,311.942,408.067,180.854,307.141z"/>
	<path style="fill:#D7998E;" d="M246.266,92.882c0,0,11.276-60.32-39.467-63.166c0,0-24.301,57.75,30.841,73.968L246.266,92.882z"/>
	<path style="fill:#D7998E;" d="M324.498,89.176c0,0,38.454-55.847-7.863-76.77c0,0-43.463,45.129,2.143,80.111L324.498,89.176z"/>
	<path style="fill:#F9D9C8;" d="M424.228,222.981c0,0-19.59-87.051,2.868-87.613c22.459-0.561,23.582,24.396,23.582,24.396   s5.615-23.835,23.582-11.483S444.501,215.685,424.228,222.981z"/>
	<path style="fill:#251626;" d="M436.082,197.514c0.559,0,1.047-0.412,1.127-0.982c0.809-5.744,4.513-34.552-1.922-37.606   c-2.633-1.25-5.334,1.662-6.221,2.617c-0.428,0.463-0.399,1.185,0.062,1.613c0.463,0.43,1.185,0.401,1.613-0.062   c1.55-1.679,2.851-2.452,3.568-2.107c3.617,1.717,2.552,21.634,0.641,35.229c-0.087,0.624,0.347,1.201,0.971,1.287   C435.975,197.509,436.029,197.514,436.082,197.514z"/>
	<path style="fill:#251626;" d="M447.272,198.583c0.557,0,1.045-0.41,1.127-0.978c2.336-16.319,17.46-29.233,17.611-29.363   c0.481-0.405,0.543-1.125,0.136-1.606c-0.408-0.481-1.127-0.539-1.606-0.136c-0.65,0.546-15.941,13.611-18.4,30.779   c-0.089,0.624,0.345,1.203,0.967,1.292C447.163,198.578,447.217,198.583,447.272,198.583z"/>
	<path style="fill:#251626;" d="M230.582,93.657c0.503,0,0.964-0.336,1.103-0.846c0.163-0.608-0.198-1.232-0.809-1.397   c-9.54-2.552-10.061-26.414-9.381-37.27c15.46,7.39,14.141,30.935,14.126,31.18c-0.04,0.628,0.437,1.172,1.065,1.212   c0.557,0.065,1.169-0.432,1.212-1.065c0.071-1.094,1.528-26.888-17.01-34.071c-0.334-0.136-0.711-0.098-1.016,0.096   c-0.305,0.189-0.503,0.515-0.532,0.871c-0.129,1.53-2.976,37.523,10.949,41.252C230.386,93.643,230.486,93.657,230.582,93.657z"/>
	<path style="fill:#251626;" d="M312.556,73.631c0.098,0,0.198-0.013,0.298-0.04c0.608-0.165,0.967-0.791,0.802-1.399   c-0.071-0.267-6.887-26.062,4.693-36.149c2.599,5.009,11.925,24.841,2.875,35.719c-0.401,0.483-0.336,1.203,0.149,1.606   c0.477,0.399,1.198,0.336,1.606-0.149c11.375-13.671-2.679-38.437-3.283-39.486c-0.163-0.278-0.434-0.477-0.751-0.546   c-0.323-0.06-0.646,0.004-0.907,0.192c-14.275,10.348-6.905,38.227-6.584,39.41C311.594,73.297,312.053,73.631,312.556,73.631z"/>
	<path style="fill:#251626;" d="M342.335,139.434c0.376,0,0.849-0.109,1.321-0.499c2.889-2.381,3.47-16.128,3.579-20.284   c0.016-0.628-0.481-1.152-1.111-1.169c-0.621,0.045-1.152,0.481-1.169,1.111c-0.245,9.283-1.51,17.798-2.762,18.591   c-1.316-0.459-5.183-9.103-8.243-18.903c-0.189-0.599-0.822-0.94-1.43-0.748c-0.601,0.189-0.935,0.829-0.748,1.43   c1.858,5.942,6.571,19.834,10.237,20.444C342.106,139.423,342.215,139.434,342.335,139.434z"/>
	<path style="fill:#251626;" d="M314.948,139.434c0.376,0,0.849-0.109,1.321-0.499c2.889-2.381,3.47-16.128,3.579-20.284   c0.016-0.628-0.481-1.152-1.111-1.169c-0.695,0.045-1.152,0.481-1.169,1.111c-0.245,9.283-1.51,17.798-2.762,18.591   c-1.316-0.459-5.183-9.103-8.243-18.903c-0.189-0.599-0.822-0.94-1.43-0.748c-0.601,0.189-0.935,0.829-0.748,1.43   c1.858,5.942,6.571,19.834,10.237,20.444C314.719,139.423,314.828,139.434,314.948,139.434z"/>
	<circle style="fill:#D47F81;" cx="292.839" cy="154.739" r="12.633"/>
	<path style="fill:#D7998E;" d="M337.615,252.689c0,0,41.934,72.072,29.366,124.372S98.969,426.07,66.775,382.398   c-107.327-145.591,95.881-136.507,118.279-200.289C194.452,155.348,337.615,252.689,337.615,252.689z"/>
	<g>
		<path style="fill:#FFFFFF;" d="M328.045,182.816c0,0,52.583,7.747,69.509-22.292c0,0-5.194,70.534-71.312,61.286    C326.242,221.811,315.801,202.37,328.045,182.816z"/>
		<path style="fill:#251626;" d="M326.085,222.941c-0.361-0.051-0.675-0.27-0.846-0.59c-0.107-0.2-10.611-20.255,1.84-40.141    c0.243-0.385,0.69-0.577,1.134-0.523c0.06,0.009,6.121,0.886,14.625,0.886c15.306,0,42.64-2.936,53.725-22.607    c0.258-0.465,0.806-0.686,1.323-0.532c0.512,0.154,0.846,0.641,0.809,1.176c-0.047,0.63-5.297,63.178-60.926,63.178    C334.034,223.787,330.103,223.502,326.085,222.941z M342.836,184.854c-7.029,0-12.315-0.572-14.208-0.809    c-10.101,16.814-3.089,33.61-1.63,36.719c3.706,0.492,7.326,0.742,10.769,0.742c44.419,0,55.478-41.677,57.979-56.173    C382.839,182.199,357.487,184.854,342.836,184.854z"/>
	</g>
	<path style="fill:#D7998E;" d="M306.904,372.128c0,0-2.906,69.501-23.106,93.227l-30.816,1.225c0,0,9.319-76.826,0-103.086   L306.904,372.128z"/>
	<path style="fill:#D7998E;" d="M366.324,367.483c0,0,29.23,63.123,22.13,93.463l-26.838,15.195c0,0-26.881-72.57-47.186-91.652   L366.324,367.483z"/>
	<path style="fill:#D7998E;" d="M103.727,364.824c0,0-4.734,69.401-25.551,92.587l-30.838,0.414c0,0,11.337-76.554,2.712-103.05   L103.727,364.824z"/>
	<path style="fill:#D7998E;" d="M164.157,372.128c0,0-2.906,69.501-23.106,93.227l-30.816,1.225c0,0,9.319-76.826,0-103.086   L164.157,372.128z"/>
	<path style="fill:#251626;" d="M327.069,315.387c23.079,0,40.967-9.299,41.207-9.426c0.557-0.294,0.768-0.984,0.472-1.541   c-0.294-0.552-0.978-0.773-1.541-0.472c-0.314,0.165-31.915,16.564-64.937,5.096c-22.714-7.889-40.847-26.89-53.894-56.48   c-0.252-0.577-0.922-0.84-1.503-0.581c-0.575,0.254-0.837,0.927-0.581,1.503c13.317,30.2,31.908,49.62,55.255,57.721   C310.333,314.254,319.017,315.387,327.069,315.387z"/>
	<path style="fill:#251626;" d="M318.057,335.262c25.278,0,43.254-12.039,43.579-12.264c0.517-0.356,0.648-1.067,0.292-1.584   c-0.361-0.519-1.071-0.65-1.586-0.294c-0.579,0.399-58.284,38.949-112.136-25.264c-0.405-0.483-1.125-0.546-1.606-0.14   c-0.483,0.403-0.546,1.123-0.14,1.606C271.409,327.072,297.214,335.262,318.057,335.262z"/>
	<path style="fill:#251626;" d="M15.46,274.864c-1.196-3.085-2.532-10.82,8.883-19.012c-1.107-3.345-2.8-6.183-5.392-7.874   c-3.976-2.59-9.814-2.218-17.348,1.105c-0.581,0.256-1.25-0.007-1.503-0.581c-0.256-0.577,0.007-1.25,0.581-1.503   c8.288-3.655,14.854-3.971,19.516-0.931c2.916,1.9,4.833,4.933,6.094,8.464c0.223-0.143,0.45-0.285,0.679-0.428   c6.845-4.241,13.11-5.145,18.62-2.686c12.729,5.675,16.714,27.173,16.876,28.086c0.111,0.619-0.301,1.212-0.922,1.323   c-0.608,0.098-1.212-0.301-1.323-0.922c-0.038-0.212-3.936-21.226-15.564-26.407c-4.784-2.127-10.328-1.27-16.484,2.544   c-0.408,0.252-0.797,0.503-1.176,0.753c1.715,6.354,1.715,13.783,1.715,19.108c0,4.501-2.662,5.486-3.806,5.7   c-0.307,0.058-0.621,0.085-0.942,0.085C20.701,281.686,16.977,278.777,15.46,274.864z M17.587,274.04   c1.368,3.528,4.758,5.713,6.898,5.321c1.608-0.301,1.944-2.047,1.944-3.459c0-4.956,0-11.834-1.421-17.709   C15.596,265.255,16.609,271.518,17.587,274.04z"/>
	<path style="fill:#251626;" d="M274.819,485.464c0.212,0,0.425-0.038,0.637-0.118c3.365-1.263,9.7-18.901,12.268-26.427   c0.203-0.595-0.116-1.243-0.713-1.448c-0.584-0.196-1.243,0.116-1.448,0.713c-3.708,10.869-8.707,23.068-10.68,24.857   c-1.363-1.599-3.303-9.584-4.361-16.629c-0.073-0.49-0.454-0.875-0.942-0.956c-0.497-0.091-0.971,0.163-1.198,0.604   c-3.802,7.377-9.214,14.97-11.132,14.457c-1.653-0.412-1.902-10.816-0.523-21.823c0.078-0.626-0.365-1.196-0.989-1.274   c-0.617-0.087-1.196,0.361-1.274,0.989c-0.869,6.929-2.385,23.166,2.234,24.322c3.827,0.933,9.159-7.401,12.114-12.662   c0.949,5.346,2.795,13.789,5.185,15.175C274.251,485.391,274.531,485.464,274.819,485.464z"/>
	<path style="fill:#251626;" d="M373.584,487.594c0.804,0,1.528-0.345,2.087-0.996c2.241-2.599,1.724-10.707,1.203-15.395   c3.118,2.655,8.715,7.136,12.315,8.392c1.158,0.405,1.911-0.082,2.254-0.41c2.777-2.646-1.149-17.255-2.967-23.413   c-0.178-0.604-0.82-0.944-1.417-0.771c-0.604,0.178-0.949,0.813-0.771,1.417c3.022,10.241,4.662,19.912,3.579,21.119   c-4.595-1.724-13.653-9.938-13.742-10.021c-0.359-0.321-0.88-0.388-1.305-0.163c-0.425,0.227-0.662,0.699-0.59,1.176   c0.8,5.352,1.432,14.587-0.285,16.58c-0.176,0.203-0.292,0.203-0.361,0.203c-2.842,0-8.281-6.036-11.045-9.842   c-0.37-0.512-1.085-0.619-1.593-0.252c-0.51,0.37-0.621,1.082-0.252,1.593C361.494,477.914,368.66,487.594,373.584,487.594z"/>
	<path style="fill:#251626;" d="M133.823,483.453c2.664,0,7.032-8.241,12.987-24.509c0.216-0.592-0.087-1.247-0.679-1.463   c-0.595-0.218-1.247,0.091-1.463,0.679c-3.844,10.504-9.112,22.298-10.914,23.035c-1.1-0.421-3.878-7.678-5.742-15.54   c-0.107-0.454-0.483-0.797-0.944-0.866c-0.479-0.06-0.922,0.158-1.154,0.561c-3.782,6.584-9.159,13.62-11.317,13.62   c-0.016,0-0.033,0-0.049,0c-1.581-0.757-2.477-11.825-1.922-24.162c0.029-0.628-0.457-1.163-1.087-1.189   c-0.702-0.111-1.16,0.459-1.189,1.087c-0.445,9.814-0.503,26.309,4.083,26.541c3.802,0.223,9.139-7.669,12.032-12.364   c1.624,6.223,4.274,14.239,7.221,14.564C133.73,483.451,133.777,483.453,133.823,483.453z"/>
	<path style="fill:#251626;" d="M69.002,474.31c0.405,0,0.804-0.102,1.185-0.312c4.014-2.187,11.537-18.582,12.382-20.447   c0.261-0.572,0.007-1.247-0.568-1.508c-0.568-0.256-1.25-0.007-1.508,0.568c-3.069,6.764-8.878,18.012-11.397,19.384   c-2.216-0.891-4.96-9.09-6.274-14.627c-0.1-0.423-0.432-0.753-0.858-0.849c-0.414-0.105-0.866,0.053-1.138,0.394   c-4.824,5.976-11.243,12.199-13.288,11.856c-1.261-1.045-0.16-11.306,2.463-22.382c0.145-0.613-0.234-1.227-0.846-1.372   c-0.617-0.156-1.227,0.232-1.372,0.846c-0.797,3.361-4.644,20.317-2.143,24.117c0.474,0.722,1.078,0.962,1.501,1.036   c3.633,0.633,10.517-6.796,14.019-10.927c1.158,4.323,3.742,12.631,6.787,13.987C68.296,474.232,68.652,474.31,69.002,474.31z"/>
	<path style="fill:#251626;" d="M147.495,438.145c0.183,0,0.368-0.045,0.541-0.136c3.466-1.866,3.793-8.288,3.82-9.014   c0.022-0.628-0.47-1.156-1.098-1.178c-0.016-0.002-0.029-0.002-0.042-0.002c-0.61,0-1.116,0.483-1.14,1.098   c-0.056,1.503-0.657,6.029-2.622,7.087c-0.555,0.298-0.762,0.991-0.463,1.546C146.697,437.927,147.089,438.145,147.495,438.145z"/>
	<path style="fill:#251626;" d="M149.105,423.124c0.183,0,0.368-0.045,0.539-0.136c3.468-1.864,3.795-8.288,3.822-9.014   c0.022-0.628-0.47-1.156-1.098-1.178c-0.016-0.002-0.029-0.002-0.042-0.002c-0.61,0-1.116,0.483-1.14,1.098   c-0.056,1.503-0.657,6.032-2.619,7.087c-0.555,0.298-0.764,0.989-0.466,1.544C148.305,422.906,148.7,423.124,149.105,423.124z"/>
	<path style="fill:#251626;" d="M139.06,427.151c0.183,0,0.37-0.045,0.541-0.136c3.463-1.866,3.791-8.29,3.818-9.016   c0.022-0.628-0.47-1.156-1.098-1.178c-0.016-0.002-0.029-0.002-0.042-0.002c-0.61,0-1.116,0.483-1.14,1.098   c-0.056,1.503-0.657,6.034-2.619,7.09c-0.555,0.298-0.762,0.991-0.463,1.546C138.262,426.935,138.654,427.151,139.06,427.151z"/>
	<path style="fill:#251626;" d="M224.771,408.128c2.111,0,4-0.443,4.368-0.535c0.61-0.154,0.982-0.771,0.831-1.383   c-0.151-0.61-0.764-0.984-1.383-0.831c-1.461,0.363-5.976,1.038-7.535-0.559c-0.439-0.448-1.16-0.461-1.613-0.018   c-0.45,0.439-0.459,1.16-0.018,1.613C220.733,407.758,222.844,408.128,224.771,408.128z"/>
	<path style="fill:#251626;" d="M212.338,396.715c2.111,0,3.996-0.443,4.366-0.535c0.61-0.154,0.982-0.771,0.831-1.381   c-0.151-0.613-0.762-0.982-1.383-0.833c-1.461,0.365-5.976,1.038-7.535-0.559c-0.441-0.45-1.163-0.454-1.613-0.018   c-0.45,0.441-0.459,1.163-0.018,1.613C208.3,396.345,210.412,396.715,212.338,396.715z"/>
	<path style="fill:#251626;" d="M206.238,408.515c2.111,0,3.996-0.443,4.366-0.535c0.61-0.154,0.982-0.771,0.831-1.381   s-0.777-0.982-1.381-0.833c-1.463,0.363-5.978,1.038-7.537-0.559c-0.439-0.45-1.16-0.454-1.613-0.018   c-0.45,0.441-0.459,1.163-0.018,1.613C202.2,408.146,204.311,408.515,206.238,408.515z"/>
	<path style="fill:#251626;" d="M230.62,398.947c2.111,0,3.996-0.443,4.366-0.535c0.61-0.154,0.982-0.771,0.831-1.381   c-0.151-0.613-0.766-0.984-1.383-0.833c-1.457,0.363-5.976,1.038-7.535-0.559c-0.439-0.452-1.16-0.457-1.613-0.018   c-0.45,0.441-0.459,1.163-0.018,1.613C226.582,398.577,228.693,398.947,230.62,398.947z"/>
	<path style="fill:#251626;" d="M244.663,407.449c2.111,0,3.996-0.443,4.366-0.535c0.61-0.154,0.982-0.771,0.831-1.381   c-0.151-0.612-0.78-0.984-1.381-0.833c-1.463,0.365-5.978,1.038-7.537-0.559c-0.441-0.45-1.16-0.457-1.613-0.018   c-0.45,0.441-0.459,1.163-0.018,1.613C240.625,407.079,242.737,407.449,244.663,407.449z"/>
	<path style="fill:#251626;" d="M195.163,399.628c2.111,0,3.996-0.443,4.366-0.535c0.61-0.154,0.982-0.771,0.831-1.381   c-0.151-0.612-0.775-0.98-1.381-0.833c-1.466,0.363-5.978,1.038-7.537-0.559c-0.439-0.45-1.16-0.454-1.613-0.018   c-0.45,0.441-0.459,1.163-0.018,1.613C191.125,399.259,193.237,399.628,195.163,399.628z"/>
	<path style="fill:#251626;" d="M189.217,409.197c2.109,0,3.996-0.443,4.366-0.535c0.61-0.154,0.982-0.771,0.831-1.381   c-0.151-0.612-0.775-0.98-1.381-0.833c-1.463,0.363-5.978,1.036-7.537-0.559c-0.439-0.445-1.16-0.461-1.613-0.018   c-0.45,0.439-0.459,1.163-0.018,1.613C185.176,408.827,187.29,409.197,189.217,409.197z"/>
	<path style="fill:#251626;" d="M175.797,402.312c2.111,0,3.996-0.443,4.366-0.535c0.61-0.154,0.982-0.771,0.831-1.381   c-0.151-0.612-0.76-0.984-1.383-0.833c-1.459,0.363-5.974,1.036-7.535-0.559c-0.439-0.452-1.16-0.457-1.613-0.018   c-0.45,0.441-0.459,1.163-0.018,1.613C171.759,401.943,173.87,402.312,175.797,402.312z"/>
	<path style="fill:#251626;" d="M95.474,255.727c0.287,0,0.575-0.109,0.797-0.325c1.076-1.051,4.633-3.925,6.782-3.332   c0.61,0.167,1.236-0.196,1.401-0.8c0.165-0.608-0.194-1.236-0.8-1.401c-3.811-1.031-8.462,3.394-8.978,3.902   c-0.45,0.441-0.457,1.163-0.018,1.613C94.881,255.611,95.177,255.727,95.474,255.727z"/>
	<path style="fill:#251626;" d="M111.504,255.727c0.287,0,0.575-0.109,0.797-0.325c1.076-1.051,4.626-3.925,6.782-3.332   c0.613,0.167,1.236-0.196,1.401-0.8c0.165-0.608-0.194-1.236-0.8-1.401c-3.82-1.031-8.462,3.394-8.978,3.902   c-0.45,0.441-0.457,1.163-0.018,1.613C110.911,255.611,111.207,255.727,111.504,255.727z"/>
	<path style="fill:#251626;" d="M112.936,243.187c0.287,0,0.575-0.109,0.797-0.325c1.076-1.051,4.628-3.929,6.784-3.332   c0.613,0.167,1.234-0.194,1.399-0.802c0.165-0.608-0.194-1.234-0.802-1.399c-3.793-1.027-8.459,3.394-8.976,3.902   c-0.45,0.441-0.457,1.163-0.018,1.613C112.343,243.071,112.64,243.187,112.936,243.187z"/>
	<path style="fill:#251626;" d="M133.512,248.136c0.287,0,0.575-0.109,0.797-0.325c1.076-1.051,4.633-3.929,6.782-3.332   c0.617,0.165,1.236-0.196,1.401-0.8c0.165-0.608-0.194-1.236-0.8-1.401c-3.815-1.033-8.462,3.394-8.978,3.902   c-0.45,0.441-0.457,1.163-0.018,1.613C132.919,248.02,133.215,248.136,133.512,248.136z"/>
	<path style="fill:#251626;" d="M131.405,235.006c0.287,0,0.575-0.109,0.797-0.325c1.076-1.051,4.637-3.927,6.78-3.332   c0.615,0.167,1.236-0.196,1.401-0.8c0.165-0.608-0.194-1.236-0.8-1.401c-3.818-1.027-8.459,3.394-8.976,3.902   c-0.45,0.441-0.457,1.163-0.018,1.613C130.812,234.89,131.108,235.006,131.405,235.006z"/>
	<path style="fill:#251626;" d="M146.401,236.872c0.287,0,0.575-0.109,0.797-0.325c1.076-1.051,4.633-3.922,6.78-3.332   c0.61,0.167,1.236-0.196,1.401-0.8c0.165-0.608-0.194-1.236-0.8-1.401c-3.813-1.027-8.459,3.394-8.976,3.902   c-0.45,0.441-0.457,1.163-0.018,1.613C145.809,236.757,146.105,236.872,146.401,236.872z"/>
	<path style="fill:#251626;" d="M95.474,269.013c0.287,0,0.575-0.109,0.797-0.325c1.076-1.051,4.633-3.92,6.782-3.332   c0.61,0.165,1.236-0.196,1.401-0.8c0.165-0.608-0.194-1.236-0.8-1.401c-3.811-1.031-8.462,3.394-8.978,3.902   c-0.45,0.441-0.457,1.163-0.018,1.613C94.881,268.897,95.177,269.013,95.474,269.013z"/>
	<path style="fill:#251626;" d="M79.179,259.46c0.287,0,0.575-0.109,0.797-0.325c1.078-1.053,4.651-3.911,6.784-3.332   c0.613,0.165,1.234-0.196,1.399-0.802c0.165-0.608-0.194-1.234-0.802-1.399c-3.802-1.027-8.457,3.397-8.976,3.902   c-0.45,0.441-0.459,1.163-0.018,1.613C78.586,259.344,78.882,259.46,79.179,259.46z"/>
	<path style="fill:#251626;" d="M75.239,270.879c0.287,0,0.575-0.109,0.797-0.325c1.076-1.051,4.631-3.924,6.782-3.332   c0.61,0.165,1.236-0.196,1.401-0.8c0.165-0.608-0.194-1.236-0.8-1.401c-3.82-1.033-8.462,3.394-8.978,3.902   c-0.45,0.441-0.457,1.163-0.018,1.613C74.646,270.763,74.942,270.879,75.239,270.879z"/>
	<path style="fill:#251626;" d="M122.001,261.328c0.287,0,0.575-0.109,0.797-0.325c1.076-1.051,4.628-3.929,6.782-3.332   c0.613,0.169,1.234-0.194,1.401-0.8c0.165-0.608-0.194-1.236-0.8-1.401c-3.82-1.036-8.462,3.394-8.978,3.902   c-0.45,0.441-0.457,1.163-0.018,1.613C121.408,261.212,121.705,261.328,122.001,261.328z"/>
	<path style="fill:#251626;" d="M376.266,269.407c2.303,0,4.443-0.579,4.838-0.693c0.606-0.172,0.956-0.804,0.782-1.408   c-0.172-0.606-0.806-0.971-1.408-0.784c-1.45,0.408-5.94,1.238-7.551-0.301c-0.454-0.437-1.18-0.419-1.613,0.036   c-0.437,0.457-0.419,1.178,0.036,1.613C372.593,269.057,374.48,269.407,376.266,269.407z"/>
	<path style="fill:#251626;" d="M384.032,275.703c2.733,0,5.517-1.067,5.962-1.247c0.586-0.234,0.869-0.895,0.635-1.481   c-0.234-0.586-0.904-0.866-1.481-0.635c-1.397,0.555-5.775,1.838-7.542,0.47c-0.492-0.388-1.209-0.298-1.599,0.2   c-0.388,0.497-0.296,1.214,0.2,1.599C381.257,275.425,382.638,275.703,384.032,275.703z"/>
	<path style="fill:#251626;" d="M391.44,263.754c2.301,0,4.439-0.579,4.833-0.693c0.604-0.172,0.956-0.804,0.782-1.408   c-0.172-0.606-0.802-0.971-1.408-0.784c-1.448,0.408-5.94,1.234-7.551-0.303c-0.459-0.437-1.178-0.419-1.613,0.036   c-0.437,0.457-0.419,1.178,0.036,1.613C387.765,263.404,389.652,263.754,391.44,263.754z"/>
	<path style="fill:#251626;" d="M364.806,261.139c2.305,0,4.443-0.579,4.838-0.693c0.606-0.174,0.956-0.804,0.782-1.408   c-0.174-0.608-0.804-0.964-1.41-0.784c-1.443,0.408-5.936,1.241-7.548-0.301c-0.459-0.437-1.18-0.417-1.613,0.036   c-0.437,0.457-0.419,1.178,0.036,1.613C361.136,260.789,363.02,261.139,364.806,261.139z"/>
	<path style="fill:#251626;" d="M364.811,273.859c2.301,0,4.439-0.579,4.833-0.693c0.606-0.174,0.956-0.804,0.782-1.408   c-0.174-0.608-0.804-0.967-1.41-0.784c-1.443,0.405-5.936,1.236-7.548-0.303c-0.454-0.437-1.18-0.419-1.613,0.036   c-0.437,0.457-0.419,1.178,0.036,1.613C361.136,273.509,363.022,273.859,364.811,273.859z"/>
	<path style="fill:#251626;" d="M353.349,264.97c2.303,0,4.441-0.579,4.835-0.693c0.604-0.172,0.956-0.802,0.782-1.408   c-0.172-0.606-0.804-0.969-1.408-0.784c-1.448,0.408-5.94,1.236-7.553-0.303c-0.459-0.437-1.18-0.419-1.613,0.036   c-0.437,0.457-0.419,1.178,0.036,1.613C349.674,264.62,351.563,264.97,353.349,264.97z"/>
	<path style="fill:#251626;" d="M348.865,257.437c0.592,0,1.094-0.461,1.136-1.062c0.042-0.628-0.432-1.172-1.06-1.216   c-1.499-0.105-6.005-0.851-6.998-2.846c-0.281-0.566-0.969-0.797-1.528-0.512c-0.564,0.281-0.793,0.964-0.512,1.528   c1.753,3.524,8.159,4.058,8.883,4.107C348.812,257.437,348.839,257.437,348.865,257.437z"/>
	<path style="fill:#251626;" d="M258.003,91.089c0.151,0,0.307-0.031,0.454-0.096c1.376-0.601,5.717-2.025,7.522-0.717   c0.508,0.368,1.223,0.261,1.593-0.252c0.37-0.51,0.258-1.223-0.252-1.593c-3.183-2.312-9.112,0.18-9.778,0.472   c-0.575,0.254-0.837,0.924-0.586,1.501C257.143,90.832,257.561,91.089,258.003,91.089z"/>
	<path style="fill:#251626;" d="M292.842,94.332c0.151,0,0.307-0.031,0.454-0.096c1.379-0.601,5.715-2.018,7.522-0.715   c0.508,0.37,1.223,0.261,1.593-0.252c0.37-0.51,0.258-1.223-0.252-1.593c-3.183-2.323-9.112,0.178-9.778,0.47   c-0.575,0.254-0.837,0.924-0.586,1.501C291.982,94.075,292.401,94.332,292.842,94.332z"/>
	<path style="fill:#251626;" d="M293.615,84.416c0.151,0,0.307-0.031,0.454-0.096c1.379-0.601,5.715-2.025,7.524-0.715   c0.508,0.368,1.221,0.258,1.592-0.252c0.37-0.51,0.258-1.223-0.252-1.593c-3.183-2.316-9.112,0.178-9.78,0.47   c-0.575,0.254-0.837,0.924-0.586,1.501C292.755,84.159,293.174,84.416,293.615,84.416z"/>
	<path style="fill:#251626;" d="M274.193,98.367c0.151,0,0.307-0.031,0.454-0.096c1.376-0.601,5.715-2.016,7.522-0.715   c0.506,0.37,1.221,0.258,1.593-0.252c0.37-0.51,0.258-1.223-0.252-1.593c-3.183-2.321-9.11,0.178-9.778,0.47   c-0.575,0.254-0.837,0.924-0.586,1.501C273.333,98.111,273.752,98.367,274.193,98.367z"/>
	<path style="fill:#251626;" d="M275.883,85.765c0.151,0,0.307-0.031,0.454-0.096c1.379-0.601,5.724-2.022,7.524-0.717   c0.508,0.368,1.223,0.261,1.593-0.252c0.37-0.51,0.258-1.223-0.252-1.593c-3.185-2.316-9.114,0.18-9.78,0.472   c-0.575,0.254-0.837,0.924-0.586,1.501C275.024,85.509,275.442,85.765,275.883,85.765z"/>
	<path style="fill:#251626;" d="M318.708,88.75c0.298,0,0.597-0.116,0.82-0.347c0.439-0.454,0.425-1.176-0.027-1.613   c-2.833-2.735-9.05-1.096-9.749-0.9c-0.606,0.169-0.96,0.797-0.791,1.405c0.169,0.606,0.806,0.956,1.405,0.791   c1.443-0.401,5.94-1.203,7.548,0.343C318.138,88.643,318.423,88.75,318.708,88.75z"/>
	<path style="fill:#251626;" d="M139.06,449.418c0.183,0,0.368-0.045,0.541-0.136c3.463-1.864,3.791-8.288,3.818-9.014   c0.022-0.628-0.47-1.156-1.098-1.178c-0.016-0.002-0.029-0.002-0.042-0.002c-0.61,0-1.116,0.483-1.14,1.098   c-0.056,1.503-0.657,6.032-2.619,7.087c-0.555,0.298-0.762,0.991-0.463,1.546C138.262,449.199,138.654,449.418,139.06,449.418z"/>
	<path style="fill:#251626;" d="M137.45,438.145c0.183,0,0.37-0.045,0.541-0.136c3.463-1.866,3.791-8.288,3.818-9.014   c0.022-0.628-0.47-1.156-1.098-1.178c-0.016-0.002-0.029-0.002-0.042-0.002c-0.61,0-1.116,0.483-1.14,1.098   c-0.056,1.503-0.657,6.032-2.619,7.087c-0.555,0.298-0.762,0.991-0.463,1.546C136.652,437.929,137.044,438.145,137.45,438.145z"/>
	<path style="fill:#251626;" d="M87.353,426.871c0.183,0,0.37-0.045,0.541-0.136c3.463-1.866,3.791-8.288,3.818-9.014   c0.022-0.628-0.47-1.156-1.098-1.178c-0.697-0.069-1.158,0.468-1.183,1.096c-0.056,1.503-0.657,6.032-2.619,7.087   c-0.555,0.298-0.762,0.991-0.463,1.546C86.556,426.655,86.948,426.871,87.353,426.871z"/>
	<path style="fill:#251626;" d="M88.961,411.852c0.183,0,0.368-0.045,0.541-0.136c3.466-1.866,3.793-8.288,3.82-9.014   c0.022-0.628-0.47-1.156-1.098-1.178c-0.016-0.002-0.029-0.002-0.042-0.002c-0.61,0-1.116,0.483-1.14,1.098   c-0.056,1.503-0.657,6.029-2.622,7.087c-0.555,0.298-0.762,0.991-0.463,1.546C88.164,411.634,88.556,411.852,88.961,411.852z"/>
	<path style="fill:#251626;" d="M78.916,415.877c0.183,0,0.37-0.045,0.541-0.136c3.463-1.866,3.791-8.288,3.818-9.014   c0.022-0.628-0.47-1.156-1.098-1.178c-0.016-0.002-0.029-0.002-0.042-0.002c-0.61,0-1.116,0.483-1.14,1.098   c-0.056,1.503-0.657,6.032-2.619,7.087c-0.555,0.298-0.762,0.991-0.463,1.546C78.119,415.661,78.511,415.877,78.916,415.877z"/>
	<path style="fill:#251626;" d="M78.916,438.145c0.183,0,0.37-0.045,0.541-0.136c3.463-1.866,3.791-8.288,3.818-9.014   c0.022-0.628-0.47-1.156-1.098-1.178c-0.016-0.002-0.029-0.002-0.042-0.002c-0.61,0-1.116,0.483-1.14,1.098   c-0.056,1.503-0.657,6.032-2.619,7.087c-0.555,0.298-0.762,0.991-0.463,1.546C78.119,437.929,78.511,438.145,78.916,438.145z"/>
	<path style="fill:#251626;" d="M77.306,426.871c0.183,0,0.37-0.045,0.541-0.136c3.463-1.866,3.793-8.288,3.82-9.014   c0.022-0.628-0.47-1.156-1.098-1.178c-0.735-0.069-1.158,0.468-1.183,1.096c-0.056,1.503-0.659,6.029-2.622,7.087   c-0.555,0.298-0.762,0.991-0.463,1.546C76.508,426.655,76.9,426.871,77.306,426.871z"/>
	<path style="fill:#251626;" d="M288.203,437.947c0.194,0,0.39-0.049,0.57-0.154c3.41-1.969,3.544-8.397,3.548-9.123   c0.004-0.63-0.503-1.143-1.134-1.147c-0.002,0-0.004,0-0.007,0c-0.626,0-1.136,0.506-1.14,1.134   c-0.011,1.503-0.477,6.047-2.408,7.163c-0.546,0.314-0.733,1.011-0.417,1.557C287.425,437.742,287.811,437.947,288.203,437.947z"/>
	<path style="fill:#251626;" d="M289.363,422.886c0.194,0,0.39-0.049,0.57-0.154c3.41-1.969,3.546-8.397,3.55-9.123   c0.004-0.63-0.503-1.143-1.134-1.147c-0.002,0-0.004,0-0.007,0c-0.626,0-1.136,0.506-1.14,1.134   c-0.011,1.503-0.479,6.047-2.41,7.163c-0.546,0.314-0.733,1.011-0.417,1.557C288.586,422.681,288.971,422.886,289.363,422.886z"/>
	<path style="fill:#251626;" d="M279.443,427.209c0.194,0,0.39-0.049,0.57-0.154c3.408-1.967,3.544-8.397,3.548-9.123   c0.004-0.63-0.503-1.143-1.134-1.147c-0.002,0-0.004,0-0.007,0c-0.626,0-1.136,0.506-1.14,1.134   c-0.011,1.503-0.477,6.047-2.408,7.163c-0.546,0.314-0.733,1.011-0.417,1.557C278.665,427.004,279.051,427.209,279.443,427.209z"/>
	<path style="fill:#251626;" d="M280.109,449.469c0.194,0,0.392-0.049,0.57-0.154c3.408-1.969,3.544-8.397,3.548-9.123   c0.004-0.63-0.503-1.143-1.134-1.147c-0.552,0.047-1.143,0.503-1.147,1.134c-0.011,1.503-0.477,6.047-2.408,7.163   c-0.546,0.314-0.733,1.011-0.417,1.557C279.333,449.264,279.717,449.469,280.109,449.469z"/>
	<path style="fill:#251626;" d="M278.162,438.248c0.194,0,0.392-0.049,0.57-0.154c3.408-1.969,3.544-8.397,3.548-9.123   c0.004-0.63-0.503-1.143-1.134-1.147c-0.002,0-0.004,0-0.007,0c-0.626,0-1.136,0.506-1.14,1.134   c-0.011,1.503-0.477,6.047-2.408,7.163c-0.546,0.314-0.733,1.011-0.417,1.557C277.387,438.043,277.77,438.248,278.162,438.248z"/>
	<path style="fill:#251626;" d="M375.134,413.972c0.39,0,0.771-0.2,0.984-0.564c1.989-3.394-1.067-9.052-1.421-9.684   c-0.31-0.552-1.005-0.746-1.552-0.439s-0.746,1.002-0.439,1.552c0.733,1.312,2.573,5.495,1.443,7.417   c-0.319,0.543-0.136,1.243,0.408,1.561C374.738,413.921,374.938,413.972,375.134,413.972z"/>
	<path style="fill:#251626;" d="M368.706,400.303c0.39,0,0.771-0.2,0.984-0.564c1.991-3.397-1.065-9.054-1.419-9.687   c-0.307-0.552-1.007-0.744-1.552-0.439c-0.548,0.307-0.746,1.002-0.439,1.552c0.733,1.312,2.57,5.495,1.441,7.419   c-0.318,0.543-0.136,1.243,0.408,1.561C368.31,400.252,368.51,400.303,368.706,400.303z"/>
	<path style="fill:#251626;" d="M362.214,408.961c0.39,0,0.771-0.2,0.984-0.564c1.989-3.394-1.067-9.052-1.421-9.684   c-0.307-0.552-1.002-0.746-1.552-0.439c-0.548,0.307-0.746,1.002-0.439,1.552c0.733,1.312,2.573,5.495,1.443,7.417   c-0.319,0.543-0.136,1.243,0.408,1.561C361.817,408.91,362.018,408.961,362.214,408.961z"/>
	<path style="fill:#251626;" d="M373.782,427.989c0.39,0,0.771-0.2,0.984-0.564c1.989-3.394-1.067-9.052-1.421-9.684   c-0.307-0.552-1.005-0.744-1.552-0.439c-0.548,0.307-0.746,1.002-0.439,1.552c0.733,1.312,2.573,5.495,1.443,7.417   c-0.319,0.543-0.136,1.243,0.408,1.561C373.386,427.938,373.586,427.989,373.782,427.989z"/>
	<path style="fill:#251626;" d="M366.55,419.191c0.39,0,0.771-0.2,0.984-0.564c1.989-3.394-1.067-9.052-1.421-9.684   c-0.307-0.555-1.007-0.746-1.552-0.439c-0.548,0.307-0.746,1.002-0.439,1.552c0.733,1.312,2.573,5.495,1.443,7.417   c-0.318,0.543-0.136,1.243,0.408,1.561C366.154,419.14,366.354,419.191,366.55,419.191z"/>
</g>















</svg>
