<?xml version="1.0" encoding="UTF-8"?>
<!-- Generator: Adobe Illustrator 26.5.1, SVG Export Plug-In . SVG Version: 6.00 Build 0)  -->
<svg xmlns="http://www.w3.org/2000/svg" xmlns:xlink="http://www.w3.org/1999/xlink" version="1.1" id="Capa_1" x="0px" y="0px" viewBox="0 0 507.003 507.003" style="enable-background:new 0 0 507.003 507.003;" xml:space="preserve" width="512" height="512">
<g>
	<path style="fill:#074781;" d="M407.476,192.413c-4.661,13.607,2.593,28.419,16.202,33.082l17.382,5.952   c13.607,4.663,28.419-2.59,33.08-16.198l18.456-53.889c4.66-13.608-2.595-28.416-16.202-33.079l-17.381-5.952   c-13.606-4.663-28.42,2.591-33.08,16.198L407.476,192.413z"/>
	<path style="fill:#074781;" d="M150.195,90.896c-4.661,13.612,2.595,28.42,16.2,33.083l17.384,5.952   c13.605,4.663,28.42-2.591,33.078-16.203l18.457-53.882c4.662-13.608-2.591-28.42-16.201-33.079l-17.382-5.955   c-13.607-4.66-28.42,2.594-33.08,16.201L150.195,90.896z"/>
	<path style="fill-rule:evenodd;clip-rule:evenodd;fill:#F5D155;" d="M104.314,506.988c6.12-0.152,12.475-1.412,17.538-2.208   c10.902-1.722,21.601-5.409,31.864-9.399c24.418-9.486,49.086-19.495,72.539-31.179c6.533-3.256,12.966-6.72,19.221-10.483   c20.103-12.107,40.33-27.831,63.656-49.489c10.002-9.283,17.445-21.022,24.639-32.37c2.724-4.295,5.538-8.733,8.404-12.888   c1.326-1.92,2.452-3.892,3.537-5.977c9.203,18.041,16.376,34.134,10.463,53.286c-1.744,5.63-0.303,9.806,1.213,12.31   c2.465,4.079,6.422,6.041,10.744,7.581c8.38,2.978,11.742,11.589,19.265,15.786c3.26,1.818,6.726,2.743,10.3,2.743   c5.858,0,4.805-12.998,8.891-17.509c4.829-5.328,12.29-14.655,11.487-22.781c-3.275-33.07-6.892-52.155-13.279-81.24   c-3.138-14.291-9.496-27.746-15.646-40.761c-1.556-3.294-3.111-6.584-4.605-9.873c-6.907-15.202-2.33-30.039,11.945-38.725   c30.41-18.497,49.547-44.263,56.874-76.591c7.577-33.426,0.53-68.048-19.84-97.483c-21.91-31.658-56.601-52.868-95.172-58.188   C330.873,0.521,323.331,0,315.937,0C253.413,0,201.58,37.152,186.949,92.447c-9.45,35.72-3.291,69.888,17.818,98.808   c5.309,7.275,7.27,14.766,6.158,23.549c-1.003-0.593-2.104-1.314-2.918-1.849l-0.786-0.512c-5.376-3.506-9.824-6.767-13.607-9.967   c-9.186-7.775-15.015-16.131-17.816-25.537c-0.308-1.034-0.592-2.086-0.874-3.125c-1.808-6.676-4.541-16.766-14.748-16.766   c-2.603,0-5.35,0.737-8.399,2.251c-1.48,0.733-2.966,1.072-4.674,1.072c-2.432,0-5.121-0.661-8.237-1.429l-1.445-0.356   c-2.298-0.555-5.343-1.191-8.52-1.191c-8.016,0-12.449,4.15-14.76,7.635c-4.486,6.774-5.442,16.308-2.325,23.189   c6.179,13.65,14.208,26.86,23.86,39.264c10.404,13.366,21.307,25.877,32.854,39.128c3.594,4.125,7.217,8.279,10.851,12.502   c-3.735,4.044-7.48,8.08-11.244,12.103c-1.617,1.729-3.152,3.65-4.638,5.512c-2.501,3.132-5.09,6.371-7.674,8.143   c-0.83,0.567-1.693,0.821-2.794,0.821c-2.588,0-6.004-1.395-9.311-2.746c-2.139-0.873-4.35-1.772-6.599-2.426   c-10.774-3.128-21.327-6.134-31.958-8.512c-7.539-1.686-12.854-2.441-17.235-2.441c-17.127,0-22.86,12.298-28.578,28.377   c-0.977,2.747-1.685,5.583-2.369,8.322c-1.388,5.565-2.7,10.826-5.935,14.104c-3.627,3.676-8.985,4.842-15.192,6.193   c-2.109,0.458-4.287,0.933-6.45,1.53l-0.517,0.14c-4.539,1.242-12.131,3.323-14.925,9.65c-0.085,0.185-0.185,0.432-0.275,0.682   c-2.268,6.262,1.585,12.896,3.656,16.462c2.001,3.446,4.61,5.646,7.335,7.782c13.316,10.429,30.579,22.396,46.001,22.396   c7.344,0,13.663-2.811,18.274-8.121c2.013-2.324,3.743-5.918,5.748-10.086c1.84-3.824,6.074-12.62,8.67-13.836   c1.86,1.008,5.748,4.879,7.683,6.804c1.868,1.86,3.48,3.463,4.903,4.578c1.414,1.107,2.887,2.204,4.372,3.311   c3.413,2.543,6.94,5.176,9.704,7.94c1.789,1.789,4.788,3.912,8.584,6.604c3.582,2.539,7.258,4.956,10.702,7.686   c2.94,2.332,6.863,5.235,8.502,8.721c1.407,2.992-1.338,4.539-3.493,5.955c-3.144,2.069-6.335,4.049-9.568,5.978   c-1.192,0.713-2.377,1.42-3.55,2.137c-3.279,1.996-6.689,3.696-10.304,5.495c-12.76,6.353-18.392,10.763-32.481,5.175   c-6.224-2.472-12.66-5.023-18.485-5.023c-6.096,0-9.719,2.79-11.686,5.129c-6.427,7.648-2.762,21.446,1.445,31.672   c4.324,10.514,11.086,24.05,21.703,29.387C95.115,506.577,99.647,507.104,104.314,506.988z"/>
	<path style="fill:#9C85E0;" d="M267.949,207.767c39.043,16.834,86.122,13.612,120.462-13.286   c30.939-24.243,31.894-58.441,24.398-93.466c-2.468-11.53-7.997-23.483-15.615-33.797c-8.061-10.912-20.838-15.113-33.355-15.953   c-38.46-2.589-55.835-19.763-84.983-10.822c-15.568,4.773-29.726,12.242-40.343,22.349c-12.353,11.752-19.875,26.239-23.117,41.561   C206.88,144.543,227.788,190.458,267.949,207.767z"/>
	<path style="fill:#074781;" d="M386.396,240.592c0,0-0.725,0.263-2.086,0.758c-1.358,0.454-3.314,1.383-5.87,2.09   c-1.258,0.387-2.648,0.811-4.163,1.273c-1.541,0.373-3.21,0.775-4.992,1.204c-3.571,0.771-7.621,1.445-12.05,1.925   c-4.426,0.5-9.254,0.606-14.328,0.627c-5.087-0.131-10.436-0.398-15.943-1.098c-5.514-0.577-11.163-1.675-16.888-2.781   c-5.693-1.318-11.486-2.629-17.173-4.413c-5.723-1.64-11.365-3.578-16.881-5.608c-5.528-2.009-10.865-4.26-16.033-6.461   c-5.108-2.314-10.072-4.553-14.646-6.932c-4.609-2.322-8.907-4.646-12.818-6.9c-1.937-1.15-3.802-2.256-5.536-3.366   c-1.771-1.06-3.41-2.123-4.926-3.162c-3.042-2.065-5.645-3.956-7.724-5.604c-2.035-1.688-3.699-3.006-4.691-4.031   c-1.054-0.993-1.615-1.519-1.615-1.519s0.393,0.666,1.13,1.912c0.37,0.628,0.845,1.395,1.472,2.243   c0.617,0.852,1.284,1.895,2.177,2.917c1.712,2.119,3.874,4.658,6.616,7.29c2.685,2.705,5.902,5.55,9.571,8.458   c1.826,1.467,3.783,2.917,5.804,4.438c2.064,1.441,4.19,2.967,6.454,4.4c4.476,2.963,9.396,5.757,14.558,8.529   c2.613,1.313,5.248,2.708,8.004,3.934c1.371,0.632,2.749,1.269,4.133,1.904c1.411,0.585,2.827,1.17,4.25,1.759   c2.834,1.208,5.765,2.246,8.691,3.328c2.972,0.953,5.913,2.038,8.939,2.874c6.008,1.819,12.159,3.18,18.242,4.332   c3.071,0.459,6.089,1.03,9.129,1.297c1.512,0.157,3.017,0.318,4.509,0.475c1.498,0.124,2.995,0.166,4.473,0.251   c5.911,0.348,11.664,0.102,17.075-0.335c2.705-0.377,5.335-0.564,7.851-1.077c2.51-0.542,4.945-0.89,7.227-1.576   c4.604-1.111,8.695-2.611,12.217-4.096c1.746-0.797,3.389-1.483,4.864-2.226c1.443-0.822,2.768-1.572,3.966-2.255   c0.589-0.335,1.147-0.657,1.675-0.958c0.489-0.344,0.948-0.67,1.377-0.976c0.852-0.605,1.579-1.119,2.168-1.538   C385.774,241.045,386.396,240.592,386.396,240.592z"/>
	<path style="fill:#074781;" d="M346.585,352.32c0,0,0.534-1.349,1.274-3.722c0.37-1.179,0.807-2.629,1.267-4.269   c0.547-1.599,1.166-3.375,1.71-5.305c0.53-1.916,1.441-3.983,2.105-6.163c0.638-2.2,1.679-4.409,2.454-6.753   c0.878-2.311,1.927-4.638,2.874-7.033c1.148-2.302,2.069-4.752,3.352-7.021c1.092-2.365,2.432-4.582,3.648-6.842   c1.362-2.149,2.562-4.388,3.98-6.371c1.324-2.069,2.731-3.956,4.064-5.791c1.414-1.742,2.658-3.553,3.998-5.011   c1.304-1.523,2.544-2.887,3.686-4.086c1.131-1.222,2.21-2.176,3.066-3.065c1.84-1.671,2.881-2.616,2.881-2.616   s-0.348,0.064-1,0.183c-0.641,0.157-1.647,0.276-2.837,0.666c-1.164,0.432-2.698,0.817-4.261,1.623   c-1.608,0.738-3.423,1.624-5.23,2.85c-1.907,1.122-3.767,2.598-5.735,4.184c-1.881,1.67-3.853,3.484-5.651,5.57   c-0.962,1.001-1.84,2.094-2.681,3.229c-0.855,1.133-1.779,2.252-2.538,3.477c-1.597,2.412-3.12,4.936-4.406,7.567   c-1.386,2.594-2.397,5.333-3.45,8.008c-0.897,2.718-1.751,5.405-2.33,8.059c-0.507,2.663-1.135,5.197-1.304,7.668   c-0.21,2.469-0.472,4.745-0.415,6.923c-0.02,2.162,0.074,4.135,0.163,5.852c0.127,1.695,0.418,3.157,0.587,4.369   C346.245,350.93,346.585,352.32,346.585,352.32z"/>
	<path style="fill:#074781;" d="M105.768,444.969c0,0,0.136,1.047,0.48,2.823c0.177,0.878,0.397,1.959,0.668,3.166   c0.206,1.213,0.434,2.561,0.745,3.981c0.321,1.407,0.476,3.057,0.805,4.676c0.351,1.628,0.475,3.413,0.793,5.185   c0.252,1.78,0.411,3.646,0.65,5.511c0.094,1.883,0.367,3.773,0.375,5.685c0.147,1.9,0.107,3.808,0.149,5.685   c-0.077,1.869-0.03,3.73-0.19,5.52c-0.08,1.802-0.268,3.522-0.427,5.184c-0.238,1.629-0.354,3.235-0.643,4.663   c-0.241,1.45-0.505,2.777-0.763,3.969c-0.246,1.195-0.548,2.204-0.74,3.086c-0.502,1.75-0.784,2.734-0.784,2.734   s0.176-0.165,0.507-0.487c0.31-0.344,0.842-0.797,1.386-1.493c0.521-0.716,1.262-1.538,1.884-2.636   c0.675-1.072,1.412-2.315,2.038-3.773c0.716-1.429,1.289-3.06,1.893-4.798c0.519-1.769,1.049-3.655,1.391-5.651   c0.225-0.992,0.367-2.009,0.475-3.044c0.117-1.039,0.278-2.09,0.312-3.15c0.121-2.123,0.17-4.285,0.045-6.427   c-0.058-2.157-0.369-4.268-0.641-6.35c-0.371-2.047-0.755-4.065-1.287-5.948c-0.573-1.869-1.04-3.7-1.739-5.323   c-0.681-1.634-1.27-3.163-2.008-4.516c-0.687-1.365-1.375-2.568-1.979-3.616c-0.621-1.022-1.259-1.831-1.745-2.53   C106.41,445.71,105.768,444.969,105.768,444.969z"/>
	<path style="fill:#074781;" d="M45.935,343.943c0,0,0.551,0.908,1.595,2.383c0.519,0.728,1.164,1.628,1.905,2.619   c0.683,1.018,1.441,2.159,2.308,3.324c0.868,1.153,1.684,2.594,2.646,3.934c0.988,1.349,1.832,2.921,2.848,4.409   c0.958,1.522,1.867,3.158,2.849,4.761c0.855,1.683,1.879,3.293,2.668,5.032c0.911,1.679,1.655,3.433,2.463,5.129   c0.697,1.738,1.501,3.417,2.084,5.112c0.668,1.68,1.2,3.324,1.736,4.905c0.447,1.586,0.998,3.099,1.32,4.519   c0.373,1.425,0.676,2.738,0.929,3.934c0.262,1.188,0.401,2.234,0.587,3.116c0.258,1.806,0.404,2.819,0.404,2.819   s0.092-0.225,0.264-0.653c0.142-0.436,0.438-1.072,0.652-1.928c0.183-0.869,0.523-1.921,0.64-3.18   c0.179-1.251,0.342-2.688,0.316-4.277c0.067-1.595-0.078-3.315-0.237-5.15c-0.249-1.823-0.541-3.765-1.045-5.724   c-0.202-1-0.487-1.983-0.814-2.971c-0.317-0.997-0.602-2.023-1.001-3.002c-0.76-1.988-1.602-3.98-2.592-5.885   c-0.937-1.945-2.083-3.743-3.182-5.531c-1.176-1.713-2.353-3.4-3.609-4.9c-1.291-1.472-2.465-2.951-3.764-4.147   c-1.291-1.208-2.457-2.366-3.683-3.298c-1.185-0.963-2.307-1.78-3.286-2.489c-0.982-0.678-1.897-1.157-2.628-1.593   C46.824,344.363,45.935,343.943,45.935,343.943z"/>
	<path style="fill:#074781;" d="M210.361,214.008c0,0-0.401,1.186-0.936,3.284c-0.267,1.039-0.578,2.324-0.904,3.77   c-0.402,1.407-0.86,2.98-1.247,4.68c-0.37,1.695-1.061,3.518-1.538,5.443c-0.453,1.945-1.24,3.887-1.811,5.956   c-0.648,2.043-1.435,4.087-2.145,6.198c-0.876,2.026-1.556,4.184-2.544,6.176c-0.827,2.09-1.861,4.036-2.798,6.021   c-1.054,1.886-1.976,3.861-3.084,5.6c-1.028,1.811-2.134,3.467-3.176,5.074c-1.112,1.522-2.083,3.107-3.144,4.384   c-1.027,1.331-2.011,2.526-2.914,3.573c-0.898,1.064-1.757,1.891-2.441,2.671c-1.463,1.445-2.3,2.276-2.3,2.276   s0.288-0.055,0.826-0.148c0.521-0.123,1.351-0.226,2.326-0.547c0.943-0.36,2.203-0.682,3.47-1.374   c1.31-0.623,2.78-1.386,4.239-2.446c1.541-0.962,3.028-2.237,4.609-3.619c1.501-1.454,3.075-3.036,4.491-4.858   c0.766-0.873,1.459-1.828,2.113-2.828c0.67-0.987,1.397-1.967,1.993-3.039c1.235-2.115,2.416-4.332,3.398-6.647   c1.058-2.28,1.806-4.701,2.59-7.054c0.655-2.403,1.27-4.777,1.664-7.118c0.33-2.361,0.769-4.604,0.826-6.795   c0.092-2.184,0.238-4.206,0.115-6.139c-0.051-1.92-0.2-3.667-0.326-5.201c-0.157-1.505-0.447-2.811-0.63-3.892   C210.687,215.249,210.361,214.008,210.361,214.008z"/>
	<path style="fill:#074781;" d="M145.032,400.24c0,0,0-1.661-0.207-4.522c-0.105-1.421-0.248-3.171-0.443-5.134   c-0.089-1.938-0.176-4.105-0.403-6.415c-0.241-2.297-0.149-4.865-0.355-7.494c-0.246-2.642-0.083-5.4-0.239-8.236   c-0.05-2.836,0.071-5.732,0.067-8.674c0.238-2.9,0.178-5.898,0.56-8.788c0.153-2.959,0.61-5.815,0.935-8.678   c0.507-2.785,0.816-5.635,1.452-8.241c0.505-2.684,1.172-5.189,1.775-7.618c0.729-2.332,1.252-4.7,2.02-6.71   c0.706-2.06,1.401-3.934,2.077-5.592c0.649-1.683,1.354-3.044,1.863-4.282c1.183-2.369,1.859-3.727,1.859-3.727   s-0.331,0.17-0.943,0.479c-0.579,0.353-1.542,0.772-2.593,1.53c-1.002,0.802-2.396,1.666-3.644,2.997   c-1.333,1.26-2.807,2.761-4.136,4.634c-1.478,1.772-2.76,3.939-4.105,6.266c-1.23,2.387-2.492,4.964-3.467,7.8   c-0.569,1.382-1.017,2.85-1.404,4.358c-0.404,1.505-0.89,3.01-1.168,4.591c-0.636,3.146-1.163,6.384-1.406,9.695   c-0.348,3.285-0.271,6.639-0.257,9.925c0.185,3.293,0.413,6.549,0.888,9.669c0.565,3.124,0.947,6.147,1.774,8.957   c0.775,2.828,1.425,5.452,2.367,7.882c0.845,2.428,1.732,4.603,2.517,6.511c0.807,1.865,1.685,3.43,2.353,4.744   C144.131,398.775,145.032,400.24,145.032,400.24z"/>
	<path style="fill:#074781;" d="M165.293,413.514c1.789-0.806,3.933-1.882,6.467-2.869c2.564-0.963,5.505-2.061,8.765-3.113   c3.268-1.161,6.742-1.979,10.501-2.954c3.745-1.034,7.693-1.556,11.795-2.289c4.103-0.627,8.315-0.958,12.587-1.251   c4.224-0.08,8.557-0.25,12.73,0.094c4.218,0.212,8.304,0.767,12.253,1.445c1.997,0.306,3.858,0.84,5.728,1.285   c1.882,0.423,3.701,0.924,5.393,1.567c3.499,1.086,6.615,2.522,9.502,3.918c2.785,1.539,5.373,3.005,7.427,4.71   c2.205,1.526,3.911,3.229,5.328,4.777c1.517,1.441,2.409,3.073,3.286,4.234c0.824,1.217,1.211,2.35,1.571,3.023   c0.303,0.717,0.468,1.102,0.468,1.102s-1.641-0.768-4.506-2.115c-1.514-0.568-3.16-1.374-5.215-2.106   c-2.034-0.755-4.334-1.539-6.887-2.324c-2.454-0.864-5.426-1.436-8.321-2.237c-3.024-0.666-6.151-1.395-9.523-1.93   c-3.26-0.703-6.87-1-10.38-1.538c-3.631-0.322-7.238-0.81-11.016-0.92c-3.664-0.386-7.528-0.255-11.23-0.471   c-3.782,0.06-7.488-0.013-11.141,0.105c-3.682,0.242-7.204,0.106-10.646,0.454c-3.41,0.301-6.699,0.246-9.692,0.576   c-3.005,0.318-5.804,0.471-8.321,0.615c-2.549,0.275-4.824,0.479-6.669,0.632c-3.717,0.31-5.85,0.344-5.85,0.344   S161.726,415.184,165.293,413.514z"/>
	<path style="fill-rule:evenodd;clip-rule:evenodd;fill:#ED814F;" d="M150.88,297.003c-3.892,3.735-4.005,10.013-0.177,13.917   c42.645,43.499,91.948,79.804,146.142,107.613c4.87,2.505,10.827,0.533,13.243-4.295l0,0c2.414-4.832,0.53-10.623-4.151-13.026   c-52.432-26.903-100.131-62.033-141.383-104.115C160.863,293.34,154.776,293.255,150.88,297.003L150.88,297.003z"/>
	<g>
		<path style="fill:#074781;" d="M301.286,158.805c-1.914,7.951-0.379,17.059,7.679,19.855c8.317,2.899,15.062-5.583,17.873-12.811    c1.56-4.011-4.457-5.773-5.996-1.802c-1.613,4.158-5.081,9.521-9.973,8.236c-4.649-1.225-4.523-7.804-3.589-11.688    C308.276,156.446,302.288,154.633,301.286,158.805L301.286,158.805z"/>
		<path style="fill-rule:evenodd;clip-rule:evenodd;fill:#074781;" d="M330.573,140.691c-0.161-2.494-0.943-5.003-1.87-7.263    c-0.833-2.064-1.918-4.07-2.272-6.287c-0.338-2.056,0.796-4.638-0.251-6.515c-0.545-0.95-3.198-1.455-4.118-1.019    c-1.85,0.891-1.522,4.553-1.583,6.262c-0.119,3.261,0.22,6.74,1.481,9.849c1.045,2.589,3.071,5.73,1.823,8.588    c-1.327,3.026-6.584,2.218-9.164,2.03c-1.823-0.131-3.545,0.67-3.936,2.629c-1.043,5.197,6.134,4.374,9.087,3.973    c3.692-0.488,7.6-2.696,9.471-5.953C330.377,145.009,330.71,142.859,330.573,140.691z"/>
		<g>
			<path style="fill:#FFFFFF;" d="M347.641,132.457c-2.127,14.452,7.589,28.784,21.941,32.888c0.607,0.179,0.517-1.2,1.138-1.067     c15.36,3.365,20.581-7.949,22.801-23.016c2.222-15.058,1.306-26.635-14.058-29.996     C364.109,107.899,349.867,117.399,347.641,132.457z"/>
			<path style="fill-rule:evenodd;clip-rule:evenodd;fill:#074781;" d="M403.257,144.619c-2.225,15.058-16.471,24.558-31.834,21.196     c-0.666-0.152-1.338-0.331-1.996-0.525c-7.385-26.635,4.222-43.829,13.862-52.909     C396.547,117.179,405.288,130.851,403.257,144.619z"/>
			<path style="fill:#FFFFFF;" d="M241.319,108.637c-2.136,14.447,7.581,28.775,21.933,32.889c0.612,0.178,0.982-0.611,1.608-0.475     c15.361,3.357,22.659-7.416,24.877-22.481c2.219-15.062-1.241-27.768-16.6-31.125C257.783,84.079,243.535,93.566,241.319,108.637     z"/>
			<path style="fill-rule:evenodd;clip-rule:evenodd;fill:#074781;" d="M296.925,120.795c-2.219,15.058-16.469,24.545-31.824,21.196     c-0.682-0.153-1.343-0.322-2.001-0.523c-7.387-26.651,4.225-43.824,13.86-52.918C290.217,93.354,298.955,107.018,296.925,120.795     z"/>
		</g>
		<path style="fill-rule:evenodd;clip-rule:evenodd;fill:#7BEBE1;" d="M275.244,157.558c-0.911,4.57-7.15,7.19-13.938,5.833    c-6.79-1.348-11.55-6.159-10.634-10.733c0.911-4.57,7.144-7.187,13.932-5.829C271.391,148.176,276.156,152.983,275.244,157.558z"/>
		<path style="fill-rule:evenodd;clip-rule:evenodd;fill:#7BEBE1;" d="M367.148,175.875c-0.909,4.574-7.15,7.189-13.93,5.833    c-6.791-1.352-11.552-6.154-10.639-10.729c0.91-4.573,7.151-7.185,13.935-5.838C363.306,166.498,368.069,171.302,367.148,175.875z    "/>
	</g>
	<path style="fill-rule:evenodd;clip-rule:evenodd;fill:#ED814F;" d="M238.136,255.395c-9.369,14.477-18.949,28.831-27.426,43.804   c-1.688,2.993-2.157,9.09,0.386,10.865c14.096,9.827,30.667,20.297,45.528,28.967c0,0,20.877,12.964,28.107,12.099   c4.099-0.492,4.949-3.45,6.815-6.855c7.349-13.425,14.258-27.109,20.766-40.972c3.913-8.342,1.291-14.65-7.164-19.306   c-18.051-9.932-35.83-20.365-53.526-30.907C246.057,249.773,241.646,249.973,238.136,255.395z"/>
	<path style="fill:#074781;" d="M280.303,292.59c-3.368,3.417-3.343,8.91,0.073,12.285c3.41,3.374,8.908,3.345,12.282-0.063   c3.372-3.413,3.347-8.915-0.069-12.29C289.178,289.152,283.68,289.182,280.303,292.59z"/>
	<path style="fill:#FFFFFF;" d="M270.401,314.961c-3.372,3.407-3.341,8.905,0.067,12.28c3.413,3.374,8.913,3.345,12.288-0.064   c3.372-3.417,3.343-8.915-0.068-12.29C279.276,311.514,273.777,311.547,270.401,314.961z"/>
	<path style="fill-rule:evenodd;clip-rule:evenodd;fill:#F96081;" d="M61.362,215.211c-1.748-1.276-3.137-0.551-3.086,1.615   l0.293,12.785c0.049,2.162-1.349,4.969-3.102,6.236l-10.364,7.491c-1.754,1.267-1.492,2.811,0.578,3.433l12.25,3.672   c2.074,0.623,4.312,2.818,4.976,4.875l3.92,12.175c0.665,2.061,2.215,2.29,3.446,0.509l7.279-10.514   c1.231-1.78,4.008-3.233,6.174-3.226l12.788,0.034c2.164,0.004,2.859-1.398,1.547-3.12l-7.749-10.17   c-1.312-1.721-1.831-4.815-1.159-6.872l3.982-12.149c0.676-2.061-0.443-3.154-2.484-2.442l-12.071,4.235   c-2.043,0.712-5.143,0.255-6.891-1.021L61.362,215.211z"/>
	<path style="fill-rule:evenodd;clip-rule:evenodd;fill:#F96081;" d="M436.053,267.553c-1.749-1.271-3.137-0.547-3.087,1.615   l0.293,12.786c0.049,2.161-1.349,4.973-3.102,6.235l-10.364,7.491c-1.753,1.267-1.492,2.814,0.578,3.438l12.249,3.671   c2.076,0.623,4.313,2.815,4.977,4.875l3.92,12.171c0.665,2.061,2.215,2.294,3.446,0.514l7.279-10.519   c1.231-1.78,4.008-3.23,6.174-3.226l12.788,0.034c2.164,0.004,2.859-1.398,1.548-3.116l-7.75-10.17   c-1.312-1.726-1.831-4.815-1.159-6.871l3.982-12.154c0.677-2.057-0.443-3.153-2.483-2.438l-12.072,4.23   c-2.042,0.712-5.143,0.259-6.891-1.023L436.053,267.553z"/>
	<path style="fill:#FFFFFF;" d="M69.222,346.775c-0.101,1.734,12.524,3.061,14.176,4.781c0.891,0.916,2.453,14.355,4.273,14.461   c1.828,0.11,3.868-13.516,4.839-14.456c1.735-1.683,14.04-2.497,14.143-4.223c0.101-1.726-12.429-2.983-14.138-4.765   c-0.855-0.89-2.446-14.362-4.273-14.477c-1.825-0.105-3.834,13.48-4.837,14.452C81.734,344.177,69.324,345.046,69.222,346.775z"/>
	<path style="fill:#074781;" d="M148.845,221.294c-0.115,1.972,14.255,3.485,16.132,5.438c1.01,1.044,2.79,16.339,4.862,16.462   c2.081,0.122,4.4-15.384,5.505-16.453c1.98-1.916,15.98-2.845,16.095-4.803c0.116-1.962-14.138-3.4-16.084-5.426   c-0.975-1.009-2.789-16.342-4.866-16.47c-2.075-0.122-4.362,15.338-5.503,16.439C163.086,218.336,148.962,219.323,148.845,221.294z   "/>
	<path style="fill:#FFFFFF;" d="M174.936,380.545c0,3.357,2.723,6.084,6.085,6.084c3.359,0,6.083-2.727,6.083-6.084   c0-3.361-2.724-6.087-6.083-6.087C177.659,374.458,174.936,377.184,174.936,380.545z"/>
	<path style="fill:#FFFFFF;" d="M213.841,257.099c0,3.358,2.723,6.083,6.086,6.083c3.359,0,6.082-2.725,6.082-6.083   c0-3.362-2.723-6.087-6.082-6.087C216.564,251.012,213.841,253.736,213.841,257.099z"/>
	<path style="fill:#FFFFFF;" d="M291.652,365.359c0,3.358,2.725,6.084,6.086,6.084c3.359,0,6.083-2.726,6.083-6.084   c0-3.361-2.724-6.086-6.083-6.086C294.376,359.273,291.652,361.998,291.652,365.359z"/>
	<path style="fill:#FFFFFF;" d="M186.669,303.336c0,3.357,2.725,6.083,6.086,6.083c3.359,0,6.082-2.726,6.082-6.083   c0-3.361-2.723-6.088-6.082-6.088C189.394,297.248,186.669,299.975,186.669,303.336z"/>
	<path style="fill:#FFFFFF;" d="M272.33,19.403c0,3.356,2.724,6.083,6.085,6.083c3.359,0,6.084-2.727,6.084-6.083   c0-3.362-2.725-6.088-6.084-6.088C275.053,13.316,272.33,16.041,272.33,19.403z"/>
	<path style="fill:#FFFFFF;" d="M380.311,221.62c0,3.358,2.724,6.083,6.085,6.083c3.359,0,6.084-2.725,6.084-6.083   c0-3.361-2.725-6.086-6.084-6.086C383.035,215.534,380.311,218.259,380.311,221.62z"/>
	<path style="fill:#FFFFFF;" d="M194.815,148.15c0,3.357,2.724,6.083,6.085,6.083c3.36,0,6.084-2.725,6.084-6.083   c0-3.361-2.724-6.087-6.084-6.087C197.538,142.064,194.815,144.789,194.815,148.15z"/>
	<path style="fill:#FFFFFF;" d="M184.887,45.182c0,3.357,2.724,6.083,6.086,6.083c3.359,0,6.083-2.726,6.083-6.083   c0-3.361-2.724-6.088-6.083-6.088C187.611,39.094,184.887,41.82,184.887,45.182z"/>
	<path style="fill:#FFFFFF;" d="M464.83,154.233c0,3.358,2.724,6.084,6.086,6.084c3.359,0,6.083-2.726,6.083-6.084   c0-3.361-2.724-6.087-6.083-6.087C467.554,148.146,464.83,150.872,464.83,154.233z"/>
	<path style="fill:#FFFFFF;" d="M443.951,206.461c0,3.357,2.724,6.084,6.086,6.084c3.359,0,6.083-2.727,6.083-6.084   c0-3.361-2.724-6.088-6.083-6.088C446.674,200.373,443.951,203.1,443.951,206.461z"/>
	<path style="fill:#FFFFFF;" d="M346.427,285.828c0,3.357,2.724,6.083,6.085,6.083c3.36,0,6.083-2.726,6.083-6.083   c0-3.362-2.723-6.088-6.083-6.088C349.151,279.74,346.427,282.466,346.427,285.828z"/>
	<path style="fill:#FFFFFF;" d="M186.669,437.626c0,3.357,2.725,6.083,6.086,6.083c3.359,0,6.082-2.726,6.082-6.083   c0-3.361-2.723-6.088-6.082-6.088C189.394,431.538,186.669,434.265,186.669,437.626z"/>
	<path style="fill:#FFFFFF;" d="M138.335,471.858c0,3.358,2.725,6.083,6.086,6.083c3.359,0,6.083-2.726,6.083-6.083   c0-3.362-2.724-6.088-6.083-6.088C141.06,465.771,138.335,468.496,138.335,471.858z"/>
	<path style="fill:#FFFFFF;" d="M31.773,368.383c0,3.357,2.723,6.084,6.085,6.084c3.359,0,6.083-2.727,6.083-6.084   c0-3.361-2.724-6.088-6.083-6.088C34.496,362.295,31.773,365.022,31.773,368.383z"/>
	<path style="fill:#FFFFFF;" d="M375.365,359.273c0,3.357,2.723,6.083,6.084,6.083c3.359,0,6.084-2.726,6.084-6.083   c0-3.362-2.725-6.088-6.084-6.088C378.087,353.186,375.365,355.911,375.365,359.273z"/>
	<path style="fill:#FFFFFF;" d="M97.423,309.852c0,3.358,2.724,6.084,6.086,6.084c3.358,0,6.083-2.726,6.083-6.084   c0-3.361-2.725-6.087-6.083-6.087C100.147,303.765,97.423,306.49,97.423,309.852z"/>
	<path style="fill:#FFFFFF;" d="M319.296,198.195c0,3.357,2.724,6.083,6.086,6.083c3.359,0,6.083-2.726,6.083-6.083   c0-3.362-2.724-6.088-6.083-6.088C322.02,192.107,319.296,194.833,319.296,198.195z"/>
	<g>
		<path style="fill-rule:evenodd;clip-rule:evenodd;fill:#FFFFFF;" d="M426.871,128.549c6.247-21.634-2.575-48.252-20.086-62.209    c-5.882-4.688,1.3-13.917,7.207-9.208c21.917,17.467,31.387,49.173,23.668,75.915    C435.572,140.282,424.802,135.704,426.871,128.549z"/>
		<path style="fill-rule:evenodd;clip-rule:evenodd;fill:#FFFFFF;" d="M424.495,157.531c-6.957-2.898-2.457-13.692,4.5-10.792    C435.955,149.639,431.457,160.432,424.495,157.531z"/>
		<path style="fill-rule:evenodd;clip-rule:evenodd;fill:#FFFFFF;" d="M390.638,56.462c-6.959-2.903-2.461-13.696,4.495-10.792    C402.094,48.565,397.596,59.357,390.638,56.462z"/>
	</g>
	<g>
		<path style="fill-rule:evenodd;clip-rule:evenodd;fill:#FFFFFF;" d="M232.434,129.192c-3.854,15.821,3.332,34.787,16.41,44.343    c4.394,3.209-0.516,10.094-4.928,6.872c-16.37-11.955-24.179-34.579-19.416-54.14C225.79,120.977,233.712,123.958,232.434,129.192    z"/>
		<path style="fill-rule:evenodd;clip-rule:evenodd;fill:#FFFFFF;" d="M233.269,108.175c5.115,1.882,2.191,9.818-2.923,7.936    C225.228,114.229,228.148,106.293,233.269,108.175z"/>
		<path style="fill-rule:evenodd;clip-rule:evenodd;fill:#FFFFFF;" d="M260.814,180.178c5.117,1.887,2.196,9.823-2.921,7.94    C252.774,186.235,255.697,178.3,260.814,180.178z"/>
	</g>
	<path style="fill:#9C85E0;" d="M329.403,456.936c4.555,8.688,15.422,2.06,21.832,1.09c9.79-1.479,3.787,9.61,2.244,14.333   c-0.965,2.955-2.224,5.808-3.169,8.763c-1.407,4.37-3.262,10.691,1.133,13.984c4.836,3.63,9.19-1.402,11.719-5.112   c3.451-5.04,3.451-5.04,8.993-15.138c0.914,8.928,6.13,27.173,13.706,27.398c3.853,0.118,5.212-5.312,5.865-8.105   c0.989-4.24,1.267-3.603,3.026-14.143c2.82,7.101,5.646,17.805,12.173,17.267c4.357-0.352,5.612-4.616,5.637-8.275   c0.048-7.093-1.597-13.718-1.34-20.746c3.391,5.384,5.287,11.848,9.892,16.393c2.503,2.477,6.113,1.722,7.942-0.92   c0.03,0.03,0.051,0.06,0.087,0.089c-0.004-0.076-0.009-0.131-0.02-0.194c0.112-0.161,0.24-0.306,0.327-0.488   c2.88-5.523-2.413-14.845-4.793-19.792c-3.046-6.347-8.438-20.515-11.204-26.996c-3.479-8.16-7.589-16.474-16.073-20.398   c-8.288-3.828-17.577-1.649-25.399,2.03c-9.04,4.248-18.252,8.89-26.803,14.058c-5.109,3.081-10.411,6.922-14.294,11.518   C327.452,447.614,326.991,452.323,329.403,456.936z"/>
	<path style="fill:#074781;" d="M418.075,404.412c-3.61-10.704-15.878-16.97-27.263-18.788c-9.701-1.552-20.645,0.929-28.919,6.211   c-9.408,6.003-7.719,23.874-5.051,33.544c27.865-7.681,56.151,9.801,56.151,9.801c3.777-5.973,4.791-13.794,5.85-20.636   C419.422,410.812,419.091,407.435,418.075,404.412z"/>
	<path style="fill:#9C85E0;" d="M163.561,100.12c-9.23-4.888-14.782,7.482-19.828,12.201c-7.703,7.193-9.114-6.164-10.603-11.239   c-0.934-3.179-1.548-6.439-2.501-9.605c-1.395-4.688-3.574-11.353-9.418-11.597c-6.438-0.271-7.223,6.769-7.209,11.55   c0.003,6.504,0.003,6.504,1.224,18.717c-6.185-7.296-21.759-20.175-28.545-15.8c-3.455,2.213-1.376,7.8-0.265,10.645   c1.683,4.319,1.057,3.93,5.86,14.248c-6.751-4.536-15.683-12.239-21.091-7.829c-3.616,2.938-2.146,7.431,0.036,10.656   c4.233,6.262,9.67,11.086,13.677,17.415c-6.219-2.684-11.779-7.22-18.563-8.432c-3.687-0.67-6.404,2.17-6.423,5.591   c-0.042-0.008-0.079-0.021-0.127-0.025c0.051,0.06,0.085,0.106,0.133,0.158c0,0.211-0.022,0.415,0.01,0.627   c0.798,6.583,11.061,11.576,16.134,14.489c6.498,3.739,19.765,12.93,26.103,16.952c7.972,5.071,16.593,9.895,26.407,8.229   c9.587-1.627,16.425-9.144,21.081-17.084c5.377-9.182,10.668-18.805,15.062-28.491c2.63-5.787,4.97-12.358,5.614-18.729   C170.893,107.128,168.46,102.715,163.561,100.12z"/>
	<path style="fill:#074781;" d="M117.35,199.67c9.618,7.225,24.163,5.333,35.258,0.067c9.452-4.48,17.566-13.256,21.646-22.878   c4.651-10.939-7.603-25.618-15.771-32.499c-19.842,23.532-55.212,25.228-55.212,25.228c0.282,7.521,4.104,14.998,7.296,21.645   C112.307,194.858,114.632,197.627,117.35,199.67z"/>
	<g>
		<path style="fill-rule:evenodd;clip-rule:evenodd;fill:#074781;" d="M235.731,276.167c3.087-5.248,9.266-4.324,12.662,0.31    c3.397,4.323,3.397,9.267,4.326,14.206c-0.01-0.034,6.06-2.76,6.651-2.994c3.378-1.335,11.611-1.81,12.084,3.24    c0.618,6.625-4.764,11.317-9.988,14.294c-1.342,0.768-2.73,1.441-4.126,2.099c-4.929,2.302-17.433,7.609-20.084-0.221    C234.386,298.63,230.798,284.552,235.731,276.167z"/>
	</g>
	<g>
		<path style="fill-rule:evenodd;clip-rule:evenodd;fill:#074781;" d="M397.759,70.448c-0.095-1.072-0.312-2.146-0.585-3.218    c-8.06-10.912-18.442-20.01-30.028-24.817c-25.049-10.39-59.139-10.898-88.288-1.962c-7.389,4.607-12.118,11.123-3.288,19.221    c9.688,9.344,28.446,0.195,38.677,0.122c-1.221,14.436-11.164,39.372,6.896,46.193c24.221,9.848,36.297-30.863,48.273-43.849    c3.778,7.32,5.783,16.91,13.861,20.982C392.491,87.768,398.502,78.731,397.759,70.448z"/>
	</g>
	<path style="fill:#FFFFFF;" d="M394.957,407.261c0,3.472-2.815,6.291-6.29,6.291c-3.472,0-6.287-2.819-6.287-6.291   c0-3.477,2.815-6.291,6.287-6.291C392.142,400.97,394.957,403.784,394.957,407.261z"/>
	<path style="fill:#FFFFFF;" d="M348.042,59.735c0,3.468-2.815,6.286-6.291,6.286c-3.473,0-6.286-2.818-6.286-6.286   c0-3.476,2.814-6.296,6.286-6.296C345.227,53.439,348.042,56.26,348.042,59.735z"/>
	<path style="fill:#FFFFFF;" d="M151.268,177.923c0,3.472-2.815,6.291-6.291,6.291c-3.473,0-6.286-2.819-6.286-6.291   c0-3.476,2.813-6.291,6.286-6.291C148.453,171.632,151.268,174.447,151.268,177.923z"/>
	<path style="fill:#FFFFFF;" d="M181.224,84.914c0,3.468-2.814,6.287-6.291,6.287c-3.472,0-6.287-2.819-6.287-6.287   c0-3.477,2.815-6.293,6.287-6.293C178.41,78.621,181.224,81.438,181.224,84.914z"/>
</g>















</svg>
