<svg height="512" viewBox="0 0 128 128" width="512" xmlns="http://www.w3.org/2000/svg"><g fill-rule="evenodd"><path d="m113.694 55.318a10 10 0 0 0 -4.75 1.345l-4.15 2.4a9.86 9.86 0 0 0 -4.843 8.42 9.738 9.738 0 0 0 -9.945-.06l-8.517 5.1a2.534 2.534 0 0 1 -2.481-4.423l26.815-15.482a10.032 10.032 0 0 0 -10.032-17.378l-9.694 5.6a6.606 6.606 0 0 0 -2.928-4.674 9.844 9.844 0 0 0 3.217-8.072 9.971 9.971 0 0 0 10.753.525l5.476-3.166a10.032 10.032 0 1 0 -10.034-17.378l-5.474 3.161a9.967 9.967 0 0 0 -4.923 9.57 9.843 9.843 0 0 0 -10.753-.52l-22.271 12.858c-.006-.015 0-.029-.009-.044l-.716-2 1.135-1.8a4.249 4.249 0 0 0 -5.027-6.276l-2 .714-1.8-1.141a4.25 4.25 0 0 0 -6.271 5.028l.716 2-1.139 1.8a4.254 4.254 0 0 0 5.019 6.275l2.007-.716.685.432-20.16 11.644a35.137 35.137 0 0 0 -12.877 48.029 34.861 34.861 0 0 0 6.822 8.243l-.516.738-2.126.117a4.254 4.254 0 0 0 -2.193 7.733l1.747 1.216.119 2.131a4.256 4.256 0 0 0 7.73 2.194l1.221-1.751 2.125-.117a4.17 4.17 0 0 0 3.821-5.082 34.921 34.921 0 0 0 29.282-2.551h.006l21.425-12.46a4.074 4.074 0 0 0 1.842 5.423l1.909.947.434 2.089a4.253 4.253 0 0 0 7.974 1.021l.942-1.908 2.084-.432a4.25 4.25 0 0 0 1.029-7.972l-1.906-.943-.434-2.091a4.139 4.139 0 0 0 -2.272-2.88l10.312-6a9.89 9.89 0 0 0 4.833-8.427 9.876 9.876 0 0 0 9.894.106l4.151-2.4a10.036 10.036 0 0 0 -5.282-18.722z" fill="#fff"/><path d="m97.666 38.485-15.584 9a6.282 6.282 0 0 1 -6.268-10.885l3.775-2.18a6.282 6.282 0 0 0 -6.282-10.881l-49.837 28.769a31.41 31.41 0 0 0 31.41 54.4l43.334-25.2a6.281 6.281 0 1 0 -6.282-10.879l-8.516 5.1a6.283 6.283 0 0 1 -6.284-10.883l26.817-15.482a6.282 6.282 0 0 0 -6.283-10.881z" fill="#fbe986"/><path d="m19.835 58.623a28.466 28.466 0 1 0 40.226 1.548 28.477 28.477 0 0 0 -40.226-1.548z" fill="#f6a43d"/><path d="m23.562 62.649a22.979 22.979 0 1 0 32.474 1.251 22.988 22.988 0 0 0 -32.474-1.251z" fill="#f47d20"/><g fill="#f6a43d"><path d="m49.569 63.211a11.763 11.763 0 0 0 -1.515-1.43 3.8 3.8 0 0 0 -2.348-.907 3.727 3.727 0 0 0 -2.18.755 9.995 9.995 0 0 0 -3.086 4.426 16.3 16.3 0 0 0 -1.2 5.754c-.012 1.837.388 3.506 1.55 4.4s2.815.808 4.413.191a10.868 10.868 0 0 0 4.42-3.3 8.016 8.016 0 0 0 1.918-5.385 6.79 6.79 0 0 0 -.8-2.838 8.709 8.709 0 0 0 -1.172-1.666zm-.769 9.229a9.9 9.9 0 0 1 -3.975 2.973 3.561 3.561 0 0 1 -3.379-.044c-.727-.562-1.146-1.882-1.136-3.55a15.363 15.363 0 0 1 1.121-5.369 9.213 9.213 0 0 1 2.719-3.957 2.65 2.65 0 0 1 1.558-.559 2.7 2.7 0 0 1 1.691.68 10.806 10.806 0 0 1 1.379 1.3 7.571 7.571 0 0 1 1.022 1.461 5.726 5.726 0 0 1 .681 2.4 6.971 6.971 0 0 1 -1.681 4.665z"/><path d="m57.36 78.128a2.092 2.092 0 0 0 -.133-.185 1.8 1.8 0 0 0 -.671-.537 2.293 2.293 0 0 0 -1.652-.017 8.75 8.75 0 0 0 -3.311 2.328 14.368 14.368 0 0 0 -2.568 3.542 5.275 5.275 0 0 0 -.541 1.694 1.79 1.79 0 0 0 .422 1.484 1.72 1.72 0 0 0 1.128.462 4.651 4.651 0 0 0 1.391-.13 9.862 9.862 0 0 0 3.182-1.408 8.059 8.059 0 0 0 2.63-2.723 4.84 4.84 0 0 0 .423-3.838 2.82 2.82 0 0 0 -.3-.672zm-1.053 4a7.088 7.088 0 0 1 -2.288 2.354 8.954 8.954 0 0 1 -2.827 1.257 3.683 3.683 0 0 1 -1.07.1.875.875 0 0 1 -.458-.14.746.746 0 0 1 -.123-.631 4.422 4.422 0 0 1 .443-1.344 13.5 13.5 0 0 1 2.372-3.266 8.177 8.177 0 0 1 2.868-2.058 1.266 1.266 0 0 1 .893-.027.766.766 0 0 1 .347.321 1.825 1.825 0 0 1 .182.415 3.7 3.7 0 0 1 -.339 3.015z"/><path d="m55.669 63.488q-.541-.541-1.117-1.046a.25.25 0 0 0 -.088.2 13.228 13.228 0 0 1 .259 3.025c-.14 5.18-3.074 11.243-8.661 16.653-5.653 5.471-9.862 9.12-11.862 13.291a12.271 12.271 0 0 0 -1.207 6.076q.521.146 1.047.265a.235.235 0 0 0 .015-.091 11.21 11.21 0 0 1 1.1-5.788c1.85-3.859 5.975-7.5 11.645-12.995 5.738-5.555 8.832-11.83 8.982-17.384a14.485 14.485 0 0 0 -.113-2.206z"/><path d="m32.209 57.58q-.5.174-1 .37v.013c1.319 2.877 1.018 5.481-.022 6.887a2.746 2.746 0 0 1 -2.39 1.211 5.3 5.3 0 0 1 -3.453-1.881c-.514-.529-1.048-1.125-1.593-1.745l-.226.181c-.181.186-.358.376-.533.568.538.609 1.071 1.2 1.59 1.735a6.33 6.33 0 0 0 4.179 2.2 3.879 3.879 0 0 0 3.281-1.64c1.334-1.8 1.58-4.769.162-7.9z"/><path d="m61.481 74.033a.247.247 0 0 0 -.136.084 22.921 22.921 0 0 0 -1.059 4.256 15.973 15.973 0 0 1 -2.343 6.321c-1.427 2.074-3.781 4.079-7.99 5.759-7.487 2.99-10.3 7.679-10.985 12.006a.26.26 0 0 0 .02.071q.522 0 1.043-.015c.642-3.979 3.155-8.217 10.315-11.076 4.354-1.739 6.918-3.878 8.475-6.139a17.005 17.005 0 0 0 2.505-6.72c.186-.953.354-1.847.566-2.669q-.167-.945-.411-1.875z"/><path d="m36.691 56.677c-.09.254-.178.511-.255.783-1.294 4.531-.908 11.236-.3 18.24.606 6.919-.434 11.959-2.768 15.525a15.459 15.459 0 0 1 -8.468 6.153.252.252 0 0 0 -.1.121q.459.368.937.71a16.4 16.4 0 0 0 8.523-6.4c2.506-3.829 3.557-9.126 2.938-16.2-.612-6.981-.944-13.655.256-17.859a11.158 11.158 0 0 1 .37-1.078.255.255 0 0 0 -.016-.113q-.559.041-1.117.118z"/><path d="m26.439 69.722a10.527 10.527 0 0 0 -1.333-1.78q-.26-.277-.534-.526a6.968 6.968 0 0 0 -3.709-1.8q-.339.461-.656.937a.254.254 0 0 0 .11.073 5.746 5.746 0 0 1 3.541 1.578c2.57 2.325 4.265 7.127 3.249 13.2-.884 5.279-3.687 9.479-5.855 12.474q.33.434.681.85a.247.247 0 0 0 .049-.042c2.2-3.025 5.224-7.443 6.172-13.106.81-4.835.007-8.979-1.716-11.854z"/><path d="m45.72 69.866a1.816 1.816 0 1 0 .374.614 1.791 1.791 0 0 0 -.374-.614zm-.488 2.144a1.242 1.242 0 1 1 .068-1.755 1.238 1.238 0 0 1 -.068 1.755z"/><path d="m30.532 75.187a1.353 1.353 0 1 0 1.912.073 1.358 1.358 0 0 0 -1.912-.073z"/><path d="m22.6 84.414a2.171 2.171 0 1 0 3.068.118 2.181 2.181 0 0 0 -3.068-.118z"/><path d="m41.763 64.647c2.164 3.215 7.79 1.121 6.281-2.077-.879-.695-3.267-2.981-6.281 2.077z"/><path d="m46.4 82.172a2.172 2.172 0 1 0 -2.783 3.286 23.765 23.765 0 0 0 3.031-2.96 2.173 2.173 0 0 0 -.248-.326z"/><path d="m77.184 38.967a3.542 3.542 0 1 0 4.839 1.3 3.542 3.542 0 0 0 -4.839-1.3z"/><path d="m92.879 72.757a3.712 3.712 0 1 0 5.07 1.359 3.712 3.712 0 0 0 -5.07-1.359z"/><path d="m58.735 38.445a5.851 5.851 0 1 0 5.065 2.926 5.854 5.854 0 0 0 -5.065-2.926z"/></g><path d="m94.457 11.322-5.474 3.161a6.282 6.282 0 1 0 6.282 10.881l5.475-3.164a6.282 6.282 0 0 0 -6.283-10.881z" fill="#fbe986"/><path d="m110.82 59.907-4.152 2.4a6.282 6.282 0 0 0 6.283 10.881l4.151-2.4a6.282 6.282 0 0 0 -6.282-10.881z" fill="#fbe986"/><path d="m45.812 26.548-2.248.8a3.224 3.224 0 0 1 -2.808-.311l-2.018-1.275a.5.5 0 0 0 -.74.592l.8 2.248a3.224 3.224 0 0 1 -.311 2.808l-1.275 2.018a.5.5 0 0 0 .592.739l2.248-.8a3.227 3.227 0 0 1 2.808.31l2.018 1.276a.5.5 0 0 0 .739-.592l-.8-2.248a3.224 3.224 0 0 1 .311-2.808l1.272-2.017a.5.5 0 0 0 -.592-.74z" fill="#fbe986"/><path d="m92.736 100.026-2.136-1.059a3.225 3.225 0 0 1 -1.726-2.236l-.484-2.338a.5.5 0 0 0 -.94-.121l-1.059 2.139a3.227 3.227 0 0 1 -2.236 1.727l-2.338.484a.5.5 0 0 0 -.121.939l2.139 1.06a3.225 3.225 0 0 1 1.727 2.236l.484 2.338a.5.5 0 0 0 .939.121l1.06-2.14a3.223 3.223 0 0 1 2.236-1.726l2.338-.484a.5.5 0 0 0 .12-.94z" fill="#fbe986"/><path d="m21.746 111.573a3.229 3.229 0 0 1 -1.376-2.467l-.132-2.384a.5.5 0 0 0 -.364-.455.5.5 0 0 0 -.548.2l-1.364 1.958a3.227 3.227 0 0 1 -2.468 1.377l-2.383.132a.5.5 0 0 0 -.259.911l1.959 1.365a3.226 3.226 0 0 1 1.377 2.467l.132 2.383a.5.5 0 0 0 .911.259l1.364-1.959a3.229 3.229 0 0 1 2.468-1.376l2.383-.132a.5.5 0 0 0 .259-.911z" fill="#fbe986"/></g></svg>