<svg id="Space" height="512" viewBox="245.67 245.669 708.662 708.662" width="512" xmlns="http://www.w3.org/2000/svg"><g><path d="m344.735 538.866c-28.568 145.417 67.77 295.227 216.354 317.266 144.19 21.371 289.72-86.9 298.739-234.252 7.582-123.954-80.867-248.476-203.648-275.101-132.307-28.7-284.596 55.448-311.445 192.087z" fill="#fff"/><g><path d="m651.513 368.312c-13.363-2.896-27.01-4.476-40.668-4.859-42.74-.86-85.938 9-124.065 28.134-58.109 29.156-96.893 75.705-113.961 126.921-17.313 51.945-12.623 111.552 5.588 162.658 15.479 43.451 42.732 81.322 79.684 108.992 30.887 23.131 68.061 38.52 106.229 44.18 39.774 5.891 80.351.555 117.979-13.424 43.938-16.33 83.563-43.807 112.07-81.244 31.586-41.467 46.305-93.846 43.563-145.74-5.487-103.799-83.593-203.315-186.419-225.618z" fill="#68182b"/><path d="m610.845 379.651c41.021 1.154 79.139 15.246 111.412 38.024 9.871 6.976 5.75 9.415-2.338 12.594-6.824 2.683-13.859 4.839-20.855 6.742-19.416 5.284-39.402 8.443-59.416 10.286-42.662 3.907-87.214 2.874-128.823-8.1-9.77-2.581-19.68-5.791-29.014-10.123-10.66-4.94-17.1-6.459-.244-16.33 28.498-16.684 60.723-27.566 93.784-31.424 11.785-1.386 23.64-1.903 35.494-1.669z" fill="#ff7a0d"/><path d="m459.569 427.374c11.916 8.423 25.604 14.233 39.492 18.566 20.42 6.349 41.76 9.679 63.029 11.48 43.997 3.736 89.655 1.235 132.63-9.253 15.379-3.746 31.334-8.605 45.182-16.663 11.541 9.972 22.121 21.118 31.588 33.185 6.053 7.746 4.787 10.164-2.521 10.205-9.709.071-19.994-1.993-28.641-2.552-12.705-.819-26.564.486-38.248 5.872-13.008 5.993-24.711 14.144-36.85 21.686-18.637 11.571-36.09 14.507-57.705 14.923-57.056 1.072-129.409-3.23-180.827-35.1-10.043-6.236-12.717-6.601-5.447-15.57 11.126-13.748 24.054-26.078 38.318-36.779z" fill="#ff2e60"/><path d="m703.671 793.983c-34.979 17.867-75.078 28.135-114.48 26.584-34.196-1.346-68.181-11.48-97.985-28.184-21.078-11.805-39.826-27.08-55.65-45.031-9.91-11.227-6.52-8.635 5.193-4.332 47.156 17.342 98.727 22.828 148.563 23.66 56.512.939 114.115-5.73 168.773-21.201 13.576-3.836 12.381-2.023 5.709 4.748-17.424 17.688-37.892 32.397-60.123 43.756z" fill="#ff7a0d"/><path d="m762.995 733.89c-54.285 16.146-111.098 22.961-167.711 23.111-54.454.141-112.128-6.164-162.907-27.617-12.939-5.457-18.031-9.416-24.672-21.736-8.373-15.529-15.045-32.375-19.924-49.848-1.873-6.703-2.379-10.297 5.496-4.922 3.381 2.299 6.389 5.234 8.787 9.447 4.607 8.078 12.453 14.477 19.561 20.186 11.582 9.283 24.307 14.68 38.783 17.09 35.221 5.85 72.293 3.654 107.796 2.449 38.57-1.305 77.164-3.514 115.662-6.096 43.129-2.904 88.848-8.594 128.754-26.543-3.795 12.199-8.715 24.033-14.811 35.24-2.156 3.959-4.445 7.836-6.863 11.611-6.468 10.124-12.787 13.122-27.951 17.628z" fill="#ff2e60"/><path d="m806.173 606.837c-35.678 17.959-78.227 23.891-117.072 28.336-40.018 4.566-82.385 7.492-121.727-3.006-30.886-8.252-57.835-26.697-88.308-36.092-16.807-5.184-34.734-5.518-51.863-2.076-11.045 2.217-23.234 4.363-35.027 3.646-9.893-.609-14.021-4.264-13.961-11.25.07-9.141.656-18.232 1.801-27.161 1.084-8.393 2.744-16.563 4.881-24.51 55.74 40.93 136.436 46.741 202.765 48.098 22.648.465 45.264-1.449 67.891-.699 25.541.84 50.699 5.285 76.303 3.027 33.236-2.936 55.416-26.686 78.934-47.429 2.785 8.402 5.123 16.957 6.936 25.633 1.396 6.691 2.449 13.464 3.178 20.279 1.396 13.059-2.653 17.13-14.731 23.204z" fill="#ff2e60"/><path d="m695.886 644.112c-41.469 4.738-86.488 9.334-127.459-1.611-33.952-9.061-63.808-31.828-98.138-38.621-30.807-6.104-61.4 8.838-91.539 1.387.709 10.59 2.086 21.18 4.102 31.648 6.307 2.52 14.07 4.666 18.951 9.039 7.227 6.48 10.68 15.732 18.029 22.334 14.477 12.979 29.572 20.631 48.746 22.688 34.744 3.715 70.076 2.529 104.931 1.164 34.543-1.357 69.125-3.139 103.617-5.457 46.598-3.129 96.568-8.322 138.928-29.643 3.836-15.682 5.881-31.809 6.072-47.967-37.234 22.557-83.742 30.19-126.24 35.039zm-180.05 13.071c-2.5 14.941-34.016 14.283-43.594 14.09-15.398-.291-33.113-8.533-35.107-24.619-.406-3.32.131-8.191 2.51-12.271 6.57-11.246 22.506-12.299 35.059-8.918 13.23 3.571 44.179 13.495 41.132 31.718z" fill="#ff7a0d"/><path d="m506.36 654.782c-3.461 7.938-24.691 6.459-31.1 6.732-10.125.426-24.064-3.158-27.668-13.121-1.256-3.502-.162-9.264 2.926-11.977 14.234-12.511 58.293 12.769 55.842 18.366z" fill="#fac135"/><path d="m803.075 517.566c-5.307-12.159-11.623-23.861-18.822-34.978-9.889 2.916-20.701 1.387-31.342.436-23.953-2.136-43.592.455-64.133 13.464-13.98 8.849-28.287 19.712-44.443 24.277-16.148 4.565-33.328 4.049-49.99 3.796-60.519-.911-133.937-6.936-184.614-44.686-7.422 11.227-13.709 23.223-18.65 35.929-3.906 10.053-1.225 11.257 9.346 17.95 54.688 34.663 132.285 39.319 193.796 39.421 20.41.04 40.961-1.903 61.33-.771 21.037 1.155 42.348 4.659 63.445 3.838 33.854-1.316 54.516-18.69 77.496-38.906 8.038-7.055 10.224-11.419 6.581-19.77zm-69.732 36.476c-13.77 1.983-56.379 8.523-59.699-13.07-2.805-18.182 28.559-32.547 40.424-38.115 18.262-8.574 45.09-9.293 54.395 11.886.049.101.029.191.07.283.131.304.334.526.426.88 5.779 22.322-16.089 35.321-35.616 38.136z" fill="#ff7a0d"/><path d="m730.761 544.667c-7.857 1.549-53.979 4.829-45.951-9.688 5.699-10.306 20.996-16.653 30.785-21.998 13.748-7.522 36-10.69 44.049 5.861 4.07 16.926-15.783 23.243-28.883 25.825z" fill="#fac135"/><g fill="#ef6200"><path d="m600.398 674.655c-22.252 1.225-44.493 3.744-66.593 6.539-25.178 3.17-49.059 7.168-73.67-1.387-12.178-4.23-23.082-10.428-32.051-19.721-6.43-6.66-11.541-14.537-17.799-21.371-7.977-8.707-18.475-14.801-29.844-16.775.658 5.012 1.447 10.002 2.41 14.975 6.307 2.52 14.07 4.666 18.951 9.039 7.227 6.48 10.68 15.732 18.029 22.334 14.477 12.979 29.572 20.631 48.746 22.688 34.744 3.715 70.076 2.529 104.931 1.164 34.543-1.357 69.125-3.139 103.617-5.457 46.598-3.129 96.568-8.322 138.928-29.643.719-2.945 1.314-5.922 1.902-8.898-19.963 10.457-42.803 15.68-65.299 19.549-50.252 8.654-101.579 4.169-152.258 6.964z"/><path d="m725.669 564.722c-20.115 2.489-40.516.304-60.662-.558-21.855-.941-43.764-.627-65.631-.587-44.442.071-88.339-1.396-131.638-12.381-21.502-5.458-42.176-13.475-61.584-24.226-6.67-3.695-11.459-7.734-14.588-12.311-.15.384-.334.759-.486 1.144-3.906 10.053-1.225 11.257 9.346 17.95 54.688 34.663 132.285 39.319 193.796 39.421 20.41.04 40.961-1.903 61.33-.771 21.037 1.155 42.348 4.659 63.445 3.838 33.854-1.316 54.516-18.69 77.496-38.906 8.039-7.057 10.225-11.42 6.582-19.771-1.672-3.827-3.484-7.593-5.346-11.328-1.691 12.462-5.973 24.114-15.723 34.117-14.558 14.943-36.19 21.868-56.337 24.369z"/><path d="m471.444 779.759c6.338 4.547 12.908 8.787 19.762 12.625 29.805 16.703 63.789 26.838 97.985 28.184 39.402 1.551 79.502-8.717 114.48-26.584 14.141-7.229 27.566-15.822 39.957-25.674-43.006 17.342-88.4 27.668-135.293 29.904-44.038 2.107-94.706-.395-136.891-18.455z"/><path d="m532.895 392.66c3.33-2.075 6.863-3.746 10.467-5.284-21.695 5.599-42.6 14.132-61.795 25.369-16.855 9.871-10.416 11.39.244 16.33 9.334 4.332 19.244 7.542 29.014 10.123 41.609 10.974 86.161 12.007 128.823 8.1 20.014-1.843 40-5.002 59.416-10.286 6.996-1.903 14.031-4.06 20.855-6.742 7.299-2.865 11.328-5.152 4.809-10.681-10.549 4.252-21.605 7.269-30.857 9.689-27 7.056-55.135 10.001-82.963 11.085-25.867 1.021-55.7 1.862-79.31-9.912-21.512-10.721-19.123-25.097 1.297-37.791z"/></g><path d="m738.638 728.321c-42.602 11.287-88.289 15.408-132.197 17.504-43.185 2.064-86.747-1.387-128.124-14.387-27.586-8.676-63.646-23.932-82.346-49.262 3.443 8.777 7.34 17.313 11.734 25.471 6.641 12.32 11.732 16.279 24.672 21.736 50.779 21.453 108.453 27.758 162.907 27.617 56.613-.15 113.426-6.965 167.711-23.111 15.164-4.506 21.482-7.504 27.951-17.627 2.418-3.775 4.707-7.652 6.863-11.611.617-1.145 1.176-2.318 1.771-3.473-18.444 11.977-38.286 21.139-60.942 27.143z" fill="#ea0f4d"/><path d="m378.791 571.951c-.334 4.789-.537 9.607-.576 14.445-.061 6.986 4.068 10.641 13.961 11.25 11.793.717 23.982-1.43 35.027-3.646 17.129-3.441 35.057-3.107 51.863 2.076 30.473 9.395 57.422 27.84 88.308 36.092 39.342 10.498 81.709 7.572 121.727 3.006 38.846-4.445 81.395-10.377 117.072-28.336 12.078-6.074 16.127-10.145 14.729-23.203-.252-2.4-.607-4.799-.941-7.189-4.697 7.988-10.486 15.246-18.688 21.271-16.422 12.066-39.139 17.279-58.818 21.127-48.068 9.395-97.057 17.939-145.934 9.537-21.664-3.727-42.884-11.633-62.685-20.955-17.129-8.059-32.68-18.963-50.871-24.621-17.545-5.447-35.504-.467-52.848 3.137-13.281 2.754-27.535 4.254-40.1-1.963-5.183-2.562-8.685-6.966-11.226-12.028z" fill="#ea0f4d"/><path d="m626.081 501.387c-21.867 6.419-45.061 7.653-67.716 6.773-25.299-.982-125.727-12.918-131.82-50.143-1.781 2.035-3.594 4.039-5.295 6.135-7.27 8.97-4.596 9.334 5.447 15.57 51.418 31.869 123.771 36.172 180.827 35.1 21.615-.416 39.068-3.352 57.705-14.923 12.139-7.542 23.842-15.692 36.85-21.686 11.684-5.386 25.543-6.691 38.248-5.872 7.301.466 15.754 1.945 24.055 2.369-8.191-2.125-16.4-4.798-24.701-6.762-19.064-4.525-37.479-.355-55.215 7.046-19.924 8.334-37.437 20.239-58.385 26.393z" fill="#ea0f4d"/><path d="m447.592 648.394c3.604 9.963 17.543 13.547 27.668 13.121 5.721-.242 23.215.891 29.379-4.516-9.416 1.914-19.215 1.246-29.176-.82-11.725-2.428-24.754-7.754-25.695-18.779-2.44 2.935-3.311 7.835-2.176 10.994z" fill="#ffa222"/><path d="m730.761 544.667c10.752-2.125 26.037-6.772 28.924-17.727-6.541 5.912-15.105 9.183-24.57 11.45-10.711 2.562-41.842 3.563-40.545-13.556-4.08 2.926-7.613 6.246-9.76 10.144-8.028 14.518 38.094 11.237 45.951 9.689z" fill="#ffa222"/><path d="m670.656 405.102c-32.172-15.844-91.811-19.894-109.435 4.14-8.555 11.663 28.011 7.026 29.763 6.864 26.24-2.46 52.125-4.98 78.396-4.809 6.49.05 12.26-.789 1.276-6.195z" fill="#ffb85a"/><path d="m492.573 517.9c34.248 8.767 70.156 11.845 105.396 12.654 35.707.81 65.045-7.41 94.029-28.225 16.107-11.562 32.426-15.419 52.035-16.41 9.689-.486 19.316.282 28.67-1.66-6.488.172-13.17-.648-19.791-1.235-23.953-2.136-43.592.455-64.133 13.464-13.98 8.849-28.287 19.712-44.443 24.277-16.148 4.565-33.328 4.049-49.99 3.796-55.731-.84-122.345-6.074-172.122-36.364 19.608 15.794 46.882 23.71 70.349 29.703z" fill="#ffb85a"/><path d="m695.886 644.112c-41.469 4.738-86.488 9.334-127.459-1.611-33.952-9.061-63.808-31.828-98.138-38.621-29.055-5.75-57.918 7.188-86.385 2.43 5.344 2.42 11.51 3.15 17.492 3.594 18.162 1.348 36.375-2.521 54.518-2.691 36.951-.355 64.82 25.176 98.625 35.889 36.636 11.6 75.612 13.484 113.585 9.707 32.873-3.27 66.99-7.703 98.697-17.059 16.664-4.908 37.58-10.994 50.447-23.891-36.374 20.378-80.706 27.605-121.382 32.253z" fill="#ffb85a"/><path d="m758.085 745.479c-54.658 15.471-112.262 22.141-168.773 21.201-49.837-.832-101.407-6.318-148.563-23.66-2.592-.951-4.758-1.813-6.479-2.461 29.307 20.986 72.252 25.078 106.217 28.072 50.386 4.467 101.905 3.068 152.067-3.299 24.094-3.057 47.318-8.393 69.965-17.373.404-.15 2.502-1.012 5.426-2.318 1.964-2.753-.182-2.894-9.86-.162z" fill="#ffb85a"/><path d="m562.09 457.42c-21.27-1.802-42.609-5.132-63.029-11.48-13.889-4.333-27.576-10.144-39.492-18.566-2.521 1.893-4.951 3.897-7.381 5.892 44.748 25.077 101.744 29.966 151.794 29.045 29.359-.536 58.748-4.354 87.023-12.341 5.658-1.6 11.693-3.381 17.656-5.558-4.646 1.387-9.324 2.633-13.941 3.756-42.975 10.488-88.633 12.989-132.63 9.252z" fill="#f69"/><path d="m683.866 695.954c-38.498 2.582-77.092 4.791-115.662 6.096-35.503 1.205-72.575 3.4-107.796-2.449-9.639-1.611-18.486-4.566-26.746-9.082 14.518 9.729 30.623 15.369 47.916 17.818 39.096 5.547 80.463.232 119.649-2.076 41.537-2.439 83.137-4.02 124.461-9.172 24.256-3.016 46.074-8.848 66.664-19.852-34.722 11.813-72.486 16.299-108.486 18.717z" fill="#f69"/><path d="m635.345 585.962c27.426.344 54.324 4.889 81.658 6.682 29.309 1.922 52.248-10.621 74.916-28.185 7.703-5.983 14.668-12.918 20.732-20.551-.627-2.065-1.186-4.141-1.863-6.186-23.518 20.743-45.697 44.494-78.934 47.429-25.604 2.258-50.762-2.188-76.303-3.027-22.627-.75-45.242 1.164-67.891.699-28.667-.588-60.011-2.016-90.868-6.742 18.932 6.953 40.98 7.572 60.631 8.363 25.957 1.041 51.955 1.184 77.922 1.518z" fill="#f69"/></g></g></svg>