<svg height="512" viewBox="0 0 128 128" width="512" xmlns="http://www.w3.org/2000/svg"><path d="m113.2 70.84a53.1 53.1 0 0 1 -45.842-12.118l-.006-.006a53.282 53.282 0 0 1 -4.058-4.064l.482.006 1.2 1.589a4.184 4.184 0 0 0 7.512-2.469l.03-1.991 1.581-1.2a4.182 4.182 0 0 0 -2.461-7.517l-1.993-.03-1.206-1.587a4.178 4.178 0 0 0 -7.507 2.467l-.03 1.99-1.585 1.21a3.752 3.752 0 0 0 -.862 1.246 53.082 53.082 0 0 1 -8.7-33.7c.401-4.866-2.019-9.718-7.294-9.666a9.72 9.72 0 0 0 -4.486 1.251 60.341 60.341 0 0 0 -9.675 6.6l-.5-.785.672-1.876a4.152 4.152 0 0 0 -4.248-5.581 4.108 4.108 0 0 0 -1.92.635l-1.683 1.063-1.868-.668a4.179 4.179 0 0 0 -4.953 6.161l1.063 1.684-.674 1.878a4.185 4.185 0 0 0 6.172 4.942l.609-.386a60.223 60.223 0 0 0 -6.1 8.59c-.218-.014-.419-.127-.638-.127a10.213 10.213 0 0 0 -10.232 10.237v.01a10.2 10.2 0 0 0 3.825 7.933 60.327 60.327 0 0 0 18.9 58.04 59.974 59.974 0 0 0 11.3 7.735 8.873 8.873 0 0 0 -.425 2.114v.014a8.887 8.887 0 0 0 16.888 3.92 60.318 60.318 0 0 0 57.633-18.979l.006-.008.006-.007a60.481 60.481 0 0 0 10.858-17.89c2.833-7.263-2.666-12.139-9.791-10.66z" fill="#fff" fill-rule="evenodd"/><path d="m80.686 23.1a7.048 7.048 0 1 0 7.051 7.047 7.024 7.024 0 0 0 -7.051-7.047z" fill="#fff" fill-rule="evenodd"/><path d="m121.888 50.425-4.27-2.87a3.25 3.25 0 0 1 -1.429-2.459l-.37-5.124a4.783 4.783 0 0 0 -8.741-2.327l-2.865 4.27a3.252 3.252 0 0 1 -2.465 1.427l-5.13.374a4.784 4.784 0 0 0 -2.32 8.733l4.272 2.871a3.249 3.249 0 0 1 1.43 2.459l.371 5.136a4.784 4.784 0 0 0 8.736 2.316l2.868-4.272a3.252 3.252 0 0 1 2.461-1.427l5.132-.371a4.785 4.785 0 0 0 2.32-8.736z" fill="#fff" fill-rule="evenodd"/><circle cx="14.236" cy="38.619" fill="#f79670" r="6.536"/><g fill-rule="evenodd"><path d="m113.957 74.462a56.8 56.8 0 0 1 -49.057-12.978 56.8 56.8 0 0 1 -18.837-47.122c.384-4.605-2.264-7.043-6.333-4.855a56.8 56.8 0 1 0 79.814 70.653c1.678-4.305-1.064-6.637-5.587-5.698z" fill="#fbe986"/><path d="m28.119 73.319a16.445 16.445 0 0 0 -16.975-2.919 56.805 56.805 0 0 0 15.361 28.729 16.378 16.378 0 0 0 1.614-25.81z" fill="#f6a43d"/><path d="m72.273 66.887a16.331 16.331 0 0 0 31.467 8.613 56.8 56.8 0 0 1 -31.467-8.613z" fill="#f6a43d"/><path d="m10.148 60.896h-.001z" fill="#f6a43d"/><path d="m66.369 85.32a15.638 15.638 0 0 0 -5.753-5.046 6.95 6.95 0 0 0 -5.313-.285 8.923 8.923 0 0 0 -3.291 2.187 17.718 17.718 0 0 0 -3.8 6.415c-1.425 3.972-1.857 8.493-.864 11.991a7.88 7.88 0 0 0 2.68 4.25 6.832 6.832 0 0 0 5.2 1.149c7.882-1.087 20.5.868 27.693 4.36a17.037 17.037 0 0 1 3.492 2.182q.569-.225 1.13-.461a16.7 16.7 0 0 0 -4.139-2.717c-7.5-3.641-20.116-5.591-28.327-4.459a5.653 5.653 0 0 1 -4.379-.937 6.786 6.786 0 0 1 -2.281-3.671c-.9-3.169-.516-7.529.841-11.312s3.686-6.948 6.421-7.935a5.747 5.747 0 0 1 4.481.252 14.617 14.617 0 0 1 5.326 4.707c7.712 10.158 15.3 18.147 23.409 21.776a24.478 24.478 0 0 0 4.629 1.556q.737-.406 1.46-.833a23.147 23.147 0 0 1 -5.636-1.734c-7.791-3.486-15.311-11.333-22.979-21.435z" fill="#f6a43d"/><path d="m41.494 32.1c-2.468-2.388-5.58-3.935-8.456-5.395s-5.506-2.844-7.07-4.763a7.443 7.443 0 0 1 -.768-1.165q-.411.4-.812.8a8.218 8.218 0 0 0 .721 1.061c1.778 2.18 4.546 3.588 7.426 5.052s5.886 2.972 8.189 5.2a13.35 13.35 0 0 1 4.126 9.61c.189 4.5-.775 8-2.493 10.469a10.158 10.158 0 0 1 -7.143 4.344c-5.916.83-13.839-2.638-20.9-11.249a18.116 18.116 0 0 0 -2.049-2.1c-.112.392-.219.787-.322 1.182a18.208 18.208 0 0 1 1.515 1.626c7.221 8.812 15.44 12.55 21.9 11.643a11.342 11.342 0 0 0 7.9-4.809c1.887-2.712 2.885-6.467 2.688-11.147a14.59 14.59 0 0 0 -4.452-10.359z" fill="#f6a43d"/><path d="m10.148 60.9c-.006.369-.009.738-.007 1.106 13.292.678 23.824 4.965 29.145 11.907 5.619 7.333 5.626 17.683-3.121 30.433-.454.661-.853 1.3-1.241 1.936q.47.294.945.577c.377-.618.764-1.24 1.208-1.887 8.908-12.984 9.015-24 3.087-31.732-5.62-7.34-16.487-11.668-30.016-12.34z" fill="#f6a43d"/><path d="m68.021 70.545c-.552 2.884-1.569 4.7-2.8 5.714a5 5 0 0 1 -4.343.958c-3.306-.637-7.25-3.774-10.1-7.953s-4.62-9.364-3.878-13.977a11.793 11.793 0 0 1 3.159-6.39 14.917 14.917 0 0 1 3.029-2.382q-.269-.472-.53-.951a16.238 16.238 0 0 0 -3.289 2.6 12.906 12.906 0 0 0 -3.461 6.946c-.808 5.013 1.086 10.425 4.058 14.778s7.014 7.686 10.806 8.417a6.187 6.187 0 0 0 5.257-1.192c1.5-1.232 2.6-3.312 3.18-6.359a41.8 41.8 0 0 1 1.291-5.048q-.471-.353-.934-.716a42.286 42.286 0 0 0 -1.445 5.555z" fill="#f6a43d"/><path d="m63.177 92.08c-1.77-1.34-2.783-2.445-2.789-4.15a3.363 3.363 0 0 0 -.509-1.914 2.276 2.276 0 0 0 -1.391-.937 4.37 4.37 0 0 0 -3.456 1.013 7.442 7.442 0 0 0 -1.544 1.572 8.177 8.177 0 0 0 -.982 7.754 7.955 7.955 0 0 0 4.587 4.491 17.2 17.2 0 0 0 6.619 1.262 13.288 13.288 0 0 0 5.432-.936 2.454 2.454 0 0 0 1.389-1.268 1.677 1.677 0 0 0 -.592-1.769 76.823 76.823 0 0 0 -6.764-5.118z" fill="#f6a43d"/><path d="m29.151 32.841a5.331 5.331 0 0 0 -4.151 2.023 8.686 8.686 0 0 0 -1.848 5.336 7.289 7.289 0 0 0 2.561 5.631 11.554 11.554 0 0 0 5.564 2.719 6.8 6.8 0 0 0 5.269-.811c1.35-1 1.934-2.844 1.224-5.278-1.933-6.63-5.399-9.596-8.619-9.62z" fill="#f6a43d"/><path d="m56.7 61.24a3.285 3.285 0 1 0 2.178.825 3.286 3.286 0 0 0 -2.178-.825z" fill="#f6a43d"/><path d="m91.241 93.292c.5-1.878-3.678-1.153-4.966.3a3.519 3.519 0 0 0 .3 4.966c1.455 1.288 6.15 3.919 5.774 2.013-.338-1.723-1.374-6.277-1.108-7.279z" fill="#f6a43d"/><path d="m43.23 16.226c.5-1.878-3.678-1.153-4.966.3a3.518 3.518 0 0 0 .3 4.966c1.454 1.288 6.149 3.919 5.773 2.013-.337-1.723-1.373-6.277-1.107-7.279z" fill="#f6a43d"/><path d="m28.352 37.931a2.394 2.394 0 0 0 -1.878.921 4.245 4.245 0 0 0 -.861 2.605 3.433 3.433 0 0 0 1.233 2.678 5.905 5.905 0 0 0 2.815 1.373 3.291 3.291 0 0 0 2.472-.343c.547-.405.812-1.077.46-2.287-1.043-3.578-2.82-4.937-4.241-4.947z" fill="#fbe986"/><path d="m60.978 92.813c-1.256-.951-2.184-1.949-2.189-3.413a1.558 1.558 0 0 0 -.217-.878.746.746 0 0 0 -.487-.325 2.345 2.345 0 0 0 -1.729.556 4.412 4.412 0 0 0 -.891.9 4.767 4.767 0 0 0 -.565 4.574 4.625 4.625 0 0 0 2.7 2.61 10.98 10.98 0 0 0 4.2.8 8.623 8.623 0 0 0 3.36-.562 1.152 1.152 0 0 0 .559-.444c.033-.09.042-.16-.2-.382a53.011 53.011 0 0 0 -4.541-3.436z" fill="#fbe986"/><path d="m119.823 53.5-4.27-2.869a6.954 6.954 0 0 1 -3.056-5.266l-.371-5.13a1.078 1.078 0 0 0 -1.973-.524l-2.869 4.27a6.95 6.95 0 0 1 -5.266 3.055l-5.13.372a1.08 1.08 0 0 0 -.525 1.973l4.27 2.869a6.951 6.951 0 0 1 3.056 5.266l.372 5.13a1.08 1.08 0 0 0 1.973.524l2.866-4.27a6.956 6.956 0 0 1 5.266-3.056l5.131-.371a1.08 1.08 0 0 0 .526-1.973z" fill="#fbe986"/><path d="m71.586 46.772-2.286-.034a3.091 3.091 0 0 1 -2.417-1.222l-1.383-1.822a.48.48 0 0 0 -.863.283l-.037 2.288a3.092 3.092 0 0 1 -1.222 2.417l-1.823 1.384a.481.481 0 0 0 .283.863l2.289.033a3.094 3.094 0 0 1 2.417 1.222l1.383 1.823a.481.481 0 0 0 .863-.284l.033-2.288a3.092 3.092 0 0 1 1.222-2.417l1.823-1.383a.48.48 0 0 0 -.284-.863z" fill="#fbe986"/><path d="m24.512 13.789a3.094 3.094 0 0 1 -.3-2.692l.772-2.154a.48.48 0 0 0 -.708-.568l-1.931 1.225a3.1 3.1 0 0 1 -2.693.3l-2.152-.78a.48.48 0 0 0 -.568.708l1.221 1.935a3.1 3.1 0 0 1 .3 2.693l-.772 2.154a.48.48 0 0 0 .708.568l1.936-1.221a3.094 3.094 0 0 1 2.692-.3l2.154.772a.48.48 0 0 0 .568-.708z" fill="#fbe986"/><path d="m80.689 26.8a3.347 3.347 0 1 0 3.347 3.347 3.363 3.363 0 0 0 -3.347-3.347z" fill="#f79670"/></g><circle cx="46.546" cy="114.462" fill="#f79670" r="5.241" transform="matrix(.707 -.707 .707 .707 -67.304 66.438)"/></svg>