<?xml version="1.0" encoding="UTF-8"?>
<!-- Generator: Adobe Illustrator 26.5.0, SVG Export Plug-In . SVG Version: 6.00 Build 0)  -->
<svg xmlns="http://www.w3.org/2000/svg" xmlns:xlink="http://www.w3.org/1999/xlink" version="1.1" id="Capa_1" x="0px" y="0px" viewBox="0 0 496.679 496.679" style="enable-background:new 0 0 496.679 496.679;" xml:space="preserve" width="512" height="512">
<g>
	<path style="fill-rule:evenodd;clip-rule:evenodd;fill:#F9D555;" d="M210.108,124.321c0,34.991-28.367,63.359-63.361,63.359   c-34.993,0-63.358-28.368-63.358-63.359c0-34.992,28.365-63.359,63.358-63.359C181.741,60.962,210.108,89.329,210.108,124.321z"/>
	<rect x="82.997" y="126.554" style="fill-rule:evenodd;clip-rule:evenodd;fill:#074785;" width="127.503" height="82.522"/>
	<path style="fill:#FD6085;" d="M423.401,144.493c-0.594,0-1.186-0.198-1.655-0.588c-9.469-7.922-18.953-15.822-28.417-23.749   c-6.776-5.675-13.568-11.332-20.3-17.06c-9.487-8.069-14.549-7.775-25.022-1.25c-8.72,5.431-17.231,11.228-25.844,16.826   c-12.261,7.969-24.519,15.942-36.776,23.915c-0.421,0.272-0.916,0.414-1.42,0.414c-0.224,0-0.447-0.029-0.665-0.082   c-0.716-0.188-1.3-0.658-1.596-1.286l-10.909-23.238c-0.477-1.015-0.091-2.198,0.907-2.803   c24.722-14.976,49.272-30.312,74.174-44.941c9.554-5.612,15.408-9.041,25.088-1.142c6.208,5.066,11.657,11.535,17.53,17.021   c13.008,12.153,25.729,24.63,38.601,36.93c3.014,2.876,6.035,5.741,9.045,8.615c0.47,0.45,0.721,1.064,0.686,1.692   c-0.032,0.628-0.348,1.216-0.867,1.62l-10.968,8.566C424.533,144.312,423.967,144.493,423.401,144.493z"/>
	<path style="fill-rule:evenodd;clip-rule:evenodd;fill:#FD6085;" d="M316.498,178.106c0,23.854-19.214,43.19-42.916,43.19   c-23.701,0-42.915-19.337-42.915-43.19c0-23.853,19.214-43.188,42.915-43.188C297.284,134.919,316.498,154.254,316.498,178.106z"/>
	<path style="fill:#074785;" d="M304.531,130.702c0,17.879-13.857,32.372-30.949,32.372c-17.095,0-30.951-14.493-30.951-32.372   s13.856-32.371,30.951-32.371C290.674,98.331,304.531,112.823,304.531,130.702z"/>
	<path style="fill:#7BEFE5;" d="M289.622,130.702c0,9.267-7.18,16.777-16.04,16.777c-8.858,0-16.04-7.511-16.04-16.777   s7.182-16.776,16.04-16.776C282.442,113.925,289.622,121.435,289.622,130.702z"/>
	<path style="fill:#FD6085;" d="M478.442,128.046c-6.784-5.97-16.023-8.874-28.24-8.874c-9.161,0-18.302,1.59-26.37,2.996   l-0.989,0.171c-4.272,0.745-6.896,4.116-6.525,8.396c0.099,1.118,0.423,2.242,0.924,3.295c-1.043-0.403-2.183-0.629-3.359-0.629   c-4.286,0-8.715,2.891-8.883,8.414c-0.124,4.155-0.714,8.602-1.337,13.309c-1.579,11.928-3.214,24.259,2.146,34.826   c6.709,13.245,20.175,17.445,33.729,20.014c0.597,0.113,1.2,0.169,1.784,0.169c5.275,0,8.535-4.369,8.921-8.477   c0.402-4.307-2.197-7.744-6.473-8.554c-13.135-2.491-22.529-5.234-23.745-17.9c-0.616-6.404,0.246-13.145,1.079-19.663   c0.568-4.442,1.155-9.04,1.292-13.572c0.033-1.194-0.142-2.315-0.519-3.333c1.045,0.456,2.209,0.725,3.477,0.725   c0.528,0,1.079-0.045,1.645-0.143l1.782-0.309c6.316-1.111,13.476-2.367,20.351-2.367c8.528,0,14.906,1.965,19.498,6.007   c8.76,7.704,10.434,23.415,10.652,32.094c0.141,5.534,4.559,8.428,8.853,8.428c0.004,0,0.004,0,0.004,0   c2.436,0,4.733-0.922,6.304-2.53c1.523-1.561,2.293-3.643,2.235-6.024C496.319,160.319,492.866,140.734,478.442,128.046z"/>
	<path style="fill:#074785;" d="M444.763,136.158c0,12.943-10.494,23.438-23.438,23.438c-12.947,0-23.44-10.495-23.44-23.438   c0-12.947,10.493-23.44,23.44-23.44C434.269,112.717,444.763,123.211,444.763,136.158z"/>
	<path style="fill-rule:evenodd;clip-rule:evenodd;fill:#F1854F;" d="M40.243,183.757c0,52.053,30.902,94.246,69.028,94.246H278.03   c38.123,0,69.025-42.193,69.025-94.246H40.243z"/>
	<path style="fill:#F9D555;" d="M353.188,183.697c0,5.663-4.591,10.254-10.253,10.254H44.366c-5.663,0-10.254-4.591-10.254-10.254   l0,0c0-5.665,4.591-10.256,10.254-10.256h298.569C348.598,173.441,353.188,178.032,353.188,183.697L353.188,183.697z"/>
	<path style="fill-rule:evenodd;clip-rule:evenodd;fill:#7BEFE5;" d="M405.31,344.531c0,50.362-40.822,91.186-91.186,91.186H91.187   C40.822,435.717,0,394.893,0,344.531l0,0c0-50.365,40.822-91.188,91.187-91.188h222.937   C364.487,253.343,405.31,294.166,405.31,344.531L405.31,344.531z"/>
	<path style="fill-rule:evenodd;clip-rule:evenodd;fill:#A089E4;" d="M91.187,416.615c-39.748,0-72.084-32.336-72.084-72.084   c0-39.749,32.336-72.085,72.084-72.085h222.937c39.747,0,72.083,32.336,72.083,72.085c0,39.748-32.336,72.084-72.083,72.084H91.187   z"/>
	<path style="fill:#074785;" d="M115.139,344.531c0,20-16.212,36.212-36.212,36.212c-20,0-36.212-16.212-36.212-36.212   s16.212-36.213,36.212-36.213C98.926,308.318,115.139,324.531,115.139,344.531z"/>
	<path style="fill:#074785;" d="M237.236,344.531c0,20-16.213,36.212-36.212,36.212c-19.999,0-36.212-16.212-36.212-36.212   s16.213-36.213,36.212-36.213C221.022,308.318,237.236,324.531,237.236,344.531z"/>
	<path style="fill:#074785;" d="M359.332,344.531c0,20-16.213,36.212-36.212,36.212c-19.998,0-36.212-16.212-36.212-36.212   s16.214-36.213,36.212-36.213C343.119,308.318,359.332,324.531,359.332,344.531z"/>
	<path style="fill-rule:evenodd;clip-rule:evenodd;fill:#A089E4;" d="M220.173,130.7c0,6.332-5.132,11.464-11.464,11.464H84.785   c-6.331,0-11.463-5.132-11.463-11.464l0,0c0-6.33,5.132-11.461,11.463-11.461h123.924   C215.041,119.239,220.173,124.37,220.173,130.7L220.173,130.7z"/>
	<g>
		<path style="fill:#074785;" d="M139.168,205.346c-13.717-0.088-21.946,11.245-22.33,25.745    c-0.202,7.424,10.246,8.528,10.447,1.073c0.211-8.131,3.022-14.33,10.792-15.271c8.527-1.037,13.002,5.826,12.039,14.526    c-0.817,7.383,9.632,8.418,10.444,1.064C162.22,217.482,152.986,205.437,139.168,205.346z"/>
		<path style="fill:#074785;" d="M248.171,204.633c-13.701,0.342-21.622,11.937-21.63,26.458c-0.013,7.43,10.454,8.197,10.46,0.74    c0.004-8.14,2.647-14.429,10.381-15.616c8.499-1.306,13.148,5.42,12.408,14.148c-0.626,7.412,9.836,8.116,10.465,0.741    C271.524,216.042,261.984,204.293,248.171,204.633z"/>
		<path style="fill:#074785;" d="M211.824,221.134c0.355-2.951-0.624-5.855-3.482-6.732c-2.34-0.717-5.705,0.844-6.065,3.801    c-0.504,4.258-1.434,11.649-5.887,13.064c-6.288,2.001-9.026-6.467-9.325-11.69c-0.39-6.998-10.281-7.082-9.889-0.02    c0.664,11.666,6.61,22.635,18.186,22.74C205.784,242.402,210.634,231.016,211.824,221.134z"/>
	</g>
	<path style="fill:#074785;" d="M143.172,303.962c-0.968-0.94-2.913-14.067-4.674-13.962c-1.764,0.105-3.303,13.126-4.129,13.984   c-1.653,1.721-13.759,2.938-13.657,4.608c0.096,1.664,11.982,2.449,13.664,4.079c0.935,0.903,2.906,14.069,4.675,13.965   c1.762-0.098,3.271-13.088,4.127-13.976c1.596-1.66,13.794-2.944,13.699-4.617C156.775,306.373,144.785,305.532,143.172,303.962z"/>
	<path style="fill:#FFFFFF;" d="M262.025,369.497c-0.991-0.956-2.977-14.396-4.782-14.287c-1.805,0.111-3.382,13.434-4.228,14.314   c-1.692,1.76-14.08,3.008-13.978,4.713c0.1,1.702,12.268,2.511,13.985,4.176c0.962,0.927,2.979,14.398,4.784,14.291   c1.801-0.104,3.347-13.39,4.227-14.297c1.634-1.701,14.117-3.016,14.016-4.731C275.947,371.967,263.675,371.106,262.025,369.497z"/>
	<path style="fill-rule:evenodd;clip-rule:evenodd;fill:#FFFFFF;" d="M77.497,285.168c-16.706-0.098-32.849,9.295-41.05,23.849   c-4.035,7.164,6.967,13.581,10.998,6.427c6.05-10.737,17.707-17.613,30.052-17.54C85.71,297.951,85.706,285.216,77.497,285.168z"/>
	<path style="fill-rule:evenodd;clip-rule:evenodd;fill:#FFFFFF;" d="M95.007,283.046c-8.212,0-8.212,12.735,0,12.735   C103.219,295.781,103.219,283.046,95.007,283.046z"/>
	<path style="fill-rule:evenodd;clip-rule:evenodd;fill:#FFFFFF;" d="M349.671,382.078c-13.421,8.509-27.775,11.176-43.48,11.335   c-8.208,0.084-8.216,12.817,0,12.735c17.829-0.181,34.679-3.418,49.906-13.072C363.012,388.692,356.627,377.667,349.671,382.078z"/>
	<path style="fill-rule:evenodd;clip-rule:evenodd;fill:#FFFFFF;" d="M283.375,393.943c-8.213,0-8.213,12.735,0,12.735   C291.587,406.678,291.587,393.943,283.375,393.943z"/>
	<path style="fill-rule:evenodd;clip-rule:evenodd;fill:#FFFFFF;" d="M315.615,213.08c-2.262,8.236-7.312,15.35-10.258,23.348   c-2.847,7.723,9.464,11.024,12.278,3.387c2.956-8.02,7.976-15.032,10.258-23.348C330.071,208.532,317.786,205.17,315.615,213.08z"/>
	<path style="fill-rule:evenodd;clip-rule:evenodd;fill:#FFFFFF;" d="M124.443,72.444c-12.894,4.176-22.13,16.234-26.022,28.854   c-2.43,7.87,9.865,11.209,12.278,3.387c2.525-8.184,8.632-17.21,17.131-19.962C135.609,82.206,132.28,69.908,124.443,72.444z"/>
	<path style="fill-rule:evenodd;clip-rule:evenodd;fill:#FFFFFF;" d="M144.886,66.203c-8.212,0-8.212,12.734,0,12.734   S153.098,66.203,144.886,66.203z"/>
	<path style="fill-rule:evenodd;clip-rule:evenodd;fill:#FFFFFF;" d="M69.537,347.781c-6.845,0-6.845,10.611,0,10.611   C76.381,358.392,76.381,347.781,69.537,347.781z"/>
	<path style="fill-rule:evenodd;clip-rule:evenodd;fill:#FFFFFF;" d="M201.129,320.188c-6.844,0-6.844,10.612,0,10.612   C207.973,330.8,207.973,320.188,201.129,320.188z"/>
	<path style="fill-rule:evenodd;clip-rule:evenodd;fill:#FFFFFF;" d="M323.171,355.21c-6.845,0-6.845,10.612,0,10.612   C330.014,365.822,330.014,355.21,323.171,355.21z"/>
	<path style="fill-rule:evenodd;clip-rule:evenodd;fill:#FFFFFF;" d="M283.375,286.939c-6.845,0-6.845,10.611,0,10.611   C290.218,297.55,290.218,286.939,283.375,286.939z"/>
	<path style="fill-rule:evenodd;clip-rule:evenodd;fill:#FFFFFF;" d="M146.747,385.986c-6.844,0-6.844,10.611,0,10.611   C153.592,396.597,153.592,385.986,146.747,385.986z"/>
	<path style="fill-rule:evenodd;clip-rule:evenodd;fill:#FFFFFF;" d="M183.258,89.905c-6.844,0-6.844,10.612,0,10.612   C190.102,100.517,190.102,89.905,183.258,89.905z"/>
	<path style="fill-rule:evenodd;clip-rule:evenodd;fill:#FFFFFF;" d="M356.068,300.025c-6.845,0-6.845,10.613,0,10.613   C362.912,310.638,362.912,300.025,356.068,300.025z"/>
	<path style="fill-rule:evenodd;clip-rule:evenodd;fill:#FFFFFF;" d="M79.088,391.292c-6.845,0-6.845,10.611,0,10.611   C85.933,401.903,85.933,391.292,79.088,391.292z"/>
	<path style="fill-rule:evenodd;clip-rule:evenodd;fill:#FFFFFF;" d="M184.15,151.454c-6.844,0-6.844,10.612,0,10.612   C190.993,162.066,190.993,151.454,184.15,151.454z"/>
	<path style="fill-rule:evenodd;clip-rule:evenodd;fill:#FFFFFF;" d="M130.027,99.455c-6.843,0-6.843,10.612,0,10.612   C136.871,110.067,136.871,99.455,130.027,99.455z"/>
	<path style="fill-rule:evenodd;clip-rule:evenodd;fill:#FFFFFF;" d="M422.926,131.292c-6.845,0-6.845,10.611,0,10.611   C429.769,141.903,429.769,131.292,422.926,131.292z"/>
	<path style="fill-rule:evenodd;clip-rule:evenodd;fill:#FFFFFF;" d="M362.435,80.352c-6.844,0-6.844,10.612,0,10.612   C369.279,90.964,369.279,80.352,362.435,80.352z"/>
	<path style="fill-rule:evenodd;clip-rule:evenodd;fill:#FFFFFF;" d="M314.68,97.332c-6.844,0-6.844,10.611,0,10.611   C321.524,107.943,321.524,97.332,314.68,97.332z"/>
	<path style="fill-rule:evenodd;clip-rule:evenodd;fill:#FFFFFF;" d="M287.088,231.046c-6.843,0-6.843,10.611,0,10.611   C293.932,241.658,293.932,231.046,287.088,231.046z"/>
	<path style="fill-rule:evenodd;clip-rule:evenodd;fill:#FFFFFF;" d="M210.68,281.985c-6.844,0-6.844,10.612,0,10.612   C217.524,292.597,217.524,281.985,210.68,281.985z"/>
	<path style="fill-rule:evenodd;clip-rule:evenodd;fill:#FFFFFF;" d="M205.374,175.862c-6.844,0-6.844,10.612,0,10.612   C212.218,186.474,212.218,175.862,205.374,175.862z"/>
	<path style="fill-rule:evenodd;clip-rule:evenodd;fill:#FFFFFF;" d="M115.169,152.515c-6.844,0-6.844,10.611,0,10.611   C122.014,163.127,122.014,152.515,115.169,152.515z"/>
	<path style="fill-rule:evenodd;clip-rule:evenodd;fill:#FFFFFF;" d="M147.007,124.923c-6.844,0-6.844,10.612,0,10.612   C153.851,135.536,153.851,124.923,147.007,124.923z"/>
	<path style="fill-rule:evenodd;clip-rule:evenodd;fill:#FFFFFF;" d="M58.925,203.455c-6.844,0-6.844,10.611,0,10.611   C65.769,214.066,65.769,203.455,58.925,203.455z"/>
</g>















</svg>
