<?xml version="1.0" encoding="UTF-8"?>
<!-- Generator: Adobe Illustrator 26.5.0, SVG Export Plug-In . SVG Version: 6.00 Build 0)  -->
<svg xmlns="http://www.w3.org/2000/svg" xmlns:xlink="http://www.w3.org/1999/xlink" version="1.1" id="Capa_1" x="0px" y="0px" viewBox="0 0 501.324 501.324" style="enable-background:new 0 0 501.324 501.324;" xml:space="preserve" width="512" height="512">
<g>
	<path style="fill:#074785;" d="M194.116,323.783c20.449-7.48,40.824-15.169,61.213-22.807l-44.602-44.573   c-18.895,5.93-72.726,23.879-91.116,31.036c-28.685,11.168-28.44,27.877-28.005,55.173c1.133,71.144-2.195,56.314-0.098,127.489   c0.083,2.873,2.154,5.135,4.903,5.346l63.061,4.82c1.709,0.125,3.427-0.559,4.695-1.861c0.381-0.399,0.714-0.849,0.986-1.327   c0.61-1.081,0.908-2.31,0.83-3.542c-2.21-35.96,1.991,14.16-0.217-21.794c-1.546-25.261-3.981-50.531-4.701-75.832   C159.807,331.621,165.303,334.33,194.116,323.783z"/>
	<path style="fill-rule:evenodd;clip-rule:evenodd;fill:#F1854F;" d="M242.504,460.809c11.098,19.891-0.582,36.018-26.088,36.018   c-62.042,0-124.088,0-186.134,0c-25.503,0-37.186-16.129-26.087-36.018c5.787-11.005,11.573-22.012,17.358-33.018   c11.099-19.892,31.678-36.018,45.955-36.018c37.229,0,74.453,0,111.68,0c14.279-0.005,34.858,16.126,45.956,36.018   C230.93,438.797,236.715,449.804,242.504,460.809z"/>
	<path style="fill-rule:evenodd;clip-rule:evenodd;fill:#7BEFE5;" d="M426.411,365.49c0,0,10.703-54.119-82.857-201.367   C249.99,16.872,192.083,4.496,192.083,4.496l-6.621,114.307l148.872,185.058l83.215,63.529"/>
	<path style="fill:#074785;" d="M355.643,308.182c-3.845,0-7.736-1.922-10.157-5.015c-2.354-3.007-3.136-6.742-2.2-10.516   l36.527-147.473c0,0-75.816,47.145-106.387,66.167c-1.911,1.191-3.916,1.792-5.958,1.792c-4.827,0-9.065-3.477-10.542-8.649   c-1.617-5.658,0.494-11.276,5.375-14.312l103.1-64.128l-154.072-24.757c-7.334-1.176-10.709-7.586-10.254-13.313   c0.49-6.157,5.116-10.627,10.999-10.627c0.648,0,1.331,0.052,2.037,0.166l181.625,29.184c2.911,0.463,5.442,1.862,7.279,3.994   c4.581,2.417,8.048,7.663,6.478,14.025l-43.355,175.013C364.87,304.864,360.752,308.18,355.643,308.182z"/>
	<path style="fill-rule:evenodd;clip-rule:evenodd;fill:#F9D555;" d="M384.812,90.371c-9.741,13.841-6.407,32.951,7.44,42.703   c13.833,9.719,32.943,6.404,42.696-7.444c9.726-13.843,6.395-32.952-7.44-42.694C413.667,73.198,394.549,76.523,384.812,90.371z"/>
	<path style="fill-rule:evenodd;clip-rule:evenodd;fill:#29AEFD;" d="M426.411,365.49c0,0-74.87-71.27-140.84-171.741   C219.606,93.279,192.083,4.496,192.083,4.496S50.059,152.753,144.875,283.43C252.825,432.203,426.411,365.49,426.411,365.49z"/>
	<g>
		<g>
			<path style="fill:#FD6085;" d="M418.676,67.136c15.602-1.001,31.253,4.434,38.214,19.38c6.143,13.19,4.374,28.782-2.669,41.222     c-3.881,6.849,7.094,12.114,10.935,5.329c8.856-15.632,10.455-35.869,2.459-52.18c-9.428-19.229-29.348-27.196-49.969-25.874     C409.823,55.517,410.841,67.637,418.676,67.136L418.676,67.136z"/>
		</g>
		<g>
			<path style="fill:#FD6085;" d="M420.238,38.52c13.88-0.935,27.71,0.892,40.068,7.562c9.924,5.354,17.857,14.22,22.634,24.383     c10.036,21.345,7.414,46.972-4.102,67.162c-3.901,6.83,7.079,12.097,10.941,5.324c13.326-23.365,15.768-53.66,3.883-78.118     c-6.008-12.369-15.341-22.372-27.244-29.253c-14.148-8.185-31.15-10.265-47.216-9.182     C411.383,26.924,412.402,39.048,420.238,38.52L420.238,38.52z"/>
		</g>
	</g>
	<g>
		<path style="fill:#074785;" d="M194.313,263.273c-5.496,3.541-10.624,3.987-14.675-1.737c-3.81-5.381,0.05-10.329,3.919-14.271    c3.164-3.216-2.277-7.638-5.42-4.439c-6.768,6.891-9.614,15.13-3.629,23.585c6.068,8.573,15.85,7.728,23.846,2.579    C202.161,266.544,198.101,260.829,194.313,263.273z"/>
		<g>
			<path style="fill:#074785;" d="M256.347,159.873c2.217,1.209,4.991,0.552,6.879-1.626c2.175-2.503,2.44-5.925,0.652-8.329     c-4.297-5.778-9.825-10.569-16.413-14.21c-2.868-1.562-6.302-0.355-8.028,2.79c-1.735,3.176-0.906,6.749,1.938,8.32     c5.323,2.941,9.649,6.718,13.226,11.52C255.086,158.991,255.672,159.505,256.347,159.873L256.347,159.873z"/>
			<path style="fill:#074785;" d="M304.987,230.8c-0.391-2.492,1.145-4.884,3.826-5.944c3.083-1.21,6.405-0.327,8.074,2.163     c4.016,5.977,6.686,12.781,7.925,20.206c0.522,3.226-1.771,6.066-5.306,6.648c-3.573,0.575-6.667-1.403-7.198-4.6     c-1.004-6.008-3.111-11.34-6.453-16.309c-0.452-0.674-0.739-1.401-0.864-2.156L304.987,230.8z"/>
			<path style="fill-rule:evenodd;clip-rule:evenodd;fill:#FFFFFF;" d="M222.733,227.229c-22.054,15.597-51.831,11.405-66.521-9.361     c-14.686-20.767-8.716-50.242,13.339-65.837c22.05-15.596,51.828-11.403,66.519,9.362     C250.755,182.157,244.782,211.635,222.733,227.229z"/>
			<path style="fill-rule:evenodd;clip-rule:evenodd;fill:#074785;" d="M215.196,216.576c-16.333,11.553-38.215,8.701-48.87-6.363     c-10.663-15.069-6.06-36.65,10.28-48.205c16.339-11.551,38.219-8.704,48.878,6.368     C236.138,183.44,231.53,205.026,215.196,216.576z"/>
			<g>
				<path style="fill:#FFFFFF;" d="M191.923,166.856c-5.713,2.392-11.465,5.899-13.865,11.951c-1.273,3.213-0.187,8.537,3.046,9.541      c9.188,2.84,19.349,0.175,27.149-4.593c2.11-1.297,4.623-3.424,5.695-5.746c0.767-1.652,1.32-4.496,0.631-6.339      c-3.314-8.851-15.465-7.743-22.13-5.034C192.277,166.707,192.1,166.78,191.923,166.856z"/>
				<path style="fill:#7BEFE5;" d="M200.855,216.124c-3.206,0.734-6.77,0.303-8.301-1.682c-2.503-3.264,3.279-6.799,5.688-7.425      c2.225-0.573,5.425-0.757,7.409,0.799C210.086,211.311,203.781,215.452,200.855,216.124z"/>
			</g>
			<path style="fill-rule:evenodd;clip-rule:evenodd;fill:#FFFFFF;" d="M282.779,312.134c-22.053,15.591-51.916,11.285-66.703-9.629     c-14.789-20.904-8.896-50.493,13.151-66.092c22.054-15.587,51.916-11.28,66.697,9.622     C310.708,266.948,304.829,296.535,282.779,312.134z"/>
			<path style="fill-rule:evenodd;clip-rule:evenodd;fill:#074785;" d="M275.188,301.405c-16.333,11.56-38.277,8.621-49.005-6.551     c-10.73-15.175-6.186-36.839,10.152-48.393c16.333-11.553,38.276-8.619,49.006,6.557     C296.073,268.191,291.529,289.855,275.188,301.405z"/>
			<g>
				<path style="fill:#FFFFFF;" d="M249.015,247.59c-5.717,2.387-11.465,5.896-13.86,11.945c-1.275,3.215-0.19,8.54,3.044,9.541      c9.188,2.842,19.349,0.175,27.146-4.59c2.108-1.29,4.628-3.422,5.698-5.743c0.766-1.657,1.324-4.499,0.632-6.337      c-3.314-8.852-15.467-7.748-22.131-5.036C249.369,247.443,249.192,247.514,249.015,247.59z"/>
				<path style="fill:#7BEFE5;" d="M257.954,296.854c-3.207,0.732-6.779,0.301-8.305-1.687c-2.506-3.256,3.278-6.798,5.688-7.423      c2.225-0.57,5.431-0.757,7.406,0.802C267.18,292.041,260.878,296.182,257.954,296.854z"/>
			</g>
		</g>
	</g>
	<path style="fill:#F9D555;" d="M192.347,411.582c0,4.907-3.979,8.886-8.887,8.886H63.241c-4.91,0-8.887-3.979-8.887-8.886l0,0   c0-4.908,3.977-8.886,8.887-8.886H183.46C188.368,402.696,192.347,406.674,192.347,411.582L192.347,411.582z"/>
	<path style="fill:#074785;" d="M314.883,325.234c-1.104-1.072-3.324-16.061-5.337-15.939c-2.014,0.121-3.772,14.986-4.713,15.966   c-1.889,1.964-15.708,3.353-15.593,5.26c0.11,1.9,13.681,2.797,15.6,4.657c1.067,1.032,3.318,16.062,5.339,15.945   c2.011-0.114,3.733-14.944,4.711-15.957c1.822-1.895,15.748-3.362,15.64-5.273C330.412,327.986,316.724,327.028,314.883,325.234z"/>
	<path style="fill:#FFFFFF;" d="M168.335,449.534c-1.131-1.091-3.397-16.435-5.46-16.311c-2.061,0.128-3.86,15.336-4.827,16.342   c-1.93,2.009-16.074,3.434-15.958,5.381c0.112,1.942,14.007,2.866,15.966,4.766c1.099,1.058,3.4,16.439,5.461,16.315   c2.057-0.118,3.822-15.287,4.827-16.323c1.865-1.94,16.117-3.442,16.001-5.399C184.229,452.354,170.218,451.373,168.335,449.534z"/>
	<path style="fill-rule:evenodd;clip-rule:evenodd;fill:#FFFFFF;" d="M416.825,92.496c-3.859-0.887-7.858,1.138-8.941,5.076   c-1.018,3.696,1.216,8.055,5.075,8.942c0.156,0.047,0.257,0.074,0.363,0.102c0.073,0.149,0.14,0.282,0.179,0.343   c0.132,0.452,0.241,0.909,0.336,1.37c0.01,0.08,0.014,0.135,0.023,0.239c0.064,0.703,0.064,1.408,0.068,2.111   c0.008,1.325-0.11,2.652-0.248,3.971c-0.412,3.949,3.618,7.27,7.268,7.27c4.275,0,6.858-3.33,7.271-7.27   C429.151,105.717,426.986,94.832,416.825,92.496z"/>
	<path style="fill-rule:evenodd;clip-rule:evenodd;fill:#FFFFFF;" d="M150.549,82.51c-12.415,16.241-18.691,35.649-24.356,55.044   c-2.636,9.02,11.396,12.847,14.02,3.867c5.344-18.302,11.176-36.248,22.893-51.575C168.801,82.396,156.161,75.167,150.549,82.51z"/>
	<path style="fill-rule:evenodd;clip-rule:evenodd;fill:#FFFFFF;" d="M168.337,62.552c-9.376,0-9.376,14.539,0,14.539   C177.713,77.091,177.713,62.552,168.337,62.552z"/>
	<path style="fill-rule:evenodd;clip-rule:evenodd;fill:#FFFFFF;" d="M130.173,155.237c-9.375,0-9.375,14.539,0,14.539   S139.548,155.237,130.173,155.237z"/>
	<path style="fill-rule:evenodd;clip-rule:evenodd;fill:#FFFFFF;" d="M31.411,444.164c-4.436,7.329-8.486,14.882-12.924,22.211   c-4.867,8.043,7.707,15.345,12.557,7.34c4.436-7.331,8.486-14.884,12.922-22.215C48.834,443.459,36.259,436.157,31.411,444.164z"/>
	<path style="fill-rule:evenodd;clip-rule:evenodd;fill:#FFFFFF;" d="M61.113,458.737c-7.813,0-7.813,12.116,0,12.116   S68.927,458.737,61.113,458.737z"/>
	<path style="fill-rule:evenodd;clip-rule:evenodd;fill:#FFFFFF;" d="M109.575,315.771c-7.812,0-7.812,12.115,0,12.115   C117.389,327.886,117.389,315.771,109.575,315.771z"/>
	<path style="fill-rule:evenodd;clip-rule:evenodd;fill:#FFFFFF;" d="M193.173,63.764c-7.812,0-7.812,12.116,0,12.116   C200.987,75.88,200.987,63.764,193.173,63.764z"/>
	<path style="fill-rule:evenodd;clip-rule:evenodd;fill:#FFFFFF;" d="M240.426,46.802c-7.814,0-7.814,12.115,0,12.115   C248.24,58.917,248.24,46.802,240.426,46.802z"/>
	<path style="fill-rule:evenodd;clip-rule:evenodd;fill:#FFFFFF;" d="M290.1,141.305c-7.813,0-7.813,12.115,0,12.115   C297.913,153.42,297.913,141.305,290.1,141.305z"/>
	<path style="fill-rule:evenodd;clip-rule:evenodd;fill:#FFFFFF;" d="M397.931,281.847c-7.814,0-7.814,12.116,0,12.116   C405.744,293.963,405.744,281.847,397.931,281.847z"/>
	<path style="fill-rule:evenodd;clip-rule:evenodd;fill:#FFFFFF;" d="M383.391,346.06c-7.814,0-7.814,12.116,0,12.116   C391.205,358.176,391.205,346.06,383.391,346.06z"/>
	<path style="fill-rule:evenodd;clip-rule:evenodd;fill:#FFFFFF;" d="M326.447,277c-7.814,0-7.814,12.116,0,12.116   S334.261,277,326.447,277z"/>
	<path style="fill-rule:evenodd;clip-rule:evenodd;fill:#FFFFFF;" d="M214.982,455.102c-7.813,0-7.813,12.116,0,12.116   C222.797,467.218,222.797,455.102,214.982,455.102z"/>
	<path style="fill-rule:evenodd;clip-rule:evenodd;fill:#FFFFFF;" d="M102.515,440.695c-7.812,0-7.812,12.116,0,12.116   S110.327,440.695,102.515,440.695z"/>
	<path style="fill-rule:evenodd;clip-rule:evenodd;fill:#FFFFFF;" d="M253.31,340.002c-7.814,0-7.814,12.116,0,12.116   C261.124,352.118,261.124,340.002,253.31,340.002z"/>
	<path style="fill-rule:evenodd;clip-rule:evenodd;fill:#FFFFFF;" d="M136.23,360.599c-7.814,0-7.814,12.116,0,12.116   C144.044,372.715,144.044,360.599,136.23,360.599z"/>
	<path style="fill-rule:evenodd;clip-rule:evenodd;fill:#FFFFFF;" d="M179.847,283.059c-7.813,0-7.813,12.115,0,12.115   C187.661,295.174,187.661,283.059,179.847,283.059z"/>
	<path style="fill-rule:evenodd;clip-rule:evenodd;fill:#FFFFFF;" d="M137.442,221.269c-7.814,0-7.814,12.115,0,12.115   C145.256,233.384,145.256,221.269,137.442,221.269z"/>
</g>















</svg>
