<?xml version="1.0" encoding="UTF-8"?>
<!-- Generator: Adobe Illustrator 26.5.0, SVG Export Plug-In . SVG Version: 6.00 Build 0)  -->
<svg xmlns="http://www.w3.org/2000/svg" xmlns:xlink="http://www.w3.org/1999/xlink" version="1.1" id="Capa_1" x="0px" y="0px" viewBox="0 0 499.442 499.442" style="enable-background:new 0 0 499.442 499.442;" xml:space="preserve" width="512" height="512">
<g>
	<path style="fill-rule:evenodd;clip-rule:evenodd;fill:#F1854F;" d="M199.421,461.682c-27.679,0-47.956-11.436-54.938-30.762   c-42.268-0.168-82.409-3.083-111.073-30.906c-20.305-19.708-32.461-48.642-33.352-79.382c-0.905-31.222,8.766-61.062,27.227-84.027   c19.493-24.243,47.223-38.238,78.083-39.407c0.207-0.007,0.409-0.011,0.611-0.011c8.469,0,13.024,6.686,13.149,13.29   c0.132,7.012-4.449,14.289-13.464,14.631c-20.875,0.792-39.384,9.45-53.526,25.039c-16.674,18.379-25.682,45.283-24.095,71.969   c1.453,24.412,10.765,45.434,26.223,59.192c22.543,20.068,54.868,21.748,86.048,21.748c1.469,0,2.937-0.004,4.394-0.009   c8.003-21.198,34.253-31.281,56.121-31.658l0.281-0.003c8.728,0,13.354,6.868,13.41,13.651c0.061,6.972-4.575,14.111-13.558,14.266   c-8.58,0.148-30.838,3.607-30.786,17.655c0.002,0.677-0.048,1.362-0.148,2.079c1.86,9.789,11.556,14.752,28.832,14.751   c1.7,0,3.499-0.049,5.344-0.146c0.286-0.015,0.568-0.023,0.845-0.023c8.282,0,12.787,6.556,12.958,13.033   c0.18,6.868-4.45,14.422-13.39,14.893C202.884,461.637,201.135,461.682,199.421,461.682z"/>
	<path style="fill-rule:evenodd;clip-rule:evenodd;fill:#F1854F;" d="M300.019,461.685c-1.714,0-3.461-0.046-5.192-0.138   c-8.941-0.473-13.571-8.027-13.392-14.895c0.173-6.475,4.678-13.033,12.959-13.033c0.277,0,0.559,0.008,0.846,0.023   c1.846,0.097,3.645,0.147,5.346,0.147c17.276,0,26.971-4.962,28.831-14.753c-0.103-0.72-0.151-1.393-0.149-2.073   c0.05-14.053-22.209-17.512-30.788-17.659c-8.982-0.155-13.619-7.294-13.558-14.266c0.057-6.784,4.683-13.651,13.41-13.651   l0.281,0.002c21.868,0.377,48.118,10.46,56.123,31.658c1.457,0.005,2.923,0.009,4.394,0.009c31.178,0,63.503-1.679,86.049-21.748   c15.455-13.757,24.767-34.779,26.22-59.191c1.588-26.684-7.419-53.588-24.09-71.967c-14.145-15.591-32.654-24.25-53.531-25.041   c-9.015-0.341-13.597-7.619-13.464-14.63c0.126-6.605,4.683-13.291,13.149-13.291c0.201,0,0.404,0.004,0.612,0.012   c30.859,1.169,58.589,15.164,78.081,39.406c18.465,22.964,28.136,52.806,27.228,84.028c-0.889,30.736-13.042,59.67-33.348,79.381   c-28.667,27.823-68.809,30.738-111.076,30.906C347.978,450.248,327.7,461.685,300.019,461.685z"/>
	<path style="fill-rule:evenodd;clip-rule:evenodd;fill:#074785;" d="M171.006,131.339c0,8.873-7.191,16.064-16.063,16.064l0,0   c-8.87,0-16.064-7.191-16.064-16.064V53.821c0-8.872,7.193-16.064,16.064-16.064l0,0c8.872,0,16.063,7.192,16.063,16.064V131.339z"/>
	<path style="fill-rule:evenodd;clip-rule:evenodd;fill:#074785;" d="M367.255,131.339c0,8.873-7.193,16.064-16.066,16.064l0,0   c-8.869,0-16.062-7.191-16.062-16.064V53.821c0-8.872,7.193-16.064,16.062-16.064l0,0c8.873,0,16.066,7.192,16.066,16.064V131.339z   "/>
	
		<ellipse transform="matrix(0.7071 -0.7071 0.7071 0.7071 -77.0903 238.8078)" style="fill-rule:evenodd;clip-rule:evenodd;fill:#F9D555;" cx="249.721" cy="212.46" rx="147.346" ry="147.346"/>
	<path style="fill-rule:evenodd;clip-rule:evenodd;fill:#FD6085;" d="M178.159,124.608h-30.837c-11.049,0-11.049,17.131,0,17.131   h30.837C189.207,141.739,189.207,124.608,178.159,124.608z"/>
	<path style="fill-rule:evenodd;clip-rule:evenodd;fill:#074785;" d="M153.029,266.936c-12.947,0-12.947,20.08,0,20.08   S165.976,266.936,153.029,266.936z"/>
	<path style="fill-rule:evenodd;clip-rule:evenodd;fill:#074785;" d="M190.175,304.586c-12.947,0-12.947,20.08,0,20.08   C203.124,324.666,203.124,304.586,190.175,304.586z"/>
	<path style="fill-rule:evenodd;clip-rule:evenodd;fill:#F1854F;" d="M279.216,320.431c-6.336-0.063-22.178,2.831-24.389-5.347   c-1.34-4.95,0.121-11.607,0.338-16.653c0.311-7.147,0.485-14.3,0.52-21.454c0.026-4.857-7.503-4.854-7.529,0   c-0.068,13.133-2.401,27.105-0.589,40.11c1.035,7.445,7.999,9.858,14.434,10.606c14.396,1.675,29.598,0.401,44.098,0.748   c11.158,0.266,22.316,0.559,33.476,0.761c3.069-2.363,6.054-4.826,8.926-7.419C325.401,321.502,302.315,320.659,279.216,320.431z"/>
	<path style="fill-rule:evenodd;clip-rule:evenodd;fill:#074785;" d="M368.138,415.25c0,10.965-8.89,19.853-19.854,19.853h-13.438   c-10.966,0-19.853-8.888-19.853-19.853l0,0c0-10.966,8.888-19.854,19.853-19.854h13.438   C359.249,395.396,368.138,404.284,368.138,415.25L368.138,415.25z"/>
	<path style="fill-rule:evenodd;clip-rule:evenodd;fill:#074785;" d="M182.39,416.676c0,10.964-8.891,19.853-19.854,19.853h-13.437   c-10.966,0-19.854-8.888-19.854-19.853l0,0c0-10.966,8.888-19.854,19.854-19.854h13.437   C173.5,396.821,182.39,405.709,182.39,416.676L182.39,416.676z"/>
	<path style="fill-rule:evenodd;clip-rule:evenodd;fill:#A089E4;" d="M396.727,202.508H335.2   c-6.076-41.769-42.025-73.853-85.479-73.853c-43.452,0-79.402,32.084-85.479,73.853h-61.524v19.905h60.94   c3.739,44.265,40.829,79.033,86.062,79.033s82.323-34.769,86.062-79.033h60.944V202.508z"/>
	<path style="fill-rule:evenodd;clip-rule:evenodd;fill:#074785;" d="M318.048,215.052c0,37.737-30.591,68.326-68.326,68.326   c-37.737,0-68.326-30.589-68.326-68.326c0-37.736,30.589-68.327,68.326-68.327C287.457,146.725,318.048,177.315,318.048,215.052z"/>
	<g>
		<path style="fill:#074785;" d="M201.035,89.264c-11.552-0.076-18.48,9.469-18.804,21.679c-0.17,6.252,8.627,7.184,8.796,0.905    c0.181-6.848,2.547-12.068,9.09-12.861c7.183-0.873,10.949,4.906,10.139,12.233c-0.687,6.217,8.111,7.091,8.796,0.898    C220.449,99.482,212.673,89.339,201.035,89.264z"/>
		<path style="fill:#074785;" d="M292.834,88.663c-11.538,0.288-18.21,10.052-18.219,22.28c-0.008,6.257,8.805,6.905,8.811,0.624    c0.004-6.854,2.23-12.15,8.744-13.15c7.156-1.1,11.07,4.564,10.449,11.914c-0.527,6.243,8.285,6.836,8.812,0.626    C312.5,98.27,304.465,88.377,292.834,88.663z"/>
		<path style="fill:#074785;" d="M262.223,102.559c0.298-2.486-0.524-4.93-2.931-5.671c-1.974-0.604-4.806,0.713-5.107,3.204    c-0.426,3.583-1.21,9.811-4.957,11.001c-5.3,1.685-7.605-5.446-7.855-9.844c-0.327-5.894-8.656-5.965-8.327-0.018    c0.558,9.823,5.567,19.061,15.315,19.15C257.136,120.468,261.222,110.883,262.223,102.559z"/>
	</g>
	<path style="fill-rule:evenodd;clip-rule:evenodd;fill:#FFFFFF;" d="M246.879,259.487c-6.314,0-6.314,9.794,0,9.794   C253.195,269.282,253.195,259.487,246.879,259.487z"/>
	<path style="fill-rule:evenodd;clip-rule:evenodd;fill:#FFFFFF;" d="M286.168,240.757c-6.316,0-6.316,9.794,0,9.794   S292.484,240.757,286.168,240.757z"/>
	<path style="fill-rule:evenodd;clip-rule:evenodd;fill:#FFFFFF;" d="M233.036,329.202c-6.315,0-6.315,9.795,0,9.795   C239.353,338.997,239.353,329.202,233.036,329.202z"/>
	<path style="fill-rule:evenodd;clip-rule:evenodd;fill:#FFFFFF;" d="M143.318,245.654c-6.315,0-6.315,9.795,0,9.795   C149.634,255.449,149.634,245.654,143.318,245.654z"/>
	<path style="fill-rule:evenodd;clip-rule:evenodd;fill:#FFFFFF;" d="M154.637,68.496c-6.315,0-6.315,9.794,0,9.794   C160.955,78.29,160.955,68.496,154.637,68.496z"/>
	<path style="fill-rule:evenodd;clip-rule:evenodd;fill:#FFFFFF;" d="M351.188,63.598c-6.315,0-6.315,9.795,0,9.795   C357.506,73.393,357.506,63.598,351.188,63.598z"/>
	<path style="fill-rule:evenodd;clip-rule:evenodd;fill:#FFFFFF;" d="M345.48,405.573c-6.315,0-6.315,9.795,0,9.795   C351.797,415.368,351.797,405.573,345.48,405.573z"/>
	<path style="fill-rule:evenodd;clip-rule:evenodd;fill:#FFFFFF;" d="M153.027,416.675c-6.315,0-6.315,9.794,0,9.794   C159.343,426.469,159.343,416.675,153.027,416.675z"/>
	<path style="fill:#074785;" d="M355.23,149.691c-0.895-0.866-2.689-12.983-4.315-12.886c-1.627,0.098-3.048,12.115-3.811,12.907   c-1.526,1.588-12.698,2.711-12.605,4.253c0.089,1.536,11.061,2.261,12.612,3.765c0.862,0.834,2.681,12.985,4.315,12.89   c1.626-0.092,3.018-12.081,3.809-12.9c1.474-1.532,12.731-2.718,12.643-4.262C367.785,151.916,356.718,151.141,355.23,149.691z"/>
	<path style="fill:#FFFFFF;" d="M256.627,224.36c-0.893-0.863-2.684-12.982-4.312-12.886c-1.628,0.102-3.052,12.115-3.812,12.91   c-1.527,1.587-12.699,2.712-12.606,4.251c0.09,1.536,11.064,2.265,12.613,3.765c0.865,0.836,2.686,12.988,4.313,12.89   c1.624-0.094,3.019-12.077,3.812-12.895c1.473-1.532,12.732-2.718,12.642-4.264C269.185,226.587,258.116,225.812,256.627,224.36z"/>
	<path style="fill-rule:evenodd;clip-rule:evenodd;fill:#FFFFFF;" d="M229.965,155.363c-18,5.14-28.754,21.925-32.837,39.367   c-1.728,7.372,9.605,10.502,11.333,3.123c3.129-13.358,10.587-27.147,24.628-31.155   C240.365,164.62,237.267,153.278,229.965,155.363z"/>
	<path style="fill-rule:evenodd;clip-rule:evenodd;fill:#FFFFFF;" d="M250.463,153.195c-7.58,0-7.58,11.753,0,11.753   C258.041,164.948,258.041,153.195,250.463,153.195z"/>
	<path style="fill-rule:evenodd;clip-rule:evenodd;fill:#FFFFFF;" d="M198.224,206.74c-7.579,0-7.579,11.754,0,11.754   S205.803,206.74,198.224,206.74z"/>
	<path style="fill-rule:evenodd;clip-rule:evenodd;fill:#FFFFFF;" d="M363.577,262.542c-4.135,9.082-7.009,20.521-15.522,26.624   c-6.101,4.373-0.24,14.574,5.934,10.148c10.74-7.7,14.484-19.305,19.739-30.84C376.844,261.632,366.717,255.653,363.577,262.542z"/>
	<path style="fill-rule:evenodd;clip-rule:evenodd;fill:#FFFFFF;" d="M339.921,302.728c-7.579,0-7.579,11.754,0,11.754   C347.501,314.482,347.501,302.728,339.921,302.728z"/>
	<path style="fill-rule:evenodd;clip-rule:evenodd;fill:#FFFFFF;" d="M327.512,118.261c-6.316,0-6.316,9.795,0,9.795   C333.83,128.056,333.83,118.261,327.512,118.261z"/>
	<path style="fill-rule:evenodd;clip-rule:evenodd;fill:#FFFFFF;" d="M238.372,188.194c-6.317,0-6.317,9.794,0,9.794   C244.688,197.989,244.688,188.194,238.372,188.194z"/>
	<path style="fill-rule:evenodd;clip-rule:evenodd;fill:#FFFFFF;" d="M295.684,189.109c-6.316,0-6.316,9.795,0,9.795   S302.001,189.109,295.684,189.109z"/>
	<path style="fill-rule:evenodd;clip-rule:evenodd;fill:#FFFFFF;" d="M208.645,240.757c-6.317,0-6.317,9.794,0,9.794   C214.962,250.551,214.962,240.757,208.645,240.757z"/>
	<path style="fill-rule:evenodd;clip-rule:evenodd;fill:#FFFFFF;" d="M149.901,173.112c-6.317,0-6.317,9.795,0,9.795   C156.217,182.906,156.217,173.112,149.901,173.112z"/>
	<path style="fill-rule:evenodd;clip-rule:evenodd;fill:#FFFFFF;" d="M247.849,73.858c-6.318,0-6.318,9.795,0,9.795   C254.166,83.653,254.166,73.858,247.849,73.858z"/>
	<path style="fill-rule:evenodd;clip-rule:evenodd;fill:#FFFFFF;" d="M310.536,297.179c-6.318,0-6.318,9.795,0,9.795   C316.852,306.973,316.852,297.179,310.536,297.179z"/>
	<path style="fill-rule:evenodd;clip-rule:evenodd;fill:#FFFFFF;" d="M354.958,240.392c-6.317,0-6.317,9.795,0,9.795   C361.275,250.187,361.275,240.392,354.958,240.392z"/>
	<path style="fill-rule:evenodd;clip-rule:evenodd;fill:#FFFFFF;" d="M411.095,406.88c-6.317,0-6.317,9.795,0,9.795   C417.413,416.675,417.413,406.88,411.095,406.88z"/>
	<path style="fill-rule:evenodd;clip-rule:evenodd;fill:#FFFFFF;" d="M486.842,298.484c-6.316,0-6.316,9.795,0,9.795   S493.159,298.484,486.842,298.484z"/>
	<path style="fill-rule:evenodd;clip-rule:evenodd;fill:#FFFFFF;" d="M19.958,275.303c-6.317,0-6.317,9.795,0,9.795   S26.275,275.303,19.958,275.303z"/>
	<path style="fill-rule:evenodd;clip-rule:evenodd;fill:#FFFFFF;" d="M81.666,405.573c-6.318,0-6.318,9.795,0,9.795   C87.982,415.368,87.982,405.573,81.666,405.573z"/>
	<path style="fill-rule:evenodd;clip-rule:evenodd;fill:#074785;" d="M124.454,219.672c0,11.645-9.439,21.085-21.084,21.085l0,0   c-11.646,0-21.083-9.44-21.083-21.085v-15.177c0-11.643,9.438-21.083,21.083-21.083l0,0c11.645,0,21.084,9.44,21.084,21.083   V219.672z"/>
	<path style="fill-rule:evenodd;clip-rule:evenodd;fill:#074785;" d="M418.151,219.062c0,11.644-9.44,21.083-21.084,21.083l0,0   c-11.643,0-21.083-9.44-21.083-21.083v-15.178c0-11.644,9.44-21.083,21.083-21.083l0,0c11.645,0,21.084,9.44,21.084,21.083V219.062   z"/>
	<path style="fill-rule:evenodd;clip-rule:evenodd;fill:#FFFFFF;" d="M106.804,212.29c-6.317,0-6.317,9.795,0,9.795   C113.121,222.085,113.121,212.29,106.804,212.29z"/>
	<path style="fill-rule:evenodd;clip-rule:evenodd;fill:#FFFFFF;" d="M403.259,194.007c-6.316,0-6.316,9.794,0,9.794   C409.577,203.801,409.577,194.007,403.259,194.007z"/>
</g>















</svg>
