<svg height="512" viewBox="0 0 128 128" width="512" xmlns="http://www.w3.org/2000/svg"><path d="m29.23 22.846a6.986 6.986 0 1 0 4.079 9 6.957 6.957 0 0 0 -4.079-9z" fill="#fff" fill-rule="evenodd"/><path d="m73.791 94.239a6.986 6.986 0 1 0 4.079 9 6.957 6.957 0 0 0 -4.079-9z" fill="#fff" fill-rule="evenodd"/><path d="m64.37 88.6.876-1.862a4.953 4.953 0 0 0 -3-6.849 4.939 4.939 0 0 0 -3.725.31l-1.834.924-1.877-.884a4.96 4.96 0 0 0 -6.531 6.719l.932 1.85-.881 1.871a4.962 4.962 0 0 0 6.72 6.532l1.843-.93 1.879.885a4.962 4.962 0 0 0 6.529-6.72z" fill="#fff" fill-rule="evenodd"/><path d="m115.856 37.39a4.972 4.972 0 0 0 -3.016.106l-1.946.7-1.751-1.107a4.961 4.961 0 0 0 -7.312 5.857l.695 1.946-1.107 1.754a4.958 4.958 0 0 0 5.859 7.313l1.949-.7 1.75 1.106a4.961 4.961 0 0 0 7.311-5.858l-.695-1.945 1.1-1.743a4.958 4.958 0 0 0 -2.838-7.428z" fill="#fff" fill-rule="evenodd"/><path d="m103.972 79.648c-.294-.11-.6-.126-.9-.212a6.838 6.838 0 0 0 4.766-4.174 6.985 6.985 0 1 0 -9.549 3.73 12.147 12.147 0 0 0 -2.623.632l-5.157-4.411a11.9 11.9 0 0 0 -3.179-10.564l3.582-13.049a12.157 12.157 0 1 0 -10.79-21.11l-18.117-6.7a12 12 0 0 0 -2.2-5.027c.035.017.043.054.08.07l1.906.8.547 2a4.96 4.96 0 0 0 9.351.609l.8-1.909 2-.545a4.961 4.961 0 0 0 .608-9.352l-1.906-.8-.542-1.985a4.962 4.962 0 0 0 -2.949-3.306v.006a5.009 5.009 0 0 0 -1.516-.34 4.938 4.938 0 0 0 -4.891 3.029l-.8 1.906-2 .545a4.868 4.868 0 0 0 -3.107 6.746 11.926 11.926 0 0 0 -18.75 5.331v.01a12.125 12.125 0 0 0 2.075 11.994l-7.119 19.2a12.082 12.082 0 0 0 -4.365 1.638 4.69 4.69 0 0 0 -2.448-2.395l-1.909-.8-.542-1.985a4.956 4.956 0 0 0 -9.355-.618l-.8 1.906-2 .545a4.961 4.961 0 0 0 -.608 9.352l1.907.8.545 2a4.961 4.961 0 0 0 9.352.609l.508-1.212a11.944 11.944 0 0 0 20.828 10.063l22.49 4.388a12.185 12.185 0 0 0 7.2 7.463h.014a12.133 12.133 0 0 0 8.307.024l5.1 4.362a12.107 12.107 0 0 0 1.391 8.355l-1.4 2.474a12.037 12.037 0 0 0 -11.215 7.74l-.008.02a12.194 12.194 0 1 0 22.825 8.591l.008-.02a12.191 12.191 0 0 0 -.944-10.485l1.385-2.46a12.04 12.04 0 0 0 11.229-7.769 12.167 12.167 0 0 0 -7.115-15.71zm-28.334-18.323a12.159 12.159 0 0 0 -6.126 3.8l-22.427-4.372a12.126 12.126 0 0 0 -2.1-3.739l7.115-19.185a12.15 12.15 0 0 0 5.7-2.621l9.192 3.4a7.005 7.005 0 1 0 5.039 1.861l3.813 1.41a12.149 12.149 0 0 0 3.343 6.52z" fill="#fff" fill-rule="evenodd"/><path d="m67.289 18.679h3.316v28.336h-3.316z" fill="#5668b0" transform="matrix(.347 -.938 .938 .347 14.232 86.127)"/><path d="m28.11 43.629h29.479v3.317h-29.479z" fill="#5668b0" transform="matrix(.347 -.938 .938 .347 -14.502 69.739)"/><path d="m55.518 52.958h3.316v31.913h-3.316z" fill="#5668b0" transform="matrix(.192 -.981 .981 .192 -21.415 111.83)"/><path d="m71.994 54.816h22.56v3.315h-22.56z" fill="#5668b0" transform="matrix(.265 -.964 .964 .265 6.766 121.821)"/><path d="m87.535 74.265h3.317v15.653h-3.317z" fill="#5668b0" transform="matrix(.65 -.76 .76 .65 -31.169 96.495)"/><path d="m87.929 99.773h11.831v3.317h-11.831z" fill="#5668b0" transform="matrix(.491 -.871 .871 .491 -40.582 133.441)"/><g fill-rule="evenodd"><path d="m52.789 18.589a7.772 7.772 0 1 0 4.536 10.011 7.76 7.76 0 0 0 -4.536-10.011z" fill="#87b3e0"/><path d="m90.581 32.558a7.77 7.77 0 1 0 5.035 7.274 7.777 7.777 0 0 0 -5.035-7.274z" fill="#87b3e0"/><path d="m38.385 57.44a7.772 7.772 0 1 0 4.536 10.011 7.764 7.764 0 0 0 -4.536-10.011z" fill="#87b3e0"/><path d="m81.442 65.842a7.772 7.772 0 1 0 4.536 10.012 7.809 7.809 0 0 0 -4.536-10.012z" fill="#87b3e0"/><path d="m102.42 83.794a7.772 7.772 0 1 0 4.536 10.011 7.809 7.809 0 0 0 -4.536-10.011z" fill="#87b3e0"/><path d="m90.746 104.52a7.772 7.772 0 1 0 4.536 10.012 7.782 7.782 0 0 0 -4.536-10.012z" fill="#87b3e0"/><path d="m114.927 41.828a.532.532 0 0 0 -.6-.169l-2.4.857a3.442 3.442 0 0 1 -3-.331l-2.152-1.361a.535.535 0 0 0 -.789.632l.857 2.4a3.44 3.44 0 0 1 -.331 2.995l-1.353 2.149a.535.535 0 0 0 .632.789l2.4-.858a3.444 3.444 0 0 1 3 .332l2.153 1.36a.534.534 0 0 0 .789-.631l-.857-2.4a3.442 3.442 0 0 1 .331-3l1.361-2.152a.537.537 0 0 0 -.034-.621z" fill="#fbe986"/><path d="m73.386 14.523-2.348-.985a3.444 3.444 0 0 1 -1.988-2.266l-.671-2.457a.534.534 0 0 0 -1.008-.065l-.985 2.35a3.442 3.442 0 0 1 -2.266 1.987l-2.457.671a.535.535 0 0 0 -.066 1.009l2.348.985a3.442 3.442 0 0 1 1.988 2.266l.671 2.456a.534.534 0 0 0 1.008.066l.988-2.35a3.446 3.446 0 0 1 2.263-1.99l2.457-.671a.534.534 0 0 0 .066-1.006z" fill="#fbe986"/><path d="m25.066 56.09-2.348-.99a3.439 3.439 0 0 1 -1.987-2.265l-.671-2.457a.535.535 0 0 0 -.481-.393.535.535 0 0 0 -.528.327l-.985 2.348a3.442 3.442 0 0 1 -2.266 1.992l-2.456.671a.534.534 0 0 0 -.066 1.008l2.348.986a3.443 3.443 0 0 1 1.988 2.265l.67 2.457a.535.535 0 0 0 1.009.066l.985-2.349a3.443 3.443 0 0 1 2.266-1.987l2.456-.669a.534.534 0 0 0 .066-1.01z" fill="#fbe986"/><path d="m60.207 90.167a3.439 3.439 0 0 1 -.042-3.013l1.085-2.3a.537.537 0 0 0 -.11-.612.535.535 0 0 0 -.614-.094l-2.273 1.147a3.444 3.444 0 0 1 -3.014.041l-2.3-1.085a.535.535 0 0 0 -.7.725l1.147 2.273a3.444 3.444 0 0 1 .041 3.014l-1.085 2.3a.535.535 0 0 0 .725.705l2.273-1.147a3.444 3.444 0 0 1 3.014-.041l2.3 1.085a.535.535 0 0 0 .7-.725z" fill="#fbe986"/><path d="m68.2 43.19a2.562 2.562 0 1 0 1.661 2.4 2.576 2.576 0 0 0 -1.661-2.4z" fill="#f6a43d"/><path d="m27.675 26.986a2.561 2.561 0 1 0 1.661 2.4 2.576 2.576 0 0 0 -1.661-2.4z" fill="#f6a43d"/><path d="m102.206 70.405a2.561 2.561 0 1 0 1.661 2.4 2.551 2.551 0 0 0 -1.661-2.4z" fill="#f6a43d"/><path d="m72.236 98.379a2.564 2.564 0 1 0 1.5 3.3 2.577 2.577 0 0 0 -1.5-3.3z" fill="#f6a43d"/></g></svg>