<svg height="512" viewBox="0 0 128 128" width="512" xmlns="http://www.w3.org/2000/svg"><g fill-rule="evenodd"><path d="m50.75 6.884a3.5 3.5 0 0 0 -1.383.042 59.182 59.182 0 0 0 -14.308 5.352 3.46 3.46 0 1 0 3.234 6.122 52.582 52.582 0 0 1 12.646-4.73 3.463 3.463 0 0 0 -.189-6.782z" fill="#fff"/><path d="m34.108 51.69a3.46 3.46 0 0 0 -4.316 2.3c-.308 1.007-.513 2.045-.728 3.079a5.062 5.062 0 0 0 -4.451-.591 38.7 38.7 0 0 1 .894-3.782 3.442 3.442 0 0 0 -2.3-4.337 3.488 3.488 0 0 0 -1.37-.135 3.444 3.444 0 0 0 -2.943 2.433 45.621 45.621 0 0 0 -1.973 11.755 3.443 3.443 0 0 0 3.333 3.583 3.387 3.387 0 0 0 1.746-.464 5.562 5.562 0 0 0 7.985.3 3.379 3.379 0 0 0 1.663.551 3.444 3.444 0 0 0 3.583-3.335 27.317 27.317 0 0 1 1.181-7.047 3.442 3.442 0 0 0 -2.304-4.31z" fill="#fff"/><path d="m79.674 7.982a58.53 58.53 0 0 0 -15.081-2.531 3.461 3.461 0 1 0 -.243 6.917 51.637 51.637 0 0 1 13.308 2.237 3.462 3.462 0 0 0 2.016-6.623z" fill="#fff"/><path d="m25.07 20.22a3.457 3.457 0 0 0 -2.476.936 58.551 58.551 0 0 0 -9.723 11.818 3.461 3.461 0 0 0 5.871 3.665v-.006a51.613 51.613 0 0 1 8.578-10.416 3.472 3.472 0 0 0 -2.25-6z" fill="#fff"/><path d="m93.6 14.33a3.46 3.46 0 1 0 -3.663 5.87 51.629 51.629 0 0 1 10.4 8.561 3.461 3.461 0 0 0 5.058-4.725 58.485 58.485 0 0 0 -11.795-9.706z" fill="#fff"/><path d="m117.414 43.482a59.111 59.111 0 0 0 -3.138-6.981 3.462 3.462 0 1 0 -6.118 3.241 52.437 52.437 0 0 1 4.725 12.628 3.461 3.461 0 1 0 6.744-1.557 59.078 59.078 0 0 0 -2.213-7.331z" fill="#fff"/><path d="m36.953 73.575a27.714 27.714 0 0 1 -1.037-3.424 3.44 3.44 0 0 0 -2.765-2.633 3.515 3.515 0 0 0 -1.379.038 3.442 3.442 0 0 0 -2.6 4.158 34.62 34.62 0 0 0 3.127 8.36 3.46 3.46 0 1 0 6.118-3.234 27.663 27.663 0 0 1 -1.464-3.265z" fill="#fff"/><path d="m105.315 48.007a45.931 45.931 0 0 0 -2.445-5.44 3.462 3.462 0 1 0 -6.118 3.241 39.263 39.263 0 0 1 3.549 9.484 3.46 3.46 0 0 0 6.74-1.572 45.971 45.971 0 0 0 -1.726-5.713z" fill="#fff"/><path d="m86.738 25.275a3.461 3.461 0 1 0 -3.65 5.882 38.71 38.71 0 0 1 7.8 6.42 3.46 3.46 0 0 0 5.057-4.724 45.559 45.559 0 0 0 -9.207-7.578z" fill="#fff"/><path d="m89.459 109.357a3.453 3.453 0 0 0 -2.647.245 52.447 52.447 0 0 1 -12.644 4.732 3.46 3.46 0 0 0 1.572 6.74 59.461 59.461 0 0 0 14.309-5.352 3.458 3.458 0 0 0 -.59-6.365z" fill="#fff"/><path d="m78.098 34.512.008-.004-.015.004z" fill="#fff"/><path d="m122.079 60.168a4.9 4.9 0 0 0 -3.2-.981 12.262 12.262 0 0 0 -6.071 2.431c-.808.545-1.669 1.279-2.521 1.984a15.7 15.7 0 0 0 -2.868-.271 3.375 3.375 0 0 0 -5.975 1.315 15.821 15.821 0 0 0 -2.634 1.165l-.01.008-.01.006a15.991 15.991 0 0 0 -2.236 1.811c.087-.813.218-1.618.247-2.441a3.461 3.461 0 1 0 -6.918-.245 26.986 26.986 0 0 1 -.691 4.11l-1.692-1.172a1.468 1.468 0 0 1 -.394-1.2c.024-.237.046-.477.062-.724a1.455 1.455 0 0 1 .585-1.114l.614-.29a4.064 4.064 0 0 0 2.271-4.637 3.446 3.446 0 0 0 5.3-3.642 34.51 34.51 0 0 0 -3.127-8.364 3.465 3.465 0 0 0 -4.674-1.445h-.006a3.381 3.381 0 0 0 -1.365 1.429 3.462 3.462 0 0 0 -1.394-1.518 3.393 3.393 0 0 0 2.081-.875 3.441 3.441 0 0 0 .167-4.89 34.235 34.235 0 0 0 -6.91-5.683 3.461 3.461 0 0 0 -2.6-.433 3.457 3.457 0 0 0 -2.155 1.524v.006.008a3.439 3.439 0 0 0 1.105 4.768 27.3 27.3 0 0 1 5.511 4.537 3.467 3.467 0 0 0 .864.62 3.152 3.152 0 0 0 -1.292.139l-2.643 1.249a1.434 1.434 0 0 1 -1.215-.258c-.207-.151-.415-.3-.62-.433a1.478 1.478 0 0 1 -.674-1.078l.053-.639a4.19 4.19 0 0 0 -7.617-2.727l-.385.558a1.454 1.454 0 0 1 -1.193.394c-.239-.023-.481-.045-.726-.061a1.465 1.465 0 0 1 -1.113-.584l-1.512-3.2a3.3 3.3 0 0 0 -2.673-1.935 3.423 3.423 0 0 0 -3.831 3.11l-.294 3.5a1.478 1.478 0 0 1 -.842.946c-.241.11-.474.224-.68.327a1.439 1.439 0 0 1 -1.24.054l-.538-.373a4.125 4.125 0 0 0 -2.281-.732 14.136 14.136 0 0 0 5.844-4.691 14.09 14.09 0 0 0 2.23-6.24 3.421 3.421 0 0 0 3.307 3.383 27.234 27.234 0 0 1 7.033 1.184 3.44 3.44 0 0 0 4.324-2.289 3.382 3.382 0 0 0 -.067-2.062 4.487 4.487 0 0 0 1.871-6.924 3.432 3.432 0 0 0 -.767-6.246 45.587 45.587 0 0 0 -11.755-1.975h-.012a3.461 3.461 0 0 0 -.242 6.917h.01a38.625 38.625 0 0 1 5.176.543 4.828 4.828 0 0 0 -1.271 4.347 34.1 34.1 0 0 0 -4.047-.411 3.458 3.458 0 0 0 -2.484.919l-.01.01a3.441 3.441 0 0 0 -1.045 2.213 14.194 14.194 0 0 0 -4.9-12.573l.481.508a3.465 3.465 0 0 0 -1.339-1.081l.626.386q-.4-.323-.825-.616a14.386 14.386 0 0 0 -7.712-2.524 14.258 14.258 0 0 0 -14.73 13.227l-.4.376-.01.008a45.608 45.608 0 0 0 -7.568 9.2 3.442 3.442 0 0 0 1.1 4.772 3.443 3.443 0 0 0 4.772-1.122 38.708 38.708 0 0 1 3.874-5.087 14.2 14.2 0 0 0 2.82 3.555 33.712 33.712 0 0 0 -2.903 3.924v.006.008a3.461 3.461 0 0 0 5.875 3.659v-.006a27.383 27.383 0 0 1 3.561-4.343 14.183 14.183 0 0 0 6.327.1 4.054 4.054 0 0 0 -1.037 4.906l.282.6a1.432 1.432 0 0 1 -.255 1.215c-.141.2-.289.4-.435.62a1.467 1.467 0 0 1 -1.068.674l-3.5-.29a3.422 3.422 0 0 0 -2.231 6.221l2.913 2.018a1.459 1.459 0 0 1 .392 1.194c-.026.254-.045.5-.06.726a1.46 1.46 0 0 1 -.582 1.112l-.619.292a4.188 4.188 0 0 0 1.44 7.958l.649.054a1.475 1.475 0 0 1 .946.84c.1.227.211.456.325.684a1.434 1.434 0 0 1 .056 1.24l-1.653 2.385a3.532 3.532 0 0 0 1.784 5.353 5.673 5.673 0 0 0 -1.251.723 5.4 5.4 0 0 0 -.556.7 26.63 26.63 0 0 1 -2.243-1.847l-.008-.008a3.441 3.441 0 0 0 -4.878-.164 3.394 3.394 0 0 0 -.554.769 4.961 4.961 0 0 0 -1.733-.56 3.765 3.765 0 0 0 -2.11.626 14.3 14.3 0 0 0 -4.658-.244 3.449 3.449 0 0 0 -.263-.875 39.512 39.512 0 0 1 -3.548-9.484 3.461 3.461 0 0 0 -6.74 1.574 46.431 46.431 0 0 0 4.174 11.157v.006.006c.014.027.04.041.056.067a12.876 12.876 0 0 0 -1.2.819 13.533 13.533 0 0 0 -1.098 1.121 14.964 14.964 0 0 0 -1.864 3.053 3.21 3.21 0 0 0 -.935.4 3.443 3.443 0 0 0 -.249-2.657 52.579 52.579 0 0 1 -4.732-12.646 3.46 3.46 0 0 0 -6.739 1.572 59.057 59.057 0 0 0 5.356 14.318 3.419 3.419 0 0 0 4.492 1.487 9.45 9.45 0 0 0 -.605 1.729c-.6 2.438.126 4.2 1.555 5.253a17.258 17.258 0 0 0 2.764 8.136 12.426 12.426 0 0 0 8.136 5.3c1.33 1.526 3.4 1.568 5.179 1.219a7.544 7.544 0 0 0 1.319-.6 3.3 3.3 0 0 0 2.461-1.229l.11-.143.089-.156c.049-.084.011-.184.052-.27a16.02 16.02 0 0 0 4.324-2.766 15.121 15.121 0 0 0 3.565-5.247c1.987-.347 3.164-2.184 3.287-5.116.111-2.658-1.113-4.211-2.663-4.913-.108-.366-.245-.724-.381-1.083a3.442 3.442 0 0 0 2.479.394 5.643 5.643 0 0 0 3.107.288 3.444 3.444 0 0 0 2.432 2.974 34.22 34.22 0 0 0 8.833 1.481 3.459 3.459 0 0 0 .232-6.915 27.294 27.294 0 0 1 -7.03-1.182c-.047-.015-.093 0-.141-.016a5.471 5.471 0 0 0 -4.351-7.489l1.847-.873a1.422 1.422 0 0 1 1.212.257c.208.15.415.295.62.432a1.493 1.493 0 0 1 .676 1.07l-.054.649a4.188 4.188 0 0 0 7.617 2.729l.388-.56a1.467 1.467 0 0 1 1.2-.394c.237.024.477.046.724.062a1.465 1.465 0 0 1 1.114.583l1.512 3.2a3.132 3.132 0 0 0 1.115 1.138 3.39 3.39 0 0 0 -1.932 3.852 3.442 3.442 0 0 0 4.137 2.6h.008.01a34.62 34.62 0 0 0 8.372-3.131h.006.006a3.461 3.461 0 0 0 -3.258-6.108c-.694.368-1.442.666-2.18.979.046-.187.2-.29.22-.5l.288-3.494a1.478 1.478 0 0 1 .842-.946c.239-.109.469-.221.681-.327a1.439 1.439 0 0 1 1.24-.054l.539.373a3.852 3.852 0 0 0 3.862.27 3.4 3.4 0 0 0 .151 4.45 3.441 3.441 0 0 0 4.88.176l.008-.008a34.265 34.265 0 0 0 5.686-6.91v-.006-.008a3.338 3.338 0 0 0 .22-.593 15.9 15.9 0 0 0 1.408 4.3 31.942 31.942 0 0 0 -1.371 3.426 38.235 38.235 0 0 1 -2.9 3.065 3.44 3.44 0 0 0 -.164 4.891 3.394 3.394 0 0 0 4.036.694c.038.031.055.074.095.1 2.771 2.132 6.564.513 10.16-2.124a51.484 51.484 0 0 1 -5.317 5.882 3.462 3.462 0 0 0 4.726 5.06 58.526 58.526 0 0 0 9.718-11.81 3.377 3.377 0 0 0 .357-.944 15.591 15.591 0 0 0 9.23-21.711c2.183-4.745 3.445-9.76.262-12.21zm-105.02 40.322-.156-.1-.122-.093-.048-.042a4.81 4.81 0 0 0 .527.33zm1.829-9.99.174-.036.182-.024h.181l.184.011.181.029a3.58 3.58 0 0 0 -.902.02zm8 22.6-.05-.046-.042-.044-.035-.041-.029-.035-.021-.027-.014-.021-.008-.012c.06.1.151.141.215.232zm5.482-29.12.132-.125.119-.1.112-.073.105-.062.042-.019a5.042 5.042 0 0 0 -.51.379zm12.66 18.542-.07.2-.041.046c.027-.085.081-.16.111-.246zm-1.891 1.648-.265.023-.288-.012-.3-.052a4.607 4.607 0 0 0 .885.035zm.5-10.4.274.06.218.075.163.077a5.1 5.1 0 0 0 -.653-.212zm41.311-39.983 1.65-2.387c.062-.088.024-.182.076-.272 0 .009 0 .02.01.029a27.8 27.8 0 0 1 1.467 3.266 27.374 27.374 0 0 1 .916 3.028 4.056 4.056 0 0 0 -2.146-.848l-.649-.054a1.487 1.487 0 0 1 -.948-.842c-.1-.226-.211-.455-.325-.684a1.425 1.425 0 0 1 -.051-1.236zm6.709 24.875a3.368 3.368 0 0 0 -1.159-1.283 3.457 3.457 0 0 0 -4.762 1.107 27.462 27.462 0 0 1 -2.182 2.653 4.113 4.113 0 0 0 -.356-2.207l-.278-.587a1.436 1.436 0 0 1 .257-1.215c.142-.195.289-.4.435-.62a1.479 1.479 0 0 1 1.072-.674l3.493.288a3.16 3.16 0 0 0 1.671-.431 3.461 3.461 0 0 0 1.141.615 3.4 3.4 0 0 0 .937.094 15.747 15.747 0 0 0 -.269 2.26zm6.951 9.548-3.635.481-.11-2.917 4.154 2.162c-.144.101-.278.189-.409.274zm.618-.081v-.087l.133.069z" fill="#fff"/><path d="m10.864 44.585a3.5 3.5 0 0 0 -1.375-.139 3.438 3.438 0 0 0 -2.951 2.433 58.549 58.549 0 0 0 -2.538 15.08 3.461 3.461 0 1 0 6.918.245 51.647 51.647 0 0 1 2.242-13.304 3.44 3.44 0 0 0 -2.296-4.315z" fill="#fff"/><path d="m89.46 109.357h.005l-.011-.004z" fill="#fff"/><path d="m60.757 115.631a51.617 51.617 0 0 1 -13.3-2.234 3.461 3.461 0 0 0 -2.02 6.62 58.488 58.488 0 0 0 15.079 2.532 3.461 3.461 0 1 0 .245-6.918z" fill="#fff"/><path d="m61.207 102.719a38.738 38.738 0 0 1 -9.982-1.676 3.46 3.46 0 0 0 -2.016 6.62 45.6 45.6 0 0 0 11.765 1.974 3.461 3.461 0 0 0 .233-6.918z" fill="#fff"/><path d="m82.065 97.8a3.494 3.494 0 0 0 -1.317.4 39.414 39.414 0 0 1 -9.477 3.544 3.46 3.46 0 1 0 1.562 6.742 45.934 45.934 0 0 0 11.146-4.166 3.463 3.463 0 0 0 -1.914-6.52z" fill="#fff"/><path d="m88.718 72.343-2.91-2.018a4.548 4.548 0 0 1 -1.655-3.925c.021-.209.038-.417.052-.626a4.543 4.543 0 0 1 2.277-3.6l.616-.291a1.22 1.22 0 0 0 -.419-2.32l-.647-.053a4.562 4.562 0 0 1 -3.4-2.571c-.09-.2-.183-.394-.28-.588a4.52 4.52 0 0 1 .163-4.251l1.654-2.386a.622.622 0 0 0 -.777-.916l-2.625 1.239a4.524 4.524 0 0 1 -4.221-.538q-.264-.192-.534-.373a4.559 4.559 0 0 1 -1.976-3.778l.053-.646a1.22 1.22 0 0 0 -2.219-.8l-.388.561a4.548 4.548 0 0 1 -3.926 1.655c-.209-.021-.417-.039-.627-.052a4.548 4.548 0 0 1 -3.6-2.277l-1.512-3.2a.454.454 0 0 0 -.863.156l-.29 3.5a4.558 4.558 0 0 1 -2.57 3.4c-.2.09-.394.184-.588.28a4.519 4.519 0 0 1 -4.252-.164l-.538-.372a1.224 1.224 0 0 0 -1.8 1.529l.279.592a4.523 4.523 0 0 1 -.536 4.221q-.192.264-.373.535a4.56 4.56 0 0 1 -3.786 1.974l-3.5-.289a.454.454 0 0 0 -.3.826l2.912 2.017a4.548 4.548 0 0 1 1.655 3.926c-.021.209-.038.417-.052.627a4.543 4.543 0 0 1 -2.277 3.6l-.617.291a1.22 1.22 0 0 0 .42 2.319l.647.054a4.563 4.563 0 0 1 3.4 2.57q.135.3.28.589a4.52 4.52 0 0 1 -.163 4.251l-1.645 2.386a.622.622 0 0 0 .777.917l2.624-1.239a4.516 4.516 0 0 1 4.22.537q.266.191.535.373a4.563 4.563 0 0 1 1.977 3.778l-.053.647a1.22 1.22 0 0 0 2.219.8l.388-.56a4.543 4.543 0 0 1 3.926-1.66c.208.02.417.038.626.051a4.55 4.55 0 0 1 3.6 2.278l1.512 3.2a.454.454 0 0 0 .863-.157l.289-3.495a4.558 4.558 0 0 1 2.57-3.4c.2-.09.394-.184.589-.281a4.52 4.52 0 0 1 4.251.164l.538.373a1.225 1.225 0 0 0 1.806-1.53l-.28-.592a4.523 4.523 0 0 1 .537-4.221c.127-.176.252-.355.374-.535a4.56 4.56 0 0 1 3.777-1.976l3.5.289a.454.454 0 0 0 .293-.825z" fill="#fbe986"/><path d="m55.159 51.2a13.457 13.457 0 0 0 -1.434 1.1 15.988 15.988 0 0 0 -5.1 10.9 17.665 17.665 0 0 0 4.248 13.153c6.149 6.775 16.95 6.582 24.1 1.063 7.527-5.807 8.305-17.062 2.027-24.131-6.133-6.903-16.67-6.851-23.841-2.085z" fill="#f9cb68"/><path d="m71.3 27.692a1.972 1.972 0 1 0 2.779.23 1.972 1.972 0 0 0 -2.779-.23z" fill="#f6a43d"/><path d="m47.274 86.057a2.8 2.8 0 1 0 3.952.327 2.818 2.818 0 0 0 -3.952-.327z" fill="#f6a43d"/><path d="m56.209 52.778c-6.975 4.635-7.56 16.1-1.931 22.3 5.375 5.921 15.109 5.8 21.536.836 6.628-5.117 7.328-15.11 1.766-21.371-5.394-6.071-14.914-6.055-21.371-1.765z" fill="#f6a43d"/><path d="m58.525 56.619a12.312 12.312 0 0 0 -4.247-2.219q-.249.258-.482.531a.287.287 0 0 0 .034.035.08.08 0 0 0 .024.013 11.914 11.914 0 0 1 4.224 2.159 3.669 3.669 0 0 1 1.509 2.853 2.381 2.381 0 0 1 -1.26 2 3.454 3.454 0 0 1 -2.92.123 17.547 17.547 0 0 1 -4.121-2.429.092.092 0 0 0 -.024-.013.212.212 0 0 0 -.04-.006c-.071.224-.139.45-.2.678a17.491 17.491 0 0 0 4.147 2.414 4.151 4.151 0 0 0 3.5-.171 3.087 3.087 0 0 0 1.608-2.565 4.372 4.372 0 0 0 -1.752-3.403z" fill="#f47d20"/><path d="m57.478 58.285a4.178 4.178 0 0 0 -2.217-.527 1.309 1.309 0 0 0 -.637.134.905.905 0 0 0 -.183.127c-.019.017-.036.034-.051.05a.819.819 0 0 0 -.16.24 1.363 1.363 0 0 0 .072 1.1 2.8 2.8 0 0 0 1.985 1.605 1.613 1.613 0 0 0 1.913-1.485 1.47 1.47 0 0 0 -.722-1.244z" fill="#f47d20"/><path d="m50.56 62.911v-.001h-.001z" fill="#f47d20"/><path d="m76 61.785a9.51 9.51 0 0 0 -5.623-.022 5.82 5.82 0 0 0 -1.731.95c-.1.084-.2.169-.3.258a4.9 4.9 0 0 0 -1.15 1.626c-1.024 2.384.072 5.392 3.332 6.47a65.654 65.654 0 0 0 8.191 1.8c.138-.2.269-.4.395-.6a.207.207 0 0 0 -.052-.03h-.011a68.92 68.92 0 0 1 -8.306-1.816c-2.952-.975-3.8-3.511-2.92-5.547a4.207 4.207 0 0 1 .99-1.4c1.323-1.244 3.651-1.924 7-1.019a26.435 26.435 0 0 1 5.4 2.027.092.092 0 0 0 .023.009.2.2 0 0 0 .07 0c0-.244-.005-.489-.017-.733a27.546 27.546 0 0 0 -5.291-1.973z" fill="#f47d20"/><path d="m66.176 52.032a2.392 2.392 0 0 1 -1.418-1.5 4.645 4.645 0 0 1 -.2-.693c-.227.022-.453.049-.679.079a.05.05 0 0 0 0 .017 5.407 5.407 0 0 0 .241.845 3.147 3.147 0 0 0 1.813 1.895c1.606.615 3.931.1 7.145-1.328a.2.2 0 0 0 .1-.1c-.262-.125-.526-.241-.794-.35-2.93 1.25-5.001 1.603-6.208 1.135z" fill="#f47d20"/><path d="m77.535 54.5a21.465 21.465 0 0 0 -6.84 1.245 10.081 10.081 0 0 1 -5.76.445 7.24 7.24 0 0 1 -3.261-2.043 26.727 26.727 0 0 0 -2.57-2.551 3.929 3.929 0 0 0 -.334-.221h-.008q-.341.153-.674.319a.2.2 0 0 0 .046.086.082.082 0 0 0 .02.012 4.54 4.54 0 0 1 .54.348 28.587 28.587 0 0 1 2.493 2.49 7.953 7.953 0 0 0 3.567 2.218 10.77 10.77 0 0 0 6.148-.455 19.593 19.593 0 0 1 7.048-1.193.055.055 0 0 0 .018 0 .208.208 0 0 0 .113-.06q-.242-.3-.5-.593c-.014-.018-.03-.034-.046-.047z" fill="#f47d20"/><path d="m74.886 76.454a21.282 21.282 0 0 1 -5.737-4.5c-2.953-3.01-5.211-4.041-7.789-4.2s-5.428.518-9.756.8a5.735 5.735 0 0 1 -.615 0 .084.084 0 0 0 -.027 0 .147.147 0 0 0 -.022.01q.079.337.173.67a5.35 5.35 0 0 0 .537 0c4.378-.287 7.246-.945 9.671-.8s4.452 1.046 7.34 3.989a22.778 22.778 0 0 0 5.658 4.514c.218-.134.433-.274.646-.418a.182.182 0 0 0 -.072-.069z" fill="#f47d20"/><path d="m66.978 73.083a6.818 6.818 0 0 0 -4.507-.3c-3.544.827-5.649 1.534-7.164 1.627a4.132 4.132 0 0 1 -1.506-.155.047.047 0 0 0 -.016 0 .2.2 0 0 0 -.089.01.2.2 0 0 0 -.063.04c.193.249.394.493.6.728a4.881 4.881 0 0 0 1.112.063c1.682-.1 3.757-.82 7.275-1.641a6.1 6.1 0 0 1 4.065.252 5.856 5.856 0 0 1 2.441 2.246 11.919 11.919 0 0 1 1.254 2.79c.218-.069.433-.144.648-.221a12.521 12.521 0 0 0 -1.325-2.94 6.545 6.545 0 0 0 -2.725-2.499z" fill="#f47d20"/><path d="m76.564 57.412a6.858 6.858 0 0 0 -5.027 1.646c-3.332 2.66-7.809 5.356-11.878 6.378a10.5 10.5 0 0 1 -5.594.1 6.117 6.117 0 0 1 -3.358-2.542.2.2 0 0 0 -.144-.08c-.032.313-.055.63-.069.947a6.79 6.79 0 0 0 3.372 2.334 11.13 11.13 0 0 0 5.96-.091c4.229-1.062 8.751-3.8 12.139-6.505a6.11 6.11 0 0 1 4.535-1.499 8.564 8.564 0 0 1 3.749 1.434l.094.063.013.006a.2.2 0 0 0 .155 0q-.154-.456-.341-.9a8.687 8.687 0 0 0 -3.606-1.291z" fill="#f47d20"/><path d="m66.117 79.443c-.044-.065-.086-.117-.1-.142a3.768 3.768 0 0 0 -1.964-1.975 2.289 2.289 0 0 0 -1.5.094c-.16.059-.317.129-.471.2-.67.324-1.331.747-2.028 1.006l-.015.008a.2.2 0 0 0 -.088.123c.3.1.595.193.9.275.561-.267 1.072-.577 1.531-.8a1.977 1.977 0 0 1 1.468-.257c.439.137.953.574 1.537 1.6q.375-.007.75-.032a.208.208 0 0 0 -.006-.083.088.088 0 0 0 -.014-.017z" fill="#f47d20"/><path d="m67.655 58.5c-1.972-.561-3.545.206-5.579.887-1.194.4 1.917 3.483 4.109 2.571s3.441-2.899 1.47-3.458z" fill="#f47d20"/><path d="m73.59 62.783c-3.209-.509-5.585 2.156-4.845 4.15.917 2.473 5.468 1.361 7.911-.02s.144-3.62-3.066-4.13z" fill="#f47d20"/><path d="m55.042 51.022a13.658 13.658 0 0 0 -1.457 1.117 16.2 16.2 0 0 0 -5.171 11.046 17.878 17.878 0 0 0 4.3 13.312c6.234 6.868 17.157 6.668 24.385 1.088 7.625-5.885 8.417-17.285 2.058-24.441-6.212-6.993-16.865-6.939-24.115-2.122zm21.8 26.227c-7.067 5.457-17.742 5.645-23.812-1.037a17.463 17.463 0 0 1 -4.193-13 15.784 15.784 0 0 1 5.028-10.76 13.263 13.263 0 0 1 1.411-1.082c7.092-4.712 17.513-4.761 23.564 2.051 6.199 6.984 5.427 18.097-1.997 23.828z" fill="#faa73a"/><g fill="#d6e0e9"><path d="m41.207 41.113a31.259 31.259 0 0 0 -5.192 6.308.5.5 0 0 0 .84.524 30.252 30.252 0 0 1 5.025-6.11.494.494 0 1 0 -.673-.722z"/><path d="m34.174 74.614a30.574 30.574 0 0 1 -1.148-3.8.494.494 0 0 0 -.975.111.536.536 0 0 0 .013.113 31.712 31.712 0 0 0 2.861 7.65.494.494 0 1 0 .873-.463 30.529 30.529 0 0 1 -1.624-3.611z"/><path d="m104.75 64.973a.5.5 0 0 0 -.511.477 41.666 41.666 0 0 1 -1.805 10.738.509.509 0 0 0 -.021.145.494.494 0 0 0 .349.472.477.477 0 0 0 .145.022.5.5 0 0 0 .473-.35 42.644 42.644 0 0 0 1.848-10.991v-.019a.5.5 0 0 0 -.478-.494z"/><path d="m53.058 22.389a.536.536 0 0 0 -.113.013 43.106 43.106 0 0 0 -10.438 3.9.494.494 0 1 0 .462.873 42.367 42.367 0 0 1 10.2-3.815.494.494 0 0 0 -.111-.975z"/><path d="m50.151 9.8a.478.478 0 0 0 -.113.013 56.41 56.41 0 0 0 -13.6 5.085.495.495 0 0 0 .231.932.507.507 0 0 0 .232-.057 55.353 55.353 0 0 1 13.359-5 .5.5 0 0 0 .383-.481.536.536 0 0 0 -.013-.113.5.5 0 0 0 -.479-.379z"/><path d="m11.4 83.131a55.089 55.089 0 0 1 -2.067-6.84.493.493 0 0 0 -.974.112.476.476 0 0 0 .013.112 56.173 56.173 0 0 0 5.085 13.6.494.494 0 1 0 .872-.464 55.08 55.08 0 0 1 -2.929-6.52z"/><path d="m24.618 23.326a55.531 55.531 0 0 0 -9.225 11.209.495.495 0 0 0 .839.524 54.567 54.567 0 0 1 9.061-11.011.495.495 0 0 0 -.675-.723z"/><path d="m9.992 47.42a.493.493 0 0 0 -.617.328 55.518 55.518 0 0 0 -2.407 14.316v.018a.495.495 0 0 0 .989.017 54.533 54.533 0 0 1 2.365-14.062.5.5 0 0 0 .021-.144.494.494 0 0 0 -.351-.473z"/><path d="m33.43 32.774a42.625 42.625 0 0 0 -7.081 8.607.494.494 0 1 0 .838.522 41.647 41.647 0 0 1 6.913-8.403.495.495 0 0 0 -.675-.723z"/><path d="m33.246 54.526a.5.5 0 0 0 -.618.329 31.27 31.27 0 0 0 -1.353 8.055.495.495 0 0 0 .989.036 30.249 30.249 0 0 1 1.31-7.8.51.51 0 0 0 .026-.146.5.5 0 0 0 -.354-.474z"/><path d="m93.356 64.577h-.019a.5.5 0 0 0 -.494.477 30.3 30.3 0 0 1 -1.31 7.8.47.47 0 0 0 -.022.144.5.5 0 0 0 .35.473.5.5 0 0 0 .144.022.5.5 0 0 0 .473-.35 31.243 31.243 0 0 0 1.354-8.056.5.5 0 0 0 -.476-.51z"/><path d="m79.133 37.462a.495.495 0 0 0 -.524.839 30.244 30.244 0 0 1 6.109 5.027.495.495 0 0 0 .723-.676 31.277 31.277 0 0 0 -6.308-5.19z"/><path d="m85.172 27.794a.5.5 0 0 0 -.681.157.494.494 0 0 0 .158.683 41.655 41.655 0 0 1 8.408 6.916.494.494 0 1 0 .723-.674 42.641 42.641 0 0 0 -8.608-7.082z"/><path d="m55.511 33.509a31.673 31.673 0 0 0 -7.652 2.862.5.5 0 0 0 .465.874 30.694 30.694 0 0 1 7.41-2.772.494.494 0 0 0 .382-.481.478.478 0 0 0 -.013-.113.5.5 0 0 0 -.592-.37z"/><path d="m92.016 16.841a.494.494 0 1 0 -.522.838 54.551 54.551 0 0 1 11.01 9.059.495.495 0 1 0 .723-.675 55.5 55.5 0 0 0 -11.211-9.222z"/><path d="m75.03 23.174a42.644 42.644 0 0 0 -10.991-1.848.495.495 0 0 0 -.035.989 41.656 41.656 0 0 1 10.736 1.8.5.5 0 0 0 .618-.326.477.477 0 0 0 .022-.145.5.5 0 0 0 -.35-.47z"/><path d="m22.344 51.194a.5.5 0 0 0 -.144-.022.5.5 0 0 0 -.473.35 42.657 42.657 0 0 0 -1.846 10.993.493.493 0 1 0 .986.034 41.652 41.652 0 0 1 1.806-10.736.478.478 0 0 0 .022-.146.5.5 0 0 0 -.351-.473z"/><path d="m78.805 10.82a55.516 55.516 0 0 0 -14.317-2.405.5.5 0 0 0 -.511.476v.019a.5.5 0 0 0 .476.494 54.537 54.537 0 0 1 14.063 2.362.509.509 0 0 0 .145.021.494.494 0 0 0 .144-.967z"/><path d="m91.859 53.039a31.38 31.38 0 0 0 -1.678-3.732.493.493 0 1 0 -.872.462 30.667 30.667 0 0 1 2.772 7.412.494.494 0 0 0 .975-.112.527.527 0 0 0 -.013-.112 31.712 31.712 0 0 0 -1.184-3.918z"/><path d="m98.228 85.875a.493.493 0 0 0 -.308.221 41.653 41.653 0 0 1 -6.92 8.404.495.495 0 0 0 .675.723 42.652 42.652 0 0 0 7.082-8.6.5.5 0 0 0 -.531-.745z"/><path d="m82.138 100.82a42.27 42.27 0 0 1 -10.2 3.815.494.494 0 0 0 .112.975.47.47 0 0 0 .112-.013 43.162 43.162 0 0 0 10.439-3.9.494.494 0 1 0 -.462-.873z"/><path d="m88.933 79.9a.5.5 0 0 0 -.374-.061.49.49 0 0 0 -.307.221 30.267 30.267 0 0 1 -5.026 6.108.494.494 0 1 0 .674.723 31.271 31.271 0 0 0 5.192-6.31.5.5 0 0 0 -.159-.681z"/><path d="m88.435 112.166a.5.5 0 0 0 -.232.058 55.212 55.212 0 0 1 -13.359 5 .5.5 0 0 0 -.383.482.527.527 0 0 0 .013.112.5.5 0 0 0 .482.383.527.527 0 0 0 .112-.013 56.413 56.413 0 0 0 13.6-5.086.493.493 0 0 0 .263-.437.488.488 0 0 0 -.057-.231.5.5 0 0 0 -.439-.268z"/><path d="m102.536 49.046a42.9 42.9 0 0 0 -2.288-5.092.495.495 0 0 0 -.875.462 42.075 42.075 0 0 1 3.815 10.2.5.5 0 0 0 .481.383.536.536 0 0 0 .113-.013.5.5 0 0 0 .37-.593 43.034 43.034 0 0 0 -1.616-5.347z"/><path d="m109.183 92.72a.5.5 0 0 0 -.308.219 54.572 54.572 0 0 1 -9.062 11.011.5.5 0 0 0 -.022.7.5.5 0 0 0 .7.023 55.571 55.571 0 0 0 9.225-11.21.494.494 0 0 0 -.531-.743z"/><path d="m117.661 65.423a.491.491 0 0 0 -.353.132.5.5 0 0 0 -.158.345 54.565 54.565 0 0 1 -2.362 14.061.494.494 0 1 0 .944.292 55.533 55.533 0 0 0 2.407-14.318v-.018a.5.5 0 0 0 -.478-.494z"/><path d="m114.635 44.521a56 56 0 0 0 -2.982-6.633.495.495 0 0 0 -.932.231.489.489 0 0 0 .058.231 55.431 55.431 0 0 1 5 13.358.5.5 0 0 0 .482.383.52.52 0 0 0 .112-.013.5.5 0 0 0 .371-.593 56.4 56.4 0 0 0 -2.109-6.964z"/><path d="m61.5 94.291a30.278 30.278 0 0 1 -7.8-1.311.494.494 0 1 0 -.292.944 31.3 31.3 0 0 0 8.058 1.355.494.494 0 0 0 .034-.988z"/><path d="m40.389 84.672a.495.495 0 0 0 -.723.675 31.249 31.249 0 0 0 6.308 5.19.494.494 0 0 0 .526-.837 30.256 30.256 0 0 1 -6.111-5.028z"/><path d="m32.05 92.449a.494.494 0 1 0 -.721.675 42.613 42.613 0 0 0 8.6 7.081.49.49 0 0 0 .262.076.494.494 0 0 0 .262-.914 41.659 41.659 0 0 1 -8.403-6.918z"/><path d="m77.014 90.7a.492.492 0 0 0 -.231.058 30.664 30.664 0 0 1 -7.41 2.771.5.5 0 0 0 -.383.481.536.536 0 0 0 .01.11.5.5 0 0 0 .593.37 31.743 31.743 0 0 0 7.652-2.862.495.495 0 0 0 -.234-.931z"/><path d="m22.6 101.261a.495.495 0 1 0 -.723.675 55.5 55.5 0 0 0 11.211 9.224.495.495 0 0 0 .523-.84 54.557 54.557 0 0 1 -11.011-9.059z"/><path d="m60.653 118.6a54.63 54.63 0 0 1 -14.063-2.362.494.494 0 1 0 -.288.945 55.509 55.509 0 0 0 14.316 2.405.5.5 0 0 0 .512-.475v-.019a.5.5 0 0 0 -.477-.494z"/><path d="m71.7 34.075a31.3 31.3 0 0 0 -8.058-1.353.493.493 0 1 0 -.034.986 30.253 30.253 0 0 1 7.8 1.314.5.5 0 0 0 .144.021.5.5 0 0 0 .147-.968z"/><path d="m23.5 78.607a42.123 42.123 0 0 1 -1.578-5.223.5.5 0 0 0 -.485-.384.476.476 0 0 0 -.112.013.5.5 0 0 0 -.383.481.536.536 0 0 0 .013.113 43.4 43.4 0 0 0 3.9 10.439.5.5 0 0 0 .932-.234.492.492 0 0 0 -.058-.231 42.211 42.211 0 0 1 -2.229-4.974z"/><path d="m61.1 105.684a41.67 41.67 0 0 1 -10.737-1.8.5.5 0 0 0 -.144-.021.5.5 0 0 0 -.473.349.51.51 0 0 0 -.022.145.5.5 0 0 0 .35.473 42.642 42.642 0 0 0 10.991 1.846.495.495 0 0 0 .035-.989z"/></g><path d="m52.573 21.961a11.425 11.425 0 1 0 4.956 9.417 11.479 11.479 0 0 0 -4.956-9.417z" fill="#5668b0"/><path d="m52.573 21.961a11.424 11.424 0 0 0 -13.164.161c2.857-.4 5.466.966 5.923 3.764.583 3.564 3.683 4.805 4.3 1.517s2.346-2.628 2.953-1.982 1.723 1 1.991-.791a1.531 1.531 0 0 1 .224-.63 11.376 11.376 0 0 0 -2.227-2.039z" fill="#74c8b3"/><path d="m51.276 34.495c-1.434 4.583-4.308 9.488-7.674 5.7-1.788-2.014-3.362-1.759-4.034-.718a2.227 2.227 0 0 0 -.328 1.007q.195.162.4.316a11.38 11.38 0 0 0 17.777-7.988c-1.917.221-5.052-1.795-6.141 1.683z" fill="#74c8b3"/><path d="m41.31 26.241c-.7-1.925-3.642 1.045-2.317 2.564s1.649 1.979-.082 3.667 1.135 3.681 2.833 2.174 2.279 3.334 3.875-.342-3.407-5.575-4.309-8.063z" fill="#74c8b3"/><path d="m53.423 22.808a3.322 3.322 0 0 1 -1.15.641.8.8 0 0 1 -.44.041.413.413 0 0 1 -.245-.181 2.819 2.819 0 0 1 -.29-.936 5.226 5.226 0 0 0 -.362-1.249c-.021-.046-.051-.088-.076-.132-.125-.058-.251-.113-.378-.166a1.984 1.984 0 0 1 .255.394 5.094 5.094 0 0 1 .345 1.2 2.786 2.786 0 0 0 .324 1.018.652.652 0 0 0 .371.269 1.008 1.008 0 0 0 .563-.045 3.539 3.539 0 0 0 1.229-.685c.044-.039.083-.083.124-.124-.055-.049-.112-.1-.168-.144-.034.031-.065.067-.102.099z" fill="#2f949d"/><path d="m46.449 19.96h-.227c.015.07.028.138.047.209a1.075 1.075 0 0 1 -.122 1.032.862.862 0 0 1 -.786.23 1.776 1.776 0 0 1 -1.386-1.272l-.218.043a2 2 0 0 0 1.573 1.448 1.082 1.082 0 0 0 .981-.3 1.3 1.3 0 0 0 .172-1.236c-.014-.056-.023-.104-.034-.154z" fill="#2f949d"/><path d="m47.833 23.17a1.527 1.527 0 0 0 -.588-.289.239.239 0 0 0 -.291.341 3.34 3.34 0 0 0 .679 1.447.376.376 0 0 0 .409.057 1.022 1.022 0 0 0 .353-.349.493.493 0 0 0 .085-.333.784.784 0 0 0 -.117-.325 1.973 1.973 0 0 0 -.53-.549zm.382 1.079a.928.928 0 0 1 -.271.28c-.067.032-.1.032-.169-.029a3.632 3.632 0 0 1 -.61-1.345c-.021-.067-.006-.071-.016-.062s0 0 .058 0a1.452 1.452 0 0 1 .5.251 1.815 1.815 0 0 1 .47.483.583.583 0 0 1 .087.235.251.251 0 0 1 -.049.187z" fill="#2f949d"/><path d="m43.782 30.934a1.322 1.322 0 0 0 -1.261-.2.636.636 0 0 0 -.282.272.574.574 0 0 0 -.058.347 1.031 1.031 0 0 0 .4.632 1.148 1.148 0 0 0 1.667-.184.3.3 0 0 0 .067-.235.541.541 0 0 0 -.093-.228 1.471 1.471 0 0 0 -.44-.404zm.3.725a.965.965 0 0 1 -.718.382 1 1 0 0 1 -.644-.227.841.841 0 0 1 -.316-.491.354.354 0 0 1 .029-.218.426.426 0 0 1 .194-.174 1.166 1.166 0 0 1 1.041.189 1.318 1.318 0 0 1 .372.34.351.351 0 0 1 .058.135.07.07 0 0 1 -.021.064z" fill="#2f949d"/><path d="m48.429 22.513a2.186 2.186 0 0 1 -1.09-1.014.745.745 0 0 1 .175-.812 1.752 1.752 0 0 1 .988-.479c-.165-.035-.33-.066-.5-.094a1.739 1.739 0 0 0 -.654.423.986.986 0 0 0 -.219 1.039 2.371 2.371 0 0 0 1.191 1.132 2.034 2.034 0 0 1 1.087 1.192 1.576 1.576 0 0 1 -.149 1.2 1.475 1.475 0 0 1 -.83.71.9.9 0 0 1 -.963-.289 11.885 11.885 0 0 1 -1.249-2.1 7.108 7.108 0 0 0 -3.3-2.481 5.5 5.5 0 0 0 -.762-.288c-.116.043-.232.089-.348.136a5.436 5.436 0 0 1 1.018.352 6.869 6.869 0 0 1 3.21 2.4 11.317 11.317 0 0 0 1.266 2.136 1.143 1.143 0 0 0 1.185.35 1.68 1.68 0 0 0 .962-.814 1.8 1.8 0 0 0 .168-1.373 2.267 2.267 0 0 0 -1.186-1.326z" fill="#2f949d"/><path d="m54.148 33.478a1.375 1.375 0 0 0 -.772-.015 2.759 2.759 0 0 0 -1.665 1.028 2.285 2.285 0 0 0 -.169.274 1.52 1.52 0 0 0 .024 1.745.549.549 0 0 0 .574.164.836.836 0 0 0 .469-.591 4.86 4.86 0 0 1 1.606-2.083.38.38 0 0 0 .125-.3.3.3 0 0 0 -.192-.222zm-.1.373a4.977 4.977 0 0 0 -1.648 2.166c-.088.279-.217.409-.331.448a.315.315 0 0 1 -.342-.108 1.324 1.324 0 0 1 .013-1.491 1.9 1.9 0 0 1 .152-.245 2.562 2.562 0 0 1 1.529-.941 1.29 1.29 0 0 1 .642 0c.052.022.058.037.059.048s-.007.054-.07.123z" fill="#2f949d"/><path d="m50.964 37.991a.537.537 0 0 0 -.407.2 1.692 1.692 0 0 0 -.178.222 5.624 5.624 0 0 0 -.518 1.047c-.326.817-.648 1.9-.959 3 .082-.021.165-.042.248-.065.3-1.051.608-2.078.916-2.849a4.1 4.1 0 0 1 .649-1.2.328.328 0 0 1 .235-.13c.059 0 .132.044.219.175a2.316 2.316 0 0 1 .233 1.194c0 .5-.049 1.05-.063 1.538v.415c.074-.039.147-.079.22-.119 0-.093 0-.189 0-.291.013-.476.064-1.03.063-1.543a2.425 2.425 0 0 0 -.27-1.317.533.533 0 0 0 -.388-.277z" fill="#2f949d"/><path d="m54.158 34.61a1.269 1.269 0 0 0 -.462.443 2.567 2.567 0 0 0 -.3 1.419c.027 1.645.2 2.713.264 3.479.071-.062.141-.127.21-.192-.073-.767-.228-1.786-.253-3.291-.016-.969.242-1.436.651-1.665a2.832 2.832 0 0 1 1.687-.126c.328.045.673.109 1.02.167.022-.071.042-.143.063-.214-.354-.059-.71-.124-1.053-.172a2.972 2.972 0 0 0 -1.827.152z" fill="#2f949d"/><path d="m44.064 30.341c-.331-.153-.676-.266-.944-.4s-.448-.281-.5-.494a2.564 2.564 0 0 0 -1.207-1.837.641.641 0 0 0 -.743.2 2.3 2.3 0 0 0 -.4 1.238c-.127 1.263.943 2.633 2.092 3.432a3.314 3.314 0 0 0 1.681.673 1.053 1.053 0 0 0 .676-.191 1.064 1.064 0 0 0 .38-.658 1.664 1.664 0 0 0 -.174-1.304 2 2 0 0 0 -.861-.659zm.822 1.921a.752.752 0 0 1 -.833.672 3.17 3.17 0 0 1 -1.561-.633c-1.1-.767-2.111-2.109-2-3.229a2.145 2.145 0 0 1 .346-1.119.39.39 0 0 1 .494-.138 2.493 2.493 0 0 1 1.074 1.685 1.033 1.033 0 0 0 .615.641c.291.146.636.258.95.4a1.8 1.8 0 0 1 .771.581 1.426 1.426 0 0 1 .144 1.14z" fill="#2f949d"/><path d="m41.877 23.573a4.988 4.988 0 0 0 -2.147-.763 5.267 5.267 0 0 1 -.91-.228c-.067.054-.133.11-.2.166a5.472 5.472 0 0 0 1.074.281 4.8 4.8 0 0 1 2.05.722 1.213 1.213 0 0 1 .387.425.38.38 0 0 1 .019.336c-.088.2-.413.376-1 .385a6.607 6.607 0 0 1 -2.491-.59c-.4-.165-.757-.34-1.089-.516-.05.055-.1.112-.149.168a12.126 12.126 0 0 0 1.154.552 6.808 6.808 0 0 0 2.578.606c.634-.009 1.057-.193 1.2-.514a.611.611 0 0 0 -.021-.522 1.4 1.4 0 0 0 -.455-.508z" fill="#8babd9"/><path d="m48.82 30.854a.286.286 0 0 0 -.2.049 1.537 1.537 0 0 0 -.376.378c-.067.087-.137.185-.208.291a9.424 9.424 0 0 0 -.636 1.128 6.627 6.627 0 0 0 -.562 1.576 1.238 1.238 0 0 0 .005.584.41.41 0 0 0 .38.287 2.277 2.277 0 0 0 1.889-.749c.478-.618.589-1.675-.128-3.4a.236.236 0 0 0 -.164-.144zm.118 3.413a2.084 2.084 0 0 1 -1.708.663c-.109 0-.143-.036-.176-.135a1.112 1.112 0 0 1 0-.478 6.49 6.49 0 0 1 .546-1.517 8.266 8.266 0 0 1 .817-1.383 1.472 1.472 0 0 1 .315-.323.138.138 0 0 1 .049-.02s-.011-.013 0 .011c.702 1.69.57 2.647.157 3.182z" fill="#8babd9"/><path d="m39.253 29.671a18.036 18.036 0 0 0 -2.016-.91.9.9 0 0 0 -.6-.11.455.455 0 0 0 -.209.12.566.566 0 0 0 -.126.206 1.7 1.7 0 0 0 .155 1.161 2.287 2.287 0 0 0 .868 1.054 1.2 1.2 0 0 0 1.352-.082 2.124 2.124 0 0 0 .8-.812.476.476 0 0 0 0-.354.676.676 0 0 0 -.224-.273zm.023.546a2.078 2.078 0 0 1 -.726.713.944.944 0 0 1 -1.112.07 2.108 2.108 0 0 1 -.778-.953 1.592 1.592 0 0 1 -.149-1 .321.321 0 0 1 .07-.123.236.236 0 0 1 .111-.061.7.7 0 0 1 .448.1c.826.4 1.641.634 1.98.888a.476.476 0 0 1 .161.181.229.229 0 0 1 -.005.185z" fill="#8babd9"/><path d="m54.291 25.758a5.844 5.844 0 0 0 -2.786 4.607c-.19 2.487-1.009 4.534-2.533 5.7s-3.767 1.47-6.861.426c-2.888-.973-5.013-1.813-6.431-2.09a5.166 5.166 0 0 0 -.61-.081c.025.075.05.15.077.225.151.015.314.039.49.073 1.377.269 3.51 1.107 6.4 2.083 3.138 1.058 5.474.757 7.066-.461s2.426-3.332 2.619-5.858a5.582 5.582 0 0 1 2.7-4.445c.43-.312.839-.587 1.169-.881-.042-.061-.084-.122-.127-.182-.317.284-.73.563-1.173.884z" fill="#8babd9"/><path d="m38.58 36.91a2.058 2.058 0 0 0 -1.532-.491 6.253 6.253 0 0 0 -1.082.162c.034.069.069.137.1.2a5.884 5.884 0 0 1 .986-.145 1.822 1.822 0 0 1 1.375.434 1.851 1.851 0 0 1 .371.418c.049.091.041.109.019.139a.539.539 0 0 1 -.2.117c-.107.043-.245.086-.39.143a1.3 1.3 0 0 0 -.778.66 1.183 1.183 0 0 0 -.056.2c.062.068.124.134.188.2a1.041 1.041 0 0 1 .07-.311 1.086 1.086 0 0 1 .657-.543c.135-.053.271-.095.39-.142a.621.621 0 0 0 .3-.193.352.352 0 0 0 0-.375 2 2 0 0 0 -.418-.473z" fill="#8babd9"/><path d="m55.742 31.419a.74.74 0 0 1 -.46-.345.831.831 0 0 1 .022-.649 5.657 5.657 0 0 1 1.765-2.2c-.025-.078-.052-.156-.079-.233a9.5 9.5 0 0 0 -1.445 1.493 3.467 3.467 0 0 0 -.45.866 1.055 1.055 0 0 0 -.012.819.965.965 0 0 0 .587.456 5.644 5.644 0 0 0 1.848.157c0-.074 0-.148 0-.222a5.615 5.615 0 0 1 -1.776-.142z" fill="#8babd9"/><path d="m47.375 38.1a1.37 1.37 0 0 0 -.955.055 7.415 7.415 0 0 0 -1.968 1.24 1.052 1.052 0 0 0 -.218.232.411.411 0 0 0 -.073.236.435.435 0 0 0 .278.361 2.821 2.821 0 0 0 1.342.166 3.877 3.877 0 0 0 1.535-.39 1.371 1.371 0 0 0 .513-.439.839.839 0 0 0 .123-.633 1.027 1.027 0 0 0 -.577-.828zm.27 1.34a1.182 1.182 0 0 1 -.434.366 3.75 3.75 0 0 1 -1.444.364 2.762 2.762 0 0 1 -1.229-.144c-.117-.058-.156-.113-.157-.167a.222.222 0 0 1 .044-.116.794.794 0 0 1 .168-.177 7.294 7.294 0 0 1 1.9-1.2 1.171 1.171 0 0 1 .8-.059.791.791 0 0 1 .441.665.6.6 0 0 1 -.089.471z" fill="#8babd9"/><path d="m100.419 68.3a12.917 12.917 0 1 0 17.888 3.7 12.977 12.977 0 0 0 -17.888-3.7z" fill="#b3b0d8"/><path d="m117.387 70.776a47.773 47.773 0 0 1 -6.749 11.272 51.138 51.138 0 0 1 -8.4 8.837 12.909 12.909 0 0 0 3.219.943 66.718 66.718 0 0 0 7.326-8.128 65 65 0 0 0 6.44-10.039 12.474 12.474 0 0 0 -1.837-2.885z" fill="#727bbb"/><path d="m104.829 72.816a4.355 4.355 0 0 0 -2.713-1.514 3.994 3.994 0 0 0 -2.587.654 6.5 6.5 0 0 0 -.911.691 1.981 1.981 0 0 0 -.675 1.135 1.94 1.94 0 0 0 .2 1.19 5.5 5.5 0 0 0 2.11 2.06 9.018 9.018 0 0 0 3.025 1.176 2.887 2.887 0 0 0 2.459-.414 2.406 2.406 0 0 0 .472-2.293 5.952 5.952 0 0 0 -1.38-2.685zm.7 4.746a2.641 2.641 0 0 1 -2.19.334 8.726 8.726 0 0 1 -2.914-1.134 5.267 5.267 0 0 1 -1.991-1.929 1.627 1.627 0 0 1 -.177-1 1.659 1.659 0 0 1 .576-.954 6.215 6.215 0 0 1 .864-.657 3.661 3.661 0 0 1 2.387-.608 4.05 4.05 0 0 1 2.513 1.41 5.69 5.69 0 0 1 1.31 2.539 2.122 2.122 0 0 1 -.381 1.999z" fill="#727bbb"/><path d="m94.745 81.062c.022.1.046.207.071.31a4.046 4.046 0 0 1 3.946.686 1.692 1.692 0 0 1 .484 1.56 3.106 3.106 0 0 1 -1.417 1.824c-.345.238-.728.48-1.124.726l.011.02c.059.079.119.158.179.235.391-.243.769-.483 1.113-.721a3.411 3.411 0 0 0 1.548-2.022 2.028 2.028 0 0 0 -.568-1.842 4.32 4.32 0 0 0 -4.243-.776z" fill="#727bbb"/><path d="m110.076 75.287c-2.527-3.666-5.688-5.933-8.7-6.521a8.037 8.037 0 0 0 -1.376-.148q-.212.156-.416.319a7.588 7.588 0 0 1 1.73.139c2.9.566 6.007 2.776 8.5 6.39 2.507 3.636 4.137 6.293 6.223 7.759a6.739 6.739 0 0 0 3.225 1.211c.043-.1.084-.2.124-.3a6.45 6.45 0 0 1 -3.167-1.17c-1.999-1.406-3.631-4.037-6.143-7.679z" fill="#727bbb"/><path d="m115.008 74.048a9.8 9.8 0 0 0 -2.575-5.185 9.4 9.4 0 0 0 -3.433-1.978c-.625-.234-1.212-.444-1.73-.7q-.307.006-.613.026a12.877 12.877 0 0 0 2.232.969 9.087 9.087 0 0 1 3.328 1.91 9.466 9.466 0 0 1 2.487 5.025c.953 4.382 3.242 6.322 5.532 7.085.023-.1.044-.206.064-.309-2.193-.731-4.362-2.566-5.292-6.843z" fill="#727bbb"/><path d="m105.159 79.967c-3.922-.308-7.649-.735-9.905-1.807-.206-.1-.394-.2-.574-.311-.009.119-.016.237-.022.356.147.083.3.164.461.24 2.347 1.116 6.086 1.528 10.015 1.837 3.9.307 6.628 1.355 8.416 3.005a8.82 8.82 0 0 1 2.665 5.335c.092-.091.183-.184.273-.278a9.07 9.07 0 0 0 -2.724-5.29c-1.856-1.712-4.657-2.777-8.605-3.087z" fill="#727bbb"/><path d="m107.589 85.516c-3.167-1.091-5.973-.74-7.7.409-.115.077-.225.157-.331.241a3.752 3.752 0 0 0 -1.315 1.884c.086.086.173.171.261.256a3.366 3.366 0 0 1 1.251-1.893c1.574-1.247 4.434-1.734 7.733-.6a16.933 16.933 0 0 1 6.441 4.455c.1-.053.192-.107.287-.162a17.34 17.34 0 0 0 -6.627-4.59z" fill="#727bbb"/><path d="m114.463 64.078a33.46 33.46 0 0 0 -3.331 2.624 12.976 12.976 0 0 1 1.328.466c2.035-1.535 3.641-2.183 4.4-1.6 1.694 1.3-1.417 8.188-6.949 15.375s-11.387 11.957-13.081 10.657c-.765-.589-.543-2.321.431-4.7q-.285-.346-.545-.713c-.085-.146-.168-.293-.247-.442-2.462 4.9-3.256 8.743-1.716 9.927 2.512 1.933 10.26-3.922 17.306-13.077s10.721-18.143 8.21-20.077c-1.099-.845-3.2-.2-5.806 1.56z" fill="#fbe986"/><path d="m110.826 69.5a2.565 2.565 0 0 0 -1.981-.56 1.326 1.326 0 0 0 -.463.144.872.872 0 0 0 -.311.277 1.155 1.155 0 0 0 -.14.815 4.815 4.815 0 0 0 .956 1.984 7.925 7.925 0 0 0 1.691 1.716 2.835 2.835 0 0 0 .843.436.87.87 0 0 0 .744-.075.829.829 0 0 0 .3-.5 2.493 2.493 0 0 0 .054-.739 5.421 5.421 0 0 0 -.473-1.842 4.4 4.4 0 0 0 -1.22-1.656zm1.336 4.158a.559.559 0 0 1 -.178.32.551.551 0 0 1 -.477.03 2.562 2.562 0 0 1 -.746-.39 7.657 7.657 0 0 1 -1.619-1.646 4.65 4.65 0 0 1 -.9-1.841.845.845 0 0 1 .09-.594.73.73 0 0 1 .554-.284 2.222 2.222 0 0 1 1.741.5 4.1 4.1 0 0 1 1.131 1.536 5.094 5.094 0 0 1 .446 1.73 2.209 2.209 0 0 1 -.042.641z" fill="#727bbb"/><path d="m103.155 74.432a1.019 1.019 0 1 0 1.036.442 1.022 1.022 0 0 0 -1.036-.442zm.567 1.584a.7.7 0 1 1 .2-.965.7.7 0 0 1 -.2.965z" fill="#727bbb"/><path d="m104.537 82.426a.759.759 0 1 0 1.051.218.762.762 0 0 0 -1.051-.218z" fill="#727bbb"/><path d="m109.04 87.035a1.218 1.218 0 1 0 1.686.349 1.224 1.224 0 0 0 -1.686-.349z" fill="#727bbb"/><path d="m98.96 72.622c-.466.421-1.952 1.531.568 3.667 1.978-.9 1.34-4.207-.568-3.667z" fill="#727bbb"/><path d="m109.652 75.346a1.218 1.218 0 0 0 1.338 2.036 1.2 1.2 0 0 0 .223-.192 13.386 13.386 0 0 0 -1.358-1.951 1.192 1.192 0 0 0 -.203.107z" fill="#727bbb"/><path d="m43.2 96.7a.975.975 0 0 1 -.785-.731 12.5 12.5 0 0 0 -3.115-5.985c-.2-.219-.411-.429-.624-.629a.882.882 0 0 1 -.149-1c.248-.578-.05-1.179-1.669-2.159-1.28-.775-1.916-.616-2.329-.179a1.056 1.056 0 0 1 -1.017.325 10.774 10.774 0 0 0 -10.419 2.194 10.461 10.461 0 0 0 -.865.882 12.5 12.5 0 0 0 -2.187 3.591.712.712 0 0 1 -.863.368c-.643-.135-1.133.266-1.576 2.056-.394 1.595.116 2.135.794 2.416a1.062 1.062 0 0 1 .652.88 14.486 14.486 0 0 0 2.444 7.711 9.742 9.742 0 0 0 6.907 4.216 1.334 1.334 0 0 1 .852.72c.28.477.942.65 2.538.337.936-.183 1.4-.49 1.6-.856a1.746 1.746 0 0 1 .76-.845 13.235 13.235 0 0 0 4.549-2.735 12.28 12.28 0 0 0 3.48-5.584.658.658 0 0 1 .822-.443c.931.231 1.508 0 1.6-2.281.075-1.777-.62-2.149-1.4-2.269z" fill="#79809f"/><path d="m39.978 100c.15-1.793-3.326-1.505-4.614-.315a3.368 3.368 0 0 0 4.563 4.939c.998-.956-.166-2.046.051-4.624z" fill="#495271"/><path d="m27.707 103.421a2.371 2.371 0 0 0 -3.279 1.046 2.588 2.588 0 0 0 1.229 3.358c.985.488 1.388-.6 3.279-1.045 1.312-.312.015-2.72-1.229-3.359z" fill="#495271"/><path d="m28.056 104.563a1.343 1.343 0 0 0 -1.858.593 1.466 1.466 0 0 0 .7 1.9c.558.277.786-.337 1.858-.592.744-.174.006-1.539-.7-1.901z" fill="#79809f"/><path d="m31.518 110.222c-.843.38-1.415.351-1.567.629-.194.353.22.645.9.652a1.89 1.89 0 0 0 1.567-.628c.182-.354-.318-.916-.9-.653z" fill="#495271"/><path d="m30.094 89.36a2.37 2.37 0 0 0 -3.279 1.045 2.587 2.587 0 0 0 1.23 3.358c.984.489 1.59.192 3.481-.257 1.312-.312-.187-3.506-1.432-4.146z" fill="#495271"/><path d="m30.242 89.833c-.705-.363-1.673-.743-1.993-.054a2.732 2.732 0 0 0 .79 2.757c.558.277.786-.338 1.858-.592.744-.177.051-1.744-.655-2.111z" fill="#79809f"/><path d="m23.95 98.4c.09-1.07-1.986-.9-2.755-.188a2.011 2.011 0 0 0 2.725 2.95c.596-.572-.099-1.223.03-2.762z" fill="#495271"/><path d="m39.524 102.137c.061-.721-1.337-.605-1.855-.126a1.354 1.354 0 0 0 1.831 1.989c.405-.385-.063-.824.024-1.863z" fill="#79809f"/><path d="m22.034 92.064a3.078 3.078 0 0 0 -1.234-.174c-.082 0-.17.019-.254.027l-.112.221a3.737 3.737 0 0 1 .385-.034 2.868 2.868 0 0 1 1.15.159 1.092 1.092 0 0 1 .585.49 2.055 2.055 0 0 1 -.2 1.8 11.126 11.126 0 0 1 -3.441 3.739.944.944 0 0 1 .1.2 11.3 11.3 0 0 0 3.539-3.841 2.23 2.23 0 0 0 .193-2 1.344 1.344 0 0 0 -.711-.587z" fill="#495271"/><path d="m33.983 88.374c-.668-.846-1.4-1.647-1.922-2.366-.1-.016-.193-.028-.289-.041.542.78 1.339 1.638 2.046 2.535a6.571 6.571 0 0 1 1.5 2.832 2.763 2.763 0 0 1 -1.4 2.747 6.956 6.956 0 0 1 -7.4.579 5.115 5.115 0 0 1 -2.263-2.268 3.581 3.581 0 0 1 -.008-3.059 8.181 8.181 0 0 1 1.957-2.7c.022-.021.045-.039.068-.059q-.279.109-.554.235a8.228 8.228 0 0 0 -1.667 2.426 3.818 3.818 0 0 0 .011 3.238 5.346 5.346 0 0 0 2.364 2.374 7.168 7.168 0 0 0 7.623-.591 2.99 2.99 0 0 0 1.478-2.943 6.724 6.724 0 0 0 -1.544-2.939z" fill="#495271"/><path d="m33.1 106.271c-.991-1.719-.879-3.736-.691-5.934a2.338 2.338 0 0 0 -1.051-2.363 3.563 3.563 0 0 0 -2.747-.2 6.614 6.614 0 0 0 -2.69 1.544 8.094 8.094 0 0 0 -2.367 4.286c-.343 1.6-1.192 2.29-2.208 2.421-.039 0-.08 0-.12.007.044.07.09.138.135.207h.024a2.864 2.864 0 0 0 2.377-2.578 7.31 7.31 0 0 1 4.917-5.679 3.372 3.372 0 0 1 2.578.171 2.087 2.087 0 0 1 .94 2.149c-.189 2.2-.314 4.271.719 6.065a7.332 7.332 0 0 0 3.152 2.782c.074-.04.146-.082.219-.124a7.191 7.191 0 0 1 -3.187-2.754z" fill="#495271"/><path d="m42.376 95.8a4.474 4.474 0 0 1 -4.182-2.761 5.31 5.31 0 0 1 -.66-2.592 3.189 3.189 0 0 1 .544-1.554c.175-.282.362-.547.517-.828a.811.811 0 0 0 -.057-.381 9.016 9.016 0 0 1 -.643 1.088 3.4 3.4 0 0 0 -.574 1.649 5.52 5.52 0 0 0 .682 2.7 4.744 4.744 0 0 0 4.428 2.893c0-.015-.01-.029-.013-.044-.012-.055-.029-.112-.042-.17z" fill="#495271"/><path d="m36.308 93.259c-1 .8-3.027 3.393-.281 4.06s1.398-4.956.281-4.06z" fill="#8890b4"/><path d="m29.92 98.958c-1 .8-3.027 3.392-.281 4.059s1.397-4.955.281-4.059z" fill="#8890b4"/><path d="m18.489 94.12c-.437.851-1.272 3.159.087 2.539s.402-3.492-.087-2.539z" fill="#8890b4"/><path d="m36.057 86.18c-.669-.177-1.119 0-.984.4.1.313.67.438 1.437 1.036.531.415 1.109 0 .984-.4a2.172 2.172 0 0 0 -1.437-1.036z" fill="#495271"/><path d="m25.207 59.35a2.616 2.616 0 1 0 3.366 1.533 2.628 2.628 0 0 0 -3.366-1.533z" fill="#fbe986"/></g></svg>