<svg id="Layer_1" enable-background="new 0 0 75 75" height="512" viewBox="0 0 75 75" width="512" xmlns="http://www.w3.org/2000/svg"><g id="_x39_9"><g><g><path d="m25.8008919 45.1585083c-.8964481 1.4438629-2.4401951 2.3955612-4.0850334 2.8618851-2.3174496.6649857-5.3391342.4431648-7.7193213.1394882-2.8838434-.3278809-5.7400751-.9594536-8.405055-2.0511551 1.500093-2.8536263 3.1028948-5.971447 5.2279272-8.3970833 1.1122284-1.2797546 2.4107599-2.4254608 3.8646517-3.2888069.1768656-.1059456.3536615-.2119064.5281448-.3064346 1.370676-.7497063 3.5362091-1.7145271 5.1170731-1.3608818 1.0586185.2327042 1.890686 1.037262 2.5877686 1.8612518 1.1205692 1.30513 2.0798798 2.7552834 2.6607304 4.3645058.7232531 2.065834 1.5692576 4.1846695.2231139 6.1772308z" fill="#fbdc2a"/></g><g><path d="m9.709424 44.5869865c4.7167711 2.3457565 10.7034121 1.9009933 15.4990072-.2790909.7025032-.3193588 1.4406586-.7465172 1.7041187-1.4718399.3495464-.9623184-.2727852-1.973732-.7874393-2.8588181-1.5134773-2.6028252-1.8728981-5.2253723-2.2386227-8.1343842-2.8389645.0954952-5.5384789 2.3336449-7.6242924 4.0556984-.6478395.5348588-7.3373794 8.2982332-6.5527715 8.6884347z" fill="#ffce00"/></g><g><g><path d="m31.7304916 22.2967262c-.03475.1011372-3.1275902 9.1024246-2.9330578 8.5362663-2.09161.0985508-4.2745838.109396-6.4483185-.056057-3.8582306-.2927895-7.8239889-1.13521-11.0636206-3.3094902-.8066387-.5385513-1.5676718-1.1636887-2.2701359-1.8725395-.396986-.3983364-.2703094-1.0713272.2270756-1.3516293 3.5451498-2.0034676 7.9213247-4.8347607 11.671998-5.5883827 4.1437341-.8339233 7.5352918.976637 10.8160592 3.6418324z" fill="#982eea"/></g><g><path d="m31.5227642 22.897974c-4.0146408 3.9852142-6.1261654 6.2595348-8.5919342 7.5888786-.1982861.0957527-.3834133.1942501-.5817146.2900829-2.3762321-.1803246-4.7377319-.5632572-6.9145327-1.3054581 1.144906-.8858166 2.2635012-1.7771206 3.3952341-2.6656017 4.7237473-3.7084293 6.2719345-3.7197132 8.8555183-4.8793449.6449833-.2894993 1.3072834-.5834599 2.0127258-.6298923 1.0935059-.0719757 2.1919824.5382862 1.8247033 1.6013355z" fill="#781ad3"/></g><g><path d="m37.727005 56.8626137c-3.3435555 1.8260307-8.5811062 2.4752121-12.6028976 3.2134552-.5172329.1008911-1.1066761-.3252411-1.0846672-.980629.1205997-2.4847908.9137993-4.7744255 2.1346169-6.878746 2.1911831-3.8632584 5.7651882-7.1225052 9.253006-9.8374367l9.7095032.5307579c-.6717302 4.2355614-3.7554742 11.9590225-7.4095613 13.9525986z" fill="#982eea"/></g><g><path d="m44.4758339 45.7483978c-5.3348808 3.8108711-11.7498894 6.0933266-18.3017769 6.4682961 2.1911831-3.8632584 5.7651882-7.1225052 9.253006-9.8374367l9.7095032.5307579c-.130539.8231163-.3466111 1.7929688-.6607323 2.8383827z" fill="#781ad3"/></g><g><path d="m67.8259277 22.3797531c-3.0531769 7.4689026-8.6183014 13.9611015-15.3531799 18.302784-7.2618561 4.6980209-16.5980759 6.7825546-25.2214622 5.7789764-.8457394-.0900497-1.5927582-.5306854-2.0430984-.988636-.1281052-.1090126-.2403107-.2284431-.3367119-.3582191-2.5171204-3.1511917-4.4374218-8.1051216-4.7799568-11.9970703-.0076656-.0290604.0005512-.0684471-.0071144-.0975037-.062191-.753582.1521454-1.5181122.5839195-2.1411781 4.9716949-7.3292389 13.179985-12.488203 21.6646767-14.7641182 7.8010902-2.0892944 16.2509689-1.4373436 23.6529694 1.7390804 1.721443.7492542 2.5609816 2.7829494 1.839958 4.5258846z" fill="#e5e7e1"/></g><g><path d="m31.7079773 39.9656715c-.8395824 1.1207352-2.1757278 2.5048294-3.7231827 3.6956673-.2610931.2009201-2.5676632 1.9893494-2.7766075 1.8115387-.1281052-.1090164-.2403107-.2284431-.3367119-.3582191-.8808765-1.1027718-1.6992588-2.4392929-2.4086075-3.9039993 2.0431099-.9120102 3.794632-1.8235703 5.7356052-3.233448 1.2948647-1.0695152 3.4084129-3.5288696 4.2063122-3.5723686.2958145-.0161285.5711136.1868973.7163391.4451103.1452255.2582169.1820297.562767.1920052.8588524.0526734 1.5631865-.66819 3.0061454-1.6051521 4.2568663z" fill="#919191"/></g><g><circle cx="49.047" cy="26.664" fill="#781ad3" r="6.937"/></g><g opacity=".98"><g><circle cx="49.047" cy="26.664" fill="#fff" r="5.66"/></g></g><g opacity=".62"><g><path d="m67.9957352 20.3167572c-1.3605194-1.3673363-3.1889877-2.2014446-5.0734024-2.6357765-2.1078491-.4808636-5.4870911-.725235-7.6391487-.7742119-11.9169922-.2712097-14.5167084 1.7203064-21.5875206 4.9769745-5.4029579 2.493681-10.319416 6.3369331-13.6041451 11.2338448-.0076656-.0290604.0005512-.0684471-.0071144-.0975037-.062191-.753582.1521454-1.5181122.5839195-2.1411781 4.9716949-7.3292389 13.179985-12.488203 21.6646767-14.7641182 7.8010902-2.0892944 16.2509689-1.4373436 23.6529694 1.7390804 1.0573882.453743 1.7790069 1.3998146 2.0097656 2.4628887z" fill="#fff"/></g></g><g><path d="m67.8259277 22.3797531c-3.0531769 7.4689026-8.6183014 13.9611015-15.3531799 18.302784-7.2618561 4.6980209-16.5980759 6.7825546-25.2214622 5.7789764-.5367298-.057148-1.0459652-.2456779-1.4779701-.5415726 17.112236.7656441 33.0287056-8.2892036 41.1717987-23.0655518.5321426-.9725552.7738953-1.8684883.9713211-2.8147736.0360947.089819.0591049.1769104.0792999.2771416.1603241.6780358.1070022 1.3938695-.1698075 2.062996z" fill="#919191"/></g><g opacity=".98"><g><path d="m40.7911301 29.3127346c-.9407272-2.6044846-.4409447-5.6796055 1.276165-7.8521252-7.3981781 2.4452763-14.7623501 6.6604596-20.2640324 12.1780625 5.6712341-3.7145615 12.2084522-4.345522 18.9878674-4.3259373z" fill="#fff"/></g></g><g opacity=".98"><g><path d="m57.9461365 26.505888c2.3759651-1.7987423 4.6146736-3.7787495 6.6902466-5.9171352-3.3257713-1.1766243-6.8851929-1.6885815-10.4077568-1.4969654 2.1289749 1.7376861 3.8792152 4.6707553 3.7175102 7.4141006z" fill="#fff"/></g></g><g><g><path d="m33.0855255 35.4581833c-7.1185913 1.7105751-13.9801102 4.4897118-20.2832794 8.2082329-.1699696-.3090096-.2360315-.6626167-.1207495-.9989357 1.0899029-3.7775879 4.5448437-6.6639595 8.3361931-7.8753738 3.5114822-1.1190338 7.2816448-1.0456123 10.9564095-.5807304.6299657.0740928 1.0861539.6099204 1.1114263 1.246807z" fill="#982eea"/></g><g><path d="m12.8069315 43.6732521c.1299505.2297821.3168154.4299126.5726671.5517693 3.6387157 1.7334747 8.0664577 1.4252396 11.6994152-.4064636 3.3606396-1.6944695 5.7572289-4.5051346 7.8035355-7.6382561.15028-.2299995.2058945-.4825096.1983719-.7289391-7.1152191 1.7204857-13.9733525 4.4946404-20.2739897 8.2218895z" fill="#781ad3"/></g></g><g><path d="m44.4648705 45.8009415c-1.2378654 4.1581688-3.8282547 9.4742622-6.7378654 11.0616722-3.3435555 1.8260307-8.5811062 2.4752121-12.6028976 3.2134552-.2716522.05299-.5422192-.0308342-.738203-.2089272 8.6739635-.2150955 16.1575451-5.5793877 19.357954-13.1742363.158371-.3646774.7281532-1.1236115.7178497-1.4686508.0010756.1922608.0020712.3845062.0031623.5766869z" fill="#c085f9"/></g><g><path d="m33.0855255 35.4581833c-7.1185913 1.7105751-13.9801102 4.4897118-20.2832794 8.2082329-.1193209-.2169304-.1936998-.4518585-.1706562-.6939201 5.814826-4.5336342 13.0602179-7.2464142 20.4418793-7.6539459.0049419.0421332.0098629.0843467.0120563.1396331z" fill="#c085f9"/></g><g><path d="m30.6211548 21.4343433c-4.9257278-2.0441303-11.3258495-.9903793-15.6687002 1.0788136-.457365.2200928-5.1549826 2.7511845-5.0203114 3.0261478.3760729.695591.8287935 1.3524227 1.3533516 1.9281406-.8066387-.5385513-1.5676718-1.1636887-2.2701359-1.8725395-.396986-.3983364-.2703094-1.0713272.2270756-1.3516293 3.5451498-2.0034676 7.9213247-4.8347607 11.671998-5.5883827 3.6697121-.7385272 6.7427311.59618 9.7067223 2.7794495z" fill="#c085f9"/></g></g><g><path d="m47.6862144 46.6163902c-.1225586-.2475586-.0209961-.5473633.2265625-.6699219 8.9995117-4.4516602 16.4853554-12.2729492 20.5380898-21.4584961.1113281-.2519531.4072266-.3657227.6591797-.2558594.2529297.1113281.3671875.4067383.2558594.6591797-4.1459961 9.3964844-11.8037148 17.3974609-21.0097694 21.9516602-.2477036.1221543-.5472985.0207367-.669922-.2265625z" fill="#982eea"/></g><g><path d="m13.9965372 48.1598816c-2.8838434-.3278809-5.7400751-.9594536-8.405055-2.0511551 1.500093-2.8536263 3.1028948-5.971447 5.2279272-8.3970833 1.1122284-1.2797546 2.4107599-2.4254608 3.8646517-3.2888069-3.1306505 3.2515068-5.6307192 7.0749512-7.7390432 11.0754547 2.2347383 1.1566315 4.6065129 2.0562325 7.0515193 2.6615906z" fill="#ffed94"/></g></g><g><g><path d="m50.4738235 30.7724552c-1.7885323.0717354-2.2317047-.0246105-5.1732445-1.3228168-.009182-1.1799908-.4231529-3.3579674-.0778008-4.488203.4717331-1.6001835 1.5942917-2.5538254 2.4914398-2.7505264 1.0432701-.2596645 2.2748909.1361599 2.7446861 1.0894108.2332916.4548626.2762337.9827118.1915131 1.4831066-.0506325.366909-.2702293.7650185-.4797363 1.1083317-.0693169.1061954-.1319771.2067585-.1937675.2950191-.0346222.0531387-.0757904.1119576-.0923996.1725502-.0166779.0605125-.0096664.1350975.049221.1763458.0579491.0534668.1579361.0358162.2391472.023056.4141579-.0942078.8248787-.1392517 1.2155113-.0745049.7813339.1158752 1.3446388.6899147 1.542942 1.4056644.4879724 1.524788-.8371466 2.8266278-2.4575118 2.8825665z" fill="#ff5746"/></g><g><path d="m50.4738235 30.7724552c-1.7885323.0717354-2.2317047-.0246105-5.1732445-1.3228168-.009182-1.1799908-.4231529-3.3579674-.0778008-4.488203.2924232-.9919395.9026337-1.9367199 1.7847595-2.4484806-1.2254333 1.0635567-1.9950104 4.4387169-.9544563 5.6376553.5050507.5819244 1.8001556.9898434 2.5504951 1.1805897 1.3661766.3473034 2.8662529.6202869 4.0110855-.2895432.1462631-.1162395.2542763-.2832928.3965721-.3945866.0671844.1556206-.0677757.4768295-.128067.6225224-.3806456.9301146-1.4127959 1.46846-2.4093436 1.5028628z" fill="#ba2525"/></g><g><path d="m50.6504173 24.7834263c-.0506325.366909-.2702293.7650185-.4797363 1.1083317-.0122986-.0008698-.0122986-.0008698-.0188828.0048447.650959-1.6926155-.1614265-3.3506527-1.6625938-3.6432476-.2562904-.0428085-.5186272.0004425-.7749863-.0424461 1.0432701-.2596645 2.2748909.1361599 2.7446861 1.0894108.2332917.4548625.2762337.9827117.1915131 1.4831065z" fill="#fbb"/></g><g><path d="m53.0265388 28.4647369c-.2810135-.828764-.8787003-1.5440273-1.6381454-1.9805126 1.0075607.1494255 1.6141815 1.0570469 1.6381454 1.9805126z" fill="#fbb"/></g><g><path d="m48.4601364 23.1607437c.1866493.2187271.2016716.5445004.11129.8174667-.1228065.3708935-.6613274 1.0685902-.96521 1.2552414-.7933655.4873085-1.2198563-.4913425-.9829941-1.1193256.2242775-.5946121 1.1867562-1.7152653 1.8369141-.9533825z" fill="#fbb"/></g></g></g></svg>