<svg height="512" viewBox="0 0 128 128" width="512" xmlns="http://www.w3.org/2000/svg"><g fill-rule="evenodd"><path d="m89.155 101.978-2.484-.633-1.029-2.335a4.82 4.82 0 0 0 -4.44-2.89c-.127 0-.255.006-.383.017a4.818 4.818 0 0 0 -4.275 3.62l-.631 2.48-2.345 1.035a4.829 4.829 0 0 0 .757 9.091l2.48.631 1.033 2.346a4.83 4.83 0 0 0 9.091-.754l.634-2.484 2.345-1.033a4.83 4.83 0 0 0 -.753-9.091z" fill="#fff"/><path d="m119.486 68.4-9.251-4.775.064-10.408a8.186 8.186 0 0 0 -7.35-8.207 4.9 4.9 0 0 0 -1.874-5.813l-3.26-2.197a1.073 1.073 0 0 1 -.468-.807l-.283-3.908a5.063 5.063 0 0 0 -9.255-2.467l-2.19 3.26a1.069 1.069 0 0 1 -.807.467l-3.919.284a4.916 4.916 0 0 0 -3.6 1.913 9.615 9.615 0 0 1 -.781 1.442 4.983 4.983 0 0 0 1.927 5.9l3.261 2.19a1.071 1.071 0 0 1 .467.809l.281 3.917a4.951 4.951 0 0 0 1.161 2.875l-4.653-1.542a8.115 8.115 0 0 0 -8.646 2.2l-2.387-4.9 8.214-10.873c.142-.188.247-.385.372-.578a5.173 5.173 0 0 1 .781-1.442 9.209 9.209 0 0 0 -9.818-12.716l-13.492 1.892-7.8-11.172a9.251 9.251 0 0 0 -16.694 3.687l-2.378 13.419-13.033 3.966a9.222 9.222 0 0 0 -1.654 17.017l12.027 6.4-.255 13.622c0 1.035-.543.968-.691.712a5.216 5.216 0 0 0 -5.202-3.106c-2.014.166-3.689 1.168-4.627 3.915l-1.146 4.508a2.048 2.048 0 0 1 -1.157 1.366l-4.26 1.875a5.22 5.22 0 0 0 .817 9.829l4.503 1.146a2.053 2.053 0 0 1 1.37 1.16l1.875 4.257a5.221 5.221 0 0 0 9.825-.817l1.149-4.509a2.054 2.054 0 0 1 1.159-1.368l3.13-1.378a6.723 6.723 0 0 0 2.244 9.219l4.85 3.039-.511 5.7a6.781 6.781 0 0 0 11.152 5.829l4.391-3.672 5.262 2.243a6.782 6.782 0 0 0 8.993-8.803l-2.139-5.3 3.764-4.311a6.952 6.952 0 0 0 .67-1.05 8.065 8.065 0 0 0 5.771 1.29l10.288-1.573 6.069 8.457a8.229 8.229 0 0 0 14.858-3.484l1.683-10.273 9.917-3.156a8.229 8.229 0 0 0 1.286-15.2z" fill="#fff"/><path d="m68.754 27.177a4.887 4.887 0 0 0 -.694.049l-14.319 2a2.885 2.885 0 0 1 -2.761-1.2l-8.28-11.853a5.012 5.012 0 0 0 -9.044 2l-2.518 14.234a2.884 2.884 0 0 1 -2 2.254l-13.829 4.211a5.012 5.012 0 0 0 -.9 9.218l12.762 6.795a2.885 2.885 0 0 1 1.527 2.6l-.269 14.456v.093a5.011 5.011 0 0 0 8.491 3.607l10.409-10.041a2.886 2.886 0 0 1 2.941-.649l13.665 4.723a5.012 5.012 0 0 0 6.143-6.931l-6.33-13a2.883 2.883 0 0 1 .291-3l8.714-11.533a5.012 5.012 0 0 0 -4-8.033z" fill="#fbe986"/><g fill="#f6a43d"><path d="m64.039 46.746 3.314-4.387a10.141 10.141 0 1 0 1.973 18.841l-5.578-11.457a2.884 2.884 0 0 1 .291-2.997z"/><path d="m32.882 22.543-1.745 9.864a2.883 2.883 0 0 1 -2 2.253l-3.1.943a8.041 8.041 0 1 0 6.839-13.06z"/><path d="m33.773 67.319a3.906 3.906 0 0 0 -.667.044 6 6 0 0 0 -2.208.864 4.948 4.948 0 0 1 -2.411.747l-.015.841a5.775 5.775 0 0 0 2.874-.857 4.5 4.5 0 0 1 2.407-.782 2.488 2.488 0 0 1 1.661.666 6.013 6.013 0 0 1 1.576 4.077 8.134 8.134 0 0 1 -.416 2.958c.12-.074.236-.154.35-.238l.781-.753a9.557 9.557 0 0 0 .139-2.008 6.7 6.7 0 0 0 -1.858-4.678 3.392 3.392 0 0 0 -2.213-.881z"/><path d="m45.58 59.109a4.834 4.834 0 0 0 -4.46-.958c-.277.056-.564.127-.86.215a3.262 3.262 0 0 0 -2.321 2.434 8.61 8.61 0 0 0 .261 4.08 37.533 37.533 0 0 0 2.756 6.867l.65-.628a36.268 36.268 0 0 1 -2.576-6.453 7.968 7.968 0 0 1 -.262-3.66 2.292 2.292 0 0 1 1.736-1.82c2.191-.655 3.551-.325 4.492.55a7.036 7.036 0 0 1 1.725 4.239 20.334 20.334 0 0 1 .145 2.07l.461-.445a2.827 2.827 0 0 1 .379-.251c-.028-.507-.072-1-.136-1.486a7.724 7.724 0 0 0 -1.99-4.754z"/><path d="m18.566 41.464a16.253 16.253 0 0 0 -4.489.433 8.928 8.928 0 0 0 -2.185.873 5.084 5.084 0 0 0 -.1 1.08 7.549 7.549 0 0 1 2.508-1.125 15.355 15.355 0 0 1 4.243-.4 12.451 12.451 0 0 1 11.774 9.7c.525 2.245.277 4.319-.656 5.539a3.2 3.2 0 0 1 -.975.844l-.017.941a3.92 3.92 0 0 0 1.672-1.265c1.164-1.523 1.375-3.841.81-6.253a13.322 13.322 0 0 0 -12.585-10.367z"/><path d="m20.665 48.226a6.045 6.045 0 0 0 -2.828-.318 3.622 3.622 0 0 0 -1.962.954l.814.434c.791-.628 1.891-.859 3.713-.26a7.793 7.793 0 0 1 3.911 2.39 2.769 2.769 0 0 1 .558 2.227l.789.42a3.713 3.713 0 0 0 -.66-3.16 8.554 8.554 0 0 0 -4.335-2.687z"/><path d="m40.727 21.19a30.028 30.028 0 0 0 -6.41-4.719 4.993 4.993 0 0 0 -.34.8 29.108 29.108 0 0 1 6.146 4.52 12.551 12.551 0 0 1 3.884 7c.362 2.625-.389 5.561-3 8.841s-5.145 4.587-7.6 4.8a13.156 13.156 0 0 1 -7.278-1.968c-1.823-.985-3.6-2.192-5.311-3.269l-1.1.335c1.88 1.152 3.886 2.545 6 3.689a13.936 13.936 0 0 0 7.76 2.065c2.711-.236 5.48-1.709 8.2-5.119s3.577-6.619 3.181-9.492a13.37 13.37 0 0 0 -4.132-7.483z"/><path d="m56.565 34.709c-1.558 3.8-3.466 5.917-5.252 6.894a4.659 4.659 0 0 1 -4.677.144 3.786 3.786 0 0 1 -1.936-3.423c.054-1.428.926-3.042 3.176-4.387a68.566 68.566 0 0 0 7.438-4.928l-1.57.22c-.054 0-.107 0-.161-.006-1.983 1.45-4.137 2.777-6.149 3.977-2.43 1.453-3.527 3.335-3.594 5.092a4.654 4.654 0 0 0 2.369 4.2 5.556 5.556 0 0 0 5.515-.135c2.015-1.1 4.024-3.392 5.632-7.32a23.108 23.108 0 0 1 4.23-6.9l-1.275.178a24.672 24.672 0 0 0 -3.746 6.394z"/><path d="m64.173 39.1a1.891 1.891 0 0 1 -1.173-1.294 11.016 11.016 0 0 1 .227-6.248 12.679 12.679 0 0 1 1.881-3.92l-1.163.163a14.156 14.156 0 0 0 -1.54 3.516 11.487 11.487 0 0 0 -.205 6.793 2.769 2.769 0 0 0 1.732 1.812 3.726 3.726 0 0 0 2.961-.69 13.824 13.824 0 0 1 4.17-1.789l.742-.983a13.794 13.794 0 0 0 -5.361 2.04 2.916 2.916 0 0 1 -2.271.6z"/><path d="m49.271 58.1c.542-9.666-4.561-14.491-9.446-14.921a7.926 7.926 0 0 0 -2.682.215 6.923 6.923 0 0 0 -3.674 2.334c-1.527 1.884-2.162 4.745-1.23 8.374 1.808 7.036 5.774 13.485 7.709 18.616l.664-.64c-2.023-5.207-5.816-11.471-7.543-18.19-.883-3.435-.269-5.973 1.065-7.62a5.993 5.993 0 0 1 2.488-1.808 6.9 6.9 0 0 1 3.127-.429c4.384.387 9.191 4.666 8.666 14.021a34.89 34.89 0 0 0 .258 6.864 2.874 2.874 0 0 1 .857-.078 33.821 33.821 0 0 1 -.259-6.738z"/><path d="m37.564 45.8c-7.442 2.268 1.927 12.967 4.79 8.238 1.535-2.538 2.653-10.509-4.79-8.238z"/></g><path d="m117.54 72.162-10.3-5.318a2.312 2.312 0 0 1 -1.25-2.066l.069-11.592v-.024a4.018 4.018 0 0 0 -6.844-2.856l-8.241 8.152a2.31 2.31 0 0 1 -2.351.551l-11-3.648a4.018 4.018 0 0 0 -4.854 5.619l5.207 10.357a2.314 2.314 0 0 1 -.2 2.406l-6.876 9.337a4.018 4.018 0 0 0 3.237 6.4 3.982 3.982 0 0 0 .607-.046l11.456-1.752a2.31 2.31 0 0 1 2.225.936l6.758 9.419a4.018 4.018 0 0 0 7.23-1.693l1.875-11.439a2.314 2.314 0 0 1 1.579-1.827l11.046-3.516a4.019 4.019 0 0 0 .624-7.4z" fill="#fbe986"/><path d="m96.683 52.81-5.709 5.648a2.313 2.313 0 0 1 -2.351.55l-2.463-.817a6.446 6.446 0 1 0 10.523-5.381z" fill="#f6a43d"/><path d="m107 79.442a8.137 8.137 0 1 0 -4.359 15.543l1.652-10.08a2.309 2.309 0 0 1 1.578-1.827l4.2-1.338a8.144 8.144 0 0 0 -3.071-2.298z" fill="#f6a43d"/><path d="m78.552 58.566a13 13 0 0 0 -3.138-1.8 7.17 7.17 0 0 0 -1.835-.441 4.057 4.057 0 0 0 -.568.659 6.059 6.059 0 0 1 2.165.426 12.358 12.358 0 0 1 2.964 1.7 9.985 9.985 0 0 1 3.216 11.8 5.473 5.473 0 0 1 -2.995 3.321 2.536 2.536 0 0 1 -1.029.1l-.446.608a3.127 3.127 0 0 0 1.68-.054 6.053 6.053 0 0 0 3.426-3.717 10.681 10.681 0 0 0 -3.44-12.602z" fill="#f6a43d"/><path d="m76.534 82.529a3.126 3.126 0 0 0 -.457-.279 4.8 4.8 0 0 0 -1.845-.457 3.967 3.967 0 0 1 -1.924-.628l-.4.544a4.635 4.635 0 0 0 2.278.77 3.6 3.6 0 0 1 1.937.6 1.988 1.988 0 0 1 .779 1.205 4.818 4.818 0 0 1 -.856 3.4 6.509 6.509 0 0 1 -1.642 1.743q.169.009.339.006l.86-.131a7.635 7.635 0 0 0 1.021-1.25 5.369 5.369 0 0 0 .948-3.919 2.722 2.722 0 0 0 -1.038-1.604z" fill="#f6a43d"/><path d="m88.981 70.2c-5.922-1.961-4.743 9.379-.68 7.61 2.179-.95 6.599-5.651.68-7.61z" fill="#f6a43d"/><path d="m75.091 62.446a2.893 2.893 0 0 0 -1.725-.284l.331.661c.808-.045 1.636.314 2.551 1.549a6.24 6.24 0 0 1 1.452 3.376 2.224 2.224 0 0 1 -.665 1.716l.321.64a2.973 2.973 0 0 0 1.031-2.374 6.857 6.857 0 0 0 -1.587-3.766 4.847 4.847 0 0 0 -1.709-1.518z" fill="#f6a43d"/><path d="m85.589 79.931q-.312-.138-.663-.257a2.616 2.616 0 0 0 -2.648.519 6.9 6.9 0 0 0 -1.715 2.791 30.122 30.122 0 0 0 -1.376 5.771l.716-.111a29.084 29.084 0 0 1 1.3-5.416 6.374 6.374 0 0 1 1.523-2.516 1.836 1.836 0 0 1 1.979-.388c1.737.586 2.475 1.431 2.685 2.439a5.639 5.639 0 0 1 -.833 3.574 16.458 16.458 0 0 1 -.863 1.422l.507-.078a2.34 2.34 0 0 1 .365.011c.216-.345.417-.69.6-1.035a6.2 6.2 0 0 0 .9-4.034 3.876 3.876 0 0 0 -2.477-2.692z" fill="#f6a43d"/><path d="m91.672 69.532a6.324 6.324 0 0 0 -1.855-1.1 5.553 5.553 0 0 0 -3.486-.174c-1.872.526-3.612 2.105-4.682 4.912-2.074 5.442-2.465 11.5-3.573 15.754l.73-.111c1.087-4.345 1.505-10.2 3.485-15.4 1.013-2.657 2.59-4.034 4.226-4.494a4.8 4.8 0 0 1 2.465-.032 5.546 5.546 0 0 1 2.246 1.167c2.69 2.283 3.855 7.31-.82 13.19a27.978 27.978 0 0 0 -3.008 4.613 2.343 2.343 0 0 1 .6.346 27.1 27.1 0 0 1 2.95-4.531c4.826-6.072 3.72-11.596.722-14.14z" fill="#f6a43d"/><path d="m109.5 78.134a1.515 1.515 0 0 1 -.167-1.387 8.828 8.828 0 0 1 3.042-3.984 10.127 10.127 0 0 1 3.046-1.7l-.837-.433a11.372 11.372 0 0 0 -2.636 1.589 9.214 9.214 0 0 0 -3.28 4.351 2.219 2.219 0 0 0 .3 1.988 2.983 2.983 0 0 0 2.257.919 11.077 11.077 0 0 1 3.558.76l.941-.3a11.06 11.06 0 0 0 -4.464-1.137 2.34 2.34 0 0 1 -1.76-.666z" fill="#f6a43d"/><path d="m106.551 71.738c-2.78 1.769-5.008 2.269-6.629 2.081a3.735 3.735 0 0 1 -3.128-2.071 3.035 3.035 0 0 1 .315-3.138c.7-.91 2.015-1.563 4.111-1.4a55.056 55.056 0 0 0 7.15.219l-1.13-.583-.1-.079c-1.97.032-3.991-.1-5.865-.241-2.263-.174-3.852.55-4.71 1.669a3.732 3.732 0 0 0 -.392 3.844 4.456 4.456 0 0 0 3.67 2.461c1.83.211 4.2-.357 7.075-2.184a18.545 18.545 0 0 1 5.965-2.56l-.916-.473a19.772 19.772 0 0 0 -5.416 2.455z" fill="#f6a43d"/><path d="m100.433 49.5a4.064 4.064 0 0 0 -.6.369 23.312 23.312 0 0 1 1.93 5.8 10.057 10.057 0 0 1 -.7 6.377c-.979 1.886-2.829 3.46-6.059 4.4s-5.491.62-7.2-.378a10.539 10.539 0 0 1 -3.852-4.658c-.737-1.489-1.34-3.1-1.963-4.6l-.875-.289c.7 1.625 1.366 3.465 2.222 5.194a11.179 11.179 0 0 0 4.123 4.945c1.883 1.1 4.378 1.418 7.735.444s5.406-2.676 6.477-4.74a10.718 10.718 0 0 0 .763-6.809 24.04 24.04 0 0 0 -2.001-6.055z" fill="#f6a43d"/><path d="m63.814 86.334c-.059 0-.118 0-.176.006l-7.4.507a1.48 1.48 0 0 1 -1.369-.715l-3.807-6.365a2.571 2.571 0 0 0 -4.7.7l-1.8 7.193a1.478 1.478 0 0 1 -1.1 1.081l-7.23 1.655a2.57 2.57 0 0 0 -.791 4.684l6.284 3.939a1.482 1.482 0 0 1 .675 1.381l-.661 7.387c-.007.076-.01.152-.01.229a2.57 2.57 0 0 0 4.22 1.971l5.688-4.759a1.481 1.481 0 0 1 1.533-.228l6.821 2.911a2.571 2.571 0 0 0 3.394-3.324l-2.769-6.88a1.482 1.482 0 0 1 .258-1.524l4.876-5.583a2.571 2.571 0 0 0 -1.936-4.261z" fill="#fbe986"/><path d="m60.874 96.183 1.854-2.125a5.2 5.2 0 1 0 .328 9.711l-2.44-6.063a1.48 1.48 0 0 1 .258-1.523z" fill="#f6a43d"/><path d="m45.807 82.671-1.249 4.984a1.481 1.481 0 0 1 -1.1 1.081l-1.619.37a4.127 4.127 0 0 0 7.51-2.367 4.214 4.214 0 0 0 -.044-.605 4.143 4.143 0 0 0 -3.498-3.463z" fill="#f6a43d"/><path d="m37.8 91.835a8.27 8.27 0 0 0 -2.312.059 4.622 4.622 0 0 0 -1.15.367 2.614 2.614 0 0 0 -.092.549 3.888 3.888 0 0 1 1.325-.485 7.928 7.928 0 0 1 2.186-.053 6.389 6.389 0 0 1 5.674 5.389 3.5 3.5 0 0 1 -.537 2.81 1.641 1.641 0 0 1 -.529.4l-.043.481a2 2 0 0 0 .9-.587 3.872 3.872 0 0 0 .641-3.171 6.833 6.833 0 0 0 -6.063-5.759z" fill="#f6a43d"/><path d="m38.627 95.37a3.1 3.1 0 0 0 -1.436-.265 1.854 1.854 0 0 0 -1.038.417l.4.251a1.9 1.9 0 0 1 1.91 0 4 4 0 0 1 1.914 1.365 1.417 1.417 0 0 1 .2 1.159l.389.244a1.9 1.9 0 0 0 -.224-1.641 4.391 4.391 0 0 0 -2.115-1.53z" fill="#f6a43d"/><path d="m44.643 105.615a1.869 1.869 0 0 0 -.343 0 3.078 3.078 0 0 0 -1.161.363 2.539 2.539 0 0 1 -1.261.294l-.038.43a2.965 2.965 0 0 0 1.5-.335 2.3 2.3 0 0 1 1.26-.312 1.271 1.271 0 0 1 .826.4 3.079 3.079 0 0 1 .658 2.143 4.156 4.156 0 0 1 -.32 1.5c.064-.034.127-.07.188-.109l.427-.357a4.87 4.87 0 0 0 .144-1.022 3.432 3.432 0 0 0 -.782-2.459 1.739 1.739 0 0 0 -1.098-.536z" fill="#f6a43d"/><path d="m61.219 92.275a.969.969 0 0 1 -.551-.7 5.653 5.653 0 0 1 .342-3.189 6.512 6.512 0 0 1 1.1-1.937l-.6.041a7.268 7.268 0 0 0 -.915 1.743 5.905 5.905 0 0 0 -.351 3.469 1.418 1.418 0 0 0 .821.989 1.909 1.909 0 0 0 1.54-.245 7.089 7.089 0 0 1 2.2-.765l.416-.476a7.071 7.071 0 0 0 -2.819.852 1.5 1.5 0 0 1 -1.183.218z" fill="#f6a43d"/><path d="m49.87 82.263a15.391 15.391 0 0 0 -3.109-2.647 2.59 2.59 0 0 0 -.2.4 14.911 14.911 0 0 1 2.981 2.535 6.441 6.441 0 0 1 1.735 3.72 5.884 5.884 0 0 1 -1.857 4.415 5.636 5.636 0 0 1 -4.063 2.182 6.759 6.759 0 0 1 -3.657-1.268c-.9-.57-1.762-1.251-2.6-1.865l-.574.132c.92.658 1.9 1.443 2.938 2.1a7.155 7.155 0 0 0 3.9 1.337 6.1 6.1 0 0 0 4.38-2.322 6.36 6.36 0 0 0 1.971-4.742 6.855 6.855 0 0 0 -1.845-3.977z" fill="#f6a43d"/><path d="m57.485 89.753a6.744 6.744 0 0 1 -2.936 3.338 2.391 2.391 0 0 1 -2.4-.1 1.94 1.94 0 0 1 -.868-1.821 2.849 2.849 0 0 1 1.784-2.13 35.107 35.107 0 0 0 3.984-2.253l-.812.056a.8.8 0 0 1 -.082-.01c-1.067.671-2.215 1.271-3.289 1.813a3.31 3.31 0 0 0 -2.023 2.476 2.387 2.387 0 0 0 1.061 2.233 2.853 2.853 0 0 0 2.827.13 7.15 7.15 0 0 0 3.146-3.541 11.855 11.855 0 0 1 2.414-3.38l-.658.045a12.664 12.664 0 0 0 -2.148 3.144z" fill="#f6a43d"/><path d="m48.613 93.483a4.094 4.094 0 0 0 -1.38.013 3.553 3.553 0 0 0 -1.965 1.061 4.758 4.758 0 0 0 -.932 4.24c.671 3.666 2.467 7.11 3.271 9.805l.363-.3c-.847-2.737-2.561-6.079-3.2-9.58a4.3 4.3 0 0 1 .82-3.861 3.081 3.081 0 0 1 1.338-.835 3.547 3.547 0 0 1 1.616-.106c2.229.356 4.534 2.72 3.927 7.488a17.874 17.874 0 0 0 -.116 3.521 1.449 1.449 0 0 1 .441-.008 17.4 17.4 0 0 1 .111-3.457c.626-4.93-1.807-7.584-4.294-7.981z" fill="#f6a43d"/><path d="m50.982 101.841a2.479 2.479 0 0 0 -2.247-.651c-.144.019-.293.045-.448.08a1.672 1.672 0 0 0 -1.276 1.162 4.429 4.429 0 0 0 -.013 2.1 19.266 19.266 0 0 0 1.162 3.613l.355-.3a18.605 18.605 0 0 1 -1.084-3.395 4.059 4.059 0 0 1 0-1.882 1.174 1.174 0 0 1 .954-.868 2.2 2.2 0 0 1 2.278.444 3.607 3.607 0 0 1 .73 2.231c.02.34.014.7 0 1.065l.252-.211a1.4 1.4 0 0 1 .2-.115c0-.26 0-.516-.016-.765a3.961 3.961 0 0 0 -.847-2.508z" fill="#f6a43d"/><path d="m47.362 94.739c-3.891.892.516 6.7 2.152 4.389.877-1.241 1.738-5.28-2.152-4.389z" fill="#f6a43d"/><path d="m98.712 42.712-3.26-2.19a5.3 5.3 0 0 1 -2.333-4.022l-.284-3.917a.824.824 0 0 0 -1.507-.4l-2.19 3.26a5.306 5.306 0 0 1 -4.02 2.333l-3.917.284a.824.824 0 0 0 -.4 1.506l3.26 2.19a5.312 5.312 0 0 1 2.333 4.021l.283 3.917a.825.825 0 0 0 1.507.4l2.19-3.26a5.307 5.307 0 0 1 4.02-2.333l3.917-.284a.824.824 0 0 0 .401-1.505z" fill="#fbe986"/><path d="m30.2 83.231-4.508-1.147a6.287 6.287 0 0 1 -4.2-3.558l-1.874-4.258a.976.976 0 0 0 -1.84.153l-1.147 4.508a6.287 6.287 0 0 1 -3.558 4.2l-4.258 1.876a.977.977 0 0 0 .153 1.84l4.508 1.147a6.285 6.285 0 0 1 4.2 3.558l1.875 4.258a.976.976 0 0 0 1.839-.153l1.148-4.508a6.287 6.287 0 0 1 3.558-4.2l4.257-1.874a.977.977 0 0 0 -.153-1.842z" fill="#fbe986"/><path d="m41.429 46.831c-4.149-1.482-5.052 3.712-1.772 4.8s3.379-4.231 1.772-4.8z" fill="#fbe986"/><path d="m63.538 48.01c-6.406.807-6.885 10.235-.062 12.5 2.3.763 3.963.26 5.084-.888l-4.813-9.88a2.876 2.876 0 0 1 -.209-1.732z" fill="#fbe986"/><path d="m88.106 106.086-2.7-.688a3.773 3.773 0 0 1 -2.52-2.134l-1.124-2.554a.585.585 0 0 0 -1.1.092l-.688 2.7a3.773 3.773 0 0 1 -2.134 2.52l-2.554 1.124a.586.586 0 0 0 .091 1.1l2.7.688a3.774 3.774 0 0 1 2.521 2.134l1.124 2.554a.585.585 0 0 0 1.1-.092l.688-2.7a3.772 3.772 0 0 1 2.135-2.52l2.555-1.12a.586.586 0 0 0 -.094-1.104z" fill="#fbe986"/><path d="m59.149 74.635c-.864-1.535-3.189 1.427-3.189 3.188a3.189 3.189 0 0 0 3.189 3.189c1.761 0 3.627-1.483 3.188-3.189-.325-1.263-2.373-1.741-3.188-3.188z" fill="#f6a43d"/><path d="m39.7 80.24a2.319 2.319 0 1 0 2.319 2.319 2.33 2.33 0 0 0 -2.319-2.319z" fill="#f6a43d"/></g></svg>