<svg height="512" viewBox="0 0 128 128" width="512" xmlns="http://www.w3.org/2000/svg"><g fill-rule="evenodd"><path d="m112.862 89.151a8.317 8.317 0 1 0 10.638 5.014 8.3 8.3 0 0 0 -10.638-5.014z" fill="#fff"/><path d="m106.916 54.858 4.96-3.444a4.823 4.823 0 0 0 -3.15-8.763l-6.016.5a5.687 5.687 0 0 1 -4.6-2.562c-.277-.416-.559-.82-.842-1.216a5.787 5.787 0 0 1 -.776-5.249l.575-1.22a6.047 6.047 0 0 0 -3.83-8.421 6.815 6.815 0 1 0 -5.53 1.142l-.749.522a5.746 5.746 0 0 1 -5.288.1q-.641-.315-1.291-.608a5.743 5.743 0 0 1 -3.294-4.139l-.612-7.343a4.473 4.473 0 0 0 -8.5-1.536l-3.113 6.604a5.778 5.778 0 0 1 -4.539 2.74c-.495.034-.988.076-1.475.127a5.69 5.69 0 0 1 -4.9-1.922l-.776-1.117a6.073 6.073 0 0 0 -11.047 3.967l.113 1.359a5.688 5.688 0 0 1 -2.559 4.6q-.612.407-1.219.84a5.773 5.773 0 0 1 -5.245.776l-6.606-3.113a4.3 4.3 0 0 0 -4.866.767 9.352 9.352 0 1 0 .266 7.236l3.225 4.645a5.747 5.747 0 0 1 .1 5.289q-.317.641-.609 1.291a5.74 5.74 0 0 1 -4.139 3.29l-1.418.118a6.067 6.067 0 0 0 -2.083 11.529l1.221.576a5.788 5.788 0 0 1 2.745 4.542c.033.485.073.976.125 1.473a5.689 5.689 0 0 1 -1.918 4.905l-4.956 3.447a4.823 4.823 0 0 0 3.149 8.763l6.017-.5a5.679 5.679 0 0 1 4.6 2.558c.275.415.558.82.842 1.218a5.786 5.786 0 0 1 .771 5.254l-.57 1.217a6.008 6.008 0 0 0 3.048 8.119c-.159.045-.318.013-.476.07a7.07 7.07 0 1 0 9.045 4.262 6.952 6.952 0 0 0 -4.216-4.159 6.091 6.091 0 0 0 1.542-.726l1.167-.809a5.74 5.74 0 0 1 5.287-.1q.641.315 1.291.608a5.745 5.745 0 0 1 3.293 4.141l.613 7.344a4.473 4.473 0 0 0 8.5 1.532l3.109-6.6a5.785 5.785 0 0 1 4.542-2.743q.745-.051 1.474-.127a5.69 5.69 0 0 1 4.9 1.921l.777 1.119a6.075 6.075 0 0 0 11.044-3.968l-.113-1.357a5.692 5.692 0 0 1 2.559-4.6c.406-.27.814-.55 1.22-.841a5.774 5.774 0 0 1 5.245-.774l6.6 3.111a4.473 4.473 0 0 0 5.579-6.592l-4.2-6.054a5.744 5.744 0 0 1 -.1-5.29q.315-.64.608-1.291a5.743 5.743 0 0 1 4.146-3.296l1.412-.118a6.067 6.067 0 0 0 2.083-11.529l-1.223-.576a5.787 5.787 0 0 1 -2.743-4.542c-.033-.487-.074-.98-.126-1.475a5.681 5.681 0 0 1 1.92-4.902z" fill="#fff"/><path d="m109.02 46.166-6.018.5c-2.891.241-6.23-1.709-7.833-4.124q-.375-.564-.77-1.116c-1.687-2.358-2.334-6.178-1.1-8.8l.574-1.221a2.538 2.538 0 0 0 -3.744-3.167l-1.165.809c-2.383 1.654-6.256 1.644-8.856.364q-.588-.29-1.183-.558c-2.643-1.191-5.117-4.171-5.358-7.061l-.611-7.344a.945.945 0 0 0 -1.8-.325l-3.106 6.605c-1.237 2.624-4.6 4.556-7.488 4.755q-.675.046-1.351.117c-2.883.3-6.511-1.035-8.165-3.418l-.777-1.119a2.547 2.547 0 0 0 -4.631 1.665l.111 1.357c.241 2.891-1.707 6.231-4.121 7.835q-.566.375-1.117.77c-2.357 1.687-6.177 2.335-8.8 1.1l-6.611-3.114a.945.945 0 0 0 -1.179 1.394l4.2 6.053c1.655 2.382 1.644 6.255.364 8.856q-.288.587-.557 1.183c-1.191 2.642-4.171 5.116-7.062 5.357l-1.414.117a2.539 2.539 0 0 0 -.871 4.826l1.22.576c2.624 1.237 4.557 4.6 4.757 7.487q.046.676.117 1.351c.3 2.883-1.033 6.513-3.416 8.167l-4.96 3.444a1.294 1.294 0 0 0 .845 2.352l6.018-.5c2.898-.239 6.238 1.706 7.838 4.121q.375.566.769 1.117c1.687 2.357 2.335 6.179 1.1 8.8l-.569 1.223a2.538 2.538 0 0 0 3.743 3.167l1.165-.809c2.383-1.654 6.256-1.644 8.856-.364q.588.29 1.184.558c2.642 1.191 5.115 4.171 5.357 7.061l.613 7.343a.944.944 0 0 0 1.8.323l3.111-6.6c1.237-2.624 4.6-4.557 7.487-4.756.451-.032.9-.071 1.353-.118 2.883-.3 6.511 1.035 8.166 3.418l.776 1.119a2.549 2.549 0 0 0 4.633-1.666l-.113-1.356c-.241-2.891 1.707-6.231 4.121-7.835q.565-.375 1.119-.77c2.357-1.687 6.178-2.334 8.8-1.1l6.6 3.111a.944.944 0 0 0 1.179-1.392l-4.2-6.054c-1.654-2.382-1.644-6.255-.364-8.856q.29-.586.557-1.183c1.191-2.642 4.171-5.116 7.062-5.357l1.414-.117a2.539 2.539 0 0 0 .873-4.827l-1.222-.575c-2.624-1.237-4.558-4.6-4.757-7.489q-.048-.676-.118-1.351c-.3-2.883 1.034-6.511 3.417-8.165l4.96-3.444a1.293 1.293 0 0 0 -.852-2.35z" fill="#fbe986"/><path d="m52.258 30.275a27.956 27.956 0 0 0 -3.6 1.1c-8.117 3.086-14.294 9.75-17.883 17.529-4.1 8.891-5.006 19.448-1.308 28.729 7.046 17.684 28.236 25.178 46.186 19.634 18.893-5.835 28.62-27.2 21.536-45.549-6.914-17.918-27.489-25.502-44.931-21.443z" fill="#f9cb68"/><path d="m88.1 15.868a3.295 3.295 0 1 0 4.215 1.986 3.295 3.295 0 0 0 -4.215-1.986z" fill="#fbe986"/><path d="m32.871 106.606a3.544 3.544 0 1 0 4.534 2.137 3.561 3.561 0 0 0 -4.534-2.137z" fill="#fbe986"/><path d="m114.055 92.469a4.791 4.791 0 1 0 6.13 2.888 4.815 4.815 0 0 0 -6.13-2.888z" fill="#f6a43d"/><path d="m11.394 26.648a5.834 5.834 0 1 0 7.463 3.517 5.861 5.861 0 0 0 -7.463-3.517z" fill="#f6a43d"/><path d="m53.152 34.118c-16.97 3.947-26.465 25.865-20.016 42.051 6.158 15.457 25.216 22.311 41.356 17.331 16.648-5.142 25.293-24.1 19.019-40.359-6.087-15.771-24.649-22.678-40.359-19.023z" fill="#f6a43d"/><g fill="#f47d20"><path d="m48.032 35.957c-.335.164-.67.329-1 .507a.217.217 0 0 0 .036.084 24.953 24.953 0 0 1 6.705 7.338c1.519 2.794 1.587 5.124.874 6.819a5.148 5.148 0 0 1 -4.056 3.082 7.367 7.367 0 0 1 -5.928-1.929 36.559 36.559 0 0 1 -6.29-7.775.243.243 0 0 0 -.071-.041c-.223.288-.447.575-.66.871a36.494 36.494 0 0 0 6.329 7.75 8.45 8.45 0 0 0 6.786 2.172 6.237 6.237 0 0 0 4.865-3.718c.86-2.04.716-4.737-.916-7.739a25.48 25.48 0 0 0 -6.674-7.421z"/><path d="m50.432 87.816a5.331 5.331 0 0 0 -3.927-.824c-1.526.141-3.13.489-4.7.486a.24.24 0 0 0 -.156.109q.586.474 1.2.919c1.349-.1 2.635-.356 3.762-.46a4.291 4.291 0 0 1 3.176.607c.821.638 1.525 1.928 1.915 4.444.37.127.743.25 1.118.365a.219.219 0 0 0 .034-.117c-.035-.148-.08-.277-.094-.368-.417-2.677-1.193-4.277-2.328-5.161z"/><path d="m73 40.061a5.177 5.177 0 0 1 -1.732-4.094 10.038 10.038 0 0 1 .122-1.548c-.341-.089-.684-.169-1.028-.248l-.01.015a11.165 11.165 0 0 0 -.144 1.792 6.351 6.351 0 0 0 2.09 4.879c2.61 2.307 7.469 3.021 14.759 2.579a.232.232 0 0 0 .144-.068q-.477-.489-.975-.954c-6.741.327-11.119-.49-13.226-2.353z"/><path d="m79.211 50.629c-5.581-.28-9.177-1.581-11.647-3.363a15.261 15.261 0 0 1 -4.926-6.432 55.879 55.879 0 0 0 -3.138-6.823 9.146 9.146 0 0 0 -.551-.756q-.59.04-1.177.1a.235.235 0 0 0 .021.138 9.6 9.6 0 0 1 .814 1.093 58.823 58.823 0 0 1 3.061 6.69 16.369 16.369 0 0 0 5.273 6.851c2.669 1.925 6.489 3.274 12.212 3.561 6.823.341 11.5 1.377 14.671 2.829a.242.242 0 0 0 .165-.024c-.14-.419-.286-.837-.444-1.252-3.312-1.366-7.916-2.291-14.334-2.612z"/><path d="m47.61 43.3a2.538 2.538 0 0 0 -1.247-.187 1.753 1.753 0 0 0 -.411.1 1.265 1.265 0 0 0 -.123.054 1.542 1.542 0 0 0 -.439.315 2.648 2.648 0 0 0 -.6 2.049 5.672 5.672 0 0 0 2.61 4.428 3.176 3.176 0 0 0 4.55-1.4 2.862 2.862 0 0 0 -.479-2.774 8.542 8.542 0 0 0 -3.861-2.585z"/><path d="m85.039 66.239c-5.74-4.111-10.965-4.813-14.843-3.53-.257.086-.51.179-.756.282a9.936 9.936 0 0 0 -3.363 2.287c-3.663 3.822-3.737 10.347 1.762 14.768 4.543 3.652 10.272 6.81 14.7 9.5.3-.214.605-.436.9-.661a.247.247 0 0 0 -.053-.063c-4.506-2.76-10.352-5.963-14.884-9.606-5.106-4.1-4.92-9.8-1.662-13.207a8.956 8.956 0 0 1 3.012-2.053c3.552-1.489 8.658-1.093 14.567 3.14a55.161 55.161 0 0 1 9.081 7.918.23.23 0 0 0 .1.035c.131-.356.254-.715.372-1.076a57.01 57.01 0 0 0 -8.933-7.734z"/><path d="m32.495 74.36h.001l-.001-.001z"/><path d="m89.361 58.146a14.081 14.081 0 0 0 -10.861-.446c-8.45 2.761-19.153 4.757-27.872 3.779-4.36-.489-8.214-1.721-11.062-3.918a12.932 12.932 0 0 1 -4.759-7.5.239.239 0 0 0 -.128-.15q-.333.687-.637 1.387a13.956 13.956 0 0 0 4.875 7.102c3.061 2.362 7.1 3.628 11.589 4.131 8.972 1.006 19.763-1.027 28.319-3.823a12.929 12.929 0 0 1 10.075.392 18 18 0 0 1 6.325 5.585c.041.056.081.116.134.187a.235.235 0 0 0 .184.061c.013-.511.014-1.021 0-1.533a18.169 18.169 0 0 0 -6.182-5.254z"/><path d="m64.23 80.982c-3.551-8-7.157-11.593-12.03-13.757s-10.92-2.937-19.572-5.541a11.944 11.944 0 0 1 -1.218-.452.223.223 0 0 0 -.063 0q-.063.53-.108 1.06a11.535 11.535 0 0 0 1.084.406c8.726 2.626 14.791 3.428 19.447 5.5s8 5.354 11.49 13.216c2.618 5.894 5.118 10.114 7.777 12.956.395-.08.786-.169 1.179-.262a.233.233 0 0 0 -.051-.113c-2.65-2.695-5.222-6.907-7.935-13.013z"/><path d="m59.211 81.663a14 14 0 0 0 -8.461-3.811c-7.5-.972-12.11-1.122-15.174-2.06a8.738 8.738 0 0 1 -2.88-1.428.234.234 0 0 0 -.2 0q.229.721.5 1.428a9.884 9.884 0 0 0 2.27 1.017c3.311 1.013 7.883 1.133 15.343 2.1a12.9 12.9 0 0 1 7.845 3.505 12.389 12.389 0 0 1 3.169 6.246 25.017 25.017 0 0 1 .412 6.4v.006c.353.016.707.019 1.062.025a26.007 26.007 0 0 0 -.438-6.653 13.453 13.453 0 0 0 -3.448-6.775z"/><path d="m71.288 53.605c-3.432-2.532-7.058-2.183-11.517-2.339-2.618-.092 1.2 8.184 6.133 8.005s8.817-3.135 5.384-5.666z"/><path d="m79.73 66.282c-5.882-3.331-12.454.131-12.465 4.554-.014 5.487 9.664 6.636 15.431 5.727s2.917-6.949-2.966-10.281z"/></g><path d="m52.158 29.846a28.317 28.317 0 0 0 -3.658 1.114c-8.245 3.135-14.5 9.888-18.126 17.756-4.147 8.989-5.067 19.667-1.318 29.077 7.143 17.927 28.575 25.5 46.726 19.893 19.141-5.912 28.992-27.544 21.818-46.13-7-18.156-27.8-25.813-45.442-21.71zm23.369 67c-17.751 5.483-38.7-1.935-45.648-19.376-3.645-9.151-2.758-19.586 1.3-28.379 3.549-7.692 9.65-14.265 17.64-17.3a27.266 27.266 0 0 1 3.539-1.08c17.254-4.014 37.6 3.485 44.424 21.17 6.993 18.111-2.612 39.203-21.255 44.961z" fill="#faa73a"/></g></svg>