<?xml version="1.0" encoding="UTF-8"?>
<!-- Generator: Adobe Illustrator 26.5.0, SVG Export Plug-In . SVG Version: 6.00 Build 0)  -->
<svg xmlns="http://www.w3.org/2000/svg" xmlns:xlink="http://www.w3.org/1999/xlink" version="1.1" id="Capa_1" x="0px" y="0px" viewBox="0 0 504.312 504.312" style="enable-background:new 0 0 504.312 504.312;" xml:space="preserve" width="512" height="512">
<g>
	<path style="fill-rule:evenodd;clip-rule:evenodd;fill:#F1854F;" d="M354.38,184.791c-2.376,0-4.301-1.927-4.301-4.302v-13.505   c0-2.375,1.925-4.301,4.301-4.301h117.419c2.374,0,4.301,1.926,4.301,4.301v13.505c0,2.375-1.927,4.302-4.301,4.302H354.38z"/>
	<path style="fill-rule:evenodd;clip-rule:evenodd;fill:#F1854F;" d="M478.149,196.849c-12.742,0-23.109-10.368-23.109-23.109   c0-12.745,10.367-23.111,23.109-23.111c12.745,0,23.111,10.366,23.111,23.111C501.261,186.481,490.895,196.849,478.149,196.849z"/>
	<path style="fill-rule:evenodd;clip-rule:evenodd;fill:#074785;" d="M478.149,186.882c-7.248,0-13.143-5.894-13.143-13.143   c0-7.25,5.895-13.148,13.143-13.148c7.25,0,13.148,5.898,13.148,13.148C491.298,180.988,485.399,186.882,478.149,186.882z"/>
	<path style="fill-rule:evenodd;clip-rule:evenodd;fill:#F1854F;" d="M476.516,314.953c-1.232,0-2.455-0.526-3.306-1.547   l-38.01-45.617H326.165c-2.375,0-4.302-1.926-4.302-4.301v-13.505c0-2.376,1.927-4.302,4.302-4.302h117.418   c1.527,0,2.867,0.796,3.632,1.994l42.979,51.578c0.73,0.876,1.084,2.008,0.981,3.143c-0.105,1.137-0.655,2.186-1.532,2.916   l-10.377,8.645C478.463,314.626,477.486,314.953,476.516,314.953z"/>
	<path style="fill-rule:evenodd;clip-rule:evenodd;fill:#F1854F;" d="M481.203,328.531c-12.744,0-23.111-10.368-23.111-23.109   c0-12.743,10.367-23.11,23.111-23.11c12.743,0,23.109,10.367,23.109,23.11C504.312,318.163,493.946,328.531,481.203,328.531z"/>
	<path style="fill-rule:evenodd;clip-rule:evenodd;fill:#074785;" d="M481.203,318.566c-7.25,0-13.148-5.897-13.148-13.145   c0-7.248,5.898-13.147,13.148-13.147c7.248,0,13.144,5.898,13.144,13.147C494.347,312.668,488.451,318.566,481.203,318.566z"/>
	<path style="fill-rule:evenodd;clip-rule:evenodd;fill:#F1854F;" d="M32.515,294.983c-2.375,0-4.302-1.927-4.302-4.302v-13.505   c0-2.375,1.927-4.302,4.302-4.302h117.418c2.375,0,4.301,1.927,4.301,4.302v13.505c0,2.375-1.926,4.302-4.301,4.302H32.515z"/>
	<path style="fill-rule:evenodd;clip-rule:evenodd;fill:#F1854F;" d="M26.163,307.039c-12.744,0-23.111-10.366-23.111-23.109   c0-12.744,10.367-23.111,23.111-23.111c12.742,0,23.109,10.367,23.109,23.111C49.272,296.673,38.905,307.039,26.163,307.039z"/>
	<path style="fill-rule:evenodd;clip-rule:evenodd;fill:#074785;" d="M26.163,297.075c-7.25,0-13.148-5.896-13.148-13.145   c0-7.25,5.898-13.147,13.148-13.147c7.248,0,13.144,5.897,13.144,13.147C39.307,291.178,33.411,297.075,26.163,297.075z"/>
	<path style="fill-rule:evenodd;clip-rule:evenodd;fill:#F1854F;" d="M27.797,425.146c-0.97,0-1.946-0.329-2.751-0.996   l-10.378-8.645c-0.876-0.73-1.427-1.778-1.53-2.915c-0.104-1.136,0.25-2.269,0.981-3.144l43.107-51.731   c0.781-1.108,2.059-1.841,3.504-1.841h117.418c2.375,0,4.302,1.926,4.302,4.301v13.506c0,2.375-1.927,4.302-4.302,4.302H69.112   l-38.009,45.615C30.252,424.618,29.029,425.146,27.797,425.146z"/>
	<path style="fill-rule:evenodd;clip-rule:evenodd;fill:#F1854F;" d="M23.109,438.721C10.366,438.721,0,428.354,0,415.612   s10.366-23.109,23.109-23.109c12.745,0,23.111,10.367,23.111,23.109S35.854,438.721,23.109,438.721z"/>
	<path style="fill-rule:evenodd;clip-rule:evenodd;fill:#074785;" d="M23.109,428.758c-7.248,0-13.144-5.898-13.144-13.147   c0-7.248,5.896-13.146,13.144-13.146c7.25,0,13.148,5.898,13.148,13.146C36.257,422.86,30.359,428.758,23.109,428.758z"/>
	<path style="fill:#A089E4;" d="M410.829,421.762c-0.951,19.91-18.073,37.76-37.815,39.174   c-80.985,5.587-161.963,5.458-242.93-0.383c-19.733-1.478-36.803-19.386-37.691-39.294c-4.805-112.91-4.626-225.815,0.536-338.712   c0.95-19.908,18.075-37.759,37.815-39.172c80.982-5.585,161.959-5.457,242.93,0.384c19.735,1.477,36.803,19.377,37.689,39.29   C416.168,195.964,415.99,308.867,410.829,421.762z"/>
	<path style="fill:#074785;" d="M141.737,416.265c-6.876-0.011-13.35-2.71-18.224-7.601c-4.875-4.89-7.556-11.371-7.544-18.247   l0.457-290.68c0.021-14.208,11.6-25.769,25.808-25.769l219.806,0.35c6.876,0.011,13.35,2.709,18.224,7.601   c4.875,4.89,7.555,11.371,7.544,18.247l-0.459,290.677c-0.021,14.209-11.6,25.768-25.809,25.768L141.737,416.265z"/>
	<path style="fill:#7BEFE5;" d="M376.595,390.826c-0.012,8.28-6.799,15.045-15.078,15.032l-219.763-0.346   c-8.279-0.013-15.044-6.8-15.032-15.079l0.459-290.678c0.012-8.279,6.799-15.045,15.077-15.031l219.766,0.349   c8.279,0.012,15.044,6.798,15.031,15.077L376.595,390.826z"/>
	<path style="fill:#074785;" d="M327.211,436.249c-0.011,5.561-4.525,10.066-10.094,10.061c-5.561-0.008-10.067-4.529-10.057-10.092   c0.006-5.565,4.526-10.07,10.09-10.061C322.716,426.17,327.218,430.687,327.211,436.249z"/>
	<path style="fill:#074785;" d="M356.995,436.297c-0.008,5.561-4.526,10.068-10.09,10.059c-5.565-0.008-10.069-4.528-10.061-10.092   c0.011-5.564,4.531-10.069,10.09-10.059C352.5,426.214,357.005,430.734,356.995,436.297z"/>
	<path style="fill:#F9D555;" d="M286.833,437.434c-0.006,4.877-3.964,8.822-8.838,8.812l-33.977-0.052   c-4.874-0.011-8.817-3.968-8.811-8.843l0,0c0.006-4.87,3.966-8.817,8.836-8.809l33.98,0.055   C282.897,428.604,286.841,432.561,286.833,437.434L286.833,437.434z"/>
	<g>
		<path style="fill:#074785;" d="M151.628,307.03c64.121,0.097,128.244,0.199,192.366,0.303c3.419,0.003,3.43-7.826,0.017-7.828    c-64.127-0.104-128.252-0.205-192.376-0.305C148.223,299.198,148.208,307.021,151.628,307.03L151.628,307.03z"/>
	</g>
	<g>
		<path style="fill:#074785;" d="M151.55,341.865c64.122,0.101,128.25,0.199,192.373,0.309c3.411-0.002,3.428-7.821,0.01-7.827    c-64.125-0.105-128.247-0.206-192.37-0.31C148.149,334.033,148.131,341.858,151.55,341.865L151.55,341.865z"/>
	</g>
	<g>
		<path style="fill:#074785;" d="M151.476,376.704c64.122,0.097,128.248,0.204,192.371,0.303c3.411,0.004,3.426-7.822,0.014-7.829    c-64.129-0.102-128.254-0.198-192.376-0.299C148.069,368.872,148.059,376.696,151.476,376.704L151.476,376.704z"/>
	</g>
	<g>
		<path style="fill:#074785;" d="M152.804,272.262c39.009,0.057,78.021,0.119,117.033,0.18c3.414,0.007,3.424-7.816,0.011-7.829    c-39.015-0.053-78.024-0.12-117.031-0.185C149.396,264.423,149.389,272.251,152.804,272.262L152.804,272.262z"/>
	</g>
	<g>
		<g>
			<path style="fill-rule:evenodd;clip-rule:evenodd;fill:#FFFFFF;" d="M328.695,157.389c0.374,14.399,21.463,22.58,12.754,32.338     c-0.49,0.55,0.451,1.617-0.059,2.161c-8.932,9.187-21.156,14.958-34.762,15.246c-28.259,0.597-51.781-22.712-52.545-52.072     c-0.758-29.346,21.529-53.623,49.787-54.211c18.065-0.387,34.191,8.995,43.674,23.483c0.235,0.339-0.553,1.234-0.339,1.586     C352.169,133.882,328.436,147.236,328.695,157.389z"/>
			<path style="fill-rule:evenodd;clip-rule:evenodd;fill:#074785;" d="M297.078,158.149c0.506,19.418,17.778,34.794,38.571,34.351     c1.909-0.038,3.783-0.215,5.612-0.511c9.689-9.903,15.548-23.792,15.155-39.084c-0.268-10.61-3.539-20.424-8.907-28.606     c-4.268-1.44-8.886-2.188-13.685-2.096C313.025,122.639,296.578,138.732,297.078,158.149z"/>
		</g>
		<g>
			<path style="fill-rule:evenodd;clip-rule:evenodd;fill:#FFFFFF;" d="M235.571,126.714c-9.48-14.483-25.613-23.885-43.68-23.502     c-28.266,0.594-50.555,24.864-49.787,54.221c0.754,29.354,24.283,52.657,52.536,52.069c13.656-0.287,25.914-6.111,34.853-15.352     l-10.23-36.102L235.571,126.714z"/>
			<path style="fill-rule:evenodd;clip-rule:evenodd;fill:#074785;" d="M185.096,160.512c0.507,19.416,17.77,34.788,38.561,34.355     c1.915-0.039,3.788-0.216,5.615-0.512c9.693-9.903,15.557-23.798,15.16-39.084c-0.279-10.607-3.537-20.426-8.918-28.612     c-4.255-1.438-8.871-2.192-13.677-2.088C201.042,125.013,184.596,141.099,185.096,160.512z"/>
		</g>
		<path style="fill-rule:evenodd;clip-rule:evenodd;fill:#074785;" d="M228.951,202.425c0.231,8.731,1.451,16.878,3.402,23.869    c0.102,0.359,1.416,0.857,1.517,1.197c3.97,13.503,8.441,7.578,15.838,7.412c7.377-0.151,13.822,5.343,17.099-8.271    c0.091-0.385,0.991-0.726,1.073-1.109c1.581-7.061,2.376-15.247,2.152-23.962L228.951,202.425z"/>
		<path style="fill-rule:evenodd;clip-rule:evenodd;fill:#FD6085;" d="M250.737,249.602c7.597-0.16,13.979-9.876,17.161-24.177    l-35.575,0.746C236.245,240.325,243.131,249.761,250.737,249.602z"/>
	</g>
	<path style="fill:#074785;" d="M168.311,229.408c-0.981-0.952-2.951-14.255-4.737-14.147c-1.787,0.107-3.348,13.301-4.183,14.17   c-1.677,1.744-13.942,2.977-13.839,4.669c0.097,1.688,12.142,2.482,13.845,4.134c0.948,0.916,2.945,14.256,4.738,14.152   c1.785-0.102,3.314-13.264,4.182-14.163c1.617-1.683,13.977-2.984,13.881-4.68C182.094,231.85,169.943,230.999,168.311,229.408z"/>
	<path style="fill-rule:evenodd;clip-rule:evenodd;fill:#FFFFFF;" d="M354.312,219.484v40.862c0,8.321,12.904,8.321,12.904,0   v-40.862C367.217,211.162,354.312,211.162,354.312,219.484z"/>
	<path style="fill-rule:evenodd;clip-rule:evenodd;fill:#FFFFFF;" d="M362.916,276.118c-8.321,0-8.321,12.903,0,12.903   C371.237,289.021,371.237,276.118,362.916,276.118z"/>
	<path style="fill-rule:evenodd;clip-rule:evenodd;fill:#FFFFFF;" d="M190.502,49.939h-40.504c-8.321,0-8.321,12.903,0,12.903   h40.504C198.823,62.842,198.823,49.939,190.502,49.939z"/>
	<path style="fill-rule:evenodd;clip-rule:evenodd;fill:#FFFFFF;" d="M212.367,49.939c-8.32,0-8.32,12.903,0,12.903   C220.689,62.842,220.689,49.939,212.367,49.939z"/>
	<path style="fill-rule:evenodd;clip-rule:evenodd;fill:#FFFFFF;" d="M185.483,438.135c-11.654-0.073-23.291-0.977-34.947-0.538   c-8.295,0.311-8.326,13.217,0,12.905c11.656-0.439,23.293,0.463,34.947,0.537C193.808,451.092,193.803,438.188,185.483,438.135z"/>
	<path style="fill-rule:evenodd;clip-rule:evenodd;fill:#FFFFFF;" d="M203.228,439.748c-8.321,0-8.321,12.904,0,12.904   C211.549,452.653,211.549,439.748,203.228,439.748z"/>
	<path style="fill-rule:evenodd;clip-rule:evenodd;fill:#FFFFFF;" d="M317.751,258.553c-6.936,0-6.936,10.753,0,10.753   C324.686,269.306,324.686,258.553,317.751,258.553z"/>
	<path style="fill-rule:evenodd;clip-rule:evenodd;fill:#FFFFFF;" d="M362.916,95.464c-6.935,0-6.935,10.754,0,10.754   C369.851,106.218,369.851,95.464,362.916,95.464z"/>
	<path style="fill-rule:evenodd;clip-rule:evenodd;fill:#FFFFFF;" d="M330.655,54.238c-6.935,0-6.935,10.754,0,10.754   C337.591,64.992,337.591,54.238,330.655,54.238z"/>
	<path style="fill-rule:evenodd;clip-rule:evenodd;fill:#FFFFFF;" d="M400.912,335.261c-6.936,0-6.936,10.754,0,10.754   C407.847,346.015,407.847,335.261,400.912,335.261z"/>
	<path style="fill-rule:evenodd;clip-rule:evenodd;fill:#FFFFFF;" d="M399.479,135.966c-6.935,0-6.935,10.753,0,10.753   C406.414,146.719,406.414,135.966,399.479,135.966z"/>
	<path style="fill-rule:evenodd;clip-rule:evenodd;fill:#FFFFFF;" d="M99.815,217.692c-6.935,0-6.935,10.754,0,10.754   C106.751,228.446,106.751,217.692,99.815,217.692z"/>
	<path style="fill-rule:evenodd;clip-rule:evenodd;fill:#FFFFFF;" d="M99.815,333.828c-6.935,0-6.935,10.754,0,10.754   C106.751,344.582,106.751,333.828,99.815,333.828z"/>
	<path style="fill-rule:evenodd;clip-rule:evenodd;fill:#FFFFFF;" d="M121.322,427.025c-6.935,0-6.935,10.754,0,10.754   C128.258,437.779,128.258,427.025,121.322,427.025z"/>
	<path style="fill-rule:evenodd;clip-rule:evenodd;fill:#FFFFFF;" d="M389.442,429.892c-6.936,0-6.936,10.753,0,10.753   C396.377,440.645,396.377,429.892,389.442,429.892z"/>
	<path style="fill-rule:evenodd;clip-rule:evenodd;fill:#FFFFFF;" d="M257.534,51.371c-6.936,0-6.936,10.753,0,10.753   C264.469,62.124,264.469,51.371,257.534,51.371z"/>
	<path style="fill-rule:evenodd;clip-rule:evenodd;fill:#FFFFFF;" d="M144.264,101.555c-6.935,0-6.935,10.753,0,10.753   S151.198,101.555,144.264,101.555z"/>
	<path style="fill-rule:evenodd;clip-rule:evenodd;fill:#FFFFFF;" d="M251.798,105.856c-6.935,0-6.935,10.753,0,10.753   C258.733,116.609,258.733,105.856,251.798,105.856z"/>
	<path style="fill-rule:evenodd;clip-rule:evenodd;fill:#FFFFFF;" d="M248.931,384.011c-6.935,0-6.935,10.753,0,10.753   C255.867,394.764,255.867,384.011,248.931,384.011z"/>
	<path style="fill-rule:evenodd;clip-rule:evenodd;fill:#FFFFFF;" d="M334.958,386.878c-6.935,0-6.935,10.753,0,10.753   C341.894,397.631,341.894,386.878,334.958,386.878z"/>
	<path style="fill-rule:evenodd;clip-rule:evenodd;fill:#FFFFFF;" d="M137.812,349.6c-6.936,0-6.936,10.754,0,10.754   C144.747,360.354,144.747,349.6,137.812,349.6z"/>
	<path style="fill-rule:evenodd;clip-rule:evenodd;fill:#FFFFFF;" d="M222.405,310.888c-6.936,0-6.936,10.753,0,10.753   C229.34,321.641,229.34,310.888,222.405,310.888z"/>
</g>















</svg>
