<svg height="512" viewBox="0 0 128 128" width="512" xmlns="http://www.w3.org/2000/svg"><g fill-rule="evenodd"><path d="m105.726 4.016a9.166 9.166 0 1 0 9.169 6.049 9.157 9.157 0 0 0 -9.169-6.049z" fill="#fff"/><path d="m112.438 72.482-3.626-1.115a1.079 1.079 0 0 1 -.689-.644l-1.354-3.537a4.832 4.832 0 0 0 -4.66-3.109c5.1-2.708 6.574-8.582 5.237-13.68a23.127 23.127 0 0 0 -1.454-22.772 23.132 23.132 0 0 0 -20.465-10.157 12.917 12.917 0 0 0 -7.539-2.959 10.741 10.741 0 0 0 -7.441 2.716l-12.564 11.175c-.092.082-.149.2-.237.281a4.75 4.75 0 0 0 -3.253-3.767l-4.555-1.4a2.4 2.4 0 0 1 -1.528-1.43l-1.7-4.443a5.045 5.045 0 0 0 -9.538.315l-1.4 4.553a2.4 2.4 0 0 1 -1.431 1.527l-4.45 1.7a5.05 5.05 0 0 0 .322 9.535l4.553 1.4a2.392 2.392 0 0 1 1.527 1.429l1.7 4.454a4.844 4.844 0 0 0 4.446 3.114l-10.639 8.351a8.659 8.659 0 0 0 -3.253 5.781l-13.457 10.561a7.053 7.053 0 0 0 -1.69 9.476l8.525 12.842a7.053 7.053 0 0 0 9.385 2.121l14.962-8.3a8.232 8.232 0 0 0 2.737.287 15.013 15.013 0 0 0 -.029 5.623v.006.008a14.973 14.973 0 0 0 .608 1.654l-10.4 15.882a9.069 9.069 0 0 0 15.173 9.938l5.058-7.727.309 1.475a9.069 9.069 0 0 0 17.757-3.7l-.289-1.383 7.614 4.988a9.07 9.07 0 0 0 9.942-15.181l-15.878-10.4a15.288 15.288 0 0 0 -.107-1.778 15.1 15.1 0 0 0 -8.088-10.341l7.809-4.336a9.018 9.018 0 0 0 8.148.048l12.336-5.883a4.687 4.687 0 0 0 -1.256 1.806l-1.116 3.628a1.077 1.077 0 0 1 -.642.688l-3.548 1.358a4.847 4.847 0 0 0 .306 9.149l3.626 1.116a1.086 1.086 0 0 1 .69.646l1.358 3.546a4.846 4.846 0 0 0 9.153-.311l1.112-3.624a1.082 1.082 0 0 1 .646-.689l3.546-1.358a4.846 4.846 0 0 0 -.309-9.153z" fill="#fff"/><path d="m62.554 90.684a5.012 5.012 0 0 0 -6.953 1.45l-13.124 20.039a5.022 5.022 0 0 0 8.4 5.5l13.123-20.036a5.011 5.011 0 0 0 -1.446-6.953z" fill="#d6e0e9"/><path d="m92.435 101.756-20.035-13.124a5.022 5.022 0 1 0 -5.5 8.4l20.039 13.124a5.022 5.022 0 1 0 5.5-8.4z" fill="#d6e0e9"/><path d="m46.169 59.456c-1.885-2.84-5.847-3.828-8.529-1.724l-20.152 15.814a3 3 0 0 0 -.819 4.051l8.525 12.844a3.007 3.007 0 0 0 4.052.819l22.4-12.431c2.98-1.654 3.608-5.689 1.723-8.529z" fill="#6b7392"/><path d="m74.681 37.317c-2.661-4.008-8.253-5.4-12.037-2.433l-28.444 22.316a4.241 4.241 0 0 0 -1.155 5.718l12.033 18.13a4.241 4.241 0 0 0 5.722 1.152l31.608-17.541c4.206-2.335 5.092-8.029 2.432-12.037z" fill="#79809f"/><path d="m75.889 24.481a19.211 19.211 0 1 0 26.63 5.382 19.228 19.228 0 0 0 -26.63-5.382z" fill="#d6e0e9"/><path d="m85.172 22.681c-2.66-4.008-8.442-5.629-12.037-2.432l-12.563 11.174c-1.765 1.57-2.5 3.942-1.2 5.91l19.511 29.385c1.306 1.968 3.778 2.211 5.91 1.194l15.176-7.239c4.342-2.071 5.092-8.029 2.432-12.037z" fill="#6b7392"/><path d="m63.95 65.31a5.022 5.022 0 1 0 -9.833 2.05l4.819 23.114a5.022 5.022 0 0 0 9.833-2.051z" fill="#e2e9ef"/><path d="m61.5 78.377a11.167 11.167 0 1 0 13.207 8.653 11.221 11.221 0 0 0 -13.207-8.653z" fill="#6b7392"/><path d="m70.07 94.662a5.022 5.022 0 1 0 -9.833 2.051l3.358 16.1a5.022 5.022 0 1 0 9.832-2.051z" fill="#e2e9ef"/><path d="m104.536 8.348a5.12 5.12 0 1 0 6.55 3.087 5.144 5.144 0 0 0 -6.55-3.087z" fill="#f6a43d"/><path d="m111.248 76.352-3.626-1.116a5.125 5.125 0 0 1 -3.279-3.066l-1.356-3.543a.795.795 0 0 0 -1.5.05l-1.12 3.623a5.128 5.128 0 0 1 -3.067 3.282l-3.543 1.355a.8.8 0 0 0 .05 1.5l3.626 1.115a5.132 5.132 0 0 1 3.279 3.067l1.355 3.543a.8.8 0 0 0 1.5-.05l1.115-3.626a5.129 5.129 0 0 1 3.067-3.279l3.543-1.356a.8.8 0 0 0 -.044-1.499z" fill="#fbe986"/><path d="m53.2 28.78-4.553-1.4a6.443 6.443 0 0 1 -4.118-3.851l-1.7-4.45a1 1 0 0 0 -1.889.064l-1.4 4.553a6.443 6.443 0 0 1 -3.851 4.118l-4.449 1.7a1 1 0 0 0 .063 1.89l4.553 1.4a6.443 6.443 0 0 1 4.118 3.851l1.7 4.45a1 1 0 0 0 1.889-.064l1.4-4.553a6.44 6.44 0 0 1 3.851-4.118l4.45-1.7a1 1 0 0 0 -.064-1.89z" fill="#fbe986"/><path d="m88.991 24.66c-.962.434 3.042 5.775 5.988 7.633s5.63-1.761 2.218-5.336-5.617-3.465-8.206-2.297z" fill="#f4f5f7"/><g fill="#485774"><path d="m89.461 29.143-1.183-1.782c.056 1.333.195 2.718.29 4.146.31 4.668.123 9.627-5.545 14.173-5.332 4.278-9.251 7.218-12 9.2l.591.889c2.768-2 6.716-4.962 12.074-9.259 5.962-4.782 6.259-10.32 5.943-15.077-.05-.795-.111-1.533-.17-2.29z"/><path d="m78.919 18.661a8.115 8.115 0 0 0 -1.073-.1 8.915 8.915 0 0 0 -.378 1.837 42.287 42.287 0 0 0 .257 6.613c.31 4.668.123 9.629-5.545 14.175-2.574 2.066-4.783 3.785-6.74 5.282l.591.891c1.978-1.512 4.215-3.252 6.817-5.34 5.962-4.782 6.259-10.322 5.943-15.079a43.071 43.071 0 0 1 -.261-6.44 7.8 7.8 0 0 1 .389-1.839z"/><path d="m96.955 49.266c-8.242 6.611-15.314 13-18.857 16.268l.6.9c3.492-3.223 10.632-9.68 18.927-16.334a17.154 17.154 0 0 0 3.385-3.562l-.628-.945a16.171 16.171 0 0 1 -3.427 3.673z"/><path d="m27.1 73.41a51.62 51.62 0 0 1 -2.068-5.453c-.026-.095-.047-.186-.071-.28l-.914.718a54.2 54.2 0 0 0 2.064 5.422 22.771 22.771 0 0 1 1.661 5.333 5.508 5.508 0 0 1 -1.013 4.387c-1.3 1.652-2.452 2.972-3.457 4.059l.605.912c1.068-1.142 2.3-2.545 3.691-4.31a6.655 6.655 0 0 0 1.232-5.187 23.4 23.4 0 0 0 -1.73-5.601z"/><path d="m36.294 76.083c-2.336-3.982-4.92-8.171-5.674-12.842l-.95.745c.9 4.694 3.47 8.83 5.7 12.637a33.8 33.8 0 0 1 3.386 6.966 11.249 11.249 0 0 1 .432 2.151l1.008-.559a12.55 12.55 0 0 0 -.415-1.9 34.413 34.413 0 0 0 -3.487-7.198z"/></g><path d="m62.285 82.164a7.3 7.3 0 1 0 8.635 5.656 7.333 7.333 0 0 0 -8.635-5.656z" fill="#79809f"/></g></svg>