<svg id="Layer_1" enable-background="new 0 0 1417.3 1417.3" height="512" viewBox="0 0 1417.3 1417.3" width="512" xmlns="http://www.w3.org/2000/svg"><g><g><path d="m251.4 1377.8c-26 0-35.5-25.9-27.6-46.9 3.7-9.8 7.5-19.6 11.2-29.4 15.5-40.7 30.8-81.4 45.9-122.3 38.6-104.1 77.4-208.6 109.7-314.9 21.2-69.7 36.9-140.5 61.9-209.1-27.1-3.6-54.1-7.8-80.9-12.8-10.4-1.9-11.6 2.3-19.1 9.5-19.6 18.6-39.2 37.2-58.8 55.9-4.2 4-11 8.5-12.8 13.9-1.7 5-1.4 11-3 16.2-1.9 6-4.5 11.8-7.8 17.2-6.2 10.2-14.6 18.8-24.9 24.9-39.3 23.4-106.7 4.5-104.7-48.7 1-25.6 10.1-51.3 29.8-68.3 4.8-4.1 10.1-7.7 15.9-10.3 4.1-1.9 11.3-2.2 14.6-4.7 4.3-3.2 8.4-17.3 10.9-22.3 3.8-7.6 7.6-15.2 11.4-22.8-53.3-20.4-117.4-53-133.1-113.1-14.3-54.8 15.9-114.7 53.3-153.1 46.9-48.2 111.1-77.9 174.1-99 27.7-9.3 56-16.9 84.7-23 4.4-.9 8.9-.9 11.6-4 4.9-5.8 7.2-16.4 10.7-23.3 7.1-13.7 15.2-26.8 24.5-39.1 36.8-48.7 89.8-81 148.5-96.5 64.9-17.1 137.2-18.2 199.8 8.2 58.8 24.8 103.4 72.9 131.2 129.6 3.8 7.7 7.3 15.6 10.5 23.5 1.1 2.7 2.2 9.3 4.3 11.3 2.5 2.3 10.8 3.1 14.2 4.1 18.1 5.4 36.1 11.2 53.9 17.4 33.4 11.7 66.2 24.9 98.2 39.8 59.6 27.7 121.8 60.9 167.7 108.8 17.7 18.5 33.1 40.6 33.2 67.1.1 28.5-16.3 52.9-37.2 70.9-12.2 10.5-26 19.3-40.1 27 6.8 9.7 13.7 19.4 20.5 29.1 4.3 6.1 4 6.4 11.2 8.3 11.1 3 20.7 10.1 27.1 19.6 16.3 24.3 14.3 71.1-4.6 94.5-14.4 17.9-43.9 20.2-64.8 14.6-24.4-6.5-40-28.7-41.1-53.5-.3-6.5.2-5.6-3.2-9.7-3.5-4.1-8.7-7.5-12.8-11-11.3-9.8-22.7-19.6-34-29.4-4.5-3.9-9.1-9.2-14.2-12.3-1-.6-2-2.3-3.1-2.6-3.4-1-12.9 3.7-16.5 4.7-33.3 9.9-66.8 18.6-100.5 26.9 50.1 90.5 99.3 181.9 136.7 278.4 28.8 74.3 65.4 145.8 100.6 217.2 29.1 59 58.8 117.7 88.9 176.2 4.3 8.3 8.3 16.2 6.9 26.1-2.9 19.9-19.9 26.8-37.4 27-33 .4-66 .9-99.1 1.3-22.6.3-45.2.6-67.7.9-48.5.7-97 1.3-145.5 2-70.9 1-141.9 1.9-212.8 2.9-75.3 1-150.6 2-225.9 3.1-62.6.8-125.2 1.7-187.8 2.5-32.7.4-65.3.9-98 1.3-1.7.2-3.2.2-4.6.2z" fill="#fff"/><g><g><path d="m440.3 239.3s-314.3 46-321.9 222.3 646.4 201.9 792.1 166.1c145.6-35.8 383.3-86.9 367.9-173.7s-442.1-316.9-838.1-214.7z" fill="#d9e0f2"/><ellipse cx="1038.5" cy="450.1" fill="#ebebec" rx="78.3" ry="39.8" transform="matrix(.931 -.366 .366 .931 -92.679 411.504)"/><path d="m420.3 354s-20.1-253 234.9-281.1 281.1 244.9 277.1 251c-4.1 6-216.9 186.7-512 30.1z" fill="#88caf0"/><ellipse cx="773.2" cy="183.2" fill="#e4f5fd" rx="47.3" ry="70.6" transform="matrix(.907 -.422 .422 .907 -5.161 343.153)"/><g><path d="m480.7 323.1-11.2 54.3c30 12.6 59.1 21.9 87 28.3v-69.3c-24.2-3.1-49.5-7.4-75.8-13.3z" fill="#f8ecf0"/><path d="m421.8 307.7c-2.9 27.6-1.5 46.2-1.5 46.2 16.7 8.8 33.1 16.6 49.2 23.4l11.2-54.3c-19.1-4.2-38.8-9.3-58.9-15.3z" fill="#a7a5d2"/><path d="m827.6 317.8 22.7 57.7c22.5-10.5 40.8-21.4 54.4-30.4l-20-47.7c-14.1 6.1-33.2 13.4-57.1 20.4z" fill="#f8ecf0"/><path d="m926.6 278.6-14.4 5.1c-1.3.8-10.7 6.4-27.5 13.7l20 47.7c17.2-11.5 26.8-20 27.6-21.3.9-1.4.1-19.4-5.7-45.2z" fill="#a7a5d2"/><path d="m750.2 334.8 22.9 68.5c29.3-7.6 55.2-17.5 77.1-27.8l-22.7-57.7c-21.8 6.4-47.7 12.5-77.3 17z" fill="#a7a5d2"/><path d="m668 342-3.5 75.6c40-.3 76.4-6 108.6-14.4l-22.9-68.5c-24.8 3.9-52.3 6.5-82.2 7.3z" fill="#f8ecf0"/><path d="m556.5 336.4v69.3c38.3 8.8 74.4 12.3 108.1 12l3.4-75.7c-34.1.9-71.4-.6-111.5-5.6z" fill="#a7a5d2"/></g><path d="m267.8 585c-14.1 26.7-33.1 64.4-47.1 94.1 13 3.4 24.2 14.4 27.8 28.3l105.6-100.4c-30.7-6.3-59.8-13.7-86.3-22z" fill="#88caf0"/><g fill="#94a3d3"><path d="m195.3 483.8c.2 7.9 3.9 16.1 10.9 19.6 7.1 3.5 15.5 1.5 23-1 10.9-3.6 22.8-9.6 25.6-20.8 2.7-10.7-4.8-21.8-14.6-27-27-14.3-45.7-1.4-44.9 29.2z"/><path d="m448.2 554.1c8.9 10.9 28.4 8.7 36.5-2.9 11.8-16.9-2.6-53.4-26.7-47.3-18.2 4.7-19.9 37.8-9.8 50.2z"/><path d="m678.3 552.3c-1.1 8.7 2.9 18.5 11.1 21.6 5 1.9 10.5 1.1 15.8 1.8 4.1.5 8.1 1.8 12.1 1.1 6.6-1.3 10.8-8.2 11.2-14.9s-2.2-13.1-5.1-19.2c-3.5-7.4-7.7-15-14.8-19.1-17.7-10.2-28.6 14.6-30.3 28.7z"/><path d="m921.3 540.2c.3 3 1.2 6.3 3.6 8.1 1.9 1.5 4.5 1.7 6.9 2 9.1.8 19.2 1.4 26.5-4.1 7.5-5.7 9.6-16.2 8.6-25.6-1.6-15.4-15.5-34.3-32.2-23.1-9.3 6.3-14.6 32.7-13.4 42.7z"/><path d="m1134.2 463.9c-.8 5.2-1.2 10.9 1.5 15.4 5 8.3 18 7.7 25.6 1.8 7.8-6.1 12-16.5 10.6-26.3-5-35-34.2-14.2-37.7 9.1z"/></g><path d="m180.2 699.7c-5.2 8.9-7.1 19.4-8.1 29.7-.3 3.6-.6 7.3.5 10.7 1.2 3.6 3.7 6.5 6.5 9 16.7 14.9 45.7 12.7 59.9-4.5 36-43.5-28.2-97.2-58.8-44.9z" fill="#d9e0f2"/><path d="m1213.1 662.9c-1.8 10.5.8 22.5 9.4 28.7 8.3 6.1 19.7 5.3 29.9 4.1 2.8-.3 5.7-.7 8.1-2.2 3-2 4.6-5.6 5.7-9.1 5.8-17.9 10.2-56.1-13.2-57.9-18.6-1.3-37 20-39.9 36.4z" fill="#d9e0f2"/><g><path d="m648.2 640.1c-21.6-.8-43.7-2-66-3.5-14 82.7-38.6 208.5-69.3 298.2-36.1 105.3-89.2 310.7-114.2 409.7l139.1-1.9c11.5-86.4 52.4-239 57-336.8 4-80.2 34.1-257.8 53.4-365.7z" fill="#f5ab6e"/><path d="m698.7 1022.8c-8.5-97 .1-270.5 8.9-381.2-19.2-.2-39.1-.7-59.4-1.4-19.3 107.9-49.5 285.5-53.3 365.6-4.7 97.8-45.6 250.4-57 336.8l160.2-2.2c4-73.2 9.6-214.7.6-317.6z" fill="#ffca44"/><path d="m582.3 636.6c-28.6-2-57.5-4.5-86.3-7.7-16.2 40.9-40.8 109.3-60 189.4-31.2 130.6-184.5 528.1-184.5 528.1l147.4-2c25-99 78.1-304.3 114.2-409.7 30.6-89.5 55.2-215.3 69.2-298.1z" fill="#f279a5"/><path d="m1100.3 917.8c-28.7-79.5-114.2-234.5-150.8-299.5-13.6 3.3-26.7 6.5-39.1 9.5-9.5 2.3-21.2 4.4-34.8 6.2 5.6 25.8 15.4 55.2 33 85.1 41.4 70.2 201.1 485.5 251.7 615.1l138.7-1.9s-161.8-312.3-198.7-414.5z" fill="#a079b5"/><path d="m875.6 633.9c-17.9 2.4-39.1 4.2-62.7 5.5 10.8 73.4 28.5 172.6 53.2 244.2 33.9 98.4 97.2 344.7 124.6 452.8l169.6-2.3c-50.6-129.6-210.3-544.9-251.7-615.1-17.6-29.9-27.4-59.3-33-85.1z" fill="#94a3d3"/><path d="m756.8 641.4c-15.8.3-32.2.3-49.2.1-8.8 110.8-17.4 284.2-8.9 381.2 9 102.9 3.4 244.4-.5 317.6l141-1.9c-18-102.5-52.6-309.8-63.9-446.3-8.2-96.9-14.3-186.2-18.5-250.7z" fill="#93ce99"/><path d="m812.9 639.5c-17.5 1-36.3 1.6-56.2 1.9 4.2 64.4 10.4 153.8 18.5 250.8 11.4 136.5 46 343.8 63.9 446.3l151.5-2.1c-27.3-108.1-90.7-354.4-124.6-452.8-24.6-71.5-42.3-170.7-53.1-244.1z" fill="#93cce7"/></g><path d="m1242.9 627.9-56.7-80.5c-19.9 8.7-42.1 16.8-65.4 24.4l95.2 82.1c5.1-11.1 15.4-22.2 26.9-26z" fill="#88caf0"/></g><g fill="#3e4f5e"><path d="m241.7 452c-13.7-7.3-26.3-8.2-35.4-2.5-9.4 5.8-14.4 18.1-13.9 34.4l3-.1-3 .1c.3 9.8 5.2 18.6 12.6 22.2 3.2 1.6 6.6 2.2 10 2.2 5.2 0 10.4-1.4 15.2-3 16-5.3 25-12.8 27.6-22.9 2.3-9.6-2.4-23.1-16.1-30.4zm10.2 29c-2 7.9-9.7 14-23.6 18.6-6.8 2.3-14.6 4.2-20.7 1.1-5.4-2.7-9-9.4-9.3-17-.4-14.1 3.5-24.5 11.1-29.1 3-1.9 6.5-2.8 10.5-2.8 5.6 0 12.1 1.9 19 5.5 8.1 4.3 15.4 14.1 13 23.7z"/><path d="m457.3 501c-7.3 1.9-13 7.9-16 17-4.3 12.9-2.2 29.6 4.6 38 4.3 5.3 11 8.2 18.5 8.2h1.1c8.8-.3 17.1-4.6 21.7-11.3 7.3-10.4 6.1-27.8-2.6-40.4-7-9.9-16.9-14.1-27.3-11.5zm24.9 48.5c-3.6 5.1-10.1 8.4-17 8.7-6 .2-11.4-2-14.7-6-5.6-6.9-7.2-21.4-3.6-32.4 1.6-5 5-11.3 11.8-13 10.7-2.7 17.6 4.5 20.8 9.1 7.4 10.6 8.5 25.3 2.7 33.6z"/><path d="m688.3 576.7c3.7 1.4 7.5 1.5 11.2 1.6 1.8.1 3.6.1 5.3.3 1.1.1 2.2.3 3.3.5 2.1.4 4.3.8 6.6.8 1.1 0 2.1-.1 3.2-.3 8.4-1.7 13.2-10.1 13.6-17.6s-2.5-14.6-5.4-20.6c-3.7-8-8.3-16-16-20.4-5.7-3.3-11.6-3.7-16.8-1.1-10.9 5.4-16.7 22.1-17.9 31.9-1.6 12.5 5.2 22 12.9 24.9zm-7-24.1c1.1-8.9 6.4-23.2 14.7-27.3 3.5-1.7 7.1-1.4 11.2.9 6.3 3.6 10.2 10.7 13.6 17.8 2.5 5.3 5.2 11.6 4.8 17.7-.3 5.1-3.5 11-8.8 12.1-2.3.5-4.8 0-7.5-.5-1.2-.2-2.4-.4-3.7-.6-2-.2-3.9-.3-5.8-.3-3.3-.1-6.5-.2-9.2-1.2-7.3-2.8-10.2-11.7-9.3-18.6z"/><path d="m923.1 550.7c2.7 2 6 2.3 8.4 2.6 3.2.3 6.5.5 9.7.5 6.9 0 13.5-1.1 19-5.3 7.4-5.6 11-16.2 9.8-28.3-1-10.1-7.2-22.7-17.2-27.4-4.4-2.1-11.5-3.4-19.7 2.1-10.5 7.1-16.1 34.5-14.8 45.5.4 3.2 1.2 7.6 4.8 10.3zm13.3-50.8c4.7-3.2 9.3-3.7 13.8-1.6 6.9 3.2 12.8 12.9 13.8 22.6 1 10-1.8 18.6-7.5 22.9-6.3 4.8-15.1 4.4-24.5 3.5-2.3-.2-4.2-.4-5.4-1.4-1.3-1-2.1-3-2.4-6.1-1-9.2 4.2-34.5 12.2-39.9z"/><path d="m1144.2 488.2c1.3.2 2.6.4 4 .4 5.3 0 10.8-1.8 15-5.1 8.7-6.8 13.3-18.2 11.7-29.1-2.6-18.4-11.5-21.2-16.6-21.2-11.6 0-24.7 14.7-27 30.3-.9 5.9-1.3 12.1 1.9 17.4 2.3 3.8 6.1 6.3 11 7.3zm-7-23.9c1.7-11.3 11.7-25.2 21.1-25.2 7.3 0 9.8 10.1 10.7 16.1 1.2 8.7-2.6 18.1-9.5 23.5-3.9 3-9.5 4.5-14.2 3.6-2.2-.4-5.2-1.5-7-4.5-2.2-3.7-1.8-8.7-1.1-13.5z"/><path d="m1301.7 1330.9c-1.6-3.1-162.2-313.3-198.6-414.1-28.4-78.5-112.2-230.9-149-296.5 53.5-13 112.8-27.7 166.1-45l92.2 79.6c-1.1 2.6-1.9 5.2-2.3 7.6-2.3 12.9 1.9 25.4 10.6 31.7 5.8 4.2 12.8 5.5 19.9 5.5 4 0 8-.4 12-.8 2.8-.3 6.4-.7 9.4-2.7 3.8-2.5 5.6-6.8 6.9-10.6 4.6-14 8.2-39.8-.8-53.1-3.5-5.3-8.6-8.2-15.1-8.7-3-.2-6.1.1-9 .9l-53.3-75.8c58.4-26 97.3-57.1 90.5-95.2-4.7-26.5-45.4-64.9-109-102.9-70-41.7-159.1-78.3-251-102.9-6.6-20.7-16.5-45-31-68.9-22.4-36.9-51.1-65-85.3-83.7-42.2-23-92.6-31.5-150.1-25.1-58.7 6.5-107.8 25.5-145.8 56.4-30.5 24.8-53.9 57.3-69.7 96.5-1.9 4.8-3.7 9.7-5.4 14.5-23.7 4-97.5 18.4-168.9 51.3-42.5 19.6-76.6 42.4-101.3 67.7-30.4 31.3-46.7 66.6-48.4 105.2-1.1 25.9 11.5 49.9 37.5 71.2 24.8 20.4 61.9 38.5 110.5 54-14.3 27.1-31.8 62.1-44.5 88.9-1.5-.3-2.9-.5-4.4-.6-14.6-.9-27.8 7.3-36.9 23-5.9 10.1-7.6 21.8-8.5 30.9-.4 3.9-.6 7.9.7 11.9 1.2 3.6 3.6 7 7.3 10.4 7.7 6.9 18.3 10.7 29.4 10.7 1.2 0 2.5 0 3.7-.1 12.5-.9 23.8-6.6 31.2-15.4 9.6-11.6 13.2-25.1 10.4-38.1l103.3-98.3c41.4 8.5 87.6 15.7 136.7 21.2-16.9 43-40.3 109.2-58.7 186.2-30.8 128.9-182.9 523.7-184.4 527.7-.4.9-.2 2 .3 2.8.6.8 1.5 1.3 2.5 1.3l908.8-12.3 138.8-1.9c1 0 2-.6 2.5-1.5.6-.9.7-2 .2-2.9zm-50.5-701.4c.5 0 1 0 1.5.1 4.6.3 8.1 2.3 10.6 6.1 7.7 11.5 4.1 35.4 0 47.9-.9 2.9-2.2 6-4.5 7.5-1.8 1.2-4.4 1.5-6.8 1.8-10 1.1-20.5 1.8-27.8-3.5-5.2-3.8-10.5-12.8-8.2-25.8.5-2.6 1.4-5.4 2.6-8.1 0-.1.1-.1.1-.2 2.3-4.9 5.5-9.6 9.2-13.5.4-.5.9-.9 1.4-1.4.2-.1.3-.3.5-.4.3-.3.6-.6.9-.9 1-.9 2.1-1.9 3.2-2.7 5.4-4.3 11.5-6.9 17.3-6.9zm-12.9-3c-9.1 4.2-17.7 12.6-23.2 22.6l-88.2-76.1c20.7-6.9 40.3-14.1 58.3-21.9zm-793.4-401.4c15.4-38.3 38.2-69.9 67.9-94.1 37.1-30.2 85.1-48.8 142.7-55.1 85.6-9.4 154 14.2 203.4 70.2 29.3 33.2 46.8 71.9 57 104.6 0 .2.1.5.2.7 2.8 9 5 17.5 6.8 25.3l-11.9 4.2c-.2.1-.5.2-.7.3-1.2.8-10.6 6.3-27.1 13.4-17.3 7.5-36.4 14.4-56.7 20.3-24.5 7.2-50.4 12.8-77 16.9-26.5 4-54.1 6.5-81.8 7.2-36.3 1-73.6-.9-111.1-5.6-24.9-3.1-50.2-7.6-75.5-13.2-18.8-4.2-37.8-9.1-56.3-14.6 2.8-22.8 8.4-51.4 20.1-80.5zm309.3 112.1c24.6-3.9 48.7-9.2 71.6-15.7l20.6 52.5c-18.1 8.3-39.4 16.6-63.4 23.5-2.6.7-5.2 1.5-7.8 2.2zm15.1 64c-33.3 8.4-67.3 12.9-101.6 13.4l3.2-69.7c26.2-.8 52.2-3.1 77.3-6.8zm62.3-81.4c18.3-5.5 35.6-11.6 51.5-18.4l17.9 42.7c-3.6 2.4-7.5 4.9-11.8 7.4-9.8 5.9-22.3 12.9-37.3 20zm56.9-20.8c14.2-6.3 22.8-11.2 25-12.5l10.9-3.8c4.5 21.6 5.5 36.8 5.2 39.8-1.9 2-10.1 9-23.6 18.2zm-223.6 46.1-3.2 69.6c-12.7 0-25.5-.5-38.3-1.6-21.2-1.8-42.6-5.1-63.9-9.9v-63.5c30.2 3.7 60.4 5.5 89.9 5.5 5.2.1 10.3 0 15.5-.1zm-181.9-18.4c23.5 5.2 47.2 9.3 70.4 12.3v62.9c-26.9-6.4-53.8-15.2-80.5-26.3zm-15.7 46.5c-14.7-6.3-29.5-13.3-44.1-21.1-.2-4.8-.7-19.8 1.2-40.5 17.4 5.1 35.1 9.7 52.8 13.7zm-230.5 369.5c-6.3 7.6-16.1 12.4-27 13.2s-21.3-2.5-28.7-9c-2.9-2.6-4.8-5.2-5.6-7.7-.9-2.9-.7-6.3-.4-9.5.8-8.5 2.4-19.4 7.7-28.5 8-13.7 19.1-20.8 31.4-20.1 2.1.1 4.1.5 6.2 1.1.4.1.8.2 1.3.4.3.1.7.2 1 .4.4.1.8.3 1.2.4.3.1.7.3 1 .4.4.2.8.4 1.2.6.3.1.6.3.8.4.5.2.9.5 1.4.8l.6.3c.5.3 1.1.7 1.6 1 .1.1.2.1.2.2 6.5 4.5 11.6 11.2 14.2 18.8v.1c.3.7.5 1.5.7 2.3 3 11.5-.1 23.8-8.8 34.4zm13-40.7c-.1-.2-.2-.5-.3-.7s-.2-.5-.3-.7c-.1-.1-.1-.3-.2-.4-.3-.7-.6-1.3-.9-2-.1-.1-.1-.2-.2-.3-.4-.8-.9-1.7-1.4-2.5 0 0 0 0 0-.1-5-8.3-12.7-14.8-21.7-18 12.8-27 30.2-61.8 44.4-88.7 13.8 4.3 28.4 8.3 44 12.2 8.4 2.1 17 4.1 25.9 6.1 1.5.3 3 .7 4.5 1 .1 0 .2 0 .3.1 1.3.3 2.7.6 4 .9zm96-99.8c-.5-.1-.9-.2-1.4-.3-1.2-.3-2.3-.5-3.5-.8-1.1-.3-2.3-.5-3.4-.8-.3-.1-.6-.1-.9-.2-24.6-5.5-47.4-11.6-68-18.1h-.1c-49.5-15.5-87-33.6-111.9-54-24.5-20.1-36.4-42.4-35.4-66.3 1.6-37 17.3-71.1 46.7-101.2 24.1-24.8 57.6-47.1 99.5-66.4 67.9-31.2 138-45.7 164.3-50.3-7.2 23-11 44.9-13 63.1-.1.4-.1.7-.1 1.1-2.9 27.4-1.5 45.9-1.5 46.3.1 1 .7 1.9 1.6 2.4 16.4 8.7 32.8 16.5 49.3 23.4.1 0 .2.1.3.1 29 12.2 58.1 21.6 87.2 28.3.1 0 .3.1.4.1 22.7 5.2 45.3 8.7 67.9 10.6 12.3 1 24.6 1.5 36.8 1.5h3.5.1.1.2c36.8-.3 73.3-5.1 109-14.4.1 0 .3-.1.4-.1 4.1-1.1 8.1-2.2 12.1-3.3 53.8-15.6 94.8-38.3 120-55.1 0 0 .1 0 .1-.1 17.6-11.7 27.4-20.6 28.4-22 2.3-3.4-.5-27.3-5.8-50.2-1.4-6.2-3.3-13.3-5.5-20.9 90.1 24.5 177.3 60.4 245.9 101.3 62.1 37 101.8 73.9 106.1 98.7 3.2 18.1-5 35.3-25.2 52.4-15 12.7-36.9 25.4-65.2 37.7 0 0 0 0-.1 0-13.5 5.9-28.8 11.8-45.6 17.7-.8.3-1.6.6-2.4.9s-1.7.6-2.5.9c-61.8 21.2-134.2 38.8-194.3 53.3-10.5 2.5-20.6 5-30.4 7.4-9.5 2.3-21 4.4-34.1 6.1-.2 0-.4 0-.6.1h-.1c-77.5 10.2-211.9 10.3-336.5-.9-70.3-6.3-136.2-15.9-192.4-28zm-90 741.2c16.4-42.7 153.9-402.2 183.1-524.3 18.6-77.6 42.2-144.1 59.1-186.9 13.1 1.4 26.4 2.8 39.9 4s27.2 2.3 40.9 3.2c-12.1 71.3-36.7 201.3-68.6 294.5-35.2 102.9-86.1 298.6-113.7 407.7zm146.9-2c27.6-109.3 78.1-303.5 113.1-405.6 32.2-93.8 56.8-224.6 68.9-296 20 1.3 40.1 2.4 59.9 3.1-18.3 102.4-48.9 282.2-52.7 362.7-2.8 59.5-19.4 140.9-34.1 212.6-9.2 45.2-18 88-22.5 121.3zm292.6-4-154 2.1c4.6-33 13.2-75.3 22.4-120.1 14.7-72 31.4-153.6 34.2-213.6 3.8-80.3 34.5-260.7 52.8-362.8 18.2.7 36.1 1.1 53.6 1.3-9.2 116.6-16.9 284.4-8.7 378.6 8.9 101.2 3.7 239.3-.3 314.5zm6 0c4-75.5 9.2-213.6.3-314.8-8.2-94-.5-261.7 8.7-378 5.7 0 11.4.1 17.1.1 9 0 17.8-.1 26.5-.2 5.8 88.2 11.9 171.6 18.3 248.1 11.1 133.6 44.2 333.5 63.4 443.1zm140.4-1.9c-19.1-109.3-52.3-309.8-63.5-443.5-6.4-76.3-12.5-159.6-18.3-247.7 17.6-.3 34.5-.9 50.4-1.7 10.6 71.5 28.3 170.6 52.9 242.1 33.7 97.8 96.9 343.6 123.6 448.8zm151.3-2.1c-26.5-104.5-90.2-352.3-124-450.7-24.4-70.9-42-169.2-52.5-240.5 21.1-1.2 40.2-2.9 56.9-5 6.8 29.9 17.7 57.9 32.7 83.3 37 62.6 168.9 402.3 232.3 565.5 6.7 17.2 12.6 32.4 17.5 45.1zm169.3-2.3c-5.1-13.2-11.3-29.1-18.4-47.2-63.5-163.4-195.6-503.3-232.8-566.4-14.6-24.7-25.3-51.9-31.9-81 12.2-1.7 22.9-3.6 31.9-5.8 9.8-2.4 19.9-4.9 30.4-7.4 2.2-.5 4.3-1 6.5-1.6 36.4 64.6 121 218.4 149.5 297.1 34.2 94.7 177 372.5 196.7 410.6z"/></g></g></g><ellipse cx="479.2" cy="801.3" fill="#f7b3cc" rx="103.8" ry="22.1" transform="matrix(.297 -.955 .955 .297 -428.303 1020.685)"/><ellipse cx="742.8" cy="1158.6" fill="#c4e3c6" rx="17.3" ry="106.7" transform="matrix(.999 -.038 .038 .999 -43.29 28.925)"/></g><ellipse cx="1019.4" cy="838.7" fill="#b69ac9" rx="21.9" ry="106.7" transform="matrix(.945 -.327 .327 .945 -218.128 379.264)"/></svg>