<?xml version="1.0" encoding="UTF-8"?>
<!-- Generator: Adobe Illustrator 26.0.3, SVG Export Plug-In . SVG Version: 6.00 Build 0)  -->
<svg xmlns="http://www.w3.org/2000/svg" xmlns:xlink="http://www.w3.org/1999/xlink" version="1.1" id="Capa_1" x="0px" y="0px" viewBox="0 0 512 512" style="enable-background:new 0 0 512 512;" xml:space="preserve" width="512" height="512">
<g>
	<g>
		<path style="fill:#510DA3;" d="M437.549,256.004c0,120.826-97.947,218.771-218.776,218.771C97.947,474.775,0,376.83,0,256.004    C0,135.175,97.947,37.225,218.774,37.225C339.603,37.225,437.549,135.175,437.549,256.004z"/>
		<path style="fill:#823CD4;" d="M396.122,187.031c-9.607,19.227-42.283,35.245-60.207,44.846    c-44.845,23.068-90.977,48.051-133.898,74.306c-44.843,28.189-94.168,54.458-128.766,94.821c-2.933,3.293-5.923,6.605-8.904,9.97    c-5.449-5.435-10.611-11.157-15.468-17.143c24.357-27.161,53.099-50.481,81.392-72.904    c58.301-44.843,120.435-84.571,177.453-131.323c29.114-23.187,56.034-46.361,75.621-77.731c8.241,9.397,15.685,19.5,22.22,30.217    c-9.815,5.232-19.328,11.157-28.65,18.035c-5.135,3.846-42.923,28.191-35.881,38.444    C346.168,206.896,383.952,182.549,396.122,187.031z"/>
		<path style="fill:#823CD4;" d="M437.542,256.004c0,17.883-2.137,35.257-6.184,51.883    c-48.489,53.478-106.952,98.911-172.958,122.577c-23.549,8.662-40.985,23.088-49.296,44.094    c-40.883-1.782-78.863-14.771-110.927-35.997c10.567-2.152,21.746-2.287,32.743-2.964c30.101-2.575,57.653-3.844,85.844-16.019    c58.287-24.995,92.882-83.282,133.881-128.13c22.362-24.195,51.639-51.489,84.138-70.341    C436.604,232.469,437.542,244.121,437.542,256.004z"/>
		<path style="fill:#823CD4;" d="M307.089,55.792c-5.377,19.171-11.638,38.05-25.633,52.451    c-17.938,19.862-45.479,32.673-69.824,42.921c-22.423,8.96-47.406,16.652-60.862,39.075    c-15.366,25.619-12.811,58.287-21.772,86.478c-8.979,27.555-26.902,44.846-51.9,58.94c-17.634,9.542-38.828,13.749-58.287,9.211    C6.723,317.716,0.002,287.649,0.002,256.004c0-11.655,0.909-23.102,2.659-34.264c11.769-1.704,23.914-1.994,34.726-3.31    c25.631-3.208,48.692-9.615,69.826-24.347c54.24-36.169,69.362-101.252,96.032-156.302c5.132-0.363,10.309-0.551,15.528-0.551    C250.202,37.23,280.085,43.852,307.089,55.792z"/>
		<path style="fill:#823CD4;" d="M174.624,41.683c-3.892,17.09-10.611,33.684-18.086,48.617    c-12.17,23.711-31.384,58.94-57.654,69.19c-42.283,16.655,20.498-74.956,17.293-83.92c-16.004,5.135-48.68,61.498-68.54,45.484    c-0.215-0.177-0.423-0.365-0.624-0.554C78.372,80.79,123.215,52.224,174.624,41.683z"/>
		<g>
			<polygon style="fill:#FFFFFF;" points="140.66,431.203 168.994,419.217 143.455,410.062 154.824,440.721 156.947,406.206    "/>
			<polygon style="fill:#FFFFFF;" points="79.924,134.747 103.101,154.984 100.164,128.011 77.567,151.645 109.532,138.46    "/>
			<polygon style="fill:#FFFFFF;" points="160.317,447.882 177.67,451.52 168.588,438.792 163.895,457.04 176.246,441.403    "/>
			<polygon style="fill:#FFFFFF;" points="346.906,374.621 349.447,357.074 337.315,366.935 355.822,370.474 339.438,359.134    "/>
			<polygon style="fill:#FFFFFF;" points="269.571,426.88 272.112,409.329 259.976,419.19 278.489,422.734 262.098,411.389    "/>
			<polygon style="fill:#FFFFFF;" points="243.703,80.456 254.357,96.39 256.971,79.69 239.54,90.242 260.909,87.493    "/>
			<polygon style="fill:#FFFFFF;" points="190.312,72.348 220.422,78.657 204.667,56.573 196.52,88.243 217.949,61.099    "/>
			<polygon style="fill:#FFFFFF;" points="300.363,433.159 292.975,418.581 291.873,433.096 302.701,424.804 289.078,426.03    "/>
			<polygon style="fill:#FFFFFF;" points="240.258,95.401 223.928,95.873 236.586,103.057 233.697,89.725 228.997,102.572    "/>
			<polygon style="fill:#FFFFFF;" points="132.646,219.324 155.995,216.213 136.778,207.805 142.901,226.483 147.722,207.365    "/>
			<polygon style="fill:#FFFFFF;" points="382.698,359.646 378.124,336.539 370.939,356.247 389.198,348.961 369.815,345.351    "/>
			<polygon style="fill:#FFFFFF;" points="282.979,454.175 278.402,431.068 271.217,450.776 289.477,443.492 270.091,439.877    "/>
			<polygon style="fill:#FFFFFF;" points="166.888,215.735 171.162,199.963 160.624,210.002 174.218,211.095 163.281,202.878    "/>
			<polygon style="fill:#FFFFFF;" points="345.833,346.06 329.824,342.786 340.499,352.674 340.741,339.037 333.227,350.469    "/>
			<polygon style="fill:#FFFFFF;" points="55.142,146.946 59.416,131.176 48.88,141.211 62.474,142.306 51.537,134.092    "/>
			<polygon style="fill:#FFFFFF;" points="109.082,127.891 113.356,112.116 102.821,122.154 116.415,123.249 105.477,115.034    "/>
			<polygon style="fill:#FFFFFF;" points="329.64,363.524 313.628,360.251 324.309,370.134 324.546,356.499 317.034,367.929    "/>
		</g>
	</g>
	<g>
		<path style="fill:#FF7700;" d="M504.598,85.489c-1.042,2.282-2.398,4.306-4.25,5.694c-6.996,5.06-15.177,0-22.899,1.69    c-5.292,1.448-10.35,9.878-5.534,14.457c1.513,1.364,3.858,1.666,6.126,1.709c-0.476,2.514-1.477,4.927-3.237,7.199    c-5.539,7.229-15.18,7.473-23.375,8.445c-5.292,0.718-11.798,1.199-14.457,6.501c-3.126,6.74-1.448,15.182-4.339,22.162    c-3.612,8.43-9.873,17.351-18.301,20.965c-10.843,4.584-25.068,3.368-35.664-0.725c-18.071-7.473-23.375-21.439-18.318-39.276    c3.614-13.014,12.056-24.809,25.3-29.146c17.346-5.78,49.874,5.536,53.488-20.008c0.969-7.705,0-19.27,10.366-20.472    c1.303-0.201,3.658-0.026,5.969,0.52c-1.185,0.974-2.18,1.91-2.831,2.604c-5.06,5.78-10.12,13.011-10.611,20.962    c-0.725,7.952,5.783,16.393,14.225,14.701c6.259-1.199,11.566-7.472,13.732-13.258c2.891-6.982,0.725-14.931,4.569-21.683    c5.783-9.629,18.315-13.966,29.158-15.412c2.067-0.184,5.118-0.665,8.285-0.854c-7.086,2.13-13.487,6.305-18.881,11.696    c-5.304,5.292-13.734,13.968-5.304,20.469C492.698,88.497,498.902,87.841,504.598,85.489z"/>
		<path style="fill:#510DA3;" d="M420.75,155.335c-9.201,12.883-25.834,16.788-37.153,8.706    c-11.317-8.079-13.033-25.077-3.834-37.963c9.201-12.888,25.834-16.79,37.153-8.711    C428.232,125.447,429.949,142.447,420.75,155.335z"/>
		<path style="fill:#823CD4;" d="M377.302,139.773c3.329,3.063,8.565,1.187,11.014-2.033c2.811-3.689,2.799-9.581,1.438-13.804    c-0.317-0.989-2.408-0.411-2.094,0.561c0.945,2.933,0.989,5.993,0.384,8.998c-0.776,3.851-5.2,8.664-9.136,5.045    C378.201,137.885,376.395,138.941,377.302,139.773L377.302,139.773z"/>
		<path style="fill:#823CD4;" d="M402.853,126.982c-1.371,2.717-3.438,4.443-4.613,3.849c-1.175-0.592-1.013-3.276,0.36-5.996    c1.373-2.722,3.44-4.446,4.615-3.853C404.39,121.576,404.228,124.262,402.853,126.982z"/>
		<path style="fill:#823CD4;" d="M395.769,160.24c-1.373,2.72-5.282,3.51-8.732,1.767c-3.45-1.741-5.135-5.357-3.762-8.075    c1.375-2.725,5.287-3.515,8.732-1.774C395.46,153.901,397.145,157.517,395.769,160.24z"/>
		<path style="fill:#823CD4;" d="M389.525,147.248c0,0.853-1.047,1.547-2.338,1.547c-1.289,0-2.335-0.694-2.335-1.547    c0-0.853,1.047-1.547,2.335-1.547C388.478,145.701,389.525,146.395,389.525,147.248z"/>
		<path style="fill:#823CD4;" d="M416.802,121.187c-8.142-1.833-10.117,10.207-8.923,15.847c1.782,8.415,9.457,11.147,16.435,6.837    c1.209-0.747-0.587-1.218-1.337-0.752c-6.455,3.989-11.29-0.408-13.002-6.646c-0.88-3.201-0.215-15.342,5.573-14.041    C416.306,122.601,418.03,121.46,416.802,121.187L416.802,121.187z"/>
		<path style="fill:#823CD4;" d="M403.532,156.766c-1.511-0.653,3.102-3.554,3.689-3.866c1.218-0.643,2.575-0.943,3.912-1.206    c3.102-0.612,9.542-0.909,7.175,3.972c-0.522,1.071,1.598,1.064,2.002,0.234c3.157-6.513-5.466-6.344-9.559-5.638    c-2.565,0.445-4.767,1.436-6.885,2.923c-1.586,1.115-4.482,3.718-1.547,4.988C403.196,158.548,404.755,157.293,403.532,156.766    L403.532,156.766z"/>
	</g>
	<g>
		<path style="fill:#FFA121;" d="M372.839,78.998c-0.65,1.429-1.506,2.698-2.664,3.568c-4.383,3.172-9.508,0-14.346,1.059    c-3.314,0.904-6.481,6.186-3.464,9.059c0.95,0.849,2.415,1.037,3.839,1.064c-0.3,1.576-0.926,3.094-2.031,4.513    c-3.467,4.528-9.508,4.681-14.641,5.287c-3.317,0.455-7.39,0.754-9.058,4.078c-1.953,4.221-0.904,9.508-2.715,13.882    c-2.265,5.28-6.184,10.867-11.467,13.13c-6.788,2.869-15.702,2.113-22.34-0.45c-11.319-4.683-14.643-13.434-11.476-24.608    c2.268-8.152,7.552-15.54,15.852-18.257c10.867-3.622,31.242,3.471,33.505-12.533c0.607-4.828,0-12.073,6.493-12.825    c0.815-0.128,2.292-0.012,3.74,0.327c-0.742,0.607-1.369,1.199-1.772,1.632c-3.172,3.624-6.344,8.15-6.648,13.13    c-0.454,4.982,3.619,10.27,8.909,9.208c3.921-0.75,7.246-4.68,8.602-8.302c1.813-4.376,0.454-9.354,2.865-13.584    c3.624-6.032,11.471-8.749,18.267-9.653c1.291-0.116,3.203-0.418,5.188-0.534c-4.439,1.33-8.452,3.948-11.827,7.325    c-3.324,3.317-8.606,8.747-3.324,12.823C365.386,80.884,369.27,80.473,372.839,78.998z"/>
		<path style="fill:#823CD4;" d="M320.31,122.751c-5.761,8.072-16.181,10.514-23.269,5.454c-7.088-5.062-8.167-15.709-2.403-23.781    c5.763-8.075,16.186-10.516,23.274-5.456C324.998,104.032,326.076,114.679,320.31,122.751z"/>
		<path style="fill:#510DA3;" d="M293.098,113.006c2.081,1.915,5.365,0.74,6.9-1.276c1.76-2.311,1.753-6.001,0.899-8.645    c-0.198-0.619-1.509-0.261-1.313,0.351c0.592,1.837,0.619,3.754,0.239,5.635c-0.483,2.415-3.259,5.432-5.72,3.16    C293.657,111.819,292.528,112.483,293.098,113.006L293.098,113.006z"/>
		<path style="fill:#510DA3;" d="M309.103,104.989c-0.863,1.704-2.154,2.785-2.889,2.41c-0.735-0.37-0.633-2.05,0.225-3.752    c0.861-1.707,2.152-2.787,2.889-2.418C310.062,101.602,309.963,103.287,309.103,104.989z"/>
		<path style="fill:#510DA3;" d="M304.664,125.824c-0.861,1.704-3.307,2.203-5.466,1.11c-2.161-1.09-3.218-3.358-2.357-5.063    c0.858-1.704,3.307-2.202,5.469-1.107C304.47,121.851,305.527,124.119,304.664,125.824z"/>
		<path style="fill:#510DA3;" d="M300.752,117.686c0,0.534-0.658,0.972-1.463,0.972c-0.808,0-1.463-0.438-1.463-0.972    s0.655-0.967,1.463-0.967C300.095,116.719,300.752,117.152,300.752,117.686z"/>
		<path style="fill:#510DA3;" d="M317.837,101.358c-5.096-1.143-6.334,6.394-5.587,9.931c1.117,5.275,5.925,6.982,10.294,4.281    c0.759-0.469-0.37-0.764-0.836-0.471c-4.042,2.5-7.071-0.254-8.145-4.161c-0.549-2.009-0.133-9.615,3.493-8.797    C317.53,102.248,318.611,101.532,317.837,101.358L317.837,101.358z"/>
		<path style="fill:#510DA3;" d="M309.526,123.65c-0.945-0.409,1.944-2.227,2.311-2.425c0.764-0.399,1.615-0.587,2.454-0.757    c1.941-0.38,5.976-0.566,4.492,2.49c-0.324,0.67,1.003,0.667,1.255,0.15c1.978-4.081-3.423-3.977-5.988-3.529    c-1.608,0.273-2.988,0.894-4.313,1.827c-0.994,0.696-2.807,2.328-0.967,3.124C309.315,124.765,310.292,123.979,309.526,123.65    L309.526,123.65z"/>
	</g>
	<g>
		<path style="fill:#FFA121;" d="M423.861,224.677c-0.512,1.134-1.187,2.135-2.103,2.824c-3.464,2.507-7.521,0-11.343,0.836    c-2.62,0.715-5.123,4.891-2.741,7.161c0.752,0.672,1.912,0.82,3.037,0.844c-0.237,1.245-0.73,2.442-1.603,3.568    c-2.744,3.58-7.523,3.699-11.578,4.178c-2.623,0.36-5.846,0.595-7.161,3.225c-1.547,3.336-0.716,7.519-2.152,10.973    c-1.789,4.175-4.888,8.594-9.061,10.384c-5.37,2.272-12.416,1.668-17.665-0.358c-8.95-3.701-11.577-10.618-9.07-19.452    c1.789-6.448,5.971-12.288,12.528-14.438c8.594-2.862,24.705,2.744,26.494-9.907c0.479-3.82,0-9.544,5.132-10.139    c0.646-0.099,1.813-0.014,2.962,0.256c-0.59,0.481-1.083,0.945-1.407,1.291c-2.505,2.86-5.012,6.443-5.256,10.381    c-0.355,3.938,2.865,8.118,7.047,7.282c3.099-0.592,5.727-3.699,6.801-6.566c1.431-3.459,0.355-7.397,2.263-10.739    c2.862-4.767,9.071-6.917,14.442-7.632c1.023-0.094,2.534-0.331,4.103-0.425c-3.51,1.054-6.68,3.126-9.353,5.795    c-2.628,2.621-6.801,6.916-2.628,10.134C417.97,226.169,421.04,225.847,423.861,224.677z"/>
		<path style="fill:#FF40B4;" d="M382.335,259.272c-4.557,6.382-12.799,8.314-18.4,4.313c-5.606-4.001-6.455-12.424-1.9-18.804    c4.557-6.382,12.793-8.316,18.4-4.313C386.039,244.47,386.892,252.887,382.335,259.272z"/>
		<path style="fill:#510DA3;" d="M360.816,251.563c1.646,1.518,4.243,0.585,5.456-1.008c1.39-1.821,1.385-4.743,0.711-6.832    c-0.157-0.491-1.192-0.208-1.035,0.276c0.464,1.453,0.486,2.971,0.186,4.456c-0.384,1.91-2.575,4.294-4.521,2.5    C361.261,250.63,360.364,251.152,360.816,251.563L360.816,251.563z"/>
		<path style="fill:#510DA3;" d="M373.472,245.229c-0.679,1.344-1.704,2.2-2.287,1.91c-0.58-0.297-0.501-1.625,0.181-2.971    c0.682-1.349,1.699-2.205,2.282-1.91C374.234,242.55,374.152,243.882,373.472,245.229z"/>
		<path style="fill:#510DA3;" d="M369.962,261.702c-0.682,1.347-2.616,1.738-4.325,0.873c-1.707-0.861-2.541-2.654-1.862-4.001    c0.679-1.346,2.616-1.738,4.323-0.875C369.807,258.559,370.641,260.353,369.962,261.702z"/>
		<path style="fill:#510DA3;" d="M366.867,255.264c0,0.423-0.517,0.766-1.156,0.766c-0.641,0-1.158-0.343-1.158-0.766    c0-0.418,0.517-0.764,1.158-0.764C366.35,254.5,366.867,254.846,366.867,255.264z"/>
		<path style="fill:#510DA3;" d="M380.379,242.359c-4.035-0.907-5.009,5.055-4.422,7.85c0.887,4.168,4.685,5.519,8.14,3.385    c0.6-0.37-0.29-0.602-0.66-0.37c-3.198,1.975-5.592-0.205-6.438-3.295c-0.435-1.584-0.109-7.596,2.759-6.958    C380.132,243.058,380.988,242.494,380.379,242.359L380.379,242.359z"/>
		<path style="fill:#510DA3;" d="M373.803,259.98c-0.742-0.322,1.54-1.76,1.83-1.917c0.605-0.314,1.274-0.464,1.939-0.597    c1.535-0.302,4.726-0.45,3.551,1.968c-0.256,0.532,0.793,0.527,0.991,0.118c1.567-3.23-2.705-3.14-4.731-2.792    c-1.274,0.218-2.362,0.711-3.414,1.446c-0.783,0.556-2.219,1.842-0.764,2.471C373.639,260.865,374.41,260.239,373.803,259.98    L373.803,259.98z"/>
	</g>
	<g>
		<g>
			<path style="fill:#FFA121;" d="M294.377,205.03c12.498,26.763,12.604,56.524,2.65,84.179c0,0-16.877,8.266-19.84,13.848     c-4.792,9.026-5.358,29.061-5.358,29.061c-13.868,16.203-31.826,30.098-53.123,40.042c-17.244,8.052-35.13,12.765-52.61,14.387     c0,0-8.076-5.569-13.05-5.61c-5.876-0.048-19.318,5.043-19.318,5.043c-23.645-3.074-45.441-12.01-62.772-26.105     c0,0-5.17-21.088-12.031-35.781c-0.819-1.753-19.233-6.508-19.233-6.508c-3.444-8.586-5.664-17.445-6.725-26.408     c0,0,27.998-18.206,31.385-31.648c2.463-9.773-17.564-37.671-17.564-37.671c9.021-17.099,22.038-32.87,38.35-45.946     c0,0,7.621,4.178,19.6-1.416c1.897-0.886,18.638-21.292,18.638-21.292c4.237-1.791,8.501-3.38,12.779-4.775     c0,0,19.647,3.426,32.454,2.637c8.759-0.539,32.108-9.374,32.108-9.374C241.743,146.459,277.471,168.82,294.377,205.03z"/>
			<path style="fill:#4CD0F9;" d="M123.375,153.205c-3.977,7.429-7.286,15.221-9.992,23.068     c-5.783,17.711-10.478,35.782-15.18,53.491c-3.975,13.374-6.868,28.189-13.732,40.117c-9.037,15.903-29.277,27.108-46.985,22.769     c-1.298-0.363-2.862-0.851-4.521-1.472c-2.79-23.349,2.253-47.418,13.821-69.318c5.345,0.793,10.872,0.619,16.722-1.494     c19.877-7.229,22.408-22.406,21.683-41.56c-0.026-0.957-0.041-1.924-0.056-2.891c9.699-7.777,20.586-14.588,32.528-20.167     C119.557,154.866,121.465,154.012,123.375,153.205z"/>
			<path style="fill:#4CD0F9;" d="M297.027,289.208c-5.466,15.238-14.024,29.825-25.198,42.909l0,0     c-20.414,6.808-43.644,1.688-64.478,8.96c-16.461,5.497-36.14,25.157-41.255,45.469c-11.002,1.025-21.877,0.81-32.369-0.566     c13.471-8.556,25.529-23.965,30.976-33.698c13.736-23.494,34.336-37.226,58.188-49.154     C247.412,291.017,271.266,287.69,297.027,289.208z"/>
			<path style="fill:#4CD0F9;" d="M200.717,141.692c-11.783,10.814-22.64,23.262-34.203,33.135     c-5.422,4.702-14.094,8.674-11.93-1.808c1.448-6.141,6.508-11.923,5.785-18.071c-6.506,1.448-22.408,18.434-26.383,9.037     c-1.53-3.813-0.346-9.699,2.168-15.554C157.868,141.364,179.972,139.265,200.717,141.692z"/>
			<path style="fill:#4CD0F9;" d="M130.731,255.784c-8.198,9.15-76.619,64.089-53.012,75.176c6.752,2.889,23.131-3.37,17.839,7.228     c-3.38,7.705-15.424,14.457-21.685,19.27c-0.965,0.81-1.936,1.617-2.918,2.415c-12.16-9.888-22.104-22.309-28.967-36.993     c-0.827-1.753-1.596-3.515-2.301-5.294c3.858-0.776,7.501-2.021,10.565-3.498c25.549-12.042,37.59-31.312,50.121-55.41     c4.34-8.198,19.27-39.512,32.775-32.284C143.74,231.685,136.04,249.522,130.731,255.784z"/>
		</g>
		<g>
			<path style="fill:#FFFFFF;" d="M164.865,326.536c-22.06,1.68-40.636,13.821-40.636,13.821s-15.903-40.479,2.891-62.527     c12.013-14.094,28.769-8.831,39.276-3.189l-8.893,24.307l11.334-2.582L164.865,326.536z"/>
			<path style="fill:#510DA3;" d="M123.532,342.537l-0.648-1.651c-0.665-1.687-16.002-41.545,3.136-63.992     c19.495-22.865,50.863,2.819,51.175,3.082l-1.847,2.222c-1.199-0.994-29.489-24.122-47.128-3.428     c-15.912,18.666-5.894,51.707-3.237,59.419c6.358-3.8,30.899-17.073,55.899-12.264l-0.546,2.841     c-27.297-5.246-55.04,12.617-55.318,12.803L123.532,342.537z"/>
			
				<rect x="127.97" y="286.454" transform="matrix(0.953 -0.303 0.303 0.953 -88.1378 53.6008)" style="fill:#510DA3;" width="1.446" height="48.851"/>
			
				<rect x="139.022" y="270.708" transform="matrix(0.9928 -0.1201 0.1201 0.9928 -35.1501 18.9628)" style="fill:#510DA3;" width="1.444" height="60.771"/>
			<polygon style="fill:#510DA3;" points="118.136,309.257 117.802,307.85 169.119,295.562 169.453,296.966    "/>
			<polygon style="fill:#510DA3;" points="158.475,327.425 150.282,301.308 151.662,300.878 159.856,326.99    "/>
			
				<rect x="133.356" y="285.083" transform="matrix(0.2405 -0.9706 0.9706 0.2405 -163.5696 362.5632)" style="fill:#510DA3;" width="33.088" height="1.446"/>
		</g>
		<path style="fill:#510DA3;" d="M112.95,331.844c-0.126-0.372-0.242-0.749-0.346-1.127c-0.466-1.583-4.189-0.752-4.206,0.769    c-0.097,8.002,2.277,25.014,12.55,26.155c8.843,0.984,16.633-10.932,21.622-16.43c1.736-1.912-2.321-2.217-3.438-0.989    c-4.39,4.835-8.58,10.85-14.428,14.017c-8.802,4.765-12.148-18.231-12.088-23.167c-1.402,0.259-2.804,0.512-4.204,0.771    c0.106,0.377,0.222,0.749,0.346,1.122C109.307,334.692,113.482,333.53,112.95,331.844L112.95,331.844z"/>
		<g>
			<path style="fill:#FFFFFF;" d="M298.195,216.723c4.083,44.222-12.91,81.947-37.953,84.259     c-25.043,2.316-48.656-31.665-52.739-75.887c-4.081-44.219,12.91-81.947,37.953-84.259     C270.499,138.523,294.109,172.499,298.195,216.723z"/>
			<path style="fill:#510DA3;" d="M293.464,207.391c1.46,7.98-0.984,15.11-5.459,15.929c-4.475,0.82-9.286-4.985-10.744-12.963     c-1.463-7.978,0.984-15.107,5.461-15.927C287.197,193.611,292.006,199.416,293.464,207.391z"/>
		</g>
		<path style="fill:#FF7700;" d="M162.602,185.83l-6.873-2.236c0.196-0.614,5.002-15.047,17.452-19.771    c7.477-2.836,15.888-1.559,24.983,3.798l-3.665,6.228c-7.098-4.18-13.396-5.285-18.719-3.278    C166.581,174.032,162.641,185.711,162.602,185.83z"/>
		<path style="fill:#FF7700;" d="M272.549,141.438c-6.172-9.092-13.263-14.143-21.081-15.008    c-12.721-1.402-23.465,8.529-23.574,8.628l-4.946-5.268c0.537-0.508,13.306-12.325,29.315-10.545    c10.016,1.11,18.852,7.209,26.267,18.134L272.549,141.438z"/>
		<g>
			<path style="fill:#FFFFFF;" d="M145.911,247.653l78.065,33.43c0,0-3.302-97.103-41.56-99.388     C151.334,179.839,145.911,247.653,145.911,247.653z"/>
			<path style="fill:#510DA3;" d="M223.976,281.083l-2.744-1.168c-0.911-15.47-5.002-64.536-21.224-88.709     C221.764,216.102,223.976,281.083,223.976,281.083z"/>
			<path style="fill:#510DA3;" d="M208.975,219.511c1.378,5.979-0.225,11.457-3.583,12.231c-3.351,0.771-7.187-3.45-8.568-9.431     c-1.375-5.981,0.225-11.457,3.58-12.233C203.763,209.306,207.597,213.53,208.975,219.511z"/>
		</g>
	</g>
</g>















</svg>
