<?xml version="1.0" encoding="UTF-8"?>
<!-- Generator: Adobe Illustrator 25.2.1, SVG Export Plug-In . SVG Version: 6.00 Build 0)  -->
<svg xmlns="http://www.w3.org/2000/svg" xmlns:xlink="http://www.w3.org/1999/xlink" version="1.1" id="Capa_1" x="0px" y="0px" viewBox="0 0 512.144 512.144" style="enable-background:new 0 0 512.144 512.144;" xml:space="preserve" width="512" height="512">
<g>
	<path style="fill:#FFFFFF;" d="M65.3,376.069c11.371,34.464,31.239,60.867,62.529,83.091c4.143,2.942,8.428,5.814,12.733,8.532   c0,0,0,0,0.002,0.001c16.212,10.237,33.526,18.85,51.465,25.604c4.25,1.97,8.578,3.811,12.925,5.497   c44.327,17.941,96.469,17.254,141.363,1.199c28.436-10.487,53.091-27.257,73.276-49.846c28.094-31.44,40.753-75.043,33.865-116.64   c-3.006-18.149-9.443-35.048-15.666-51.391c-7.893-20.721-15.347-40.293-14.987-60.072c0.211-11.632,2.981-23.543,5.916-36.153   c4.307-18.518,8.762-37.667,5.827-58.561c-0.263-1.872-0.587-3.739-0.958-5.548c-4.889-23.811-19.21-44.649-41.415-60.261   c-3.536-2.486-7.295-4.854-11.328-7.133c-0.014-0.009-0.2-0.113-0.216-0.122c-1.856-1.042-3.735-2.042-5.649-3.009l-0.422-0.211   c-3.358-1.682-6.826-3.266-10.32-4.711l5.036-17.785c0.26-0.923,0.514-1.87,0.725-2.831c1.808-8.188-1.756-16.706-8.871-21.198   c-2.03-1.281-4.25-2.18-6.608-2.671c-2.977-0.619-5.969-1.163-8.902-1.619c-5.376-0.831-10.936,0.598-15.256,3.918   c-4.297,3.306-7.096,8.28-7.686,13.655c-0.006,0.035-0.009,0.07-0.013,0.106l-1.801,16.971   c-42.174-7.439-81.54,4.911-109.012,34.502c-14.197,15.291-20.396,32.62-26.389,49.378c-3.093,8.643-6.014,16.808-9.954,24.469   c-7.144,13.895-14.805,24.852-23.421,33.5c-7.132,7.16-15.677,13.216-24.723,19.628c-10.663,7.556-21.689,15.37-31.393,25.723   C58.802,261.74,47.05,320.745,65.3,376.069z"/>
	<g>
		<g>
			<path style="fill:#CE2806;" d="M343.112,16.473c-1.997-0.309-3.883,1.125-4.098,3.134c-0.001,0.013-0.003,0.025-0.004,0.037     c-1.486,14.011-2.973,28.022-4.459,42.033c4.816,0.931,3.022,0.584,7.838,1.514c3.689-13.026,7.377-26.052,11.066-39.078     c0.179-0.633,0.357-1.282,0.501-1.937c0.425-1.922-0.85-3.835-2.776-4.236C348.5,17.382,345.811,16.891,343.112,16.473z"/>
		</g>
		<g>
			<path style="fill:#202D7D;" d="M339.871,56.894c-40.674-14.697-85.782-8.846-115.972,23.672     c-18.68,20.121-21.551,46.42-33.772,70.18c-7.019,13.646-15.525,26.675-26.393,37.583     c-16.947,17.011-39.308,27.429-55.769,44.991c-34.573,36.885-42.722,90.117-27.057,137.6     c10.695,32.419,28.884,55.269,56.439,74.84c27.795,19.742,59.4,34.131,92.585,41.973"/>
		</g>
		<g>
			<path style="fill:#CBD115;" d="M437.245,336.194c-6.489-39.177-31.593-74.743-30.871-114.448     c0.565-31.076,16.305-60.78,11.901-92.129c-0.213-1.517-0.473-3.028-0.781-4.528c-7.797-37.973-42.847-60.223-77.744-69.789     c-32.952-9.033-73.932,0.058-95.548,27.815c-19.451,24.976-20.621,58.572-35.629,85.79     c-19.174,34.775-58.671,53.084-83.833,83.805c-23.425,28.602-33.051,68.017-25.447,104.196     c13.181,62.712,59.143,107.424,115.177,127.911l-0.129,0.482c9.631,3.069,19.369,5.67,29.248,7.813l0.129-0.482     c58.786,10.185,120.923-5.649,163.622-53.433C431.974,411.631,443.286,372.667,437.245,336.194z"/>
		</g>
		<g>
			<path style="fill:#202D7D;" d="M298.989,132.608c-1.939,7.257-6.668,12.297-10.563,11.257c-3.895-1.04-5.481-7.767-3.543-15.025     c1.939-7.257,6.668-12.297,10.563-11.257C299.341,118.624,300.927,125.351,298.989,132.608z"/>
			<path style="fill:#202D7D;" d="M370.644,151.75c-1.939,7.257-6.668,12.297-10.564,11.257c-3.895-1.041-5.481-7.768-3.543-15.025     c1.939-7.257,6.668-12.297,10.564-11.256C370.996,137.766,372.582,144.493,370.644,151.75z"/>
		</g>
		<path style="fill:#202D7D;" d="M308.113,138.672c-0.074,0.241-0.166,0.472-0.231,0.718c-2.771,10.374,3.392,21.03,13.765,23.801    c10.374,2.771,21.03-3.392,23.801-13.765c0.065-0.245,0.102-0.491,0.158-0.737L308.113,138.672z"/>
		<path style="fill:#FA3E00;" d="M325.182,149.958c-5.777-1.543-11.617-0.937-16.69,1.31c2.141,5.657,6.866,10.242,13.155,11.923    c6.289,1.68,12.671,0.061,17.348-3.774C335.719,154.939,330.959,151.502,325.182,149.958z"/>
		<g>
			<path style="fill:#FFFFFF;" d="M217.368,223.57c-0.863-1.625-3.042-2.007-4.555-1.148c-5.48,3.11-10.959,6.22-16.439,9.33     c-3.736,2.12-0.311,7.812,3.406,5.703c4.458-2.53,8.916-5.06,13.374-7.59c3.613,7.23,6.098,14.417,4.176,22.727     c-2.92,12.626-17.386,10.616-24.844,4.451c-10.239-8.463-21.019-46.844,0.892-47.017c4.282-0.034,4.118-6.675-0.17-6.641     c-30.091,0.237-19.716,49.578-2.626,60.612c9.951,6.425,22.026,6.6,29.875-3.032C229.469,249.907,223.103,234.368,217.368,223.57     z"/>
			<path style="fill:#FFFFFF;" d="M264.341,201.96c-1.354-3.007-3.395-5.98-5.844-8.593c1.254-2.398,2.208-4.955,2.881-7.47     c1.108-4.136-5.353-5.681-6.462-1.543c-0.426,1.588-0.965,3.098-1.616,4.528c-7.38-5.076-16.45-6.284-23.056,2.245     c-10.046,12.97-3.78,32.739,2.375,45.785c5.132,9.504,18.324,19.57,28.725,10.684C273.96,236.818,270.298,215.188,264.341,201.96     z M243.76,191.528c2.336,0.253,4.389,1.18,6.206,2.508c-1.12,1.24-2.411,2.357-3.955,3.293c-3.609,2.188-8.173,1.633-11.429-0.73     C236.379,193.342,239.327,191.048,243.76,191.528z M238.323,233.505c-4.617-9.785-7.375-19.437-5.799-30.267     c4.479,2.418,9.943,2.557,14.899,0.719c2.873-1.065,5.281-2.844,7.274-5.042c1.544,2.093,2.842,4.364,3.941,6.452     c5.164,9.808,6.28,23.907,1.252,33.928C254.118,250.797,241.991,240.299,238.323,233.505z"/>
			<path style="fill:#FFFFFF;" d="M322.217,201.503c-9.677,12.325-19.792,24.264-30.305,35.873     c0.554-14.732,1.108-29.464,1.662-44.195c0.161-4.281-6.48-4.098-6.641,0.169c-0.659,17.512-1.317,35.023-1.976,52.535     c-0.091,2.425,2,3.415,3.86,3.043c0.846,0.079,1.735-0.2,2.499-1.023c12.461-13.437,24.342-27.352,35.659-41.766     C329.597,202.802,324.857,198.141,322.217,201.503z"/>
			<path style="fill:#FFFFFF;" d="M349.868,250.241c-4.979,8.275-12.758,13.154-22.612,10.984     c-10.518-2.317-11.467-13.567-9.352-21.933c1.545-6.109,5.382-11.284,10.455-14.709c7.903,7.79,16.661,14.58,25.225,21.621     c1.457,1.198,3.169,0.978,4.387,0.12c0.6-0.268,1.139-0.754,1.528-1.516c5.535-10.831,1.135-25.471-11.207-29.382     c-14.568-4.616-27.398,2.988-34.514,15.742c-5.796,10.389-6.033,27.51,5.796,34.013c14.034,7.716,28.425,1.486,36.313-11.624     C358.177,249.754,352.148,246.453,349.868,250.241z M354.656,238.237c-6.72-5.462-13.467-10.88-19.736-16.855     c0.085-0.027,0.164-0.068,0.249-0.094C346.209,217.939,357.279,227.523,354.656,238.237z"/>
			<path style="fill:#FFFFFF;" d="M387.059,281.154c-4.214-4.15-8.428-8.3-12.641-12.45c-3.164-3.116-7.951,1.819-4.798,4.924     c3.47,3.418,6.941,6.836,10.411,10.254c-3.227,3.819-6.729,7.044-11.755,8.806c-9.045,1.803-13.336-2.479-12.874-12.845     c0.5-3.735,2.746-7.326,4.568-10.539c7.139-12.589,24.092-21.331,36.215-9.847c3.221,3.051,8.014-1.878,4.798-4.924     c-18.414-17.443-45.597-0.506-51.462,20.787c-2.686,9.748-0.648,19.518,9.413,23.667c11.278,4.651,21.851-4.86,28.188-12.971     C388.28,284.533,388.501,282.575,387.059,281.154z"/>
			<path style="fill:#FFFFFF;" d="M403.938,331.135c7.575-4.011,16.419-9.314,15.206-19.034c-2.57-20.591-42.34-9.023-53.216-5.031     c-4.14,1.519-2.256,8.132,1.913,6.602c1.755-0.644,3.513-1.232,5.277-1.778c1.191,7.598,2.382,15.195,3.574,22.793     c-1.773,0.472-3.552,0.917-5.338,1.328c-4.328,0.996-2.392,7.593,1.913,6.602C384.029,340.138,394.184,336.299,403.938,331.135z      M410.573,318.408c-4.364,5.383-13.698,8.852-19.832,11.509c-2.439,1.057-4.937,1.958-7.458,2.79     c-1.182-7.535-2.363-15.07-3.545-22.606c3.52-0.83,7.085-1.484,10.744-1.92C395.114,307.63,420.345,306.355,410.573,318.408z"/>
			<path style="fill:#FFFFFF;" d="M423.458,377.174c-13.601-1.21-27.202-2.421-40.803-3.631     c12.346-7.661,24.893-14.977,37.67-21.909c3.832-2.079,0.492-7.758-3.298-5.998c-15.325,0.87-30.651,1.741-45.976,2.612     c-4.413,0.251-4.264,7.124,0.176,6.872c10.664-0.606,21.328-1.212,31.993-1.818c-10.716,6.105-21.284,12.457-31.692,19.089     c-1.112,0.709-1.57,1.729-1.583,2.749c-0.288,1.887,0.848,4.203,3.333,4.424c16.785,1.494,33.571,2.988,50.356,4.482     C428.04,384.438,427.829,377.563,423.458,377.174z"/>
		</g>
		
			<ellipse transform="matrix(0.7071 -0.7071 0.7071 0.7071 -166.1517 293.6755)" style="fill:#CE2806;" cx="271.422" cy="347.401" rx="93.894" ry="93.894"/>
	</g>
</g>















</svg>
