<svg id="Capa_2" enable-background="new 0 0 453.543 453.543" viewBox="0 0 453.543 453.543" xmlns="http://www.w3.org/2000/svg"><g><path d="m163.073 31.425s-82.96 68.787-57.347 204.804 118.129 200.605 234.929 198.624c0 0-6.075-82.26-56.431-151.017-50.355-68.758-22.005-229.747-121.151-252.411z" fill="#ffc100"/><path d="m157.431.499c-8.49 1.201-15.084 4.21-14.729 6.721.355 2.51 13.103 42.984 21.592 41.783 8.49-1.201 9.508-43.623 9.152-46.133-.355-2.511-7.525-3.573-16.015-2.371z" fill="#ffc100"/><path d="m353.926 444.119c5.446-6.623 8.273-13.297 6.314-14.908-1.959-1.61-38.707-22.828-44.153-16.205-5.445 6.623 22.474 38.579 24.432 40.189 1.959 1.61 7.961-2.453 13.407-9.076z" fill="#ffc100"/><g fill="#37342a"><path d="m163.048 42.951c-21.827 39.827-31.75 85.912-28.511 131.201.906 12.668 2.828 25.233 5.761 37.59.385 1.621 3.701.749 3.312-.887-10.413-43.863-7.797-90.549 7.221-133.048 4.193-11.866 9.355-23.365 15.404-34.4.92-1.68-2.439-1.822-3.187-.456z"/><path d="m156.126 267.523c10.55 30.065 26.824 58.035 47.85 81.983 21.04 23.963 46.672 43.68 75.17 57.981 16.32 8.19 33.519 14.526 51.224 18.979 1.816.457 3.227-2.177 1.062-2.721-61.867-15.561-116.039-55.304-149.43-109.655-9.195-14.966-16.749-30.882-22.564-47.454-.598-1.704-3.905-.804-3.312.887z"/><path d="m179.977 49.199c22.029 29.069 35.71 63.957 39.369 100.243.136 1.342 3.459.572 3.312-.887-3.677-36.46-17.5-71.545-39.631-100.749-.813-1.071-3.992.15-3.05 1.393z"/><path d="m247.255 269.513c18.384 38.552 47.098 71.126 64.856 110.004 4.845 10.609 8.75 21.62 11.302 33.009.185.826 3.512.008 3.312-.887-9.187-40.996-35.546-74.584-57.418-109.459-6.811-10.861-13.22-21.977-18.741-33.554-.426-.895-3.631.215-3.311.887z"/><path d="m191.061 206.788c.59 3.348-1.646 6.54-4.994 7.13-3.348.589-6.54-1.646-7.129-4.994-.59-3.348 1.646-6.54 4.993-7.13 3.348-.59 6.54 1.646 7.13 4.994z"/><path d="m217.983 202.046c.59 3.348-1.646 6.54-4.994 7.129-3.347.59-6.54-1.646-7.129-4.994-.59-3.348 1.646-6.54 4.993-7.129 3.349-.59 6.54 1.646 7.13 4.994z"/><path d="m213.939 227.223c1.672-6.59-2.56-13.04-9.081-14.562-6.083-1.42-12.796 2.084-14.882 8.018-1.287 3.662-.707 7.601 1.474 10.799.911 1.335 4.043-.007 3.019-1.507-2.92-4.281-2.223-10.245 2.039-13.379 3.863-2.841 9.36-1.752 12.278 1.905 2.044 2.561 2.583 5.78 1.784 8.931-.211.831.949 1.233 1.56 1.198.869-.052 1.595-.563 1.809-1.403z"/><path d="m171.441 227.705c3.951 15.813 20.682 22.542 35.664 20.192 6.959-1.091 14.286-3.872 18.864-9.465 4.711-5.756 5.978-13.397 5.593-20.637-.033-.618-3.362-.06-3.311.887.33 6.215-.54 12.727-3.933 18.077-4.137 6.522-11.611 9.551-19.069 10.152-13.456 1.084-27.1-6.509-30.496-20.094-.189-.758-3.511.092-3.312.888z"/><path d="m316.977 429.702c1.336 0 3.482-2.017 1.251-2.017-1.336 0-3.482 2.017-1.251 2.017z"/><path d="m311.855 425.571c1.027 0 3.583-1.536 1.38-1.536-1.028 0-3.583 1.536-1.38 1.536z"/><path d="m308.429 431.3c1.388 0 3.461-2.1 1.229-2.1-1.389 0-3.461 2.1-1.229 2.1z"/><path d="m302.608 426.687c1.462 0 3.43-2.212 1.199-2.212-1.462 0-3.431 2.212-1.199 2.212z"/><path d="m293.578 427.164c1.073 0 3.57-1.61 1.36-1.61-1.073 0-3.57 1.61-1.36 1.61z"/><path d="m284.381 424.056c1.881 0 2.551-2.397.301-2.397-1.881 0-2.551 2.397-.301 2.397z"/><path d="m284.703 418.101c1.428 0 3.445-2.16 1.213-2.16-1.428.001-3.445 2.16-1.213 2.16z"/><path d="m294.93 421.497c1.996 0 2.448-2.726.213-2.726-1.997 0-2.448 2.726-.213 2.726z"/><path d="m270.225 411.569c1.032 0 3.581-1.545 1.377-1.545-1.032 0-3.58 1.545-1.377 1.545z"/><path d="m272.954 423.652c1.06 0 3.574-1.588 1.366-1.588-1.059-.001-3.574 1.588-1.366 1.588z"/><path d="m257.399 415.397c.657 0 1.877-.083 2.342-.627.316-.369.613-.793-.212-.793-.658 0-1.877.083-2.342.628-.316.369-.614.792.212.792z"/><path d="m265.633 421.971c1.401 0 3.456-2.118 1.224-2.118-1.401 0-3.456 2.118-1.224 2.118z"/><path d="m262.497 409.043c1.286 0 3.501-1.941 1.271-1.941-1.286 0-3.501 1.941-1.271 1.941z"/><path d="m252.402 401.34c1.388 0 3.461-2.098 1.229-2.098-1.387 0-3.461 2.098-1.229 2.098z"/><path d="m247.833 413.256c1.948 0 2.492-2.585.251-2.585-1.948 0-2.492 2.585-.251 2.585z"/><path d="m234.46 399.621c1.177 0 3.539-1.772 1.317-1.772-1.176 0-3.539 1.772-1.317 1.772z"/><path d="m239.938 391.952c1.323 0 3.487-1.997 1.257-1.997-1.324 0-3.488 1.997-1.257 1.997z"/><path d="m242.226 407.23c.659 0 1.876-.081 2.342-.628.315-.37.612-.8-.214-.8-.659 0-1.877.081-2.342.627-.316.371-.612.801.214.801z"/><path d="m245.775 398.959c1.328 0 3.486-2.005 1.255-2.005-1.329 0-3.486 2.005-1.255 2.005z"/><path d="m232.533 409.023c1.26 0 3.51-1.901 1.282-1.901-1.261 0-3.511 1.901-1.282 1.901z"/><path d="m220.038 399.906c1.045 0 3.578-1.564 1.372-1.564-1.045 0-3.579 1.564-1.372 1.564z"/><path d="m306.57 412.818c1.913 0 2.523-2.487.277-2.487-1.913 0-2.523 2.487-.277 2.487z"/><path d="m316.583 415.676c1.311 0 3.492-1.978 1.262-1.978-1.311 0-3.493 1.978-1.262 1.978z"/><path d="m312.816 404.335c1.967 0 2.475-2.64.236-2.64-1.967 0-2.475 2.64-.236 2.64z"/><path d="m315.792 410.571c1.25 0 3.515-1.884 1.287-1.884-1.25 0-3.514 1.884-1.287 1.884z"/><path d="m308.808 407.529c1.34 0 3.481-2.025 1.249-2.025-1.341 0-3.481 2.025-1.249 2.025z"/><path d="m304.934 394.365c1.424 0 3.446-2.154 1.214-2.154-1.424 0-3.446 2.154-1.214 2.154z"/><path d="m312.06 391.581c2.025 0 2.423-2.81.191-2.81-2.024-.001-2.422 2.81-.191 2.81z"/><path d="m297.864 397.895c.659 0 1.876-.08 2.342-.628.315-.37.611-.804-.215-.804-.66 0-1.876.08-2.342.628-.316.37-.612.804.215.804z"/><path d="m287.392 394.237c1.259 0 3.511-1.899 1.283-1.899-1.259.001-3.512 1.899-1.283 1.899z"/><path d="m290.609 376.992c1.891 0 2.543-2.424.294-2.424-1.89 0-2.542 2.424-.294 2.424z"/><path d="m298.275 385.247c1.205 0 3.529-1.816 1.305-1.816-1.206 0-3.53 1.816-1.305 1.816z"/><path d="m273.529 389.976c1.993 0 2.452-2.714.217-2.714-1.993 0-2.453 2.714-.217 2.714z"/><path d="m272.165 398.319c1.007 0 3.588-1.503 1.389-1.503-1.007 0-3.588 1.503-1.389 1.503z"/><path d="m257.03 380.177c1.19 0 3.535-1.791 1.312-1.791-1.19 0-3.536 1.791-1.312 1.791z"/><path d="m274.118 363.723c1.046 0 3.578-1.565 1.372-1.565-1.045 0-3.577 1.565-1.372 1.565z"/><path d="m287.486 357.885c1.859 0 2.57-2.34.317-2.34-1.86 0-2.57 2.34-.317 2.34z"/><path d="m273.375 346.343c1.21 0 3.528-1.823 1.303-1.823-1.21.001-3.528 1.823-1.303 1.823z"/><path d="m259.746 359.53c1.156 0 3.546-1.739 1.325-1.739-1.155 0-3.545 1.739-1.325 1.739z"/><path d="m216.396 336.382c-.131.259-.263.517-.394.776l.034.246.256.169.471.053.592-.044.446-.097c.282-.074.553-.176.814-.305l.31-.183.355-.377c.131-.259.263-.517.394-.776l-.034-.246-.256-.169-.472-.053-.592.044-.446.097c-.282.074-.553.176-.814.305l-.31.183z"/><path d="m245.727 324.076c1.094 0 3.564-1.643 1.352-1.643-1.095 0-3.565 1.643-1.352 1.643z"/><path d="m241.059 304.628c1.102 0 3.563-1.654 1.349-1.654-1.102 0-3.562 1.654-1.349 1.654z"/><path d="m218.862 305.331c1.007 0 3.588-1.503 1.389-1.503-1.008 0-3.588 1.503-1.389 1.503z"/><path d="m195.338 302.87c2.023 0 2.423-2.807.191-2.807-2.023 0-2.423 2.807-.191 2.807z"/><path d="m230.623 340.681c1.434 0 3.442-2.169 1.21-2.169-1.433-.001-3.441 2.169-1.21 2.169z"/><path d="m235.677 361.286c1.415 0 3.451-2.139 1.219-2.139-1.415 0-3.451 2.139-1.219 2.139z"/><path d="m227.587 397.116c1.334 0 3.483-2.014 1.252-2.014-1.334 0-3.483 2.014-1.252 2.014z"/><path d="m227.912 385.857c1.489 0 3.417-2.257 1.187-2.257-1.49 0-3.418 2.257-1.187 2.257z"/><path d="m213.555 383.011c1.207 0 3.529-1.819 1.304-1.819-1.207.001-3.53 1.819-1.304 1.819z"/><path d="m204.821 394.762c1.309 0 3.493-1.975 1.263-1.975-1.309 0-3.494 1.975-1.263 1.975z"/><path d="m193.453 382.845c1.369 0 3.469-2.069 1.237-2.069-1.368 0-3.468 2.069-1.237 2.069z"/><path d="m207.061 362.613c1.903 0 2.532-2.459.285-2.459-1.904 0-2.532 2.459-.285 2.459z"/><path d="m208.029 375.203c1.298 0 3.497-1.958 1.267-1.958-1.298-.001-3.497 1.958-1.267 1.958z"/><path d="m189.602 361.202c-.389.195-.779.389-1.167.583l-.519.315-.358.372-.105.393.127.357.225.174c.215.106.443.163.683.17l.42-.014c.305-.035.599-.114.881-.236.389-.195.778-.389 1.167-.584l.52-.315.357-.372.105-.393-.128-.358-.225-.174c-.215-.106-.442-.163-.682-.17l-.421.014c-.305.037-.599.115-.88.238z"/><path d="m170.928 325.148c1.097 0 3.563-1.647 1.351-1.647-1.098 0-3.565 1.647-1.351 1.647z"/><path d="m161.534 341.592-.584-.292-.492-.132-.605-.006c-.23.022-.451.076-.665.161-.209.06-.405.15-.588.269l-.298.227-.323.5.003.249.344.381.584.292.492.131.605.006c.229-.022.451-.076.664-.161.209-.06.405-.15.588-.269l.298-.227.323-.501-.003-.249z"/><path d="m147.573 316.659c2.008 0 2.438-2.761.204-2.761-2.008 0-2.438 2.761-.204 2.761z"/><path d="m153.707 296.254c2.022 0 2.424-2.803.193-2.803-2.023 0-2.425 2.803-.193 2.803z"/><path d="m124.573 257.024c1.301 0 3.496-1.964 1.265-1.964-1.301 0-3.495 1.964-1.265 1.964z"/><path d="m126.901 226.36c1.269 0 3.507-1.914 1.279-1.914-1.269 0-3.508 1.914-1.279 1.914z"/><path d="m115.841 201.954c1.406 0 3.454-2.125 1.222-2.125-1.406 0-3.455 2.125-1.222 2.125z"/><path d="m144.143 160.797c1.389 0 3.46-2.101 1.228-2.101-1.39 0-3.461 2.101-1.228 2.101z"/><path d="m159.398 180.062c-.095.292-.191.585-.286.877l.065.359.284.275.493.133.605.007.449-.087c.285-.075.553-.189.804-.344l.298-.227.322-.503c.095-.292.191-.585.286-.877l-.065-.359-.284-.275-.493-.133-.605-.007-.449.087c-.285.075-.553.189-.804.344l-.298.227z"/><path d="m156.573 238.577c1.89 0 2.544-2.421.295-2.421-1.889 0-2.544 2.421-.295 2.421z"/><path d="m172.607 260.696c1.846 0 2.581-2.304.327-2.304-1.847 0-2.582 2.304-.327 2.304z"/><path d="m205.948 276.43c1.114 0 3.558-1.673 1.343-1.673-1.114 0-3.558 1.673-1.343 1.673z"/><path d="m189.795 287.384c.738 0 3.758-1.403 2.134-1.403-.738-.001-3.758 1.403-2.134 1.403z"/><path d="m125.107 292.731c1.063 0 3.573-1.592 1.365-1.592-1.063-.001-3.573 1.592-1.365 1.592z"/><path d="m116.418 157.286c1.377 0 3.466-2.081 1.234-2.081-1.377-.001-3.465 2.081-1.234 2.081z"/><path d="m116.596 138.49c1.891 0 2.543-2.424.294-2.424-1.89 0-2.543 2.424-.294 2.424z"/><path d="m219.941 372.966c1.049 0 3.577-1.571 1.371-1.571-1.05 0-3.577 1.571-1.371 1.571z"/><path d="m220.61 390.502c1.46 0 3.431-2.21 1.199-2.21-1.46 0-3.43 2.21-1.199 2.21z"/><path d="m209.529 389.945c1.493 0 3.415-2.262 1.185-2.262-1.494-.001-3.416 2.262-1.185 2.262z"/><path d="m203.242 380.612c1.834 0 2.591-2.272.335-2.272-1.833 0-2.591 2.272-.335 2.272z"/><path d="m199.546 367.246c1.197 0 3.533-1.803 1.309-1.803-1.198 0-3.533 1.803-1.309 1.803z"/><path d="m323.845 431.991c1.151 0 3.547-1.732 1.327-1.732-1.151 0-3.547 1.732-1.327 1.732z"/><path d="m335.165 435.57c1.907 0 2.528-2.47.281-2.47-1.907 0-2.528 2.47-.281 2.47z"/><path d="m335.789 442.712c1.054 0 3.576-1.579 1.368-1.579-1.054 0-3.575 1.579-1.368 1.579z"/><path d="m341.942 447.767c1.175 0 3.54-1.769 1.318-1.769-1.176.001-3.54 1.769-1.318 1.769z"/><path d="m343.656 440.335c1.001 0 3.589-1.494 1.391-1.494-1.001 0-3.589 1.494-1.391 1.494z"/><path d="m338.155 432.619c1.208 0 3.529-1.82 1.304-1.82-1.208 0-3.528 1.82-1.304 1.82z"/><path d="m342.257 430.637c1.287 0 3.501-1.942 1.271-1.942-1.286 0-3.501 1.942-1.271 1.942z"/><path d="m350.374 435.117c1.998 0 2.447-2.73.212-2.73-1.999-.001-2.447 2.73-.212 2.73z"/><path d="m341.914 438.335c2.003 0 2.441-2.747.208-2.747-2.005 0-2.443 2.747-.208 2.747z"/><path d="m344.547 433.973c1.074 0 3.57-1.611 1.36-1.611-1.074.001-3.57 1.611-1.36 1.611z"/><path d="m349.737 430.545c1.86 0 2.569-2.341.316-2.341-1.859 0-2.568 2.341-.316 2.341z"/><path d="m353.639 435.896c1.295 0 3.498-1.955 1.268-1.955-1.295 0-3.498 1.955-1.268 1.955z"/><path d="m350.731 444.689c1.345 0 3.478-2.032 1.247-2.032-1.345 0-3.478 2.032-1.247 2.032z"/><path d="m337.186 425.569c1.848 0 2.579-2.31.324-2.31-1.848 0-2.578 2.31-.324 2.31z"/><path d="m332.04 416.327c1.272 0 3.507-1.919 1.278-1.919-1.272.001-3.507 1.919-1.278 1.919z"/><path d="m331.107 404.729c.994 0 3.591-1.482 1.395-1.482-.995-.001-3.592 1.482-1.395 1.482z"/><path d="m320.634 378.588c1.148 0 3.549-1.726 1.329-1.726-1.147 0-3.548 1.726-1.329 1.726z"/><path d="m313.324 357.229c1.075 0 3.569-1.612 1.359-1.612-1.074 0-3.569 1.612-1.359 1.612z"/><path d="m312.966 344.164c-.389-.194-.779-.389-1.167-.584l-.5-.161c-.201-.046-.404-.054-.611-.025-.231.018-.453.071-.665.159-.209.061-.404.155-.584.282l-.294.243c-.158.152-.261.335-.31.548l.011.277.359.435c.389.194.778.389 1.167.584l.5.161c.201.046.404.054.611.025.231-.018.453-.071.665-.159.209-.061.404-.155.584-.282l.294-.243c.158-.152.261-.335.309-.548l-.011-.277z"/><path d="m298.375 329.27c1.846 0 2.581-2.304.326-2.304-1.846 0-2.581 2.304-.326 2.304z"/><path d="m293.168 313.086c.975 0 3.596-1.451 1.403-1.451-.975 0-3.596 1.451-1.403 1.451z"/></g><path d="m193.365 56.183c45.306 51.008 37.995 124.594 58.293 185.765 5.539 16.691 13.151 32.742 23.843 46.77.941 1.234 4.085-.091 3.026-1.48-41.354-54.257-32.303-127.322-56.052-188.449-6.222-16.015-14.639-31.2-26.084-44.086-1.029-1.158-4.166.198-3.026 1.48z" fill="#fff"/></g></svg>