<svg id="Vegetables" height="512" viewBox="0 0 1000 1000" width="512" xmlns="http://www.w3.org/2000/svg"><g><path d="m930.83 522.661c3.037-21.465-3.711-42.127-18.512-56.688-9.478-9.319-22.201-14.454-35.825-14.454-7.116 0-14.257 1.402-20.943 4.06-.793-2.301-1.724-4.545-2.779-6.727 6.885-15.146 5.588-27.796 2.809-36.382-4.223-13.037-14.104-24.004-28.368-31.741-2.882-21.407-19.31-38.886-45.098-46.599-8.017-2.4-16.855-3.617-26.269-3.617-17.263 0-36.445 4.107-54.287 11.473-4.023-3.312-8.146-6.262-12.312-8.81-1.187-10.684-5.196-23.149-18.795-32.234-10.614-7.095-21.326-10.606-32.755-10.742-.077-.002-.409-.005-.482-.005-5.881 0-11.226 1.234-15.947 2.715-5.334-4.32-11.758-7.996-19.523-11.215-8.518-3.527-19.1-6.103-30.508-7.463-14.547-16.842-41.469-22.965-63.27-25.025-2.914-.274-5.894-.414-8.853-.414-5.768 0-13.22.524-21.123 2.449-10.235-9.683-24.354-15.719-38.462-15.719-3.827 0-7.583.457-11.157 1.354-18.645 4.684-33.334 14.668-43.879 29.778-5.321-1.813-10.672-2.74-15.934-2.74-9.676 0-23.705 3.116-35.588 17.962-4.064 5.079-6.894 11.165-8.412 18.021-7.879 3.072-14.922 7.725-20.682 13.661-2.816-.603-5.635-1.075-8.437-1.41-3.965-.474-7.979-.718-11.932-.718-30.301 0-53.406 13.34-63.143 35.186-20.541 1.599-37.816 11.039-48.222 26.01-21.896 3.203-36.709 22.035-41.004 28.176-12.346 17.668-19.037 43.591-18.065 67.363-9.48 4.718-17.912 10.2-24.516 15.995-23.646 20.769-26.876 56.603-7.353 81.583 13.092 16.742 36.119 20.256 53.135 20.256 2.049 0 4.107-.051 6.16-.152 10.283 19.998 32.036 32.779 57.436 32.779.156 0 .313 0 .467-.002.564 1.459 1.189 2.906 1.875 4.342 11.853 24.806 38.681 51.472 69.937 52.254.113 4.021.77 8.089 1.986 12.161 7.309 24.461 33.075 42.03 54.755 46.738 10.349 2.251 21.136 3.392 32.062 3.392 16.76 0 41.354-2.729 63.338-15.733 6.551-3.875 12.367-8.983 17.171-14.937 13.521 23.802 39.077 46.4 69.567 46.4 3.508 0 7.014-.32 10.416-.955 16.671-3.109 30.174-12.707 37.854-26.251 6.185-1.27 11.675-3.924 16.529-7.238.178 1.417.43 2.856.758 4.315 5.834 25.899 25.543 41.36 52.724 41.36 15.965 0 33.799-5.364 48.934-14.72 35.969-22.233 56.76-65.724 49.438-103.411-.188-.965-.4-1.918-.637-2.862 1.398-2.636 2.734-5.662 3.724-9.006 3.104-.078 6.289-.363 9.498-.853 13.413-2.042 22.184-9.002 28.393-16.764 18.362 13.602 43.039 19.897 64.426 19.897 29.023 0 53.23-10.739 66.41-29.465 8.552-12.146 11.67-25.808 9.256-39.186 12.84-11.588 21.504-27.693 24.014-45.442z" fill="#fff"/><g><path d="m898.589 479.938c-12.23-12.027-31.188-11.031-44.296-1.495-16.052 11.677-20.395 35.253-21.12 54.132-13.474-1.933-27.423-1.418-39.666 1.6-.219-2.311-.603-4.552-1.15-6.727 26.443-1.605 44.539-22.165 46.846-47.656 1.045-11.568-2.69-22.623-9.231-30.42 19.102-27.406 2.357-47.295-22.383-55.933 3.481-20.89-11.748-34.763-31.089-40.548-24.518-7.338-56.503.822-78.57 12.375-8.248-8.523-17.936-15.815-27.766-19.98-.002-11.185-.186-21.107-10.591-28.061-6.736-4.502-13.938-7.347-22.103-7.443-7.363-.086-14.611 3.525-21.646 5.732-4.904-7.084-12.141-11.814-21.576-15.726-9.043-3.746-21.198-6.165-34.106-6.87-7.5-17.359-38.113-22.711-54.017-24.213-11.559-1.091-24.686.47-34.852 5.732-6.41-13.007-24.104-22.092-38.133-18.565-21.021 5.28-33.313 18.435-40.652 37.422-14.092-11.167-31.457-15.138-44.229.823-4.563 5.7-5.832 13.465-5.336 21.354-13.253 1.315-25.289 8.617-31.388 20.703-5.975-2.246-12.18-3.832-18.426-4.58-25.881-3.104-54.963 5.992-57.962 34.928-21.347-2.826-43.638 4.84-51.366 25.852-14.444-3.531-28.771 8.468-36.588 19.647-12.573 17.994-17.479 46.896-12.995 68.281-13.063 4.929-24.912 11.725-32.714 18.573-16.242 14.266-17.789 38.255-4.85 54.81 11.02 14.095 39.92 14.428 57.752 10.771.035 1.706.25 3.431.719 5.167 6.74 24.965 35.689 34.452 59.08 26.893-.27 5.854.873 11.96 3.764 18.013 10.189 21.323 35.568 46.254 61.773 40.213 20.227-4.664 29.881-19.28 30.092-36.757 9.053 1.718 18.014.845 26.752-2.456.068-.027.104-.078.172-.107 11.244 10.775 27.166 12.555 43.92 4.849 2.713-1.246 5.154-2.774 7.445-4.452 1.096 6.199 3.154 11.856 6.014 16.726-31.03-4.97-73.567-.765-94.899 20.962-25.563 26.035 6.338 55.931 31.897 61.485 25.959 5.643 58.117 3.634 81.273-10.063 18.584-10.992 29.24-37.706 16.199-55.561 4.678-.89 9.563-2.707 14.59-5.767 4.077-2.481 7.457-5.467 10.338-8.772 1.304 1.619 2.773 2.99 4.354 4.187-31.69 33.57 15.897 101.891 58.054 94.025 15.063-2.809 25.321-13.087 28.071-26.495 15.3 4.09 26.775-10.082 35.252-20.502 13.076-16.073 38.244-21.205 46.458-41.803 6.62-16.595 1.372-31.242-9.354-41.088 2.434-3.334 5.166-6.327 8.146-9.039 2.795 17.221 10.632 33.289 23.867 44.838-13.781 14.671-25.625 30.813-39.807 45.25-8.924 9.085-17.887 20.918-14.801 34.613 7.981 35.443 48.405 29.03 72.256 14.288 27.141-16.776 46.735-50.99 40.512-83.019-.67-3.447-1.768-6.42-3.157-9.02 4.923-6.551 9.55-14.721 6.544-23.257-.936-2.654-2.065-5.267-3.171-7.891 8.6 4.585 18.034 5.966 28.646 4.349 16.295-2.479 20.817-17.983 28.201-30.163 18.432 36.758 94.028 45.921 117.963 11.922 8.508-12.088 7.944-24.691 2.01-35.273 28.55-15.45 39.144-57.094 15.03-80.813z" fill="#68182b"/><path d="m829.687 486.881c-2.959 18.533-22.18 32.075-40.625 32.089-2.213-4.055-5.217-7.646-9.24-10.516 9.021-5.631 16.87-12.813 22.416-21.389 6.347-9.816 11.906-25.615-4.01-37.492 23.854-12.691 34.615 17.546 31.459 37.308z" fill="#813341"/><path d="m680.956 519.188c-3.16-6.408-7.169-10.896-11.724-13.871 8.131-7.209 16.059-12.857 21.789-21.478 2.473.813 4.805 1.737 7.309 2.131-2.021 14.707 4.438 26.506 15.687 32.522-8.492 7.259-15.324 16.245-20.48 26.187-3.627-2.218-7.651-3.905-11.743-5.03 1.981-7.003 2.195-14.316-.838-20.461z" fill="#813341"/><path d="m326.431 486.602c-8.117-7.261-13.838-15.613-17.029-26.067-6.07-19.888 12.002-30.181 28.461-29.354 14.957 17.283 47.414 28.615 68.267 27.915-.644 1.815-1.197 3.723-1.623 5.75-2.324 11.02 1.558 22.916 10.248 30.035-6.729 4.298-11.982 10.249-15.048 17.292-9.465-5.193-20.415-4.969-30.767-1.641-16.325-3.406-30.239-12.953-42.509-23.93z" fill="#813341"/><path d="m356.628 516.028c-6.212 3.577-11.755 8.067-16.107 12.803-.557-.998-1.178-1.953-1.885-2.849 3.473-3.563 6.126-8.262 7.785-14.235 3.416 1.654 6.836 3.089 10.207 4.281z" fill="#813341"/><path d="m212.407 490.208c1.942 2.099 4.481 4.408 7.435 6.82-3.241 2.099-6.466 4.253-9.649 6.525-1.961-13.296-8.457-21.581-17.481-26.136 4.275-10.816 10.018-23.711 13.051-36.393 2.146 1.803 4.32 3.571 6.58 5.24 1.441 1.065 2.97 1.985 4.494 2.905-12.722 9.756-16.7 27.791-4.43 41.039z" fill="#813341"/><path d="m216.566 481.421c-14.131-19.168 12.738-30.834 26.59-31.936 14.531-1.158 46.385 4.554 57.839 14.396.225.193.471.256.707.396.266 1.155.521 2.308.881 3.487 4.825 15.805 19.598 30.152 35.989 39.808-10.207 41.488-81.483 3.274-102.639-9.38-7.49-4.482-14.164-9.714-19.367-16.771z" fill="#813341"/><path d="m332.19 422.596c-19.009 1.182-31.21 13.559-31.675 30.865-6.895-3.571-14.922-5.329-22.563-7.187-.207-.398-.412-.798-.785-1.165-16.688-16.442-26.045-42.728 2.301-52.813 18.09-6.436 36.797 6.648 50.535 16.875-.589 4.68.241 9.178 2.187 13.425z" fill="#813341"/><path d="m620.695 400.212c1.933-3.379 3.101-6.756 3.64-10.107 3.095-1.9 6.729-1.945 10.307-1.861 5.869 16.006 16.141 31.344 24.215 37.265-1.688 2.255-3.037 4.821-3.906 7.792-6.699.447-13.323 2.078-19.19 4.775.521-2.305.918-4.609 1.021-6.896.69-15.2-5.734-25.152-16.087-30.968z" fill="#813341"/><path d="m628.345 426.759c2.69 34.455-67.086 92.86-86.994 43.572-.107-.266-.291-.43-.433-.657 4.619-7.864 6.262-16.814 2.939-26.554.022-.058.063-.086.084-.144 6.186-18.035 21.951-33.536 40.086-39.053 18.24-5.547 42.646 1.408 44.318 22.836z" fill="#813341"/><path d="m498.636 419.511c-20.092 2.189-40.195 10.894-60.287 14.825 1.07-3.118 1.666-6.168 1.756-9.118 17.299 2.379 37.188-5.186 42.332-22.374 19.057 11.227 42.502 15.507 64.264 17.442-3.112 4.093-5.792 8.442-7.955 12.928-8.69-12.357-26.236-15.212-40.11-13.703z" fill="#813341"/><path d="m533.828 465.933c-5.436 10.494-17.729 16.878-27.875 21.83-17.969 8.769-37.377 11.96-57.19 10.359-8.187-.659-16.599-2.656-23.729-6.791-.016-.01-.033-.016-.049-.025-2.646-1.54-5.127-3.353-7.336-5.532-17.002-16.802 3.879-39.035 20.81-42.658 12.686-2.25 25.198-5.232 37.647-8.521 12.83-3.391 24.318-8.332 37.898-6.261 18.238 2.777 28.277 21.274 19.824 37.599z" fill="#813341"/><path d="m612.748 396.786c-4.586-1.494-9.617-2.442-14.956-2.865-9.632-.765-18.955 1.621-27.423 6.031 2.427-23.824-17.952-45.363-36.338-57.721-1.813-1.222-3.729-2.434-5.688-3.633 16.865-15.675 35.932-5.223 52.961 5.023 16.108 9.696 44.91 31.073 31.444 53.165z" fill="#813341"/><path d="m561.851 398.651c-.709 8.177-4.279 13.981-14.094 13.084-33.629-3.076-85.808-14.354-88.433-54.428-1.293-19.747 18.479-27.141 34.369-23.963 11.033 2.207 21.641 8.152 31.396 13.555 17.389 9.62 38.651 29.867 36.762 51.752z" fill="#813341"/><path d="m460.144 333.493c-2.035 1.85-3.635 3.842-4.988 5.9-3.184-4.954-7.604-8.627-12.692-10.98 4.709-13 13.182-19.829 27.362-19.916 8.935-.057 22.039 6.894 24.998 16.291-12.334-2.182-24.586-.476-34.68 8.705z" fill="#813341"/><path d="m450.707 350.297c.033.126.114.193.156.31-2.395 15.784 7.826 33.477 19.428 43.578 1.468 1.279 2.988 2.488 4.541 3.646-2.231 16.08-22.219 21.426-35.938 18.422-4.149-14.057-18.73-25.264-35.91-31.527-4.634-15.178-4.852-32.842 7.414-44.519 12.66-12.053 35.455-7.387 40.309 10.09z" fill="#813341"/><path d="m427.327 437.536c-6.854 2.748-12.429 6.85-16.468 12.51-.108.017-.199-.022-.313 0-23.361 4.67-76.209-12.811-70.984-43.517 6.127-36.008 114.511-14.065 87.765 31.007z" fill="#813341"/><path d="m422.986 500.044c19.33 9.739 42.947 8.963 64.051 3.504 12.716 9.187 13.445 27.572 2.074 38.226-10.661 9.987-27.771 11.502-41.563 11.226-13.349-.268-31.365-3.551-39.406-15.251-9.331-13.572 1.998-31.683 14.844-37.705z" fill="#813341"/><path d="m463.644 560.94c12.646-1.423 25.275-5.446 33.229-14.093 3.787 2.289 6.925 5.416 10.281 8.302-20.168 20.005-29.201 51.646-2.961 67.36-8.834 12.912-36.016 20.49-45.369 4.84 10.836-19.094 8.906-45.608 4.82-66.409z" fill="#813341"/><path d="m501.814 539.742c.975-1.907 1.754-3.86 2.363-5.845 4.344 4.188 9.608 8.004 15.487 11.3-2.055 1.271-4.061 2.677-6.002 4.191-3.911-3.278-7.52-6.948-11.848-9.646z" fill="#813341"/><path d="m512.062 626.305c1.006.39 2 .782 3.076 1.137 2.508.821 5.059 1.309 7.629 1.536-4.188 5.357-7.986 10.926-10.376 17.353-4.212-3.092-8.622-5.831-13.099-8.141 5.29-3.105 9.795-7.172 12.77-11.885z" fill="#813341"/><path d="m517.433 619.11c-21.728-4.097-25.084-27.806-16.416-44.066 5.963-11.19 16.852-19.738 28.111-25.205 14.67 6.246 31.329 9.271 45.522 7.209 12.75 29.381-29.094 67.37-57.217 62.062z" fill="#813341"/><path d="m572.128 548.287c-20.591 2.501-53.144-7.604-66.038-24.877-.1-.133-.229-.186-.335-.302-.126-8.24-3.244-16.23-9.056-22.433 1.816-.611 3.605-1.246 5.359-1.914 11.921-4.535 24.628-11.946 33.227-21.498 7.146 12.858 20.783 21.677 35.267 21.351 8.862 4.25 16.448 10.068 22.479 18 13.258 17.449-4.946 29.74-20.903 31.673z" fill="#813341"/><path d="m583.119 495.913c.65-.271 1.303-.496 1.947-.813 16.116-7.837 36.353-25.331 46.049-44.372.418-.172.838-.338 1.231-.663 12.575-10.409 33.173-10.44 46.86-2.401 12.541 7.364 10.438 22.628 3.944 33.384-5.319 8.814-15.102 13.723-22.578 20.503-18.209-4.571-41.323 7.476-56.651 19.589-3.336-9.473-11.351-18.674-20.802-25.227z" fill="#813341"/><path d="m686.511 442.344c-6.134-5.204-14.092-8.063-22.453-8.916 5.793-12.695 25.416-13.2 37.326-13.169 12.231.032 53.358 4.063 54.436 22.503-23.873 3.575-48.348 16.301-55.369 34.702-1.884-.091-3.633-.676-5.387-1.325.311-.749.672-1.415.953-2.206 4.095-11.532-.551-23.995-9.506-31.589z" fill="#813341"/><path d="m706.123 490.802c-2.465-43.996 102.05-57.024 92.568-15.002-10.682 26.072-89.789 64.619-92.568 15.002z" fill="#813341"/><path d="m823.533 443.452c-8.635-6.021-19.877-7.338-31.475-.33-2.172 1.313-2.611 1.707-5.289.92-6.627-1.941-14.32-2.607-22.348-2.162-1.207-18.055-25.764-25.416-44.281-28.406 3.533-20.969 46.229-17.813 60.693-16.58 25.571 2.179 63.551 14.512 42.7 46.558z" fill="#813341"/><path d="m749.207 359.919c19.547-1.664 54.265 3.643 50.021 31.094-1.842-.432-3.707-.809-5.59-1.123-17.872-2.991-57.271-6.767-74.351 8.744-2.638-8.441-8.176-17.917-15.402-26.695 14.349-7.183 29.243-10.651 45.322-12.02z" fill="#813341"/><path d="m711.541 402.981c.349 1.268 1.396 5.404.111 9.334-1.549-.173-3.025-.322-4.33-.438-12.791-1.118-30.731-.271-42.258 7.696-.247-.258-.439-.539-.779-.758-16.309-10.494-41.157-74.918-5.916-68.096 20.293 3.936 47.412 31.246 53.172 52.262z" fill="#813341"/><path d="m621.775 329.649c-.494-2.267-1.145-4.333-1.883-6.296 10.641-3.218 19.463-7.024 30.861-1.421 9.721 4.775 10.67 11.59 10.762 20.545-6.386-1.412-12.666-1.27-18.473.979-13.664 5.293-15.146 20.29-11.068 36.215-2.623.065-5.219.313-7.691 1.043-1.317-7.793-5.555-15.221-11.139-21.867 8.883-6.979 11.07-18.01 8.631-29.198z" fill="#813341"/><path d="m555.49 302.67c12.375-.204 24.73 1.556 36.463 5.444 15.148 5.021 34.222 31.735 15.354 44.463-5.749-5.586-12.122-10.4-17.856-14.063-21.914-13.995-47.141-26.206-68.268-5.082-.242.245-.342.513-.51.771-5.332-2.824-10.968-5.302-16.701-7.138-.308-3.551-1.522-6.926-3.409-10.021 13.382-13.191 37.483-14.088 54.927-14.374z" fill="#813341"/><path d="m516.453 279.309c9.131 1.93 26.248 4.923 33.468 13.409-21.039.4-42.416 5.666-54.837 17.668-6.085-5.707-14.325-9.562-21.801-10.221-3.643-.321-7.069-.229-10.278.24 1.229-25.517 34.621-25.076 53.448-21.096z" fill="#813341"/><path d="m420.491 270.199c13.159-8.54 37.044-8.778 43.54 9.103-6.229 5.444-10.086 13.154-9.729 23.549-9.258 3.973-16.009 11.941-20.058 22.967-5.957-1.063-12.298-.62-18.313 1.381-2.443-9.123-8.617-19.393-16.621-27.689 4.315-12.837 9.436-21.69 21.181-29.311z" fill="#813341"/><path d="m352.587 304.986c4.314-22.329 30.088-9.458 39.852-.603 7.665 6.953 13.386 16.505 15.533 26.635-12.437 8.051-16.767 23.027-16.299 37.727-26.021-4.7-43.857-39.089-39.086-63.759z" fill="#813341"/><path d="m344.091 324.001c1.1 5.336 2.771 10.402 4.555 14.551 8.088 18.826 22.873 36.299 43.871 39.041.227 1.422.492 2.822.796 4.201-13.021-3.187-26.599-3.52-37.729-.197-4.945-18.602-18.936-33.337-36.093-41.979 5.082-9.195 14.14-14.74 24.6-15.617z" fill="#813341"/><path d="m243.603 367.858c1.948-26.559 31.519-30.725 52.75-27.02 23.413 4.088 45.266 20.805 51.162 44.085-3.133 1.712-5.957 3.789-8.296 6.346-2.872 3.144-4.954 6.24-6.473 9.29-16.95-12.18-40.51-24.246-60.583-14.968-7.029-8.446-17.392-14.394-28.654-17.392.018-.122.086-.21.094-.341z" fill="#813341"/><path d="m264.749 390.134c-.099.076-.201.131-.302.209-18.84 15.163-13.479 35.938-.909 52.332-12.254-2.484-25.004-2.606-36.912 1.326-.396.131-.763.312-1.148.454-2.539-1.688-5.211-3.164-7.731-4.896-3.222-2.215-6.175-4.805-9.104-7.387-.376-.33-.779-.499-1.176-.68 1.563-13.986-1.676-26.949-15.71-35.6 9.914-28.573 55.367-26.491 72.992-5.758z" fill="#813341"/><path d="m147.95 429.771c6.711-19.615 32.295-43.097 48.659-17.688 10.978 17.043-4.918 45.345-11.94 62.385-12.416-3.135-27.664-1.378-42.209 3.031-3.092-15.689.408-32.877 5.49-47.728z" fill="#813341"/><path d="m116.181 554.84c-30.815-6.486-20.051-41.713-2.096-55.157 22.709-17.01 86.129-35.298 88.055 9.886-9.396 7.146-18.563 14.713-27.42 22.131-6.93 5.805-15.18 14.105-18.662 23.477-12.574 3.287-27.363 2.299-39.877-.337z" fill="#813341"/><path d="m216.091 586.598c-21.43 10.112-64.553-2.393-49.801-32.757 5.664-11.656 20.381-21.047 30.315-28.506 9.72-7.295 19.338-15.723 29.604-22.21.315-.2.494-.464.729-.699 11.394 8.112 26.654 16.748 42.541 23.168-5.494 9.934-6.16 22.716-5.149 34.067-4.644-.871-9.539-1.16-14.65-.771-.206.017-.35.115-.541.153-.207.016-.387-.043-.604.002-15.545 3.197-27.864 14.014-32.444 27.553z" fill="#813341"/><path d="m281.417 645.492c-41.185 15.231-88.142-65.616-31.166-77.973 20.688-1.386 34.395 7.979 44.307 25.58 10.889 19.334 10.457 43.666-13.141 52.393z" fill="#813341"/><path d="m309.193 609.039c-.02-.005-.039.003-.059-.002-.431-2.689-1.031-5.408-1.861-8.147-5.573-18.383-17.766-32.53-34.073-38.729-1.316-10.25-1.455-24.346 4.426-33.492 20.211 7.045 40.438 9.729 54.069 2.485 1.185 1.406 2.06 3.013 2.73 4.794.051.135.146.237.207.367-12.396 18.354-16.732 44.021-7.937 64.281 1.229 2.831 2.629 5.41 4.171 7.753-7.126 2.154-14.224 2.564-21.673.69z" fill="#813341"/><path d="m392.836 597.497c-12.688 20.368-41.364 27.555-55.557 5.264-10.979-17.244-6.715-38.951 1.567-56.077 5.327-11.019 17.362-22.599 30.627-27.598.099-.021.18-.065.276-.093 9.18-3.394 18.899-3.543 27.425 1.809-.546 3.344-.663 6.836-.255 10.443.934 8.194 5.147 14.263 10.957 18.744-2.822 16.888-5.699 32.516-15.04 47.508z" fill="#813341"/><path d="m401.703 700.946c-16.059 8.184-36.116 8.352-53.682 7.416-10.521-.561-20.771-2.355-30.404-6.738-23.848-10.846-21.907-38.646-.565-50.883 21.418-12.283 57.932-13.832 82.368-8.455 7.441 1.644 16.479 5.59 20.859 10.401 15.208 16.769-1.879 39.753-18.576 48.259z" fill="#813341"/><path d="m452.568 619.354c-4.789 11.027-13.902 18.22-25.043 22.058-20.307 6.996-30.832-17.24-31.647-32.795 12.299-14.306 16.791-35.646 19.899-53.835 7.473 3.515 16.06 5.362 23.672 6.168 4.664.493 9.982.749 15.521.591 4.096 19.669 5.912 38.665-2.402 57.813z" fill="#813341"/><path d="m518.537 723.796c-36.041 13.064-82.104-52.934-52.518-80.647 7.014 2.184 15.041 1.839 22.617-.405 25.186 10.021 76.084 64.312 29.901 81.052z" fill="#813341"/><path d="m609.4 652.036c-.772.801-1.603 1.538-2.428 2.274-.193-2.655-2.353-4.825-4.967-5.276-3.832-.664-7.697 1.994-10.73 3.92-3.959 2.512-8.22 5.837-9.688 10.447-.074.227.215.354.375.217 4.396-3.828 8.604-7.204 13.719-10.035 2.297-1.272 9.498-4.079 8.104 2.455-.095.441-.308.877-.499 1.313-7.293 5.519-15.719 9.697-22.649 15.623-9.549 8.162-20.947 29.8-35.681 24.89-.075-.027-.137-.005-.214-.027-.088-2.555-.421-5.182-1.027-7.853-3.256-14.36-12.55-27.587-24.291-37.972.106-.226.265-.388.342-.646 2.592-8.82 8.592-15.701 14.27-22.705.115-.142.138-.295.231-.438 14.999-3.171 29.538-14.437 39.177-28.404.088-.019.156.012.244-.01 31.82-7.496 61.892 25.189 35.712 52.227z" fill="#813341"/><path d="m609.527 597.979c-8.822-5.498-19.709-8.359-30.515-7.618 5.735-11.716 7.827-24.352 4.079-35.239 1.473-.482 2.928-.996 4.305-1.623 12.693-5.795 17.883-13.93 18.166-22.541.004-.006.012-.006.018-.011 10.043-8.823 20.83-15.888 33.563-20.186 10.881-3.674 21.193-1.76 29.984 5.793 10.387 8.923 3.868 24.214-1.537 33.05-13.528 22.11-42.397 27.831-58.063 48.375z" fill="#813341"/><path d="m699.044 668.674c-1.613 24.813-21.884 47.386-42.011 59.828-11.807 7.297-25.108 9.923-38.682 7.067-25.298-5.318-15.318-33.3-3.69-45.265 14.116-14.524 26.085-30.659 39.88-45.328 9.203-8.079 21.935-12.438 33.775-7.131 11.132 4.994 11.38 20.822 10.728 30.829z" fill="#813341"/><path d="m697.636 633.821c-10.854-9.273-28.668-7.73-42.072-.012-13.232-11.064-21.176-26.9-23.104-44.035-.071-.635-.271-1.181-.532-1.669 13.092-9.571 28.438-16.666 39.364-29.084 2.716-3.082 5.313-6.983 7.396-11.272 12.354 3.012 22.027 9.309 19.766 25.91-.771 5.651-3.715 10.845-4.27 16.559-1.415 14.56 10.081 30.301 3.452 43.603z" fill="#813341"/><path d="m759.277 574.673c-5.008 5.627-7.264 13.24-10.569 19.876-6.439 12.923-20.759 14.097-32.8 9.831-9.954-3.53-14.653-9.728-12.498-18.188 1.318-5.169 3.41-10.521 4.05-15.205 1.166-8.572-1.882-15.553-7.034-20.861 5.503-10.96 13.054-21.036 23.081-28.232 3.669.787 7.598 1.14 11.76.895 11.77-.69 24.371-3.98 35.861-9.53 15.159 7.733 17.414 25.983 9.731 39.514-4.848 8.529-15.091 14.601-21.582 21.9z" fill="#813341"/><path d="m876.281 588.556c-16.053 29.982-79.311 23.748-100.789-1.898-5.616-6.712-5.496-11.234 1.393-17.6 7.874-7.275 15.704-14.584 16.743-26.076 27.169-6.784 105.47 2.966 82.653 45.574z" fill="#813341"/><path d="m884.998 549.364c-5.85 4.756-6.461 3.724-11.176-.402-2.924-2.555-6.197-4.832-9.744-6.756-6.655-3.604-14.299-6.219-22.303-8.038.424-14.327 2.946-27.292 10.223-39.916 9.773-16.95 29.699-18.817 43.246-5.491 17.386 17.101 6.955 46.635-10.246 60.603z" fill="#813341"/><path d="m712.554 384.171c2.97 4.942 5.297 9.855 6.735 14.463 17.08-15.511 56.479-11.735 74.351-8.744 1.883.314 3.748.691 5.59 1.123.834-5.4.119-9.918-1.65-13.721-2.594 3.236-6.649 5.262-12.663 5.629-5.943.361-13.204-2.854-18.974-4.25-7.701-1.862-15.592-2.594-23.502-2.496-10.016.119-21.823 1.479-29.887 7.996z" fill="#7a2537"/><path d="m671.384 407.204c-12.104-1.966-20.722-9.128-26.25-18.55 4.871 13.333 12.678 26 19.151 30.164.339.219.532.5.779.758 11.525-7.967 29.467-8.814 42.258-7.696 1.305.114 2.781.265 4.33.438 1.284-3.93.236-8.066-.111-9.334-1.723-6.283-5.379-13.125-10.164-19.739.332 2.885.273 5.874-.219 8.896-2.285 14.069-18.188 16.945-29.774 15.063z" fill="#7a2537"/><path d="m764.404 417.747c-11.833-6.531-26.563-8.78-39.225-3.361 17.646 3.478 38.143 11.034 39.244 27.494 8.026-.445 15.721.221 22.348 2.162 2.678.787 3.117.393 5.289-.92 11.598-7.008 22.84-5.689 31.475.33 7.021-10.796 7.354-19.347 3.748-26.03-2.209 9.843-16.746 13.235-26.977 13.309-12.988.092-24.914-6.917-35.902-12.984z" fill="#7a2537"/><path d="m667.589 549.604c5.405-8.836 11.924-24.127 1.538-33.05-.787-.677-1.602-1.254-2.413-1.84 3.223 23.312-16.228 44.285-34.668 56.701-11.027 7.422-21.287 8.875-34.093 6.033-5.016-1.111-9.651-1.873-14.096-.778-1.006 4.599-2.654 9.21-4.847 13.689 10.806-.741 21.691 2.119 30.515 7.617 15.668-20.541 44.537-26.262 58.064-48.372z" fill="#7a2537"/><path d="m642.189 478.907c-7.264 2.317-12.227 8.879-16.787 14.515-8.551 10.566-19.305 14.048-31.34 12.063 4.42 4.828 7.934 10.188 9.861 15.653 15.328-12.113 38.442-24.159 56.651-19.589 7.478-6.779 17.258-11.688 22.578-20.503 3.67-6.078 5.934-13.596 4.945-20.313-2.545 6.836-9.717 11.734-17.121 14.635-9.031 3.537-19.41.543-28.787 3.539z" fill="#7a2537"/><path d="m506.09 523.41c12.896 17.271 45.447 27.378 66.038 24.877 14.739-1.786 31.342-12.421 23.344-27.784-4.443 15.783-34.187 21.049-47.797 18.918-11.363-1.781-21.974-7.526-29.736-15.926-6.125-6.624-10.344-18.152-8.775-27.777-2.374 1.113-4.753 2.15-7.104 3.045-1.754.668-3.543 1.303-5.359 1.914 5.812 6.201 8.93 14.191 9.056 22.433.104.116.233.167.333.3z" fill="#7a2537"/><path d="m142.46 477.501c14.545-4.409 29.793-6.166 42.209-3.031 7.022-17.04 22.918-45.342 11.94-62.385-1.625-2.522-3.344-4.547-5.122-6.156 5.662 11.45 1.313 25.771-5.347 37.088-4.613 7.839-11.313 14.435-19.299 18.74-8.189 4.416-19.711.606-24.889-6.684-.898 7.542-.925 15.145.508 22.428z" fill="#7a2537"/><path d="m309.402 460.533c3.191 10.454 8.912 18.808 17.029 26.067 12.271 10.979 26.184 20.524 42.509 23.93 10.352-3.328 21.302-3.554 30.767 1.641 1.5-3.444 3.537-6.619 6.003-9.478-10.369 1.988-20.855-3.202-28.568-10.69-6.375-6.188-10.916-12.035-19.764-14.285-8.894-2.26-18.414-.115-27.451-2.076-12.168-2.638-19.681-16.496-20.64-29.024-1.362 3.929-1.52 8.563.115 13.915z" fill="#7a2537"/><path d="m779.822 508.454c4.023 2.869 7.027 6.461 9.24 10.516 14.801-.012 30.076-8.74 37.074-21.762-4.774 4.237-10.478 7.178-17.021 7.273-10.415.149-8.155-11.31-6.22-18.484-.221.357-.436.725-.658 1.068-5.545 8.577-13.394 15.758-22.415 21.389z" fill="#7a2537"/><path d="m740.701 590.076c-4.221 1.12-8.545 1.198-12.854.618-10.103-1.365-9.676-12.752-9.096-20.354.362-4.776.309-9.22-2.843-13.108-1.709-2.109-3.512-4.106-5.327-6.127-3.82-4.241-4.146-8.618-2.986-12.961-2.7 3.793-5.086 7.82-7.173 11.979 5.152 5.31 8.2 12.289 7.034 20.861-.64 4.686-2.73 10.036-4.05 15.205-2.155 8.462 2.544 14.658 12.498 18.188 12.041 4.266 26.359 3.092 32.8-9.831 1.626-3.263 2.999-6.762 4.569-10.144-3.756 2.458-7.877 4.431-12.572 5.674z" fill="#7a2537"/><path d="m580.636 672.976c6.932-5.926 15.356-10.104 22.649-15.624.191-.437.404-.871.499-1.313 1.395-6.534-5.808-3.729-8.104-2.455-5.115 2.831-9.322 6.207-13.719 10.035-.16.138-.449.01-.375-.217 1.468-4.61 5.729-7.937 9.688-10.447 3.033-1.926 6.898-4.584 10.73-3.92 2.614.451 4.772 2.621 4.967 5.276.825-.736 1.653-1.475 2.428-2.274 8.721-9.006 11.174-18.633 9.428-27.195-6.405 18.785-36.434 23.232-49.422 38.722-2.576 3.071-4.545 6.628-7.1 9.737-8.174 9.943-17.625-2.715-22.428-8.862-4.267-5.462-9.82-8.683-16.099-8.316 9.65 9.668 17.092 21.334 19.935 33.864.606 2.671.939 5.298 1.027 7.853.077.022.139 0 .214.027 14.735 4.907 26.133-16.729 35.682-24.891z" fill="#7a2537"/><path d="m667.976 710.582c-11.432 7.059-24.426 12.7-37.991 13.185-14.929.532-22.704-9.289-23.788-20.797-5.953 12.951-6.209 28.738 12.156 32.601 13.572 2.854 26.875.229 38.682-7.067 15.362-9.496 30.779-24.904 37.947-42.696-7.254 9.636-16.162 18.082-27.006 24.774z" fill="#7a2537"/><path d="m156.058 555.175c3.482-9.37 11.732-17.672 18.662-23.477 7.611-6.375 15.486-12.813 23.506-19.046-8.975 2.744-18.192 4.473-27.223 7.216-8.476 2.575-15.431 7.848-22.199 13.346-11.139 9.051-22.338 15.588-36.758 8.802-5.599-2.636-11.426-7.38-15.066-12.99-1.417 11.618 3.41 22.491 19.201 25.814 12.514 2.636 27.303 3.624 39.877.335z" fill="#7a2537"/><path d="m880.225 576.468c-8.783 14.247-26.876 17.804-44.936 17.278-18.989-.554-49.887-9.676-51.448-31.468-2.197 2.336-4.563 4.565-6.958 6.778-6.889 6.364-7.01 10.888-1.393 17.6 21.479 25.646 84.736 31.882 100.789 1.898 2.344-4.373 3.57-8.385 3.946-12.086z" fill="#7a2537"/><path d="m248.534 559.047c.219-.045.397.014.604-.002.191-.038.335-.138.541-.153 5.111-.391 10.008-.102 14.65.771-.48-5.415-.56-11.154.063-16.758-9.298 8.396-27.267 5.137-39.554 10.347-10.976 4.652-18.736 15.015-31.05 16.377-12.45 1.378-22.854-10.78-23.078-22.455-1.735 2.145-3.294 4.349-4.423 6.669-14.752 30.364 28.371 42.869 49.801 32.757 4.583-13.541 16.902-24.358 32.446-27.553z" fill="#7a2537"/><path d="m422.474 677.261c-6.115 7.517-17.549 11.717-26.813 11.769-11.228.063-20.281-10.494-30.971-13.099-8.757-2.133-16.483 2.636-22.843 8.005-5.099 4.307-9.196 7.704-16.355 8.626-7.713.994-13.309-6.456-17.131-11.646-3.161-4.292-5.063-9.412-5.618-14.654-5.591 12.82-1.318 27.996 14.876 35.363 9.634 4.383 19.884 6.179 30.404 6.738 17.564.936 37.623.768 53.682-7.416 10.634-5.416 21.388-16.709 23.896-28.528-.869 1.66-1.861 3.287-3.127 4.842z" fill="#7a2537"/><path d="m530.106 680.362c1.307 6.674.342 13.399-4.573 19.709-7.92 10.164-23.787 10.563-35.102 7.761-15.15-3.751-26.176-14.997-31.941-28.628 7.523 26.824 36 53.309 60.049 44.592 23.267-8.434 21.879-26.4 11.567-43.434z" fill="#7a2537"/><path d="m277.167 445.109c.373.367.578.767.785 1.165 7.641 1.856 15.668 3.614 22.563 7.187.277-10.247 4.691-18.74 12.17-24.229-5.777-.104-14.832 4.2-17.171 4.989-16.921 5.722-32.619-13.767-31.587-30.156-6.891 12.321 1.236 29.216 13.24 41.044z" fill="#7a2537"/><path d="m714.017 518.492c-2.201-1.18-4.158-2.639-5.963-4.236-2.854 3.438-6.932 5.317-12.107 6.386-5.938 1.225-11.049-.12-15.711-2.725.234.436.496.813.722 1.271 3.031 6.146 2.817 13.459.836 20.461 4.092 1.125 8.116 2.813 11.743 5.03 5.156-9.942 11.988-18.928 20.48-26.187z" fill="#7a2537"/><path d="m212.966 422.628c-2.379-.453-4.144-1.608-5.588-3.095.521 3.85.546 7.851.088 11.96.396.181.8.35 1.176.68 2.93 2.582 5.883 5.172 9.104 7.387 2.521 1.731 5.192 3.207 7.731 4.896.387-.145.752-.323 1.148-.454 11.908-3.934 24.658-3.813 36.912-1.326-12.14-15.836-17.486-35.738-.869-50.742-6.289 1.168-12.381 5.071-16.664 9.166-4.711 4.507-8.101 10.483-12.428 15.324-5.317 5.954-12.886 7.672-20.61 6.204z" fill="#7a2537"/><path d="m371.586 595.622c-14.343 4.059-27.813-1.534-35.711-13.771-1.534-2.377-3.387-6.31-4.676-10.567-1.42 10.834-.047 21.852 6.08 31.479 14.191 22.291 42.867 15.104 55.557-5.264 4.283-6.875 7.169-13.891 9.353-21.093-7.803 9.31-19.123 15.964-30.603 19.216z" fill="#7a2537"/><path d="m504.193 622.511c-6.322-3.787-10.551-8.509-13.115-13.757-4.536 7.169-13.455 11.126-21.963 6.714-1.756-.91-3.166-2.239-4.36-3.769-1.279 5.548-3.197 10.835-5.931 15.65 9.353 15.652 36.535 8.074 45.369-4.838z" fill="#7a2537"/><path d="m895.244 488.761c-.455-.45-.938-.839-1.409-1.255 4.666 12.657 1.768 26.118-9.479 36.86-11.173 10.67-33.806 9.854-41.577-2.4-.545 3.976-.877 8.023-1.002 12.202 8.004 1.819 15.646 4.435 22.303 8.038 3.548 1.924 6.82 4.201 9.744 6.756 4.715 4.126 5.326 5.158 11.177.402 17.198-13.968 27.629-43.502 10.243-60.603z" fill="#7a2537"/><path d="m457.155 604.124c-1.12 2.588-2.529 5.108-4.542 7.589-5.836 7.193-14.694 11.466-23.535 13.505-18.018 4.156-27.398-9.35-27.856-24.146-1.615 2.652-3.344 5.217-5.344 7.544.815 15.555 11.342 39.791 31.647 32.795 11.142-3.838 20.254-11.029 25.043-22.058 2.208-5.082 3.66-10.152 4.587-15.229z" fill="#7a2537"/><path d="m281.417 645.492c16.705-6.18 21.762-20.18 19.451-34.688-1.539 8.479-6.244 15.87-15.246 21.319-13.697 8.295-30.533 2.129-41.354-7.701-6.865-6.242-17.121-26.688-17.26-41.336-14.02 26.799 21.966 74.405 54.409 62.406z" fill="#7a2537"/><path d="m309.134 609.037c.02.005.039-.003.059.002 7.449 1.874 14.549 1.464 21.675-.69-1.542-2.343-2.942-4.922-4.171-7.753-2.926-6.738-4.369-14.077-4.576-21.544-7.791 5.317-17.133 4.254-25.885.438 4.795 6.128 8.586 13.32 11.037 21.399.83 2.74 1.43 5.459 1.861 8.148z" fill="#7a2537"/><path d="m746.527 444.619c-3.623-.929-7.345-1.286-11.123-.442-10.873 2.424-26.797 13.97-36.549 4.483-5.063-4.923-8.285-11.958-15.533-14.212-5.133-1.597-9.947-1.659-14.697-.267 6.652 1.31 12.888 3.92 17.888 8.161 8.955 7.595 13.601 20.059 9.506 31.589-.281.791-.644 1.457-.953 2.206 1.754.649 3.503 1.234 5.387 1.325 6.105-16.01 25.431-27.716 46.074-32.843z" fill="#7a2537"/><path d="m592.628 454.825c-5.14 6.407-9.521 13.217-16.388 17.957-12.426 8.58-27.358 1.328-31.936-10.904-.803 2.695-1.924 5.307-3.387 7.796.141.229.323.393.432.657 19.908 49.288 89.686-9.117 86.994-43.572-.154-1.979-.563-3.792-1.078-5.524-1.346 8.583-9.906 15.871-17.951 19.559-7.035 3.225-11.9 8.064-16.686 14.031z" fill="#7a2537"/><path d="m417.65 485.772c2.209 2.181 4.689 3.992 7.336 5.532.017.011.033.017.049.025 7.132 4.135 15.543 6.132 23.729 6.791 19.813 1.601 39.223-1.592 57.19-10.359 10.146-4.952 22.439-11.336 27.875-21.83 3.78-7.302 3.842-15.027 1.144-21.6-1.048 6.803-2.447 13.153-7.506 19.111-9.487 11.172-25.189 18.293-39.006 21.926-14.636 3.847-31.423 4.679-46.354 2.329-12.203-1.921-26.373-9.53-29.867-21.602-1.967 6.493-.886 13.457 5.41 19.677z" fill="#7a2537"/><path d="m408.14 537.747c8.041 11.7 26.059 14.983 39.406 15.251 13.793.276 30.902-1.237 41.563-11.227 7.051-6.604 9.439-16.184 7.211-24.698-.724 1.896-1.651 3.727-3.133 5.548-3.828 4.713-13.375 5.531-19.002 6.818-5.721 1.311-10.264 4.605-14.674 8.3-11.689 9.795-21.81 9.797-34.84 1.518-9.586-6.094-15.624-15.885-15.613-26.477-4.767 7.687-6.334 17.086-.918 24.967z" fill="#7a2537"/><path d="m798.693 475.8c.711-3.153.713-5.959.234-8.505-3.392 8.027-12.775 11.288-22.441 12.471-7.699.942-13.551 2.644-20.188 6.844-8.381 5.305-15.263 12.35-24.795 15.716-10.942 3.86-22.815-4.557-25.316-14.834-.074 1.088-.125 2.183-.063 3.312 2.778 49.615 81.885 11.068 92.569-15.004z" fill="#7a2537"/><path d="m517.433 619.11c23.522 4.438 56.621-21.411 59.369-47.18-6.483 11.624-19.855 19.969-31.164 26.035-11.687 6.268-27.217 11.208-39.857 4.819-5.277-2.668-8.094-8.082-8.959-13.924-1.431 13.516 4.573 27.227 20.611 30.25z" fill="#7a2537"/><path d="m216.566 481.421c5.203 7.057 11.877 12.289 19.367 16.771 19.438 11.63 81.164 44.788 98.973 17.905-9.654 5.077-20.352 5.645-31.541 3.028-14.694-3.432-23.438-12.642-29.754-25.695-3.435-7.099-9.323-13.084-17.707-13.61-8.036-.504-16.131 2.27-24.073.92-8.121-1.378-15.65-8.65-17.162-16.757-2.914 4.78-3.127 10.624 1.897 17.438z" fill="#7a2537"/><path d="m592.822 386.021c-12.422-2.952-18.966-13.528-25.774-23.263-5.117-7.319-11.359-12.799-19.252-16.948-4.211-2.212-10.494-4.816-15.914-4.954.713.459 1.467.914 2.151 1.375 18.386 12.357 38.765 33.896 36.338 57.721 8.468-4.41 17.791-6.796 27.423-6.031 5.339.423 10.37 1.371 14.956 2.865 3.271-5.363 4.013-10.682 3.084-15.805-3.638 7.92-14.786 6.997-23.012 5.04z" fill="#7a2537"/><path d="m487.949 421.278c3.563-.735 7.123-1.379 10.687-1.769 13.874-1.509 31.42 1.348 40.108 13.703 2.163-4.484 4.843-8.835 7.955-12.928-12.057-1.072-24.61-2.921-36.67-6.217-7.707 1.252-15.235 3.735-22.08 7.211z" fill="#7a2537"/><path d="m662.312 611.043c-12.275-3.054-20.701-18.2-18.748-30.726-3.957 2.516-7.891 5.051-11.637 7.789.262.487.461 1.033.533 1.668 1.928 17.135 9.87 32.971 23.104 44.036 13.404-7.721 31.218-9.264 42.072.011 5.778-11.597-2.211-25.045-3.42-37.947-5.8 11.951-16.547 18.992-31.904 15.169z" fill="#7a2537"/><path d="m568.271 318.919c-17.979-7.556-42.064-2.746-55.367 11.551 2.642 1.152 5.244 2.396 7.771 3.733.168-.259.268-.526.51-.771 21.127-21.124 46.354-8.913 68.268 5.082 5.734 3.663 12.107 8.478 17.856 14.063 6.386-4.309 8.358-10.225 7.675-16.353-3.285 4.493-10.094 2.729-14.414 1.291-11.877-3.951-20.783-13.756-32.299-18.596z" fill="#7a2537"/><path d="m643.736 417.069c-3.865-.156-7.188-1.475-10.197-3.445 2.337 4.85 3.558 10.634 3.24 17.557-.104 2.285-.5 4.591-1.021 6.896 5.867-2.697 12.49-4.328 19.19-4.775.869-2.971 2.22-5.537 3.906-7.792-2.688-1.97-5.617-5.053-8.547-8.786-2.124.533-4.638.422-6.571.345z" fill="#7a2537"/><path d="m243.509 368.2c11.264 2.998 21.625 8.945 28.654 17.392 20.073-9.278 43.633 2.788 60.583 14.968.828-1.661 1.843-3.338 3.038-5.028-9.812-12.146-23.638-20.055-39.152-22.783-14.448-2.541-44.955.972-49.156-17.703-2.123 3.53-3.502 7.765-3.873 12.814-.008.129-.076.217-.094.34z" fill="#7a2537"/><path d="m391.673 368.745c-.125-3.926.127-7.861.747-11.691-4.848.633-9.332-.949-13.195-6.139-3.22-4.326-1.599-12.536-1.538-17.751.043-3.474-1.771-6.388-3.807-8.968-1.929-2.443-6.013-3.318-8.76-4.121-9.833-2.874-12.26-9.351-12.019-16.946-.172.62-.383 1.174-.516 1.857-4.769 24.67 13.067 59.059 39.088 63.759z" fill="#7a2537"/><path d="m613.144 358.847c5.584 6.646 9.82 14.074 11.139 21.867 2.474-.73 5.068-.978 7.691-1.043-4.076-15.925-2.597-30.922 11.067-36.215 4.55-1.763 9.394-2.194 14.349-1.635-3.344-2.237-8.178-2.619-12.078-2.07-4.467.629-8.783 1.704-12.451 4.42-4.205 3.117-8.988 11.973-15.201 9.939-1.266 1.711-2.719 3.325-4.516 4.737z" fill="#7a2537"/><path d="m463.595 342.28c-2.99 3.822-4.679 8.811-4.271 15.027 2.625 40.074 54.804 51.352 88.433 54.428 9.813.897 13.385-4.907 14.094-13.084.203-2.375.09-4.725-.215-7.047-2.615 12.076-17.729 15.201-31.15 12.791-10.594-1.903-24.18-5.165-33.5-10.373-19.541-10.919-36.073-19.759-33.391-51.742z" fill="#7a2537"/><path d="m403.56 304.351c5.902 7.26 10.385 15.426 12.373 22.848 6.017-2.001 12.356-2.443 18.313-1.381 4.049-11.025 10.8-18.994 20.058-22.967-.258-7.438 1.674-13.479 5.059-18.32-6.188.236-13.213 1.644-17.938 5.479-12.054 9.784-22.938 24.569-37.865 14.341z" fill="#7a2537"/><path d="m355.582 381.597c11.132-3.322 24.709-2.989 37.729.197-.304-1.379-.569-2.779-.796-4.201-6.939-.906-13.187-3.447-18.752-7.09-2.158-.104-4.355-.355-6.736-1.036-8.01-2.284-14.473-8.267-20.436-13.746-5.455-5.011-11.006-9.139-17.999-10.634 12.868 8.818 22.961 21.346 26.99 36.51z" fill="#7a2537"/><path d="m463.597 295.951c-.313 1.39-.517 2.872-.592 4.454 3.209-.47 6.637-.563 10.278-.24 7.476.659 15.716 4.514 21.801 10.221 5.078-4.907 11.697-8.633 19.138-11.414-11.687-10.109-38.329-12.36-50.625-3.021z" fill="#7a2537"/><path d="m455.156 339.394c1.354-2.059 2.953-4.051 4.988-5.9 8.5-7.731 18.535-10.119 28.854-9.393-13.875-7.332-31.801 8.796-44.809.244-.618 1.289-1.205 2.627-1.727 4.068 5.09 2.354 9.51 6.026 12.694 10.981z" fill="#7a2537"/><path d="m410.548 450.046c.112-.022.203.016.313 0 2.841-3.981 6.481-7.151 10.754-9.663-20.244 3.903-40.571 5.099-51.439-16.618-2.227-4.444-4.85-6.816-9.601-8.162-2.563-.725-5.563-.463-8.193-.489-8.334-.088-10.654-7.375-10.685-14.353-1.026 1.73-1.771 3.642-2.133 5.77-5.225 30.704 47.623 48.185 70.984 43.515z" fill="#7a2537"/><path d="m438.894 416.253c11.02 2.412 26.063-.576 32.725-10.174-2.45 1.117-5.168 1.788-7.981 2.13-7.99.967-13.047-5.563-16.947-11.372-2.642-3.939-5.633-8.459-9.768-10.991-4.566-2.8-9.028-3.905-14.32-4.481-8.899-.965-15.607-1.512-21.238-9.548-.49-.699-.836-1.452-1.2-2.199.311 5.104 1.333 10.235 2.821 15.108 17.176 6.263 31.757 17.47 35.908 31.527z" fill="#7a2537"/><path d="m877.531 491.133c-12.771-8.561-25.25 7.92-20.98 21.207 2.939 9.161 12.353 7.393 18.226 2.361 5.951-5.096 11.055-18.005 2.754-23.568z" fill="#a64153"/><path d="m847.244 556.942c-31.416-8.197-40.901 19.592-6.229 24.603 26.453 3.827 33.432-17.511 6.229-24.603z" fill="#a64153"/><path d="m757.449 530.093c-7.918 6.121-14.262 14.813-14.858 26.924-.526 10.697 5.231 14.591 12.547 5.156 4.459-5.75 10.537-10.29 13.389-13.699 2.078-2.479 3.958-5.588 4.83-9.352 2.32-9.998-7.872-15.244-15.908-9.029z" fill="#a64153"/><path d="m747.353 460.024c-4.785.663-19.153 4.768-25.549 11.768-9.533 10.438 1.952 17.67 11.19 10.844 7.151-5.283 6.92-10.155 15.087-13.856 9.524-4.314 5.911-9.677-.728-8.756z" fill="#a64153"/><path d="m660.259 451.448c-3.187.715-6.232 2.058-8.696 3.719-5.005 3.373-8.548 10.785-1.06 13.763 6.356 2.527 17.95 2.042 23.168-3.085 8.338-8.195-2.933-16.753-13.412-14.397z" fill="#a64153"/><path d="m636.025 538.827c6.437-4.181 14.632-6.13 16.834-7.06 10.577-4.461 7.584-16.524-7.063-13.727-8.83 1.686-15.804 8.023-18.806 13.54-3.506 6.438-.66 13.541 9.035 7.247z" fill="#a64153"/><path d="m583.982 415.747c-6.541 5.252-11.776 11.142-13.432 17.211-2.933 10.779 5.68 16.291 13.858 6.76 3.736-4.36 9.493-6.576 14.82-8.194 17.703-5.373 12.685-17.691 6.006-20.472-5.514-2.295-13.686-1.381-21.252 4.695z" fill="#a64153"/><path d="m492.683 441.786c-9.48 2.873-18.637 4.619-28.973 4.672-5.81.032-11.506-.021-17.021.968-13.234 2.365-18.725 14.735-3.683 20.485 17.404 6.66 36.738 4.434 53.392-3.438 2.461-1.163 5.371-2.942 7.75-5.177 10.137-9.507 7.244-23.154-11.465-17.51z" fill="#a64153"/><path d="m374.48 405.944c3.221 2.569 5.48 6.387 7.863 9.703 3.432 4.768 7.487 8.651 12.691 11.404 7.861 4.155 16.706-.851 16.161-9.614-.884-14.247-21.302-21.833-36.822-21.539-7.362.139-7 4.373.107 10.046z" fill="#a64153"/><path d="m281.74 361.392c9.226.293 17.803 1.507 26.314 3.279 11.143 2.315 16.385-4.768 5.807-10.992-17.452-10.268-50.211-13.451-50.465-1.045-.178 8.67 12.201 8.564 18.344 8.758z" fill="#a64153"/><path d="m213.792 405.79c7.41 2.973 14.19-3.257 19.366-7.776 4.394-3.843 5.597-8.243 4.152-11.446-1.866-4.14-12.955-4.436-17.233-3.18-3.367.988-6.401 2.447-8.437 4.064-5.879 4.666-5.043 15.445 2.152 18.338z" fill="#a64153"/><path d="m175.575 436.535c4.325-5.956 10.543-17.929 3.251-24.18-5.147-4.409-12.895.771-16.254 4.943-2.555 3.176-5.405 8.992-6.393 14.576-3.504 19.738 10.154 17.4 19.396 4.661z" fill="#a64153"/><path d="m114.407 514.06c-7.177 14.503 2.12 23.205 17.915 10.521 2.656-2.133 5.021-4.623 7.544-6.904 5.981-5.413 13.393-5.598 20.845-6.756 4.544-.706 13.394-4.309 9.98-10.865-5.95-11.444-46.381-5.989-56.284 14.004z" fill="#a64153"/><path d="m238.724 524.375c-9.481-10.776-46.289 1.653-43.84 20.399.936 7.152 10.076 4.73 12.857 2.418 4.626-3.851 9.028-6.825 14.872-8.517 4.873-1.41 13.012.244 16.603-4.498 2.223-2.935 1.971-7.004-.492-9.802z" fill="#a64153"/><path d="m268.173 581.754c-11.471-5.474-16.879 1.811-13.99 14.171 2.195 9.368 7.941 18.845 13.916 24.566 3.598 3.447 8.539 4.806 13.307 3.67 5.156-1.229 6.074-7.578 6.267-11.877.533-11.985-8.984-25.517-19.5-30.53z" fill="#a64153"/><path d="m391.927 648.575c-24.461-8.329-56.724-6.049-68.629 8.332-10.917 13.179 1.889 18.955 15.082 10.856 12.746-7.814 37.598-13.024 50.512-10.01 14.029 3.271 18.707-3.835 3.035-9.178z" fill="#a64153"/><path d="m484.761 670.698c3.007 8.463 8.426 16.455 15.338 21.315 5.924 4.17 22.137 9.121 24.703-2.086 1.948-8.521-5.447-16.348-11.019-21.863-2.891-2.867-8.092-7.267-13.662-10.141-14.178-7.319-19.838.176-15.36 12.775z" fill="#a64153"/><path d="m552.492 630.771c-3.504 5.087-8.645 19.023 1.234 21.736 6.836 1.881 12.307-4.004 17.668-7.455 9.757-6.285 29.436-4.832 27.166-21.311-1.859-13.514-30.238-15.976-46.068 7.03z" fill="#a64153"/><path d="m672.439 654.321c-2.957 6.918-7.731 13.481-10.213 16.616-4.576 5.781-12.644 11.906-15.205 19.466-4.387 12.936 7.184 14.282 14.758 11.584 23.121-8.234 29.479-32.83 26.296-46.925-3.085-13.651-11.029-11.51-15.636-.741z" fill="#a64153"/><path d="m677.656 566.188c-2.506 2.193-5.147 4.164-8.012 6.276-3.359 2.474-5.879 5.156-6.775 9.3-1.542 7.111 4.075 13.961 11.064 14.313 13.741.693 18.418-18.372 17.313-25.431-1.842-11.703-7.496-9.79-13.59-4.458z" fill="#a64153"/><path d="m564.216 534.026c11.073 1.406 26.116-11.664 14.128-21.025-.251-.197-.535-.207-.809-.205-3.002-2.066-6.725-2.761-10.832-3.294-10.94-1.421-17.084-6.013-25.465-12.277-11.264-8.426-14.552.616-10.037 11.219 5.914 13.898 18.068 23.68 33.015 25.582z" fill="#a64153"/><path d="m555.49 573.231c-1.135-16.078-21.629-18.533-34.371-8.6-4.993 3.893-9.227 9.146-10.848 13.332-4.898 12.646 5.945 19.354 17.559 18.186 9.326-.935 28.468-11.472 27.66-22.918z" fill="#a64153"/><path d="m425.744 577.695c-1.139 3.612-2.807 7.101-4.59 10.598-2.723 5.343-6.928 12.348-5.402 18.686 2.669 11.092 14.499 15.048 23.132 6.588 14.844-14.55 9.268-32.081 5.407-39.277-4.713-8.771-14.528-9.358-18.547 3.405z" fill="#a64153"/><path d="m344.199 579.197c5 17.036 22.666 11.115 25.107.113 1.714-7.711 1.33-17.987 4.804-25.161 5.102-10.523 1.671-15.941-4.476-16.786-17.756-2.451-30.273 25.34-25.435 41.834z" fill="#a64153"/><path d="m326.953 462.015c2.957 2.438 7.322 2.597 10.928 2.929 9.054.837 16.985-.844 26.11 1.688 12.382 3.432 15.557 18.112 27.364 21.943 5.289 1.717 6.973-5.103 7.252-8.652.631-7.987-8.748-14.234-14.599-17.465-13.161-7.268-26.686-5.933-37.975-17.611-12.065-12.481-35.953 3.252-19.08 17.168z" fill="#a64153"/><path d="m261.548 456.58c-6.308-.929-16.994-1.136-21.973 3.937-2.683 2.732-5.229 6.728-.88 9.768 8.775 6.13 20.828 4.366 30.806 6.938 11.481 2.964 16.225 13.644 22.652 22.421 10.458 14.277 19.122 2.564 17.925-5.096-.362-2.302-1.123-4.682-2.028-7.135-6.342-17.161-29.758-28.369-46.502-30.833z" fill="#a64153"/><path d="m285.581 398.095c-7.398 3.515-16.5 15.65-6.767 22.295 4.207 2.871 8.67 3.05 13.381 1.259 6.994-2.66 12.675-4.681 20.107-5.793 7.584-1.134 5.242-6.988-.943-11.938-6.661-5.333-17.786-9.617-25.778-5.823z" fill="#a64153"/><path d="m528.593 366.282c-7.849-11.479-21.486-21.047-33-24.861-23.353-7.732-33.529 14.358-11.263 21.994 10.89 3.733 21.191 5.489 31.211 11.881 15.478 9.875 22.822 5.272 13.052-9.014z" fill="#a64153"/><path d="m440.828 346.137c-10.373-12.736-24.587.281-25.036 10.546-.406 9.332 10.194 11.032 17.04 8.516 6.769-2.492 13.449-12.37 7.996-19.062z" fill="#a64153"/><path d="m423.052 291.031c6.483-3.483 15.749-7.835 22.41-10.739 6.579-2.869 7.459-5.752.016-6.87-9.469-1.421-21.475 5.167-27.221 13.417-3.896 5.604-3.816 8.818 4.795 4.192z" fill="#a64153"/><path d="m821.436 483.627c-.074-2.429-.513-5.79-1.69-8.73-3.022-7.552-4.521-4.298-4.799.544-.41 7.257-3.381 14.249-4.077 16.531-.832 2.729 1.684 7.191 5.415 4.816 4.701-2.992 5.293-8.379 5.151-13.161z" fill="#a64153"/><path d="m756.954 461.03c-.596 1.84.676 3.557 2.78 4.121 3.137.834 5.543-1.529 5.711-3.759.34-4.513-7.059-4.81-8.491-.362z" fill="#a64153"/><path d="m768.804 402.849c-14.935 1.271-4.205 6.263.088 7.564 4.594 1.394 17.998 5.459 24.354 9.983 17.978 12.793 27.884-3.065 9.556-12.346-8.074-4.082-21.379-6.27-33.998-5.201z" fill="#a64153"/><path d="m683.115 370.762c-3.301-3.767-8.153-7.8-13.412-10.562-9.674-5.082-11.823-.927-5.133 5.559 5.312 5.149 9.66 12.062 12.621 18.025 7.135 14.387 19.266 9.766 13.094-3.119-1.85-3.867-5.107-7.551-7.17-9.903z" fill="#a64153"/><path d="m590.038 355.503c-5.999-4.559-13.265-9.879-20.874-13.684-10.063-5.03-10.842-1.1-4.073 5.467 8.018 7.775 14.108 16.775 21.256 25.967 4.146 5.332 13.069 11.377 18.022 3.895 4.752-7.175-10.066-18.407-14.331-21.645z" fill="#a64153"/><path d="m586.748 311.541c-3.668-.521-9.752-.677-3.653 5.215 1.959 1.884 3.938 3.78 5.627 5.909 10.611 13.382 24.377 5.476 11.133-5.035-3.801-3.018-9.016-5.509-13.107-6.089z" fill="#a64153"/><path d="m373.484 307.888c7.017 7.445 9.254 18.891 10.648 23.788 2.16 7.606 9.485 4.142 11.776-1.005 4.33-9.724-7.213-24.203-19.119-28.602-10.157-3.746-7.436 1.438-3.305 5.819z" fill="#a64153"/><path d="m312.885 555.258c-3.744-4.147-16.658-7.306-18.989 2.38-1.248 5.186 1.049 10.206 5.24 13.228 4.229 3.047 10.302 3.516 14.436.184 5.133-4.139 3.056-11.643-.687-15.792z" fill="#a64153"/><path d="m705.933 436.513c2.354 2.129 5.172 3.73 7.963 4.203 4.376.742 11.842-2.033 14.445-5.762 4.883-6.982-7.537-10.033-17.017-9.935-10.315.105-11.364 6.097-5.391 11.494z" fill="#a64153"/><g fill="#68182b"><path d="m657.781 494.618c-.149.304.155.641.469.468 3.979-2.212 8.181-9.843 2.956-13.013-3.232-1.961-7.9.465-10.572 2.278-3.488 2.371-7.863 5.914-8.279 10.439-.014.135.162.225.271.154 5.151-3.328 8.965-9.457 15.754-9.655 4.004-.115.129 7.863-.599 9.329z"/><path d="m768.383 493.181c3.644-2.226 6.081-6.2 10.667-6.754 2.454-.295.39 2.648-.463 3.506-1.447 1.459-3.017 2.724-4.212 4.411-.188.269.174.581.433.434 2.973-1.712 6.593-2.162 8.176-5.606.945-2.056.789-5.146-1.813-5.854-5.508-1.506-12.298 4.489-12.99 9.75-.015.1.123.161.202.113z"/><path d="m603.784 458.424c2.419-1.786 3.973-5.183 5.898-7.468 1.273-1.514 2.857-2.855 4.706-3.607 1.717-.698 3.697-.479 5.492-.888.194-.045.31-.308.192-.477-5.344-7.774-17.554 6.136-16.606 12.312.024.131.217.204.318.128z"/><path d="m359.24 487.953c-3.18-2.622-7.854-3.627-11.629-1.751-3.596 1.785-2.715 6.467.379 8.176.148.083.312-.052.275-.211-.441-2.049-1.715-4.563.918-5.589 2.262-.882 4.963-.124 6.996.958 2.137 1.139 3.836 3.338 5.131 5.312.733 1.115 1.372 2.411 1.523 3.751.024.556-.089 1.079-.346 1.572-1.154 2.509-3.874.699-5.077-.113-.192-.131-.444.126-.319.319 2.258 3.468 7.459 3.991 8.586-.789 1.022-4.324-3.431-9.152-6.437-11.635z"/><path d="m353.978 428.878c.273-3.719 3.145-4.461 6.141-2.742 1.662.955 2.841 2.795 3.546 4.525.561 1.377.963 3.036.53 4.496-.389 1.313-2.804.268-3.647.038-.252-.067-.519.228-.355.463 1.264 1.835 3.797 3.366 5.67 1.327 1.779-1.938.783-5.566-.141-7.642-1.435-3.228-4.008-5.85-7.619-6.358-3.736-.529-6.399 2.552-4.375 5.961.069.121.24.063.25-.068z"/><path d="m535.328 517.555c-.25-.113-.619.143-.418.418.689.963 1.258 2.116 1.697 3.219.723 1.795-.725 2.78-2.275 3.201-2.567.692-5.766-1.054-7.879-2.314-1.998-1.192-3.858-3.076-4.444-5.379-.679-2.662 2.908-3.4 4.646-4.146.207-.088.113-.369-.053-.428-2.766-1.003-6.428.227-6.838 3.465-.502 3.935 2.885 7.205 5.914 9.107 3.565 2.24 8.276 3.551 11.981 1.024 1.261-.858 2.08-2.571 1.715-4.092-.533-2.227-2.095-3.178-4.046-4.075z"/><path d="m474.632 533.828c-3.199.868-8.461 3.112-8.804 6.993-.33 3.758 4.927 5.814 7.66 3.675.133-.106.097-.371-.057-.438-.998-.446-1.997-.542-3.07-.739-3.272-.611-2.065-3.029-.123-4.459 1.493-1.101 3.428-1.654 5.183-2.17 1.918-.563 4.527-1.17 6.463-.352 2.492 1.055-1.898 5.203-2.785 6.284-.197.246-.021.657.324.559 2.916-.834 8.338-3.782 5.813-7.702-2.248-3.498-7.209-2.57-10.604-1.651z"/><path d="m246.64 499.622c.201.114.435-.072.381-.295-.287-1.21-.729-2.325-1.146-3.494-.91-2.551 1.631-2.596 3.367-2.51 2.821.135 5.963 1.354 8.601 2.315 3.076 1.119 6.817 3.021 6.942 6.732.094 2.881-6.11 3.137-7.941 3.356-.328.04-.384.439-.076.564 3.262 1.322 9.228 2.607 10.789-1.955 1.775-5.188-2.764-9.264-7.141-11.036-3.894-1.576-10.845-4.313-14.912-2.163-3.843 2.037-1.956 6.743 1.136 8.486z"/><path d="m370.222 344.619c3.438-1.755 2.196-6.613 1.026-9.368-1.5-3.535-3.639-7.15-7.323-8.691-2.902-1.212-6.377 2.006-4.521 4.857.1.155.283.135.387 0 .611-.796.726-1.979 1.54-2.6 1.036-.789 2.499.254 3.258.927 1.731 1.542 2.889 3.608 3.873 5.681.45.939 2.805 6.74.374 6.871-1.706.09-4.141-2.174-5.629-2.907-.28-.138-.561.138-.418.418 1.159 2.316 4.343 6.388 7.433 4.812z"/><path d="m654.549 371.331c-.329.063-.219.523.073.549 2.647.231 5.173 2.406 6.993 4.176 1.574 1.526 4.174 4.949 2.853 7.229-.849 1.463-3.271 1.959-4.771 1.695-1.658-.289-2.928-1.635-4.016-2.811-2.338-2.531-2.777-5.758-4.351-8.648-.08-.152-.295-.104-.344.045-1.233 3.641 1.978 9.152 4.463 11.597 2.927 2.872 8.211 3.19 10.879-.27 4.754-6.16-5.891-14.682-11.779-13.562z"/><path d="m628.695 554.862c-1.37 6.265-4.606 11.941-11.298 13.557-4.896 1.185-2.888-4.518-1.545-6.762 2.077-3.473 5.204-5.621 8.364-7.97.162-.12.117-.38-.104-.387-4.869-.151-9.25 4.668-11.451 8.555-1.633 2.883-2.209 7.399 1.357 9.034 3.729 1.709 8.607-1.138 11.424-3.394 3.795-3.04 5.077-8.039 3.877-12.635-.079-.297-.556-.317-.624.002z"/><path d="m364.662 680.513c-5.764-.308-14.082 1.709-16.567 7.535-.135.313.237.688.508.396 1.412-1.545 3.688-1.967 5.507-2.887 2.411-1.216 5.298-1.892 7.965-2.141 3.743-.349 9.737 1.271 10.089 5.837.347 4.439-8.313 4.734-11.054 4.797-3.8.086-7.038-1.11-10.681-1.668-.129-.019-.243.099-.174.226 2.424 4.426 10.993 4.18 15.198 3.813 4.416-.382 9.902-2.651 9.498-7.888-.373-4.791-6.037-7.796-10.289-8.02z"/><path d="m787.355 588.757c-.15-.063-.273.166-.156.271 14.232 12.41 31.855 17.202 50.549 13.935.234-.04.232-.425 0-.468-8.237-1.502-16.598-1.699-24.823-3.225-9.328-1.728-16.982-6.965-25.57-10.513z"/><path d="m840.49 602.604c-.096.055-.096.193 0 .247 1.793 1.052 4.119 1.175 5.764-.188.146-.122.113-.416-.063-.495-1.828-.797-3.993-.569-5.701.436z"/><path d="m885.646 542.755c9.264-9.826 16.398-25.252 12.045-38.791-.05-.152-.283-.129-.283.038.015 6.638-.444 12.714-2.612 19.035-2.343 6.824-6.607 12.849-9.558 19.403-.117.254.191.547.408.315z"/><path d="m772.633 552.765c-.141.323.247.703.523.404 5.88-6.382 9.211-17.706 4.539-25.664-.092-.16-.391-.104-.368.101.479 4.122.829 7.916.102 12.053-.791 4.485-2.994 8.945-4.796 13.106z"/><path d="m769.467 557.521c1.513-.07 2.308-1.047 2.572-2.498.042-.246-.184-.431-.411-.315-1.158.583-2 1.243-2.423 2.472-.055.161.093.346.262.341z"/><path d="m724.566 600.2c-.245 0-.279.292-.113.418 4.289 3.297 11.109.958 14.396-2.606.178-.192 0-.466-.245-.421-4.794.897-9.063 2.629-14.038 2.609z"/><path d="m822.662 490.998c4.343-4.921 7.482-15.925 2.156-21.338-.076-.076-.217-.021-.215.091.114 7.047.201 14.229-2.498 20.924-.123.309.344.564.557.323z"/><path d="m798.201 406.806c6.024 1.776 11.707 4.583 17.469 7.053.271.113.556-.188.328-.426-8.079-8.362-22.786-12.082-34.155-11.79-.213.006-.229.281-.047.354 5.293 2.102 10.95 3.199 16.405 4.809z"/><path d="m820.123 417.356c.111.009.253-.093.271-.205.226-1.58-1.433-2.344-2.798-2.603-.193-.035-.377.155-.267.342.657 1.082 1.465 2.349 2.794 2.466z"/><path d="m736.396 368.151c7.185-1.318 14.461-1.816 21.641-3.155.301-.056.308-.56 0-.606-14.075-2.225-29.686 1.844-42.45 7.686-.104.047-.058.234.059.219 6.998-.915 13.807-2.871 20.75-4.144z"/><path d="m765.908 365.452c.107-.085.099-.28 0-.368-1.223-1.113-3.436-1.309-4.936-.639-.182.081-.164.323-.057.45 1.161 1.383 3.606 1.684 4.993.557z"/><path d="m678.446 428.188c-.144.073-.038.272.104.246 14.122-2.705 27.8-1.398 41.986-.679.302.017.445-.455.16-.588-11.853-5.438-30.624-4.854-42.25 1.021z"/><path d="m728.16 428.831c.162-.072.179-.326.058-.438-1.313-1.219-3.478-1.411-5.125-.786-.084.03-.131.141-.058.211 1.334 1.236 3.451 1.751 5.125 1.013z"/><path d="m551.416 436.317c-.036.149.171.311.285.166 7.998-10.197 18.168-18.964 29.373-25.505.271-.159.086-.563-.209-.494-6.764 1.561-12.047 5.785-17.271 10.188-4.745 4.007-10.733 9.298-12.178 15.645z"/><path d="m587.806 407.726c.111-.159-.004-.37-.17-.423-1.688-.542-3.661.413-4.597 1.888-.104.16.035.333.201.351 1.664.176 3.609-.42 4.566-1.816z"/><path d="m465.446 490.948c9.567-.559 18.415-1.115 26.705-6.263.278-.174.1-.647-.229-.543-15.963 5.136-36.599 5.882-53.17 4.154-.159-.016-.224.233-.08.301 8.36 4.103 17.73 2.881 26.774 2.351z"/><path d="m500.82 482.023c.125-.155.08-.368-.115-.438-2.079-.715-4.44.023-6.042 1.477-.187.169-.064.435.137.511 2.071.801 4.61.17 6.02-1.55z"/><path d="m417.939 509.315c-7.426 5.155-13.727 18.228-5.904 25.433.234.214.664.007.56-.323-1.374-4.298-1.816-8.33-.571-12.724 1.269-4.476 4.212-8.01 6.161-12.142.068-.144-.085-.356-.246-.244z"/><path d="m413.796 536.378c-.089-.051-.232-.006-.25.104-.314 1.804 1.062 3.979 2.914 4.255.329.05.732-.21.596-.598-.518-1.464-1.941-2.969-3.26-3.761z"/><path d="m340.029 584.819c-1.793-8.599-.262-16.73.744-25.268.021-.175-.238-.223-.318-.085-7.34 12.646-5.774 42.868 11.861 46.747.318.069.564-.31.323-.558-6.266-6.4-10.723-11.776-12.61-20.836z"/><path d="m355.281 607.368c-.199-.019-.301.225-.217.378.959 1.794 3.617 2.46 5.236 1.243.137-.102.19-.347 0-.437-1.519-.709-3.349-1.037-5.019-1.184z"/><path d="m539.919 606.512c-6.787 3.58-13.618 4.79-21.15 5.534-.201.021-.248.285-.049.354 11.979 4.121 27.369-3.926 35.11-12.892.248-.287-.061-.698-.403-.522-4.601 2.354-8.939 5.118-13.508 7.526z"/><path d="m560.849 592.136c-1.668 1.472-3.039 3.038-4.561 4.65-.146.151-.054.463.186.445 2.895-.228 4.801-1.906 4.929-4.866.013-.299-.353-.405-.554-.229z"/><path d="m451.548 592.61c-1.927 13.565-3.927 25.014-13.896 35.21-.268.275.072.701.404.523 12.233-6.553 15.356-22.91 13.811-35.69-.022-.164-.293-.24-.319-.043z"/><path d="m431.843 631.63c-.09.178-.021.447.201.49 1.703.33 4.142-.707 3.845-2.708-.021-.141-.175-.229-.304-.231-1.433-.035-3.107 1.198-3.742 2.449z"/><path d="m360.251 646.774c-13.816-2.677-32.432 1.967-43.644 10.461-.178.135-.084.444.158.379 7.249-1.973 14.172-4.97 21.475-6.857 7.204-1.865 14.674-2.297 22.011-3.426.28-.045.27-.503 0-.557z"/><path d="m368.884 646.747c.189-.052.282-.328.123-.468-1.759-1.519-4.992-1.785-6.613.113-.049.062-.043.142.025.187 1.778 1.192 4.518.688 6.465.168z"/><path d="m478.898 700.212c-7.293-7.172-10.787-15.356-13.502-24.996-.054-.199-.316-.141-.334.045-1.764 17.166 15.746 34.644 30.896 39.693.249.08.472-.279.263-.453-5.765-4.803-11.961-9.014-17.323-14.289z"/><path d="m498.681 715.628c-.135-.027-.295.062-.285.217.137 2.093 3.734 4.459 5.359 2.545.094-.112.145-.282.053-.416-.49-.704-1.098-.916-1.926-1.11-1.126-.269-2.066-1.019-3.201-1.236z"/><path d="m659.345 719.501c16.144-10.902 30.524-29.049 34.336-48.504.042-.217-.273-.383-.381-.158-8.826 18.588-19.507 33.832-34.238 48.293-.184.183.059.519.283.369z"/><path d="m652.955 723.802c-.401.312-.175.92.349.823 1.547-.286 3.512-.96 3.873-2.667.037-.176-.076-.316-.252-.33-1.556-.124-2.81 1.285-3.97 2.174z"/><path d="m638.948 589.157c-.065-.17-.307-.148-.317.042-.554 9.569 2.85 23.423 10.963 29.305.233.169.487-.151.371-.368-2.599-4.858-5.414-9.287-7.188-14.563-1.59-4.724-1.979-9.789-3.829-14.416z"/><path d="m651.875 619.771c-.153-.112-.411.035-.393.226.158 1.523 1.141 3.454 2.852 3.499.181.005.339-.155.334-.333-.032-1.538-1.641-2.559-2.793-3.392z"/><path d="m580.326 604.612c-.126.03-.133.234 0 .26 5.138.949 9.968 1.943 14.627 4.417 4.194 2.226 7.07 6.089 11.163 8.374.221.121.518-.079.438-.336-2.906-9.158-17.461-14.818-26.228-12.715z"/><path d="m608.371 618.846c.019 1.03.373 1.871.9 2.741.26.43.742.609 1.227.497.244-.054.298-.102.48-.279.332-.324.434-.915.168-1.314-.654-.992-1.363-1.707-2.577-1.842-.105-.012-.2.098-.198.197z"/><path d="m621.406 526.097c-.082.108.076.257.187.187 4.992-3.344 9.928-6.271 15.528-8.508 4.935-1.968 10.199-2.798 15.274-4.292.247-.074.286-.488 0-.54-10.341-1.823-24.729 4.923-30.989 13.153z"/><path d="m578.673 348.731c-.125-.035-.236.138-.132.225 5.974 5.047 12.522 9.166 18.136 14.693 6.066 5.973 10.194 12.674 14.493 19.916.156.268.617.167.603-.164-.385-7.939-6.643-14.537-11.896-19.966-5.637-5.826-13.336-12.329-21.204-14.704z"/><path d="m572.88 344.814c-.248.021-.431.329-.218.522 1.041.948 2.214 2 3.67 1.834.248-.029.398-.252.279-.488-.668-1.341-2.27-1.989-3.731-1.868z"/><path d="m516.89 314.93c-.301.162-.092.626.229.542 16.72-4.347 32.333-4.754 49.429-5.205.301-.01.346-.419.068-.514-15.168-5.156-35.741-2.326-49.726 5.177z"/><path d="m575.259 310.569c.241-.069.278-.391.069-.523-1.703-1.075-3.653-1.17-5.453-.259-.166.083-.163.353 0 .437 1.698.865 3.573.877 5.384.345z"/><path d="m538.212 365.792c6.016 5.752 10.604 12.752 15.413 19.487.188.259.648.112.544-.229-4.672-15.236-20.517-30.156-35.641-34.931-.218-.069-.306.228-.144.345 6.772 4.996 13.717 9.479 19.828 15.328z"/><path d="m556.986 393.894c.959-1.93.064-5.003-1.81-6.127-.186-.11-.419.031-.421.24-.015 1.844.813 4.32 1.78 5.887.099.158.361.184.451 0z"/><path d="m411.448 406.938c5.304 3.523 9.32 8.279 13.854 12.65.209.203.582.003.495-.287-3.3-10.922-18.531-19.863-29.356-21.122-.195-.021-.245.264-.094.352 4.955 2.972 10.262 5.192 15.101 8.407z"/><path d="m412.744 345.308c-6.114 7.874-8.52 20.092-5.409 29.549.127.381.637.291.672-.09.467-4.977.303-9.953.973-14.915.676-5.003 2.819-9.55 4.006-14.405.032-.129-.145-.261-.242-.139z"/><path d="m313.722 355.484c7.199 3.784 12.775 9.313 19.26 14.048.23.166.494-.15.371-.371-6.796-12.071-26.063-20.951-39.379-22.439-.124-.014-.176.184-.063.233 6.547 3.014 13.397 5.159 19.811 8.529z"/><path d="m337.65 374.173c.188.076.332-.112.354-.27.241-1.851-1.37-3.364-3.158-3.48-.201-.014-.359.211-.303.397.451 1.497 1.671 2.767 3.107 3.353z"/><path d="m309.416 403.329c.367.129.599-.361.359-.615-7.979-8.458-25.958-8.389-35.506-2.844-.27.158-.08.527.2.478 12.678-2.234 22.86-1.262 34.947 2.981z"/><path d="m315.796 407.194c.157.05.266-.105.243-.242-.257-1.624-1.842-2.344-3.356-2.494-.229-.022-.299.271-.172.414.869.965 2.043 1.93 3.285 2.322z"/><path d="m242.085 384.551c.274.069.521-.29.289-.495-9.414-8.279-30.59-3.604-39.161 4.145-.104.092.005.259.13.225 13.455-3.581 24.682-7.386 38.742-3.875z"/><path d="m250.007 387.692c.162-.043.258-.252.162-.398-1.029-1.563-3.111-2.08-4.902-1.814-.189.027-.197.271-.104.391 1.117 1.371 3.098 2.267 4.844 1.821z"/><path d="m168.382 410.575c-12.461 8.979-19.021 29.383-17.432 44.208.03.283.422.366.512.068 4.744-15.854 7.076-30.286 17.188-44.008.119-.155-.112-.381-.268-.268z"/><path d="m150.24 458.13c-1.191 1.497-1.855 4.027-.41 5.519.147.149.401.109.509-.065.901-1.493.739-3.786.157-5.386-.036-.097-.178-.168-.256-.068z"/><path d="m132.771 500.394c10.617-5.657 22.232-8.731 33.506-12.729.373-.133.341-.746-.1-.725-20.537 1.103-44.436 12.586-57.705 28.438-.137.164.037.436.238.311 8.125-5.026 15.59-10.784 24.061-15.295z"/><path d="m173.964 486.046c.1-.13.039-.313-.056-.424-1.22-1.444-3.946-.617-4.985.746-.049.063-.009.171.057.209 1.421.844 3.939.834 4.984-.531z"/><path d="m184.435 579.339c-5.971-1.578-10.205-4.896-14.676-8.977-.154-.141-.375.036-.283.219 4.565 9.055 18.32 14.813 28.158 12.877.279-.054.295-.442.076-.575-3.898-2.351-8.924-2.393-13.275-3.544z"/><path d="m205.847 582.75c-1.348-.901-3.376-.706-4.685.181-.169.111-.169.336 0 .449 1.309.886 3.337 1.082 4.685.18.301-.203.301-.608 0-.81z"/><path d="m280.888 585.821c2.293 5.146 5.62 9.791 8.071 14.88 2.71 5.622 3.564 11.83 4.423 17.939.043.313.545.289.606 0 2.496-11.59-4.288-25.303-12.858-33.004-.136-.119-.31.031-.242.185z"/><path d="m293.443 621.081c-.612 1.695-1.219 3.57-.584 5.318.063.17.297.272.437.113 1.34-1.523 1.643-3.722.608-5.491-.118-.202-.389-.138-.461.06z"/><path d="m314.506 447.823c-3.028 9.582 1.091 23.841 9.847 29.348.234.148.469-.135.355-.354-4.868-9.65-10.062-17.615-9.813-28.939.005-.232-.323-.264-.389-.055z"/><path d="m327.013 478.284c-.321-.205-.791.137-.66.508.57 1.633 1.773 3.52 3.6 3.695.183.018.377-.179.359-.36-.164-1.747-1.896-2.941-3.299-3.843z"/><path d="m410.378 287.964c3.783-4.153 7.461-8.088 12.129-11.288 4.174-2.858 8.952-4.614 13.237-7.271.269-.168.154-.575-.159-.586-10.104-.347-22.402 9.626-25.492 18.979-.056.162.17.289.285.166z"/><path d="m442.181 268.138c.102-.138.021-.34-.107-.418-1.16-.695-2.92-.342-3.961.442-.08.059-.08.157 0 .216 1.191.889 3.131 1.027 4.068-.24z"/><path d="m489.294 284.679c3.37-.418 6.655-.373 9.979-1.165.273-.065.275-.49 0-.554-6.867-1.587-15.31-.393-21.146 3.63-.108.074-.043.245.09.214 3.656-.877 7.341-1.664 11.077-2.125z"/><path d="m506.828 283.493c.191-.107.191-.404 0-.512-1.438-.814-3.416-.695-4.873.053-.151.079-.151.326 0 .405 1.457.749 3.435.869 4.873.054z"/><path d="m646.277 326.105c.271 0 .361-.364.137-.503-4.307-2.66-10.844-3.576-15.226-.551-.188.127-.138.463.122.451 5.065-.206 9.937.608 14.967.603z"/><path d="m696.392 387.425c2.504 3.829 3.701 8.201 5.786 12.227.097.188.441.164.478-.062 1.262-8.718-7.08-19.315-14.559-22.956-.174-.084-.342.121-.207.27 3.065 3.333 6.018 6.72 8.502 10.521z"/><path d="m703.658 404.724c.17.112.396.029.492-.129.689-1.084.484-2.719-.85-3.189-.043-.014-.103.003-.131.036-.941 1.076-.617 2.536.489 3.282z"/><path d="m657.007 447.595c.299-.069.287-.514 0-.59-6.58-1.77-16.249 1.25-20.685 6.461-.142.168-.012.463.229.392 3.204-.968 6.214-2.531 9.388-3.609 3.587-1.213 7.39-1.789 11.068-2.654z"/><path d="m724.197 529.479c-5.928 4.554-11.326 12.596-12.938 19.9-.071.33.364.666.616.359 2.397-2.916 4.092-6.244 6.034-9.467 2.133-3.535 4.597-6.914 6.509-10.572.067-.128-.086-.327-.221-.22z"/><path d="m859.455 555.128c-3.807-5.315-13.049-7.967-19.222-6.076-.132.041-.142.242 0 .279 6.523 1.652 12.739 3.373 18.927 6.092.175.076.438-.1.295-.295z"/><path d="m864.523 558.374c.109-.037.205-.137.197-.26-.078-1.525-1.816-2.071-3.148-1.997-.242.013-.346.277-.189.461.801.943 1.783 2.251 3.14 1.796z"/><path d="m883.375 546.583c.597-.402 2.359-1.869 1.289-2.689-1.018-.782-2.129.582-2.639 1.341-.547.811.539 1.897 1.35 1.348z"/><path d="m488.531 626.795c.189-.226-.043-.513-.307-.396-4.926 2.215-10.469 2.133-15.34 4.237-.181.076-.14.4.055.428 5.359.751 11.953.062 15.592-4.269z"/><path d="m280.156 539.387c-1.981 2.596-2.431 5.813-2.754 8.99-.309 3.031-.611 6.534.71 9.348.112.238.526.243.64 0 1.171-2.543.782-5.302.859-8.05.101-3.425.805-6.767.964-10.174.01-.246-.298-.272-.419-.114z"/><path d="m313.535 518.321c.312-.189.177-.658-.182-.67-5.363-.16-10.326.539-15.705-.39-4.544-.783-8.853-2.608-13.422-3.237-.168-.022-.268.178-.117.28 7.362 5.05 21.248 8.996 29.426 4.017z"/><path d="m320.916 516.635c.07-.161.046-.333-.112-.432-1.357-.845-3.152.273-4.211 1.208-.222.192-.025.496.216.521 1.364.142 3.482.158 4.107-1.297z"/><path d="m384.925 307.696c3.42 2.817 5.983 6.605 9.606 9.145.273.193.597-.121.527-.404-1.164-4.938-5.693-8.531-9.525-11.498-4.021-3.113-8.729-5.678-13.848-6.205-.148-.017-.188.199-.071.268 4.604 2.726 9.161 5.274 13.311 8.694z"/><path d="m399.238 322.582c.212.056.363-.099.388-.294.245-1.883-1.279-3.189-2.888-3.828-.273-.107-.563.214-.477.477.516 1.544 1.291 3.207 2.977 3.645z"/><path d="m520.976 403.935c.295.021.381-.397.146-.536-3.414-2.017-7.1-3.011-10.844-4.239-4.625-1.521-9.006-3.554-13.417-5.597-.124-.059-.259.09-.153.197 5.969 6.018 15.93 9.553 24.268 10.175z"/><path d="m521.912 439.551c1.716 2.146 2.841 5.001 5.433 6.19.199.092.467-.015.461-.265-.076-2.991-2.316-5.461-4.123-7.695-1.758-2.18-4.435-4.3-7.313-4.497-.268-.02-.381.332-.209.506 1.932 1.958 4.017 3.588 5.751 5.761z"/></g></g></g></svg>