<?xml version="1.0" encoding="UTF-8"?>
<!-- Generator: Adobe Illustrator 27.0.0, SVG Export Plug-In . SVG Version: 6.00 Build 0)  -->
<svg xmlns="http://www.w3.org/2000/svg" xmlns:xlink="http://www.w3.org/1999/xlink" version="1.1" id="Capa_1" x="0px" y="0px" viewBox="0 0 512 512" style="enable-background:new 0 0 512 512;" xml:space="preserve" width="512" height="512">
<g>
	<g>
		<g>
			<path style="fill:#FFF4C2;" d="M450.57,288.407c-4.533-11.56-1.214-28.31-9.528-37.793c-8.074-9.209-25.244-8.322-36.141-14.915     c-10.425-6.308-17.375-22.031-29.729-25.368c-4.626-1.249-9.608-0.446-14.735,0.97c-0.776-7.524-1.832-14.921-6.396-20.126     c-8.074-9.209-25.244-8.321-36.142-14.915c-10.425-6.308-17.375-22.031-29.728-25.367c-11.703-3.161-25.667,6.751-38.541,6.751     c-12.875,0-26.841-9.911-38.544-6.75c-12.352,3.336-19.301,19.059-29.724,25.366c-10.898,6.594-28.068,5.706-36.142,14.914     c-8.315,9.483-4.995,26.233-9.529,37.793c-1.708,4.354-4.768,8.519-7.905,12.712c-9.079-0.335-18.384-1.378-25.204,2.867     c-10.708,6.663-12.389,23.656-20.081,33.404c-7.621,9.658-23.816,15.348-27.53,27.6c-3.713,12.252,6.598,25.975,7.574,38.238     c0.985,12.378-7.049,27.446-1.844,38.932c5.056,11.155,21.745,15.286,30.261,24.757c8.147,9.061,10.237,26.123,21.093,32.9     c10.283,6.419,26.522,0.984,38.842,4.718c12.322,3.734,22.812,17.271,34.929,17.64c12.789,0.39,23.999-12.641,35.804-15.654     c12.341-3.149,28.516,2.68,38.913-3.79c8.446-5.256,11.284-16.929,15.878-26.413c6.633,7.12,12.741,15.988,21.667,18.398     c11.703,3.161,25.667-6.751,38.542-6.751c12.875,0,26.841,9.911,38.544,6.75c12.352-3.336,19.301-19.059,29.725-25.366     c10.897-6.594,28.066-5.706,36.141-14.914c8.315-9.483,4.995-26.233,9.529-37.793c4.492-11.453,18.341-21.596,18.341-34.399     C468.911,310.002,455.062,299.86,450.57,288.407z"/>
			<g>
				<path style="fill:#220705;" d="M129.111,307.328c-3.977,0-6.645-3.012-8.84-5.491c-2.36-2.666-3.647-3.89-5.277-3.558      c-1.495,0.311-2.96-0.67-3.26-2.168c-0.3-1.498,0.671-2.958,2.168-3.26c4.955-0.984,8.027,2.509,10.517,5.315      c2.36,2.671,3.658,3.896,5.277,3.56c1.63-0.327,2.349-1.952,3.496-5.323c1.211-3.555,2.714-7.978,7.645-8.97      c4.958-0.979,8.035,2.503,10.525,5.312c2.365,2.666,3.652,3.888,5.291,3.558c1.633-0.327,2.352-1.952,3.504-5.329      c1.211-3.552,2.717-7.975,7.648-8.967c1.487-0.308,2.958,0.67,3.26,2.168c0.3,1.498-0.668,2.958-2.168,3.26      c-1.63,0.327-2.349,1.952-3.501,5.326c-1.211,3.555-2.72,7.978-7.651,8.97c-4.931,1.006-8.035-2.503-10.525-5.312      c-2.365-2.666-3.671-3.893-5.291-3.558c-1.63,0.327-2.349,1.952-3.496,5.323c-1.211,3.555-2.714,7.978-7.645,8.97      C130.204,307.271,129.644,307.328,129.111,307.328z"/>
				<path style="fill:#220705;" d="M275.167,293.584c-0.332,0-0.676-0.022-1.03-0.062c-4.993-0.587-6.856-4.872-8.354-8.316      c-1.422-3.268-2.274-4.831-3.928-5.026c-1.655-0.219-2.836,1.125-4.974,3.977c-2.255,3.004-5.031,6.732-10.052,6.156      c-4.993-0.587-6.853-4.874-8.346-8.319c-1.419-3.266-2.266-4.828-3.912-5.02c-1.519-0.178-2.606-1.555-2.428-3.071      c0.178-1.519,1.563-2.617,3.071-2.428c4.993,0.587,6.853,4.872,8.346,8.316c1.419,3.268,2.268,4.828,3.915,5.023      c1.644,0.203,2.836-1.127,4.977-3.979c2.252-3.004,5.077-6.707,10.052-6.153c4.996,0.587,6.859,4.874,8.357,8.319      c1.422,3.268,2.271,4.828,3.925,5.023c1.619,0.211,2.839-1.127,4.98-3.977c2.255-3.006,5.053-6.721,10.06-6.156      c1.517,0.178,2.604,1.554,2.425,3.074c-0.178,1.519-1.536,2.614-3.074,2.425c-1.636-0.211-2.844,1.127-4.983,3.979      C282.099,290.158,279.528,293.584,275.167,293.584z"/>
				<path style="fill:#220705;" d="M339.669,243.237c-1.222,0-2.49-0.284-3.798-0.989c-4.426-2.39-4.577-7.059-4.699-10.811      c-0.114-3.563-0.327-5.329-1.792-6.121c-1.468-0.792-3.055,0.003-6.096,1.86c-3.198,1.96-7.191,4.401-11.611,2.011      c-4.423-2.387-4.572-7.056-4.688-10.809c-0.114-3.561-0.327-5.326-1.784-6.113c-1.346-0.725-1.849-2.406-1.122-3.75      c0.727-1.346,2.409-1.852,3.75-1.122c4.423,2.387,4.572,7.056,4.688,10.809c0.114,3.561,0.327,5.326,1.784,6.113      c1.46,0.784,3.055-0.006,6.096-1.86c3.198-1.96,7.189-4.399,11.612-2.011c4.428,2.39,4.58,7.061,4.699,10.814      c0.116,3.563,0.33,5.329,1.792,6.118c1.476,0.787,3.066,0,6.102-1.86c3.204-1.955,7.194-4.396,11.614-2.006      c1.346,0.727,1.849,2.406,1.122,3.75c-0.724,1.346-2.409,1.852-3.75,1.122c-1.465-0.787-3.055-0.003-6.099,1.86      C345.23,241.62,342.584,243.237,339.669,243.237z"/>
				<path style="fill:#220705;" d="M186.249,207.321c-3.771,0-6.477-2.771-8.716-5.064c-2.49-2.547-3.825-3.709-5.445-3.298      c-1.476,0.376-2.987-0.522-3.361-2.009c-0.373-1.482,0.525-2.987,2.009-3.36c4.872-1.233,8.135,2.114,10.76,4.801      c2.49,2.549,3.847,3.709,5.445,3.298c1.611-0.406,2.249-2.065,3.233-5.491c1.038-3.609,2.325-8.1,7.199-9.33      c4.885-1.233,8.148,2.114,10.773,4.796c2.493,2.549,3.82,3.712,5.456,3.298c1.614-0.408,2.255-2.065,3.239-5.491      c1.038-3.609,2.33-8.1,7.208-9.33c1.49-0.368,2.987,0.524,3.36,2.009c0.373,1.482-0.524,2.987-2.009,3.361      c-1.611,0.405-2.252,2.065-3.236,5.491c-1.038,3.609-2.33,8.1-7.21,9.33c-4.882,1.23-8.143-2.111-10.768-4.796      c-2.493-2.547-3.817-3.704-5.458-3.298c-1.609,0.406-2.249,2.063-3.231,5.488c-1.038,3.609-2.328,8.102-7.202,9.332      C187.58,207.24,186.898,207.321,186.249,207.321z"/>
				<path style="fill:#220705;" d="M420.563,310.17c-0.332,0-0.676-0.022-1.03-0.062c-4.996-0.587-6.859-4.874-8.356-8.319      c-1.422-3.269-2.271-4.828-3.926-5.023c-1.66-0.235-2.841,1.13-4.974,3.979c-2.255,3.004-5.034,6.732-10.054,6.153      c-4.991-0.587-6.851-4.872-8.346-8.316c-1.417-3.268-2.266-4.828-3.915-5.023c-1.517-0.179-2.603-1.555-2.425-3.074      s1.56-2.617,3.074-2.425c4.991,0.587,6.851,4.874,8.346,8.319c1.417,3.266,2.266,4.826,3.912,5.02      c1.646,0.203,2.839-1.127,4.98-3.977c2.252-3.004,5.061-6.74,10.049-6.156c4.996,0.587,6.859,4.872,8.357,8.316      c1.422,3.268,2.274,4.831,3.928,5.026c1.627,0.216,2.839-1.125,4.98-3.977c2.255-3.001,5.085-6.721,10.057-6.153      c1.517,0.178,2.604,1.554,2.425,3.074c-0.176,1.519-1.541,2.609-3.074,2.425c-1.641-0.205-2.839,1.125-4.98,3.977      C427.495,306.744,424.924,310.17,420.563,310.17z"/>
			</g>
		</g>
		<g>
			<path style="fill:#00A727;" d="M479.253,328.007c-18.891-2.415-86.89-8.031-142.025,26.593     c-11.776,7.395-22.113,16.136-31.211,25.456c-7.011-31.434-35.747-56.528-44.691-63.701c-1.568-1.258-3.773-1.258-5.341,0     c-8.883,7.123-37.273,31.923-44.533,63.051c-8.944-9.074-19.066-17.583-30.568-24.805     C125.75,319.976,57.751,325.592,38.86,328.007c-2.698,0.345-4.399,3.053-3.537,5.634c6.029,18.065,30.507,81.754,85.642,116.378     c40.544,25.461,88.044,29.163,117.858,28.378c10.255-0.27,30.21-0.27,40.471,0c29.813,0.785,77.314-2.917,117.858-28.378     c55.135-34.624,79.612-98.313,85.642-116.378C483.653,331.06,481.952,328.352,479.253,328.007z"/>
			<path style="fill:#220705;" d="M478.637,332.322c-0.811-1.292-2.517-1.684-3.817-0.87l-51.355,32.25l9.656-31.206     c0.452-1.463-0.365-3.012-1.825-3.463c-1.465-0.449-3.012,0.368-3.463,1.825l-11.561,37.361l-56.5,35.481l18.69-60.42     c0.452-1.463-0.365-3.012-1.825-3.463c-1.465-0.449-3.012,0.368-3.463,1.825l-20.594,66.574l-56.458,35.455l19.357-62.556     c0.452-1.462-0.365-3.012-1.825-3.463c-1.468-0.449-3.012,0.368-3.463,1.825l-21.262,68.711l-27.49,17.263v-49.945l37.211-43.295     c0.995-1.157,0.862-2.906-0.297-3.904c-1.152-0.992-2.901-0.865-3.904,0.297l-33.009,38.407v-84.472     c0-1.53-1.238-2.768-2.768-2.768c-1.53,0-2.768,1.238-2.768,2.768v84.472l-32.758-38.11c-0.998-1.162-2.747-1.29-3.904-0.297     c-1.16,0.998-1.292,2.747-0.297,3.904l36.959,42.998v49.46l-26.717-16.777l-21.262-68.711c-0.451-1.457-1.998-2.274-3.463-1.825     c-1.46,0.451-2.276,2.001-1.825,3.463l19.357,62.556l-56.462-35.457l-20.593-66.572c-0.452-1.457-1.995-2.271-3.463-1.825     c-1.46,0.451-2.276,2.001-1.825,3.463l18.689,60.417l-56.5-35.481l-11.557-37.359c-0.451-1.457-1.993-2.274-3.463-1.825     c-1.46,0.452-2.276,2.001-1.825,3.463l9.653,31.204l-51.352-32.248c-1.298-0.808-3.006-0.419-3.817,0.87     c-0.814,1.295-0.424,3.004,0.871,3.817l51.357,32.251l-32.065,4.808c-1.511,0.227-2.555,1.638-2.328,3.15     c0.205,1.373,1.387,2.357,2.736,2.357c0.135,0,0.273-0.011,0.414-0.03l38.443-5.764l56.485,35.471l-62.231,9.367     c-1.514,0.23-2.555,1.638-2.328,3.15c0.208,1.373,1.39,2.357,2.736,2.357c0.135,0,0.276-0.011,0.414-0.03l68.604-10.326     l56.475,35.466l-63.207,9.497c-1.511,0.227-2.555,1.638-2.328,3.15c0.208,1.373,1.387,2.357,2.736,2.357     c0.135,0,0.276-0.011,0.414-0.03l69.583-10.455l28.832,18.106c0.46,0.287,0.968,0.424,1.471,0.424c0.922,0,4.074,0,4.996,0     c0.503,0,1.011-0.138,1.471-0.424l28.832-18.106l69.583,10.455c0.138,0.019,0.278,0.03,0.414,0.03     c1.349,0,2.528-0.984,2.736-2.357c0.227-1.511-0.816-2.922-2.328-3.15l-63.207-9.497l56.474-35.465l68.605,10.326     c0.138,0.019,0.279,0.03,0.414,0.03c1.346,0,2.528-0.984,2.736-2.357c0.227-1.511-0.814-2.92-2.328-3.15l-62.232-9.366     l56.484-35.471l38.441,5.764c0.141,0.019,0.278,0.03,0.414,0.03c1.349,0,2.531-0.984,2.736-2.357     c0.227-1.511-0.816-2.923-2.328-3.15l-32.063-4.808l51.358-32.252C479.061,335.326,479.45,333.617,478.637,332.322z"/>
		</g>
	</g>
	<g>
		
			<ellipse transform="matrix(0.2298 -0.9732 0.9732 0.2298 -142.2343 202.3373)" style="fill:#00A727;" cx="56.715" cy="191.029" rx="56.715" ry="56.715"/>
		<g>
			<path style="fill:#220705;" d="M5.543,189.505c-0.827,0-1.646-0.368-2.193-1.073c-0.935-1.208-0.714-2.947,0.495-3.885     l21.547-16.686c1.214-0.935,2.947-0.716,3.885,0.495c0.935,1.208,0.714,2.947-0.495,3.885L7.236,188.927     C6.73,189.316,6.135,189.505,5.543,189.505z"/>
			<path style="fill:#220705;" d="M14.83,222.582c-0.797,0-1.587-0.341-2.133-1c-0.976-1.176-0.814-2.922,0.362-3.898l22.509-18.676     c1.176-0.984,2.925-0.811,3.898,0.362c0.976,1.176,0.814,2.922-0.362,3.898l-22.509,18.676     C16.079,222.374,15.452,222.582,14.83,222.582z"/>
			<path style="fill:#220705;" d="M40.772,241.536c-0.703,0-1.406-0.265-1.946-0.8c-1.087-1.073-1.098-2.828-0.022-3.915     l12.071-12.212c1.073-1.084,2.822-1.1,3.915-0.022c1.087,1.073,1.098,2.828,0.022,3.915l-12.071,12.212     C42.2,241.261,41.486,241.536,40.772,241.536z"/>
			<path style="fill:#220705;" d="M77.459,164.173c6.491-0.998,10.9-6.315,12.414-14.975c0.262-1.506-0.746-2.939-2.252-3.204     c-1.517-0.254-2.941,0.746-3.204,2.252c-0.757,4.339-2.728,9.673-7.802,10.454c-9.605,1.479-11.983,13.875-12.548,21.207     c-0.363-0.227-0.725-0.453-1.081-0.674c-5.926-3.677-10.208-6.334-10.433-14.304c-0.314-10.984-6.642-19.235-17.816-23.231     c-1.444-0.519-3.023,0.238-3.539,1.673c-0.516,1.441,0.235,3.025,1.673,3.539c6.28,2.247,13.834,7.224,14.145,18.176     c0.314,10.946,6.788,14.966,13.05,18.851c6.61,4.104,13.447,8.346,15.277,21.774c2.193,16.099-4.115,27.454-9.795,34.145     c-0.989,1.168-0.846,2.914,0.319,3.904c0.522,0.441,1.157,0.657,1.792,0.657c0.784,0,1.563-0.333,2.111-0.976     c6.407-7.553,13.528-20.357,11.06-38.476c-1.536-11.256-6.284-17.254-11.392-21.333     C69.525,177.765,71.024,165.164,77.459,164.173z"/>
			<path style="fill:#220705;" d="M108.17,194.423c-0.533,0-1.07-0.154-1.546-0.473l-18.951-12.782     c-1.265-0.854-1.6-2.576-0.746-3.844c0.854-1.268,2.574-1.598,3.844-0.746l18.951,12.782c1.265,0.854,1.601,2.576,0.746,3.844     C109.933,193.996,109.06,194.423,108.17,194.423z"/>
			<path style="fill:#220705;" d="M99.649,223.299c-0.646,0-1.292-0.224-1.817-0.681l-9.378-8.167     c-1.154-1.003-1.276-2.752-0.27-3.904c1.006-1.157,2.755-1.271,3.904-0.27l9.378,8.167c1.154,1.003,1.276,2.752,0.27,3.904     C101.19,222.977,100.419,223.299,99.649,223.299z"/>
		</g>
	</g>
	<g>
		
			<ellipse transform="matrix(0.7071 -0.7071 0.7071 0.7071 6.1921 176.8399)" style="fill:#00A727;" cx="216.561" cy="80.945" rx="47.435" ry="47.435"/>
		<g>
			<path style="fill:#220705;" d="M252.466,58.2c-1.438-0.511-3.022,0.241-3.533,1.684c-0.091,0.254-8.419,23.192-24.585,27.571     c-0.365-7.219-4.389-13.315-11.817-17.711c-1.936-1.146-3.966-1.984-5.929-2.795c-2.447-1.011-4.758-1.965-6.656-3.409     c-5.015-3.817-6.537-11.887-3.258-17.27c0.798-1.306,0.384-3.009-0.922-3.804c-1.306-0.8-3.012-0.384-3.804,0.922     c-4.747,7.789-2.625,19.033,4.631,24.558c2.471,1.882,5.229,3.02,7.897,4.12c1.863,0.771,3.625,1.498,5.218,2.441     c5.951,3.523,8.989,8.125,9.121,13.672c-11.996-0.078-20.936,2.923-26.788,8.745c-6.402,6.369-6.491,13.836-6.491,14.153     c-0.003,1.522,1.222,2.749,2.768,2.763c1.511,0,2.744-1.219,2.768-2.733c0.011-0.711,0.589-17.394,27.649-17.394     c0.097-0.003,0.2,0,0.305,0c23.493,0,34.645-30.671,35.11-31.979C254.661,60.292,253.907,58.711,252.466,58.2z"/>
			<path style="fill:#220705;" d="M211.481,60.627c-0.105,0-0.214-0.005-0.324-0.019c-1.517-0.176-2.606-1.552-2.428-3.071     l2.014-17.262c0.176-1.514,1.511-2.606,3.071-2.428c1.517,0.176,2.606,1.552,2.428,3.071l-2.014,17.262     C214.063,59.589,212.868,60.627,211.481,60.627z"/>
			<path style="fill:#220705;" d="M226.15,66.956c-0.708,0-1.417-0.27-1.957-0.811c-1.081-1.081-1.081-2.833,0-3.915l12.66-12.658     c1.081-1.081,2.833-1.081,3.915,0c1.081,1.081,1.081,2.833,0,3.915l-12.66,12.658C227.567,66.686,226.859,66.956,226.15,66.956z"/>
			<path style="fill:#220705;" d="M213.492,123.632c-1.195,0-2.298-0.779-2.655-1.982l-4.604-15.507     c-0.435-1.465,0.4-3.006,1.868-3.441c1.468-0.435,3.006,0.403,3.441,1.868l4.604,15.507c0.435,1.465-0.4,3.006-1.868,3.441     C214.017,123.597,213.752,123.632,213.492,123.632z"/>
			<path style="fill:#220705;" d="M243.128,115.878c-0.059,0-0.119-0.003-0.178-0.005c-1.525-0.097-2.684-1.411-2.587-2.939     l1.149-18.138c0.095-1.525,1.438-2.668,2.939-2.587c1.525,0.097,2.684,1.411,2.587,2.939l-1.149,18.138     C245.796,114.751,244.577,115.878,243.128,115.878z"/>
			<path style="fill:#220705;" d="M177.531,86.521c-1.141,0-2.209-0.708-2.609-1.844c-0.511-1.441,0.243-3.025,1.684-3.534     l14.631-5.18c1.449-0.514,3.025,0.246,3.534,1.684c0.511,1.441-0.243,3.025-1.684,3.534l-14.631,5.18     C178.15,86.47,177.836,86.521,177.531,86.521z"/>
		</g>
	</g>
	<g>
		<path style="fill:#B8D461;" d="M470.342,179.209l-51.363,30.493c-2.698,1.892-6.201,2.201-9.188,0.809l-20.198-9.412    c-2.987-1.392-5.004-4.272-5.29-7.555l-9.689-58.941l19.53-3.189l5.523,33.879c0.627,3.848,5.852,4.57,7.499,1.036l11.044-23.7    l17.945,8.362l-11.044,23.7c-1.647,3.534,2.266,7.071,5.616,5.076l29.493-17.562L470.342,179.209z"/>
		<g>
			<path style="fill:#00A727;" d="M505.409,136.942c-1.36-4.256,0.595-10.274-1.888-14.395c-2.318-3.846-8.527-5.001-11.797-8.504     c-1.979-2.12-3.031-5.247-4.365-7.962c3.086-2.5,7.313-4.46,8.25-8.108c1.119-4.357-3.058-8.867-4.032-13.214     c-0.933-4.168,1.115-9.917-1.47-13.739c-2.374-3.509-8.539-3.949-12.09-6.899c-3.277-2.723-4.687-8.729-8.797-10.767     c-3.836-1.902-9.489,0.542-13.915-0.595c-4.427-1.137-8.203-6.001-12.482-6.183c-4.584-0.195-8.712,4.389-12.894,5.196     c-4.534,0.874-10.147-1.711-13.917,0.22c-4.107,2.103-5.083,8.128-7.908,11.33c-2.947,3.34-8.782,5.279-9.901,9.636     c-0.954,3.716,1.933,7.542,3.41,11.285c-3.306,0.541-6.739,2.868-9.787,2.886c-4.194,0.025-8.832-3.606-12.521-2.51     c-4.018,1.193-5.717,6.753-8.775,9.142c-3.189,2.491-9.021,3.011-10.746,6.714c-1.726,3.704,1.627,8.504,1.771,12.547     c0.138,3.877-3.027,8.754-1.356,12.598c1.534,3.529,7.297,4.746,9.976,7.973c2.472,2.978,2.459,8.858,5.79,11.364     c3.108,2.338,8.764,0.763,12.527,2.517c3.764,1.754,6.196,7.097,9.987,7.973c4.061,0.939,8.554-2.854,12.424-2.877     c4.194-0.024,8.832,3.606,12.52,2.51c1.543-0.458,2.741-1.564,3.809-2.883c0.194,0.635,0.439,1.248,0.783,1.82     c2.318,3.846,8.526,5.001,11.797,8.504c3.272,3.503,4,9.777,7.679,12.352c3.942,2.759,10.078,1.22,14.23,2.868     c4.501,1.786,8.051,7.037,12.474,7.458c4.816,0.459,9.098-4.111,13.403-5.347c4.49-1.289,10.64,0.113,14.088-3.107     c3.447-3.219,2.47-9.451,4.062-13.842c1.527-4.21,6.38-8.169,6.252-13.006C511.88,145.456,506.883,141.554,505.409,136.942z"/>
			<g>
				<path style="fill:#220705;" d="M427.203,137.074c-1.189,0-2.29-0.77-2.649-1.968c-1.13-3.739,0.489-6.326,1.673-8.213      c1.087-1.738,1.436-2.455,1.068-3.677c-0.37-1.222-1.057-1.628-2.923-2.474c-2.03-0.919-4.809-2.182-5.937-5.921      c-1.127-3.742,0.489-6.329,1.671-8.219c1.087-1.741,1.435-2.457,1.065-3.685c-0.37-1.227-1.057-1.633-2.925-2.482      c-2.028-0.922-4.807-2.184-5.934-5.926c-0.443-1.463,0.387-3.006,1.852-3.447c1.46-0.457,3.009,0.389,3.447,1.852      c0.37,1.225,1.057,1.63,2.925,2.479c2.028,0.922,4.807,2.184,5.934,5.926c1.13,3.739-0.487,6.326-1.671,8.219      c-1.017,1.628-1.452,2.401-1.065,3.685c0.37,1.225,1.057,1.63,2.925,2.476c2.028,0.919,4.807,2.179,5.934,5.918      c1.127,3.739-0.492,6.323-1.673,8.213c-1.09,1.736-1.436,2.452-1.068,3.674c0.443,1.463-0.387,3.009-1.849,3.45      C427.735,137.036,427.468,137.074,427.203,137.074z"/>
				<path style="fill:#220705;" d="M438.106,139.934c-0.743,0-1.487-0.297-2.03-0.887c-1.041-1.122-0.973-2.874,0.149-3.912      c0.941-0.87,1.006-1.665,0.949-3.715c-0.062-2.23-0.149-5.28,2.72-7.935c2.871-2.655,5.91-2.333,8.119-2.103      c2.033,0.211,2.839,0.214,3.777-0.657c0.941-0.87,1.003-1.665,0.946-3.715c-0.062-2.228-0.149-5.277,2.72-7.932      c2.863-2.655,5.902-2.33,8.113-2.095c2.047,0.214,2.836,0.211,3.769-0.654c1.119-1.044,2.871-0.976,3.912,0.149      c1.041,1.122,0.973,2.874-0.149,3.912c-2.863,2.652-5.896,2.339-8.116,2.098c-2.044-0.214-2.836-0.211-3.769,0.654      c-0.941,0.871-1.003,1.665-0.946,3.712c0.062,2.228,0.149,5.28-2.717,7.932c-2.871,2.655-5.91,2.33-8.118,2.103      c-2.033-0.211-2.839-0.214-3.777,0.657c-0.984,0.911-1.003,1.801-0.949,3.72c0.062,2.228,0.146,5.277-2.72,7.929      C439.455,139.691,438.779,139.934,438.106,139.934z"/>
			</g>
		</g>
	</g>
</g>















</svg>
