<?xml version="1.0" encoding="UTF-8"?>
<!-- Generator: Adobe Illustrator 25.2.1, SVG Export Plug-In . SVG Version: 6.00 Build 0)  -->
<svg xmlns="http://www.w3.org/2000/svg" xmlns:xlink="http://www.w3.org/1999/xlink" version="1.1" id="Capa_1" x="0px" y="0px" viewBox="0 0 512 512" style="enable-background:new 0 0 512 512;" xml:space="preserve" width="512" height="512">
<g>
	<path style="fill:#FFFFFF;" d="M409.394,107.205c-12.074-5.523-24.362-10.033-37.02-13.437c4.689-21.471,8.895-43.23,15.355-63.97   c3.216-10.326-3.717-24.922-15.156-26.693c-14.542-2.251-28.866-3.676-43.587-2.886c-14.272,0.766-24.683,15.017-21.151,27.688   c0.062,2.974,0.023,5.951-0.008,8.924c-0.09,8.666-0.369,17.331-0.651,25.992c-0.118,3.641-0.228,7.288-0.342,10.935   c-24.898-6.792-51.288-10.666-76.287-6.671c-14.664,2.343-29.095,13.495-31.562,28.667c-1.969,12.108,1.409,21.52,7.741,28.946   c-33.637,39.292-41.964,92.57-49.447,144.183c-4.641,32.012-7.962,68.335-31.568,92.515c-24.158,24.747-63.183,36.817-78.218,69.88   c-18.368,40.391,19.854,64.656,53.757,74.221c38.648,10.904,81.911,6.6,120.523-2.016   c79.474-17.734,148.013-70.457,190.576-139.054c26.86-43.289,47.179-98.963,42.733-151.275   c13.209-10.215,18.213-28.687,10.671-46.969C455.459,141.24,433.404,119.107,409.394,107.205z M307.777,26.148   C307.381,24.165,307.635,23.61,307.777,26.148L307.777,26.148z"/>
	<g>
		<g>
			<path style="fill:#FA3E00;" d="M158.981,489.848c113.548-2.986,212.221-72.617,255.401-177.36     c18.412-44.664,31.402-100.911,4.128-144.861c-18.659-30.067-48.125-43.257-80.488-53.287     c-28.156-8.726-69.716-11.377-95.329,6.135c-60.028,41.042-57.469,128.458-70.873,192.019     c-3.85,18.257-9.089,36.702-20.02,51.823c-17.753,24.559-47.34,38.37-70.066,57.738c-19.31,16.457-26.437,38.629-0.903,52.357     C104.522,487.148,132.436,490.546,158.981,489.848z"/>
		</g>
		<g>
			<path style="fill:#202D7D;" d="M262.179,259.926c-2.993,10.019-10.147,16.73-15.98,14.987     c-5.833-1.742-8.135-11.277-5.142-21.296c2.993-10.019,10.147-16.73,15.98-14.987     C262.869,240.371,265.171,249.906,262.179,259.926z"/>
			<path style="fill:#202D7D;" d="M358.217,288.612c-2.993,10.019-10.147,16.729-15.98,14.987     c-5.833-1.742-8.135-11.277-5.142-21.296c2.993-10.019,10.147-16.73,15.98-14.988     C358.908,269.058,361.21,278.593,358.217,288.612z"/>
		</g>
		<g>
			<path style="fill:#202D7D;" d="M270.399,260.524c-0.074,0.23-0.172,0.448-0.241,0.681c-2.144,7.177-1.631,14.48,0.948,20.934     l47.964,14.327c5.693-3.982,10.132-9.811,12.274-16.984c0.07-0.234,0.108-0.468,0.172-0.702L270.399,260.524z"/>
			<path style="fill:#FFC200;" d="M319.07,296.466c-4.333-7.944-11.675-14.25-21.031-17.044c-9.355-2.794-18.954-1.549-26.934,2.718     c3.489,8.752,10.778,15.892,20.507,18.798C301.342,303.843,311.353,301.871,319.07,296.466z"/>
		</g>
		<g>
			<path style="fill:#1C9E5F;" d="M397.256,125.399c-16.197-7.343-33.413-12.455-50.991-15.148     c4.188-16.618,8.713-33.162,12.347-49.915c1.84-8.48,3.555-16.987,5.148-25.517c0.64-3.432,1.943-7.154,3.045-10.79     c-12.649-2.116-25.334-3.001-37.819-2.11c1.852-0.133-1.301,74.791-1.814,80.972c-15.795-5.725-31.951-9.955-48.555-12.89     c-12.827-2.268-59.997-9.988-58.739,13.799c0.391,7.396,7.643,12.366,14.41,15.376c18.439,8.2,41.453,11.466,61.461,8.576     c-6.035,0.872-14.986,12.563-18.662,16.988c-5.845,7.036-10.652,14.937-14.218,23.361c-5.15,12.169-11.844,35.62,0.743,45.808     c8.235,6.666,20.742,2.738,29.275-3.542c20.946-15.417,29.67-42.31,41.665-64.468c-1.747,14.119-3.497,28.396-1.889,42.531     c1.322,11.62,16.652,57.417,34.778,40.825c3.503-3.207,5.402-7.781,6.849-12.304c5.949-18.59,5.92-39.043-0.082-57.616     c4.259,13.179,17.633,24.891,29.421,31.193c9.197,4.917,30.842,14.353,39.734,5.188c11.295-11.642-0.78-29.379-8.234-38.921     c-10.148-12.996-21.693-23.932-36.686-30.851C398.047,125.76,397.652,125.579,397.256,125.399z"/>
		</g>
	</g>
</g>















</svg>
