<?xml version="1.0" encoding="iso-8859-1"?>
<!-- Generator: Adobe Illustrator 27.5.0, SVG Export Plug-In . SVG Version: 6.00 Build 0)  -->
<svg xmlns="http://www.w3.org/2000/svg" xmlns:xlink="http://www.w3.org/1999/xlink" version="1.1" id="Capa_1" x="0px" y="0px" viewBox="0 0 512 512" style="enable-background:new 0 0 512 512;" xml:space="preserve">
<g>
	<path style="fill:#261D2A;" d="M483.353,259.626l-0.025-0.019c-3.284-2.546-3.883-7.288-1.336-10.573   c2.535-3.27,7.266-3.878,10.546-1.356c1.616,1.253,2.632,3.033,2.885,5.031c0.252,1.995-0.288,3.972-1.521,5.561   C491.365,261.538,486.631,262.146,483.353,259.626z M491.228,249.419c-2.351-1.807-5.712-1.373-7.514,0.949   c-1.811,2.334-1.385,5.706,0.948,7.515l0.019,0.014c2.33,1.791,5.694,1.359,7.498-0.964c0.877-1.13,1.261-2.534,1.08-3.954   C493.081,251.56,492.358,250.296,491.228,249.419z"/>
	<path style="fill:#261D2A;" d="M11.996,98.318l-0.025-0.019c-3.284-2.546-3.883-7.288-1.336-10.573   c2.535-3.27,7.266-3.878,10.546-1.356c1.616,1.253,2.632,3.033,2.885,5.031c0.252,1.995-0.288,3.972-1.521,5.561   C20.008,100.23,15.275,100.839,11.996,98.318z M19.872,88.111c-2.351-1.807-5.712-1.373-7.514,0.949   c-1.811,2.334-1.385,5.706,0.948,7.515l0.019,0.014c2.33,1.791,5.694,1.359,7.498-0.964c0.877-1.13,1.261-2.534,1.08-3.954   C21.724,90.252,21.002,88.988,19.872,88.111z"/>
	<g>
		<path style="fill:#FDFEFF;" d="M422.927,125.513c0,0-2.007-15.234,12.657-10.305c14.664,4.929,9.886,18.877,4.295,14.104    c-5.59-4.773,4.899-20.961,16.12-13.753s8.711,21.195,0.752,22.228s4.818-16.286,14.845-5.591    c10.026,10.695-11.865,30.195-20.817,23.026s-1.946-18.741,0.201-11.689c2.148,7.052-3.644,13.968-19.522,13.694    c-15.878-0.273-8.651-24.702-3.101-17.591s-3.664,15.137-14.865,6.759C402.291,138.019,415.068,120.701,422.927,125.513z"/>
		<path style="fill:#261D2A;" d="M432.334,158.364c-0.297,0-0.595-0.002-0.897-0.008c-5.241-0.09-8.931-2.764-10.249-7.375    c-2.538-0.331-5.398-1.458-8.372-3.682c-6.513-4.87-5.75-12.476-2.104-17.853c2.626-3.874,7.006-6.732,10.992-5.677    c-0.003-2.415,0.456-6.558,3.339-8.931c2.498-2.057,6.168-2.291,10.9-0.701c2.176,0.732,3.9,1.63,5.269,2.601    c3.753-3.893,9.585-5.859,15.396-2.129c5.67,3.642,7.833,8.692,8.072,12.976c2.784,0.123,5.469,1.419,7.739,3.84    c4.59,4.896,3.591,12.348-2.548,18.984c-5.551,6-14.376,10.038-19.799,5.694c-0.693-0.555-1.303-1.141-1.837-1.749    C444.714,156.965,439.226,158.364,432.334,158.364z M423.587,151.06c0.922,2.496,3.058,4.956,7.89,5.039    c6.823,0.116,12.189-1.132,15.429-3.56c-1.926-3.178-2.077-6.656-1.131-9.235c0.714-1.946,2.066-3.083,3.378-3.094    c0.752,0.021,2.128,0.439,2.907,2.995c0.966,3.169,0.451,6.304-1.451,8.825c-0.214,0.283-0.443,0.558-0.689,0.823    c0.444,0.508,0.964,1.006,1.564,1.488c4.142,3.314,11.908-0.255,16.73-5.466c4.195-4.535,7.07-11.095,2.559-15.908    c-2.113-2.253-4.242-3.066-6.14-3.148c-0.054,0.518-0.136,1.015-0.241,1.488c-0.946,4.21-3.818,7.121-7.494,7.598    c-2.634,0.335-3.401-1.042-3.614-1.65c-0.774-2.208,1.505-5.768,5.079-7.935c1.336-0.81,2.704-1.335,4.069-1.582    c-0.196-3.67-2.078-8.041-7.042-11.229c-4.918-3.161-9.503-1.294-12.433,1.673c2.883,2.804,3.394,5.799,3.478,6.969    c0.192,2.663-0.846,4.972-2.644,5.88c-1.45,0.731-3.144,0.419-4.644-0.862c-3.184-2.719-2.109-7.89,0.616-11.691    c-1.175-0.811-2.66-1.571-4.537-2.201c-3.944-1.326-6.884-1.226-8.742,0.299c-3.191,2.62-2.444,8.729-2.436,8.791    c0.056,0.43-0.14,0.855-0.505,1.092c-0.366,0.237-0.833,0.244-1.204,0.015c-3.194-1.958-7.327,0.652-9.757,4.239    c-3.044,4.488-3.733,10.799,1.587,14.778c2.355,1.761,4.591,2.744,6.578,3.143c-0.467-4.702,1.334-9.822,4.099-11.111    c0.726-0.34,2.608-0.879,4.402,1.419c2.558,3.276,2.551,7.085-0.014,9.704C427.929,149.976,425.969,150.891,423.587,151.06z     M449.088,142.467c-0.157,0-0.744,0.392-1.193,1.616c-0.545,1.485-0.766,4.162,0.692,6.866c0.076-0.092,0.149-0.184,0.219-0.278    c1.476-1.957,1.854-4.311,1.092-6.808C449.544,142.699,449.078,142.473,449.088,142.467z M426.198,139.469    c-0.183,0-0.317,0.063-0.4,0.1c-1.605,0.749-3.336,5.061-2.756,9.274c1.968-0.052,3.555-0.734,4.577-1.778    c1.753-1.788,1.694-4.369-0.152-6.735C426.923,139.634,426.496,139.469,426.198,139.469z M462.327,130.064    c-1.107,0.277-2.064,0.744-2.795,1.187c-3.002,1.82-4.392,4.477-4.119,5.258c0.052,0.149,0.478,0.255,1.192,0.158    c2.711-0.351,4.849-2.594,5.583-5.854C462.242,130.571,462.29,130.321,462.327,130.064z M441.505,119.924    c-2.341,3.333-2.737,6.955-0.893,8.529c0.556,0.476,1.385,0.958,2.16,0.564c0.779-0.394,1.553-1.721,1.41-3.703    C444.117,124.409,443.72,122.144,441.505,119.924z"/>
	</g>
	<g>
		<path style="fill:#FDFEFF;" d="M14.99,340.91c0,0-2.007-15.234,12.657-10.305s9.886,18.877,4.295,14.104    s4.899-20.961,16.12-13.753s8.711,21.195,0.752,22.228s4.818-16.286,14.845-5.591s-11.865,30.195-20.817,23.026    c-8.953-7.169-1.946-18.741,0.201-11.689s-3.644,13.968-19.522,13.694c-15.878-0.273-8.651-24.702-3.101-17.591    s-3.664,15.137-14.865,6.759S7.131,336.098,14.99,340.91z"/>
		<path style="fill:#261D2A;" d="M24.397,373.762c-0.297,0-0.595-0.002-0.897-0.008c-5.241-0.09-8.931-2.764-10.248-7.375    c-2.539-0.331-5.401-1.457-8.374-3.682c-6.513-4.871-5.749-12.477-2.103-17.854c2.626-3.873,7.011-6.733,10.992-5.676    c-0.002-2.416,0.456-6.558,3.339-8.932c2.498-2.058,6.167-2.292,10.9-0.7c2.175,0.731,3.9,1.63,5.269,2.601    c3.754-3.893,9.585-5.861,15.396-2.13c5.67,3.642,7.833,8.692,8.072,12.976c2.785,0.122,5.469,1.419,7.739,3.84    c4.59,4.897,3.591,12.349-2.549,18.986c-5.549,6-14.375,10.041-19.798,5.693c-0.693-0.555-1.303-1.141-1.837-1.749    C36.777,372.363,31.289,373.762,24.397,373.762z M15.649,366.457c0.922,2.496,3.058,4.956,7.89,5.039    c6.839,0.115,12.189-1.132,15.429-3.56c-1.926-3.178-2.077-6.656-1.131-9.235c0.714-1.947,2.039-3.104,3.378-3.096    c0.752,0.021,2.128,0.439,2.907,2.995c0.965,3.171,0.45,6.306-1.452,8.826c-0.214,0.283-0.443,0.558-0.688,0.823    c0.444,0.507,0.963,1.005,1.564,1.487c4.144,3.316,11.909-0.255,16.73-5.465c4.195-4.535,7.07-11.096,2.559-15.909    c-2.113-2.253-4.242-3.066-6.14-3.147c-0.054,0.517-0.134,1.014-0.241,1.487c-0.946,4.21-3.818,7.123-7.494,7.599    c-2.637,0.335-3.4-1.042-3.614-1.65c-0.774-2.208,1.505-5.769,5.08-7.936c1.335-0.809,2.703-1.335,4.068-1.581    c-0.196-3.671-2.078-8.042-7.042-11.23c-4.913-3.157-9.502-1.295-12.433,1.675c2.883,2.803,3.394,5.799,3.478,6.969    c0.192,2.663-0.846,4.972-2.644,5.88c-1.451,0.732-3.144,0.42-4.644-0.862c-3.184-2.719-2.109-7.891,0.616-11.691    c-1.175-0.811-2.66-1.571-4.537-2.201c-3.949-1.329-6.891-1.227-8.748,0.302c-3.2,2.635-2.439,8.724-2.431,8.785    c0.057,0.432-0.139,0.858-0.504,1.095c-0.366,0.237-0.835,0.244-1.205,0.015c-3.193-1.958-7.325,0.649-9.757,4.237    c-3.044,4.49-3.734,10.8,1.586,14.78c2.355,1.761,4.593,2.744,6.579,3.143c-0.467-4.702,1.334-9.823,4.099-11.112    c0.726-0.34,2.608-0.879,4.402,1.419c2.558,3.276,2.551,7.086-0.014,9.704C19.992,365.374,18.032,366.289,15.649,366.457z     M41.15,357.864c-0.157,0-0.744,0.391-1.193,1.615c-0.545,1.486-0.766,4.162,0.692,6.867c0.075-0.091,0.148-0.184,0.218-0.278    c1.476-1.957,1.854-4.311,1.094-6.81C41.606,358.096,41.182,357.835,41.15,357.864z M18.261,354.866c-0.183,0-0.317,0.063-0.4,0.1    c-1.605,0.749-3.336,5.061-2.756,9.276c1.968-0.052,3.554-0.734,4.577-1.778c1.753-1.788,1.694-4.37-0.152-6.736    C18.985,355.03,18.559,354.866,18.261,354.866z M54.39,345.46c-1.107,0.277-2.063,0.744-2.793,1.187    c-3.003,1.821-4.393,4.478-4.12,5.26c0.053,0.148,0.478,0.254,1.192,0.158c2.711-0.352,4.851-2.595,5.583-5.855    C54.305,345.967,54.352,345.717,54.39,345.46z M33.568,335.321c-2.341,3.333-2.737,6.955-0.893,8.529    c0.557,0.476,1.382,0.961,2.16,0.564c0.779-0.394,1.553-1.721,1.41-3.703C36.179,339.807,35.782,337.541,33.568,335.321z"/>
	</g>
	<path style="fill:#261D2A;" d="M489.54,200.341h-0.007l-4.367-0.015l4.627-3.137c0.516-0.35,0.651-1.052,0.3-1.568   c-0.353-0.518-1.059-0.647-1.568-0.301l-6.241,4.231l0.138-7.292c0.013-0.624-0.484-1.138-1.107-1.15l-0.007,0   c-0.62-0.008-1.131,0.486-1.143,1.107l-0.122,6.435l-3.817-4.141c-0.424-0.455-1.136-0.489-1.596-0.065   c-0.457,0.422-0.487,1.138-0.065,1.596l3.927,4.26l-7.233-0.025c-0.624-0.002-1.131,0.501-1.133,1.125   c-0.002,0.62,0.495,1.124,1.114,1.132l0.011,0l6.598,0.023l-5.155,3.495c-0.516,0.35-0.651,1.052-0.301,1.568   c0.216,0.318,0.565,0.49,0.92,0.495c0.225,0.003,0.451-0.06,0.649-0.194l5.981-4.055l-0.139,7.346   c-0.013,0.624,0.483,1.138,1.107,1.15l0.007,0c0.619,0.008,1.131-0.486,1.143-1.107l0.132-6.938l4.069,4.413   c0.22,0.237,0.516,0.36,0.815,0.364c0.278,0.004,0.559-0.094,0.78-0.299c0.457-0.422,0.487-1.138,0.065-1.595l-4.26-4.621   l5.864,0.021c0.624,0.002,1.131-0.501,1.133-1.125C490.66,200.854,490.164,200.349,489.54,200.341z"/>
	<path style="fill:#261D2A;" d="M27.555,238.182h-0.007l-4.367-0.015l4.627-3.137c0.516-0.35,0.651-1.052,0.3-1.568   c-0.353-0.518-1.059-0.647-1.568-0.301l-6.241,4.231l0.138-7.292c0.013-0.624-0.484-1.138-1.107-1.15l-0.007,0   c-0.62-0.008-1.131,0.486-1.143,1.107l-0.122,6.435l-3.817-4.141c-0.424-0.455-1.136-0.489-1.596-0.065   c-0.457,0.422-0.487,1.138-0.065,1.596l3.927,4.26l-7.233-0.025c-0.624-0.002-1.131,0.501-1.133,1.125   c-0.002,0.62,0.495,1.124,1.114,1.132l0.011,0l6.598,0.023l-5.155,3.495c-0.516,0.35-0.651,1.052-0.301,1.568   c0.216,0.318,0.565,0.49,0.92,0.495c0.225,0.003,0.451-0.06,0.649-0.194l5.981-4.055l-0.139,7.346   c-0.013,0.624,0.483,1.138,1.107,1.15l0.007,0c0.619,0.008,1.131-0.486,1.143-1.107l0.132-6.938l4.069,4.413   c0.22,0.237,0.516,0.36,0.815,0.364c0.278,0.004,0.559-0.094,0.78-0.299c0.457-0.422,0.487-1.138,0.065-1.595l-4.26-4.621   l5.864,0.021c0.624,0.002,1.131-0.501,1.133-1.125C28.675,238.695,28.178,238.191,27.555,238.182z"/>
	<path style="fill:#261D2A;" d="M46.534,52.48c-0.833,0-1.625,0-3.825-8.76c-7.421-1.43-8.072-2.302-8.29-2.595   c-0.212-0.281-0.302-0.798-0.205-1.135c0.134-0.475,0.445-1.578,8.927-4.997c3.047-7.942,4.079-7.942,4.767-7.942   c0.355,0,0.847,0.256,1.061,0.541c0.545,0.733,1.038,2.634,1.786,5.676c0.236,0.954,0.518,2.103,0.681,2.61   c0.445,0.198,1.429,0.55,2.244,0.843c4.361,1.563,5.486,2.096,5.688,3.136c0.077,0.39-0.121,0.959-0.417,1.225   c-0.886,0.796-5.102,2.36-7.313,3.147c-3.592,8.172-4.359,8.212-5.038,8.248C46.58,52.48,46.554,52.48,46.534,52.48z    M37.289,40.154c1.484,0.428,4.189,1.042,6.548,1.482c0.434,0.082,0.783,0.41,0.889,0.84c0.604,2.445,1.393,5.231,1.96,6.819   c0.822-1.479,2.068-4.1,3.08-6.416c0.126-0.288,0.364-0.51,0.659-0.614c2.017-0.709,4.293-1.581,5.713-2.201   c-0.994-0.418-2.346-0.903-3.221-1.217c-2.491-0.893-2.961-1.086-3.281-1.517c-0.28-0.375-0.454-1.002-1.074-3.522   c-0.234-0.947-0.591-2.399-0.908-3.486c-0.739,1.411-1.773,3.811-2.577,5.935c-0.112,0.295-0.344,0.531-0.637,0.648   C41.82,37.95,38.848,39.283,37.289,40.154z"/>
	<path style="fill:#261D2A;" d="M412.876,472.585c-0.833,0-1.625,0-3.825-8.76c-7.421-1.43-8.072-2.302-8.29-2.595   c-0.212-0.281-0.302-0.798-0.205-1.135c0.134-0.475,0.445-1.578,8.927-4.997c3.047-7.942,4.079-7.942,4.767-7.942   c0.355,0,0.847,0.256,1.061,0.541c0.545,0.733,1.038,2.634,1.786,5.676c0.236,0.954,0.518,2.103,0.681,2.61   c0.445,0.198,1.429,0.55,2.244,0.843c4.361,1.563,5.486,2.096,5.688,3.136c0.077,0.39-0.121,0.959-0.417,1.225   c-0.886,0.796-5.102,2.36-7.313,3.147c-3.592,8.172-4.359,8.212-5.038,8.248C412.923,472.585,412.896,472.585,412.876,472.585z    M403.632,460.259c1.484,0.428,4.189,1.042,6.548,1.482c0.434,0.082,0.783,0.41,0.889,0.84c0.604,2.445,1.393,5.231,1.96,6.819   c0.822-1.479,2.068-4.1,3.08-6.416c0.126-0.288,0.364-0.51,0.659-0.614c2.017-0.709,4.293-1.581,5.713-2.201   c-0.994-0.418-2.346-0.903-3.221-1.217c-2.491-0.893-2.961-1.086-3.281-1.517c-0.28-0.375-0.454-1.002-1.074-3.522   c-0.234-0.947-0.591-2.399-0.908-3.486c-0.739,1.411-1.773,3.811-2.577,5.935c-0.112,0.295-0.344,0.531-0.637,0.648   C408.163,458.055,405.19,459.388,403.632,460.259z"/>
	<g>
		<g>
			<path style="fill:#FDFEFF;" d="M47.968,416.989c0,0-14.652-4.661-17.119,4.776c-2.467,9.437,20.324,6.918,15.278,2.234     c-2.178-2.021-10.348,10.328-4.754,14.664S62.181,422.149,47.968,416.989z"/>
			<path style="fill:#261D2A;" d="M43.149,440.381c-0.922,0-1.758-0.275-2.467-0.825c-1.955-1.515-2.719-3.928-2.21-6.976     c0.18-1.07,0.524-2.193,0.979-3.281c-2.19-0.001-4.49-0.336-6.231-1.115c-2.968-1.325-4.23-3.769-3.463-6.705     c0.625-2.391,1.996-4.185,4.076-5.33c5.508-3.034,14.115-0.353,14.478-0.237c0.014,0.004,0.03,0.01,0.043,0.014     c5.121,1.86,6.425,5.447,6.618,8.13c0.426,5.932-4.285,13.057-8.782,15.463C45.119,440.094,44.09,440.381,43.149,440.381z      M42,429.119c-0.358,0.717-0.686,1.504-0.946,2.349c-0.513,1.665-1.063,4.697,1.01,6.305c0.88,0.679,2.15,0.244,3.06-0.241     c3.808-2.038,7.955-8.298,7.594-13.313c-0.209-2.925-1.929-4.997-5.111-6.159c-0.445-0.137-8.147-2.433-12.691,0.071     c-1.533,0.847-2.507,2.129-2.975,3.921c-0.311,1.188-0.421,2.903,2.198,4.072c1.888,0.843,4.307,1.046,6.462,0.88     c1.232-2.084,2.779-3.748,4.137-4.212c0.815-0.271,1.597-0.136,2.156,0.381c1.715,1.593,0.955,3.07,0.68,3.485     C46.747,427.91,44.559,428.766,42,429.119z M45.359,424.827c-0.247,0.058-0.928,0.655-1.707,1.657     c1.031-0.295,1.778-0.677,2.039-1.072C45.767,425.299,45.656,425.103,45.359,424.827z"/>
		</g>
		<g>
			<path style="fill:#FDFEFF;" d="M52.703,409.163c0,0-1.71-15.28,8.027-15.856c9.737-0.577,2.816,21.283-0.792,15.42     c-1.557-2.53,12.15-8.132,15.31-1.799C78.409,413.26,54.988,424.11,52.703,409.163z"/>
			<path style="fill:#261D2A;" d="M61.486,417.819c-1.117,0-2.201-0.129-3.219-0.408c-2.594-0.713-5.857-2.692-6.681-8.077     c-0.002-0.015-0.004-0.031-0.007-0.045c-0.042-0.379-0.992-9.345,3.06-14.155c1.529-1.815,3.555-2.809,6.022-2.954     c3.038-0.196,5.18,1.537,5.9,4.705c0.422,1.86,0.325,4.147-0.123,6.328c1.155-0.234,2.325-0.344,3.408-0.319     c3.09,0.096,5.307,1.316,6.412,3.53c0.81,1.623,0.416,3.539-1.11,5.394C72.483,415.059,66.661,417.819,61.486,417.819z      M53.822,409.019c0.518,3.347,2.215,5.438,5.042,6.215c4.849,1.331,11.796-1.513,14.54-4.849     c0.655-0.797,1.332-1.957,0.835-2.953c-1.171-2.345-4.249-2.397-5.986-2.222c-0.88,0.09-1.718,0.258-2.489,0.472     c-0.846,2.44-2.112,4.418-3.502,4.985c-0.462,0.187-2.057,0.646-3.284-1.347c-0.4-0.649-0.384-1.447,0.046-2.188     c0.719-1.242,2.655-2.434,4.939-3.236c0.58-2.075,0.858-4.492,0.399-6.51c-0.634-2.797-2.333-3.026-3.564-2.952     c-1.85,0.11-3.297,0.814-4.427,2.153C53.024,400.551,53.775,408.557,53.822,409.019z M62.832,406.833     c-1.111,0.59-1.807,1.183-1.892,1.505c0.173,0.141,0.342,0.292,0.467,0.238C61.839,408.4,62.348,407.76,62.832,406.833z"/>
		</g>
		<path style="fill:#E2BA1C;" d="M57.261,424.124c0,0-2.256,8.553,3.986,12.639s14.376,5.422,16.21,0.351    c1.834-5.072,0.261-13.64-6.831-16.425C63.534,417.904,57.626,421.519,57.261,424.124z"/>
		<g>
			<path style="fill:#FDFEFF;" d="M57.503,431.862c0,0,9.826-9.526,10.257-11.974"/>
			<path style="fill:#261D2A;" d="M57.503,432.991c-0.294,0-0.589-0.115-0.81-0.343c-0.434-0.448-0.423-1.163,0.024-1.596     c4.6-4.459,9.704-10.07,9.93-11.359c0.108-0.614,0.698-1.021,1.307-0.917c0.614,0.108,1.024,0.693,0.917,1.307     c-0.459,2.606-8.216,10.295-10.583,12.589C58.07,432.885,57.786,432.991,57.503,432.991z"/>
		</g>
		<g>
			<path style="fill:#FDFEFF;" d="M61.936,436.926c0,0,11.131-11.466,11.652-14.585"/>
			<path style="fill:#261D2A;" d="M61.936,438.055c-0.283,0-0.567-0.106-0.786-0.319c-0.448-0.434-0.459-1.149-0.024-1.596     c4.52-4.656,11.029-12.073,11.348-13.985c0.104-0.613,0.675-1.042,1.3-0.927c0.614,0.103,1.03,0.685,0.927,1.3     c-0.55,3.298-10.055,13.228-11.954,15.184C62.524,437.94,62.23,438.055,61.936,438.055z"/>
		</g>
		<path style="fill:#261D2A;" d="M47.738,414.394c-0.306,0-0.612-0.125-0.836-0.368c-0.229-0.251-5.696-6.089-13.575-2.587    c-0.574,0.254-1.238-0.007-1.49-0.573c-0.252-0.57,0.003-1.237,0.573-1.49c9.4-4.175,16.099,3.061,16.164,3.134    c0.418,0.462,0.383,1.173-0.078,1.592C48.28,414.297,48.009,414.394,47.738,414.394z"/>
		<g>
			<path style="fill:#FDFEFF;" d="M67.823,438.618c0,0,8.779-7.728,9.207-11.514"/>
			<path style="fill:#261D2A;" d="M67.824,439.747c-0.313,0-0.624-0.129-0.848-0.383c-0.411-0.469-0.366-1.182,0.101-1.594     c3.269-2.877,8.556-8.353,8.832-10.794c0.069-0.62,0.618-1.058,1.248-0.995c0.62,0.071,1.065,0.629,0.995,1.249     c-0.465,4.101-8.652,11.414-9.583,12.236C68.355,439.654,68.089,439.747,67.824,439.747z"/>
		</g>
		<path style="fill:#261D2A;" d="M49.998,412.9c-0.255,0-0.512-0.086-0.723-0.262c-9.166-7.665-5.03-16.113-4.987-16.196    c0.281-0.558,0.962-0.78,1.517-0.496c0.556,0.281,0.777,0.959,0.498,1.514c-0.149,0.301-3.316,6.977,4.421,13.446    c0.478,0.4,0.541,1.112,0.142,1.591C50.642,412.762,50.321,412.9,49.998,412.9z"/>
	</g>
	<g>
		<g>
			<path style="fill:#FDFEFF;" d="M470.234,37.945c0,0,14.426-5.317,10.579-14.281c-3.847-8.964-20.289,7.018-13.431,7.617     c2.96,0.258,1.827-14.506-5.251-14.494C455.053,16.799,455.847,42.598,470.234,37.945z"/>
			<path style="fill:#261D2A;" d="M466.922,39.641c-3.11,0-5.224-1.496-6.555-2.975c-3.979-4.421-4.634-12.937-2.563-17.598     c0.976-2.196,2.511-3.406,4.325-3.41c0.004,0,0.008,0,0.011,0c2.468,0,4.548,1.434,6.016,4.149     c0.517,0.955,0.935,2.053,1.243,3.191c1.748-1.379,3.75-2.49,5.601-2.947c3.153-0.779,5.653,0.377,6.85,3.166     c0.975,2.272,0.993,4.53,0.056,6.709c-2.485,5.778-10.925,8.945-11.283,9.077c-0.014,0.006-0.029,0.01-0.043,0.014     C469.233,39.455,468.016,39.641,466.922,39.641z M470.234,37.945h0.022H470.234z M462.14,17.916c-0.002,0-0.004,0-0.007,0     c-1.115,0.002-1.848,1.127-2.267,2.069c-1.754,3.947-1.184,11.433,2.178,15.17c1.961,2.179,4.585,2.758,7.817,1.724     c0.434-0.165,7.926-3.08,9.972-7.847c0.691-1.611,0.672-3.221-0.058-4.923c-0.484-1.13-1.456-2.55-4.235-1.864     c-2.01,0.494-4.046,1.826-5.641,3.274c0.306,2.401,0.108,4.664-0.68,5.865c-0.47,0.718-1.172,1.105-1.936,1.022     c-2.332-0.203-2.638-1.835-2.677-2.332c-0.116-1.498,1.087-3.518,2.891-5.366c-0.158-0.786-0.383-1.608-0.697-2.435     C466.185,20.644,464.758,17.916,462.14,17.916z M467.811,27.802c-0.632,0.865-0.989,1.626-0.952,2.098     c0.011,0.136,0.22,0.222,0.622,0.257C467.64,29.959,467.812,29.071,467.811,27.802z"/>
		</g>
		<g>
			<path style="fill:#FDFEFF;" d="M471.302,47.029c0,0,10.731,11.011,3.399,17.444s-15.29-15.07-8.843-12.658     c2.783,1.041-4.597,13.879-10.98,10.82C448.496,59.578,460.321,36.634,471.302,47.029z"/>
			<path style="fill:#261D2A;" d="M471.82,66.8c-1.305,0-2.642-0.524-3.919-1.57c-1.475-1.208-2.803-3.073-3.788-5.071     c-0.768,0.895-1.617,1.705-2.495,2.345c-2.495,1.822-4.993,2.222-7.227,1.151c-1.636-0.784-2.501-2.538-2.436-4.94     c0.137-5.099,4.396-12.502,9.891-14.78c2.485-1.032,6.278-1.469,10.232,2.273c0.011,0.011,0.022,0.021,0.032,0.032     c0.267,0.273,6.521,6.765,6.276,13.05c-0.093,2.371-1.081,4.401-2.939,6.032C474.324,66.308,473.087,66.8,471.82,66.8z      M465.65,58.101c0.816,1.993,2.081,4.072,3.682,5.383c2.219,1.818,3.702,0.951,4.626,0.141c1.392-1.221,2.102-2.667,2.172-4.418     c0.205-5.185-5.303-11.041-5.622-11.376c-2.465-2.325-5.09-2.936-7.796-1.81c-4.646,1.925-8.383,8.438-8.499,12.755     c-0.028,1.031,0.15,2.361,1.154,2.843c2.369,1.133,4.833-0.719,6.093-1.925c0.638-0.611,1.195-1.256,1.672-1.898     c-0.83-2.445-1.045-4.783-0.295-6.085c0.248-0.431,1.232-1.766,3.419-0.952c0.714,0.268,1.191,0.907,1.307,1.756     C467.756,53.937,466.961,56.065,465.65,58.101z M465.133,52.734c-0.157,0-0.291,0.017-0.341,0.103     c-0.233,0.405-0.241,1.223-0.055,2.251c0.516-1.148,0.699-2.044,0.569-2.349C465.248,52.736,465.189,52.734,465.133,52.734z"/>
		</g>
		<path style="fill:#E2BA1C;" d="M458.518,38.019c0,0-3.471-8.136-10.906-7.529c-7.435,0.607-14.677,4.547-13.01,9.676    s8.168,10.926,15.477,8.77C457.386,46.78,459.829,40.299,458.518,38.019z"/>
		<g>
			<path style="fill:#FDFEFF;" d="M453.576,32.06c0,0-1.907,13.553-0.744,15.749"/>
			<path style="fill:#261D2A;" d="M452.832,48.938c-0.405,0-0.796-0.218-0.999-0.601c-1.238-2.338,0.164-13.171,0.624-16.436     c0.086-0.616,0.636-1.046,1.275-0.96c0.617,0.087,1.047,0.658,0.96,1.275c-0.893,6.344-1.477,13.907-0.864,15.064     c0.292,0.551,0.082,1.234-0.47,1.526C453.191,48.896,453.01,48.938,452.832,48.938z"/>
		</g>
		<g>
			<path style="fill:#FDFEFF;" d="M446.968,30.785c0,0-1.746,15.885-0.242,18.666"/>
			<path style="fill:#261D2A;" d="M446.727,50.58c-0.401,0-0.79-0.214-0.994-0.592c-1.591-2.942-0.185-16.615,0.112-19.326     c0.068-0.62,0.622-1.069,1.246-0.999c0.62,0.068,1.067,0.626,0.999,1.246c-0.709,6.45-1.292,16.301-0.37,18.005     c0.297,0.549,0.091,1.234-0.456,1.53C447.092,50.536,446.908,50.58,446.727,50.58z"/>
		</g>
		<path style="fill:#261D2A;" d="M474.327,41.973c-1.1,0-1.796-0.115-1.822-0.12c-0.613-0.108-1.021-0.691-0.915-1.304    c0.107-0.614,0.701-1.018,1.304-0.919c0.335,0.06,8.232,1.313,12.304-6.291c0.295-0.549,0.976-0.755,1.528-0.463    c0.55,0.294,0.757,0.979,0.463,1.528C483.615,41.079,477.397,41.973,474.327,41.973z"/>
		<g>
			<path style="fill:#FDFEFF;" d="M441.282,33.064c0,0-2.185,11.49-0.198,14.742"/>
			<path style="fill:#261D2A;" d="M441.085,48.934c-0.38,0-0.752-0.192-0.965-0.54c-2.151-3.522-0.18-14.321,0.052-15.54     c0.116-0.612,0.711-1.014,1.32-0.898c0.613,0.117,1.014,0.708,0.898,1.32c-0.812,4.278-1.624,11.845-0.343,13.942     c0.325,0.532,0.157,1.227-0.375,1.552C441.489,48.881,441.286,48.934,441.085,48.934z"/>
		</g>
		<path style="fill:#261D2A;" d="M484.646,53.248c-0.528,0-1-0.373-1.106-0.908l0,0c-0.063-0.309-1.651-7.544-11.746-7.901    c-0.623-0.022-1.11-0.545-1.088-1.167c0.021-0.624,0.594-1.13,1.167-1.088c11.941,0.421,13.864,9.628,13.881,9.721    c0.119,0.612-0.281,1.205-0.893,1.323C484.79,53.241,484.718,53.248,484.646,53.248z"/>
	</g>
	<g>
		<path style="fill:#261D2A;" d="M142.196,32.258c-21.598-6.049-34.809-14.842-34.959-14.943c-0.517-0.349-0.654-1.049-0.305-1.567    c0.348-0.516,1.049-0.654,1.567-0.305c0.674,0.454,68.435,44.899,151.14,0.158c0.548-0.293,1.233-0.092,1.53,0.456    s0.093,1.233-0.456,1.53c-43.854,23.724-83.23,22.399-108.539,17.109C148.679,33.964,145.346,33.14,142.196,32.258z"/>
		<path style="fill:#E2BA1C;" d="M117.656,16.956c0,0,40.533,12.36,41.097,14.646s-27.789,46.146-36.311,42.123    C117.293,71.295,109.873,19.021,117.656,16.956z"/>
		<path style="fill:#76ACA0;" d="M163.915,31.493c0,0,37.492,0.201,39.048,2.009s-15.908,45.875-23.28,44.562    C172.311,76.752,158.418,32.994,163.915,31.493z"/>
		<path style="fill:#BE607A;" d="M208.365,31.484c0,0,35.784-11.191,37.815-9.94c2.031,1.251-1.23,48.539-8.652,49.526    C230.105,72.058,203.583,34.584,208.365,31.484z"/>
		<path style="fill:#261D2A;" d="M165.439,42.711c-0.222-0.062-0.427-0.193-0.581-0.387c-0.386-0.49-0.303-1.2,0.188-1.587    c2.781-2.193,7.748-5.77,9.865-5.178c0.012,0.003,0.023,0.007,0.036,0.01c0.549,0.17,0.965,0.582,1.138,1.132    c0.211,0.666,0.453,1.64,0.709,2.676c0.258,1.048,0.643,2.605,0.966,3.556c0.311-0.286,0.7-0.642,1.045-0.96    c3.45-3.171,5.216-4.575,6.563-4.518c0.439,0.02,0.836,0.2,1.118,0.508c0.687,0.749,1.059,2.247,1.489,3.982    c0.252,1.014,0.703,2.83,1.091,3.394c0.548-0.229,1.688-1.233,2.328-1.798c1.546-1.364,2.766-2.44,3.964-2.139    c1.602,0.501,3.39,3.841,4.304,5.851c0.257,0.569,0.006,1.238-0.562,1.496c-0.569,0.257-1.237,0.004-1.495-0.561    c-0.922-2.033-2.14-4.038-2.732-4.53c-0.46,0.231-1.399,1.058-1.984,1.574c-1.724,1.521-3.361,2.962-4.795,2.208    c-1.241-0.643-1.735-2.641-2.309-4.954c-0.212-0.854-0.511-2.057-0.775-2.669c-1.1,0.53-3.562,2.794-4.676,3.817    c-1.556,1.43-2.026,1.85-2.499,1.995c-0.296,0.091-0.765,0.031-1.039-0.119c-0.818-0.463-1.223-1.673-2.192-5.592    c-0.197-0.797-0.384-1.559-0.554-2.154c-1.209,0.268-4.555,2.342-7.605,4.746C166.15,42.743,165.775,42.805,165.439,42.711z"/>
		<path style="fill:#FDFEFF;" d="M176.703,56.233c-0.122-0.034-0.241-0.088-0.359-0.162c-0.635-0.393-1.162-1.393-2.529-4.397    c-0.262-0.573-0.565-1.239-0.792-1.699c-0.759,0.394-2.203,1.448-3.476,2.564c-0.469,0.411-1.182,0.363-1.593-0.105    c-0.411-0.47-0.365-1.183,0.104-1.594c2.615-2.292,4.47-3.391,5.516-3.266c0.425,0.046,0.787,0.262,1.021,0.597    c0.285,0.407,0.652,1.199,1.274,2.569c0.393,0.861,1.053,2.312,1.481,3.062c0.663-0.382,1.778-1.16,2.578-1.719    c3.085-2.156,4.19-2.879,5.118-2.498c0.342,0.116,0.721,0.509,0.827,0.852c0.075,0.241,0.17,0.696,0.287,1.271    c0.794,3.904,1.382,4.946,1.735,5.132c0.395-0.109,1.57-1.655,2.135-2.399c1.179-1.554,2.293-3.017,3.62-2.173    c1.202,0.769,2.106,3.017,2.355,3.687c0.217,0.585-0.081,1.234-0.665,1.451c-0.585,0.216-1.234-0.082-1.451-0.665    c-0.277-0.741-0.718-1.634-1.086-2.161c-0.3,0.34-0.688,0.849-0.976,1.229c-1.299,1.708-2.642,3.475-4.282,3.256    c-2.081-0.292-2.889-3.426-3.596-6.905c-0.003-0.015-0.006-0.027-0.009-0.041c-0.785,0.465-1.938,1.271-2.718,1.817    C178.575,55.784,177.538,56.467,176.703,56.233z"/>
		<path style="fill:#261D2A;" d="M182.379,68.694c-1.068-0.299-1.763-1.861-2.603-3.749c-0.231-0.52-0.542-1.219-0.795-1.695    c-0.244,0.271-0.531,0.628-0.751,0.902c-1.046,1.305-2.031,2.536-3.328,2.402c-1.951-0.194-4.87-4.4-5.081-4.952    c-0.152-0.397-0.075-0.902,0.211-1.219c0.285-0.314,0.74-0.445,1.15-0.333c0.002,0.001,0.005,0.001,0.007,0.002    c0.408,0.114,0.7,0.439,0.793,0.822c0.507,0.836,2.494,3.222,3.203,3.441c0.116-0.121,0.875-1.067,1.282-1.576    c1.035-1.29,2.029-2.516,3.276-1.944c0.785,0.353,1.259,1.351,2.095,3.231c0.3,0.677,0.762,1.713,1.102,2.255    c0.385-0.313,0.963-0.882,1.348-1.262c1.344-1.323,2.329-2.294,3.379-1.925c0.337,0.113,1.225,0.409,3.267,4.466    c0.28,0.557,0.056,1.236-0.501,1.515c-0.555,0.284-1.235,0.059-1.515-0.5c-0.622-1.234-1.372-2.493-1.827-3.092    c-0.364,0.303-0.876,0.806-1.219,1.144c-1.192,1.173-1.962,1.9-2.763,2.077C182.848,68.764,182.604,68.757,182.379,68.694z"/>
		<path style="fill:#FDFEFF;" d="M211.197,37.716c-0.368-0.103-0.675-0.391-0.784-0.785c-0.167-0.601,0.185-1.224,0.785-1.39    l32.14-8.914c0.602-0.168,1.224,0.185,1.39,0.785c0.167,0.601-0.185,1.224-0.785,1.39l-32.14,8.914    C211.597,37.773,211.388,37.77,211.197,37.716z"/>
		<path style="fill:#FDFEFF;" d="M214.774,47.455c-0.376-0.105-0.686-0.403-0.79-0.808c-0.155-0.604,0.211-1.219,0.814-1.375    l30.031-7.667c0.606-0.149,1.218,0.213,1.373,0.815c0.155,0.604-0.211,1.219-0.814,1.375l-30.031,7.667    C215.157,47.512,214.957,47.507,214.774,47.455z"/>
		<path style="fill:#FDFEFF;" d="M221.509,55.29c-0.359-0.1-0.66-0.375-0.777-0.758c-0.181-0.598,0.155-1.227,0.752-1.408    l20.785-6.327c0.595-0.184,1.226,0.151,1.409,0.75c0.181,0.598-0.155,1.227-0.752,1.408l-20.785,6.327    C221.928,55.348,221.709,55.346,221.509,55.29z"/>
		<path style="fill:#261D2A;" d="M145.425,42.351c-1.407-0.394-2.637-1.336-3.603-2.795c-0.551-0.832-0.983-1.789-1.288-2.792    c-1.751,0.46-3.664,0.606-5.531,0.278c-3.591-0.626-5.324-3.213-5.7-6.011c-1.413,0.186-3.038,0.168-4.856-0.156    c-3.411-0.616-5.747-1.955-6.923-4.004c-1.45-2.519-0.529-5.108-0.489-5.218c0.214-0.586,0.87-0.924,1.448-0.67    c0.583,0.211,0.884,0.857,0.674,1.441c-0.016,0.048-0.586,1.766,0.338,3.346c0.834,1.429,2.633,2.404,5.349,2.881    c1.739,0.311,3.219,0.299,4.443,0.104c0.021-0.177,0.047-0.355,0.076-0.53c0.535-3.076,2.356-4.973,4.428-4.614    c1.434,0.23,1.942,1.103,2.12,1.59c0.345,0.939,0.057,2.056-0.789,3.065c-0.721,0.858-1.936,1.708-3.595,2.263    c0.193,1.824,1.145,3.812,3.866,4.293c1.609,0.281,3.228,0.121,4.677-0.284c-0.262-2.235,0.087-4.422,1.096-5.751    c0.899-1.186,2.244-1.631,3.714-1.13c3.042,0.98,2.763,3.141,2.605,3.782c-0.428,1.732-2.306,3.469-4.811,4.58    c0.237,0.82,0.579,1.612,1.031,2.292c1.115,1.686,2.598,2.305,4.408,1.846c0.604-0.151,1.22,0.211,1.372,0.817    c0.154,0.604-0.213,1.218-0.817,1.372C147.519,42.633,146.427,42.631,145.425,42.351z M144.104,29.779    c-0.503-0.141-0.838-0.031-1.14,0.368c-0.534,0.704-0.778,2.047-0.691,3.536c1.651-0.838,2.807-1.932,3.02-2.79    c0.05-0.203,0.167-0.679-1.106-1.088C144.16,29.795,144.132,29.787,144.104,29.779z M133.559,25.866    c-0.044-0.012-0.095-0.022-0.152-0.033c-0.544-0.093-1.308,0.767-1.69,2.189c0.798-0.381,1.356-0.829,1.677-1.211    c0.374-0.447,0.421-0.768,0.397-0.834C133.791,25.977,133.915,25.966,133.559,25.866z"/>
		<path style="fill:#261D2A;" d="M134.585,53.407c-1.543-0.432-2.937-1.391-4.161-2.862c-0.327-0.391-0.621-0.783-0.887-1.176    c-1.494,0.577-3.502,0.853-6.184,0.436c-2.665-0.412-4.489-1.582-5.431-3.481c-2.055-4.136,1.129-10.127,1.265-10.379    c0.296-0.549,0.987-0.761,1.528-0.456c0.549,0.296,0.754,0.978,0.459,1.528c-0.775,1.443-2.505,5.744-1.23,8.306    c0.608,1.217,1.832,1.956,3.754,2.253c1.839,0.284,3.435,0.207,4.718-0.213c-1.261-2.826-1.141-5.442-0.482-7.107    c0.547-1.381,1.483-2.252,2.566-2.386c0.541-0.064,1.585,0.004,2.479,1.251c1.466,2.036,1.506,5.061,0.101,7.353    c-0.332,0.541-0.835,1.186-1.575,1.775c0.199,0.282,0.417,0.568,0.654,0.854c1.239,1.487,2.601,2.247,4.167,2.307    c3.362,0.14,6.492-2.999,6.524-3.031c0.436-0.444,1.153-0.449,1.595-0.013c0.445,0.436,0.452,1.148,0.017,1.594    c-0.154,0.158-3.846,3.882-8.217,3.706C135.674,53.644,135.12,53.557,134.585,53.407z M130.799,40.113    c-0.008-0.002-0.015-0.002-0.02-0.001c-0.119,0.015-0.47,0.28-0.745,0.977c-0.469,1.183-0.539,3.052,0.35,5.149    c0.299-0.278,0.556-0.593,0.773-0.944c1.041-1.698,0.772-3.768-0.008-4.854C130.986,40.216,130.856,40.129,130.799,40.113z"/>
		<path style="fill:#261D2A;" d="M131.609,68.775c-1.607-0.45-2.98-1.638-3.9-3.423c-0.261-0.506-0.474-1.037-0.639-1.576    c-1.263,0.159-2.605,0.115-3.936-0.212c-2.278-0.585-3.927-1.679-4.856-3.316c-1.397-2.452-0.61-5.133-0.576-5.247    c0.18-0.595,0.808-0.96,1.407-0.753c0.595,0.18,0.933,0.806,0.756,1.402l0,0c-0.005,0.019-0.536,1.899,0.385,3.497    c0.616,1.068,1.778,1.838,3.425,2.223c1.007,0.248,2.025,0.292,2.987,0.189c-0.104-1.611,0.227-3.117,0.997-4.119    c0.837-1.089,2.088-1.517,3.524-1.202c1.802,0.367,2.435,1.284,2.646,1.966c0.288,0.933-0.046,1.97-0.94,2.917    c-0.816,0.866-2.092,1.649-3.609,2.153c0.117,0.351,0.261,0.703,0.437,1.043c0.477,0.926,1.561,2.466,3.504,2.399    c0.617-0.017,1.146,0.465,1.169,1.088c0.021,0.624-0.466,1.147-1.089,1.17C132.716,68.994,132.149,68.927,131.609,68.775z     M130.94,58.504c-0.073-0.021-0.153-0.041-0.24-0.06c-0.734-0.16-1.054,0.115-1.253,0.373c-0.355,0.464-0.557,1.268-0.551,2.211    c0.872-0.328,1.618-0.774,2.157-1.267c0.543-0.496,0.624-0.835,0.616-0.892C131.651,58.829,131.468,58.652,130.94,58.504z"/>
		<g>
			<path style="fill:#FDFEFF;" d="M226.739,64.615c-0.342-0.096-0.632-0.351-0.761-0.71c-0.209-0.587,0.099-1.232,0.686-1.44     l16.564-5.879c0.589-0.213,1.231,0.1,1.442,0.685c0.209,0.587-0.099,1.232-0.686,1.44l-16.564,5.879     C227.192,64.674,226.955,64.676,226.739,64.615z"/>
		</g>
	</g>
	<path style="fill:#E2BA1C;" d="M474.892,430.9c0,0,6.897-21.984,8.778-19.299c1.881,2.684,7.524,17.418,7.524,17.418   s19.847,6.27,19.328,7.524c-0.519,1.254-17.81,7.837-17.81,7.837s-5.594,19.123-8.729,17.242   c-3.135-1.881-8.566-17.137-8.566-17.137s-17.767-1.608-15.572-5.402S474.892,430.9,474.892,430.9z"/>
	<path style="fill:#E2BA1C;" d="M230.234,109.268c0,0,6.897-21.984,8.778-19.299s7.524,17.418,7.524,17.418   s19.847,6.27,19.328,7.524c-0.519,1.254-17.81,7.837-17.81,7.837s-5.594,19.123-8.729,17.242   c-3.135-1.881-8.566-17.136-8.566-17.136s-17.767-1.608-15.572-5.402S230.234,109.268,230.234,109.268z"/>
	<g>
		<g>
			<path style="fill:#BE607A;" d="M322.663,302.616c0,0-14.553-217.003-10.565-217.992c3.988-0.989,92.584-17.534,93.134-14.897     c0.551,2.637,1.101,26.026,1.101,26.026l-73.604,11.084l16.223,191.574C342.837,299.071,322.663,302.616,322.663,302.616z"/>
			<path style="fill:#261D2A;" d="M332.73,107.966c-0.303,0-0.605-0.121-0.827-0.36l-20.631-22.213     c-0.424-0.457-0.398-1.171,0.058-1.595c0.454-0.424,1.172-0.398,1.595,0.058l20.631,22.213c0.424,0.457,0.398,1.171-0.058,1.595     C333.281,107.866,333.005,107.966,332.73,107.966z"/>
			<path style="fill:#261D2A;" d="M333.64,115.853c-0.182,0-0.366-0.044-0.538-0.137l-22.915-12.446     c-0.548-0.298-0.751-0.983-0.453-1.531c0.298-0.547,0.981-0.751,1.531-0.453l22.916,12.446c0.548,0.298,0.751,0.983,0.453,1.531     C334.428,115.639,334.04,115.853,333.64,115.853z"/>
			<path style="fill:#261D2A;" d="M338.11,107.082c-0.416,0-0.816-0.229-1.012-0.627l-11.935-24.056     c-0.278-0.559-0.05-1.236,0.509-1.512c0.557-0.278,1.237-0.05,1.512,0.509l11.935,24.057c0.278,0.559,0.05,1.236-0.509,1.512     C338.45,107.045,338.279,107.082,338.11,107.082z"/>
			<path style="fill:#FDFEFF;" d="M400.04,90.598c-0.283,0-0.568-0.106-0.787-0.32c-4.923-4.783-6.987-9.104-6.132-12.839     c1.077-4.703,6.339-6.501,6.563-6.576c0.589-0.194,1.227,0.122,1.425,0.713c0.197,0.59-0.121,1.229-0.711,1.429     c-0.043,0.014-4.295,1.487-5.079,4.95c-0.649,2.871,1.255,6.572,5.508,10.704c0.446,0.434,0.458,1.149,0.022,1.596     C400.628,90.483,400.334,90.598,400.04,90.598z"/>
		</g>
		<path style="fill:#9F543D;" d="M104.372,279.842c0,0,40.667-24.303,96.821-58.044c36.892-22.166,215.981-34.5,242.988-3.44    c0,0,92.869,192.324-115.951,240.024C123.555,505.136,88.377,337.652,104.372,279.842z"/>
		<g>
			<polygon style="fill:#D37E3A;" points="62.901,92.546 163.93,263.983 169.639,257.457 66.591,88.934    "/>
			<path style="fill:#EEEBD5;" d="M9.59,182.266c0,0,37.026-90.963,50.632-98.351s106.449,11.509,111.646,21.896     c0.938,1.874-3.604,6.036-11.703,11.513l-17.795-0.165l-4.876,13.881c-8.176,4.584-17.309,9.438-26.832,14.273l-20.352-1.274     l-11.682,16.757c-9.494,4.356-18.762,8.391-27.27,11.834l-12.896-2.774L28.36,181.003     C17.563,184.309,10.457,185.159,9.59,182.266z"/>
			<path style="fill:#76ACA0;" d="M59.588,84.309c-0.909,0.628-1.908,1.582-2.983,2.818c-6.276,18.254-21.963,72.141-28.246,93.871     c6.511-1.992,14.36-4.875,22.999-8.371C54.472,152.221,59.843,98.43,59.588,84.309z"/>
			<path style="fill:#76ACA0;" d="M62.67,83.039c9.702,8.093,58.461,39.53,74.825,48c8.962-5.025,16.755-9.72,22.667-13.72     c-18.077-6.97-75.926-29.173-93.85-34.846C64.935,82.604,63.709,82.789,62.67,83.039z"/>
			<path style="fill:#76ACA0;" d="M61.783,83.282c-0.598,0.185-1.123,0.395-1.561,0.633c-0.141,0.077-0.289,0.176-0.435,0.27     c1.562,8.504,13.259,57.775,18.841,76.61c10.647-4.885,21.572-10.173,32.034-15.484C99.282,129.729,70.003,90.083,61.783,83.282z     "/>
		</g>
		<g>
			<path style="fill:#E2BA1C;" d="M253.75,224.28c0,0-154.249-15.469-145.683-26.039s39.798-71.985,86.965-53.137     C249.521,166.877,253.75,224.28,253.75,224.28z"/>
			<path style="fill:#FDFEFF;" d="M227.416,220.48c-0.054,0-0.108-0.004-0.163-0.012c-0.617-0.089-1.044-0.663-0.955-1.279     c0.065-0.451,6.05-45.208-34.072-60.426c-39.95-15.147-65.63,47.152-65.885,47.781c-0.234,0.58-0.889,0.857-1.469,0.625     c-0.578-0.234-0.858-0.891-0.625-1.469c0.262-0.652,26.766-64.981,68.78-49.047c41.836,15.867,35.573,62.392,35.505,62.861     C228.45,220.075,227.968,220.48,227.416,220.48z"/>
			<path style="fill:#D37E3A;" d="M177.832,205.387c0,0-15.707-30.624-3.175-37.81C187.189,160.39,187.245,192.998,177.832,205.387z     "/>
			<path style="fill:#D37E3A;" d="M170.924,204.638c0,0-3.849-28.883-14.228-28.835     C146.317,175.851,148.865,197.145,170.924,204.638z"/>
			<path style="fill:#D37E3A;" d="M185.129,208.271c0,0,9.119-38.855,21.714-29.449     C219.439,188.228,185.129,208.271,185.129,208.271z"/>
			<path style="fill:#FDFEFF;" d="M236.96,200.679c-0.028,0-0.055-0.001-0.084-0.003c-0.622-0.045-1.089-0.586-1.043-1.208     c1.372-18.743-11.586-24.246-12.138-24.471c-0.577-0.235-0.855-0.892-0.622-1.469c0.233-0.578,0.887-0.857,1.466-0.624     c0.151,0.061,15.042,6.29,13.545,26.73C238.042,200.226,237.547,200.679,236.96,200.679z"/>
			<path style="fill:#FDFEFF;" d="M132.421,171.647c-0.194,0-0.389-0.05-0.569-0.154c-0.538-0.315-0.719-1.006-0.405-1.544     c9.474-16.201,17.347-13.971,17.682-13.867c0.595,0.185,0.928,0.818,0.743,1.413c-0.184,0.589-0.797,0.918-1.397,0.749     c-0.154-0.044-6.69-1.499-15.08,12.845C133.186,171.448,132.809,171.647,132.421,171.647z"/>
		</g>
		<path style="fill:#EEEBD5;" d="M128.667,219.698c0,0,273.684-42.403,282.015-40.389s29.329,29.234,33.499,39.05    c1.221,2.874-29.505-10.088-33.952-6.285c-4.552,3.893-11.455,34.163-16.945,34.046c-5.491-0.117-42.663-16.548-43.963-15.346    s-21.903,37.222-26.222,38.216s-58.005-26.759-58.005-26.759s-17.321,40.992-22.512,39.638    c-5.191-1.354-53.493-33.424-53.493-33.424s-32.816,38.081-34.989,36.936c-2.173-1.145-10.216-19.034-10.216-19.034    s-40.168,18.403-39.512,13.495S116.883,225.427,128.667,219.698z"/>
		<g>
			<path style="fill:#C35041;" d="M112.072,231.25c0,0-16.845-49.433,37.239-39.242s-0.95,47.471,2.46,50.275     s43.02-21.359,48.858,17.72s-35.102,59.802-56.701,27.144c0,0,21.055,48.78-4.687,58.229     c-25.742,9.449-85.28-24.928-36.752-47.433c0,0-56.961,40.535-61.625,1.132s26.153-49.756,46.811-39.042     c0,0-64.337-23.415-24.357-55.992S112.072,231.25,112.072,231.25z"/>
			<path style="fill:#E2BA1C;" d="M117.128,257.004c0,0-6.851-14.944,7.474-9.397S121.096,267.93,117.128,257.004z"/>
			<path style="fill:#E2BA1C;" d="M110.438,253.749c0,0,8.638,13.987-6.26,10.246C89.279,260.253,105.154,243.395,110.438,253.749z"/>
			<path style="fill:#E2BA1C;" d="M118.328,268.947c0,0,8.679-7.554,13.91-2.225c5.231,5.329-6.202,15.672-13.956,11.384     C111.43,274.316,118.328,268.947,118.328,268.947z"/>
			<path style="fill:#E2BA1C;" d="M100.897,272.865c0,0,6.286-5.47,10.074-1.611c3.788,3.859-4.491,11.35-10.107,8.244     C95.901,276.754,100.897,272.865,100.897,272.865z"/>
			<path style="fill:#E2BA1C;" d="M134.386,263.331c0,0-2.862-7.826,2.096-9.984c4.958-2.159,8.994,8.252,4.087,12.386     C136.231,269.387,134.386,263.331,134.386,263.331z"/>
			<path style="fill:#FDFEFF;" d="M100.984,240.081c-0.022,0-0.043-0.001-0.065-0.002c-0.622-0.034-1.098-0.568-1.063-1.191     c0.95-16.852-15.87-18.79-16.587-18.864c-0.62-0.065-1.072-0.618-1.008-1.238c0.064-0.618,0.611-1.063,1.236-1.009     c0.197,0.02,19.686,2.213,18.612,21.239C102.076,239.617,101.578,240.081,100.984,240.081z"/>
			<path style="fill:#FDFEFF;" d="M92.204,245.18c-0.076,0-0.154-0.008-0.231-0.024c-0.548-0.114-13.468-2.893-18.734-11.075     c-2.066-3.209-2.669-6.811-1.794-10.704c0.137-0.607,0.733-0.992,1.349-0.853c0.607,0.137,0.99,0.741,0.853,1.349     c-0.738,3.281-0.237,6.305,1.489,8.987c4.76,7.395,17.172,10.06,17.297,10.087c0.611,0.127,1.002,0.725,0.874,1.335     C93.197,244.814,92.728,245.18,92.204,245.18z"/>
			<path style="fill:#FDFEFF;" d="M124.406,234.968c-0.616,0-1.12-0.495-1.129-1.112c-0.204-14.288,10.434-20.216,10.887-20.46     c0.549-0.297,1.232-0.094,1.528,0.453c0.298,0.547,0.096,1.231-0.45,1.53c-0.405,0.222-9.892,5.56-9.708,18.444     c0.009,0.624-0.489,1.137-1.112,1.145C124.417,234.968,124.412,234.968,124.406,234.968z"/>
			<path style="fill:#FDFEFF;" d="M132.152,240.081c-0.605,0-1.107-0.481-1.127-1.091c-0.021-0.623,0.467-1.145,1.09-1.165     c7.195-0.24,15.608-21.206,18.242-29.263c0.193-0.593,0.827-0.923,1.423-0.722c0.593,0.193,0.916,0.831,0.722,1.423     c-1.019,3.119-10.248,30.482-20.313,30.818C132.177,240.081,132.165,240.081,132.152,240.081z"/>
			<path style="fill:#FDFEFF;" d="M173.771,263.349c-0.243,0-0.487-0.078-0.693-0.239c-11.497-8.979-20.771-4.747-21.159-4.56     c-0.563,0.267-1.235,0.03-1.504-0.532c-0.269-0.561-0.034-1.232,0.526-1.503c0.438-0.212,10.874-5.064,23.526,4.815     c0.492,0.384,0.579,1.092,0.195,1.584C174.439,263.2,174.107,263.349,173.771,263.349z"/>
			<path style="fill:#FDFEFF;" d="M171.004,278.68c-10.828,0-19.816-7.528-20.305-7.946c-0.475-0.405-0.531-1.116-0.127-1.591     c0.402-0.473,1.115-0.529,1.591-0.128c0.146,0.125,14.734,12.316,28.218,5.046c0.547-0.298,1.232-0.091,1.529,0.457     c0.297,0.549,0.092,1.234-0.457,1.529C177.926,277.949,174.375,278.68,171.004,278.68z"/>
			<path style="fill:#FDFEFF;" d="M132.152,308.609c-0.163,0-0.33-0.035-0.487-0.111c-0.562-0.269-0.799-0.944-0.529-1.506     c6.806-14.198-1.366-20.414-1.716-20.672c-0.502-0.367-0.613-1.073-0.247-1.575c0.364-0.504,1.065-0.616,1.571-0.254     c0.101,0.074,10.083,7.511,2.427,23.478C132.976,308.373,132.573,308.609,132.152,308.609z"/>
			<path style="fill:#FDFEFF;" d="M112.928,318.154c-0.48,0-0.925-0.308-1.077-0.789c-4.045-12.837,5.887-26.97,6.311-27.565     c0.362-0.507,1.065-0.627,1.574-0.263c0.508,0.362,0.626,1.067,0.265,1.574c-0.098,0.137-9.7,13.821-5.996,25.576     c0.187,0.595-0.143,1.229-0.738,1.417C113.154,318.137,113.041,318.154,112.928,318.154z"/>
			<path style="fill:#FDFEFF;" d="M61.074,278.652c-0.379,0-0.75-0.191-0.962-0.537c-0.326-0.531-0.161-1.226,0.369-1.553     c0.843-0.518,20.785-12.617,31.107-2.306c0.441,0.44,0.441,1.155,0,1.596c-0.439,0.441-1.155,0.441-1.596,0     c-9.055-9.048-28.136,2.512-28.327,2.633C61.479,278.598,61.275,278.652,61.074,278.652z"/>
			<path style="fill:#FDFEFF;" d="M78.428,289.171c-0.928,0-1.759-0.064-2.466-0.151c-0.418-0.052-4.1-0.538-4.759-1.702     c-0.308-0.542-0.117-1.231,0.426-1.539c0.454-0.255,1.005-0.164,1.355,0.183c1.252,0.721,10.723,3.294,18.403-4.76     c0.431-0.451,1.144-0.466,1.596-0.037c0.451,0.43,0.467,1.144,0.037,1.596C87.994,288.032,82.358,289.171,78.428,289.171z"/>
		</g>
		<path style="fill:#261D2A;" d="M391.893,315.545c-0.311,0-0.622-0.128-0.844-0.379c-0.413-0.466-0.371-1.181,0.095-1.594    c4.798-4.256,7.398-9.448,7.73-15.43c0.841-15.169-13.044-30.737-13.184-30.892c-0.418-0.462-0.381-1.176,0.082-1.594    c0.462-0.418,1.176-0.383,1.594,0.08c0.599,0.663,14.652,16.409,13.762,32.523c-0.364,6.61-3.219,12.33-8.485,17.002    C392.428,315.452,392.16,315.545,391.893,315.545z"/>
		<path style="fill:#261D2A;" d="M430.226,256.428c-0.174,0-0.351-0.041-0.517-0.126c-0.553-0.286-0.771-0.967-0.485-1.521    c8.207-15.904-7.006-35.144-7.16-35.336c-0.39-0.486-0.313-1.197,0.173-1.587c0.484-0.388,1.195-0.314,1.586,0.172    c0.669,0.832,16.291,20.571,7.407,37.788C431.029,256.205,430.635,256.428,430.226,256.428z"/>
		<path style="fill:#261D2A;" d="M418.905,301.344c-0.1,0-0.203-0.013-0.304-0.042c-0.6-0.166-0.951-0.789-0.784-1.39    c7.252-26.047-5.455-42.715-5.584-42.879c-0.384-0.492-0.298-1.201,0.193-1.585c0.488-0.381,1.197-0.299,1.583,0.191    c0.558,0.71,13.555,17.681,5.982,44.88C419.852,301.018,419.399,301.344,418.905,301.344z"/>
		<path style="fill:#261D2A;" d="M436.858,333.194c-0.208,0-0.42-0.057-0.609-0.179c-0.525-0.336-0.677-1.034-0.341-1.56    c14.807-23.099,4.696-41.197,4.593-41.376c-0.311-0.539-0.127-1.23,0.411-1.542c0.541-0.31,1.23-0.128,1.541,0.41    c0.111,0.191,10.937,19.42-4.644,43.728C437.594,333.01,437.229,333.194,436.858,333.194z"/>
		<path style="fill:#261D2A;" d="M420.862,386.312c-0.279,0-0.559-0.103-0.777-0.31c-0.452-0.43-0.471-1.144-0.042-1.596    c18.912-19.917,2.63-41.35,2.464-41.564c-0.383-0.492-0.294-1.202,0.197-1.584c0.491-0.385,1.201-0.294,1.584,0.197    c0.179,0.229,17.626,23.196-2.607,44.505C421.458,386.195,421.161,386.312,420.862,386.312z"/>
		<path style="fill:#261D2A;" d="M389.664,391.095c-0.287,0-0.574-0.109-0.795-0.326c-0.442-0.439-0.446-1.154-0.008-1.597    c16.622-16.784,3.563-42.291,3.43-42.547c-0.29-0.552-0.076-1.235,0.476-1.523c0.556-0.292,1.234-0.075,1.523,0.476    c0.142,0.27,13.945,27.239-3.824,45.184C390.245,390.983,389.955,391.095,389.664,391.095z"/>
		<path style="fill:#261D2A;" d="M363.317,350.173c-0.201,0-0.403-0.053-0.588-0.165c-0.531-0.325-0.7-1.02-0.375-1.552    c12.909-21.126-3.61-38.497-4.319-39.225c-0.434-0.446-0.426-1.161,0.021-1.596c0.445-0.435,1.159-0.428,1.595,0.02    c0.186,0.191,18.466,19.335,4.63,41.979C364.069,349.981,363.697,350.173,363.317,350.173z"/>
		<path style="fill:#261D2A;" d="M304.107,328.613c-0.111,0-0.224-0.017-0.335-0.051c-0.595-0.185-0.928-0.818-0.743-1.413    c5.035-16.173-6.86-42.885-6.981-43.153c-0.256-0.569-0.002-1.237,0.566-1.493c0.57-0.26,1.237-0.003,1.493,0.564    c0.508,1.126,12.369,27.759,7.08,44.752C305.034,328.303,304.589,328.613,304.107,328.613z"/>
		<path style="fill:#261D2A;" d="M278.383,343.1c-0.258,0-0.517-0.088-0.73-0.267c-11.644-9.854-10.852-39.328-10.812-40.578    c0.019-0.623,0.528-1.134,1.163-1.092c0.623,0.019,1.112,0.54,1.092,1.163c-0.009,0.295-0.797,29.632,10.016,38.783    c0.475,0.403,0.535,1.116,0.132,1.592C279.021,342.964,278.702,343.1,278.383,343.1z"/>
		<path style="fill:#261D2A;" d="M243.635,327.984c-0.24,0-0.483-0.077-0.689-0.235c-13.448-10.379-6.457-36.094-6.152-37.183    c0.168-0.601,0.79-0.954,1.39-0.784c0.601,0.168,0.951,0.789,0.784,1.39c-0.069,0.252-6.886,25.34,5.359,34.788    c0.493,0.381,0.584,1.09,0.204,1.584C244.307,327.833,243.973,327.984,243.635,327.984z"/>
		<path style="fill:#261D2A;" d="M173.771,353.92c-0.24,0-0.483-0.077-0.689-0.235c-13.448-10.379-6.458-36.094-6.154-37.183    c0.168-0.601,0.789-0.955,1.39-0.784c0.601,0.168,0.951,0.789,0.784,1.39c-0.069,0.252-6.884,25.34,5.36,34.788    c0.493,0.381,0.584,1.09,0.204,1.584C174.443,353.769,174.109,353.92,173.771,353.92z"/>
		<path style="fill:#261D2A;" d="M223.794,368.243c-0.225,0-0.452-0.067-0.65-0.206c-17.692-12.491-13.071-48.23-12.866-49.746    c0.085-0.616,0.655-1.046,1.27-0.967c0.618,0.084,1.052,0.653,0.968,1.27c-0.049,0.358-4.643,35.897,11.931,47.597    c0.509,0.36,0.631,1.065,0.271,1.574C224.497,368.077,224.149,368.243,223.794,368.243z"/>
		<path style="fill:#261D2A;" d="M195.884,337.165c-0.228,0-0.459-0.069-0.658-0.213c-18.802-13.526-6.563-39.178-6.437-39.436    c0.272-0.56,0.948-0.793,1.509-0.518c0.56,0.273,0.793,0.949,0.519,1.509c-0.117,0.24-11.523,24.202,5.727,36.613    c0.506,0.364,0.622,1.069,0.257,1.575C196.58,337.002,196.234,337.165,195.884,337.165z"/>
		<path style="fill:#261D2A;" d="M212.297,405.509c-15.365,0-17.265-34.064-17.339-35.517c-0.031-0.623,0.448-1.153,1.07-1.185    c0.642-0.025,1.153,0.448,1.185,1.07c0.017,0.335,1.851,33.374,15.085,33.374c0.034,0,0.066-0.007,0.106-0.001    c0.617,0,1.121,0.497,1.129,1.116c0.008,0.624-0.493,1.134-1.116,1.142C212.378,405.507,212.337,405.509,212.297,405.509z"/>
		<path style="fill:#261D2A;" d="M196.119,433.534c-0.206,0-0.416-0.056-0.603-0.175c-18.337-11.619-17.577-32.686-17.567-32.898    c0.03-0.622,0.575-1.088,1.18-1.074c0.622,0.028,1.104,0.556,1.076,1.178c-0.009,0.198-0.687,19.983,16.519,30.886    c0.527,0.334,0.683,1.031,0.349,1.558C196.859,433.348,196.493,433.534,196.119,433.534z"/>
		<path style="fill:#261D2A;" d="M151.429,388.286c-0.247,0-0.496-0.08-0.703-0.247c-20.069-16.042-13.665-32.808-13.599-32.975    c0.23-0.578,0.886-0.861,1.464-0.628c0.579,0.229,0.862,0.885,0.634,1.464c-0.246,0.623-5.792,15.425,12.91,30.375    c0.487,0.389,0.567,1.1,0.177,1.586C152.09,388.14,151.761,388.286,151.429,388.286z"/>
		<path style="fill:#261D2A;" d="M256.631,429.917c-0.172,0-0.346-0.04-0.51-0.122c-18.369-9.336-16.837-36.138-16.763-37.274    c0.041-0.622,0.585-1.081,1.199-1.053c0.623,0.041,1.094,0.578,1.054,1.199c-0.018,0.263-1.504,26.456,15.533,35.115    c0.556,0.282,0.777,0.962,0.495,1.518C257.439,429.691,257.042,429.917,256.631,429.917z"/>
		<path style="fill:#261D2A;" d="M295.905,445.862c-0.172,0-0.346-0.04-0.51-0.122c-18.369-9.336-16.837-36.138-16.763-37.274    c0.042-0.621,0.582-1.089,1.199-1.053c0.623,0.041,1.094,0.578,1.054,1.199c-0.018,0.263-1.504,26.456,15.533,35.115    c0.556,0.282,0.777,0.962,0.495,1.518C296.713,445.636,296.316,445.862,295.905,445.862z"/>
		<path style="fill:#261D2A;" d="M267.803,392.375c-0.201,0-0.405-0.054-0.589-0.166c-19.315-11.833-11.566-40.824-11.486-41.116    c0.164-0.602,0.788-0.955,1.388-0.787c0.601,0.165,0.954,0.787,0.788,1.388c-0.076,0.276-7.372,27.647,10.489,38.591    c0.531,0.325,0.699,1.021,0.373,1.552C268.554,392.183,268.183,392.375,267.803,392.375z"/>
		<path style="fill:#261D2A;" d="M344.078,311.918c-0.284,0-0.568-0.106-0.787-0.32c-0.448-0.435-0.456-1.15-0.022-1.596    c13.12-13.476-6.388-38.934-6.587-39.189c-0.383-0.493-0.294-1.202,0.198-1.584c0.491-0.386,1.202-0.293,1.583,0.197    c0.861,1.107,20.911,27.269,6.424,42.15C344.665,311.804,344.372,311.918,344.078,311.918z"/>
		<path style="fill:#261D2A;" d="M331.655,383.913c-0.181,0-0.365-0.044-0.536-0.136c-0.549-0.297-0.753-0.982-0.456-1.53    c9.847-18.206-9.472-41.165-9.668-41.395c-0.406-0.474-0.349-1.186,0.125-1.591c0.473-0.406,1.186-0.349,1.591,0.123    c0.843,0.986,20.526,24.363,9.939,43.936C332.444,383.699,332.056,383.913,331.655,383.913z"/>
		<path style="fill:#261D2A;" d="M367.903,422.773c-0.204,0-0.409-0.055-0.595-0.17c-0.529-0.33-0.691-1.025-0.363-1.555    c8.612-13.853,0.698-34.267,0.617-34.472c-0.229-0.58,0.054-1.236,0.634-1.465c0.577-0.23,1.235,0.054,1.465,0.634    c0.348,0.878,8.419,21.668-0.798,36.496C368.649,422.585,368.28,422.773,367.903,422.773z"/>
		<path style="fill:#261D2A;" d="M341.162,429.561c-0.204,0-0.409-0.055-0.595-0.17c-0.529-0.33-0.691-1.025-0.363-1.555    c8.612-13.853,0.698-34.266,0.617-34.471c-0.229-0.58,0.054-1.236,0.634-1.465c0.579-0.229,1.236,0.054,1.465,0.634    c0.348,0.878,8.419,21.668-0.798,36.495C341.908,429.372,341.539,429.561,341.162,429.561z"/>
		<path style="fill:#261D2A;" d="M313.627,412.623c-0.173,0-0.349-0.04-0.515-0.125c-18.457-9.491-17.093-42.705-17.025-44.115    c0.03-0.623,0.596-1.088,1.181-1.074c0.623,0.03,1.105,0.559,1.075,1.182c-0.015,0.33-1.364,33.172,15.802,41.998    c0.555,0.286,0.773,0.966,0.488,1.52C314.432,412.4,314.037,412.623,313.627,412.623z"/>
		<path style="fill:#D37E3A;" d="M66.312,82.474L55.616,88.32c-1.447-2.626-4.212-13.835,0.675-12.985    C61.178,76.185,66.312,82.474,66.312,82.474z"/>
		<path style="fill:#261D2A;" d="M190.221,224.754c-0.596,0-1.095-0.467-1.127-1.07c-0.032-0.623,0.446-1.153,1.069-1.186    c1.379-0.072,138.435-7.456,184.672-32.467c0.551-0.294,1.232-0.093,1.53,0.456c0.297,0.548,0.093,1.234-0.456,1.53    c-46.683,25.252-184.245,32.663-185.629,32.736C190.26,224.754,190.24,224.754,190.221,224.754z"/>
		<path style="fill:#FDFEFF;" d="M445.141,350.878c-0.219,0-0.442-0.064-0.637-0.197c-0.514-0.353-0.645-1.055-0.293-1.57    c23.64-34.501,2.908-83.541,2.696-84.032c-0.247-0.572,0.017-1.237,0.589-1.484c0.569-0.246,1.237,0.017,1.484,0.589    c0.217,0.503,21.444,50.666-2.906,86.204C445.854,350.706,445.5,350.878,445.141,350.878z"/>
		<path style="fill:#FDFEFF;" d="M243.636,456.821c-0.004,0-0.009,0-0.013,0c-38.037-0.443-62.423-15.254-76.183-27.6    c-14.933-13.401-20.766-26.512-21.006-27.063c-0.25-0.571,0.011-1.236,0.582-1.486c0.569-0.247,1.237,0.012,1.486,0.582    c0.23,0.524,23.815,52.477,95.148,53.309c0.623,0.008,1.123,0.518,1.116,1.142C244.757,456.324,244.253,456.821,243.636,456.821z"/>
		<path style="fill:#FDFEFF;" d="M432.801,386.312c-0.374,0-0.74-0.185-0.955-0.525c-0.334-0.527-0.177-1.224,0.349-1.558    c6.316-4.002,9.031-20.574,9.057-20.742c0.099-0.614,0.678-1.035,1.293-0.936c0.615,0.098,1.034,0.677,0.936,1.293    c-0.116,0.722-2.911,17.751-10.078,22.292C433.216,386.256,433.007,386.312,432.801,386.312z"/>
	</g>
	<path style="fill:#261D2A;" d="M189.285,496.751c-0.612,0-1.115-0.488-1.129-1.104c-0.013-0.623,0.481-1.14,1.104-1.154   c1.482-0.033,2.89-0.225,4.186-0.571c0.597-0.161,1.22,0.196,1.381,0.799c0.161,0.602-0.196,1.22-0.799,1.381   c-1.468,0.392-3.056,0.611-4.717,0.648C189.301,496.751,189.292,496.751,189.285,496.751z M184.788,496.433   c-0.057,0-0.116-0.004-0.174-0.013l-0.777-0.13c-1.325-0.238-2.598-0.551-3.787-0.933c-0.593-0.191-0.921-0.826-0.73-1.42   c0.19-0.592,0.823-0.918,1.42-0.73c1.092,0.351,2.269,0.639,3.495,0.86l0.725,0.121c0.616,0.096,1.038,0.674,0.943,1.289   C185.815,496.035,185.335,496.433,184.788,496.433z M197.862,494.375c-0.379,0-0.749-0.191-0.962-0.537   c-0.326-0.53-0.162-1.226,0.369-1.553c1.162-0.715,2.236-1.618,3.191-2.683c0.418-0.464,1.131-0.5,1.594-0.086   c0.464,0.417,0.503,1.13,0.086,1.594c-1.1,1.226-2.34,2.268-3.688,3.098C198.269,494.321,198.064,494.375,197.862,494.375z    M176.256,493.631c-0.187,0-0.377-0.046-0.552-0.144c-1.421-0.799-2.719-1.746-3.855-2.814c-0.454-0.427-0.477-1.141-0.05-1.595   c0.426-0.455,1.143-0.476,1.595-0.05c1.004,0.943,2.153,1.781,3.416,2.49c0.543,0.305,0.736,0.994,0.431,1.538   C177.035,493.424,176.651,493.631,176.256,493.631z M203.883,487.793c-0.183,0-0.368-0.044-0.54-0.138   c-0.547-0.299-0.749-0.984-0.45-1.532c0.655-1.199,1.232-2.532,1.715-3.962c0.2-0.591,0.839-0.909,1.431-0.708   c0.591,0.2,0.907,0.84,0.708,1.431c-0.525,1.553-1.154,3.006-1.872,4.321C204.67,487.58,204.283,487.793,203.883,487.793z    M169.774,487.493c-0.378,0-0.747-0.19-0.96-0.535c-0.828-1.335-1.496-2.798-1.987-4.349c-0.049-0.152-0.063-0.306-0.047-0.455   c-0.293,0.186-0.59,0.368-0.891,0.545c-0.539,0.315-1.23,0.134-1.544-0.402c-0.315-0.538-0.136-1.229,0.402-1.544   c0.969-0.569,1.899-1.202,2.776-1.887c-0.12,0.057-0.251,0.095-0.391,0.106c-0.633,0.053-1.169-0.408-1.22-1.029   c-0.057-0.667-0.085-1.331-0.085-1.987c-0.001-0.909,0.053-1.834,0.161-2.748c0.074-0.62,0.626-1.058,1.253-0.989   c0.62,0.073,1.062,0.635,0.989,1.253c-0.098,0.826-0.147,1.66-0.146,2.483c0,0.593,0.025,1.193,0.076,1.796   c0.025,0.298-0.067,0.578-0.238,0.795c0.116-0.095,0.231-0.191,0.345-0.288c0.476-0.4,1.187-0.344,1.592,0.13   c0.403,0.476,0.345,1.188-0.13,1.592c-0.492,0.417-1.001,0.818-1.526,1.202c0.356,0.098,0.657,0.369,0.776,0.747   c0.434,1.372,1.024,2.666,1.753,3.842c0.329,0.529,0.165,1.225-0.365,1.553C170.182,487.438,169.977,487.493,169.774,487.493z    M150.615,486.693c-0.9,0-1.82-0.035-2.762-0.108c-0.622-0.048-1.087-0.591-1.038-1.213c0.048-0.621,0.581-1.092,1.213-1.038   c1.512,0.117,2.965,0.13,4.362,0.053c0.601-0.058,1.154,0.441,1.188,1.065c0.034,0.623-0.442,1.154-1.065,1.188   C151.891,486.675,151.259,486.693,150.615,486.693z M156.922,486.062c-0.524,0-0.993-0.366-1.105-0.9   c-0.126-0.611,0.266-1.208,0.876-1.335c1.424-0.294,2.822-0.702,4.157-1.209c0.583-0.225,1.235,0.072,1.456,0.654   c0.222,0.583-0.071,1.235-0.654,1.456c-1.446,0.55-2.961,0.991-4.501,1.311C157.075,486.054,156.998,486.062,156.922,486.062z    M143.497,485.849c-0.097,0-0.194-0.012-0.292-0.039c-1.53-0.408-3.019-0.969-4.426-1.669c-0.558-0.278-0.786-0.956-0.508-1.514   c0.277-0.558,0.956-0.786,1.514-0.508c1.272,0.633,2.618,1.141,4.003,1.51c0.602,0.16,0.96,0.778,0.799,1.381   C144.451,485.516,143.995,485.849,143.497,485.849z M135.468,481.861c-0.241,0-0.484-0.077-0.69-0.236   c-1.224-0.948-2.382-2.033-3.442-3.227c-0.413-0.466-0.372-1.18,0.095-1.594c0.465-0.414,1.177-0.373,1.594,0.095   c0.967,1.089,2.022,2.079,3.135,2.94c0.493,0.381,0.583,1.09,0.202,1.584C136.139,481.71,135.805,481.861,135.468,481.861z    M206.838,479.283c-0.073,0-0.148-0.007-0.222-0.022c-0.612-0.121-1.009-0.717-0.886-1.327c0.28-1.404,0.489-2.871,0.623-4.357   c0.056-0.62,0.583-1.076,1.226-1.023c0.621,0.056,1.078,0.604,1.023,1.226c-0.141,1.565-0.362,3.112-0.658,4.595   C207.837,478.912,207.365,479.283,206.838,479.283z M172.157,477.028c-0.249,0-0.502-0.083-0.71-0.252   c-0.484-0.392-0.558-1.104-0.165-1.587c0.941-1.16,1.72-2.361,2.315-3.571c0.277-0.559,0.956-0.786,1.511-0.515   c0.56,0.276,0.789,0.952,0.515,1.511c-0.67,1.361-1.541,2.706-2.588,3.996C172.811,476.885,172.485,477.028,172.157,477.028z    M129.487,475.16c-0.377,0-0.745-0.189-0.959-0.531c-0.817-1.309-1.542-2.71-2.155-4.165c-0.243-0.574,0.026-1.237,0.601-1.478   c0.573-0.241,1.236,0.026,1.478,0.601c0.568,1.345,1.238,2.639,1.992,3.847c0.33,0.529,0.169,1.225-0.36,1.555   C129.897,475.105,129.691,475.16,129.487,475.16z M168.114,470.072c-0.126,0-0.254-0.021-0.378-0.065   c-0.588-0.209-0.894-0.855-0.686-1.442c0.625-1.755,1.455-3.241,2.401-4.299c0.415-0.465,1.129-0.503,1.594-0.088   c0.464,0.416,0.504,1.129,0.088,1.594c-0.752,0.841-1.429,2.069-1.956,3.55C169.013,469.784,168.578,470.072,168.114,470.072z    M175.906,468.946c-0.03,0-0.06-0.001-0.089-0.003c-0.622-0.049-1.086-0.592-1.037-1.214c0.013-0.17,0.02-0.335,0.021-0.497   c0-0.81-0.183-1.882-1.056-2.349c-0.55-0.294-0.757-0.979-0.463-1.528c0.295-0.55,0.976-0.755,1.528-0.463   c1.451,0.776,2.249,2.319,2.249,4.347c-0.001,0.222-0.01,0.442-0.028,0.667C176.984,468.496,176.489,468.946,175.906,468.946z    M125.979,466.876c-0.505,0-0.966-0.342-1.094-0.854c-0.214-0.852-0.389-1.71-0.526-2.566c-0.095,0.094-0.208,0.172-0.337,0.228   c-1.454,0.641-2.946,1.16-4.433,1.543c-0.597,0.161-1.218-0.206-1.376-0.811c-0.155-0.604,0.208-1.219,0.811-1.376   c1.369-0.353,2.745-0.831,4.087-1.422c0.347-0.151,0.721-0.117,1.021,0.055c-0.009-0.093-0.018-0.185-0.025-0.279   c-0.053-0.621,0.407-1.167,1.029-1.22c0.603-0.075,1.169,0.408,1.22,1.029c0.121,1.414,0.363,2.851,0.719,4.271   c0.152,0.605-0.215,1.218-0.82,1.369C126.162,466.865,126.071,466.876,125.979,466.876z M113.051,466.066   c-0.943,0-1.892-0.053-2.823-0.158c-0.62-0.071-1.065-0.629-0.995-1.249c0.069-0.62,0.621-1.062,1.249-0.995   c1.42,0.16,2.887,0.186,4.295,0.079c0.624-0.029,1.163,0.419,1.21,1.041c0.047,0.622-0.419,1.163-1.041,1.21   C114.322,466.042,113.689,466.066,113.051,466.066z M105.939,465.003c-0.109,0-0.22-0.015-0.33-0.05l-0.665-0.211   c-1.322-0.437-2.547-0.892-3.681-1.361c-0.577-0.238-0.85-0.898-0.612-1.474c0.238-0.578,0.903-0.847,1.474-0.612   c1.088,0.45,2.262,0.885,3.528,1.304l0.615,0.195c0.596,0.182,0.933,0.814,0.75,1.409   C106.869,464.69,106.423,465.003,105.939,465.003z M127.55,461.655c-0.375,0-0.741-0.186-0.956-0.527   c-0.333-0.527-0.175-1.224,0.353-1.557c1.223-0.772,2.404-1.638,3.512-2.577c0.478-0.4,1.188-0.343,1.592,0.132   c0.402,0.476,0.343,1.188-0.132,1.592c-1.189,1.005-2.456,1.936-3.768,2.763C127.965,461.598,127.757,461.655,127.55,461.655z    M97.626,461.52c-0.185,0-0.374-0.045-0.547-0.142c-1.452-0.806-2.769-1.68-3.914-2.597c-0.487-0.389-0.566-1.1-0.175-1.586   c0.389-0.485,1.099-0.567,1.586-0.175c1.046,0.838,2.257,1.64,3.598,2.386c0.546,0.302,0.742,0.99,0.439,1.535   C98.407,461.311,98.023,461.52,97.626,461.52z M125.252,457.916c-0.037,0-0.075-0.002-0.112-0.006   c-0.621-0.062-1.074-0.614-1.012-1.235c0.164-1.657,0.503-3.227,1.004-4.665c0.207-0.589,0.852-0.897,1.438-0.695   c0.589,0.205,0.9,0.849,0.695,1.438c-0.443,1.271-0.743,2.666-0.89,4.145C126.317,457.482,125.825,457.916,125.252,457.916z    M134.422,455.833c-0.266,0-0.532-0.094-0.747-0.283c-0.467-0.412-0.512-1.126-0.098-1.593c1.018-1.153,1.877-2.316,2.554-3.458   c0.319-0.538,1.012-0.714,1.547-0.396c0.537,0.317,0.713,1.011,0.396,1.547c-0.75,1.264-1.693,2.543-2.806,3.802   C135.044,455.704,134.734,455.833,134.422,455.833z M90.719,455.82c-0.344,0-0.683-0.157-0.905-0.453   c-1.023-1.37-1.769-2.835-2.216-4.357c-0.176-0.599,0.165-1.226,0.764-1.401c0.599-0.18,1.226,0.168,1.401,0.764   c0.372,1.263,0.998,2.488,1.859,3.642c0.374,0.499,0.271,1.207-0.228,1.58C91.191,455.747,90.954,455.82,90.719,455.82z    M128.307,449.543c-0.24,0-0.483-0.077-0.688-0.235c-0.494-0.381-0.585-1.09-0.205-1.583c1.041-1.349,2.3-2.436,3.74-3.229   c0.546-0.3,1.234-0.101,1.533,0.444c0.301,0.547,0.101,1.234-0.444,1.533c-1.169,0.643-2.192,1.528-3.042,2.629   C128.979,449.392,128.645,449.543,128.307,449.543z M138.686,448.008c-0.032,0-0.065-0.001-0.097-0.004   c-0.622-0.053-1.081-0.6-1.029-1.22c0.008-0.096,0.012-0.19,0.012-0.28c0-0.778-0.259-1.177-1.395-1.212   c-0.607,0-1.202-0.474-1.226-1.081c-0.024-0.623,0.362-1.146,0.984-1.171l0.288-0.007c2.225,0,3.606,1.329,3.606,3.47   c0,0.152-0.007,0.31-0.021,0.472C139.759,447.564,139.266,448.008,138.686,448.008z M88.282,447.351   c-0.039,0-0.078-0.002-0.119-0.007c-0.62-0.065-1.069-0.62-1.004-1.24c0.292-2.79,1.397-4.68,1.443-4.758   c0.319-0.535,1.008-0.711,1.542-0.396c0.536,0.315,0.715,1.006,0.402,1.543c-0.01,0.015-0.904,1.571-1.143,3.846   C89.342,446.92,88.853,447.351,88.282,447.351z"/>
	<path style="fill:#261D2A;" d="M306.638,64.125c-0.329,0-0.654-0.142-0.878-0.417c-0.933-1.15-1.785-2.507-2.531-4.036   c-0.273-0.56-0.042-1.236,0.519-1.509c0.558-0.273,1.236-0.042,1.509,0.519c0.671,1.374,1.43,2.586,2.255,3.602   c0.392,0.484,0.32,1.195-0.164,1.589C307.14,64.042,306.887,64.125,306.638,64.125z M340.892,58.37   c-1.129,0-2.197-0.337-3.175-1.004c-0.516-0.351-0.649-1.053-0.298-1.568c0.351-0.516,1.053-0.652,1.568-0.298   c0.598,0.406,1.238,0.612,1.905,0.612c0.594-0.03,0.925-0.116,1.187-0.262c0.542-0.302,1.231-0.109,1.536,0.435   c0.304,0.543,0.109,1.231-0.435,1.536c-0.561,0.313-1.217,0.495-1.949,0.538L340.892,58.37z M302.617,56.098   c-0.486,0-0.936-0.316-1.081-0.806c-0.443-1.483-0.781-3.021-1.003-4.571c-0.088-0.617,0.341-1.189,0.957-1.279   c0.632-0.099,1.189,0.34,1.279,0.957c0.206,1.441,0.519,2.87,0.93,4.246c0.179,0.597-0.161,1.226-0.758,1.404   C302.831,56.083,302.723,56.098,302.617,56.098z M335.63,54.031c-0.43,0-0.84-0.246-1.03-0.663   c-0.609-1.344-1.063-2.892-1.349-4.601c-0.103-0.615,0.312-1.197,0.927-1.3c0.61-0.109,1.196,0.312,1.3,0.927   c0.254,1.517,0.65,2.876,1.18,4.041c0.257,0.568,0.006,1.237-0.562,1.495C335.944,53.999,335.785,54.031,335.63,54.031z    M344.185,53.984c-0.594,0-1.091-0.464-1.126-1.064c-0.066-1.152-0.389-2.561-0.933-4.076c-0.211-0.586,0.095-1.234,0.681-1.444   c0.581-0.214,1.234,0.095,1.444,0.681c0.624,1.74,0.981,3.324,1.06,4.708c0.036,0.623-0.44,1.156-1.062,1.192   C344.229,53.983,344.207,53.984,344.185,53.984z M375.938,52.087l-0.607-0.006c-1.828-0.066-3.302-0.476-4.38-1.219   c-0.514-0.353-0.643-1.056-0.289-1.57c0.353-0.512,1.055-0.644,1.57-0.289c0.719,0.495,1.789,0.772,3.182,0.822l0.312,0.006   c0.62,0,1.22,0.498,1.225,1.118C376.956,51.569,376.558,52.076,375.938,52.087z M380.148,50.739c-0.348,0-0.691-0.16-0.912-0.462   c-0.368-0.503-0.259-1.209,0.244-1.578c0.978-0.715,1.735-1.754,2.25-3.085c0.225-0.582,0.88-0.869,1.461-0.645   c0.581,0.225,0.87,0.879,0.645,1.461c-0.674,1.74-1.69,3.115-3.022,4.09C380.613,50.668,380.38,50.739,380.148,50.739z    M301.343,47.188c-0.003,0-0.007,0-0.011,0c-0.623-0.006-1.123-0.516-1.118-1.14c0.015-1.614,0.163-3.19,0.439-4.685   c0.112-0.614,0.7-1.024,1.315-0.905c0.613,0.114,1.019,0.702,0.905,1.315c-0.252,1.367-0.387,2.812-0.401,4.297   C302.467,46.689,301.962,47.188,301.343,47.188z M370.039,47.079c-0.042,0-0.085-0.002-0.128-0.007   c-0.62-0.071-1.065-0.629-0.995-1.249c0.159-1.396,0.696-2.959,1.597-4.647c0.293-0.551,0.98-0.758,1.527-0.464   c0.55,0.293,0.758,0.978,0.464,1.527c-0.766,1.435-1.219,2.727-1.344,3.837C371.094,46.653,370.606,47.079,370.039,47.079z    M341.337,45.475c-0.402,0-0.793-0.216-0.995-0.595c-0.674-1.256-1.446-2.513-2.297-3.739c-0.356-0.513-0.229-1.216,0.283-1.571   c0.513-0.357,1.216-0.228,1.571,0.283c0.9,1.296,1.719,2.628,2.432,3.96c0.295,0.549,0.088,1.234-0.461,1.528   C341.7,45.432,341.517,45.475,341.337,45.475z M334.038,45.211c-0.006,0-0.011,0-0.017,0c-0.623-0.009-1.121-0.521-1.112-1.145   c0.022-1.547,0.172-3.118,0.443-4.671c0.107-0.614,0.682-1.022,1.307-0.917c0.614,0.108,1.024,0.693,0.917,1.307   c-0.251,1.434-0.39,2.886-0.41,4.314C335.158,44.716,334.654,45.211,334.038,45.211z M421.202,43.141   c-0.437,0-0.852-0.255-1.036-0.68c-0.008-0.015-0.708-1.615-2.118-3.79c-0.34-0.524-0.191-1.223,0.333-1.561   c0.524-0.34,1.223-0.19,1.561,0.333c1.521,2.346,2.264,4.05,2.295,4.121c0.247,0.572-0.015,1.236-0.588,1.484   C421.504,43.111,421.351,43.141,421.202,43.141z M383.593,42.732c-0.007,0-0.014,0-0.022,0c-0.623-0.012-1.119-0.527-1.107-1.151   l0.004-0.333c0-1.245-0.151-2.553-0.448-3.878c-0.137-0.609,0.246-1.212,0.854-1.348c0.612-0.138,1.212,0.248,1.348,0.854   c0.334,1.486,0.503,2.961,0.503,4.383l-0.004,0.366C384.71,42.241,384.207,42.732,383.593,42.732z M374.004,39.077   c-0.244,0-0.489-0.079-0.697-0.241c-0.491-0.386-0.574-1.096-0.19-1.585c0.922-1.171,1.967-2.338,3.109-3.468   c0.442-0.438,1.156-0.435,1.596,0.009c0.439,0.442,0.434,1.158-0.009,1.596c-1.075,1.064-2.058,2.161-2.921,3.259   C374.67,38.93,374.34,39.077,374.004,39.077z M303.031,38.372c-0.146,0-0.293-0.028-0.435-0.087   c-0.574-0.24-0.847-0.902-0.606-1.477c0.634-1.517,1.436-2.915,2.387-4.155c0.38-0.493,1.089-0.586,1.583-0.209   c0.495,0.379,0.589,1.088,0.209,1.583c-0.832,1.086-1.537,2.314-2.096,3.652C303.892,38.111,303.472,38.372,303.031,38.372z    M336.199,38.057c-0.315,0-0.629-0.132-0.852-0.389c-0.977-1.124-2.005-2.183-3.059-3.145c-0.461-0.42-0.494-1.134-0.073-1.594   c0.421-0.463,1.137-0.493,1.594-0.073c0.363,0.331,0.722,0.671,1.078,1.023c0.45-1.156,0.972-2.271,1.558-3.325   c0.302-0.545,0.988-0.743,1.536-0.438c0.545,0.303,0.741,0.99,0.438,1.536c-0.686,1.232-1.277,2.559-1.757,3.941   c-0.012,0.036-0.026,0.071-0.042,0.105c0.146,0.162,0.29,0.325,0.432,0.491c0.409,0.471,0.358,1.184-0.112,1.592   C336.725,37.966,336.461,38.057,336.199,38.057z M416.31,35.551c-0.322,0-0.642-0.137-0.865-0.402   c-0.957-1.139-1.974-2.195-3.024-3.14c-0.463-0.417-0.5-1.131-0.084-1.594c0.417-0.464,1.131-0.498,1.594-0.084   c1.128,1.014,2.218,2.146,3.242,3.365c0.401,0.477,0.34,1.189-0.138,1.591C416.824,35.464,416.566,35.551,416.31,35.551z    M381.695,33.974c-0.431,0-0.843-0.248-1.031-0.667c-0.089-0.198-0.181-0.395-0.276-0.591c-0.329-0.004-0.652-0.151-0.871-0.428   c-0.308-0.387-0.32-0.914-0.067-1.309c-0.287-0.478-0.591-0.947-0.913-1.402c-0.359-0.509-0.237-1.214,0.272-1.573   c0.509-0.359,1.213-0.237,1.573,0.272c0.293,0.416,0.573,0.841,0.84,1.274c0.75-0.541,1.51-1.052,2.275-1.528   c0.53-0.326,1.227-0.169,1.555,0.363c0.329,0.529,0.166,1.226-0.363,1.555c-0.796,0.494-1.587,1.03-2.365,1.598   c0.138,0.279,0.27,0.56,0.397,0.843c0.256,0.569,0.001,1.237-0.568,1.492C382.006,33.942,381.849,33.974,381.695,33.974z    M329.517,32.005c-0.219,0-0.442-0.064-0.637-0.197c-1.239-0.85-2.5-1.565-3.749-2.128c-0.568-0.257-0.821-0.925-0.566-1.494   c0.257-0.567,0.925-0.819,1.494-0.566c1.369,0.617,2.748,1.4,4.098,2.324c0.514,0.353,0.645,1.055,0.293,1.57   C330.23,31.833,329.877,32.005,329.517,32.005z M308.488,31.325c-0.348,0-0.691-0.16-0.913-0.462   c-0.367-0.504-0.258-1.21,0.245-1.579c1.264-0.924,2.684-1.691,4.221-2.281c0.585-0.224,1.236,0.067,1.458,0.649   c0.224,0.582-0.067,1.236-0.649,1.458c-1.35,0.518-2.594,1.189-3.696,1.996C308.952,31.255,308.719,31.325,308.488,31.325z    M409.593,29.556c-0.208,0-0.42-0.057-0.609-0.179c-1.227-0.787-2.51-1.454-3.814-1.981c-0.578-0.234-0.857-0.891-0.623-1.469   c0.234-0.578,0.892-0.858,1.469-0.623c1.433,0.579,2.842,1.311,4.187,2.173c0.525,0.337,0.677,1.035,0.341,1.56   C410.328,29.373,409.965,29.556,409.593,29.556z M339.979,28.513c-0.256,0-0.513-0.087-0.724-0.265   c-0.477-0.4-0.54-1.112-0.139-1.59c1.022-1.218,2.163-2.329,3.39-3.303c0.488-0.39,1.197-0.303,1.586,0.184   c0.387,0.488,0.304,1.198-0.184,1.586c-1.108,0.878-2.139,1.882-3.064,2.983C340.622,28.376,340.302,28.513,339.979,28.513z    M321.313,28.393c-0.072,0-0.144-0.007-0.217-0.021c-1.4-0.273-2.786-0.355-4.176-0.234c-0.6,0.078-1.169-0.405-1.223-1.026   c-0.054-0.621,0.405-1.169,1.026-1.223c1.603-0.14,3.201-0.047,4.804,0.267c0.613,0.12,1.011,0.712,0.892,1.324   C322.314,28.019,321.842,28.393,321.313,28.393z M388.073,27.981c-0.431,0-0.842-0.247-1.031-0.665   c-0.256-0.569-0.002-1.237,0.566-1.494c1.495-0.674,2.986-1.204,4.434-1.575c0.605-0.151,1.219,0.209,1.375,0.812   c0.154,0.604-0.209,1.219-0.812,1.375c-1.323,0.34-2.691,0.826-4.068,1.447C388.385,27.949,388.228,27.981,388.073,27.981z    M376.52,26.64c-0.28,0-0.561-0.104-0.779-0.313c-1.036-0.989-2.171-1.876-3.374-2.636c-0.527-0.333-0.685-1.031-0.352-1.558   c0.333-0.526,1.03-0.683,1.558-0.352c1.329,0.84,2.584,1.82,3.727,2.914c0.451,0.43,0.467,1.144,0.036,1.595   C377.114,26.523,376.818,26.64,376.52,26.64z M401.272,26.217c-0.068,0-0.138-0.006-0.207-0.019   c-1.302-0.243-2.652-0.365-4.014-0.365l-0.252,0.002c-0.62,0.01-1.135-0.493-1.142-1.116c-0.008-0.623,0.492-1.134,1.115-1.142   l0.28-0.002c1.499,0,2.989,0.136,4.426,0.402c0.613,0.115,1.018,0.703,0.904,1.316C402.28,25.838,401.806,26.217,401.272,26.217z    M347.006,22.948c-0.412,0-0.81-0.227-1.009-0.62c-0.281-0.557-0.057-1.236,0.498-1.517c1.375-0.695,2.852-1.272,4.39-1.719   c0.604-0.168,1.225,0.173,1.399,0.771c0.173,0.599-0.172,1.225-0.771,1.399c-1.404,0.407-2.749,0.933-3.999,1.564   C347.351,22.91,347.176,22.948,347.006,22.948z M368.942,21.845c-0.134,0-0.271-0.024-0.405-0.075   c-1.314-0.505-2.706-0.895-4.139-1.161c-0.613-0.114-1.018-0.703-0.904-1.316c0.114-0.613,0.7-1.021,1.316-0.904   c1.568,0.291,3.094,0.719,4.536,1.273c0.582,0.224,0.873,0.876,0.649,1.458C369.823,21.569,369.395,21.845,368.942,21.845z    M355.614,20.413c-0.562,0-1.048-0.418-1.119-0.99c-0.077-0.618,0.362-1.182,0.981-1.259c0.405-0.051,0.816-0.093,1.232-0.128   c0.961-0.082,1.898-0.12,2.808-0.12l0.628,0.007c0.623,0.014,1.117,0.53,1.103,1.154c-0.014,0.622-0.473,1.146-1.154,1.103   l-0.578-0.007c-0.848,0-1.721,0.036-2.617,0.111c-0.387,0.033-0.769,0.073-1.145,0.119   C355.707,20.409,355.661,20.413,355.614,20.413z"/>
	<path style="fill:#261D2A;" d="M480.743,396.656c-0.614,0-1.259-0.033-1.939-0.101c-11.02-1.102-9.88-23.247-9.267-35.144   c0.096-1.867,0.175-3.395,0.175-4.416c0-0.514,0.346-0.961,0.842-1.091c28.549-7.479,29.559-4.672,29.89-3.746   c0.549,1.523,0.374,5.799,0.043,12.146c-0.128,2.438-0.277,5.309-0.266,6.989c1.454-1.135,3.772-2.849,6.326-2.346   c1.672,0.331,3.122,1.557,4.307,3.645c2.017,3.552,1.336,7.975-1.779,11.544c-2.684,3.076-7.276,5.433-11.465,3.746   c-6.279-2.513-6.272-17.949-6.089-23.104c-5.48,1.149-11.109,2.447-12.553,2.968c-0.246,1.506-0.133,7.172,0.14,12.66   c2.935-1.085,9.283-2.842,11.973,0.997c1.815,2.593,1.776,6.786-0.089,9.97C489.788,393.426,486.912,396.656,480.743,396.656z    M471.956,357.869c-0.026,0.975-0.09,2.218-0.164,3.658c-0.492,9.545-1.643,31.892,7.237,32.783   c6.265,0.604,8.966-2.286,10.016-4.079c1.418-2.421,1.499-5.66,0.187-7.534c-1.991-2.844-8.391-0.695-10.69,0.375   c-0.338,0.159-0.736,0.134-1.056-0.055c-0.321-0.192-0.526-0.531-0.547-0.904c-0.842-14.984-0.071-15.645,0.39-16.042   c0.685-0.591,5.784-1.87,15.159-3.801c0.348-0.077,0.702,0.022,0.968,0.251c0.265,0.229,0.408,0.571,0.387,0.922   c-0.467,7.737,0.369,20.646,4.607,22.343c2.696,1.085,6.37-0.209,8.924-3.137c2.502-2.866,3.07-6.209,1.518-8.943   c-0.848-1.493-1.784-2.348-2.782-2.547c-1.646-0.304-3.464,1.102-4.67,2.046c-0.962,0.752-1.55,1.213-2.294,1.047   c-1.369-0.293-1.365-1.409-0.914-10.067c0.211-4.03,0.494-9.472,0.149-11.048C496.186,352.379,483.305,354.935,471.956,357.869z"/>
</g>
<g>
</g>
<g>
</g>
<g>
</g>
<g>
</g>
<g>
</g>
<g>
</g>
<g>
</g>
<g>
</g>
<g>
</g>
<g>
</g>
<g>
</g>
<g>
</g>
<g>
</g>
<g>
</g>
<g>
</g>
</svg>
