<?xml version="1.0" encoding="UTF-8"?>
<!-- Generator: Adobe Illustrator 25.2.1, SVG Export Plug-In . SVG Version: 6.00 Build 0)  -->
<svg xmlns="http://www.w3.org/2000/svg" xmlns:xlink="http://www.w3.org/1999/xlink" version="1.1" id="Capa_1" x="0px" y="0px" viewBox="0 0 515.195 515.195" style="enable-background:new 0 0 515.195 515.195;" xml:space="preserve" width="512" height="512">
<g>
	<g>
		<g>
			<path style="fill:#FFFFFF;" d="M512.855,273.419l-7.558-15.194c-3.659-7.356-10.935-11.925-18.988-11.925     c-5.549,0-10.908,2.163-14.986,5.874l5.507-13.144c2.462-5.875,2.254-12.376-0.57-17.837c-2.389-4.619-6.441-8.166-11.383-10.058     c-2.894-1.437-6.056-2.185-9.306-2.185c-4.238,0-8.398,1.293-12.027,3.738c-2.617,1.762-5.246,3.558-7.882,5.373     c6.189-14.037,8.615-29.35,1.549-44.353c-10.06-21.362-26.645-24.551-35.635-24.551c-5.382,0-10.8,1.116-16.123,3.008     c3.243-4.891,4.366-11.002,2.815-17.096c-2.468-9.697-10.908-16.533-20.659-16.826c-8.138-6.827-18.688-10.479-30.724-10.479     c-7.032,0-14.482,1.322-21.547,3.824c-2.453,0.869-4.845,1.898-7.168,3.072c-3.532-13.04-12.479-24.524-24.369-31.308     c0.951-7.252-1.984-14.483-8.086-19.235l-19.002-14.794c-3.959-3.082-8.671-4.711-13.628-4.711     c-5.958,0-11.63,2.446-15.784,6.465c0.101-0.521,0.183-1.05,0.248-1.585c1.328-11.027-5.53-20.943-16.307-23.577l-21.375-5.224     c-1.757-0.429-3.548-0.647-5.324-0.647c-11.007,0-20.319,8.406-21.662,19.554c-0.926,7.689,2.127,14.837,7.715,19.354     l-3.387,25.705c-3.916-2.941-9.399-5.384-17.092-6.317c-3.492-0.423-7.065-0.638-10.619-0.638     c-16.653,0-32.921,4.526-46.992,12.81c-3.879-9.346-8.148-19.69-10.502-25.849c-1.666-4.36-5.052-7.843-9.362-9.632     c-2.088-0.867-4.303-1.299-6.518-1.299c-2.358,0-4.715,0.491-6.914,1.47c-6.852,3.05-13.408,6.669-19.484,10.756     c-6.928,4.66-9.447,13.661-5.944,21.24c1.99,4.305,5.07,8.645,7.319,11.813c0.533,0.75,1.262,1.777,1.46,2.091     c2.34,3.822,4.755,7.58,7.159,11.264c-16.914,6.287-32.059,17.33-42.946,31.783c-9.581,12.717-6.919,23.053-4.479,28.083     c3.351,6.908,9.584,11.419,17.53,12.861c-3.801,16.422-5.004,35.107-3.579,55.882c6.376,92.862,46.294,172.34,109.518,218.054     c29.906,21.623,65.303,34.02,102.366,35.851c3.685,0.182,7.429,0.274,11.128,0.274c0.007,0,0.007,0,0.014,0     c37.249,0,72.788-9.011,102.764-26.056c33.122-18.833,57.597-46.697,70.779-80.579c7.953-20.442,11.582-41.717,10.772-62.448     c0.594,0.046,1.192,0.077,1.796,0.077c0.166,0,0.332-0.002,0.498-0.005c0.426,0.025,0.854,0.038,1.281,0.038     c1.833,0,3.675-0.232,5.479-0.69c18.006-4.574,34.025-12.392,49.516-19.953c1.042-0.508,2.091-1.021,3.146-1.534     c2.391,0.935,4.969,1.435,7.632,1.435c0.001,0,0,0,0.001,0c7.627,0,14.898-4.087,18.974-10.667     C515.927,288.286,516.281,280.304,512.855,273.419z"/>
			<g>
				<g>
					<path style="fill:#202D7D;" d="M285.439,213.723c33.075,5.922,62.19,8.214,86.45,32.834       c36.379,36.918,43.405,88.701,25.082,135.796c-26.257,67.487-98.351,98.985-168.004,95.545       c-33.511-1.655-66.045-12.982-93.243-32.647C70.538,398.118,38.579,318.069,33.206,239.808       c-1.923-28.011,0.637-59.513,16.874-83.37c13.427-19.728,34.766-31.89,58.105-35.711c25.187-4.123,49.816-3.681,70.221,13.718       c17.729,15.117,27.15,38.132,44.554,53.622C239.998,203.232,262.987,209.703,285.439,213.723z"/>
				</g>
				<g>
					<path style="fill:#CE2806;" d="M112.718,239.381c4.149,8.047,4.012,16.376-0.307,18.603       c-4.319,2.227-11.184-2.491-15.333-10.538c-4.149-8.047-4.012-16.376,0.307-18.603       C101.704,226.615,108.569,231.334,112.718,239.381z"/>
					<path style="fill:#CE2806;" d="M192.17,198.413c4.149,8.047,4.012,16.376-0.307,18.603       c-4.319,2.227-11.184-2.491-15.333-10.538c-4.149-8.047-4.012-16.376,0.308-18.603       C181.156,185.648,188.021,190.366,192.17,198.413z"/>
				</g>
				<path style="fill:#CE2806;" d="M125.773,237.401c0.129,0.275,0.235,0.555,0.375,0.827c5.931,11.502,20.063,16.019,31.565,10.088      c11.502-5.931,16.019-20.064,10.088-31.565c-0.14-0.272-0.307-0.521-0.457-0.786L125.773,237.401z"/>
				<path style="fill:#FA3E00;" d="M150.148,233.644c-6.406,3.303-11.126,8.575-13.832,14.69c6.493,3.314,14.424,3.579,21.398-0.017      c6.974-3.596,11.357-10.211,12.424-17.422C163.587,229.553,156.554,230.341,150.148,233.644z"/>
				<g>
					<path style="fill:#1C9E5F;" d="M347.789,180.492c-8.401-6.971-17.35-12.273-27.478-16.338c-5.873-2.357-8.398,7.13-2.606,9.455       c7.139,2.865,13.596,6.577,19.664,11.136c-7.24,8.632-15.934,17.06-28.148,14.993c-13.774-2.331-13.682-22.681-11.441-32.565       c2.457-10.835,9.921-20.128,18.86-26.375c10.86-7.591,28.763-10.224,36.991,1.736c-2.305,1.549-4.579,3.148-6.794,4.839       c-2.12,1.618-3.235,4.188-1.759,6.708c1.226,2.093,4.578,3.385,6.708,1.759c5.618-4.289,11.524-8.118,17.732-11.497       c5.554-3.024,0.606-11.491-4.949-8.467c-0.867,0.472-1.714,0.974-2.569,1.463c-8.85-13.714-26.26-14.94-40.986-9.726       c-16.346,5.788-27.899,20.776-32.688,36.954c-4.557,15.395-0.571,34.581,13.949,42.984       c17.588,10.178,35.604-7.879,45.515-20.125C349.343,185.506,349.998,182.325,347.789,180.492z"/>
					<path style="fill:#1C9E5F;" d="M258.337,84.463c4.926,3.835,11.918-3.052,6.934-6.933c-6.334-4.931-12.668-9.863-19.002-14.794       c-4.925-3.835-11.918,3.052-6.933,6.933c1.047,0.815,2.093,1.63,3.14,2.445c-16.971,10.757-33.943,21.513-50.914,32.269       c2.369-17.983,4.739-35.966,7.108-53.949c1.976,0.483,3.953,0.966,5.929,1.449c6.142,1.501,8.747-7.955,2.607-9.455       c-7.125-1.741-14.25-3.483-21.375-5.224c-6.142-1.501-8.747,7.954-2.606,9.455c1.982,0.485,3.964,0.969,5.946,1.454       c-2.886,21.9-5.771,43.799-8.656,65.699c-0.432,3.28,2.062,4.8,4.649,4.632c1.073,0.279,2.286,0.15,3.528-0.638       c20.667-13.098,41.333-26.197,62-39.296C253.24,80.495,255.789,82.479,258.337,84.463z"/>
					<path style="fill:#1C9E5F;" d="M497.635,280.99c-2.519-5.064-5.038-10.129-7.557-15.193c-2.816-5.662-11.273-0.693-8.466,4.949       c0.716,1.441,1.433,2.882,2.15,4.322c-16.508,7.665-32.425,16.491-49.727,22.112c9.039-21.574,18.079-43.148,27.118-64.722       c1.265-3.019-0.675-5.136-3.169-5.691c-1.333-0.968-3.111-1.212-4.943,0.022c-16.563,11.154-32.727,22.843-48.574,34.983       c-0.45-0.608-0.901-1.216-1.351-1.824c-1.587-2.143-4.213-3.22-6.708-1.758c-2.117,1.24-3.353,4.555-1.759,6.708       c2.983,4.029,5.967,8.058,8.95,12.087c1.587,2.143,4.213,3.22,6.708,1.759c2.117-1.24,3.353-4.555,1.758-6.708       c-0.605-0.817-1.21-1.633-1.814-2.45c11.71-8.985,23.622-17.69,35.74-26.111c-8.358,19.947-16.716,39.895-25.074,59.843       c-1.616,3.856,1.988,6.244,5.311,5.771c0.675,0.135,1.418,0.131,2.227-0.075c21.156-5.375,40.022-16.053,59.656-25.199       c0.353,0.709,0.705,1.418,1.057,2.126C491.985,291.601,500.441,286.632,497.635,280.99z"/>
				</g>
				<g>
					<path style="fill:#CBD115;" d="M141.78,137.205c-9.498-5.87-20.852-7.745-31.878-9.501c15.075-0.025,30.113-4.587,42.66-12.942       c4.246-2.827,8.665-7.3,7.41-12.244c-1.22-4.808-6.978-6.706-11.902-7.303c-22.885-2.777-46.871,5.813-62.791,22.485       c-1.006-3.06-14.12-33.797-19.155-46.97c-5.853,2.606-11.503,5.696-16.911,9.332c1.95,4.219,6.43,9.847,7.846,12.161       c6.502,10.618,13.661,20.816,20.205,31.407c-22.193,1.454-43.531,12.981-56.913,30.746c-2.283,3.031-4.418,7.021-2.762,10.435       c1.974,4.07,7.679,4.213,12.122,3.363c15.693-3.005,30.386-11.029,41.398-22.607c-5.138,17.501-3.882,36.805,3.482,53.492       c2.786,6.314,8.547,13.194,15.172,11.26c4.672-1.364,7.013-6.51,8.369-11.185c4.55-15.683,4.625-32.637,0.215-48.359       c11.607,14.703,31.881,21.985,50.191,18.027C166.853,164.842,151.382,143.139,141.78,137.205z"/>
				</g>
			</g>
		</g>
		<path style="fill:#1C9E5F;" d="M274.807,149.179c-1.032-0.891-2.19-1.487-3.591-1.487c-1.245,0-2.733,0.553-3.591,1.487    c-0.888,0.968-1.548,2.238-1.487,3.591c0.058,1.289,0.475,2.716,1.487,3.591c0.662,0.572,1.324,1.144,1.986,1.715    c-10.079,10.122-25.201,13.425-37.617,3.636c-12.13-9.564-12.786-26.302-6.173-39.084c2.789-5.39,6.974-9.744,11.918-12.913    c12.962,12.674,26.48,24.72,40.599,36.099c1.956,1.576,4.243,1.395,5.972,0.374c1.095-0.254,2.141-0.863,2.95-1.976    c11.842-16.292,3.725-38.195-13.277-46.856c-19.789-10.08-42.953,1.168-54.921,17.569c-12.838,17.593-8.315,42.436,8.339,55.566    c16.051,12.656,36.52,7.072,49.539-6.083c0.583,0.503,1.166,1.007,1.748,1.51c1.032,0.891,2.19,1.487,3.591,1.487    c1.246,0,2.733-0.553,3.591-1.487c0.888-0.968,1.548-2.238,1.487-3.591c-0.058-1.289-0.475-2.716-1.487-3.591    C282.183,155.55,278.495,152.365,274.807,149.179z M264.179,104.333c14.562,2.561,22.488,18.323,16.825,31.017    c-11.627-9.559-22.853-19.566-33.682-30.019C252.754,103.731,258.556,103.344,264.179,104.333z"/>
	</g>
	<path style="fill:#1C9E5F;" d="M393.844,249.493c0.076-0.083,0.153-0.162,0.227-0.253c13.189-16.293,38.528-45.43,27.762-68.289   c-17.785-37.764-62.473,6.483-77.917,25.214c-0.47-0.406-0.94-0.812-1.41-1.218c-1.032-0.891-2.189-1.487-3.591-1.487   c-1.245,0-2.733,0.553-3.591,1.487c-0.888,0.968-1.548,2.238-1.487,3.591c0.058,1.289,0.475,2.716,1.487,3.591   c3.688,3.186,7.376,6.371,11.063,9.557c1.032,0.891,2.189,1.487,3.591,1.487c1.245,0,2.733-0.553,3.591-1.487   c0.888-0.968,1.548-2.238,1.487-3.591c-0.058-1.289-0.475-2.716-1.487-3.591c-0.757-0.654-1.515-1.308-2.272-1.963   c1.816-2.246,3.65-4.471,5.529-6.645c11.477,10.453,22.954,20.906,34.431,31.358c-1.436,1.762-2.825,3.453-4.12,5.053   c-0.164,0.202-0.302,0.409-0.429,0.618c-1.115-1.027-2.231-2.054-3.346-3.081c-0.983-0.905-2.233-1.487-3.591-1.487   c-1.245,0-2.733,0.553-3.591,1.487c-0.888,0.968-1.548,2.238-1.487,3.591c0.059,1.314,0.491,2.673,1.487,3.591   c3.581,3.297,7.162,6.593,10.743,9.889c0.983,0.905,2.233,1.487,3.591,1.487c1.245,0,2.733-0.553,3.591-1.487   c0.888-0.968,1.548-2.238,1.487-3.591c-0.059-1.314-0.491-2.673-1.487-3.591C394.018,249.653,393.931,249.573,393.844,249.493z    M363.428,198.659c4.878-5.017,10.117-9.664,15.974-13.708c11.738-8.104,34.02-13.808,34.767,6.716   c0.472,12.967-8.013,26.431-16.807,37.898C386.05,219.263,374.739,208.961,363.428,198.659z"/>
</g>















</svg>
