<?xml version="1.0" encoding="iso-8859-1"?>
<!-- Generator: Adobe Illustrator 28.0.0, SVG Export Plug-In . SVG Version: 6.00 Build 0)  -->
<svg xmlns="http://www.w3.org/2000/svg" xmlns:xlink="http://www.w3.org/1999/xlink" version="1.1" id="Layer_1" x="0px" y="0px" viewBox="0 0 512 512" style="enable-background:new 0 0 512 512;" xml:space="preserve">
<g>
	<g>
		<g>
			<g>
				<g>
					<g>
						<g>
							<g>
								<path style="fill:#FF9F00;" d="M235.536,495.723h-44.151c-0.193-81.939,10.836-163.786,32.559-244.174          c2.349-8.694,16.287-13.622,27.163-11.411c12.076,2.455,17.759,11.454,15.423,20.098          C245.57,337.799,235.328,416.693,235.536,495.723z"/>
							</g>
						</g>
					</g>
				</g>
				<g>
					<g>
						<g>
							<g>
								<g>
									<g>
										<path style="fill:#E8543C;" d="M241.114,428.196c-1.968,26.787-2.947,41.093-2.877,67.941h-51.616            c-0.062-26.802,0.89-41.069,2.835-67.82C206.628,428.275,226.335,428.275,241.114,428.196z"/>
									</g>
								</g>
							</g>
						</g>
						<g>
							<g>
								<g>
									<g>
										<g>
											<path style="fill:#B49BFF;" d="M240.698,457.279l-0.649,26.159l-0.548,21.396l-11.205,5.118l-44.972-2.804l-46.991,3.426             l-8.263-5.74c7.91-33.397,56.486-25.073,56.486-25.073l0.182-4.734l2.175-1.948l-2.012-2.004l0.203-4.633l1.81-1.889             l-1.647-2.063l0.203-5.212H240.698z"/>
										</g>
									</g>
								</g>
								<g>
									<g>
										<g>
											<path style="fill:#CED900;" d="M209.514,464.466c0,1.091-1.24,1.976-2.769,1.976h-21.692             c-0.082-0.687-0.117-1.49-0.041-2.382c0.048-0.571,0.135-1.096,0.241-1.57c7.164,0,14.328,0,21.492,0             C208.275,462.49,209.514,463.375,209.514,464.466z"/>
										</g>
									</g>
								</g>
								<g>
									<g>
										<g>
											<path style="fill:#CED900;" d="M209.604,473.051c0,1.091-1.239,1.976-2.768,1.976h-22.142             c-0.078-0.571-0.123-1.244-0.084-1.997c0.038-0.74,0.15-1.398,0.284-1.955c7.314,0,14.628,0,21.942,0             C208.365,471.075,209.604,471.96,209.604,473.051z"/>
										</g>
									</g>
								</g>
								<g>
									<g>
										<g>
											<path style="fill:#CED900;" d="M239.56,504.834l-0.061,2.707L239.377,512h-112.38c0.142-2.577,0.487-4.965,1.015-7.166             H239.56z"/>
										</g>
									</g>
								</g>
							</g>
						</g>
						<g>
							<g>
								<g>
									<path d="M197.854,484.348c-0.133,0-0.27-0.034-0.395-0.104c-1.909-1.077-3.944-1.943-6.046-2.574           c-2.129-0.639-4.332-1.037-6.545-1.183c-0.446-0.03-0.782-0.414-0.752-0.859c0.028-0.446,0.423-0.776,0.857-0.754           c2.335,0.153,4.658,0.573,6.902,1.246c2.217,0.665,4.362,1.579,6.376,2.715c0.388,0.219,0.525,0.711,0.307,1.101           C198.409,484.199,198.136,484.348,197.854,484.348z"/>
								</g>
							</g>
						</g>
					</g>
				</g>
			</g>
			<g>
				<g>
					<g>
						<g>
							<g>
								<path style="fill:#FF9F00;" d="M306.698,495.117h44.151c0.193-81.939-10.836-163.786-32.559-244.174          c-2.349-8.694-16.288-13.622-27.164-11.411c-12.076,2.455-17.759,11.454-15.423,20.098          C296.664,337.194,306.906,416.088,306.698,495.117z"/>
							</g>
						</g>
					</g>
				</g>
				<g>
					<g>
						<g>
							<g>
								<g>
									<g>
										<path style="fill:#E8543C;" d="M302.302,428.196c1.968,26.787,2.947,41.093,2.877,67.941h51.616            c0.062-26.802-0.89-41.069-2.835-67.82C336.788,428.275,317.081,428.275,302.302,428.196z"/>
									</g>
								</g>
							</g>
						</g>
						<g>
							<g>
								<g>
									<g>
										<g>
											<path style="fill:#B49BFF;" d="M302.718,457.279l0.649,26.159l0.547,21.396l11.205,5.118l44.972-2.804l46.991,3.426             l8.263-5.74c-7.91-33.397-56.486-25.073-56.486-25.073l-0.182-4.734l-2.175-1.948l2.012-2.004l-0.203-4.633l-1.81-1.889             l1.647-2.063l-0.203-5.212H302.718z"/>
										</g>
									</g>
								</g>
								<g>
									<g>
										<g>
											<path style="fill:#CED900;" d="M333.902,464.466c0,1.091,1.239,1.976,2.768,1.976h21.692             c0.082-0.687,0.117-1.49,0.041-2.382c-0.048-0.571-0.135-1.096-0.241-1.57c-7.164,0-14.328,0-21.492,0             C335.141,462.49,333.902,463.375,333.902,464.466z"/>
										</g>
									</g>
								</g>
								<g>
									<g>
										<g>
											<path style="fill:#CED900;" d="M333.812,473.051c0,1.091,1.239,1.976,2.768,1.976h22.142             c0.078-0.571,0.123-1.244,0.084-1.997c-0.038-0.74-0.15-1.398-0.284-1.955c-7.314,0-14.628,0-21.942,0             C335.051,471.075,333.812,471.96,333.812,473.051z"/>
										</g>
									</g>
								</g>
								<g>
									<g>
										<g>
											<path style="fill:#CED900;" d="M303.856,504.834l0.061,2.707l0.122,4.459h112.38c-0.142-2.577-0.488-4.965-1.016-7.166             H303.856z"/>
										</g>
									</g>
								</g>
							</g>
						</g>
						<g>
							<g>
								<g>
									<path d="M345.562,484.348c0.133,0,0.27-0.034,0.395-0.104c1.909-1.077,3.944-1.943,6.046-2.574           c2.129-0.639,4.332-1.037,6.545-1.183c0.446-0.03,0.782-0.414,0.752-0.859c-0.028-0.446-0.422-0.776-0.858-0.754           c-2.335,0.153-4.658,0.573-6.902,1.246c-2.217,0.665-4.362,1.579-6.376,2.715c-0.388,0.219-0.525,0.711-0.307,1.101           C345.006,484.199,345.28,484.348,345.562,484.348z"/>
								</g>
							</g>
						</g>
					</g>
				</g>
			</g>
		</g>
		<g>
			<g>
				<path style="fill:#FF9F00;" d="M92.179,268.776c4.024-5.103,8.622-9.788,12.791-13.802c10.96-10.554,23.399-19.52,35.75-28.35      c15.572-11.132-2.359-34.819-17.918-23.696c-15.788,11.287-31.223,22.991-44.597,37.138c-3.284,3.473-6.602,7.242-9.721,11.253      l0.639,20.2L92.179,268.776z"/>
			</g>
			<g>
				<g>
					<path style="fill:#FF9F00;" d="M459.106,159.226c-1.415-16.001-5-31.691-9.737-47.014c14.996-15.038,9.188-62.379-2.89-60.424       c-9.193,1.488-4.181,14.064-7.52,21.218c-0.73-8.256-2.25-14.953-4.971-24.142c-3.091-10.44-15.811-7.759-14.05,2.854       c1.065,6.419,2.246,17.714,1.784,24.111c-1.855-4.576-3.724-15.183-5.858-19.661c-5.867-12.311-15.598-6.88-12.647,3.56       c4.68,16.555,4.395,19.627,5.06,27.087c-34.271-28.389-20.326,31.019,12.413,31.594c3.82,12.437,6.876,25.104,8.607,38.012       c0.908,6.767,1.486,12.687,1.371,19.293c-0.037,2.136-0.261,5.584-0.583,6.808c-0.131,0.497-0.906,2.264-0.87,2.362       c-0.398,0.655-0.822,1.294-1.271,1.915c-0.124,0.131-0.758,0.898-1.233,1.33c-0.262,0.238-1.674,1.271-2.241,1.727       c-0.639,0.311-1.733,0.88-1.903,0.967c-0.28,0.143-0.475,0.25-0.636,0.344c-0.187,0.021-0.413,0.053-0.732,0.11       c-0.374,0.067-2.708,0.252-2.569,0.336c-1.016-0.041-2.03-0.12-3.033-0.272c-1.211-0.184-4.472-1.208-6.827-2.089       c-11.091-4.146-21.38-11.292-31.852-18.472c-6.55-4.49-15.992-2.588-20.413,3.96c-4.483,6.642-2.61,15.908,3.96,20.412       c24.273,16.64,60.898,40.294,87.107,13.664C461.043,195.132,460.69,177.145,459.106,159.226z"/>
				</g>
				<g>
					<g>
						<line style="fill:#FFD123;" x1="417.417" y1="74.668" x2="444.187" y2="72.578"/>
						<path d="M417.417,75.342c-0.349,0-0.644-0.268-0.672-0.621c-0.029-0.371,0.248-0.696,0.62-0.725l26.77-2.09        c0.363-0.055,0.695,0.248,0.725,0.619c0.029,0.371-0.249,0.696-0.62,0.725l-26.77,2.09        C417.452,75.342,417.434,75.342,417.417,75.342z"/>
					</g>
					<g>
						<path d="M418.398,95.652c-0.279,0-0.54-0.175-0.637-0.453c-0.556-1.592-1.413-3.002-2.548-4.191        c-2.441-2.558-5.45-3.306-7.026-3.523c-0.369-0.051-0.626-0.392-0.576-0.761c0.051-0.368,0.395-0.623,0.76-0.575        c1.75,0.242,5.094,1.074,7.817,3.928c1.269,1.33,2.227,2.904,2.846,4.68c0.123,0.352-0.063,0.735-0.414,0.858        C418.546,95.639,418.472,95.652,418.398,95.652z"/>
					</g>
				</g>
			</g>
		</g>
	</g>
	<g>
		<path style="fill:#A85F53;" d="M390.768,225.123c-5.476-32.148-12.785-61.968-29.699-84.866    C342.665,30.655,292.316-0.195,246.525,0.001c-58,0.249-89.51,13.686-115.268,81.933c-38.661,100.401-11.95,255.579,82.02,291.429    c54.213,20.683,96.532,30.12,119.193-7.096h0C371.368,339.742,402.701,295.178,390.768,225.123z"/>
		<g>
			<path d="M251.896,6.938c-3.217,0-3.223,5,0,5C255.113,11.938,255.118,6.938,251.896,6.938z"/>
			<path d="M219.561,26.601c-3.217,0-3.223,5,0,5C222.779,31.601,222.784,26.601,219.561,26.601z"/>
			<path d="M262.383,26.601c-3.217,0-3.223,5,0,5C265.6,31.601,265.605,26.601,262.383,26.601z"/>
			<path d="M353.145,298.624c-3.217,0-3.223,5,0,5C356.362,303.624,356.368,298.624,353.145,298.624z"/>
			<path d="M193.593,344.076c-3.217,0-3.223,5,0,5C196.81,349.076,196.815,344.076,193.593,344.076z"/>
			<path d="M328.402,329.55c-3.217,0-3.223,5,0,5C331.619,334.55,331.624,329.55,328.402,329.55z"/>
			<path d="M127.816,177.091c-3.217,0-3.223,5,0,5C131.034,182.091,131.039,177.091,127.816,177.091z"/>
		</g>
	</g>
	<g>
		<g>
			<g>
				<g>
					
						<ellipse transform="matrix(0.3644 -0.9313 0.9313 0.3644 -60.1716 295.3139)" style="fill:#FFD123;" cx="186.246" cy="191.736" rx="32.292" ry="32.292"/>
				</g>
			</g>
			<g>
				<g>
					
						<ellipse transform="matrix(0.5429 -0.8398 0.8398 0.5429 5.1497 352.0783)" style="fill:#FFD123;" cx="325.987" cy="171.309" rx="32.292" ry="32.292"/>
				</g>
			</g>
		</g>
		<g>
			<g>
				<g>
					<g>
						<g>
							<path style="fill:#FFFFFF;" d="M137.365,137.007c5.154,63.531,105.971,52.611,96.678-10.439         C224.683,63.066,132.128,72.468,137.365,137.007z"/>
						</g>
					</g>
					<g>
						<g>
							<path d="M147.136,135.57c6.223,49.83,80.48,41.834,75.956-8.173C216.869,77.569,142.612,85.565,147.136,135.57z"/>
						</g>
					</g>
					<g>
						<g>
							<path d="M138.018,142.793c-0.341,0.016-0.649-0.223-0.711-0.569c-2.723-15.34,0.097-29.14,8.158-39.908         c7.143-9.543,17.966-16.109,30.476-18.488c12.695-2.414,25.461-0.24,35.94,6.123c11.778,7.151,19.634,18.971,22.72,34.183         c0.076,0.374-0.166,0.738-0.539,0.814c-0.374,0.076-0.738-0.166-0.814-0.539c-3.007-14.824-10.644-26.331-22.083-33.277         c-10.186-6.185-22.604-8.297-34.966-5.946c-31.646,6.018-41.639,33.661-37.531,56.798c0.066,0.375-0.184,0.734-0.56,0.8         C138.077,142.788,138.048,142.791,138.018,142.793z"/>
						</g>
					</g>
				</g>
			</g>
			<g>
				<g>
					<g>
						<g>
							<path style="fill:#FFFFFF;" d="M357.345,106.263c12.026,62.595-87.688,79.824-95.905,16.625         C253.157,59.175,345.088,42.459,357.345,106.263z"/>
						</g>
					</g>
					<g>
						<g>
							<path d="M347.554,107.56c7.677,49.627-65.927,62.296-75.286,12.965C264.591,70.899,338.196,58.231,347.554,107.56z"/>
						</g>
					</g>
					<g>
						<g>
							<path d="M261.025,121.177c-0.372,0.017-0.692-0.263-0.721-0.636c-1.202-15.475,3.113-28.996,12.478-39.103         c8.333-8.992,20.012-14.582,32.886-15.741c23.139-2.079,49.653,11.288,53.162,45.567c0.038,0.379-0.238,0.718-0.617,0.757         c-0.386,0.032-0.718-0.237-0.757-0.617c-2.393-23.376-19.614-47.23-51.664-44.332c-12.533,1.128-23.896,6.564-31.997,15.305         c-9.097,9.816-13.286,22.976-12.114,38.057c0.029,0.38-0.255,0.712-0.635,0.742         C261.039,121.176,261.032,121.177,261.025,121.177z"/>
						</g>
					</g>
				</g>
			</g>
		</g>
		<g>
			<g>
				<g>
					<g>
						<g>
							<path style="fill:#FFFFFF;" d="M287.527,177.013c-0.329,12.893-9.973,22.062-22.457,25.234         c-12.628,3.209-28.509,0.714-36.518-10.531c-5.935-8.333-7.153-27.113,4.962-30.938c2.452-0.774,5.201-0.736,7.551,0.361         c2.588,1.207,4.136,3.703,5.995,5.756c4.46,4.929,10.454,5.91,14.489-0.066c2.254-3.34,3.367-6.987,6.857-9.366         c3.126-2.131,6.985-2.448,10.248-0.411c5.627,3.512,8.247,10.62,8.782,16.922         C287.522,175.008,287.552,176.022,287.527,177.013z"/>
						</g>
					</g>
				</g>
			</g>
			<g>
				<g>
					<g>
						<path d="M259.171,203.6c-0.359,0.017-0.676-0.248-0.717-0.611l-3.646-31.738c-0.044-0.379,0.228-0.721,0.607-0.764        c0.378-0.048,0.721,0.228,0.764,0.607l3.646,31.738c0.044,0.379-0.228,0.721-0.607,0.764        C259.203,203.598,259.188,203.6,259.171,203.6z"/>
					</g>
				</g>
				<g>
					<g>
						<path d="M232.859,196.158c-0.098,0.005-0.199-0.012-0.297-0.052c-0.351-0.146-0.519-0.55-0.372-0.902l12.481-29.992        c0.145-0.352,0.55-0.52,0.903-0.372c0.352,0.147,0.519,0.55,0.372,0.902l-12.481,29.992        C233.359,195.989,233.117,196.146,232.859,196.158z"/>
					</g>
				</g>
				<g>
					<g>
						<path d="M284.053,189.074c-0.206,0.009-0.415-0.073-0.558-0.242l-20.273-23.83c-0.247-0.29-0.212-0.726,0.078-0.973        c0.291-0.247,0.727-0.211,0.973,0.079l20.273,23.83c0.247,0.29,0.212,0.726-0.078,0.973        C284.346,189.013,284.2,189.067,284.053,189.074z"/>
					</g>
				</g>
			</g>
		</g>
		<g>
			<g>
				<g>
					
						<ellipse transform="matrix(0.9767 -0.2148 0.2148 0.9767 -10.1598 38.558)" style="fill:#FFEFB9;" cx="172.333" cy="66.026" rx="19.542" ry="9.576"/>
				</g>
			</g>
			<g>
				<g>
					<path style="fill:#FFEFB9;" d="M319.741,43.108c0.795,5.228-7.211,10.782-17.881,12.405c-10.67,1.622-19.965-1.301-20.76-6.53       c-0.795-5.229,7.211-10.782,17.881-12.405C309.652,34.956,318.946,37.879,319.741,43.108z"/>
				</g>
			</g>
		</g>
	</g>
	<g>
		<g>
			<g>
				<path style="fill:#FF9F00;" d="M212.58,303.629c-1.26-10.583-21.182-16.913-44.497-14.137      c-4.762,0.567-9.291,1.475-13.482,2.643c-0.259,0.021-0.511,0.024-0.776,0.057c-17.788,2.196-35.829,4.672-53.795,4.254      c-5.429-0.126-12.382-0.693-15.676-2.254c-0.72-0.376-0.892-0.416-0.533-0.133c-0.512-0.344-1.018-0.697-1.482-1.104      c-0.101-0.1-0.165-0.162-0.235-0.23c-0.751-1.691-0.503-3.25,0.194-5.849c1.693-6.316,5.438-12.463,9.883-18.099l-23.695-17.455      c-9.222,11.863-16.695,25.852-16.344,40.629c0.51,21.478,19.732,32.409,39.072,33.673c15.476,1.011,30.966,0,46.379-1.625      c8.246,3.861,21.033,5.488,35.054,3.819C195.961,325.042,213.84,314.212,212.58,303.629z"/>
			</g>
			<g>
				<path d="M162.984,329.55c-1.726,0-3.454-0.064-5.182-0.191c-7.024-0.518-13.916-2.087-20.485-4.662      c-0.386-0.152-0.576-0.587-0.425-0.973c0.151-0.386,0.586-0.577,0.973-0.425c6.428,2.52,13.173,4.055,20.047,4.562      c7.608,0.563,15.213-0.142,22.604-2.091c0.4-0.106,0.812,0.134,0.918,0.535c0.106,0.401-0.133,0.812-0.534,0.918      C175.027,328.772,169.021,329.55,162.984,329.55z"/>
			</g>
		</g>
		<g>
			<g>
				<g>
					<g>
						<g>
							<path style="fill:#476B34;" d="M260.644,281.516c-0.548-10.786-35.77-17.763-78.67-15.583         c-42.9,2.179-77.234,12.69-76.686,23.476c0.399,7.859,19.211,13.695,45.985,15.441c3.411,4.731,18.054,7.693,35.418,6.811         c18.132-0.921,32.885-5.712,34.862-11.039C245.216,296.075,261.017,288.86,260.644,281.516z"/>
						</g>
					</g>
					<g>
						<g>
							<path d="M183.189,305.478c13.343-0.678,26.462-2.21,37.94-4.432c0.206-0.04,0.343-0.27,0.306-0.513         c-0.037-0.244-0.239-0.412-0.442-0.368c-11.448,2.216-24.536,3.745-37.849,4.421c-11.016,0.56-21.685,0.532-31.711-0.082         c-0.204-0.005-0.386,0.176-0.394,0.423c-0.007,0.246,0.157,0.456,0.367,0.469         C161.456,306.011,172.149,306.039,183.189,305.478z"/>
						</g>
					</g>
				</g>
				<g>
					<path d="M167.549,298.056c-11.651,0-22.375-0.692-31.153-2.041c-9.219-1.416-20.263-4.191-20.526-9.367       c-0.458-9.01,33.326-16.125,66.252-17.798c32.925-1.669,67.258,1.983,67.715,10.992c0.458,9.01-33.326,16.125-66.252,17.798       C178.116,297.918,172.74,298.056,167.549,298.056z M198.419,269.926c-5.116,0-10.535,0.135-16.221,0.423       c-39.171,1.991-65.145,9.995-64.829,16.222c0.16,3.156,7.358,6.132,19.254,7.959c12.593,1.933,29.243,2.506,46.885,1.609       c39.171-1.991,65.145-9.995,64.829-16.222C248.067,274.595,228.549,269.926,198.419,269.926z"/>
				</g>
			</g>
			<g>
				<g>
					<g>
						<polygon style="fill:#476B34;" points="159.889,249.476 188.039,204.718 195.94,210.082 185.666,226.391 203.451,210.464         209.033,216.696 192.234,231.741 208.647,227.729 212.603,236.626 165.47,255.709       "/>
					</g>
					<g>
						<path style="fill:#FFEFB9;" d="M179.42,286.212c-16.533,14.806-48.801-3.118-48.801-3.118s-14.246-34.016,2.287-48.822        c12.743-11.412,34.907-7.451,46.319,5.293C190.637,252.308,192.163,274.8,179.42,286.212z"/>
					</g>
					<g>
						<g>
							<path d="M131.488,283.942c-0.213,0-0.423-0.09-0.572-0.264c-0.269-0.315-0.231-0.789,0.084-1.058         c8.591-7.325,17.155-14.903,25.454-22.522c7.318-6.719,14.633-13.656,21.741-20.619c0.296-0.288,0.771-0.285,1.062,0.012         c0.29,0.296,0.286,0.771-0.011,1.062c-7.119,6.974-14.446,13.922-21.776,20.652c-8.313,7.632-16.891,15.22-25.496,22.557         C131.833,283.884,131.66,283.942,131.488,283.942z"/>
						</g>
						<g>
							<path d="M128.567,273.419c-0.169,0-0.339-0.057-0.479-0.173c-0.319-0.265-0.364-0.738-0.099-1.057         c6.381-7.696,13.176-15.204,20.195-22.315c6.2-6.281,12.725-12.404,19.394-18.198c0.312-0.273,0.787-0.24,1.059,0.074         c0.272,0.314,0.239,0.788-0.075,1.06c-6.639,5.768-13.136,11.865-19.309,18.119c-6.989,7.081-13.755,14.556-20.108,22.218         C128.997,273.326,128.783,273.419,128.567,273.419z"/>
						</g>
						<g>
							<path d="M125.176,261.765c-0.138,0-0.277-0.037-0.401-0.116c-0.351-0.222-0.455-0.686-0.232-1.036         c3.884-6.129,8.214-12.058,12.87-17.622c4.466-5.337,9.321-10.443,14.431-15.176c0.304-0.282,0.779-0.264,1.061,0.04         c0.282,0.304,0.264,0.779-0.04,1.061c-5.063,4.691-9.874,9.751-14.3,15.039c-4.614,5.514-8.905,11.388-12.753,17.461         C125.668,261.642,125.424,261.765,125.176,261.765z"/>
						</g>
						<g>
							<path d="M141.612,287.745c-0.238,0-0.471-0.113-0.617-0.323c-0.237-0.34-0.152-0.809,0.188-1.045         c7.574-5.262,15.065-10.855,22.267-16.625c7.372-5.909,14.631-12.154,21.573-18.562c0.304-0.283,0.779-0.263,1.061,0.042         c0.281,0.305,0.262,0.78-0.042,1.061c-6.968,6.433-14.253,12.701-21.652,18.631c-7.228,5.792-14.747,11.406-22.349,16.688         C141.909,287.702,141.76,287.745,141.612,287.745z"/>
						</g>
						<g>
							<path d="M153.318,291.241c-0.267,0-0.527-0.144-0.662-0.396c-0.197-0.365-0.059-0.82,0.306-1.017         c5.988-3.214,11.876-6.778,17.502-10.592c5.572-3.777,11.017-7.891,16.185-12.225c0.318-0.268,0.792-0.226,1.058,0.092         c0.266,0.318,0.225,0.792-0.093,1.058c-5.207,4.368-10.693,8.513-16.307,12.319c-5.668,3.843-11.602,7.433-17.634,10.673         C153.559,291.213,153.438,291.241,153.318,291.241z"/>
						</g>
					</g>
				</g>
				<g>
					<path style="fill:#CED900;" d="M250.001,241.283c-1.417,0.071-2.321-0.205-3.001-0.32c-2.599-0.439-4.386,1.062-6.973,2.025       c-4.231,1.574-5.899-0.037-9.101,0.52c0.991-4.462,0.86-5.538,4.876-9.066c2.721-2.391,3.993-7.284,3.42-13.025       c-0.423,0.72-1.126,1.758-2.211,2.748c-1.105,1.008-2.004,1.416-2.624,1.79c-2.37,1.431-2.914,3.738-4.431,6.19       c-2.468,3.989-4.779,3.953-7.027,6.483c-1.598-3.572-2.215-4.46-0.989-9.497c0.868-3.569-0.911-8.083-4.709-12.039       c0.067,0.818,0.086,2.056-0.24,3.507c-0.331,1.477-0.839,2.368-1.136,3.053c-1.133,2.618-0.248,4.71-0.085,7.544       c0.278,4.813-1.848,6.201-2.111,9.902c-0.214,2.999,0.383,7.545,6.273,12.932c0.001-0.005,0.005-0.014,0.005-0.019       c0.001,0.006,0.002,0.012,0.003,0.018c-0.007,0.013-0.013,0.024-0.02,0.037c0.471-0.069,1.195-0.137,2.055-0.047       c1.51,0.158,2.487,0.701,2.995,0.924c3.267,1.433,7.937-1.246,8.354-1.599c3.95-3.339,4.265-4.394,9.608-4.551       c3.433-0.101,7.31-3.207,10.344-8.245C252.532,240.847,251.392,241.214,250.001,241.283z"/>
					<g>
						<path style="fill:#B49BFF;" d="M207.301,244.146c9.018-0.655,12.439,7.831,12.929,9.192c0.039,0.109,0.142,0.181,0.258,0.181        c2.29,0.005,23.904,0.575,19.128,20.276c-4.965,20.482-35.782,16.977-37.807,16.724c-0.068-0.009-0.136,0.009-0.192,0.049        l-4.106,2.918c-0.206,0.147-0.485-0.04-0.427-0.287l1.29-5.51c0.016-0.069,0.004-0.143-0.032-0.204        C183.79,263.332,197.069,244.889,207.301,244.146z"/>
					</g>
				</g>
				<g>
					<g>
						<g>
							<path style="fill:#E8543C;" d="M204.166,276.925c-1.683,10.306-11.402,17.297-21.709,15.614         c-10.306-1.683-17.297-11.402-15.614-21.709c1.683-10.306,11.402-17.297,21.709-15.614         C198.859,256.899,205.849,266.618,204.166,276.925z"/>
						</g>
					</g>
					<g>
						<g>
							<path style="fill:#476B34;" d="M189.776,255.172c12.448,1.58,13.875,8.881,13.875,8.881         c-10.677,0.806-12.475-5.821-12.475-5.821c1.048,6.705-4.615,8.191-4.615,8.191c-5.286-4.331-2.367-9.1-2.367-9.1         c-4.152,4.562-14.056,1.852-14.056,1.852c7.317-9.509,16.622-4.509,16.622-4.509l0.806-4.087l2.941,1.298L189.776,255.172z"/>
						</g>
					</g>
				</g>
			</g>
		</g>
	</g>
</g>
<g>
</g>
<g>
</g>
<g>
</g>
<g>
</g>
<g>
</g>
<g>
</g>
<g>
</g>
<g>
</g>
<g>
</g>
<g>
</g>
<g>
</g>
<g>
</g>
<g>
</g>
<g>
</g>
<g>
</g>
</svg>
