<?xml version="1.0" encoding="iso-8859-1"?>
<!-- Generator: Adobe Illustrator 28.2.0, SVG Export Plug-In . SVG Version: 6.00 Build 0)  -->
<svg xmlns="http://www.w3.org/2000/svg" xmlns:xlink="http://www.w3.org/1999/xlink" version="1.1" id="Layer_1" x="0px" y="0px" viewBox="0 0 512 512" style="enable-background:new 0 0 512 512;" xml:space="preserve">
<g>
	<g>
		<path style="fill:#F94E57;" d="M460.168,221.386c-2.476-48.445-49.471-67.041-71.583-73.135    c0.583-6.432-0.254-13.018-2.693-18.808c-4.327-9.735-15.504-14.783-25.6-14.783c-0.259,0-0.547,0.01-0.854,0.03    c1.935-3.024,3.358-6.31,4.099-8.683c3.606-12.98-5.408-23.076-15.865-29.206c-14.423-8.293-39.301-11.899-54.806-3.606    c-3.395,1.697-8.4,5.524-11.882,9.997c-2.073-16.527-13.938-32.62-31.025-34.876c-12.98-1.803-26.682,2.163-32.811,14.423    c-0.493,0.925-1.017,2.006-1.524,3.175c-3.127-9.245-10.532-14.955-20.11-17.597c-10.38-3.054-22.135-0.011-29.89,6.975    c-9.778-7.7-23.253-9.521-37.175-1.566c-9.135,5.356-17.169,16.217-17.851,27.052c-1.093-0.527-2.051-0.914-2.701-1.091    c-10.983-3.994-24.555-3.831-35.099,1.548c-21.392-0.9-48.29,3.179-64.417,25.134c-23.78,32.377,9.11,78.837,23.628,96.566    c-4.462,5.182-6.276,12.234-4.879,20.617c2.885,16.225,16.225,29.927,30.648,36.777c0.231,0.097,0.459,0.163,0.69,0.254    c-9.555,13.022-12.896,30.42,0.031,42.653c4.927,4.573,12.769,5.954,20.431,4.93c-5.738,7.689-7.789,17.731-3.124,26.439    c7.11,13.486,21.056,16.451,34.355,13.69c-0.524,11.332,5.42,25.155,12.158,29.938c6.916,4.723,15.943,5.707,24.011,3.556    l-89.273,97.762c0,0,3.245-98.434-21.273-88.699C11.267,400.586,54.534,512,54.534,512l105.203-129.707    c2.093,6.493,6.451,12.546,10.899,14.687c12.606,5.944,22.963,1.901,30.487-6.194c10.879,12.023,31.851,16.334,44.871,7.276    c1.206-0.825,2.468-1.813,3.73-2.882c3.532,23.683,11.757,55.18,30.884,68.144l50.479-54.806c0,0-6.49,89.78,14.783,86.896    c21.273-2.885-8.293-109.972-8.293-109.972l-55.166,64.18l-23.755-64.68c1.054-1.766,1.91-3.6,2.468-5.465    c8.656,5.204,24.561,7.058,28.693,5.25c5.761-2.161,14.932-11.61,16.651-19.395c10.324,5.242,22.302,2.237,30.749-6.211    c8.293-7.932,12.62-22.355,11.177-33.532c-0.008-0.069-0.025-0.158-0.037-0.234c1.501,0.178,2.865,0.234,3.642,0.234    c12.259,0.361,23.437-5.769,30.287-16.225c4.679-7.017,7.969-15.246,8.045-23.51C419.492,283.414,462.611,269.158,460.168,221.386    z M39.03,178.479c-0.237,3.903,0.279,8.179,1.47,12.282c-10.02-14.132-22.048-36.956-18.778-62.039    c2.642-20.259,18.972-26.475,34.98-27.546c-4.285,13.552-4.955,33.358,1.851,46.054C47.264,153.503,39.63,165.853,39.03,178.479z     M435.65,230.4c-6.471,30.845-29.324,42.199-46.648,46.348c-0.442-1.402-0.983-2.792-1.667-4.162    c-0.389-0.78-0.848-1.46-1.29-2.16c8.149-6.138,14.009-17.473,14.631-25.963c1.082-8.654-0.361-19.47-9.375-23.437    c-0.715-0.358-1.614-0.687-2.572-0.976c10.054-5.663,15.115-21.816,13.749-32.196c-0.237-2.122-0.696-4.214-1.318-6.235    C420.258,187.214,441.982,200.21,435.65,230.4z"/>
		<g style="opacity:0.2;">
			<path style="fill:#F7EBD7;" d="M296.332,339.61c-3.059,0-6.079-0.301-9.056-0.904c-18.885-3.82-29.994-18.48-32.882-22.761     c-50.958,26.568-88.082-12.912-93.662-19.369c-58.073,25.091-91.848-31.701-92.183-32.28l2.496-1.448     c1.33,2.287,33.225,55.775,89.507,30.657l1.028-0.458l0.696,0.884c1.538,1.961,38.369,47.717,91.927,18.851l1.211-0.654     l0.71,1.18c0.11,0.184,11.296,18.453,31.755,22.576c14.206,2.869,29.566-1.636,45.62-13.386l1.702,2.327     C321.771,334.659,308.735,339.609,296.332,339.61z"/>
			<path style="fill:#F7EBD7;" d="M348.937,169.149c-2.741,0-5.414-0.351-8.02-1.053c-16.101-4.342-24.358-20.659-26.637-25.901     c-20.346,12-40.051,15.725-58.583,11.065c-27.394-6.892-43.175-29.642-46.361-34.645c-76.586,20.399-96.462-28.537-96.656-29.035     l2.69-1.041c0.758,1.946,19.4,47.437,94.248,27.013l1.065-0.29l0.558,0.951c0.158,0.269,16.18,26.975,45.186,34.258     c18.191,4.563,37.634,0.659,57.806-11.608l1.496-0.91l0.605,1.644c0.079,0.21,7.941,21.035,25.352,25.721     c11.504,3.101,24.701-1.418,39.197-13.428l1.842,2.223C370.647,164.114,359.318,169.148,348.937,169.149z"/>
			<path style="fill:#F7EBD7;" d="M376.123,307.72c-8.093,9.327-18.189,13.817-22.549,10.032s-1.338-14.411,6.752-23.737     c8.093-9.325,18.189-13.817,22.549-10.032C387.236,287.768,384.213,298.394,376.123,307.72z"/>
			<path style="fill:#F7EBD7;" d="M332.931,355.466c-5.586,6.435-12.549,9.534-15.56,6.923c-3.009-2.611-0.921-9.944,4.659-16.379     c5.586-6.434,12.552-9.534,15.56-6.923C340.599,341.699,338.512,349.031,332.931,355.466z"/>
			<path style="fill:#F7EBD7;" d="M396.337,243.146c-0.893,8.475-4.826,15.003-8.789,14.588c-3.963-0.417-6.451-7.623-5.566-16.093     c0.893-8.475,4.828-15.006,8.789-14.589C394.734,227.469,397.225,234.675,396.337,243.146z"/>
			<path style="fill:#F7EBD7;" d="M287.87,378.951c-6.513,2.782-12.842,2.569-14.144-0.476c-1.301-3.044,2.921-7.766,9.428-10.549     c6.513-2.78,12.842-2.568,14.144,0.478C298.599,371.446,294.377,376.168,287.87,378.951z"/>
			<path style="fill:#F7EBD7;" d="M397.07,192.497c0.158,7.08-2.394,12.876-5.707,12.949c-3.31,0.076-6.121-5.601-6.282-12.676     c-0.155-7.08,2.397-12.876,5.71-12.949C394.101,179.745,396.909,185.421,397.07,192.497z"/>
			<path style="fill:#F7EBD7;" d="M237.039,397.093c-6.62,2.517-12.935,2.049-14.113-1.048c-1.18-3.095,3.231-7.642,9.845-10.159     c6.62-2.514,12.935-2.047,14.113,1.051C248.064,390.031,243.653,394.575,237.039,397.093z"/>
			<path style="fill:#F7EBD7;" d="M377.061,127.99c4.501,5.469,6.073,11.603,3.518,13.707c-2.558,2.106-8.276-0.621-12.775-6.082     c-4.499-5.47-6.07-11.606-3.516-13.71C366.847,119.801,372.563,122.528,377.061,127.99z"/>
			<path style="fill:#F7EBD7;" d="M358.349,92.911c2.589,5.464,3.124,10.627,1.205,11.537c-1.921,0.911-5.575-2.782-8.161-8.238     c-2.586-5.465-3.121-10.627-1.203-11.537C352.112,83.765,355.763,87.454,358.349,92.911z"/>
			<path style="fill:#F7EBD7;" d="M253.642,369.63c-15.07,0.001-27.459-6.831-30.823-8.87c-6.555,4.941-13.642,6.945-21.096,5.958     c-14.851-1.972-26.577-15.145-29.958-19.32c-25.822,22.138-55.682-0.725-55.983-0.961l1.775-2.273     c1.183,0.921,29.169,22.273,53.425,0.073l1.183-1.083l0.952,1.291c0.127,0.172,12.91,17.285,28.997,19.414     c6.955,0.922,13.58-1.094,19.721-5.986l0.831-0.662l0.879,0.599c0.304,0.206,30.71,20.413,57.366-0.661l1.792,2.262     C272.98,367.097,262.813,369.63,253.642,369.63z"/>
		</g>
		<g>
			<path style="fill:#0E1535;" d="M57.979,101.838l-2.755-0.856c1.276-4.103,2.822-7.534,4.6-10.198     c3.003-4.559,7.149-8.211,12.318-10.847l1.313,2.569c-4.721,2.407-8.496,5.728-11.225,9.87     C60.622,94.785,59.154,98.054,57.979,101.838z"/>
			<path style="fill:#0E1535;" d="M399.828,182.062c-1.355-4.432-4.921-12.204-13.575-14.446c-1.158-0.368-2.268-0.644-3.375-0.842     l-2.076-0.373l1.098-1.799c2.902-4.749,4.724-10.448,5.271-16.48l2.873,0.259c-0.521,5.754-2.133,11.235-4.682,15.982     c0.569,0.144,1.133,0.306,1.69,0.485c7.344,1.9,12.887,7.723,15.535,16.37L399.828,182.062z"/>
		</g>
	</g>
	<g>
		<g>
			<path style="fill:#0E1535;" d="M175.106,235.551c-1.653,0.001-3.38-0.194-5.189-0.615c-5.482-1.275-9.437-4.277-11.752-8.924     c-7.115-14.277,3.803-39.228,4.27-40.283l2.637,1.169c-0.11,0.246-10.837,24.768-4.324,37.831     c1.941,3.893,5.152,6.313,9.822,7.398c1.504,0.349,2.955,0.513,4.347,0.513c20.073,0.004,28.451-34.035,28.538-34.403l2.806,0.67     C205.878,200.508,197.23,235.548,175.106,235.551z"/>
			<path style="fill:#0E1535;" d="M257.196,261.42c-1.654,0.001-3.38-0.194-5.189-0.616c-5.482-1.275-9.437-4.277-11.752-8.924     c-7.115-14.277,3.803-39.228,4.271-40.283l2.637,1.169c-0.11,0.247-10.837,24.768-4.324,37.831     c1.941,3.893,5.152,6.312,9.822,7.398c1.504,0.349,2.955,0.513,4.347,0.513c20.073,0.004,28.45-34.035,28.538-34.403l2.806,0.67     C287.968,226.378,279.32,261.417,257.196,261.42z"/>
			<path style="fill:#FFB3D6;" d="M320.816,266.676c-1.273,5.138-9.775,7.452-18.989,5.169c-9.211-2.283-15.648-8.3-14.375-13.437     c1.273-5.138,9.775-7.452,18.989-5.169C315.653,255.523,322.089,261.539,320.816,266.676z"/>
			<path style="fill:#FFB3D6;" d="M145.222,214.337c-1.273,5.138-9.775,7.452-18.989,5.169c-9.211-2.283-15.648-8.3-14.375-13.437     c1.273-5.138,9.775-7.452,18.989-5.169C140.058,203.183,146.495,209.2,145.222,214.337z"/>
			<path style="fill:#F7EBD7;" d="M225.667,252.546c3.932-8.796,6.595-16.475,6.595-16.475l-34.975-8.294     c0,0-3.966,46.152,7.572,50.118c6.011,2.066,13.191-9.369,18.696-20.801l-12.566-4.137L225.667,252.546z"/>
			<path style="fill:#0E1535;" d="M159.309,172.972l55.135,2.885C214.444,175.856,216.039,136.915,159.309,172.972z"/>
			<path style="fill:#0E1535;" d="M247.284,191.882l45.442,25.479C292.726,217.361,290.07,161.114,247.284,191.882z"/>
		</g>
		<g>
			<polygon style="fill:#B8D844;" points="267.365,71.151 234.095,54.445 257.532,80.045 218.23,104.203 261.858,94.468      269.067,142.408 287.098,95.91 332.529,102.4 297.915,81.848 343.346,30.648 282.771,60.214 277.723,0    "/>
			<polygon style="fill:#0E1535;" points="267.988,83.11 275.92,81.307 271.954,63.82 285.836,63.82 278.264,82.028 285.836,84.913      278.444,84.913 276.912,90.682 275.199,84.552 270.692,86.535 272.495,84.011    "/>
		</g>
	</g>
</g>
<g>
</g>
<g>
</g>
<g>
</g>
<g>
</g>
<g>
</g>
<g>
</g>
<g>
</g>
<g>
</g>
<g>
</g>
<g>
</g>
<g>
</g>
<g>
</g>
<g>
</g>
<g>
</g>
<g>
</g>
</svg>
