<svg id="Vegetables" height="512" viewBox="0 0 1000 1000" width="512" xmlns="http://www.w3.org/2000/svg"><g><path d="m871.118 383.154c3.183-31.957 8.029-84.607-40.752-102.398-10.772-3.932-22.653-5.924-35.311-5.924-9.074 0-18.48.963-28.586 2.959.77-5.612 1.362-11.342 1.772-17.166 3.98-56.153-4.705-110.998-24.455-154.434-5.688-12.514-17.526-38.553-45.44-41.744-2.254-.256-4.551-.387-6.826-.387-19.283 0-35.541 9.158-48.904 18.119-27.844 18.674-54.146 46.063-74.271 76.959-44.328-29.232-87.311-44.047-127.864-44.047-25.885 0-50.774 6.094-73.981 18.119-20.63 10.695-36.438 25.519-51.726 39.852-9.161 8.59-17.815 16.703-27.239 23.728-7.833 5.843-15.744 8.559-24.896 8.559-12.574.005-26.834-5.015-41.935-10.326-3.089-1.088-6.194-2.177-9.323-3.242-3.187-1.084-6.441-1.633-9.674-1.633-12.205 0-22.633 7.524-27.889 20.135-5.174 12.403-5.539 31.005 5.877 42.526 1.204 1.215 2.438 2.353 3.7 3.414-7.282 1.34-14.615 2.828-21.994 4.466-28.554 6.351-67.659 15.039-88.313 45.368-12.909 18.957-17.299 40.207-12.695 61.457 6.332 29.223 28.319 53.629 48.836 70.792-8.694 6.729-14.171 14.813-17.608 22.063-12.652 26.696-6.256 57.576.73 81.502 7.839 26.826 20.86 53.611 37.665 77.465 9.282 13.178 21.245 25.119 35.724 35.695-22.377 20.192-46.784 46.598-46.908 75.646-.047 10.842 3.396 26.81 20.066 41.316 20.953 18.229 50.135 26.785 78.226 33.989 25.109 6.437 52.958 9.566 85.132 9.566 2.323 0 4.692-.018 7.104-.049 12.75 23.615 28.947 44.973 48.267 63.633 16.493 15.928 34.407 24.041 53.253 24.119 13.605 21.451 34.979 32.686 62.58 32.686 15.65 0 33.586-3.76 53.299-11.176 48.92-18.395 86.754-41.664 112.905-69.385 19.543 28.707 45.623 48.625 75.441 57.166 6.018 1.723 12.051 2.594 17.93 2.6h.002c53.287 0 76.177-67.461 85.949-96.266 16.264-47.924 18.457-102.019 6.369-150.414 20.709-20.359 33.252-46.703 35.143-73.311 17.431-3.554 51.195-13.269 68.041-37.084 17.246-24.396 13.55-51.433 9.269-69.646-9.417-40.028-33.477-77.832-66.69-105.267z" fill="#fff"/><g><path d="m850.479 391.889c.057-.234.176-.418.197-.68 2.725-31.594 11.479-78.02-27.021-92.06-26.492-9.665-56.758-2.973-82.93 6.099 4.508-15.399 6.951-31.373 7.988-46.008 3.385-47.762-2.812-101.096-22.75-144.944-5.922-13.028-13.777-28.558-29.834-30.394-15.806-1.803-29.886 6.012-42.604 14.54-32.367 21.709-60.567 54.643-79.211 88.858-3.275-2.469-6.563-4.875-9.867-7.164-56.491-39.127-124.286-63.039-188.937-29.539-29.843 15.467-49.795 42.154-76.273 61.893-31.102 23.188-61.661 8.892-94.161-2.172-14.068-4.785-19.285 20.822-11.474 28.706 21.15 21.34 59.697 8.073 82.037 27.929-36.875.036-74.424 4.947-109.894 12.83-26.347 5.856-60.165 13.349-76.477 37.297-34.676 50.919 19.252 101.186 61 126.56-17.137 1.521-32.771 7.854-40.957 25.117-9.8 20.675-4.257 46.772 1.832 67.622 7.426 25.414 19.646 50.061 34.875 71.678 13.449 19.088 32.051 33.42 52.455 44.479-27.5 23.752-86.428 70.137-46.726 104.686 18.479 16.078 47.099 23.863 70.234 29.795 32.291 8.279 66.049 9.765 99.22 8.611 12.225 25.518 28.827 48.953 50.02 69.422 15.993 15.443 33.014 21.523 50.815 17.336 17.796 42.424 59.867 38.326 97.821 24.053 45.314-17.041 95.344-44.108 122.508-85.932 15.617 33.555 41.748 62.797 78.123 73.213 46.125 13.209 68.646-47.819 79.947-81.133 16.168-47.646 17.607-102.488 2.729-150.816.257-.135.521-.202.767-.399 24.248-19.658 40.668-51.437 36.604-82.953 4.152-.473 8.293-1.025 12.406-1.754 19.795-3.514 47.402-12.652 59.598-29.896 11.554-16.344 10.599-35.137 6.197-53.858-9.511-40.475-34.966-76.598-68.257-101.022z" fill="#68182b"/><path d="m901.413 469.27c-27.161-9.332-54.514 4.139-81.696 5.653-20.32 1.129-42.861-13.595-74.459-34.979 28.696 5.676 55.92-16.385 84.664-24.951 45.694-13.615 56.571 20.525 71.491 54.277z" fill="#b0cf45"/><path d="m695.239 504.129c-8.438-22.757-26.393-41.286-33.362-64.465-5.554-18.457 11.438-35.821 19.524-50.775.978-1.808 1.853-3.651 2.67-5.504 3.707 10.348 6.732 20.817 8.877 31.697 3.56 18.074-2.17 36.383-.301 54.552.955 9.256 5.592 18.099 9.896 26.165 3.399 6.369 7.678 12.283 11.889 18.121 8.863 8.676 7.615 22.959-13.195 17.619-.581-9.115-2.563-18.146-5.998-27.41z" fill="#b0cf45"/><path d="m696.651 568.059c9.801 9.386 23.146 14.086 35.648 19.158 22.912 9.301 38.155 24.713 50.047 46.271 2.83 5.131 5.344 10.41 7.584 15.803-6.123-8.721-13.605-16.385-23.209-22.666-24.06-15.736-60.854-17.166-73.178-46.885 1.106-3.896 2.127-7.783 3.108-11.681z" fill="#b0cf45"/><path d="m594.129 694.658c-4.642-9.539-10.236-18.529-15.191-27.896-7.129-13.475-7.25-27.768-6.516-42.396 1.744-8.666 3.547-17.338 5.35-26.019 4.289-2.969 8.299-6.391 11.979-10.295 5.463 25.642 32.627 41.845 45.028 63.472 9.64 16.813 2.396 28.879-8.813 43.221-8.343 10.676-17.283 20.867-26.543 30.338 1.394-10.263-.706-20.993-5.294-30.425z" fill="#b0cf45"/><path d="m456.808 787.555c7.918 2.263 15.933 4.232 23.994 5.986-1.988 7.82-4.376 15.506-7.277 22.945-.27-2.906-.897-5.797-1.979-8.672-3.005-7.99-10.276-13.168-14.738-20.259z" fill="#b0cf45"/><path d="m446.828 858.369c-1.137-27.951-30.373-46.182-33.133-74.354.387-3.817.871-7.627 1.451-11.432 11.969 5.266 24.338 9.75 36.961 13.545 2.033 4.426 4.914 8.127 8.215 11.877 3.273 3.726 5.75 7.416 7.383 11.248 6.508 15.233-4.389 32.94-20.877 49.116z" fill="#b0cf45"/><path d="m428.623 768.922c-11.469-7.186-21.646-13.945-21.825-30.158-.117-10.578 3.275-19.733 1.79-29.908 16.503 3.761 34.58 6.688 51.529 5.101 7.129 18.192 4.978 38.205 13.742 56.217 3.283 6.746 8.15 11.924 13.885 15.891-20.129-4.092-40.069-9.663-59.121-17.143z" fill="#b0cf45"/><path d="m363.366 722.23c-16.962-16.64-33.896-31.697-45.359-52.699 24.918 19.164 55.057 30.838 85.549 38.156.445.106.908.206 1.354.313 2.57 14.176-5.916 29.889.369 43.236 2.211 4.694 5.097 8.271 8.394 11.307-16.732-7.695-32.57-17.035-46.986-28.324.899-4.221-.024-8.754-3.321-11.989z" fill="#b0cf45"/><path d="m271.636 673.488c-9.901-4.812-20.371-8.854-31.76-12.416-10.174-3.181-19.629-7.047-28.491-11.49 3.701.594 7.542.867 11.63.729 7.648-.262 14.596-2.229 21.426-3.221 18.101-2.613 26.957 5.887 32.524 13.313.198.241.418.387.644.479 14.513 11.697 30.334 21.34 45.51 32.457 9.306 9.818 38.504 35.494 33.392 42.051-6.931 8.892-18.209-9.311-21.597-13.016-5.747-6.297-11.951-12.16-18.221-17.932-7.342-6.75-14.709-12.623-22.291-17.791-4.442-3.025-19.645-17.06-41.435-35.435-.198-.166-.411.166-.263.342 6.328 7.422 12.485 14.856 18.932 21.93z" fill="#b0cf45"/><path d="m239.122 611.646c-7.906-10.144-15.767-20.324-24.433-29.841-15.847-26.196 4.699-49.532 7.369-76.903 1.01-10.362.603-21.529-4.32-30.586 1.664.524 3.332 1.032 5.005 1.532.023.027.028.055.053.08 10.526 10.83 19.332 23.429 26.969 36.914 4.803 21.437-2.239 41.92-8.859 63.332-3.717 12.027-4.631 23.928-1.784 35.472z" fill="#b0cf45"/><path d="m207.187 573.621c-15.473-16.82-37.908-36.342-35.438-56.379 2.451-19.933 15.688-41.9 7.005-58.402 11.118 5.28 22.453 9.944 33.955 13.834 14.351 18.295 2.395 46.494-4.02 65.689-4.116 12.323-5.084 24.106-1.502 35.258z" fill="#b0cf45"/><path d="m697.176 358.42c-2.379-.262-4.769-.625-7.168-1.16.078-2.879.018-5.775-.275-8.698-.574-5.734-4.045-16.149-11.775-15.386-2.973.293-5.618 1.16-8.018 2.416-2.275-3.45-4.604-6.863-7.029-10.201 11.604-13.168 33.566-11.332 48.5-18.295 10.002-4.668 18.371-10.586 24.892-18.682-5.564 27.542-17.314 54.809-39.127 70.006z" fill="#b0cf45"/><path d="m746.047 366.371c14.643.292 29.459 2.685 43.811 6.638-31.576 6.233-56.871 39.527-91.342 27.764-2.412-9.611-5.687-19.074-9.412-28.456-.217-.544-.535-.967-.875-1.35.398-1.686.73-3.387.996-5.1 18.811 3.801 37.772.121 56.822.504z" fill="#b0cf45"/><path d="m663.073 340.885c-4.762 5.037-8.133 11.792-10.819 18.088-7.511 17.603-11.863 35.609-22.037 52.128-.584.949-1.228 1.809-1.859 2.681-.801-1.277-1.598-2.56-2.393-3.845-3.728-6.055-8.83-14.766-4.925-28.896 5.72-20.679 24.438-41.744 24.892-63.569 6.164 7.532 11.885 15.372 17.141 23.413z" fill="#b0cf45"/><path d="m553.573 747.82c-3.053-.674-6.02-1.799-8.889-3.318-7.203-3.818-16.188-12.709-11.551-27.186 4.27-13.326 16.53-25.164 24.473-37.908-3.053 22.58-4.758 45.311-4.033 68.412z" fill="#b0cf45"/><path d="m528.52 730.896c-7.217-8.521-13.443-19.486-18.444-31.439-6.184-14.773-11.336-31.877-1.058-49.264 6.248-10.578 15.465-19.648 25.207-26.408 8.957-6.217 18.803-10.375 27.383-16.793 3.479-1.398 6.846-3.01 10.094-4.844-4.713 22.696-9.34 45.286-12.768 67.993-7.965 20.775-33.24 37.681-30.414 60.755z" fill="#b0cf45"/><path d="m266.023 484.695c3.171.342 6.347.615 9.525.822 7.146 7.809 14.447 15.422 21.688 23.081 14.88 20.478 8.001 46.845 2.396 69.734-2.164 8.828-3.56 16.578-3.98 24.16-.713-2.438-1.436-4.871-2.211-7.271-6.698-20.692-14.461-42.778-24.237-63.813 2.657-16.01 2.305-31.48-3.181-46.713z" fill="#b0cf45"/><path d="m266.575 525.896c-8.076-16.582-17.517-32.328-28.796-46.05 8.083 1.89 16.227 3.359 24.404 4.39 5.189 13.632 6.192 27.412 4.392 41.66z" fill="#b0cf45"/><path d="m509.628 394.52c5.54 3.895 10.917 8.091 16.124 12.553 18.401 15.771 31.168 33.01 25.414 61.086-5.656 27.596-22.568 55.043-12.519 82.666-5.271-3.603-10.311-7.164-14.998-10.402-13.495-9.317-24.148-20.791-34.476-32.686-13.752-28.964 12.106-52.287 20.559-78.65 3.272-10.21 4.165-23.859-.104-34.567z" fill="#b0cf45"/><path d="m596.754 272.264c41.719 27.736 50.803 44.664 39.825 68.818-7.956 17.518-20.911 34.571-20.616 52.12-4.754-8.149-9.488-16.349-14.392-24.425-4.436-7.309-13.725-23.418-11.77-39.995 2.268-19.221 11.592-38.069 6.953-56.518z" fill="#b0cf45"/><path d="m613.401 398.607c3.478 6.13 6.959 12.139 10.533 17.895-7.682-4.038-16.951-3.705-25.703-2.787-22.59 2.365-40.795 7.102-59.275-5.829-6.541-6.306-13.352-12.269-20.461-17.715-3.768-2.888-7.671-5.567-11.678-8.077-6.755-8.536-10.763-19.604-13.392-31.014 4.858 8.504 11.271 14.639 23.419 19.693 11.188 4.655 23.664 5.271 35.596 5.469 9.932.167 23.061-2.303 34.555-1.195 17.048 1.637 19.021 10.541 26.406 23.56z" fill="#b0cf45"/><path d="m575.42 572.025c-10.699-4.484-21.427-10.951-31.472-17.631-12.506-25.554 1.963-52.231 9.533-77.286 4.213-13.95 4.92-27.313 1.039-40.176 32.623 39.779 36.686 50.023 30.553 79.429-2.014 9.651-5.239 19.108-8.444 29.313-2.759 8.789-3.933 17.779-1.209 26.351z" fill="#b0cf45"/><path d="m548.42 417.541c4.729 2.074 9.741 3.459 15.016 3.725 17.998.908 43.432-11.541 59.66-1.417-13.918 13.438-34.381 17-49.42 29.508-7.57-11.236-16.025-21.913-25.256-31.816z" fill="#b0cf45"/><path d="m521.034 544.893c.838.607 1.703 1.232 2.563 1.857-13.284-.764-26.987 7.316-39.319 12.07-28.985 11.176-55.313 12.076-78.451-8.148-11.637-12.953-21.186-27.865-27.879-43.93 7.224 6.291 16.541 10.154 26.424 11.912 10.066 1.795 20.57-.84 30.147-3.633 14.175-4.134 32.134-16.744 47.249-8.652 12.071 13.752 23.794 27.272 39.266 38.524z" fill="#b0cf45"/><path d="m410.744 568.09c-8.573-.912-17.041.449-26.207.135-14.52-.504-30.985-5.469-41.983-15.52-3.373-3.869-6.739-7.74-10.022-11.686-7.22-8.671-14.675-17.039-22.206-25.324 4.539 1.975 9.435 3.297 14.443 4.25 15.061 2.875 36.654-5.187 50.674 2.063 9.13 17.084 21.434 32.58 35.301 46.082z" fill="#b0cf45"/><path d="m415.164 572.299c3.336 3.076 6.737 6.055 10.203 8.9 16.952 13.914 40.713 24.856 65.672 29.961-1.762 4.93-2.962 9.975-3.727 15.08-15.691-4.943-32.785-1.437-49.088-1.299-17.478.146-27.406-5.601-42.194-18.418-3.151-2.734-6.272-5.5-9.354-8.32-12.16-11.131-23.699-22.908-34.801-35.088 3.54 1.764 7.29 3.229 11.204 4.561 17.026 5.783 35.487.513 52.085 4.623z" fill="#b0cf45"/><path d="m344.056 517.301c-15.859.828-34.777-1.199-45.364-14.484-.183-.229-.382-.378-.589-.473-5.063-5.475-10.124-10.961-15.191-16.475 25.59.772 51.382-3.162 76.796-13.037.397 3.161.86 6.318 1.452 9.467 2.293 12.229 6.392 23.937 11.843 35.021-9.097-2.857-19.206-.527-28.947-.019z" fill="#b0cf45"/><path d="m283.234 592.109c7.363 20.877 12.021 42.504 19.537 63.008.076.414.231.811.463 1.211 3.185 8.539 6.91 16.863 11.535 24.865-7.766-5.334-15.578-10.547-23.179-16.078-10.274-7.479-22.54-18.453-20.009-39.092 1.709-13.914 7.352-28.433 8.543-42.688 1.051 2.946 2.09 5.878 3.11 8.774z" fill="#b0cf45"/><path d="m310.023 651.232c-.088-.086-.188-.104-.277-.181-4.001-10.987-6.991-22.43-10.008-33.803-1.567-10.906-.741-21.398 2.137-33.555 2.629-11.097 5.382-22.068 7.005-33.375 1.608-11.181 1.084-22.023-2.591-31.953 6.439 7.012 12.783 14.117 18.748 21.615 11.865 14.895 24.687 29.002 38.074 42.543 14.576 20.082 12.145 40.625 10.49 65.571-1.101 16.595 1.324 31.229 9.18 44.925-26.885-8.624-52.659-22.048-72.758-41.787z" fill="#b0cf45"/><path d="m379.322 623.488c1.23-10.875-1.209-21.265-5.835-30.744 1.698 1.649 3.362 3.332 5.075 4.965 7.277 6.93 14.813 13.561 22.498 20.014 13.323 11.185 21.354 19.883 24.551 42.045 2.396 16.578 2.964 33.707 14.754 45.617-13.604-1.151-27.311-4.295-39.539-7.229-4.354-1.047-8.7-2.226-13.032-3.513-13.817-21.756-11.321-45.944-8.472-71.155z" fill="#b0cf45"/><path d="m422.074 634.826c6.566 5.211 13.154 10.393 19.744 15.574 17.266 13.575 27.828 32.522 44.346 46.381-11.776 7.451-25.809 9.547-40.225 8.963-20.92-16.474-12.984-47.914-23.865-70.918z" fill="#b0cf45"/><path d="m450.546 650.736c-10.316-8.217-20.699-16.324-30.959-24.576 21.358 5.145 45.586-3.6 67.268 3.543-2.141 19.666 2.227 40.148 9.146 58.924-1.762 1.871-3.613 3.539-5.534 5.055-15.241-12.557-24.305-30.51-39.921-42.946z" fill="#b0cf45"/><path d="m419.205 564.361c9.688 4.981 20.363 7.276 33.24 6.395 11.254-.768 22.257-4.762 32.749-8.606 13.143-4.816 30.582-15.89 45.215-10.511 9.816 6.953 20.787 14.273 32.013 20.111-9.861.338-18.716 3.652-27.697 9.836-7.82 5.379-14.621 11.994-22.678 17.104-18.056 11.445-50.518 5.626-92.842-34.329z" fill="#b0cf45"/><path d="m499.565 612.834c.024-.068.007-.121.029-.189 17.44 2.591 35.135 2.209 51.248-2.082-11.416 7.316-23.896 13.205-33.722 23.035-8.028 8.037-14.629 19.187-17.714 30.707-4.01-20.166-4.291-39.346.159-51.471z" fill="#b0cf45"/><path d="m506.99 604.977c.855-.358 1.728-.655 2.556-1.088 21.32-11.141 34.558-31.584 60.896-28.283 4.783 2.121 9.566 3.908 14.283 5.193-.183.207-.33.424-.519.631-18.293 20.107-50.614 24.55-77.216 23.547z" fill="#b0cf45"/><path d="m579.733 573.721c-6.736-15.084 1.992-32.397 6.938-46.719 3.555-10.295 4.604-20.773 4.008-31.359 11.709 28.505 14.506 57.857-2.326 80.714-2.856-.693-5.733-1.58-8.62-2.636z" fill="#b0cf45"/><path d="m600.002 574.494c11.018-18.533 9.813-40.795 4.104-61.562 1.006-2.338 2-4.676 2.998-7.016 2.074 12.926 10.529 24.557 19.271 34.238 10.989 12.176 32.305 22.416 44.258 36.612 10.604 12.589 6.295 26.716-.658 43.013-3.637 8.522-7.578 16.916-11.779 25.164-4.195 8.241-8.934 16.409-14.086 24.424-3.541-33.549-46.801-50.271-51.461-84.5 2.664-3.168 5.123-6.623 7.353-10.373z" fill="#b0cf45"/><path d="m601.799 505.244c-2.576-7.785-5.674-15.26-8.869-22.118-1.496-3.216-3.164-6.377-4.812-9.544 13.392-.566 24.021-8.701 31.898-19.032-4.48 17.513-11.144 34.098-18.217 50.694z" fill="#b0cf45"/><path d="m610.293 460.207c-6.521 5.941-14.459 9.939-23.918 9.926-2.468-4.561-5.084-9.057-7.849-13.481 12.656-11.142 29.599-14.49 43.379-24.013 1.787-1.235 3.443-2.621 5.031-4.078-4.309 19.617-11.826 27.257-16.643 31.646z" fill="#b0cf45"/><path d="m576.692 250.834c-2.422-1.219-5.117-2.496-7.955-3.781 12.06-4.781 25.055-6.998 37.777-5.721 21.504 2.149 37 30.015 44.305 68.66-20.559-24.316-45.408-44.717-74.127-59.158z" fill="#b0cf45"/><path d="m593.19 293.501c-2.096 10.712-6.324 21.461-7.932 31.972-1.031 6.764-.66 13.177.77 19.441-3.137-4.407-6.352-8.742-9.771-12.898-2.422-2.941-4.968-5.766-7.586-8.518-8.107-8.5-17.238-16.416-16.443-28.014.561-8.118 3.232-15.988 4.301-24.039 1.104-8.333.584-15.596-3.16-21.406 30.475 11.423 43.792 23.184 39.821 43.462z" fill="#b0cf45"/><path d="m553.604 264.156c.068 7.101-1.975 14.846-3.398 21.946-.998 4.987-1.618 9.957-1.643 15.044-.006 1.048.213 2.1.529 3.148-3.16-3.117-6.269-6.283-9.248-9.584-13.021-14.433-23.006-31.554-30.938-49.232 34.28-4.344 44.581 7.03 44.698 18.678z" fill="#b0cf45"/><path d="m559.262 321.294c-4.162-1.483-8.604-2.433-13.672-3.022-10.138-1.182-19.84-.822-29.967-2.904-6.282-1.296-11.729-4.43-16.131-8.698-11.69-11.324-12.313-31.625-3.248-49.489 2.078-4.092 4.855-7.114 8.117-9.305 13.007 28.831 31.731 52.177 54.901 73.418z" fill="#b0cf45"/><path d="m503.965 314.161c14.297 10.2 31.989 6.715 48.305 9.674 13.188 2.401 23.281 13.416 32.779 27.155 5.289 7.65 10.205 15.723 14.936 23.903-12.336-5.626-28.248-2.581-41.299-2.182-13.979.423-27.627-.706-40.922-5.267-23.716-8.148-27.003-28.531-28.776-44.641-.954-8.701-1.524-17.971-1.248-27.235 3.441 7.274 8.942 13.395 16.225 18.593z" fill="#b0cf45"/><path d="m479.74 315.349c-6.767-15.39-7.427-32.624-12.849-49.138-2.633-8.023-7.221-13.965-13.51-17.77 11.758.631 23.321 2.375 34.526 5.775-9.646 17.661-9.493 41.678-8.167 61.133z" fill="#b0cf45"/><path d="m463.771 268.424c2.32 6.232 3.696 13.195 4.989 20.021 2.548 13.434 4.999 24.839 11.702 35.723 1.489 16.33 4.461 34.373 11.579 49.682-7.073-3.535-14.356-6.66-21.772-9.422-.682-.256-1.381-.436-2.068-.66-14.473-12.018-23.834-23.908-30.708-42.838-4.632-12.754-6.962-26.004-12.568-38.443-6.783-15.043-18.599-25.963-33.285-30.703 35.293-3.985 65.233-1.862 72.131 16.64z" fill="#b0cf45"/><path d="m482.406 378.869c19.988 8.959 31.837 21.033 24.582 46.115-3.565 12.321-10.144 24.421-14.929 33.002-8.003 14.346-12.815 27.829-9.218 42.418-5.5-6.412-11.041-12.854-17.017-19.064-8.889-9.241-17.403-18.223-25.229-27.707-9.325-29.418 34.654-56.716 16.377-83.236 8.817 1.942 17.291 4.825 25.434 8.472z" fill="#b0cf45"/><path d="m455.818 396.031c-5.665 16.478-20.994 33.909-19.827 51.8-6.736-8.707-12.885-17.913-18.105-28.257-9.771-19.353-20.404-37.854-29.842-57.27-8.455-17.395.52-12.619 9.355-6.103 3.297 2.42 6.672 4.552 10.569 5.909 10.869 3.792 22.164 4.867 33.564 5.874 12.001 1.054 20.406 10.237 14.286 28.047z" fill="#b0cf45"/><path d="m404.656 350.877c-3.705-2.104-5.633-5.113-8.212-7.501-12.964-11.989-20.696-1.619-20.976 10.204-.072 2.973.266 6.252.444 9.805.181 3.652.041 7.285-.338 10.906-24.28-22.847-10.604-63.854-28.76-90.855 37.84 10.38 71.431 32.781 77.859 74.039-7.041-1.075-13.787-3.053-20.017-6.598z" fill="#b0cf45"/><path d="m379.786 395.904c2.604-9.633 4.589-19.315 4.669-29.228 10.097 20.675 21.371 40.494 31.787 61.123 6.408 12.696 14.836 23.719 24.062 34.141-16.879-4.841-40.818-7.054-56.453-17.198-13.748-8.928-10.33-25.631-4.065-48.838z" fill="#b0cf45"/><path d="m444.927 467.07c6.914 7.479 14.149 14.725 21.268 22.123 3.676 3.821 7.168 7.693 10.609 11.565-10.59-2.343-21.142 2.804-32.023 6.957-11.673 4.453-25.883 7.777-38.998 6.908-23.668-1.564-38.928-24.465-38.705-61.523.039-6.358.852-12.602 2.093-18.771 13.502 23.851 53.717 24.489 75.756 32.741z" fill="#b0cf45"/><path d="m361.263 429.455c-2.5 11.432-3.157 22.959-2.42 34.463-15.615 6.211-31.128 10.097-46.533 11.967 9.598-5.651 16.804-13.964 22.897-24.133 6.092-10.172 13.927-46.775 27.779-48.139 1.716.615 3.408 1.28 5.107 1.938-2.517 8.002-5.092 15.957-6.83 23.904z" fill="#b0cf45"/><path d="m343.501 424.17c-6.658 14.756-12.171 29.755-22.628 40.584-15.563 16.128-53.796 15.822-100.399.896 14.435-2.596 27.352-8.591 38.545-19.567 12.84-12.598 21.063-31.774 34.197-43.891 16.681-15.389 42.571-7.681 64.916-.226-6.963 4.696-12.187 16.79-14.631 22.204z" fill="#b0cf45"/><path d="m279.04 413.094c-7.73 10.088-13.931 21.029-22.464 30.546-5.18 5.774-11.299 10.024-17.968 13.087-22.583 10.386-35.943 3.742-61.845-8.62-5.334-2.547-11.131-5.531-17.119-8.909 30.325 1.779 48.77-31.6 72.703-49.134 15.305-11.216 46.867-5.662 75.361-.427-11.675 4.028-20.667 13.018-28.668 23.457z" fill="#b0cf45"/><path d="m243.001 583.719c2.393-11.401 6.75-22.789 9.89-34.383 2.368-8.738 2.979-17.912 2.051-26.93 8.559 16.697 15.555 34.418 21.866 51.729 2.624 24.537-14.176 49.724-6.994 72.99-.604-.574-1.239-1.105-1.836-1.699-2.162-2.141-4.262-4.326-6.316-6.557-10.862-11.783-24.128-29.111-18.661-55.15z" fill="#b0cf45"/><path d="m470.609 751.006c-3.176-12.881-2.678-25.109-7.027-37.41 13.259-1.758 25.652-6.573 35.884-16.217 1.09 2.6 2.205 5.176 3.36 7.687 5.988 12.991 14.612 27.78 25.989 38.321 7.373 14.076 6.762 29.025 18.557 41.23 4.349 4.502 9.545 8.006 15.166 10.57-6.573-.304-13.143-.729-19.688-1.298-14.35-1.235-28.951-3.084-43.53-5.639-15.117-6.457-24.358-19.58-28.711-37.244z" fill="#b0cf45"/><path d="m547.465 779.742c-8.41-8.707-9.322-20.695-12.996-31.611 8.629 6.342 18.643 10.088 30.104 9.094 7.892-.684 15.103-4.114 21.648-8.7 2.197 10.842 9.527 19.655 16.565 28.161 4.966 5.998 11.394 11.98 18.775 15.183-10.006 2.686-22.021 2.727-28.934 3.197-5.912.405-11.841.485-17.767.444-10.395-2.162-19.623-7.721-27.395-15.768z" fill="#b0cf45"/><path d="m578.286 743.332c-6.776 3.904-13.305 5.482-19.516 5.182-1.215-36.278 3.674-71.731 10.328-107.082.668 9.121 2.547 17.933 6.854 27.07 6.246 13.244 15.836 26.488 19.313 40.588 3.975 16.127-3.815 26.642-16.979 34.242z" fill="#b0cf45"/><path d="m645.643 681.646c18.033-24.609 31.74-53.063 41.781-82.418 7.881 27.467 11.192 45.59 4.016 58.815-7.955 14.662-24.859 27.029-35.877 35.906-11.566 9.328-20.383 19.889-23.668 33.592-3.559-5.758-7.105-10.902-10.053-15.045 8.289-10.058 16.201-20.478 23.801-30.85z" fill="#b0cf45"/><path d="m681.741 588.656c-.041.125-.092.248-.131.373-9.653-34.504-74.473-47.416-71.602-90.02 4.125-9.867 8.078-19.798 11.463-29.976 5.846-17.579 8.197-35.533 15.502-52.456 4.129-6.261 7.471-13.11 10.488-19.703 5.604-12.228 8.748-25.347 14.021-37.705 2.975-6.962 18.215-24.564 19.928-7.47.593 5.882-.264 12.016-1.479 17.75-3.191 15.084-13.609 27.012-20.66 40.125-10.713 17.801-20.043 36.213-25.299 56.559-.103.393.486.666.666.283 2.115-4.555 4.385-9.053 6.621-13.563-.666 15.543 6.803 29.436 15.846 42.981 9.855 14.76 20.188 28.504 26.482 43.965 6.876 16.89 3.492 32.265-1.846 48.857z" fill="#b0cf45"/><path d="m674.389 514.211c-9.111-13.59-21.17-27.415-26.715-42.836-3.252-9.045-5.091-25.689 4.94-40.962-.147 2.015-.203 4.064-.028 6.206 1.202 14.895 11.78 28.477 19.172 40.795 11.192 18.66 20.879 37.643 21.487 59.838.152 5.566-.532 11.32-1.643 17.086-2.672-14.311-8.906-27.733-17.213-40.127z" fill="#b0cf45"/><path d="m726.161 515.426c-2.223-3.643-5.176-7.115-7.354-10.137-15.385-21.326-18.916-40.035-16.66-65.814.699-7.995.346-15.813-.684-23.516 40.586 28.715 59.518 36.486 63.803 60.408 5.02 27.973-9.053 59.711-.043 87.279-17.549-5.441-34.174-13.511-48.806-23.851 15.392-2.387 13.242-18.639 9.744-24.369z" fill="#b0cf45"/><path d="m857.803 408.605c-15.166-2.308-30.465 1.053-44.902 7.592-16.158 7.315-33.488 17.89-51.139 20.403-20.539 2.924-36.799-10.223-61.465-27.763-.261-1.367-.49-2.734-.791-4.093 27.401 8.203 48.866-11.135 72.51-22.193 20.588-9.639 34.588-4.795 48.408 1.533 13.793 6.316 26.276 14.658 37.379 24.521z" fill="#b0cf45"/><path d="m842.489 386.406c-16.838-10.883-35.688-17.976-55.086-22.702 18.346-6.638 41.967-.989 57.377-12.655.273 11.908-1.213 24.392-2.291 35.357z" fill="#b0cf45"/><path d="m811.897 304.654c24.17 4.416 31.412 21.947 32.693 41.973-9.527 8.686-24.052 7.754-36.138 8.653-5.631.423-10.985 1.206-16.125 2.685-11.432 3.288-10.555 4.062-21.811 2.268-3.971-.625-7.959-1.125-11.963-1.521 8.088-7.236 11.061-20.354 14.311-32.768 5.957-22.743 15.537-25.59 39.033-21.29z" fill="#b0cf45"/><path d="m776.563 304.775c-4.006 6.323-6.295 13.244-8.244 20.742-1.621 6.237-3.084 14.679-6.219 21.722-4.203 9.462-13.26 10.546-22.479 10.366-10.01-.197-19.75 1.012-29.51 1.273 12.404-11.522 21.17-26.764 27.201-43.273 12.534-4.587 25.796-8.689 39.251-10.83z" fill="#b0cf45"/><path d="m740.518 247.241c-.158 22.63-1.248 37.48-17.719 49.093-9.814 6.922-21.701 10.74-34.435 13.689-9.643 2.235-20.158 5.271-27.244 12.404-.397-4.866-1.065-9.688-1.991-14.45-2.009-10.339-.853-21.466 11.549-30.339 13.541-9.691 33.559-13.002 47.047-21.844 9.895-6.484 17.639-15.507 22.606-25.927.148 5.807.226 11.6.187 17.374z" fill="#b0cf45"/><path d="m724.803 244.88c-10.23 9.57-23.732 16.064-37.9 21.255-10.424 3.813-19.852 8.312-26.258 16.182 7.91-45.576 16.971-72.97 31.314-86.029 6.184-5.631 12.979-10.713 19.856-16.991 8.951-8.167 14.754-18.228 17.654-29.386 12.537 44.783 17.895 73.868-4.666 94.969z" fill="#b0cf45"/><path d="m699.186 93.864c13.574 6.121 20.256 26.247 25.154 39.783 3.774 10.443 4.061 17.864-7.754 33.137-10.685 13.807-26.505 23.772-37.621 38.313.748-3.616 1.455-7.241 2.061-10.888 5.631-33.824 3.662-68.674 18.16-100.345z" fill="#b0cf45"/><path d="m668.002 99.585c4.741-2.56 9.655-4.745 14.786-6.316 4.218-1.291 7.966-1.452 11.373-.87-9.215 20.589-12.084 42.604-14.282 64.815-.904-2.712-2.082-5.415-3.466-8.262-8.346-17.171-13.659-30.856-8.411-49.367z" fill="#b0cf45"/><path d="m642.176 117.947c6.705-5.756 13.901-11.319 21.594-15.947-2.045 8.414-2.316 16.415-.643 25.441 1.75 9.436 7.182 17.225 11.061 25.554 6.041 12.975 3.727 26.629 1.844 39.833-1.86 13.078-4.918 25.864-8.219 38.587-1.252-10.601-5.691-20.126-14.031-30.946-9.063-11.756-17.094-24.411-20.858-37.736-5.996-21.247 2.975-39.407 9.252-44.786z" fill="#b0cf45"/><path d="m630.656 128.484c-5.086 14.738-4.903 31.818 1.506 45.918 4.109 9.035 9.765 16.699 15.918 24.412 5.384 6.746 9.511 13.132 12.279 19.716 7.646 18.191 2.191 31.644-1.762 48.922-1.701 7.438-3.188 14.922-4.283 22.495-12.922-38.289-41.539-71.952-73.09-97.271 12.706-23.544 29.946-45.478 49.432-64.192z" fill="#b0cf45"/><path d="m616.645 239.6c-17.379-4.209-35.641-1.654-52.264 5.56-23.379-9.89-56.063-18.228-72.241 2.519-.5.639-.937 1.322-1.398 1.982-3.862-1.223-7.771-2.289-11.729-3.134 11.491-5.86 18.646-20.108 26.948-29.498 11.706-13.235 30.037-19.6 48.16-19.294 27.508.454 45.251 20.076 62.524 41.865z" fill="#b0cf45"/><path d="m573.596 197.348c-13.428-3.684-28.312-3.674-41.121-.494-9.35 2.32-17.541 7.92-24.959 13.815-7.784 6.192-13.449 17.701-20.958 25.828-8.117 8.783-19.563 7.601-31.459 6.921-11.176-.634-22.519-.297-33.821.495 13.941-6.485 24.647-17.733 34.91-30.667 11.181-14.09 24.899-31.684 41.554-40.238 29.643-15.241 64.768 15.741 75.854 24.34z" fill="#b0cf45"/><path d="m521 164.953c-17.819-.827-34.86 9.08-47.646 22.02-11.043 11.176-19.906 24.658-30.33 35.938-18.303 19.812-45.377 23.337-69.52 25.762-9.422.943-18.854 1.758-28.284 2.4 14.059-6.075 25.169-17.566 34.118-31.399 11.219-17.337 18.069-44.272 31.823-61.546 19.867-24.939 67.913-13.687 109.839 6.825z" fill="#b0cf45"/><path d="m206.745 237.811c-7.109-3-7.093-8.617-5.31-12.602 1.547-3.449 3.865-5.734 10.706-3.355 10.274 3.558 20.335 7.861 31.007 10.029 29.479 5.99 57.513 8.814 71.988 4.304.466-.144.354-.786-.109-.823-12.189-.891-24.67-1.902-36.957-3.437 33.74-9.534 58.533-45.203 87.633-65.311 18.424-12.731 37.338-19.645 56.362-22.145-10.706 6.544-18.837 17.607-25.277 30.268-8.443 16.595-15.782 36.108-26.773 51.391-15.417 21.434-36.48 25.959-53.629 26.197-21.238.301-42.135-3.333-63.516-4.809-34.164-2.354-43.172-8.471-46.125-9.707z" fill="#b0cf45"/><path d="m273.952 255.678c26.999 2.713 53.979 1.705 81.37-.225 18.424-1.295 42.502-.558 54.058 11.617 11.903 12.543 18.043 31.467 23.051 49.236 5.485 19.469 14.893 33.068 28.367 45.45-8.929-1.902-18.188-2.384-27.31-3.233-8.944-63.287-72.883-86.538-129.584-90.666-5.491-.4-11.023-.662-16.571-.818-3.834-4.75-8.367-8.455-13.381-11.361z" fill="#b0cf45"/><path d="m288.163 275.983c41.246-.166 59.924 9.134 64.604 31.288 5.256 24.889 1.397 53.698 22.289 71.13-1.138 7.461-3.185 14.858-5.434 22.217-15.892-6.175-33.744-10.951-46.476-20.935-6.184-4.854-11.576-10.574-16.719-18.799-10.49-16.771-18.225-35.004-29.334-51.437-8.866-13.118-21.785-25.77-36.779-31.652 15.884-1.178 31.834-1.744 47.849-1.812z" fill="#b0cf45"/><path d="m197.742 282.635c33.121-5.096 50.949-3.943 70.996 21.475 10.802 13.695 19.248 30.168 25.992 42.95 5.966 11.302 12.109 22.567 20.809 32.007 3.733 4.053 8.173 6.904 12.82 9.445-45.664-10.079-59.457-7.309-79.551-20.409-19.808-12.912-33.476-30.893-48.218-51.535-7.875-11.027-19.146-24.627-32.916-28.337 9.989-2.2 20.015-4.053 30.068-5.596z" fill="#b0cf45"/><path d="m130.491 298.259c23.803-8.806 42.245-10.78 59.302 9.049 10.304 11.972 18.683 27.515 25.939 36.622 10.427 13.078 22.826 23.156 37.062 30.833-6.33-1.241-12.611-2.572-18.801-4.069-43.632-10.574-75.267-11.797-92.123-28.401-5.566-5.481-9.629-12.619-14.054-19.023-4.293-6.216-9.415-12.831-16.381-15.745 5.812-3.757 12.324-6.77 19.056-9.266z" fill="#b0cf45"/><path d="m92.613 328.04c3.443-7.438 8.882-13.343 15.417-18.165 12.061 2.933 19.61 19.515 26.216 28.711 4.716 6.566 10.249 10.929 16.454 14.594-20.828-3.548-42.511-5.01-62.71-10.686.863-4.735 2.354-9.556 4.623-14.454z" fill="#b0cf45"/><path d="m87.29 347.671c22.359 6.192 46.3 7.354 69.045 11.77 12.02 2.334 24.036 4.727 36.031 7.241-8.693.867-17.196 2.842-25.886 6.125-14.628 5.531-26.715 12.502-40.051 15.785-23.504 5.779-42.134-5.198-39.139-40.921z" fill="#b0cf45"/><path d="m103.009 393.432c13.705 2.082 25.578.342 39.041-5.523 13.249-5.774 25.293-11.328 37.953-14.742 20.791-5.612 35.996-1.492 52.613 2.523 4.528 1.093 9.116 2.087 13.725 3.035-23.969 8.707-40.465 37.428-62.066 50.51-25.064 15.183-54.364-.914-81.266-35.803z" fill="#b0cf45"/><path d="m165.099 451.986c2.282 1.21 4.573 2.389 6.876 3.544 16.934 18.062-5.923 47.888-3.558 72.431-2.576-3.566-5.097-7.184-7.48-10.92-11.721-18.367-26.578-34.414-38.448-52.592 9.925-10.718 26.466-13.133 42.61-12.463z" fill="#b0cf45"/><path d="m114.142 481.849c.953-5.163 2.691-9.467 4.998-13.087 10.288 15.3 22.769 29.03 33.064 44.361-3.026-.939-6.314-1.182-9.843-1.271-12.258-.311-23.144-4.602-29.45-14.59-.051-5.178.293-10.336 1.231-15.413z" fill="#b0cf45"/><path d="m113.208 503.382c2.861 3.227 6.326 5.938 10.354 8.227 6.85 3.899 15.922 2.541 23.615 3.813 14.027 2.316 25.153 27.945 49.11 54.443-25.232-12.021-59.633-6.89-75.718-32.047-3.677-11.082-6.499-22.752-7.361-34.436z" fill="#b0cf45"/><path d="m140.464 582.166c-6.271-10.734-11.76-22.279-16.458-34.664 16.396 15.703 42.474 14.355 64.047 22.332 21.704 8.029 26.008 19.609 49.644 48.662-10.137-5.394-21.491-7.475-33.78-8.617-24.004-2.24-47.689-9.975-63.453-27.713z" fill="#b0cf45"/><path d="m195.37 640.43c-19.04-12.272-34.726-27.83-47.454-46.397 6.648 5.485 14.019 9.987 21.521 12.709 19.322 7.012 41.021 5.055 59.654 11.828 19.721 7.172 19.035 13.01 29.859 24.864-4.431-1.155-9.021-1.235-14.898-.479-18.741 2.408-32.627 5.547-48.682-2.525z" fill="#b0cf45"/><path d="m206.681 656.799c6.66 3.262 13.439 6.248 20.283 8.9 19.617 7.602 38.408 11.42 56.259 23.145 4.499 2.953 8.868 6.133 13.14 9.467 0 .107-.051.185-.043.302.207 3.11.505 6.207.808 9.291-4.191.262-8.279.873-12.34 1.682-26.849 1.359-45.187-17-66.509-31.643-7.819-5.375-17.458-8.689-26.775-8.109 5.144-4.395 10.261-8.713 15.177-13.035z" fill="#b0cf45"/><path d="m220.542 683.434c9.356 6.57 18.115 14.72 25.977 19.836 7.354 4.791 16.258 7.771 25.344 9.06-15.041 2.986-30.497 3.467-45.734 4.641-1.192.091-2.374.23-3.563.338-15.129-.241-27.53-3.252-40.924-10.465-6.472-3.485-12.487-6.5-19.242-8.168 19.145-24.369 32.941-32.946 58.142-15.242z" fill="#b0cf45"/><path d="m155.27 708.848c6.244-10.483 11.436-5.979 22.778-.112 4.469 2.313 8.902 4.771 13.531 6.846 11.918 5.334 11.028 4.006-3.847 6.301-13.051 2.015-26.098 4.058-39.267 5.172.665-5.575 2.88-11.619 6.805-18.207z" fill="#b0cf45"/><path d="m171.091 759.369c-14.281-7.096-22.035-16.037-22.788-27.117 26.101-2.154 51.769-7.52 77.824-10.102 3.373-.338 6.746-.611 10.114-.873-7.431 3.545-14.274 8.108-20.603 13.934-5.251 4.83-9.018 10.209-12.959 15.074-9.756 12.053-20.518 14.576-31.588 9.084z" fill="#b0cf45"/><path d="m187.343 766.66c7.307-2.394 12.599-6.697 18.443-13.935 7.249-8.977 14.28-16.473 22.563-22.377 11.461-8.168 23.672-10.024 35.156-11.559 11.422-1.525 22.67-5.142 34.174-5.767.387 3.312.803 6.611 1.305 9.89-8.961 11.676-14.551 25.338-23.926 36.752-4.188 5.104-9.315 8.893-14.994 11.676-21.356 10.49-48.221 5.287-72.721-4.68z" fill="#b0cf45"/><path d="m236.657 781.154c10.762-1.34 21.229-4.269 30.655-10.006 15.835-9.646 22.189-28.939 32.472-43.574 3.526 20.69 9.335 40.643 17.507 59.521-27.129.725-54.253-.818-80.634-5.941z" fill="#b0cf45"/><path d="m316.992 762.891c-5.887-18.502-9.65-37.713-11.426-56.998 10.59 9.181 20.451 19.275 29.59 29.679 1.299 1.475 2.521 2.869 3.724 4.146-9.162 5.989-16.287 13.878-21.888 23.173z" fill="#b0cf45"/><path d="m328.58 753.029c3.729-4.099 7.968-7.728 12.813-10.813 4.875 4.443 9.824 6.215 18.005 1.908 1.177-.621 2.192-1.445 3.118-2.348 7.811 5.989 15.988 11.448 24.471 16.428-19.406 14.549-42.086 31.887-46.428 56.324-16.624-26.731-25.692-46.452-11.979-61.499z" fill="#b0cf45"/><path d="m364.255 845.57c-14.734-15.75-25.112-30.482-12.068-49.996 9.485-14.203 24.882-25.646 38.019-35.494 6.532 3.707 13.229 7.133 20.076 10.299-3.556 22.648.43 28.812-15.077 47.769-9.085 11.104-19.928 21.348-23.292 35.612-2.626-2.752-5.171-5.531-7.658-8.19z" fill="#b0cf45"/><path d="m402.615 874.672c-2.465-.58-4.934-1.395-7.396-2.521-13.258-6.097-23.164-15.423-15.162-29.49 7.393-13.017 19.994-23.205 27.1-36.383-.875 22.841-.642 45.777-4.542 68.394z" fill="#b0cf45"/><path d="m407.701 875.531c4.506-26.574 3.355-53.59 5.077-80.363 6.725 18.877 23.658 34.238 29.026 52.93 5.026 17.463-13.99 29.281-34.103 27.433z" fill="#b0cf45"/><path d="m457.96 906.027c-11.576-3.388-21.396-11.332-27.703-26.256 4.582-1.869 9.209-4.396 13.887-7.636 25.123-17.41 37.946-48.086 45.162-76.834 6.247 1.226 12.514 2.31 18.793 3.263-6.502 12.971-9.496 26.043-9.629 40.911-.133 14.773 2.764 31.72-.133 46.525-3.785 19.344-17.64 26.693-40.377 20.027z" fill="#b0cf45"/><path d="m534.211 891.205c-12.285 5.432-26.524 11.18-40.639 14.373 7.377-9.494 8.775-20.98 9.449-34.031 1.356-26.229-3.449-48.301 8.693-72.412 17.72 2.547 35.451 4.058 52.835 4.771-2.619 9.086-2.113 17.762-.576 27.295 1.188 7.385 5.707 17.899 7.024 27.492 2.451 17.819-14.114 22.487-36.786 32.512z" fill="#b0cf45"/><path d="m573.606 871.137c1.295-4.559.824-9.506.072-14.588-2.688-18.129-11.174-33.992-5.558-52.475 11.437.418 28.822 1.406 44.537-1.17 2.152 6.498 4.679 14.059 5.384 21.35 1.793 18.555-14.39 29.078-44.435 46.883z" fill="#b0cf45"/><path d="m621.098 833.797c1.731-10.182-1.838-21.682-5.016-31.481 6.229-1.265 12.032-3.22 17.012-6.039 1.498 4.901 3.188 9.784 5.106 14.61-4.836 8.244-10.625 15.849-17.102 22.91z" fill="#b0cf45"/><path d="m637.118 781.381c-1.916 4.047-5.68 6.81-10.303 8.732-8.682-2.172-15.942-9.336-21.588-15.875-6.984-8.097-14.35-17.238-15.863-28.086 5.138-3.998 9.851-8.56 14.099-12.912 4.356-4.465 8.557-9.146 12.676-13.918 11.274 15.934 29.543 43.969 20.979 62.059z" fill="#b0cf45"/><path d="m640.422 790.77c2.116-2.135 3.928-4.555 5.266-7.383 6.875-14.518-1.447-34.797-11.156-51.455 5.717-32.143 50.935-47.063 62.258-75.688 7.195 27.19 4.632 55.612 1.545 70.172-4.049 19.096-17.541 33.586-30.014 47.717-8.983 10.183-18.565 22.791-21.063 36.365-2.656-6.519-4.949-13.135-6.836-19.728z" fill="#b0cf45"/><path d="m662.104 786.436c8.645-11.702 19.971-22.43 27.197-32.211 11.311-15.317 14.559-33.071 14.903-51.229 1.644 7.506 3.39 15.016 5.146 22.594 7.518 32.426 8.166 59.23-2.496 75.269-12.285 18.471-32.264 34.553-30.469 55.536-22.818-23.278-32.353-45.495-14.281-69.959z" fill="#b0cf45"/><path d="m684.42 838.186c5.719-10.571 15.604-19.989 22.25-29.143 4.573-6.301 8.252-12.488 10.495-19.055.658 5.278 1.421 10.545 2.479 15.768 5.518 27.191 7.723 54.373 14.883 81.033-28.068 2.199-63.3-24.205-50.107-48.603z" fill="#b0cf45"/><path d="m758.784 874.713c-5.473 5.41-11.784 9.535-19.086 11.275-6.28-23.644-7.408-47.619-12.756-71.508 10.224 20.077 33.668 35.979 31.842 60.233z" fill="#b0cf45"/><path d="m782.168 836.508c-4.729 11.01-11.16 24.367-20.002 34.576-.423-11.594-6.084-21.584-13.304-31.725-11.188-15.728-21.02-29.371-26.102-46.156-3.486-22.904-3.91-46.191-8.414-68.988-.506-2.559-1.035-5.096-1.564-7.627 6.093 10.846 14.732 19.441 26.476 27.924 15.242 11.008 31.373 20.314 42.135 36.234 12.615 18.658 5.486 44.779.775 55.762z" fill="#b0cf45"/><path d="m801.127 774c-1.841 11.99-4.871 23.791-8.652 35.35-.383-14.1-5.027-27.483-15.125-39.717-9.543-11.559-24.229-19.68-36.35-28.104-17.839-12.404-27.968-26.226-32.918-47.138-3.156-15.19-5.886-30.36-6.644-46.362-.035-.756-.113-1.506-.158-2.258 7.345 15.655 18.562 27.276 34.584 37.504 13.054 8.334 27.621 13.909 40.742 22.123 8.037 5.026 14.082 10.909 18.5 17.643 11.506 17.522 8.988 31.611 6.021 50.959z" fill="#b0cf45"/><path d="m804.524 734.824c-5.055-14.49-14.869-25.334-30.799-35.306-13.215-8.27-27.887-13.973-41.092-22.399-16.929-10.803-26.826-25.586-32.578-44.146-1.92-14.332-5.469-28.469-9.762-42.229.629-1.992 1.174-3.992 1.77-5.99 7.545 13.965 21.83 22.918 36.461 28.963 15.65 6.474 31.6 11.535 45.15 22.051 24.629 19.115 31.735 53.263 30.85 99.056z" fill="#b0cf45"/><path d="m827.637 614.723c-5.65 14.787-15.568 28.211-27.313 38.398-6.799-19.158-16.598-37.125-30.598-51.674 14.662 1.914 32.359-5.142 47.846-7.688 15.803-2.593 16.028 5.362 10.065 20.964z" fill="#b0cf45"/><path d="m791.967 596.553c-15.867 3.474-24.998 1.521-31.607-3.881-18.326-15.008-45.902-15.975-61.271-34.705 1.192-5.582 1.901-11.026 2.157-16.397 1.947.752 9.558 4.875 10.813 5.762 34.705 24.574 77.771 34.863 119.963 31.877.519 3.553.738 7.104.664 10.646-11.905-1.617-26.648 3.614-40.719 6.698z" fill="#b0cf45"/><path d="m806.031 571.342c-19.637-1.332-39.194-4.467-40.723-24.516-2.264-29.691 12.021-62.221-3.346-89.443 13.663 9.14 27.348 18.232 40.948 27.295 10.283 6.851 18.187 13.959 22.019 27.42 3.129 10.979 3.938 23.125 7.332 33.771 3.09 9.69 9.004 16.738 16.407 22.828-13.887 2.787-28.279 3.616-42.637 2.645z" fill="#b0cf45"/><path d="m886.782 556.459c-20.002 10.205-34.309 15.305-45.088-1.074-7.059-10.727-9.686-23.336-11.699-37.588-1.034-7.318-3.696-14.531-7.774-20.734 9.502 5.901 19.131 11.591 28.961 16.979 17.707 9.705 34.807 20.93 53.188 29.34-4.62 5.329-10.797 9.61-17.588 13.077z" fill="#b0cf45"/><path d="m912.094 528.172c-.813 4.051-2.438 7.668-4.563 10.973-13.084-5.963-25.434-13.393-37.873-20.646 8.966.885 18.07-.301 27.164-.508 15.337-.343 16.641 3.38 15.272 10.181z" fill="#b0cf45"/><path d="m879.178 515.65c-10.967.157-17.502-1.886-25.381-6.084-16.638-8.869-32.578-18.936-48.271-29.363-.953-.635-1.912-1.273-2.867-1.907 8.134 1.889 16.484 2.077 26.111.328 14.75-2.681 30.033-7.628 45.17-8.892 30.648-2.56 39.273 23.805 39.273 46.094-11.228-2.334-22.734-.342-34.035-.176z" fill="#b0cf45"/><g fill="#aaaa38"><path d="m686.903 266.135c14.168-5.19 27.67-11.685 37.9-21.255 16.057-15.017 17.936-34.116 13.188-60.008 1.861 25.194-3.307 49.759-26.846 63.943-10.549 6.354-24.404 5.644-29.084-7.448-3.314-9.277 1.307-21.064 5.006-29.488 3.937-8.959 9.66-16.888 15.551-24.672-3.674 3.049-7.262 5.99-10.657 9.08-14.345 13.06-23.404 40.453-31.314 86.029 6.404-7.871 15.832-12.368 26.256-16.181z"/><path d="m681.026 194.209c-.604 3.646-1.313 7.271-2.061 10.888 11.117-14.54 26.938-24.506 37.621-38.313 11.813-15.272 11.528-22.693 7.754-33.137-.297-.818-.603-1.668-.912-2.532.539 7.583-.51 15.147-4.246 23.072-4.5 9.538-20.568 24.482-28.932 10.789-3.404-5.577-3.945-12.337-3.75-19.244-1.826 16.091-2.796 32.399-5.474 48.477z"/><path d="m667.813 231.415c3.301-12.723 6.357-25.509 8.219-38.587.646-4.52 1.318-9.098 1.711-13.676-3.68 9.345-10.235 17.557-21.969 12.223-7.889-3.584-12.309-13.869-15.309-21.38-2.754-6.907-4.461-14.329-5.318-21.687-1.275-10.933 2.93-20.175 6.586-29.934-6.246 5.824-14.666 23.602-8.811 44.357 3.766 13.325 11.797 25.98 20.858 37.736 8.34 10.822 12.781 20.347 14.033 30.948z"/><path d="m676.413 148.952c1.384 2.847 2.562 5.55 3.466 8.262.858-8.685 1.84-17.333 3.241-25.887-6.745-.059-12.192-6.791-14.354-12.75-1.697-4.682-1.801-9.525-1.779-14.387-3.203 16.226 1.793 29.062 9.426 44.762z"/><path d="m659.129 307.978c.926 4.763 1.594 9.584 1.991 14.45 7.087-7.133 17.603-10.169 27.244-12.404 12.732-2.949 24.619-6.768 34.435-13.689 9.895-6.976 14.219-15.138 16.145-25.438-2.315 7.479-6.176 14.369-12.18 20.396-6.496 6.516-15.934 9.669-24.617 11.828-6.533 1.623-14.344 1.87-20.012-2.686-7.822-6.287-.896-16.244 3.199-21.15 7.815-9.363 21.52-15.103 31.889-23.202-13.48 8.612-33.162 11.977-46.545 21.556-12.4 8.873-13.558 20-11.549 30.339z"/><path d="m654.315 289.947c1.096-7.573 2.582-15.057 4.283-22.495 3.953-17.278 9.406-30.73 1.762-48.922-2.77-6.584-6.896-12.97-12.279-19.716-2.358-2.96-4.606-5.938-6.762-8.959.144.297.291.589.435.886 5.37 11.279 13.141 43.444-11.259 37.944-21.768-4.911-34.383-28.923-41.784-48.773-2.621 4.2-5.154 8.441-7.484 12.764 31.549 25.319 60.166 58.982 73.088 97.271z"/><path d="m691.247 323.403c1.291-6.332 7.601-10.366 12.759-13.325.405-.234.887-.459 1.336-.688-14.34 4.438-32.318 4.524-42.433 16.001 2.427 3.338 4.754 6.751 7.029 10.201 2.398-1.256 5.045-2.123 8.018-2.416 7.73-.764 11.201 9.651 11.775 15.386.293 2.923.354 5.819.275 8.698 2.399.535 4.789.898 7.168 1.16 8.559-5.964 15.551-13.803 21.244-22.771-3.755 3.702-8.482 6.063-15.015 6.503-10.497.702-13.807-10.649-12.156-18.749z"/><path d="m829.922 414.991c-28.744 8.566-55.968 30.627-84.664 24.951 31.598 21.386 54.139 36.108 74.459 34.979 12.838-.715 25.713-4.083 38.59-6.472-2.23-.015-4.437-.015-6.543.059-9.545.319-19.299.283-28.693-1.569-18.34-3.624-23.828-21.759-11.557-35.528 4.008-4.497 9.065-7.92 14.35-10.727 11.394-6.054 24.92-6.801 37.109-3.021 7.988 2.478 14.192 7.187 19.295 13.015-10.689-15.197-25.508-23.683-52.346-15.687z"/><path d="m873.942 469.732c-15.137 1.264-30.42 6.211-45.17 8.892-9.627 1.749-17.979 1.561-26.111-.328.955.634 1.914 1.272 2.867 1.907 15.691 10.429 31.633 20.494 48.271 29.363 7.879 4.198 14.414 6.241 25.381 6.084 1.551-.021 3.104-.08 4.66-.156-5.377-.814-10.746-1.553-16.048-2.973-13.006-3.478-27.213-17.879-15.084-30.911 6.201-6.669 17.828-7.704 26.31-7.683 10.408.027 19.951 4.225 27.068 11.263-5.865-9.997-15.884-16.815-32.144-15.458z"/><path d="m862.247 521.66c1.263.192 2.494.477 3.712.799-4.904-2.859-9.816-5.701-14.777-8.418-9.83-5.389-19.459-11.077-28.961-16.979 4.078 6.203 6.74 13.416 7.774 20.734 2.015 14.252 4.642 26.861 11.699 37.588 9.188 13.959 20.951 12.295 36.605 5.189-15.388.559-36.148-3.998-38.039-21.043-1.508-13.581 10.465-19.637 21.987-17.87z"/><path d="m751.354 451.824c-10.35-9.732-26.51-19.324-49.889-35.865 1.028 7.703 1.383 15.52.684 23.516-2.256 25.779 1.275 44.488 16.66 65.814 2.178 3.021 5.131 6.494 7.354 10.137 2.945 4.822 4.89 17.068-3.729 22.263 17.326-2.365 8.535-24.982.777-34.904-10.433-13.338-19.935-29.979-15.295-47.486 5.631-21.257 28.247-13.404 43.438-3.475z"/><path d="m912.5 524.879c.063-4.686-3.037-7.172-15.679-6.889-9.094.207-18.198 1.393-27.164.508 5.099 2.973 10.188 5.955 15.313 8.873.584-4.398 9.149-6.764 13-7.205 5.562-.639 11.409.77 14.53 4.713z"/><path d="m825.24 522.023c1.445 3.891 2.699 7.592 4.041 11.186-1.328-7.07-2.412-14.303-4.352-21.111-3.832-13.461-11.734-20.569-22.019-27.42-13.602-9.063-27.284-18.156-40.948-27.295 15.366 27.223 1.082 59.752 3.346 89.443 1.17 15.358 12.93 20.776 27.193 23.08-9.906-5.234-17.199-12.201-20.229-24.097-3.955-15.508-.232-32.715 13.748-41.687 17.475-11.219 33.095 1.437 39.22 17.901z"/><path d="m786.213 420.204c-8.541 3.273-17.941 6.903-27.226 5.653-10.637-1.437-10.69-14.355-8.487-22.127 1.862-6.566 6.801-11.729 11.842-16.224-19.996 10.916-39.211 24.31-62.836 17.238.301 1.357.53 2.726.791 4.093 24.666 17.54 40.926 30.687 61.465 27.763 17.65-2.515 34.979-13.088 51.139-20.403 10.726-4.857 21.926-7.947 33.193-8.275-20.256-5.194-41.277 5.144-59.881 12.282z"/><path d="m745.02 386.933c-10.611 4.825-20.063 8.99-31.965 6.692-14.318-2.762-17.781-15.013-14.221-26.467-3.207-.274-6.412-.644-9.609-1.291-.266 1.713-.598 3.414-.996 5.1.34.383.658.806.875 1.35 3.727 9.381 7 18.844 9.412 28.456 30.354 10.36 53.592-14.208 80.27-24.484-11.887-.037-23.036 5.764-33.766 10.644z"/><path d="m792.987 589.6c-12.981 2.213-21.106.771-32.002-6.553-6.18-4.154-13.867-6.318-20.859-8.57-14.12-4.557-32.771-11.485-39.506-25.909-.371 3.1-.854 6.225-1.53 9.399 15.368 18.73 42.944 19.697 61.271 34.705 6.609 5.402 15.74 7.354 31.607 3.881 14.071-3.084 28.813-8.313 40.719-6.701.014-.663-.037-1.329-.041-1.995-12.442-5.156-27.013-.412-39.659 1.743z"/><path d="m712.7 532.359c-9.646-5.865-10.102-23.576-14.022-32.806-5.486-12.926-13.57-24.563-20.599-36.68-10.344-17.837-14.256-33.425-4.729-52.714 3.363-6.813 6.459-13.397 7.699-20.661-8.207 14.814-24.652 31.954-19.177 50.164 6.972 23.179 24.925 41.708 33.363 64.465 3.436 9.264 5.418 18.295 5.998 27.41 4.867 1.248 8.621 1.393 11.467.822z"/><path d="m831.073 598.676c-.791-4.543-4.748-6.354-13.502-4.916-15.485 2.547-33.184 9.603-47.846 7.688 13.043 13.555 22.404 30.09 29.125 47.778.086-14.737-15.172-29.395-2.791-41.774 8.4-8.403 24.834-15.077 35.014-8.776z"/><path d="m568.67 323.498c2.618 2.752 5.164 5.576 7.586 8.518 3.42 4.156 6.635 8.491 9.771 12.898-1.43-6.265-1.801-12.678-.77-19.441 1.495-9.782 5.2-19.771 7.403-29.741-5.059 11.585-20.477 19.869-28.334 6.152-4.293-7.493-4.071-17-3.783-25.307.259-7.515-1.018-12.683-4.073-18.457.762 4.038.694 8.495.057 13.325-1.067 8.051-3.74 15.921-4.301 24.039-.794 11.598 8.337 19.514 16.444 28.014z"/><path d="m532.875 371.229c8.473 1.407 17.075 1.749 25.811 1.483 13.051-.399 28.963-3.444 41.299 2.182-4.729-8.181-9.646-16.253-14.936-23.903-9.498-13.739-19.592-24.754-32.779-27.155-16.314-2.959-34.008.526-48.305-9.674-.053-.036-.094-.076-.143-.112 6.863 8.945 18.413 11.203 28.962 15.025 9.82 3.558 21.127 9.746 22.257 21.309 1.153 11.809-12.185 17.691-22.166 20.845z"/><path d="m567.406 421.252c7.479 2.828 15.767 1.286 23.633.004 2.482-.408 4.847-1.039 7.361-1.362 6.883-.882 8.221 7.21 5.928 12.376 6.781-3.381 13.285-7.127 18.769-12.421-15.071-9.4-38.071.647-55.691 1.403z"/><path d="m510.794 271.824c2.779 5.355 6.015 10.447 8.654 15.879 5.902 12.148 1.162 26.719-14.97 22.905 3.333 2.218 7.039 3.913 11.145 4.759 10.127 2.082 19.829 1.723 29.967 2.904 5.067.59 9.51 1.539 13.672 3.022-22.133-20.287-40.146-42.554-53.055-69.632-1.688 6.751 1.334 13.902 4.587 20.163z"/><path d="m613.401 398.607c-7.385-13.021-9.356-21.924-26.406-23.562-11.494-1.107-24.623 1.362-34.555 1.195-11.932-.197-24.408-.813-35.596-5.469-.883-.368-1.676-.756-2.502-1.133 18.676 15.758 43.33 10.451 66.426 15.376 5.441 1.161 10.658 3.104 15.43 5.973 11.058 6.647 4.355 17.112-3.721 21.327-2.387 1.245-4.936 2.189-7.559 2.968 4.28-.508 8.702-1.088 13.313-1.568 8.752-.918 18.021-1.251 25.703 2.787-3.574-5.755-7.057-11.764-10.533-17.894z"/><path d="m810.641 347.567c-9.334.297-18.525-2.45-26.633-6.872-7.625-4.155-9.949-10.784-10.191-18.052-.324 1.062-.645 2.136-.951 3.301-3.25 12.413-6.223 25.531-14.311 32.768 4.004.396 7.992.896 11.963 1.521 11.256 1.794 10.379 1.021 21.811-2.268 5.14-1.479 10.494-2.262 16.125-2.685 12.086-.899 26.609.032 36.138-8.653-.523-8.176-2.068-15.916-5.326-22.535-.229 4.245-1.369 8.509-3.236 12.642-4.205 9.295-16.614 10.55-25.389 10.833z"/><path d="m533.135 717.316c-2.138 6.668-1.363 12.137.776 16.489-.155-6.102 1.607-12.016 6.609-17.565 6.379-7.082 10.977-.646 13.297 5.752.592-14.283 1.881-28.474 3.789-42.584-7.94 12.744-20.201 24.582-24.471 37.908z"/><path d="m610.49 629.271c3.869.674 7.447 2.338 10.742 4.547-12.729-14.045-27.594-27.521-31.481-45.767-3.681 3.904-7.689 7.326-11.979 10.295-1.803 8.681-3.604 17.353-5.35 26.019-.734 14.629-.613 28.922 6.516 42.396 4.955 9.367 10.551 18.357 15.191 27.896 3.704 7.612 5.747 16.078 5.68 24.461 7.611-19.849-6.719-38.965-13.724-57.826-6.85-18.452 4.523-35.507 24.405-32.021z"/><path d="m538.047 751.441c.096.166.389.049.313-.132-.104-.256-.205-.512-.311-.764-.224-.141-.441-.283-.662-.424.223.44.426.902.66 1.32z"/><path d="m824.907 376.715c-1.102-3.553-1.606-7.039.556-11.859 1.901-4.241 7.073-6.891 10.881-9.175.158-.095.301-.188.459-.283-14.863 5.788-33.984 2.729-49.4 8.307 12.89 3.139 25.525 7.361 37.504 13.01z"/><path d="m630.448 623.258c-7.594-11.565-15.516-22.391-16.914-36.617-1.44-14.646 9.607-35.694 24.922-35.979-4.577-3.437-8.811-6.885-12.08-10.506-8.741-9.683-17.196-21.313-19.271-34.238-.998 2.34-1.992 4.678-2.998 7.016 5.711 20.767 6.914 43.027-4.104 61.562-2.23 3.75-4.689 7.205-7.354 10.375 4.385 32.215 42.938 48.932 50.416 78.752 2.842-14.33-4.652-28.23-12.617-40.365z"/><path d="m621.247 355.951c-19.577 6.412-18.352-25.02-17.213-35.836 1.613-15.33 2.22-30.646-6.442-43.326 2.297 17.004-5.707 34.342-7.789 51.993-1.955 16.577 7.334 32.687 11.77 39.995 4.902 8.076 9.638 16.275 14.392 24.425-.25-14.846 8.979-29.341 16.645-44.061-3.227 3.023-7.037 5.393-11.363 6.81z"/><path d="m517.12 633.598c9.826-9.83 22.306-15.719 33.722-23.034-16.113 4.291-33.808 4.672-51.248 2.081-.022.068-.005.121-.029.189-1.417 3.857-2.303 8.494-2.793 13.59 4.552-5.994 11.239-9.889 17.76-4.838 4.08 3.16 3.396 8.539 1.619 13.055.328-.342.637-.711.969-1.043z"/><path d="m534.225 623.785c-9.742 6.76-18.959 15.83-25.207 26.408-7.841 13.262-6.694 26.358-2.968 38.385-1.47-9.781-.781-19.545 4.396-28.729 5.854-10.391 22.028-28.379 34.782-18.17 6.869 5.496 8.34 17.787 8.797 25.884.312 5.477-.723 11.071-2.721 16.303 3.076-4.453 5.811-8.986 7.629-13.724 3.428-22.707 8.055-45.297 12.768-67.993-3.248 1.834-6.614 3.444-10.094 4.844-8.579 6.417-18.425 10.575-27.382 16.792z"/><path d="m569.1 641.432c-4.881 25.925-8.783 51.904-10.055 78.224 1-6.226 2.559-12.342 5.278-18.431 2.537-5.68 6.441-11.01 12.498-13.133 4.246-1.487 7.881-.215 10.857 2.371-3.881-7.412-8.295-14.688-11.726-21.961-4.305-9.139-6.184-17.949-6.852-27.07z"/><path d="m616.795 269.035c-4.298-2.995-7.996-6.76-12.189-9.885-8.453-6.306-18.994-8.725-29.43-9.058.5.247 1.035.499 1.516.741 28.721 14.441 53.568 34.842 74.127 59.158-3.106-16.446-7.713-30.905-13.619-42.297-2.176 8.285-13.239 6.342-20.405 1.341z"/><path d="m768.319 325.518c.348-1.336.725-2.627 1.104-3.927-1.923 3.67-3.746 7.398-5.793 10.987-6.703 11.742-15.687 15.215-28.531 15.763-6.344.271-12.215.832-17.56 2.636-2.325 2.775-4.776 5.441-7.428 7.902 9.76-.262 19.5-1.471 29.51-1.273 9.22.18 18.275-.904 22.479-10.366 3.135-7.044 4.598-15.485 6.219-21.722z"/><path d="m651.28 536.334c-11.871-11.207-23.012-21.664-28.141-37.715-2.898-9.07-3.191-18.488-2.281-27.879-3.252 9.58-6.953 18.961-10.848 28.271-2.728 40.473 55.6 54.161 69.721 85.014-.783-19.664-13.955-34.002-28.451-47.691z"/><path d="m525.817 270.951c-1.727-2.299-3.016-5.015-4.383-7.533-2.576-4.754-5.953-12.377-11.271-15.241 7.729 16.716 17.325 32.839 29.682 46.534 2.979 3.301 6.088 6.467 9.248 9.584-.316-1.049-.535-2.101-.529-3.148.023-5.087.645-10.057 1.643-15.044 1.425-7.101 3.468-14.846 3.398-21.946-.014-1.219-.166-2.434-.418-3.625-1.07 4.865-3.49 9.764-5.707 13.384-7.835 12.775-17.157 3.043-21.663-2.965z"/><path d="m673.985 502.555c-13.395-22.186-27.578-41.853-23.842-67.847-7.172 14.014-5.418 28.464-2.469 36.667 5.545 15.421 17.604 29.246 26.715 42.836 6.902 10.299 12.34 21.318 15.527 32.957 2.356-15.758-8.185-31.783-15.931-44.613z"/><path d="m621.906 432.639c-1.41.973-2.867 1.845-4.332 2.703-1.805 7.029-6.059 12.656-11.996 18.021-6.334 5.729-16.254 10.36-24.635 7.438 1.851 3.09 3.724 6.176 5.433 9.332 9.459.015 17.396-3.983 23.918-9.926 4.815-4.389 12.334-12.029 16.645-31.646-1.589 1.457-3.245 2.841-5.033 4.078z"/><path d="m613.327 472.449c-5.944 6.549-15.332 10.969-22.635 6.242.75 1.476 1.543 2.94 2.236 4.435 3.194 6.858 6.293 14.333 8.869 22.118 4.998-11.726 9.75-23.463 13.713-35.512-.681.914-1.367 1.823-2.183 2.717z"/><path d="m630.215 411.102c2.078-3.373 3.869-6.821 5.539-10.304-18.246-3.004-5.088-33.712-.668-44.069 3.643-8.531 7.37-17.188 8.616-26.277-5.202 17.238-18.088 34.04-22.664 50.59-3.905 14.131 1.197 22.842 4.925 28.896.795 1.286 1.592 2.567 2.393 3.846.633-.875 1.275-1.733 1.859-2.682z"/><path d="m384.16 836.396c.183-.203.321-.425.511-.625 3.301-3.509 15.823-12.035 17.475 2.348.313 2.734-.271 5.688-.561 8.4-.796 7.506-.903 15.938 1.771 23.215 3.085-21.017 2.989-42.275 3.8-63.457-5.923 10.987-15.635 19.914-22.996 30.119z"/><path d="m498.47 839.477c.133-14.868 3.127-27.94 9.629-40.911-6.279-.953-12.546-2.037-18.793-3.263-1.06 4.219-2.256 8.479-3.577 12.729.292 1.401.609 2.807.919 4.182 2.979 13.246 5.35 25.293 5.078 38.992-.271 13.555-2.391 27.682-11.32 38.34-9.602 11.469-26.065 11.127-39.293 6.633 4.935 4.832 10.623 8.029 16.849 9.851 22.735 6.666 36.592-.685 40.377-20.025 2.895-14.81-.002-31.755.131-46.528z"/><path d="m343.619 804.254c7.894-19.164 26.805-33.631 43.367-46.049-8.481-4.979-16.66-10.438-24.471-16.428-.926.901-1.941 1.727-3.118 2.348-8.181 4.307-13.13 2.535-18.005-1.908-4.846 3.086-9.084 6.715-12.813 10.813-5.137 5.635-7.073 11.926-6.62 18.996 1.93-5.312 5.303-9.927 10.451-13.582 5.405-3.847 11.954-3.252 17.768-.729 11.235 4.879 6.744 15.291 3.275 22.344-3.881 7.9-8.287 15.748-9.834 24.195z"/><path d="m410.281 770.379c-6.847-3.166-13.544-6.592-20.076-10.299-13.137 9.85-28.532 21.291-38.019 35.494-2.131 3.188-3.582 6.242-4.547 9.201 3.166-6.918 8.303-12.746 14.936-18.578 12.525-11.015 41.642-16.813 36.951 9.713-3.432 19.397-26.541 31.096-25.365 51.225 4.65-10.959 13.435-19.688 21.043-28.987 15.506-18.959 11.522-25.121 15.077-47.769z"/><path d="m299.784 727.574c-10.281 14.635-16.637 33.928-32.472 43.574-4.756 2.896-9.776 5.071-14.967 6.69 8.246-1.164 15.873-3.719 22.909-8.473 11.351-7.658 18.507-14.136 31.342-12.115-2.81-9.689-5.094-19.594-6.812-29.676z"/><path d="m719.645 805.756c-1.059-5.223-1.82-10.488-2.479-15.768-2.244 6.565-5.923 12.754-10.496 19.055-6.646 9.152-16.531 18.57-22.25 29.143-4.072 7.529-3.521 15.25-.002 22.263-1.976-10.875 1.748-21.709 10.348-30.693 4.637-4.85 17.16-13.182 23.379-4.317 3.119 4.446 3.205 11.616 3.553 16.713.914 13.375 2.359 26.731 10.978 37.121-5.715-24.25-8.029-48.877-13.031-73.517z"/><path d="m726.944 814.48c4.746 21.194 6.185 42.459 10.832 63.497.836-4.276.582-8.692.264-13.153-.319-4.443-.67-8.797.08-13.228.732-4.317 3.91-8.379 9.369-6.018 1.205.524 2.271 1.426 3.26 2.399-7.327-11.407-17.819-21.741-23.805-33.497z"/><path d="m758.875 758.439c-6.378-4.765-13.068-9.197-19.617-13.929-11.742-8.481-20.383-17.078-26.476-27.924.529 2.531 1.06 5.068 1.564 7.627 4.504 22.797 4.928 46.084 8.414 68.988 5.082 16.785 14.912 30.43 26.102 46.156 1.041 1.461 2.037 2.924 3.002 4.385-2.063-7.875-7.209-14.525-11.42-21.633-7.467-12.597-11.701-26.099-12.896-40.638-.539-6.565.332-12.971 3.33-18.871 5.769-11.352 18.994-8.541 27.997-4.161z"/><path d="m749.616 731.316c-8.073-5.357-15.93-10.992-21.426-19.115-4.104-6.062-5.785-16.576 3.111-19.873 3.694-1.371 8.682-.543 12.401.041 5.879.932 11.748 2.77 17.478 4.547-8.558-4.336-17.222-8.469-25.316-13.641-16.022-10.228-27.239-21.849-34.584-37.504.045.752.123 1.502.158 2.258.758 16.002 3.486 31.172 6.644 46.362 4.95 20.912 15.079 34.732 32.918 47.138 12.12 8.424 26.807 16.545 36.35 28.104 6.147 7.447 10.25 15.326 12.623 23.529 2.707-8.881-3.144-20.31-6.832-28.045-6.98-14.615-20.365-25.072-33.525-33.801z"/><path d="m255.151 773.416c1.664-.617 3.309-1.287 4.913-2.074 5.679-2.783 10.806-6.569 14.994-11.676 9.375-11.414 14.965-25.076 23.926-36.752-.502-3.277-.918-6.578-1.305-9.889-11.504.625-22.752 4.239-34.174 5.766-11.484 1.533-23.695 3.391-35.156 11.559-8.281 5.904-15.313 13.4-22.563 22.377-2.109 2.613-4.146 4.826-6.232 6.726 16.842-7.074 30.459-25.42 47.261-31.869 9.997-3.84 30.811-7.203 32.257 8.068 1.412 14.875-11.555 29.065-23.921 37.764z"/><path d="m470.735 792.389c.735-.297 1.502-.498 2.282-.655-5.433-1.291-10.848-2.646-16.209-4.179 2.456 3.908 5.755 7.24 8.733 10.771.148-.746.319-1.484.671-2.213.885-1.836 2.702-2.99 4.523-3.724z"/><path d="m166.23 709.072c3.713 1.129 6.767 3.746 8.885 6.922 2.087 3.129 1.537 5.738-.146 7.82 4.256-.632 8.512-1.277 12.766-1.935 14.875-2.295 15.765-.967 3.847-6.301-4.629-2.074-9.063-4.533-13.531-6.846-11.344-5.865-16.534-10.371-22.778.112-.019.027-.028.06-.048.084 3.446-1.043 7.184-1.016 11.005.144z"/><path d="m417.732 844.67c-.729-5.836-1.768-12.02-.338-17.822 2.217-8.994 13.994 2.672 16.229 4.947.771.787 1.459 1.629 2.138 2.473-7.338-12.965-17.979-25.063-22.979-39.1-1.646 25.572-.724 51.359-4.56 76.779 8.682-6.246 10.827-16.765 9.51-27.277z"/><path d="m691.44 658.045c7.178-13.227 3.865-31.35-4.016-58.816-2.795 8.169-5.902 16.255-9.281 24.22 20.594 16.596.459 42.783-14.484 56.396-10.362 9.439-20.176 18.615-24.502 31.449 4.277-6.395 9.879-12.08 16.406-17.342 11.016-8.878 27.922-21.245 35.877-35.907z"/><path d="m709.35 725.59c-1.756-7.578-3.502-15.088-5.146-22.594-.346 18.156-3.594 35.91-14.903 51.229-2.029 2.748-4.402 5.582-6.931 8.479 3.002-2.51 6.193-4.795 9.777-6.629 11.57-5.92 16.203 5.783 15.967 15.699-.244 10.239-5.875 20.135-11.276 28.495-7.041 10.894-14.261 21.431-18.189 33.904-1.121 3.566-1.348 7.016-1.006 10.389 4.512-15.547 19.336-28.858 29.211-43.705 10.662-16.037 10.012-42.841 2.496-75.267z"/><path d="m654.702 792.164c3.953-6.543 8.855-12.637 13.617-18.033 12.474-14.131 25.965-28.621 30.015-47.717 3.086-14.559 5.649-42.98-1.546-70.172-6.524 16.5-24.293 28.455-39.282 41.766 4.475-3.67 9.313-6.971 14.582-9.893 10.452-5.803 21.646-6.172 23.262 8 .826 7.223-.566 14.783-2.012 21.834-5.808 28.324-31.83 46.485-38.636 74.215z"/><path d="m202.681 750.285c3.941-4.865 7.708-10.244 12.959-15.074 6.327-5.824 13.172-10.389 20.603-13.934-3.368.262-6.741.534-10.114.873-10.888 1.08-21.706 2.645-32.52 4.258 4.244 1.156 7.992 4.008 8.338 8.748.312 4.246-3.739 8.137-6.521 10.799-11.1 10.613-25.313 11.188-37.896 4.354 3.539 3.306 8.051 6.322 13.563 9.062 11.068 5.49 21.83 2.967 31.588-9.086z"/><path d="m284.786 709.584c4.061-.809 8.147-1.42 12.34-1.682-.304-3.084-.601-6.181-.808-9.291-.008-.117.043-.193.043-.302-1.132-.883-2.289-1.723-3.434-2.582.092.212.23.4.313.615 2.573 6.892-8.767 7.188-11.884 7.156-15.26-.172-30.004-10.322-41.168-19.68-11.685-9.791-25.507-14.072-39.697-13.367 6.318 1.174 12.476 3.836 17.785 7.487 21.325 14.646 39.663 33.005 66.51 31.646z"/><path d="m435.416 816c-4.033-5.807-8.219-12.008-8.92-19.23-1.426-14.651 19.813-9.291 25.718-5.903 1.969 1.129 3.77 2.555 5.516 4.061-2.207-2.748-4.144-5.582-5.621-8.797-12.623-3.795-24.992-8.279-36.961-13.545-.58 3.805-1.063 7.613-1.451 11.432 2.226 22.712 21.638 38.966 29.685 59.056 3.604-10.043-2.101-18.636-7.966-27.074z"/><path d="m339.986 723.256c-3.393-3.057-6.344-6.682-9.424-10.047-7.115-7.762-15.239-14.725-23.402-21.354-6.219-5.05-12.854-9.562-19.667-13.757-5.791-3.565-11.27-8.137-17.021-11.879 12.291 10.679 20.81 18.306 23.931 20.433 7.582 5.168 14.949 11.041 22.291 17.791 6.27 5.771 12.473 11.635 18.221 17.932 3.388 3.705 14.666 21.906 21.597 13.016.913-1.17.694-2.969-.271-5.157-4.788 2.229-14.6-5.484-16.255-6.978z"/><path d="m735.637 670.143c-8.308-5.418-15.691-12.024-20.933-20.498-8.813-14.247.517-26.26 15.107-28.153 9.566-1.236 19.316.944 28.5 4.781-9.578-4.808-19.742-8.4-29.789-12.558-14.631-6.045-28.916-14.998-36.461-28.963-.596 1.998-1.141 3.998-1.771 5.99 4.294 13.762 7.843 27.897 9.763 42.229 5.752 18.562 15.649 33.345 32.578 44.146 13.205 8.428 27.877 14.131 41.092 22.399 9.541 5.974 16.848 12.277 22.291 19.47-5.649-27.162-40.031-35.576-60.377-48.843z"/><path d="m328.462 728.158c-7.216-7.771-14.843-15.285-22.896-22.267 1.217 13.224 3.443 26.392 6.57 39.339.666-3.603 1.908-7.017 4.584-10.316 3.153-3.881 7.294-5.631 11.742-6.756z"/><path d="m766.721 626.623c6.149 4.025 11.354 8.666 15.963 13.734.145-.035.262-.193.129-.32-.162-.156-.352-.291-.516-.445-5.617-27.137-88.945-33.311-77.691-65.287-2.828-1.844-5.502-3.897-7.955-6.246-.979 3.898-2.002 7.785-3.106 11.681 12.321 29.717 49.116 31.147 73.176 46.883z"/><path d="m222.564 717.307c1.189-.106 2.371-.248 3.563-.338 15.236-1.174 30.693-1.653 45.734-4.641-9.086-1.287-17.988-4.269-25.344-9.06-7.86-5.116-16.619-13.266-25.977-19.836-9.881-6.938-17.999-9.791-25.381-9.282 8.406.741 16.291 3.791 21.776 11.207 5.158 6.975 2.045 15.143-4.297 19.766-7.613 5.555-19.574 3.68-27.988 1.92-1.994-.418-3.959-1.039-5.914-1.723.965.504 1.921.993 2.9 1.521 13.396 7.214 25.799 10.223 40.928 10.466z"/><path d="m313.15 484.493c-10.086 1.228-20.179 1.683-30.238 1.376 5.067 5.514 10.13 11 15.191 16.475.207.095.406.242.589.473 10.587 13.285 29.505 15.313 45.364 14.484 8.623-.449 17.535-2.311 25.773-.756-6.056-8.193-22.424-5.41-30.938-5.139-12.391.395-26.273-.604-34.271-11.349-5.065-6.803 1.303-11.975 8.53-15.564z"/><path d="m267.37 514.063c.092-10.096-1.446-20.004-5.187-29.825-5.572-.701-11.117-1.683-16.646-2.783 11.994 7.283 19.574 18.747 21.833 32.608z"/><path d="m342.554 552.705c10.998 10.051 27.465 15.016 41.983 15.52 6.673.229 12.972-.418 19.211-.44-6.25-3.863-13.938-4.191-21.084-5.482-8.309-1.502-16.946-4.934-24.546-8.448-11.062-5.113-24.456-19.101-10.673-29.685 3.939-3.021 9.247-4.506 14.554-5.207-12.31-.485-26.441 3.045-37.23.984-5.01-.953-9.904-2.275-14.443-4.25 7.531 8.285 14.986 16.653 22.206 25.324 3.283 3.944 6.649 7.815 10.022 11.684z"/><path d="m276.294 514.207c7.39-8.486 14.408-.279 17.747 6.059 5.314 10.101 7.361 23.295 8.163 34.359.342 4.74.147 9.533-.314 14.359 4.793-20.49 8.236-42.648-4.653-60.386-7.24-7.659-14.542-15.272-21.688-23.081-3.18-.207-6.354-.48-9.525-.822 4.479 12.436 5.496 25.037 4.286 37.957 1.928-2.855 3.687-5.804 5.984-8.445z"/><path d="m633.094 796.275c-4.979 2.819-10.783 4.774-17.013 6.039 2.148 6.62 4.435 14.01 5.183 21.25 1.248-4.679 1.127-9.927 3.242-14.318 2.336-4.863 6.606-5.479 11.061-5.434-.877-2.499-1.703-5.019-2.473-7.537z"/><path d="m475.423 627.293c-18.531-2.104-38.164 3.121-55.836-1.133 10.26 8.252 20.643 16.359 30.959 24.576 11.873 9.455 19.971 22.088 29.858 33.123-.11-.261-.196-.521-.322-.781-3.26-6.822-6.514-13.603-9.125-20.707-3.495-9.498-5.676-28.35 4.466-35.078z"/><path d="m618.041 824.254c-.705-7.291-3.23-14.852-5.384-21.35-15.715 2.576-33.102 1.588-44.537 1.17-4.879 16.059.882 30.141 4.24 45.449.797-4.488.267-8.877-.104-13.548-.826-10.473 5.688-17.188 14.737-20.776 5.414-2.148 11.513-2.418 17.211-1.562 7.888 1.188 12.255 5.438 13.896 12.328-.016-.57-.002-1.127-.059-1.711z"/><path d="m563.975 831.201c-1.537-9.533-2.043-18.209.576-27.295-17.383-.715-35.115-2.226-52.835-4.771-12.144 24.111-7.337 46.185-8.693 72.412-.539 10.457-1.601 19.883-5.771 28.113 16.748-12.148 12.504-34.974 12.806-53.738.323-20.365 14.871-37.424 36.387-30.82 10.428 3.201 15.058 11.621 18.588 20.795-.443-1.655-.824-3.247-1.058-4.696z"/><path d="m363.111 582.525c-13.389-13.541-26.209-27.648-38.074-42.543-5.965-7.498-12.309-14.604-18.748-21.615 3.675 9.93 4.199 20.772 2.591 31.953-1.623 11.307-4.376 22.278-7.005 33.375-2.878 12.156-3.704 22.647-2.137 33.555.943 3.563 1.897 7.123 2.869 10.686.112-13.981 2.08-27.721 8.68-40.516 4.97-9.635 14.964-19.078 26.534-17.186 8.486 1.391 14.886 9.836 19.282 16.471 8.538 12.896 13 28.121 13.418 43.475.465 17.027-1.902 35.205 6.71 50.375-3.38-10.088-4.403-20.782-3.63-32.457 1.653-24.948 4.086-45.491-10.49-65.573z"/><path d="m449.511 726.652c10.367 6.004 13.977 19.846 17.554 30.315 1.622 4.744 3.739 8.58 6.354 12.125-8.182-17.733-6.312-37.307-13.3-55.139-16.949 1.588-35.026-1.34-51.529-5.101 1.485 10.175-1.907 19.33-1.79 29.908.086 7.564 2.401 13.023 5.953 17.478-3.07-8.072-3.447-16.183 1.428-24.461 7.375-12.533 24.394-11.453 35.33-5.125z"/><path d="m396.031 606.523c14.788 12.817 24.718 18.563 42.194 18.418 13.197-.109 26.9-2.357 39.973-.617-16.42-7.123-35.476-6.607-52.764-10.402-10.521-2.307-19.92-7.033-28.295-13.707-3.687-2.938-6.741-6.391-9.271-10.367-6.346-9.975 2.142-16.118 10.521-19.252-11.752-.108-23.851.976-35.308-2.92-3.914-1.33-7.665-2.797-11.205-4.561 11.103 12.18 22.642 23.957 34.802 35.088 3.08 2.82 6.201 5.586 9.353 8.32z"/><path d="m557.913 769.025c7.806-9.547 23.832.842 31.078 5.393 9.06 5.686 18.273 12.947 28.851 15.449-5.814-3.379-10.953-8.228-15.056-13.183-7.039-8.506-14.368-17.319-16.565-28.161-6.547 4.586-13.758 8.018-21.648 8.7-11.461.994-21.475-2.752-30.104-9.094 3.674 10.916 4.586 22.904 12.996 31.611 3.534 3.662 7.389 6.772 11.5 9.317-4.259-6.077-6.504-13.358-1.052-20.032z"/><path d="m625.569 733.516c-3.225-5.274-6.553-10.129-9.43-14.192-4.119 4.771-8.318 9.453-12.676 13.918-4.248 4.354-8.961 8.914-14.099 12.912 1.515 10.848 8.879 19.989 15.863 28.086 4.119 4.771 9.106 9.854 14.871 13.108-4.074-7.774-10.052-14.188-12.383-23.053-3.64-13.834 4.547-27.633 17.854-30.779z"/><path d="m491.58 720.055c9.231-1.151 16.751 8.142 21.491 14.688 7.808 10.781 12.131 23.692 19.144 34.967 3.569 5.744 8.225 9.479 13.256 12.781-9.84-11.791-9.705-25.836-16.656-39.104-11.377-10.541-20.001-25.33-25.989-38.322-1.155-2.51-2.271-5.086-3.36-7.686-10.23 9.643-22.625 14.459-35.884 16.217 4.351 12.301 3.853 24.529 7.027 37.41 1.09 4.424 2.489 8.566 4.211 12.389-2.356-7.909-2.688-16.489-1.128-24.5 1.87-9.598 7.62-17.559 17.888-18.84z"/><path d="m441.82 650.4c-6.59-5.183-13.178-10.363-19.744-15.574 9.894 20.912 4.304 48.764 18.912 66.039-3.981-11.797-9.83-37.496 7.787-32.851 9.01 2.375 16.729 8.648 23.939 15.322-9.91-11.215-18.761-23.393-30.894-32.936z"/><path d="m397.822 628.152c9.209-.986 15.451 11.836 18.318 18.645 4.875 11.59 4.356 24.75 8.256 36.662 1.939 5.928 5.797 10.188 10.117 14.127-6.226-11-6.988-24.582-8.902-37.818-3.197-22.161-11.228-30.86-24.551-42.045-7.687-6.453-15.221-13.084-22.498-20.014-1.713-1.633-3.377-3.314-5.075-4.965 4.626 9.479 7.065 19.869 5.835 30.744-1.252 11.076-2.433 21.955-2.193 32.516.427-4.025 1.383-8.158 3.281-12.611 3.095-7.25 9.058-14.346 17.412-15.241z"/><path d="m239.876 661.072c11.389 3.563 21.857 7.604 31.76 12.416-3.648-4.002-7.207-8.131-10.754-12.299-11.188-5.945-24.789-6.328-39.055-6.806 5.771 2.467 11.756 4.724 18.049 6.689z"/><path d="m390.796 728.852c3.278 6.826 5.551 13.986 9.836 20.287 2.213 3.256 5.186 5.738 8.256 8.109-1.334-1.795-2.553-3.771-3.607-6.01-6.285-13.349 2.201-29.062-.369-43.236-.446-.107-.909-.207-1.354-.314-30.492-7.317-60.631-18.991-85.549-38.155 6.751 12.366 15.418 22.651 24.851 32.436 21.462-4.59 38.38 6.976 47.936 26.883z"/><path d="m583.641 522.383c-3.023 5.416-6.826 10.322-10.394 14.027-2.112 2.092-4.456 3.877-7.022 5.352-14.064 8.888-21.273-7.42-22.127-17.283-.826-9.604 3.854-19.793 7.135-28.565 5.459-14.576 13.018-39.797 4.264-55.169 2.699 11.685 1.787 23.782-2.014 36.365-7.57 25.055-22.039 51.732-9.533 77.285 10.045 6.681 20.771 13.146 31.472 17.631-2.726-8.571-1.55-17.563 1.209-26.35 2.535-8.078 5.059-15.688 7.01-23.293z"/><path d="m552.502 456.367c-.67 3.769-1.527 7.275-2.144 9.84-1.793 7.447-5.004 14.859-8.254 21.744-3.658 7.754-8.539 15.143-15.666 20.082-13.424 9.295-24.689-4.806-28.44-16.529-6.443-20.146 10.22-38.951 16.682-57.003 4.346-12.147 3.024-25.158-3.669-35.759 2.616 9.908 1.577 21.435-1.277 30.344-8.451 26.363-34.311 49.688-20.559 78.65 10.325 11.895 20.979 23.366 34.476 32.686 4.688 3.238 9.727 6.801 14.998 10.402-10.051-27.623 6.861-55.07 12.518-82.666.853-4.168 1.253-8.072 1.335-11.791z"/><path d="m506.99 424.984c2.277-7.875 2.67-14.463 1.521-20.08-.489 12.578-7.426 27.424-12.214 36.541-3.405 6.483-8.087 12.219-13.447 17.17-4.108 3.791-9.764 6.61-15.322 7.25-11.148 1.286-13.011-13.941-13.353-20.777-.537-10.734 4.428-21.92 8.696-31.459 2.33-5.208 5.682-11.193 5.806-17.036.188-8.937-3.35-15.322-8.855-20.872 9.777 24.853-27.924 50.459-19.222 77.912 7.825 9.484 16.341 18.466 25.229 27.707 5.976 6.211 11.517 12.652 17.017 19.064-3.599-14.589 1.215-28.072 9.218-42.418 4.782-8.581 11.359-20.679 14.926-33.002z"/><path d="m513.735 597.512c7.318-4.93 13.734-10.938 20.99-15.926 8.981-6.184 17.836-9.498 27.697-9.836-11.226-5.838-22.195-13.158-32.013-20.111-14.633-5.379-32.072 5.693-45.215 10.511-10.492 3.846-21.495 7.84-32.749 8.606-3.887.266-7.549.207-11.065-.09 13.94 6.777 34.143-2.424 46.985-7.223 13.062-4.884 28.204-7.496 40.059 1.942 10.864 8.654-3.535 23.465-14.689 32.127z"/><path d="m517.563 599.094c20.641-9.215 41.885-25.967 62.719-13.797 1.363-1.225 2.683-2.5 3.924-3.867.188-.207.336-.424.519-.631-4.717-1.285-9.5-3.072-14.283-5.192-22.885-2.871-35.883 12.18-52.879 23.487z"/><path d="m455.046 375.127c2.647 7.979-1.359 17.076-5.32 24.133-2.26 4.025-5.33 7.906-8.313 11.379-7.437 8.666-17.354 2.086-23.443-4.479-11.316-12.201-19.546-26.521-28.258-40.538 9.02 18.205 18.964 35.713 28.172 53.954 5.222 10.344 11.369 19.55 18.105 28.257-1.167-17.891 14.162-35.322 19.827-51.8 3.201-9.312 2.41-16.242-.77-20.906z"/><path d="m485.632 555.488c-2.594 2.446-5.531 4.35-8.662 5.918 2.42-.795 4.851-1.638 7.309-2.586 12.332-4.754 26.035-12.834 39.319-12.07-.859-.625-1.725-1.25-2.563-1.857-15.474-11.252-27.195-24.771-39.267-38.522-15.115-8.092-33.074 4.52-47.249 8.651-9.577 2.794-20.081 5.429-30.147 3.634-2.881-.513-5.688-1.259-8.436-2.142 18.756 10.427 45.779 1.521 64.955-.11 11.994-1.021 23.518 2.137 30.931 12.039 6.847 9.147.781 20.461-6.19 27.045z"/><path d="m591.139 572.209c-17.449-17.131 7.996-48.131-.365-70.419-.059 8.495-1.238 16.919-4.104 25.212-4.945 14.32-13.675 31.635-6.938 46.719 2.889 1.058 5.766 1.943 8.619 2.635 1.003-1.358 1.925-2.743 2.788-4.147z"/><path d="m383.851 444.741c15.635 10.146 39.574 12.357 56.453 17.198-9.226-10.422-17.652-21.443-24.062-34.141-6.998-13.859-14.364-27.361-21.521-40.997 2.683 7.438 5.421 14.854 8.136 22.252 3.555 9.696 7.666 19.889-.316 29.152-7.915 9.184-19.09 1.713-24.746-3.859-1.241-1.223-2.227-2.635-3.105-4.114.903 6.037 3.622 10.916 9.161 14.509z"/><path d="m408.316 463.509c10.859 3.211 26.427 7.038 31.053 18.704 4.121 10.395-7.34 20.312-15.021 24.627-7.236 4.07-15.471 6.805-23.742 7.035 1.683.355 3.396.633 5.178.75 13.115.869 27.325-2.455 38.998-6.908 10.883-4.153 21.435-9.3 32.023-6.957-3.441-3.872-6.935-7.744-10.609-11.565-7.117-7.398-14.354-14.645-21.268-22.123-19.734-7.39-53.988-8.726-70.642-26.039 1.815 3.967 4.287 7.637 7.634 10.803 6.97 6.596 17.472 9.037 26.396 11.673z"/><path d="m335.207 451.752c-2.657 4.437-5.584 8.438-8.772 12.099 20.217-10.209 19.436-41.689 39.204-50.429.808-2.622 1.628-5.244 2.456-7.87-1.699-.657-3.393-1.321-5.107-1.938-13.854 1.363-21.689 37.966-27.781 48.138z"/><path d="m323.148 379.684c12.73 9.983 30.584 14.76 46.476 20.935 2.249-7.358 4.296-14.756 5.434-22.217-20.891-17.432-17.033-46.241-22.289-71.13-2.374-11.248-8.383-19.168-19.096-24.231 11.833 10.618 14.125 26.764 16.454 42.878 1.757 12.124 7.644 26.426 2.31 38.371-4.961 11.1-21.153 9.377-29.633 4.695-9.881-5.461-15.24-19.069-20.102-28.652-4.865-9.589-10.257-18.705-16.541-27.435-8.314-11.554-18.285-22.005-31.479-27.033 8.859 6.449 16.541 14.891 22.414 23.584 11.109 16.433 18.844 34.665 29.334 51.437 5.142 8.223 10.534 13.944 16.718 18.798z"/><path d="m400.012 347.109c1.3 1.357 2.733 2.68 4.646 3.768 6.229 3.545 12.976 5.523 20.021 6.598-3.631-23.295-15.928-40.574-32.752-53.077 2.803 3.81 5.328 7.812 7.569 11.985 3.586 6.692 11.48 26.984.516 30.726z"/><path d="m248.81 368.103c20.094 13.101 33.887 10.33 79.551 20.409-4.647-2.541-9.087-5.393-12.82-9.445-8.698-9.439-14.843-20.705-20.809-32.007-1.323-2.51-2.733-5.186-4.192-7.934 1.178 5.792.981 11.706-1.669 17.481-5.042 10.982-20.404 8.266-29.106 6.08-13.753-3.454-24.074-14.314-33.042-24.618-12.282-14.122-26.51-38.003-46.053-43.147 7.951 5.941 14.697 14.328 19.923 21.646 14.74 20.642 28.408 38.622 48.217 51.535z"/><path d="m375.914 363.385c-.18-3.549-.518-6.822-.444-9.791-9.066-5.419-9.615-18.102-11.226-27.955-1.458-8.914-3.684-17.328-7.828-25.352-1.301-2.514-2.87-4.916-4.611-7.191 10.517 26.391 2.234 60.93 23.771 81.195.379-3.621.519-7.254.338-10.906z"/><path d="m293.216 402.191c-13.135 12.115-21.357 31.293-34.197 43.891-8.186 8.027-17.299 13.365-27.248 16.685 24.224 1.709 39.424-20.862 52.07-38.538 11.484-16.051 33.085-32.537 53.584-22.332 7.527 3.745 8.435 12.276 6.209 21.978 2.493-5.535 7.645-17.287 14.498-21.906-22.345-7.458-48.235-15.166-64.916.222z"/><path d="m178.116 376.953c10.605-2.586 31.173-2.002 32.116 12.516.404 6.256-3.957 12.633-7.282 17.566-6.53 9.688-17.78 21.295-29.769 26.782 3.771-.928 7.479-2.394 11.092-4.583 21.603-13.082 38.099-41.803 62.066-50.51-4.607-.948-9.195-1.942-13.726-3.035-16.616-4.016-31.821-8.136-52.612-2.523-12.66 3.414-24.704 8.968-37.953 14.742-10.508 4.578-20.057 6.611-30.254 6.306 18.293 8.823 50.7-13.456 66.322-17.261z"/><path d="m144.978 379.477c-2.458 2.428-5.334 4.34-8.424 5.927 9.611-3.598 19.068-8.491 29.928-12.597 8.688-3.283 17.191-5.258 25.886-6.125-11.995-2.515-24.013-4.907-36.031-7.241-17.937-3.481-36.603-4.974-54.662-8.473 8.549 3.993 19.734 4.965 27.807 6.403 10.299 1.836 28.938 8.811 15.496 22.106z"/><path d="m127.818 323.269c4.425 6.404 8.486 13.542 14.054 19.023 16.856 16.604 48.491 17.827 92.123 28.401 6.188 1.497 12.471 2.828 18.801 4.069-14.234-7.677-26.635-17.755-37.062-30.833-2.396-3.01-4.934-6.756-7.604-10.808.725 2.032 1.312 4.138 1.619 6.458 1.646 12.368-11.234 15.539-20.534 15.322-14.252-.328-28.029-6.35-38.227-16.163-11.284-10.865-18.918-26.071-35.383-28.878 4.912 3.388 8.829 8.511 12.213 13.409z"/><path d="m170.24 438.355c19.131.594 36.399-14.819 50.186-26.392 11.893-9.983 23.271-18.493 39.405-19.092 23.36-.863 13.937 24.557 5.73 39.262 4.5-6.321 8.719-12.83 13.479-19.041 8.001-10.438 16.993-19.429 28.67-23.458-28.494-5.235-60.058-10.789-75.361.427-21.014 15.396-37.802 42.992-62.109 48.294z"/><path d="m96.698 344.662c17.647 3.949 36.138 5.474 54 8.518-6.204-3.665-11.737-8.027-16.453-14.594-4.923-6.854-10.37-17.8-17.815-24.15 3.008 5.937 4.097 12.367 2.945 19.289-1.865 11.18-13.512 10.865-22.677 10.937z"/><path d="m472.855 262.146c4.509 4.825 6.211 10.905 7.484 17.099 1.227-8.923 3.485-17.553 7.569-25.027-11.205-3.4-22.77-5.145-34.526-5.775 2.352 1.426 4.385 3.248 6.248 5.268.084.018.17.018.254.035 4.981 1.109 9.587 4.775 12.971 8.4z"/><path d="m549.532 197.869c-16.58.752-32.856 7.039-43.572 19.159-8.304 9.39-15.457 23.638-26.948 29.498 3.958.845 7.866 1.911 11.729 3.134.463-.66.898-1.344 1.398-1.982 16.179-20.746 48.862-12.408 72.241-2.519 14.741-6.399 30.772-9.103 46.334-6.706-12.435-6.498-26.955-3.782-40.441-2.762-10.238.774-19.918-.238-28.897-5.518-10.38-6.099-10.853-17.48-3.144-26.116 2.966-3.323 7.097-4.973 11.3-6.188z"/><path d="m456.188 213.246c-10.263 12.934-20.969 24.182-34.91 30.667 11.304-.792 22.646-1.129 33.821-.495 11.896.68 23.342 1.862 31.459-6.921 7.509-8.127 13.174-19.636 20.958-25.828 7.418-5.896 15.609-11.495 24.959-13.815 10.889-2.703 23.268-3.086 34.984-.891-14.957-11.338-42.994-5.486-56.521 5.1-6.018 4.713-11.469 9.975-17.014 15.219-3.485 3.293-6.896 6.229-10.896 8.95-5.826 3.976-20.494 8.635-22.022-5.739-.574-5.379.416-10.469 2.407-15.259-2.507 3.076-4.933 6.124-7.225 9.012z"/><path d="m391.638 251.783c14.688 4.74 26.502 15.66 33.285 30.703.631 1.403 1.211 2.82 1.768 4.241-.979-11.162.451-24.447 14.289-21.938 11.669 2.113 15.779 18.853 18.439 28.112 3.731 12.998 7.37 21.885 18.696 27.11-4.979-9.647-7.131-19.833-9.355-31.567-1.293-6.826-2.669-13.789-4.989-20.021-6.898-18.501-36.838-20.624-72.133-16.64z"/><path d="m201.437 225.209c-1.783 3.984-1.801 9.602 5.31 12.602 2.953 1.236 11.961 7.354 46.125 9.709 21.381 1.476 42.276 5.109 63.516 4.809 17.147-.238 38.212-4.764 53.629-26.197 10.991-15.282 18.33-34.796 26.773-51.391 2.647-5.204 5.603-10.115 8.883-14.576-16.291 12.961-23.689 33.465-34.808 50.788-3.772 5.878-8.041 11.352-12.861 16.253-10.727 9.525-20.497 15.399-35.84 17.814-16.643 2.627-33.305 2.182-50.028.846-11.135-.891-68.057-3.4-69.233-23.071-.587.683-1.057 1.501-1.466 2.414z"/><path d="m413.947 287.354c8.023 11.131 10.717 24.9 16.601 37.057 3.815 7.889 9.274 14.486 15.336 20.545-5.787-8.208-10.292-17.437-13.451-28.648-5.008-17.77-11.146-36.693-23.051-49.236-11.556-12.175-35.634-12.912-54.058-11.617-3.229.229-6.455.441-9.676.639 25.719 2.922 52.887 9.883 68.299 31.26z"/><path d="m379.339 219.673c-8.949 13.833-20.061 25.324-34.118 31.399 9.431-.643 18.861-1.457 28.284-2.4 24.143-2.425 51.217-5.95 69.52-25.762 10.424-11.279 19.287-24.762 30.33-35.938 9.835-9.953 22.203-18.057 35.492-20.917-9.215-1.362-20.226 2.532-27.748 6.237-14.563 7.178-24.818 22.928-35.291 34.746-12.154 13.722-52.324 44.402-55.123 6.14-.545-7.457.643-15.183 2.941-22.747-4.581 10.533-8.941 20.98-14.287 29.242z"/><path d="m124.443 507.654c5.27 2.688 11.386 4.028 17.92 4.196 3.527.091 6.815.332 9.843 1.271-10.297-15.331-22.776-29.063-33.064-44.361-1.468 2.304-2.674 4.92-3.625 7.825 10.978-1.631 25.18 26.392 8.926 31.069z"/><path d="m176.061 461.772c.141 4.835-.028 9.436-1.502 14.338-3.297 10.969-12.37 22.478-24.83 14.772-10.872-6.719-17.486-21.951-15.365-34.488-4.501 1.92-8.575 4.491-11.875 8.055 11.87 18.178 26.729 34.225 38.448 52.592 2.385 3.736 4.904 7.354 7.48 10.92-2.111-21.902 15.785-47.988 7.644-66.189z"/><path d="m215.435 518.012c-3.063 5.978-7.369 11.252-13.031 15.201-10.857 7.568-20.229-1.065-23.312-11.656-2.089-7.17.061-15.391 1.632-22.465 2.249-10.129 3.59-20.373.84-29.836 1.019 14.729-7.851 32.008-9.815 47.986-2.47 20.037 19.967 39.559 35.438 56.379-3.582-11.152-2.612-22.936 1.502-35.258 2.031-6.082 4.614-13.066 6.746-20.351z"/><path d="m191.866 601.828c-6.846 2.109-12.997 2.645-19.304 1.238 9.943 3.614 20.595 5.811 31.353 6.813 12.289 1.143 23.645 3.225 33.78 8.617-23.636-29.053-27.938-40.633-49.644-48.662-18.203-6.732-39.59-6.861-55.687-16.158 7.283 8.721 19.551 10.941 30.581 13.058 10.317 1.973 19.646 5.217 28.71 10.68 8.473 5.104 13.501 20.313.211 24.414z"/><path d="m291.59 665.115c7.601 5.531 15.413 10.744 23.179 16.078-4.625-8.002-8.353-16.326-11.535-24.865-.23-.4-.387-.797-.463-1.211-.842-2.289-1.633-4.601-2.41-6.916-3.85 3.736-7.97 4.002-12.367.69-5.401-2.862-8.432-7.784-10.391-13.379-2.342-6.696-1.592-14.539-.935-21.457.729-7.645 2.683-16.051 2.595-24.114-2.002 12.11-6.235 24.313-7.682 36.082-2.531 20.639 9.735 31.614 20.009 39.092z"/><path d="m145.458 522.014c10.992 2.502 20.033 11.313 21.421 22.592 1.034 8.4-4.083 13.613-11.47 14.257 13.65 3.301 28.385 5.055 40.878 11.004-23.957-26.498-35.083-52.127-49.11-54.443-7.693-1.272-16.767.086-23.615-3.813-2.567-1.461-4.822-3.166-6.92-4.992 2.611 11.514 19.224 13.215 28.816 15.395z"/><path d="m261.66 638.869c2.056 2.229 4.154 4.416 6.316 6.557.596.594 1.231 1.125 1.836 1.699-6.012-19.482 4.748-40.305 6.884-60.965-1.607 8.979-4.592 17.521-9.638 25.338-3.668 5.68-10.045 10.834-15.393 2.807-3.951-5.932-4.214-14.36-3.808-21.184.825-13.853 6.435-27.209 8.438-40.916 1.074-7.361.313-14.283-1.004-21.269-.043 6.212-.779 12.408-2.403 18.398-3.14 11.594-7.497 22.979-9.89 34.383-5.464 26.041 7.802 43.369 18.662 55.152z"/><path d="m170.176 606.965c9.983 7.986 23.858 8.607 36.536 10.527 7.473 1.135 15.08 2.889 21.697 6.635 12.538 7.102-1.533 18.16-8.89 21.209-.283.117-.587.18-.875.287 7.839-.072 16.014-1.461 25.408-2.67 5.877-.756 10.469-.676 14.898.479-10.824-11.854-10.14-17.692-29.859-24.864-18.396-6.687-39.777-4.898-58.915-11.603z"/><path d="m239.122 611.646c-2.849-11.546-1.935-23.445 1.782-35.472 2.23-7.213 4.5-14.324 6.357-21.401-.619 1.33-1.285 2.651-2 3.967-2.949 5.418-6.793 10.285-11.984 13.688-12.002 7.871-16.936-9.125-17.045-15.885-.071-4.356 1.047-8.748 1.896-12.992 3.537-17.721 13.967-42.774 3.016-59.944 1.592 6.866 1.603 14.261.916 21.295-2.67 27.371-23.216 50.707-7.369 76.903 8.666 9.517 16.525 19.699 24.431 29.841z"/></g><path d="m757.418 503.85c1.602-11.176.399-22.973-4.3-32.854-3.327-6.997-12.184-19.136-21.471-17.175-8.094 1.709-15.305 11.909-10.775 20.005 7.281 13.006 22.084 18.285 28.238 31.184 3.123 6.549 6.558 11.058 8.308-1.16z" fill="#d6e03d"/><path d="m862.354 428.457c-17.732-4.533-45.229 2.455-44.559 19.959.358 9.372 11.698 12.305 19.006 11.27 5.67-.809 11.252-5.666 15.555-9.062 4.219-3.333 8.346-6.314 12.719-9.018 5.613-3.48 7.515-10.532-2.721-13.149z" fill="#d6e03d"/><path d="m878.954 481.916c-7.014-.449-16.135 2.86-18.649 10.057-2.48 7.093.826 13.693 8.438 14.832 4.273.636 8.39-1.744 11.82-3.958 3.109-2.011 6.236-3.81 9.389-5.577 7.603-4.263 7.808-8.651 1.886-11.931-4.007-2.218-9.175-3.185-12.884-3.423z" fill="#d6e03d"/><path d="m815.596 556.855c-3.365-3.49-2.779-9.253-2.506-13.642.338-5.396 2.26-11.651.932-17.021-2.361-9.531-11.014-18.664-21.186-12.963-9.101 5.108-7.675 21.715-4.716 29.625 3.271 8.737 11.687 15.934 20.914 18.547 6.363 1.8 12.537 1.638 6.562-4.546z" fill="#d6e03d"/><path d="m639.799 564.979c-8.271-.522-12.693 7.209-11.531 14.57 1.096 6.916 4.32 12.709 7.84 18.713 3.031 5.172 5.234 9.832 6.871 14.711 2.395 7.125 7.076 14.914 13.266 3.822 10.847-19.449 10.134-50.135-16.446-51.816z" fill="#d6e03d"/><path d="m611.098 638.162c-7.596-2.652-18.465 2.979-17.922 11.838.324 5.244 2.072 9.426 5.365 13.596 1.899 2.41 5.973 10.101 7.428 18.89 1.576 9.561 5.809 9.133 10.451 4.774 6.446-6.039 9.975-16.428 11.135-24.227 1.711-11.517-5.992-21.215-16.457-24.871z" fill="#d6e03d"/><path d="m527.176 689.055c.992-1.291 2.119-2.541 3.473-3.797 4.295-3.975 8.863-7.514 12.521-12.133 4.848-6.125 2.928-18.498-5.845-20.328-17.987-3.75-24.006 17.873-20.965 33.848 1.894 9.943 6.576 7.919 10.816 2.41z" fill="#d6e03d"/><path d="m679.68 728.078c2.768-7.236 7.356-22.127-.666-28.09-8.156-6.063-18.621.012-23.676 7.258-2.673 3.826-3.656 9.943-2.97 14.469.668 4.394 1.797 8.594 2.978 12.871.791 2.859 1.184 5.531 1.271 8.145.361 11.076-.235 15.89 9.5 6.449 6.065-5.875 10.694-13.596 13.563-21.102z" fill="#d6e03d"/><path d="m778.948 651.627c-6.623-8.283-23.541-23.08-35.703-17.656-10.614 4.732-12.942 20.222-2.268 26.701 8.727 5.303 28.748 7.502 42.186 24.42 4.125 5.189 10.742 6.67 8.824-4.541-1.801-10.526-7.141-21.543-13.039-28.924z" fill="#d6e03d"/><path d="m743.217 771.27c-7.615 8.919-8.629 21.164-2.381 31.007 3.293 5.18 8.473 9.239 12.926 13.364 3.447 3.193 5.94 6.328 7.922 9.736 6.297 10.834 10.75 8.275 13.211-2.465 2.939-12.799 1.268-27.51-4.244-38.551-3.828-7.668-18.08-24.037-27.434-13.091z" fill="#d6e03d"/><path d="m691.028 775.16c-17.983-5.109-26.1 13.803-27.233 30.315-.921 13.289 6.896 9.318 11.321 4.236 1.279-1.471 2.668-2.887 4.271-4.201 4.828-3.953 10.182-6.975 14.488-11.553 5.186-5.512 5.963-16.291-2.847-18.797z" fill="#d6e03d"/><path d="m595.916 817.553c-6.979.063-9.396 6.547-10.111 12.39-.385 3.131-.322 6.313-.324 9.485 0 7.344-4.002 17.232 12.166 6.439 4.715-3.152 8.559-8.068 9.205-13.078.975-7.51-2.445-15.314-10.936-15.236z" fill="#d6e03d"/><path d="m527.231 832.793c-2.834 4.93-2.797 11.316-2.467 16.775.205 3.414.981 6.871 1.582 10.223.801 4.502.824 8.086.17 11.576-1.193 6.367-6.492 15.318 8.037 8.859 7.426-3.298 13.676-9.025 18.125-16.023 5.801-9.131 6.766-25.676-1.16-34.055-7.766-8.207-18.641-7.177-24.287 2.645z" fill="#d6e03d"/><path d="m455.58 762.383c-1.629-2.137-3.01-4.483-4.108-7.447-1.942-5.243-2.434-10.811-4.989-15.856-4.396-8.67-16.467-9.633-20.935-.908-4.353 8.496 2.388 18.012 8.794 23.045 4.771 3.75 10.758 6.564 16.931 8.279 10.461 2.895 9.592-.187 4.307-7.113z" fill="#d6e03d"/><path d="m522.766 776.014c-2.603-2.989-4.943-6.049-6.533-10.526-2.074-5.847-2.383-12.502-5.013-18.119-3.868-8.254-15.014-17.445-23.105-8.5-6.705 7.416-.49 21.709 4.563 28.045 5.633 7.063 14.556 13.762 24.017 16.686 15.098 4.656 9.614-3.51 6.071-7.586z" fill="#d6e03d"/><path d="m411.013 654.209c-1.14-9.395-9.851-15.682-18.963-12.098-10.146 3.983-8.28 17.846-5.312 25.676 2.615 6.889 8.308 14.67 15.308 19.076 8.721 5.502 11.493 2.586 9.235-5.98-.789-3.004-1.321-6.053-1.158-9.656.259-5.743 1.589-11.256.89-17.018z" fill="#d6e03d"/><path d="m353.029 648.467c-.787-6.225.328-12.783 1.115-18.947 1.147-9 2.889-18.58-1.23-27.114-6.563-13.609-19.897-19.248-31.643-7.658-11.091 10.945-5.638 31.438-.882 43.844 4.72 12.31 14.366 22.387 25.938 28.855 11.072 6.196 13.146 1.092 8.978-9.888-1.057-2.788-1.856-5.746-2.276-9.092z" fill="#d6e03d"/><path d="m471.695 525.963c-6.132-1.82-13.121 1.156-18.604 3.566-5.259 2.315-10.058 5.356-15.41 7.52-2.93 1.185-6.017 1.494-9.146 1.48-9.771-.041-13.871 6.205-2.539 13.53 14.537 9.396 38.941 6.41 50.296-4.592 7.872-7.625 5.893-18.387-4.597-21.504z" fill="#d6e03d"/><path d="m803.743 387.459c-16.993-3.85-43.012.576-44.473 17.832-.912 10.744 8.326 12.7 16.887 10.078 5.98-1.835 11.172-6.107 16.078-9.8 3.896-2.934 7.619-5.396 11.611-7.421 6.461-3.273 11.07-8.158-.103-10.689z" fill="#d6e03d"/><path d="m786.834 313.523c-9.603 8.481 2.221 17.188 9.756 20.359 7.366 3.094 26.084 8.459 31.211-1.27 10.467-19.868-26.66-31.717-40.967-19.089z" fill="#d6e03d"/><path d="m725.932 260.495c-2.242 2.599-5.521 4.263-8.541 5.788-5.047 2.55-10.658 3.48-15.57 6.395-5.736 3.4-8.549 12.161-2.521 16.43 6.364 4.506 15.77-.599 20.746-4.512 4.557-3.58 7.981-9.391 9.944-15.511 4.721-14.733-1.702-11.333-4.058-8.59z" fill="#d6e03d"/><path d="m721.512 193.809c-1.924 3.337-5.15 5.994-7.961 8.554-5.013 4.564-10.42 8.424-14.855 13.608-4.748 5.555-9.758 21.88 2.277 23.553 21.553 3 29.914-25.095 28.598-44.271-.831-12.126-4.756-7.188-8.059-1.444z" fill="#d6e03d"/><path d="m628.731 189.388c-3.686-4.632-6.988-8.766-9.502-13.775-2.754-5.491-8.354-14.459-9.346-.198-.711 10.164.934 20.72 4.467 29.746 2.824 7.227 8.436 15.466 17.104 14.418 8.199-.984 8.035-10.51 6.313-16.357-1.542-5.236-5.71-9.652-9.036-13.834z" fill="#d6e03d"/><path d="m582.137 213.475c-10.857-9.273-28.795-17.107-36.197-3.521-3.223 5.918 1.17 15.084 7.48 16.874 5.18 1.466 9.77.629 14.893-.773 3.977-1.089 8.008-1.48 12.012-1.912 11.386-1.219 8.117-5.289 1.812-10.668z" fill="#d6e03d"/><path d="m617.555 309.017c.146 2.9.012 5.882-.437 9.13-.836 6.063-2.418 12.102-2.008 18.264.312 4.686 5.041 8.859 9.707 6.489 14.084-7.169 10.543-30.187-.19-40.638-3.298-3.207-7.668-5.15-7.072 6.755z" fill="#d6e03d"/><path d="m537.694 342.045c-4.287-2.855-9.166-3.427-14.172-4.102-5.734-.773-10.191-3.373-14.522-6.351-6.168-4.236-14.586-7.632-8.465 6.696 5.914 13.834 21.396 24.781 36.021 19.568 6.718-2.391 6.704-12.106 1.138-15.811z" fill="#d6e03d"/><path d="m577.192 391.191c-3.902-.846-7.563.266-11.287 1.372-3.549 1.052-6.862 1.772-10.223 2.289-4.119.639-14.383 2.941-1.303 9.512 10.563 5.302 25.438 6.539 30.311-3.863 2.424-5.181-3.359-8.415-7.498-9.31z" fill="#d6e03d"/><path d="m525.567 442.142c-.822 2.389-1.846 4.772-3.219 7.229-3.678 6.575-8.635 12.588-11.385 19.658-2.594 6.659-3.647 21.258 6.741 22.766 10.134 1.47 15.214-7.236 18.753-15.638 4.481-10.637 4.608-23.437.916-34.706-3.925-11.982-8.585-8.654-11.806.691z" fill="#d6e03d"/><path d="m568.407 485.914c-.866 4.174-2.315 8.248-4.125 12.313-2.903 6.529-9.168 11.828-11.159 18.664-1.685 5.761-.474 17.867 8.522 15.396 8.717-2.398 13.51-14.604 15.648-22.24 2.168-7.749 2.461-17.872.045-26.584-3.632-13.092-7.427-4.772-8.931 2.451z" fill="#d6e03d"/><path d="m481.171 408.816c-3.918 4.52-9.06 8.505-12.756 12.436-7.554 8.032-10.306 20.543.298 27.209 9.583 6.025 20.337-9.549 23.283-16.281 2.882-6.573 4.313-15.361 3.06-23.295-2.23-14.077-7.052-7.939-13.885-.069z" fill="#d6e03d"/><path d="m442.503 377.264c-3.623-2.263-9.253-.225-12.88.818-4.338 1.246-8.003.859-11.536-.14-13.483-3.813-13.06 3.116-6.857 11.338 2.086 2.761 4.393 5.262 6.488 7.295 6.928 6.724 15.024 7.149 22.975 2.146 7.892-4.971 10.582-15.985 1.81-21.457z" fill="#d6e03d"/><path d="m385.259 434.199c8.527 2.506 12.817-7.069 12.832-13.698.01-3.796-.872-10.138-2.8-15.583-4.684-13.25-8.233-7.39-10.993 1.457-1.238 3.967-2.08 8.158-2.947 11.697-1.285 5.241-2.908 14.121 3.908 16.127z" fill="#d6e03d"/><path d="m422.746 479.344c-5.19-3.459-10.571-3.639-16.635-3.841-5.543-.185-10.449-.823-15.051-2.303-10.472-3.364-16.172-.62-10.955 11.086 2.064 4.632 4.871 8.923 7.814 12.251 8.043 9.098 20.432 8.979 30.692 4.309 7.962-3.625 12.904-15.664 4.135-21.502z" fill="#d6e03d"/><path d="m261.926 576.207c-.692 3.045-1.412 6.09-2.411 9.08-1.588 4.764-5.541 7.367-5.435 12.633.113 5.834 6.724 6.822 10.576 3.828 6.15-4.777 7.968-17 5.896-26.404-2.811-12.723-7.057-6.076-8.626.863z" fill="#d6e03d"/><path d="m207.146 624.922c-3.168-.594-6.672-1.174-10.186-1.574-13.063-1.487-11.258 3.761-3.659 8.929 3.718 2.526 7.825 4.354 12.567 5.266 4.352.832 11.676.158 11.521-5.922-.126-4.914-6.483-5.992-10.243-6.699z" fill="#d6e03d"/><path d="m177.531 578.803c-6.214-3.08-13.165-4.713-20.078-6.403-12.695-3.113-16.736-.486-6.812 10.081 9.213 9.806 22.875 18.603 31.654 11.082 6.378-5.465 1.089-11.856-4.764-14.76z" fill="#d6e03d"/><path d="m225.804 545.838c-1.121 5.113 3.359 14.185 9.835 10.641 9.224-5.047 11.288-19.682 8.622-31.651-3.746-16.857-7.482-7.164-8.598-.974-.355 1.976-.892 3.939-1.918 5.865-2.898 5.437-6.599 9.988-7.941 16.119z" fill="#d6e03d"/><path d="m187.679 512.629c-1.492 7.24 5.393 14.725 12.67 12.125 11.148-3.984 12.07-23.828 6.918-36.951-5.654-14.403-8.979-3.301-10.307 2.321-.65 2.752-1.772 5.5-3.4 8.725-2.293 4.542-4.844 8.739-5.881 13.78z" fill="#d6e03d"/><path d="m152.234 544.703c4.351-7.178-2.313-12.156-8.354-14.408-.736-.271-3.146-1.063-5.955-1.805-12.17-3.205-13.739-.297-6.078 9.09 6.299 7.727 15.51 15.178 20.387 7.123z" fill="#d6e03d"/><path d="m322.095 410.594c-9.051-7.637-20.15 7.406-22.996 14.242-2.8 6.724-4.597 13.793-7.153 20.607-1.816 4.848-4.313 7.965-7.339 10.586-5.643 4.897-7.664 10.754 3.244 8.721 10.121-1.88 19.809-7.69 27.315-14.311 10.162-8.962 19.72-29.056 6.929-39.845z" fill="#d6e03d"/><path d="m214.099 450.372c8.287-.022 17.457-3.841 23.856-6.966 8.932-4.367 25.767-19.646 18.671-31.355-6.115-10.093-17.775-5.168-24.814 1.236-4.879 4.443-8.342 10.271-12.008 15.682-2.938 4.336-6.016 7.115-9.422 9.64-4.455 3.294-9.135 11.799 3.717 11.763z" fill="#d6e03d"/><path d="m146.547 422.322c8.927 2.455 18.7 1.768 27.341-1.907 10.065-4.276 21.816-12.058 18.777-24.636-2.549-10.556-17.017-5.775-22.919-2.348-5.403 3.135-10.096 7.744-14.92 11.656-3.136 2.546-6.185 4.191-9.372 5.384-8.857 3.301-8.756 9.139 1.093 11.851z" fill="#d6e03d"/><path d="m149.74 311.035c7.471 6 11.909 15.967 16.672 24.264 3.873 6.746 15.75 13.52 21.642 4.768 12.13-18.035-16.921-42.293-37.539-41.376-19.036.854-2.246 11.166-.775 12.344z" fill="#d6e03d"/><path d="m131.607 374.592c2.444-5.833-1.286-9.795-7.092-9.85-2.991-.026-6.097.797-8.973 1.525-2.619.661-5.343.953-8.037.989-6.251.085-8.823 3.521-1.517 8.46 2.507 1.69 5.363 2.909 8.019 3.602 5.588 1.462 14.904 1.705 17.6-4.726z" fill="#d6e03d"/><path d="m230.075 309.682c3.489 6.877 5.612 14.459 8.721 21.524 4.695 10.677 16.209 25.198 27.934 14.841 11.326-10.002-3.012-30.379-9.791-38.308-7.043-8.239-17.18-14.742-27.979-16.981-16.505-3.437-9.146 6.553-4.945 10.613 2.266 2.194 4.279 4.803 6.06 8.311z" fill="#d6e03d"/><path d="m290.984 294.333c6.867 5.257 12.691 11.095 17.354 19.788 3.935 7.33 5.859 15.561 8.673 23.341 2.672 7.394 9.553 26.705 20.592 19.595 15.188-9.786 5.055-39.037-1.244-50.873-6.814-12.809-25.563-23.382-41.952-23.518-16.415-.135-9.185 7.26-3.423 11.667z" fill="#d6e03d"/><path d="m576.149 300.256c12.17-2.469 8.383-18.835 1.59-27.371-5.367-6.728-7.313-1.543-7.365 5.275-.038 4.614-.934 9.08-1.213 14.153-.235 4.304 1.943 8.968 6.988 7.943z" fill="#d6e03d"/><path d="m436.69 196.75c4.785-6.899 8.161-14.693 12.593-21.816 3.273-5.262 6.982-8.914 11.35-11.814 5.019-3.338 12.687-10.079-2.456-10.191-13.225-.104-27.931 5.774-37.172 12.817-10.528 8.019-20.052 28.495-12.121 40.665 8.342 12.798 22.787-2.43 27.806-9.661z" fill="#d6e03d"/><path d="m327.486 222.682c8.658 6.574 26.002-6.18 31.904-11.469 7.297-6.534 10.272-17.432 11.787-27.42 2.006-13.249-4.274-5.348-7.654-1.682-9.07 9.844-18.756 19.181-29.338 27.393-3.364 2.613-12.525 8.756-6.699 13.178z" fill="#d6e03d"/><path d="m514.895 176.553c-8.269.188-16.333 2.932-23.542 7.492-5.945 3.76-14.36 11.072-13.825 18.776.618 8.899 12.073 5.077 15.966 1.714 4.173-3.607 7.492-7.92 11.25-11.918 3.461-3.688 7.813-6.279 12.274-8.68 8.197-4.412 7.559-7.61-2.123-7.384z" fill="#d6e03d"/><path d="m706.844 156.566c6.969-2.762 5.699-13.551 4.897-19.262-.35-2.496-1.102-6.756-2.469-10.758-2.525-7.412-9.395-14.721-14.213 1.578-1.539 5.208-2.035 10.924-1.982 15.561.082 7.214 5.273 16.245 13.767 12.881z" fill="#d6e03d"/><path d="m660.618 151.16c-2.102-3.162-3.975-6.27-5.684-9.471-3.254-6.09-8.197-15.076-10.756 1.695-2.105 13.757 1.74 30.648 13.74 35.29 7.575 2.937 10.854-7.155 10.631-12.583-.218-5.333-5.129-10.721-7.931-14.931z" fill="#d6e03d"/><path d="m375.562 785.967c-9.256 1.916-16.451 12.433-18.846 20.797-.742 2.601-1.054 5.738-.859 8.939.908 15.012 8.287 15.844 14.49 5.752 2.016-3.277 5.061-6.143 7.606-9.016 3.361-3.802 8.765-8.15 9.931-13.377 1.856-8.3-3.838-14.849-12.322-13.095z" fill="#d6e03d"/><path d="m445.81 797.336c-5.738-1.613-9.189 3.365-8.076 8.646.928 4.411 3.132 7.268 6.441 10.243 2.344 2.109 4.674 3.939 6.44 6.611.755 1.144 1.146 2.385 1.386 3.67 1.104 6.041 5.159 9.027 7.608 1.502 1.479-4.551 1.479-9.875.771-14.008-1.3-7.516-7.191-14.586-14.57-16.664z" fill="#d6e03d"/><path d="m245.159 734.396c-5.188 4.36-8.892 9.997-13.035 15.305-1.852 2.369-3.91 4.336-6.078 6.143-3.357 2.803-8.326 10.219 1.307 11.234 18.498 1.953 41.57-5.853 38.445-27.396-1.506-10.403-14.065-10.817-20.639-5.286z" fill="#d6e03d"/><path d="m195.866 682.775c-4.409-1.052-8.785.869-12.261 3.782-4.32 3.63-2.098 7.017 3.523 9.912 2.809 1.447 5.366 3.14 8.434 4.009 4.825 1.36 11.2-2.044 11.021-7.367-.174-5.185-6.225-9.259-10.717-10.336z" fill="#d6e03d"/><path d="m504.376 575.42c-3.775 1.588-7.289 3.904-10.855 5.9-3.652 2.047-7.093 3.432-10.617 4.436-2.642.756-17.418 4.533-3.262 8.387 8.027 2.183 16.291 2.105 24.793-.202 6.576-1.785 14.663-6.242 15.019-13.753.404-8.545-10.568-6.661-15.078-4.768z" fill="#d6e03d"/><path d="m332.468 233.196c.246-.131.207-.563-.08-.616-4.103-.783-8.963.382-12.797 1.893-.15.059-.158.257 0 .315 4.078 1.462 9.147.392 12.877-1.592z" fill="#68182b"/></g></g></svg>