<?xml version="1.0" encoding="UTF-8"?>
<!-- Generator: Adobe Illustrator 25.2.1, SVG Export Plug-In . SVG Version: 6.00 Build 0)  -->
<svg xmlns="http://www.w3.org/2000/svg" xmlns:xlink="http://www.w3.org/1999/xlink" version="1.1" id="Capa_1" x="0px" y="0px" viewBox="0 0 512 512" style="enable-background:new 0 0 512 512;" xml:space="preserve" width="512" height="512">
<g>
	<path style="fill:#FFFFFF;" d="M53.981,285.337c0.872,9.51,2.21,19.134,3.969,28.618c0.588,3.152,1.223,6.299,1.905,9.436   c3.405,15.644,8.036,31.173,13.765,46.153c5.897,15.426,12.386,29.901,19.291,43.025c1.864,3.545,3.797,7.067,5.747,10.47   c6.169,10.758,12.842,20.902,19.835,30.149c19.085,25.237,43.825,44.03,69.659,52.916c7.395,2.544,14.92,4.286,22.363,5.177   c3.1,0.371,6.245,0.601,9.35,0.683c0.857,0.023,1.717,0.035,2.576,0.035h0.005c2.304,0,4.638-0.084,6.937-0.247   c4.839-0.342,9.704-1.055,14.459-2.12c14.472-3.24,29.221-8.591,43.838-15.909c12.809-6.412,25.91-14.534,38.938-24.14   c13.226-9.751,26.429-20.998,40.359-34.379c2.449-2.35,4.855-4.744,7.097-7.04c0.082-0.084,0.186-0.188,0.28-0.289   c2.299-2.357,4.557-4.75,6.779-7.175c0.023-0.024,0.043-0.047,0.066-0.071c30.561-33.339,53.72-72.999,66.968-114.689   c11.896-37.43,14.281-71.687,7.087-101.82c-2.764-11.574-7.224-22.511-13.322-32.707c5.989-5.4,10.507-13.234,10.098-24.531   c-0.592-16.584-14.164-26.765-18.622-30.111c-31.754-23.82-71.373-36.986-111.62-37.103c5.577-16.595,11.222-33.722,14.459-51.192   c1.744-9.419-4.097-18.581-13.373-20.972c-1.811-0.467-4.336-1.359-7.008-2.305c-6.268-2.216-13.373-4.729-20.544-5.165   c-8.186-0.515-15.667,4.509-18.34,12.244c-6.164,17.859-9.47,36.887-12.633,55.321c-24.204-12.141-51.077-19.164-79.027-20.528   l-1.482-0.074c-3.939-0.196-8.407-0.418-13.03-0.418c-11.08,0-27.329,1.147-40.478,11.062c-8.104,6.11-12.949,14.739-13.64,24.297   c-0.394,5.413,0.562,10.961,2.721,16.29c-8.381,5.441-15.991,12.051-22.714,19.446c-1.477,1.641-2.904,3.317-4.244,4.985   c-0.061,0.074-0.122,0.149-0.181,0.222c-6.688,8.358-12.618,17.746-17.628,27.905c-1.887,3.825-3.669,7.816-5.3,11.854   c-1.579,3.906-3.069,7.982-4.427,12.121c-0.669,2.036-1.305,4.083-1.905,6.126c-3.38,11.494-5.984,23.983-7.736,37.12   c-1.683,12.612-2.553,25.554-2.589,38.475c-0.015,6.394,0.173,12.872,0.559,19.255C53.445,278.943,53.687,282.144,53.981,285.337z"/>
	<g>
		<g>
			<path style="fill:#FA3E00;" d="M437.525,208.357c-14.839-62.153-84.167-91.546-151.506-99.616     c-64.354-21.404-139.598-24.368-179.515,25.53c-19.517,24.397-29.041,55.289-33.158,86.148     c-6.388,47.883-0.033,97.284,17.299,142.615c10.66,27.881,24.271,55.204,42.386,79.161     c24.654,32.603,64.781,59.064,106.829,49.651c43.972-9.844,82.814-39.362,114.496-69.791     c35.001-33.617,61.807-75.596,76.44-121.634C440.228,270.751,444.781,238.747,437.525,208.357z"/>
		</g>
		<g>
			<g>
				<g>
					<path style="fill:#202D7D;" d="M216.413,265.736c-0.45-0.264-1.595,0.735-3.297,2.723c-1.713,1.974-3.954,4.97-6.883,8.339       c-2.934,3.329-6.626,7.112-11.407,9.692c-4.749,2.606-10.85,4.111-16.266,2.4c-5.433-1.633-9.464-6.413-11.783-11.295       c-2.37-4.9-3.074-10.106-3.455-14.531c-0.346-4.446-0.356-8.186-0.546-10.792c-0.177-2.611-0.497-4.097-1.015-4.154       c-0.514-0.057-1.175,1.305-1.896,3.851c-0.704,2.549-1.522,6.29-1.859,11.121c-0.282,4.781-0.158,10.88,2.422,17.275       c1.274,3.154,3.117,6.333,5.731,9.17c2.602,2.816,6.07,5.289,10.164,6.534c4.074,1.307,8.294,1.234,12.03,0.474       c3.753-0.794,7.098-2.274,9.981-4.077c5.838-3.677,9.531-8.463,12.157-12.481c2.603-4.077,4.18-7.564,5.141-10.028       C216.574,267.485,216.859,265.998,216.413,265.736z"/>
				</g>
				<g>
					<path style="fill:#202D7D;" d="M282.242,280.469c-0.514,0.047-0.891,1.513-1.091,4.152c-0.181,2.639-0.241,6.464,0.376,11.263       c0.662,4.754,1.963,10.658,5.677,16.473c1.839,2.86,4.233,5.625,7.291,7.943c3.055,2.28,6.842,4.145,11.084,4.699       c4.235,0.619,8.426-0.14,11.98-1.578c3.574-1.452,6.595-3.542,9.093-5.852c5.059-4.686,7.771-10.149,9.554-14.595       c1.754-4.514,2.609-8.246,3.059-10.852c0.433-2.611,0.416-4.124-0.073-4.292c-0.493-0.169-1.416,1.038-2.689,3.325       c-1.284,2.276-2.887,5.655-5.095,9.529c-2.231,3.84-5.087,8.249-9.32,11.672c-4.178,3.428-9.862,6.034-15.473,5.195       c-5.628-0.761-10.506-4.723-13.691-9.105c-3.226-4.372-4.953-9.367-6.188-13.63c-1.213-4.297-1.963-7.962-2.671-10.478       C283.372,281.814,282.762,280.422,282.242,280.469z"/>
				</g>
			</g>
			<g>
				<path style="fill:#202D7D;" d="M266.74,292.527c-0.74-0.327-2.738,3.78-6.334,9.704c-1.856,2.906-4.234,6.203-7.667,8.751      c-3.381,2.56-7.892,4.362-12.336,3.496c-4.474-0.821-8.268-3.99-10.563-7.454c-2.325-3.463-3.29-7.429-3.684-10.749      c-0.694-6.754,0.252-11.212-0.563-11.386c-0.34-0.089-0.986,0.892-1.676,2.85c-0.671,1.955-1.413,4.908-1.478,8.715      c-0.043,3.773,0.579,8.514,3.287,13.138c2.64,4.486,7.32,8.836,13.718,10.062c3.174,0.625,6.386,0.205,9.16-0.741      c2.778-0.981,5.173-2.459,7.158-4.136c4.022-3.375,6.363-7.435,7.919-10.774C266.654,297.187,267.324,292.779,266.74,292.527z"/>
			</g>
		</g>
		<g>
			<g>
				<path style="fill:#CE2806;" d="M135.625,153.13c-0.51-3.175-1.391-7.481-2.752-10.311c-2.437,1.98-5.069,5.5-6.885,8.155      c-1.842,2.694-3.129,5.914-3.21,9.209c-0.055,2.234,0.535,4.598,2.117,5.951c1.468,1.256,3.42,1.679,5.256,1.176      c2.008-0.55,3.549-2.437,4.452-4.481C135.935,159.814,136.143,156.353,135.625,153.13z"/>
			</g>
			<g>
				<path style="fill:#CE2806;" d="M166.841,207.392c-0.51-3.175-1.391-7.481-2.752-10.311c-2.437,1.98-5.069,5.5-6.885,8.154      c-1.842,2.694-3.129,5.914-3.21,9.21c-0.055,2.234,0.535,4.598,2.117,5.951c1.468,1.256,3.42,1.679,5.256,1.176      c2.008-0.55,3.549-2.437,4.452-4.481C167.151,214.075,167.359,210.614,166.841,207.392z"/>
			</g>
			<g>
				<path style="fill:#CE2806;" d="M104.658,228.72c-0.51-3.175-1.391-7.481-2.752-10.311c-2.437,1.98-5.069,5.5-6.885,8.155      c-1.842,2.694-3.129,5.914-3.21,9.21c-0.055,2.234,0.535,4.598,2.116,5.951c1.468,1.256,3.421,1.679,5.256,1.176      c2.008-0.55,3.548-2.437,4.451-4.481C104.968,235.404,105.176,231.943,104.658,228.72z"/>
			</g>
			<g>
				<path style="fill:#CE2806;" d="M128.517,302.027c-0.51-3.175-1.391-7.481-2.752-10.311c-2.437,1.98-5.069,5.5-6.885,8.155      c-1.842,2.694-3.129,5.914-3.21,9.209c-0.055,2.234,0.535,4.598,2.117,5.951c1.468,1.256,3.421,1.679,5.256,1.176      c2.008-0.55,3.549-2.437,4.452-4.481C128.827,308.711,129.035,305.249,128.517,302.027z"/>
			</g>
			<g>
				<path style="fill:#CE2806;" d="M202.225,331.208c-0.51-3.175-1.391-7.481-2.752-10.311c-2.437,1.98-5.069,5.5-6.884,8.154      c-1.842,2.694-3.129,5.914-3.21,9.21c-0.054,2.234,0.535,4.598,2.117,5.951c1.468,1.256,3.421,1.679,5.256,1.176      c2.008-0.55,3.548-2.437,4.451-4.481C202.535,337.891,202.743,334.43,202.225,331.208z"/>
			</g>
			<g>
				<path style="fill:#CE2806;" d="M295.162,365.437c-0.51-3.175-1.391-7.481-2.752-10.311c-2.437,1.98-5.07,5.5-6.885,8.155      c-1.842,2.694-3.129,5.914-3.21,9.21c-0.055,2.234,0.535,4.598,2.117,5.951c1.468,1.256,3.421,1.679,5.256,1.176      c2.008-0.55,3.548-2.437,4.451-4.481C295.472,372.121,295.68,368.66,295.162,365.437z"/>
			</g>
			<g>
				<path style="fill:#CE2806;" d="M344.404,389.354c-0.511-3.175-1.391-7.481-2.752-10.311c-2.437,1.98-5.069,5.5-6.884,8.155      c-1.842,2.694-3.129,5.914-3.21,9.209c-0.054,2.234,0.535,4.598,2.117,5.951c1.468,1.256,3.421,1.679,5.256,1.176      c2.008-0.55,3.549-2.438,4.451-4.481C344.714,396.037,344.922,392.576,344.404,389.354z"/>
			</g>
			<g>
				<path style="fill:#CE2806;" d="M386.995,336.262c-0.51-3.176-1.391-7.481-2.752-10.311c-2.437,1.98-5.069,5.5-6.884,8.155      c-1.842,2.694-3.129,5.914-3.21,9.209c-0.054,2.234,0.535,4.598,2.117,5.951c1.468,1.256,3.421,1.679,5.256,1.176      c2.008-0.55,3.549-2.437,4.451-4.481C387.305,342.945,387.513,339.484,386.995,336.262z"/>
			</g>
			<g>
				<path style="fill:#CE2806;" d="M287.397,238.862c-0.511-3.175-1.391-7.481-2.752-10.311c-2.437,1.98-5.069,5.5-6.884,8.155      c-1.842,2.694-3.129,5.914-3.21,9.21c-0.055,2.234,0.535,4.598,2.116,5.951c1.468,1.256,3.421,1.679,5.256,1.176      c2.008-0.55,3.548-2.437,4.451-4.481C287.707,245.546,287.915,242.085,287.397,238.862z"/>
			</g>
			<g>
				<path style="fill:#CE2806;" d="M391.911,211.279c-0.51-3.175-1.391-7.481-2.752-10.311c-2.437,1.98-5.069,5.5-6.885,8.155      c-1.842,2.694-3.129,5.914-3.21,9.209c-0.055,2.234,0.535,4.598,2.117,5.951c1.468,1.256,3.421,1.679,5.256,1.176      c2.008-0.55,3.548-2.438,4.451-4.481C392.221,217.962,392.429,214.501,391.911,211.279z"/>
			</g>
			<g>
				<path style="fill:#CE2806;" d="M414.403,270.686c-0.51-3.175-1.391-7.481-2.752-10.311c-2.437,1.98-5.069,5.5-6.885,8.155      c-1.842,2.694-3.129,5.914-3.21,9.209c-0.055,2.234,0.535,4.598,2.117,5.951c1.468,1.256,3.421,1.679,5.256,1.176      c2.008-0.55,3.549-2.437,4.452-4.481C414.713,277.369,414.921,273.908,414.403,270.686z"/>
			</g>
			<g>
				<path style="fill:#CE2806;" d="M274.401,436.281c-0.51-3.175-1.391-7.481-2.752-10.311c-2.437,1.98-5.069,5.5-6.885,8.155      c-1.842,2.694-3.129,5.914-3.21,9.209c-0.055,2.234,0.535,4.598,2.116,5.951c1.468,1.256,3.421,1.679,5.256,1.176      c2.008-0.55,3.548-2.437,4.451-4.481C274.711,442.965,274.919,439.504,274.401,436.281z"/>
			</g>
			<g>
				<path style="fill:#CE2806;" d="M153.318,362.981c-0.51-3.175-1.391-7.481-2.752-10.311c-2.437,1.98-5.069,5.5-6.885,8.155      c-1.842,2.694-3.129,5.914-3.21,9.209c-0.055,2.234,0.535,4.598,2.117,5.951c1.468,1.256,3.421,1.679,5.256,1.176      c2.008-0.55,3.549-2.437,4.452-4.481C153.628,369.664,153.836,366.203,153.318,362.981z"/>
			</g>
			<g>
				<path style="fill:#CE2806;" d="M226.81,398.285c-0.51-3.175-1.391-7.481-2.752-10.311c-2.437,1.98-5.069,5.5-6.885,8.155      c-1.842,2.694-3.129,5.914-3.21,9.209c-0.055,2.234,0.535,4.598,2.116,5.951c1.468,1.256,3.421,1.679,5.256,1.176      c2.008-0.55,3.548-2.437,4.451-4.481C227.12,404.968,227.328,401.507,226.81,398.285z"/>
			</g>
			<g>
				<path style="fill:#CE2806;" d="M174.894,426.416c-0.51-3.175-1.391-7.481-2.752-10.311c-2.437,1.98-5.069,5.5-6.885,8.154      c-1.842,2.694-3.129,5.914-3.21,9.21c-0.055,2.234,0.535,4.598,2.117,5.951c1.468,1.256,3.421,1.679,5.256,1.176      c2.008-0.55,3.549-2.437,4.452-4.481C175.204,433.099,175.412,429.638,174.894,426.416z"/>
			</g>
		</g>
		<g>
			<path style="fill:#1C9E5F;" d="M298.813,213.535c5.442,10.408,12.638,19.884,21.359,27.77c7.47,6.754,18.168,12.608,27.193,8.14     c7.329-3.629,10.197-12.543,11.325-20.643c3.852-27.679-5.847-50.797-18.204-74.79c2.428,4.714,19.181,8.067,24.007,9.274     c9.39,2.346,19.103,3.405,28.778,3.138c12.345-0.341,41.214-0.39,40.547-18.888c-0.246-6.818-5.89-12.088-11.347-16.182     c-35.681-26.767-82.349-38.4-126.42-31.514c7.368-24.432,17.639-49.662,22.275-74.683c-7.134-1.839-16.872-6.486-24.111-6.926     c-8.487,24.579-11.325,52.868-16.662,78.413c-27.214-19.064-59.994-29.747-93.121-31.364c-13.772-0.672-31.43-1.903-43.129,6.918     c-10.651,8.031-6.673,20.428,1.275,28.456c24.315,24.563,66.363,35.624,99.432,27.713c-26.456,16.841-45.319,45.16-50.663,76.064     c-1.567,9.059-1.611,19.504,4.789,26.103c8.705,8.975,23.8,5.705,34.954,0.056c32.218-16.316,52.178-45.25,57.12-81.165     C284.563,171.187,288.6,194.004,298.813,213.535z"/>
		</g>
		<g>
			<g>
				<path style="fill:#CBD115;" d="M281.336,114.835c0.585-1.464-22.255-11.587-52.194-18.367      c-29.916-6.881-54.885-7.67-54.994-6.097c-0.167,1.737,24.197,5.18,53.655,11.961      C257.288,109.004,280.733,116.473,281.336,114.835z"/>
			</g>
			<g>
				<path style="fill:#CBD115;" d="M232.11,205.802c1.678,0.554,9.849-21.282,23.358-46.465      c13.376-25.253,26.948-44.209,25.553-45.294c-1.18-1.012-17.178,16.652-30.861,42.465      C236.358,182.258,230.611,205.387,232.11,205.802z"/>
			</g>
			<g>
				<path style="fill:#CBD115;" d="M408.484,144.082c0.687-1.356-26.242-15.084-62.374-23.312      c-36.09-8.403-66.311-7.835-66.286-6.315c-0.095,1.801,29.507,3.917,64.937,12.177      C380.235,134.699,407.782,145.743,408.484,144.082z"/>
			</g>
			<g>
				<path style="fill:#CBD115;" d="M333.252,224.18c0.756-0.176-0.006-7.162-2.794-18.142c-2.774-10.971-7.802-25.877-15.286-41.496      c-7.509-15.606-15.998-28.85-22.824-37.875c-6.826-9.042-11.801-14.004-12.411-13.524c-1.443,1.108,15.215,23.337,29.812,54.003      C324.555,197.713,331.485,224.613,333.252,224.18z"/>
			</g>
		</g>
	</g>
</g>















</svg>
