<?xml version="1.0" encoding="UTF-8"?>
<!-- Generator: Adobe Illustrator 25.2.1, SVG Export Plug-In . SVG Version: 6.00 Build 0)  -->
<svg xmlns="http://www.w3.org/2000/svg" xmlns:xlink="http://www.w3.org/1999/xlink" version="1.1" id="Capa_1" x="0px" y="0px" viewBox="0 0 512 512" style="enable-background:new 0 0 512 512;" xml:space="preserve" width="512" height="512">
<g>
	<path style="fill:#FFFFFF;" d="M472.801,309.773c0.417-0.609,0.833-1.216,1.243-1.836c0.85-1.286,1.668-2.574,2.491-3.874   l0.431-0.677c0.317-0.495,0.635-0.992,0.935-1.478c1.218-1.977,2.398-3.959,3.534-5.946c0.212-0.368,0.412-0.736,0.613-1.106   l0.228-0.415c0.852-1.518,1.696-3.039,2.516-4.587c0.309-0.582,0.607-1.165,0.903-1.747l0.368-0.721   c0.622-1.214,1.241-2.426,1.836-3.635c0.402-0.82,0.791-1.641,1.18-2.464l0.104-0.222c0.548-1.155,1.087-2.309,1.605-3.455   c0.423-0.928,0.831-1.854,1.243-2.8c0.491-1.127,0.968-2.252,1.442-3.386c0.383-0.922,0.765-1.844,1.146-2.795   c0.457-1.141,0.897-2.281,1.33-3.421l0.203-0.528c0.279-0.727,0.556-1.455,0.823-2.181c0.45-1.227,0.88-2.454,1.296-3.656   l0.245-0.7c0.21-0.591,0.417-1.182,0.613-1.767c0.658-1.964,1.29-3.928,1.89-5.889c23.304-76.231,2.404-146.485,1.504-149.439   c-2.303-7.546-10.009-12.062-17.721-10.387L11.937,193.58c-7.712,1.678-12.847,8.994-11.802,16.816   c0.216,1.618,5.549,40.115,28.434,83.963c0.89,1.711,1.81,3.428,2.762,5.162c1.946,3.544,3.969,7.044,6.014,10.402   c2.161,3.553,4.422,7.078,6.72,10.478c2.404,3.559,4.916,7.082,7.471,10.47c20.927,27.781,46.584,49.57,76.26,64.764   c9.664,4.95,19.897,9.258,30.415,12.804c26.082,8.791,54.952,13.246,85.803,13.246c13.225,0,27.055-0.82,41.126-2.44   c0.125-0.006,0.251-0.013,0.376-0.021c0.911-0.062,22.572-1.59,45.146-9.797c0.742-0.271,1.44-0.545,2.102-0.825   c3.045-1.013,6.171-2.102,9.529-3.316c0.734-0.264,1.455-0.537,2.174-0.81l1.074-0.406c2.224-0.829,4.439-1.662,6.594-2.514   c1.021-0.404,2.028-0.814,3.035-1.227l0.66-0.271c1.962-0.801,3.91-1.609,5.832-2.434c1.25-0.539,2.485-1.083,3.715-1.628   c1.857-0.825,3.686-1.658,5.477-2.495c1.206-0.56,2.407-1.125,3.595-1.698c1.819-0.875,3.608-1.768,5.384-2.664l0.74-0.374   c0.854-0.431,1.709-0.863,2.531-1.292c1.929-1.004,3.811-2.026,5.68-3.053l0.905-0.493c0.579-0.311,1.157-0.624,1.732-0.945   c2.855-1.609,5.454-3.123,7.911-4.614l0.484-0.3c2.434-1.482,4.815-2.986,7.139-4.5c0.586-0.381,1.157-0.768,1.728-1.155   l0.785-0.529c1.62-1.085,3.231-2.172,4.794-3.267c0.73-0.51,1.446-1.028,2.161-1.546l0.603-0.436   c1.434-1.032,2.851-2.068,4.248-3.121c0.928-0.7,1.844-1.404,2.777-2.127c1.33-1.034,2.639-2.07,3.925-3.108   c0.897-0.725,1.791-1.453,2.662-2.18c1.301-1.085,2.574-2.176,3.845-3.282l0.626-0.543c0.605-0.525,1.21-1.049,1.776-1.556   c1.362-1.216,2.683-2.443,3.992-3.669l0.613-0.569c0.45-0.414,0.903-0.833,1.328-1.241c1.905-1.827,3.768-3.669,5.572-5.519   c0.22-0.224,0.431-0.448,0.641-0.674l0.159-0.171c1.546-1.601,3.064-3.214,4.544-4.845c0.429-0.476,0.848-0.952,1.267-1.427   l0.59-0.67c1.074-1.216,2.142-2.43,3.168-3.639c0.592-0.698,1.167-1.4,1.742-2.102l0.254-0.309   c0.943-1.146,1.878-2.297,2.785-3.447c0.664-0.84,1.315-1.683,1.945-2.508c0.878-1.144,1.736-2.29,2.582-3.443   c0.62-0.844,1.237-1.69,1.846-2.542c0.835-1.176,1.649-2.354,2.463-3.546L472.801,309.773z"/>
	<g>
		<path style="fill:#1C9E5F;" d="M488.027,105.473l-32.585,7.092L273.083,212.94l-27.563,5.999L48.337,201.17l-33.178,7.221    c0,0,29.898,223.989,269.402,195.66l-0.056,0.048c0,0,20.165-1.35,40.98-8.919c0.675-0.245,1.294-0.497,1.871-0.754    C553.407,319.727,488.027,105.473,488.027,105.473z"/>
		<path style="fill:#FA3E00;" d="M442.104,115.468l-176.73,38.465l-27.563,5.999L61.085,198.396    c9.528,42.048,41.686,188.005,218.115,167.77l-0.048,0.043c0,0,17.39-1.071,35.299-7.683c0.581-0.214,1.114-0.435,1.609-0.66    C482.188,302.26,450.879,157.452,442.104,115.468z"/>
		<g>
			<path style="fill:#CBD115;" d="M442.104,115.468c8.212,40.106,23.554,176.081-130.625,227.612     c-0.463,0.21-0.961,0.415-1.503,0.615c-16.734,6.167-32.978,7.178-32.978,7.178l0.045-0.04     C113.323,369.678,70.341,238.489,61.085,198.396l-13.416,2.92c9.528,42.048,55.102,185.085,231.531,164.85l-0.048,0.043     c0,0,17.39-1.071,35.299-7.683c0.581-0.214,1.114-0.435,1.609-0.66C482.188,302.26,464.294,154.533,455.52,112.548     L442.104,115.468z"/>
		</g>
		<g>
			<g>
				<path style="fill:#202D7D;" d="M227.044,207.133c1.655,7.604-0.836,14.603-5.564,15.631c-4.728,1.029-9.902-4.301-11.557-11.905      s0.836-14.602,5.564-15.631C220.215,194.199,225.389,199.529,227.044,207.133z"/>
				<path style="fill:#202D7D;" d="M312.18,188.604c1.655,7.604-0.836,14.603-5.564,15.631c-4.728,1.029-9.902-4.301-11.557-11.905      c-1.655-7.604,0.836-14.602,5.564-15.631C305.35,175.67,310.525,181,312.18,188.604z"/>
			</g>
			<g>
				<path style="fill:#202D7D;" d="M280.502,187.437c-0.728,0.28,1.339,4.653,0.488,11.708c-0.458,3.465-1.699,7.549-4.347,11.201      c-2.584,3.654-6.77,6.682-11.748,8.215c-4.991,1.489-10.154,1.296-14.332-0.307c-4.23-1.566-7.53-4.273-9.835-6.9      c-4.626-5.395-5.336-10.179-6.097-10.007c-0.282,0.037-0.503,1.262-0.151,3.437c0.345,2.164,1.366,5.273,3.616,8.595      c2.266,3.267,5.844,6.749,10.861,8.893c4.996,2.197,11.318,2.585,17.301,0.783c5.977-1.824,11.018-5.658,13.953-10.26      c2.981-4.569,4.023-9.452,4.093-13.428c0.026-4.013-0.852-7.165-1.767-9.156C281.62,188.208,280.758,187.312,280.502,187.437z"/>
			</g>
		</g>
		<g>
			<g>
				<path style="fill:#CE2806;" d="M120.414,211.525c-1.565-2.387-3.833-5.555-5.93-7.349c-1.162,2.503-1.908,6.327-2.339,9.149      c-0.437,2.863-0.251,5.948,0.9,8.651c0.78,1.832,2.107,3.532,3.833,4.047c1.601,0.478,3.272,0.102,4.51-0.982      c1.355-1.186,1.856-3.284,1.804-5.274C123.115,216.831,122.002,213.947,120.414,211.525z"/>
			</g>
			<g>
				<path style="fill:#CE2806;" d="M174.245,229.264c-1.565-2.387-3.833-5.555-5.93-7.349c-1.162,2.503-1.908,6.327-2.339,9.149      c-0.438,2.863-0.251,5.948,0.9,8.651c0.78,1.832,2.107,3.532,3.832,4.047c1.601,0.478,3.271,0.102,4.51-0.982      c1.355-1.185,1.856-3.284,1.804-5.274C176.945,234.57,175.833,231.687,174.245,229.264z"/>
			</g>
			<g>
				<path style="fill:#CE2806;" d="M147.425,277.97c-1.565-2.387-3.833-5.555-5.93-7.349c-1.162,2.503-1.908,6.327-2.339,9.149      c-0.437,2.863-0.251,5.948,0.9,8.651c0.78,1.832,2.107,3.532,3.833,4.047c1.601,0.478,3.272,0.102,4.51-0.982      c1.355-1.185,1.856-3.284,1.804-5.274C150.125,283.276,149.012,280.392,147.425,277.97z"/>
			</g>
			<g>
				<path style="fill:#CE2806;" d="M229.398,261.206c-1.565-2.387-3.833-5.555-5.93-7.349c-1.162,2.503-1.908,6.327-2.339,9.149      c-0.438,2.863-0.251,5.948,0.9,8.651c0.78,1.832,2.107,3.532,3.832,4.047c1.601,0.478,3.272,0.102,4.51-0.982      c1.355-1.185,1.856-3.284,1.804-5.274C232.099,266.513,230.986,263.629,229.398,261.206z"/>
			</g>
			<g>
				<path style="fill:#CE2806;" d="M204.053,307.664c-1.565-2.387-3.833-5.555-5.93-7.349c-1.162,2.504-1.908,6.327-2.339,9.149      c-0.438,2.863-0.251,5.948,0.9,8.651c0.78,1.832,2.107,3.532,3.832,4.047c1.601,0.478,3.272,0.102,4.51-0.982      c1.355-1.185,1.856-3.283,1.804-5.274C206.754,312.97,205.641,310.087,204.053,307.664z"/>
			</g>
			<g>
				<path style="fill:#CE2806;" d="M270.826,304.623c-1.565-2.387-3.833-5.555-5.93-7.349c-1.162,2.504-1.908,6.327-2.339,9.149      c-0.437,2.863-0.251,5.948,0.9,8.651c0.78,1.832,2.107,3.532,3.833,4.047c1.601,0.478,3.272,0.102,4.51-0.982      c1.355-1.186,1.856-3.284,1.804-5.274C273.526,309.929,272.414,307.045,270.826,304.623z"/>
			</g>
			<g>
				<path style="fill:#CE2806;" d="M291.81,244.918c-1.565-2.387-3.833-5.555-5.93-7.349c-1.162,2.503-1.908,6.327-2.339,9.149      c-0.438,2.863-0.251,5.948,0.9,8.651c0.78,1.832,2.107,3.532,3.832,4.047c1.601,0.478,3.272,0.102,4.51-0.982      c1.355-1.185,1.856-3.284,1.804-5.274C294.51,250.224,293.398,247.34,291.81,244.918z"/>
			</g>
			<g>
				<path style="fill:#CE2806;" d="M333.172,287.751c-1.565-2.387-3.833-5.555-5.93-7.349c-1.162,2.503-1.908,6.327-2.339,9.149      c-0.437,2.863-0.251,5.948,0.9,8.651c0.78,1.832,2.107,3.532,3.832,4.047c1.601,0.478,3.272,0.102,4.51-0.982      c1.355-1.186,1.856-3.284,1.804-5.274C335.873,293.057,334.76,290.174,333.172,287.751z"/>
			</g>
			<g>
				<path style="fill:#CE2806;" d="M341.138,155.742c-1.565-2.387-3.833-5.555-5.93-7.349c-1.162,2.503-1.908,6.327-2.339,9.149      c-0.437,2.863-0.251,5.948,0.9,8.651c0.78,1.832,2.107,3.532,3.832,4.047c1.601,0.478,3.272,0.102,4.51-0.982      c1.355-1.185,1.856-3.284,1.804-5.274C343.838,161.048,342.726,158.164,341.138,155.742z"/>
			</g>
			<g>
				<path style="fill:#CE2806;" d="M399.796,191.665c-1.565-2.387-3.833-5.555-5.93-7.349c-1.162,2.504-1.908,6.327-2.339,9.149      c-0.437,2.863-0.251,5.948,0.9,8.651c0.78,1.832,2.107,3.532,3.832,4.047c1.601,0.478,3.272,0.102,4.51-0.982      c1.355-1.185,1.856-3.284,1.804-5.274C402.496,196.971,401.384,194.087,399.796,191.665z"/>
			</g>
			<g>
				<path style="fill:#CE2806;" d="M378.171,254.372c-1.565-2.387-3.833-5.555-5.93-7.349c-1.162,2.503-1.908,6.327-2.339,9.149      c-0.437,2.863-0.251,5.948,0.9,8.651c0.78,1.832,2.107,3.532,3.833,4.047c1.601,0.478,3.272,0.102,4.51-0.982      c1.355-1.185,1.856-3.284,1.804-5.274C380.872,259.678,379.759,256.794,378.171,254.372z"/>
			</g>
			<g>
				<path style="fill:#CE2806;" d="M417.556,141.186c-1.565-2.387-3.833-5.555-5.93-7.349c-1.162,2.503-1.908,6.327-2.339,9.149      c-0.437,2.863-0.251,5.948,0.9,8.651c0.78,1.832,2.107,3.532,3.832,4.047c1.601,0.478,3.272,0.102,4.51-0.982      c1.355-1.185,1.856-3.284,1.804-5.274C420.257,146.492,419.144,143.609,417.556,141.186z"/>
			</g>
			<g>
				<path style="fill:#CE2806;" d="M338.391,223.288c-1.565-2.387-3.833-5.555-5.93-7.349c-1.162,2.503-1.908,6.327-2.339,9.149      c-0.437,2.863-0.251,5.948,0.9,8.651c0.78,1.832,2.107,3.532,3.833,4.047c1.601,0.478,3.272,0.102,4.51-0.982      c1.355-1.185,1.856-3.284,1.804-5.274C341.091,228.594,339.978,225.711,338.391,223.288z"/>
			</g>
		</g>
	</g>
</g>















</svg>
