<svg id="Layer_1" enable-background="new 0 0 55 55" viewBox="0 0 55 55" xmlns="http://www.w3.org/2000/svg"><g id="_x35_00"><g><path d="m32.256855 47.8167801c0 .6699829-2.6962261 1.2200317-6.0371056 1.2200317-3.3263035 0-6.022438-.5500488-6.022438-1.2200317 0-.6799927 2.6961346-1.2299805 6.022438-1.2299805 3.3408795 0 6.0371056.5499878 6.0371056 1.2299805z" fill="#181e1e"/></g><g><path d="m51.4060631 35.0569687c.4498863 1.1128578-2.5788498 3.5112457-6.7613373 5.3432884-4.1824417 1.8321609-7.9260368 2.4303246-8.362484 1.3125839-.4498863-1.1128578 2.5788498-3.5112457 6.7612953-5.3434067 4.1825676-1.8320732 7.9260788-2.4302062 8.362526-1.3124656z" fill="#181e1e"/></g><g><g><g><path d="m31.8787079 13.0114479s-4.3278008.1626711-6.2150517.265378c-1.8872528.1027079-4.8144169.3338003-7.0354691 2.2082129s-5.3579016 4.8537292-5.76929 7.7745895c-.4113894 2.9208584 6.0062742 21.268795 18.7593231 20.0757675s15.8796043-10.4492722 15.8796043-10.4492722 4.4244804-8.6194401-3.122261-16.5009155c.0000011 0-3.4244908-3.532813-12.4968556-3.3737602z" fill="#cce949"/></g><g><path d="m33.6784363 43.0619049-2.8649902.3298302 4.3069458-10.772049c-.0000001 0 1.6586418 4.9949608-1.4419556 10.4422188z" fill="#181e1e"/></g><g><path d="m34.5809784 37.2476807c-.6859436 1.9814339-2.7641563 7.4265594-7.7067165 10.2145004-4.9408512 2.7896309-8.9926872 1.2307777-13.2560816.2341156-4.0613451-.9508133-6.2967939-2.8301926-6.5073304-2.950737-.0050983-.0033989-.0101867-.0050964-.0152855-.0084953l-.0016994-.0016899c-.0933819-.0679207-3.0714736-2.3074341-3.5078321-8.4079475-.4431465-6.1972905 3.2497601-12.1925317 6.2872848-14.2945195 1.0968285-.7589607 2.2615776-1.0696659 3.300684-1.1562595 3.0422192-.2490749 4.8785038 1.3840332 6.4519749 1.9763432.4906921.1833649 1.1223125.0305614 3.2429733-.9236507 2.1223602-.9525242 4.3550758-.3888245 4.3550758-.3888245.5025787.1460266.9762859.3124161 1.4194431.4991798 8.0615674 3.400875 6.5878049 13.3284225 5.9375096 15.2079849z" fill="#cce949"/></g><g><path d="m22.2746887 46.864521s-3.2956066 1.8218307-5.4247551.0730095c-2.130847-1.7505226-1.4007578-2.5111732-2.7998161-2.2683754-1.3990574.2444954-3.8406219 1.6690254-6.9392676.0764046-.0050983-.0033989-.0101867-.0050964-.0152855-.0084953l-.0016994-.0016899c-.0933819-.0679207-3.0714736-2.3074341-3.5078321-8.4079475-.4431465-6.1972905 3.2497601-12.1925317 6.2872848-14.2945195 1.0968285-.7589607 2.2615776-1.0696659 3.300684-1.1562595 3.0422192-.2490749 4.8785038 1.3840332 6.4519749 1.9763432.4906921.1833649 1.1223125.0305614 3.2429733-.9236507 1.7647591-.7920322 4.1689072-.7231941 5.774519.1103554 1.3549099.7029285 3.224287 2.3566704 3.4568958 6.1582432.3701401 6.0461786 1.9186134 11.7341021-9.825676 18.6665819z" fill="#cce949"/></g><g><path d="m21.9183464 45.8243217s-3.0233231 1.6713104-4.9765606.0669746c-1.9547968-1.6058922-1.2850266-2.3036995-2.5684948-2.0809631-1.2834673.2242966-3.5233097 1.5311317-6.3659449.0700951-.0046768-.0031166-.0093451-.0046768-.0140224-.0077972l-.0015593-.0015488c-.0856667-.0623093-2.8177085-2.1167946-3.2180147-7.7132797-.4065337-5.6852703 2.9812646-11.1851845 5.7678285-13.1135044 1.0062094-.6962566 2.0747261-.9812927 3.0279818-1.0607319 2.7908697-.2284946 4.4754419 1.2696838 5.9189119 1.8130589.4501514.1682148 1.0295868.0280361 2.9750385-.8473396 1.6189537-.726593 3.8244724-.6634426 5.2974262.1012383 1.2429695.6448536 2.9578972 2.1619625 3.1712894 5.6494503.3395578 5.5466422 1.7600958 10.7646292-9.0138796 17.1243475z" fill="#fff"/></g><g><path d="m20.6846428 31.9849339s1.5470257 1.4148006 1.0049057 3.6493931c0 0-.5871792 1.8267441-2.5949554 1.8079796 0 0-1.7638416-1.6043472-.7505703-2.927227 1.0132694-1.3228837 2.2043552-2.0017167 2.34062-2.5301457z" fill="#181e1e"/></g><g><path d="m16.9557018 31.9958229s-2.0817051-.2478905-3.4201784 1.6218071c0 0-1.0001497 1.637516.3250656 3.1459312 0 0 2.3668356.2883377 2.7071447-1.3428917s.0767155-2.9765968.3879681-3.4248466z" fill="#181e1e"/></g><g><path d="m31.4695644 16.0787849c-2.7172852 0-4.1376953-.7382813-4.2250977-.7861328-.121582-.0644531-.1669922-.2158203-.1020508-.3378906.0644531-.1210938.2172852-.1660156.3378906-.1025391.0307617.0166016 3.1469727 1.6181641 9.0146465-.0205078.1323242-.0371094.2709961.0410156.3081055.1738281s-.0405273.2714844-.1733398.3085938c-2.0532226.5732422-3.7753905.7646484-5.1601543.7646484z" fill="#181e1e"/></g><g><path d="m30.9164581 6.5202713s-.0585976-.5273786-.5566769-.5566773c-.4980812-.0292988-1.9190712.1318445-1.6993313.6299243.2197418.4980793 1.7139797 2.6808395 1.9630203 4.4534168.2490387 1.7725763.3650112 4.7519541.3650112 4.7519541h1.5980053c.0000001 0 .0346681-6.1404515-1.6700286-9.2786179z" fill="#181e1e"/></g><g><path d="m21.6086617 22.4729652s1.2869129-2.129837 1.4680805-3.0908184c.1811695-.9609814.2047997-1.417841.3938446-1.6226406.189045-.2047977 1.8983307-.12603 1.7644253.2993221-.1339073.4253521-.6616592 1.2130413-.890089 1.567503-.2284317.3544598-1.2176895 2.1946049-1.2176895 2.1946049z" fill="#181e1e"/></g></g><g><path d="m34.2605782 28.6979256c-1.0691376-3.5136814-3.4475994-5.8571301-7.1059551-6.9169922-.1328125-.0380859-.2089844-.1767578-.1708984-.3095703s.1772461-.2119141.3095703-.1708984c3.810421 1.1064873 6.3194103 3.5511894 7.4457989 7.2509766.0400391.1328125-.0341797.2724609-.1665039.3125-.1444742.0404528-.2744867-.0428086-.3120118-.1660157z" fill="#181e1e"/></g><g><path d="m5.860189 26.806324c-.1196289-.0683594-.1616211-.2207031-.0932617-.3408203 1.1376953-1.9921875 2.58252-3.6826172 3.9643559-4.6386719 2.1059122-1.4569073 5.0709963-1.6816807 7.7592773-.3037109.1225586.0634766.1713867.2138672.1083984.3369141-.0629883.1220703-.2133789.1699219-.3369141.1083984-2.3459578-1.2026463-5.1428614-1.1860867-7.246582.2705078-1.3222656.9140625-2.7124028 2.5449219-3.8139653 4.4746094-.0687465.1201267-.2217497.16152-.3413085.0927734z" fill="#181e1e"/></g><g><path d="m19.8269863 36.5260506c-.074707-.1152344-.0410156-.2705078.0751953-.3447266.3950195-.2539063.6835938-.6816406.7714844-1.1435547.0630684-.3371735.5516071-.223053.4912109.09375-.1132813.59375-.484375 1.1435547-.9921875 1.4697266-.1138649.0741424-.2703342.0432396-.3457031-.0751953z" fill="#fff"/></g><g><path d="m14.052084 35.8121834c-.1708984-.5703125-.1835938-1.1757813-.0371094-1.7529297.081562-.3192596.5662708-.1975212.484375.1230469-.1240234.4892578-.1132813 1.0029297.03125 1.4873047.0400391.1318359-.0351563.2714844-.1674805.3105469-.1221866.0398978-.2698002-.0292702-.3110351-.1679688z" fill="#fff"/></g><g><path d="m46.7337227 29.7799568c-.1269531-.0546875-.1855469-.2011719-.1308594-.328125.234375-.546875.3520508-1.1513672.3388672-1.7480469-.0067101-.3176403.4925423-.3623199.5-.0117188.0141602.6689453-.1166992 1.3457031-.3798828 1.9570313-.0525475.1228257-.1960297.1868992-.328125.1308594z" fill="#181e1e"/></g><g><path d="m38.8968086 28.368824c-.0454102-.2578125-.1147461-.5107422-.2055664-.7519531-.0488281-.1289063.0166016-.2734375.1455078-.3222656.1308594-.046875.2739258.0166016.3222656.1464844.1020508.2695313.1791992.5527344.2299805.8417969.0570793.3238276-.4339409.4168777-.4921875.0859374z" fill="#181e1e"/></g><g><path d="m40.8621407 20.9117928c.0317383-.3876953-.112793-.7851563-.3867188-1.0615234-.097168-.0976563-.0961914-.2568359.0019531-.3535156.0986328-.0957031.2568359-.0966797.3535156.0019531.375.3789063.5732422.9228516.5292969 1.4541016-.0272865.332405-.5250549.2901362-.4980468-.0410157z" fill="#181e1e"/></g><g><path d="m38.7561836 38.8580818c-.1225586-.0625-.1708984-.2138672-.1074219-.3369141.2915039-.5625.4101563-1.2207031.3349609-1.8505859-.0166016-.1367188.0810547-.2607422.2182617-.2773438.1333008-.0166016.2612305.0810547.277832.21875.0874023.7275391-.050293 1.4873047-.3867188 2.1396484-.0649603.1256372-.2195814.1690217-.3369139.1064454z" fill="#181e1e"/></g><g><path d="m23.0081387 47.9772224c-.324255-.080471-.1937771-.5720482.1220703-.484375.5751953.1425781 1.2241211.0039063 1.6884766-.3701172.2597847-.2050323.5701447.1829567.3134766.390625-.6036988.4837761-1.4275056.6407013-2.1240235.4638672z" fill="#181e1e"/></g><g><path d="m11.9305019 46.2340584c-.3102102-.0965118-.1762037-.5699615.1474609-.4785156.7109375.2207031 1.5249023.1337891 2.1743164-.2265625.2895422-.1594238.5322905.2759628.2431641.4375-.7817268.4336814-1.7439498.519989-2.5649414.2675781z" fill="#181e1e"/></g><g><g><path d="m44.437336 19.8112068-2.1474609-3.2890625c-.1422424-.2178135.1054115-.4819813.3300781-.3554688.1933594.1054688.3916016.2431641.5854492.4033203.0546875-.0126953.0986328.0126953.1425781.0410156 1.0073242.6650391 1.6152344 1.8720703 1.5483398 3.0771484-.0130691.2418405-.3288459.3236734-.4589843.123047z" fill="#fff"/></g><g><path d="m41.4095039 15.9576912c-.1132813.078125-.2871094.0439453-.3662109-.0683594-.206562-.2940054.1919823-.5530748.5444336-.3984375.3729553.1589289.4258347.6278725.1064453.6757813-.0126953.0019531-.26437-.0743771-.284668-.2089844z" fill="#fff"/></g></g><g><g><path d="m18.4275723 17.9362068c.3466797-.9501953 1.215332-1.6796875 2.2133789-1.8603516.0454102-.0087891.0908203-.0029297.1318359.0117188.1977539-.0576172.390625-.0957031.5703125-.1142578.2600079-.0242386.378828.3139362.1630859.4570313l-2.7055664 1.7998047c-.1984653.1338481-.45615-.0665055-.3730468-.2939454z" fill="#fff"/></g></g><g><path d="m31.2146816 38.6285896 1.5161114-3.6240234c.1004333-.2410393.4553795-.1832504.4794922.0732422.0205078.2197266.0185547.4609375-.0053711.7109375.0283203.0400391.0454102.0888672.0458984.1416016.015625 1.2060547-.6425781 2.3876953-1.6767559 3.0087891-.2038173.1242789-.4536819-.0868417-.359375-.310547z" fill="#fff"/></g><g><path d="m32.6892891 34.3121834c-.09375-.1015625-.0874023-.2597656.0136719-.3535156-.1289063-.0488281-.1982422-.2119141-.1489258-.3408203.0483398-.1298828.1899414-.2119141.3178711-.1640625.3465271.1307259.4427719.6199913.1708984.8720703-.0483398.0449218-.2579117.0885543-.3535156-.0136719z" fill="#fff"/></g><g><path d="m30.9295254 9.1647224c-.121582-.5097656-.3261719-.9921875-.6079102-1.4335942-.0742188-.1162109-.0400391-.2714844.0766602-.3457031.1162109-.0722656.2709961-.0390625.3452148.0761719.3115234.4892578.5380859 1.023438.6723633 1.5878911.0322266.1337891-.0507813.2685547-.1850586.3007813-.1278686.0319671-.2682438-.0463649-.3012695-.185547z" fill="#fff"/></g></g><g><path d="m7.8694663 37.7760506c-.487793-.7041016-.7558594-1.5644531-.7553711-2.4208984 0-.1376953.1118164-.25.25-.25.1381836 0 .25.1123047.25.25-.0004883.7558594.2363281 1.5146484.6665044 2.1357422.0786133.1132813.050293.2695313-.0629883.3476563-.1130628.0787619-.2689547.0515326-.348145-.0625001z" fill="#181e1e"/></g><g><path d="m28.3147793 27.6949959c-.1590939 0-.276104-.1446762-.2456055-.2988281.1822243-.9202805-.3852406-1.8367443-1.3037109-2.0771484-.3135338-.0826912-.2023907-.562006.1269531-.484375 1.1658688.3060017 1.9023552 1.4721336 1.6669922 2.6591797-.0234375.1191405-.1279297.2011718-.2446289.2011718z" fill="#181e1e"/></g></g></svg>