<svg height="512" viewBox="0 0 512 512" width="512" xmlns="http://www.w3.org/2000/svg"><g id="Astrology"><path d="m147.45 145c-28.2 18.24-69.41-14.84-85.87 2.37-11.75 12.23-2.48 41.63 7.68 61.29 37.54 72.44 160.2 21.76 201.47 72.84 57.46 71.12 187.4-31.13 188-60.82.3-15.57-25.81-20.05-61.43-66.1-18.07-23.36-18.73-31.74-29.39-46.41-43.39-59.7-152.4-85.83-189.37-49.76-26 25.34-3.33 68.59-31.09 86.59z" fill="#fff3e3"/><g fill="#ff832f"><path d="m328.53 164.5c3.81 0 3.25 5.9-.54 5.9s-3.25-5.9.54-5.9z"/><path d="m238.58 61.33c3.81 0 3.25 5.89-.54 5.89s-3.25-5.89.54-5.89z"/><path d="m101 194.27c3.8 0 3.24 5.89-.55 5.89s-3.22-5.89.55-5.89z"/><path d="m316 256.44c3.8 0 3.24 5.89-.55 5.89s-3.27-5.89.55-5.89z"/><path d="m395.33 184.34c3.81 0 3.25 5.9-.54 5.9s-3.25-5.9.54-5.9z"/><path d="m246.52 119.53c3.81 0 3.24 5.89-.55 5.89s-3.24-5.89.55-5.89z"/><path d="m362.26 128.13c3.81 0 3.25 5.89-.54 5.89s-3.25-5.89.54-5.89z"/><path d="m188.32 81.83c3.8 0 3.24 5.89-.55 5.89s-3.24-5.89.55-5.89z"/></g><path d="m95.57 298.22a24.71 24.71 0 0 1 6.17 4.12 25.7 25.7 0 0 1 7.49 12.92 19 19 0 0 1 4.68-12 18.75 18.75 0 0 1 9.17-5.62 17.58 17.58 0 0 1 -8.42-3.56 18.28 18.28 0 0 1 -6.55-11.23 16.16 16.16 0 0 1 -2.81 8.8 16.46 16.46 0 0 1 -9.73 6.57z" fill="#ffb833"/><path d="m118.45 311.19a8.15 8.15 0 0 1 2.08 1.39 8.57 8.57 0 0 1 2.52 4.35 6.41 6.41 0 0 1 1.58-4 6.3 6.3 0 0 1 3.09-1.89 6 6 0 0 1 -2.84-1.2 6.22 6.22 0 0 1 -2.21-3.78 5.42 5.42 0 0 1 -.94 3 5.59 5.59 0 0 1 -3.28 2.13z" fill="#ffb833"/><path d="m94.1 287.6a5.77 5.77 0 0 1 1.43.95 5.9 5.9 0 0 1 1.72 3 4.41 4.41 0 0 1 1.08-2.77 4.34 4.34 0 0 1 2.12-1.29 4.19 4.19 0 0 1 -2-.82 4.26 4.26 0 0 1 -1.45-2.61 3.7 3.7 0 0 1 -.64 2 3.86 3.86 0 0 1 -2.26 1.54z" fill="#ffb833"/><path d="m416.4 139.61a17.77 17.77 0 0 1 4.49 3 18.69 18.69 0 0 1 5.45 9.39 13.46 13.46 0 0 1 10.06-12.8 12.93 12.93 0 0 1 -6.12-2.58 13.27 13.27 0 0 1 -4.76-8.17 11.75 11.75 0 0 1 -2 6.4 12 12 0 0 1 -7.12 4.76z" fill="#ffb833"/><path d="m433 149a6.22 6.22 0 0 1 1.52 1 6.34 6.34 0 0 1 1.83 3.16 4.64 4.64 0 0 1 1.15-2.93 4.48 4.48 0 0 1 2.24-1.37 4.31 4.31 0 0 1 -2.06-.88 4.42 4.42 0 0 1 -1.6-2.75 3.91 3.91 0 0 1 -3.08 3.77z" fill="#ffb833"/><path d="m415.34 131.89a4.11 4.11 0 0 1 2.29 2.85 3.19 3.19 0 0 1 .78-2 3.22 3.22 0 0 1 1.54-1 2.94 2.94 0 0 1 -1.41-.59 3 3 0 0 1 -1.1-1.88 2.63 2.63 0 0 1 -.47 1.47 2.77 2.77 0 0 1 -1.63 1.15z" fill="#ffb833"/><circle cx="224.94" cy="242.73" fill="#ffdb99" r="68.67"/><path d="m191 301.56s38.51 32.21 70.72 14.7 41.28-102.26 41.28-102.26-41.68-51.36-84.73-35-27.27 122.56-27.27 122.56z" fill="#ffdb99"/><path d="m293.21 251.14s-1.75 9.8 3.68 15.75.53 16.11-13.65 11.56l-1.41-11.56z" fill="#ffdb99"/><path d="m262.19 238.32a24.33 24.33 0 0 1 14.66-1.22c3.33.7 7.84 1.65 8.6 4.58a3.71 3.71 0 0 1 -.95 3.63c-2.05 1.71-5.51-1.09-11.8-2.64-8.28-2-14.43-.18-14.69-1.5-.19-.96 2.99-2.31 4.18-2.85z" fill="#383333"/><ellipse cx="252.99" cy="265.36" fill="#ffc871" rx="5.89" ry="9.46" transform="matrix(.276 -.961 .961 .276 -71.86 435.34)"/><path d="m261.66 279c.2 5.73 3.7 10.48 8.4 11.76a11.53 11.53 0 0 0 8.66-1.39c-4.37 8.06-10.58 12.49-14.25 11.58-8.53-2.09-5.07-18.19-2.81-21.95z" fill="#fff"/><path d="m263.19 304.57a6.34 6.34 0 0 1 -5.53-3.19.38.38 0 0 1 .67-.34 5.5 5.5 0 0 0 5.3 2.77.37.37 0 1 1 .05.74 4.1 4.1 0 0 1 -.49.02z" fill="#383333"/><path d="m214 234c-.49-.94-3.22-5.93-9-7.36-.85-.21-4.21-1-7.1.3-7.49 3.5-10.83 21.16-2.34 28.76 4.74 4.24 11.42 3.76 13.7 3.49q2.33-12.65 4.74-25.19z" fill="#ffdb99"/><path d="m201.31 251.69a.38.38 0 0 1 -.33-.2c-1.69-3.19-2-6-.92-8.43 1.32-2.95 4.37-4.47 6.08-5.12l-8.5-2.35a.37.37 0 0 1 -.26-.46.37.37 0 0 1 .46-.26l9.71 2.68a.38.38 0 0 1 0 .73s-5.1 1.29-6.8 5.09c-1 2.18-.67 4.8.9 7.77a.38.38 0 0 1 -.15.51.39.39 0 0 1 -.19.04z" fill="#383333"/><path d="m177.2 271.6s-2.32 36.31-10.25 49.87-29.11 17.2-39.69 93.76c0 0 58.22 27.61 127 11.73 0 0-9.69-61.51-29.32-78s-5.75-52.96-5.75-52.96-10.58-25.67-41.99-24.4z" fill="#ffdb99"/><path d="m163.21 326.46a318.55 318.55 0 0 1 36.37 11.79c14.82 5.8 22.22 8.71 28.22 13.47 4.1 3.26 12.93 11.39 23.37 53a617.25 617.25 0 0 1 12.48 67.46s-94.33 19.84-146.41 0c0 0 11.09-137.67 45.97-145.72z" fill="#ff832f"/><path d="m346.55 355.15 58.64 34.29 41.11-126.56-57.5-39.34q-21.12 65.81-42.25 131.61z" fill="#ff832f"/><path d="m337.43 344.34 67.76 45.1 41.11-126.56a290.5 290.5 0 0 1 -46.15-24.88c-7.53-5-14.41-10.06-20.67-15.06z" fill="#ffdb99"/><path d="m323.15 243.38h105.16v133.07h-105.16z" fill="#ffb833" transform="matrix(-.951 -.309 .309 -.951 637.34 720.75)"/><circle cx="383.23" cy="293.11" fill="#ff832f" r="22.54"/><path d="m352.77 403.43s20.74-22.79 29.59-28.38 20.58-5.31 23.38-10.91-22.91-1.51-22.77-3.63 23.89-8.6 25.8-14.74-27.45 5.88-27.63 2.51 18.81-17.66 14-20.27-22.94 13.83-25.71 13.15 7.62-21.79 2.24-22.84-21.27 31.26-24.48 31.94-4-10.9-10.19-10.93.57 13.09-.88 20.56-.73 13.45-12.32 21.79c-.02 0 5.69 22.56 28.97 21.75z" fill="#ffdb99"/><path d="m197.74 351.72a320.56 320.56 0 0 0 71.16 69.21l62.34-47.46a78.6 78.6 0 0 1 21.49 14.22 77.48 77.48 0 0 1 9.92 11.25 275.36 275.36 0 0 1 -35.71 40.59c-22.17 20.66-40.49 37.26-65.15 37.12-8 0-14-1.86-22.53-4.47a122.15 122.15 0 0 1 -47.12-27.28c-9.91-9.16-30.79-28.46-31.25-55.56-.1-5.94-.3-17.58 8.11-26.88 10.46-11.58 26.21-10.89 28.74-10.74z" fill="#ff832f"/><path d="m318.88 209.28c2.36 10.5-5.45 23.11-19.27 26.58l3.39-21.86s-26.88 3.88-55-.92-25.56 32.18-31.39 34.92-3.41-14.92-7.49-19.57-12.26-4.53-16.27 3.9-3.18 23.24 9.38 26.53-7.62 13.87-14.06 26.77-14.38 18.83-22.32 4.45-29.76-53.56 0-100.68 104.97-47.4 137.15 4.5c8 2.39 14.26 8.19 15.88 15.38z" fill="#383333"/><path d="m198.92 165.79s22.28-22.32-1.18-38.19-24.12 21-35.36 19.1-24.47 1.4-22.82 14.3-2.6 18.52-.14 27.78 17.67 14.22 31.22 5.62 28.28-28.61 28.28-28.61z" fill="#383333"/><path d="m252 408.6a.51.51 0 0 1 -.39-.19c-.41-.53-41-52.29-67.17-50.64a.5.5 0 0 1 -.06-1c11.24-.69 26.13 7.69 44.21 24.93a270.79 270.79 0 0 1 23.81 26.09.49.49 0 0 1 -.09.7.45.45 0 0 1 -.31.11z" fill="#383333"/><path d="m248.64 475.38a.41.41 0 0 1 -.21-.05c-24.27-11.65-57.13-31.21-75.92-58.23-11.27-16.21-12.09-27.26-12.12-27.73a.5.5 0 0 1 .47-.53.52.52 0 0 1 .53.47c0 .11.85 11.3 12 27.31 10.31 14.78 31.77 36.82 75.47 57.81a.5.5 0 0 1 .23.67.48.48 0 0 1 -.45.28z" fill="#383333"/><path d="m254.26 455.65h-.06a.5.5 0 0 1 -.44-.55c1.72-15.49 14.6-34.27 14.73-34.46a.5.5 0 0 1 .69-.12.49.49 0 0 1 .13.69c-.13.19-12.86 18.76-14.56 34a.49.49 0 0 1 -.49.44z" fill="#383333"/><path d="m219.79 224a.5.5 0 0 1 -.46-.54 19.28 19.28 0 0 1 7.16-14c7.18-5.72 19.57-7.54 35.85-5.27 22.52 3.15 32.18-7.18 32.27-7.28a.5.5 0 1 1 .74.67c-.4.44-10.07 10.82-33.15 7.6-16-2.23-28.13-.48-35.08 5.06a18.31 18.31 0 0 0 -6.79 13.34.49.49 0 0 1 -.54.42z" fill="#fff"/><path d="m304.62 228.47a.5.5 0 0 1 -.32-.89c8.07-6.49 3.36-20.8 3.31-21a.5.5 0 0 1 .32-.63.5.5 0 0 1 .63.31 32.9 32.9 0 0 1 1.45 8.35c.25 6.08-1.51 10.82-5.08 13.7a.51.51 0 0 1 -.31.16z" fill="#fff"/><path d="m196 212.64a14.39 14.39 0 0 1 -3.06-.32c-10.18-2.17-16-14.38-16.24-14.9a.5.5 0 0 1 .9-.42c.06.12 5.86 12.28 15.56 14.34 5 1.07 10.17-.7 15.44-5.25 19.48-16.82 49.68-12.36 50-12.32a.5.5 0 1 1 -.15 1c-.3 0-30.05-4.43-49.18 12.09-4.5 3.84-8.95 5.78-13.27 5.78z" fill="#fff"/><path d="m272.66 265.55a6.35 6.35 0 1 1 3.14-8.4 6.36 6.36 0 0 1 -3.14 8.4z" fill="#383333" fill-rule="evenodd"/><path d="m261.19 252.66c.17-.08.73 2.35 2.3 2.66 1.16.24 1.83-.91 3.6-1.56a7.56 7.56 0 0 1 4.7-.07 16 16 0 0 1 -3.53 2.79c-1.84 1.09-3 1.79-4.25 1.44-2.47-.72-3.01-5.17-2.82-5.26z" fill="#383333" fill-rule="evenodd"/><path d="m166.22 191.92a80.1 80.1 0 0 0 -22.82 34.22c-2.65 7.89-7.79 23.23-2 40.52 4.84 14.42 18.2 32.83 35.71 33.23a28.36 28.36 0 0 0 15.89-4.71c13.63-8.69 19.37-28.28 13.76-34.35-2.62-2.83-6-.86-14.43-3.43a43.85 43.85 0 0 1 -15.71-8.77c.9-7.45 6.08-52.65-6.34-56.72a7 7 0 0 0 -4.06.01z" fill="#383333"/><circle cx="86.9" cy="135.37" fill="#ffb833" r="35.6"/><path d="m270.37 106.27c-4.94 0-8.37-1-9.39-3.61-4.05-10.22 36.67-29.51 58.77-38.28s65-22.65 69-12.42c.6 1.52 2.43 6.14-15.88 17.47-11 6.8-26.21 14.19-42.89 20.8s-44.81 16.04-59.61 16.04zm-5.67-5.08s2 2.87 19-.61c12.43-2.54 28.35-7.53 44.81-14.06s31.49-13.81 42.29-20.52c14.8-9.16 14.27-12.57 14.26-12.6s-2-2.87-19 .61c-12.43 2.54-28.35 7.53-44.81 14.06s-31.5 13.84-42.25 20.52c-14.79 9.15-14.27 12.56-14.26 12.6z" fill="#383333"/><circle cx="324.88" cy="77.31" fill="#ff832f" r="46.3"/><path d="m279.57 105.38a2 2 0 0 1 -.23-4c37.81-4.47 94.81-37.56 95.39-37.89a2 2 0 1 1 2 3.45c-.13.06-14.66 8.56-33.73 17.46-25.68 12-46.94 19-63.19 21z" fill="#383333"/><path d="m168.53 290.62a.51.51 0 0 1 -.2 0c-31.12-13.91-16.14-70.19-16-70.76a.5.5 0 1 1 1 .26c-.15.56-14.91 56 15.43 69.59a.5.5 0 0 1 -.21.95z" fill="#fff"/><path d="m189.15 279.57c-9.5 0-16.9-3.07-22-9.13-6.66-7.9-8.15-19.57-8.22-28a86.91 86.91 0 0 1 1.44-16.44.5.5 0 0 1 .6-.39.49.49 0 0 1 .38.59c-.06.29-5.84 28.83 6.57 43.56 5.18 6.15 12.85 9.1 22.82 8.74a.52.52 0 0 1 .52.48.5.5 0 0 1 -.48.52z" fill="#fff"/><path d="m207.45 176.3a.52.52 0 0 1 -.41-.21.5.5 0 0 1 .12-.7c30.24-21.36 61.66-1.95 62-1.75a.51.51 0 0 1 .16.69.5.5 0 0 1 -.69.15c-.31-.19-31.18-19.24-60.86 1.73a.52.52 0 0 1 -.32.09z" fill="#fff"/><path d="m195 153.07a.45.45 0 0 1 -.25-.07.49.49 0 0 1 -.18-.68c2.86-4.95 3.64-9.49 2.3-13.51-2.11-6.32-8.82-9.23-8.89-9.26a.5.5 0 0 1 -.26-.65.49.49 0 0 1 .65-.27c.29.12 7.19 3.11 9.45 9.86 1.43 4.3.63 9.12-2.39 14.33a.5.5 0 0 1 -.43.25z" fill="#fff"/><path d="m170.52 155a.48.48 0 0 1 -.46-.32.49.49 0 0 1 .27-.65c5.19-2.11 8.44-4.78 9.64-7.92a6.82 6.82 0 0 0 0-5.08.5.5 0 0 1 .23-.67.51.51 0 0 1 .67.23 7.69 7.69 0 0 1 0 5.85c-1.29 3.42-4.73 6.29-10.2 8.52a.65.65 0 0 1 -.15.04z" fill="#fff"/><path d="m168.69 171.33c-7.54 0-12.34-3-15.17-5.78a19.93 19.93 0 0 1 -5-7.88.51.51 0 0 1 .34-.62.5.5 0 0 1 .62.34c.19.64 4.77 15.69 24.25 12.51a.52.52 0 0 1 .58.42.5.5 0 0 1 -.42.57 33 33 0 0 1 -5.2.44z" fill="#fff"/><path d="m160.51 188.49c-6.21 0-10.54-1.37-12.91-4.11a7.92 7.92 0 0 1 -1.71-6.81.5.5 0 0 1 .61-.35.5.5 0 0 1 .36.61 7 7 0 0 0 1.51 5.91c2.81 3.23 9.08 4.41 18.12 3.39a.5.5 0 1 1 .12 1 54.31 54.31 0 0 1 -6.1.36z" fill="#fff"/><path d="m214.76 316.19a.39.39 0 0 1 -.18 0c-5.45-2.09-18-11.16-18.56-11.55a.51.51 0 0 1 -.11-.7.5.5 0 0 1 .69-.11c.13.09 13 9.38 18.34 11.43a.5.5 0 0 1 .29.65.52.52 0 0 1 -.47.28z" fill="#383333"/></g></svg>