<?xml version="1.0" encoding="UTF-8"?>
<!-- Generator: Adobe Illustrator 25.1.0, SVG Export Plug-In . SVG Version: 6.00 Build 0)  -->
<svg xmlns="http://www.w3.org/2000/svg" xmlns:xlink="http://www.w3.org/1999/xlink" version="1.1" id="Capa_1" x="0px" y="0px" viewBox="0 0 500 500" style="enable-background:new 0 0 500 500;" xml:space="preserve" width="512" height="512">
<g>
	<path style="fill:#251426;" d="M457.895,254.952c0.104,0,0.209-0.014,0.315-0.043c5.288-1.456,22.648-6.516,24.08-10.458   c0.241-0.664,0.158-1.343-0.236-1.912c-2.141-3.095-14.559-4.63-20.926-5.222c5.529-4.24,17.506-14.262,17.506-21.464   c0-1.325-0.556-2.376-1.608-3.039c-4.488-2.816-18.481,2.699-26.058,6.049c4.653-6.37,13.02-18.724,12.241-24.186   c-0.153-1.08-0.626-1.913-1.402-2.474c-0.996-0.715-6.854-3.235-27.697,14.496c1.678-7.272,4.796-23.292,1.293-29.108   c-0.762-1.266-1.796-2.056-3.07-2.347c-1.497-0.351-2.984-0.052-4.41,0.872c-6.636,4.312-10.181,22.083-10.327,22.838   c-0.127,0.643,0.292,1.266,0.936,1.393c0.635,0.122,1.267-0.292,1.39-0.936c0.955-4.866,4.484-18.179,9.294-21.305   c0.874-0.568,1.722-0.75,2.588-0.549c0.63,0.145,1.142,0.556,1.566,1.259c3.302,5.481-0.649,24.176-2.449,30.916   c-0.134,0.505,0.079,1.039,0.521,1.314c0.447,0.275,1.02,0.227,1.411-0.118c9.5-8.379,24.346-19.13,27.562-16.801   c0.153,0.11,0.364,0.321,0.443,0.884c0.737,5.174-10.288,20.64-14.6,26.163c-0.338,0.434-0.334,1.045,0.012,1.474   c0.348,0.431,0.943,0.563,1.439,0.326c8.993-4.316,24.571-10.349,28.051-8.149c0.26,0.163,0.5,0.401,0.5,1.03   c0,6.446-13.754,17.648-19.054,21.421c-0.408,0.29-0.589,0.805-0.454,1.287s0.558,0.827,1.059,0.862   c9.711,0.691,20.502,2.489,22.191,4.342c-1.07,1.901-12.295,6.065-22.423,8.856c-0.633,0.174-1.003,0.827-0.83,1.459   C456.897,254.607,457.374,254.952,457.895,254.952z"/>
	<path style="fill:#251426;" d="M24.762,253.133c0.533,0,1.017-0.359,1.152-0.899c0.158-0.635-0.227-1.279-0.864-1.438   c-10.191-2.55-21.51-6.445-22.627-8.32c1.645-1.894,12.39-3.948,22.082-4.871c0.5-0.046,0.915-0.402,1.038-0.887   c0.125-0.484-0.07-0.995-0.484-1.276c-5.387-3.646-19.406-14.519-19.559-20.96c-0.016-0.629,0.22-0.872,0.475-1.043   c3.432-2.271,19.142,3.38,28.239,7.48c0.496,0.226,1.094,0.078,1.427-0.359c0.336-0.437,0.327-1.047-0.023-1.474   c-4.44-5.42-15.831-20.62-15.217-25.808c0.065-0.565,0.271-0.781,0.419-0.893c3.191-2.407,18.261,7.992,27.958,16.14   c0.396,0.336,0.971,0.371,1.411,0.085c0.438-0.285,0.637-0.825,0.489-1.327c-1.96-6.695-6.354-25.29-3.184-30.849   c0.408-0.713,0.911-1.137,1.536-1.296c0.86-0.215,1.715-0.059,2.6,0.488c4.889,3.013,8.731,16.236,9.799,21.078   c0.141,0.638,0.767,1.047,1.413,0.903c0.64-0.141,1.045-0.774,0.904-1.415c-0.165-0.751-4.134-18.433-10.87-22.585   c-1.444-0.891-2.943-1.146-4.43-0.767c-1.267,0.321-2.28,1.135-3.012,2.419c-3.364,5.898,0.134,21.839,1.986,29.069   c-21.248-17.222-27.05-14.57-28.035-13.833c-0.762,0.579-1.214,1.423-1.342,2.506c-0.649,5.48,8.01,17.631,12.814,23.89   c-7.658-3.171-21.786-8.343-26.195-5.428c-1.036,0.688-1.566,1.752-1.536,3.076c0.171,7.199,12.385,16.932,18.011,21.041   c-6.351,0.744-18.727,2.573-20.794,5.719c-0.38,0.578-0.447,1.259-0.192,1.917c1.527,3.907,19.003,8.551,24.323,9.881   C24.57,253.121,24.667,253.133,24.762,253.133z"/>
	<path style="fill:#DA9395;" d="M174.554,226.03c0,0-114.576,54.544-104.729,262.35H395.68c0,0,55.06-148.03-96.957-256.195   C298.723,232.184,232.638,190.597,174.554,226.03z"/>
	<path style="fill:#DA9395;" d="M298.723,232.184c0,0,137.781-33.555-4.279-179.602c0,0,46.341-24.831,33.218-38.75   c-24.473-25.96-85.419-11.292-54.573,28.759c0,0-68.615-20.853-108.726,6.055c0,0-14.741-37.21-36.123-37.21   c-13.406,0-71.07,45.978,14.349,52.66c0,0-94.575,112.274,8.74,162.63C151.328,226.726,246.522,274.894,298.723,232.184z"/>
	<path style="fill:#FFE9CB;" d="M291.804,215.029c0,0-9.773-108.163-57.323-102.499c-34.251,4.08-64.427,94.604-43.151,109.84   C207.883,234.224,286.8,243.568,291.804,215.029z"/>
	<path style="fill:#251326;" d="M263.526,143.514c0,0-5.269,26.642-22.151,22.719s-21.786-31.711-5.114-37.922   C252.934,122.102,264.285,136.217,263.526,143.514z"/>
	<path style="fill:#251426;" d="M188.479,113.363c0.415,0,0.832-0.064,1.244-0.193c8.434-2.637,8.678-26.382,8.678-29.08   c0-0.655-0.531-1.186-1.186-1.186s-1.186,0.531-1.186,1.186c-0.002,9.52-1.907,25.22-7.014,26.816   c-0.549,0.169-1.064,0.087-1.624-0.27c-4.623-2.96-7.786-20.276-8.613-26.698c-0.086-0.65-0.665-1.103-1.33-1.025   c-0.649,0.085-1.108,0.679-1.024,1.329c0.32,2.476,3.307,24.304,9.688,28.392C186.866,113.118,187.67,113.363,188.479,113.363z"/>
	<path style="fill:#251426;" d="M283.068,117.312c0.415,0,0.832-0.064,1.244-0.193c8.434-2.638,8.678-26.382,8.678-29.08   c0-0.655-0.531-1.186-1.186-1.186c-0.656,0-1.186,0.531-1.186,1.186c-0.002,9.52-1.907,25.218-7.014,26.816   c-0.547,0.168-1.064,0.088-1.624-0.27c-4.623-2.96-7.786-20.276-8.613-26.698c-0.086-0.65-0.658-1.098-1.33-1.025   c-0.649,0.085-1.108,0.679-1.024,1.329c0.32,2.476,3.307,24.304,9.688,28.392C281.456,117.068,282.26,117.312,283.068,117.312z"/>
	<path style="fill:#251426;" d="M232.469,204.691c0.938,0,1.837-0.342,2.683-1.018c5.946-4.761,8.077-26.737,8.302-29.227   c0.058-0.653-0.424-1.229-1.075-1.288c-0.644-0.071-1.228,0.421-1.288,1.075c-0.584,6.488-3.052,24.091-7.422,27.589   c-0.644,0.514-1.117,0.523-1.409,0.483c-5.315-0.702-8.159-18.927-8.703-30.25c-0.03-0.653-0.524-1.161-1.242-1.128   c-0.653,0.031-1.159,0.587-1.126,1.242c0.153,3.2,1.759,31.301,10.761,32.488C232.124,204.68,232.298,204.691,232.469,204.691z"/>
	<path style="fill:#251426;" d="M224.742,117.315c0.586,0,1.094-0.434,1.175-1.031c3.374-25.493-0.767-45.182-12.306-58.517   c-14.475-16.725-35.123-17.175-35.997-17.185c-0.744-0.024-1.191,0.517-1.2,1.17c-0.009,0.656,0.517,1.193,1.17,1.203   c0.204,0.002,20.497,0.468,34.254,16.389c11.06,12.801,15.006,31.854,11.725,56.629c-0.086,0.649,0.371,1.245,1.022,1.331   C224.637,117.311,224.688,117.315,224.742,117.315z"/>
	<path style="fill:#251426;" d="M251.662,117.315c0.083,0,0.167-0.008,0.248-0.025c0.642-0.137,1.052-0.767,0.915-1.408   c-8.159-38.367,12.95-74.151,13.164-74.508c0.336-0.562,0.155-1.291-0.408-1.628c-0.556-0.334-1.288-0.156-1.627,0.407   c-0.218,0.365-21.806,36.923-13.451,76.223C250.622,116.932,251.115,117.315,251.662,117.315z"/>
	<path style="fill:#DA9395;" d="M339.663,264.196c0,0,45.727-46.105,65.733-68.193c19.015-20.993,81.376,31.811,52.903,68.193   s-131.291,45.873-131.291,45.873S327.06,276.974,339.663,264.196z"/>
	<path style="fill:#251426;" d="M18.601,476.931c-3.228-6.284-3.017-14.46,0.023-21.491c-6.462-9.354-10.156-25.763-0.403-40.255   c5.13-7.618,11.701-11.496,18.525-10.941c1.791,0.148,3.538,0.618,5.17,1.356c1.42-1.843,3.096-3.559,5.035-5.066   c3.598-2.801,7.368-3.646,11.187-2.519c12.911,3.811,21.92,29.237,22.295,30.318c0.218,0.618-0.109,1.294-0.728,1.511   c-0.623,0.218-1.298-0.11-1.511-0.729c-0.09-0.254-8.983-25.359-20.729-28.825c-3.098-0.913-6.059-0.218-9.06,2.116   c-1.71,1.33-3.165,2.791-4.398,4.328c2.697,1.719,4.929,4.218,6.291,7.209c2.361,5.185,1.754,10.828-1.664,15.483   c-3.288,4.476-6.001,4.995-7.718,4.65c-2.255-0.462-3.939-2.611-4.743-6.051c-1.325-5.671-0.042-13.673,4.345-20.449   c-1.263-0.521-2.6-0.855-3.967-0.967c-5.902-0.485-11.734,3.026-16.361,9.902c-8.754,13.005-5.93,27.635-0.361,36.474   c1.3-2.354,2.938-4.524,4.887-6.377c6.312-5.999,11.087-5.598,13.358-4.824c2.91,0.985,4.968,3.578,5.503,6.934   c0.586,3.691-0.748,9.105-6.261,13.23c-4.449,3.329-10.156,2.417-15.265-2.447c-0.6-0.569-1.191-1.199-1.768-1.884   c-2.292,6.088-2.301,12.917,0.429,18.231c4.759,9.265,16.5,12.625,33.072,9.448c13.279-2.543,21.837-7.629,25.43-15.117   c4.729-9.849-0.892-20.694-0.948-20.802c-0.306-0.579-0.086-1.298,0.491-1.603c0.584-0.305,1.295-0.087,1.603,0.49   c0.257,0.484,6.24,11.981,1.001,22.922c-3.932,8.214-13.062,13.746-27.134,16.441c-4.444,0.85-8.363,1.221-11.815,1.221   C27.318,488.847,21.092,481.779,18.601,476.931z M26.352,448.326c-2.062,1.959-3.742,4.299-5.003,6.839   c0.753,0.979,1.539,1.856,2.336,2.615c2.018,1.92,7.246,5.985,12.209,2.266c4.667-3.492,5.818-7.949,5.339-10.957   c-0.394-2.471-1.858-4.362-3.918-5.059c-0.605-0.205-1.249-0.306-1.926-0.306C32.696,443.725,29.508,445.327,26.352,448.326z    M38.484,427.484c0.565,2.414,1.652,4.009,2.91,4.267c1.413,0.28,3.371-1.066,5.327-3.731c2.896-3.943,3.413-8.716,1.418-13.096   c-1.193-2.618-3.161-4.799-5.531-6.275C38.099,415.45,37.485,423.209,38.484,427.484z"/>
	<path style="fill:#FFE9CB;" d="M286.754,45.188c0,0-17.558-16.388,0-24.581S296.777,49.614,286.754,45.188z"/>
	<path style="fill:#FFE9CB;" d="M145.117,51.431c0,0-2.341-26.178-14.047-18.942C119.365,39.726,124.438,61.576,145.117,51.431z"/>
	<path style="fill:#DA9395;" d="M380.448,344.694c0,0,106.075,19.542,77.237,134.791c0,0,39.546-26.608,41.127-21.863   s-15.244,31.636-28.977,36.382s-153.795,0-153.795,0"/>
	<path style="fill:#FFE9CB;" d="M367.652,495.905c0,0,4.95-181.921-88.703-202.287c-93.653-20.366-85.401,197.441-82.243,199.023   S367.652,495.905,367.652,495.905z"/>
	<path style="fill:#251426;" d="M312.28,493.817c40.14,0,68.001-10.621,83.101-31.763c34.831-48.765-11.588-137.608-12.061-138.5   c-0.308-0.579-1.022-0.798-1.603-0.492c-0.579,0.307-0.799,1.025-0.491,1.605c0.466,0.878,46.206,88.441,12.223,136.012   c-20.059,28.081-63.709,37.004-129.738,26.529c-0.635-0.102-1.254,0.338-1.358,0.987c-0.102,0.646,0.341,1.254,0.987,1.358   C281.277,492.397,297.601,493.817,312.28,493.817z"/>
	<path style="fill:#DA9395;" d="M137.262,258.703c0,0-26.77-10.961-64.517-53.764s-113.353,76.809,44.279,91.998L137.262,258.703z"/>
	<path style="fill:#251426;" d="M472.933,481.763c0.329,0,0.658-0.137,0.892-0.404c0.139-0.159,13.982-15.882,25.59-22.715   c0.563-0.331,0.753-1.059,0.419-1.623c-0.334-0.569-1.059-0.751-1.624-0.421c-11.94,7.027-25.595,22.538-26.17,23.194   c-0.431,0.494-0.382,1.242,0.111,1.674C472.377,481.665,472.655,481.763,472.933,481.763z"/>
	<circle style="fill:#D9798C;" cx="157.236" cy="142.167" r="22.489"/>
	<circle style="fill:#D9798C;" cx="304.519" cy="146.701" r="22.489"/>
	<path style="fill:#251426;" d="M382.955,235.215c0.097,0,0.195-0.012,0.294-0.037c4.711-1.203,6.794-8.519,6.88-8.831   c0.176-0.63-0.192-1.284-0.825-1.46c-0.623-0.183-1.284,0.195-1.46,0.824c-0.491,1.751-2.377,6.452-5.183,7.168   c-0.635,0.162-1.017,0.808-0.855,1.442C381.942,234.858,382.424,235.215,382.955,235.215z"/>
	<path style="fill:#251426;" d="M383.856,251.034c0.097,0,0.195-0.012,0.294-0.037c4.713-1.201,6.796-8.519,6.882-8.831   c0.176-0.63-0.192-1.284-0.825-1.46c-0.619-0.184-1.284,0.193-1.46,0.824c-0.491,1.751-2.377,6.452-5.186,7.168   c-0.635,0.162-1.017,0.808-0.855,1.442C382.844,250.677,383.326,251.034,383.856,251.034z"/>
	<path style="fill:#251426;" d="M396.105,239.214c0.097,0,0.195-0.012,0.294-0.037c4.708-1.201,6.796-8.519,6.882-8.829   c0.176-0.631-0.192-1.285-0.823-1.461c-0.633-0.187-1.286,0.192-1.462,0.824c-0.491,1.751-2.38,6.452-5.186,7.168   c-0.635,0.162-1.017,0.808-0.855,1.442C395.092,238.857,395.574,239.214,396.105,239.214z"/>
	<path style="fill:#251426;" d="M395.173,224.214c0.097,0,0.195-0.012,0.294-0.037c4.711-1.203,6.794-8.519,6.88-8.831   c0.176-0.63-0.192-1.284-0.825-1.46c-0.616-0.181-1.284,0.195-1.46,0.824c-0.491,1.751-2.377,6.452-5.183,7.168   c-0.635,0.162-1.017,0.808-0.855,1.442C394.16,223.857,394.642,224.214,395.173,224.214z"/>
	<path style="fill:#251426;" d="M369.474,249.457c0.097,0,0.195-0.012,0.294-0.037c4.708-1.201,6.796-8.519,6.882-8.829   c0.176-0.631-0.192-1.285-0.823-1.461c-0.63-0.187-1.286,0.192-1.462,0.824c-0.491,1.751-2.38,6.452-5.186,7.168   c-0.635,0.162-1.017,0.808-0.855,1.442C368.461,249.1,368.943,249.457,369.474,249.457z"/>
	<path style="fill:#251426;" d="M369.886,263.962c0.028,0,0.056-0.001,0.083-0.002c4.852-0.333,8.223-7.151,8.365-7.441   c0.287-0.589,0.042-1.298-0.547-1.585c-0.582-0.28-1.295-0.043-1.585,0.546c-0.799,1.634-3.506,5.916-6.395,6.113   c-0.653,0.045-1.147,0.612-1.103,1.265C368.749,263.482,369.27,263.962,369.886,263.962z"/>
	<path style="fill:#251426;" d="M354.067,262.079c4.864,0,8.696-6.571,8.856-6.852c0.327-0.568,0.13-1.292-0.438-1.619   c-0.561-0.329-1.291-0.134-1.62,0.436c-0.908,1.574-3.902,5.662-6.798,5.662l0,0c-0.656,0-1.186,0.531-1.186,1.186   C352.881,261.548,353.412,262.079,354.067,262.079L354.067,262.079z"/>
	<path style="fill:#251426;" d="M89.862,238.586c0.531,0,1.013-0.357,1.149-0.893c0.162-0.635-0.22-1.28-0.855-1.442   c-2.818-0.719-4.697-5.417-5.183-7.167c-0.176-0.63-0.818-0.999-1.46-0.826c-0.633,0.176-1.001,0.83-0.825,1.461   c0.086,0.312,2.169,7.628,6.88,8.831C89.667,238.574,89.764,238.586,89.862,238.586z"/>
	<path style="fill:#251426;" d="M88.958,254.406c0.531,0,1.013-0.357,1.149-0.893c0.162-0.635-0.22-1.28-0.855-1.442   c-2.818-0.719-4.697-5.417-5.183-7.167c-0.176-0.63-0.818-0.998-1.46-0.826c-0.633,0.176-1.001,0.83-0.825,1.461   c0.086,0.312,2.169,7.628,6.88,8.831C88.763,254.395,88.861,254.406,88.958,254.406z"/>
	<path style="fill:#251426;" d="M76.712,242.585c0.531,0,1.013-0.357,1.149-0.893c0.162-0.635-0.22-1.28-0.855-1.442   c-2.808-0.716-4.694-5.417-5.186-7.168c-0.176-0.629-0.839-1.002-1.46-0.824c-0.633,0.176-1.001,0.83-0.825,1.46   c0.086,0.312,2.169,7.629,6.882,8.831C76.517,242.574,76.615,242.585,76.712,242.585z"/>
	<path style="fill:#251426;" d="M77.643,227.587c0.531,0,1.013-0.357,1.149-0.893c0.162-0.635-0.22-1.28-0.855-1.442   c-2.806-0.716-4.694-5.417-5.186-7.168c-0.176-0.629-0.83-0.998-1.462-0.824c-0.63,0.176-0.999,0.83-0.823,1.461   c0.086,0.31,2.173,7.628,6.882,8.829C77.449,227.575,77.546,227.587,77.643,227.587z"/>
	<path style="fill:#251426;" d="M103.343,252.828c0.531,0,1.013-0.357,1.149-0.893c0.162-0.635-0.22-1.28-0.855-1.442   c-2.806-0.716-4.694-5.417-5.186-7.168c-0.176-0.629-0.827-1.001-1.462-0.824c-0.63,0.176-0.999,0.83-0.823,1.461   c0.086,0.311,2.173,7.628,6.882,8.829C103.148,252.817,103.245,252.828,103.343,252.828z"/>
	<path style="fill:#251426;" d="M102.93,267.335c0.616,0,1.138-0.48,1.182-1.105c0.044-0.653-0.45-1.22-1.103-1.265   c-2.889-0.197-5.596-4.48-6.395-6.114c-0.29-0.587-1.003-0.827-1.585-0.546c-0.589,0.287-0.834,0.996-0.547,1.585   c0.141,0.291,3.513,7.11,8.365,7.443C102.875,267.333,102.902,267.335,102.93,267.335z"/>
	<path style="fill:#251426;" d="M118.749,265.452L118.749,265.452c0.656,0,1.186-0.532,1.186-1.186c0-0.656-0.531-1.186-1.186-1.186   l0,0c0,0,0,0-0.002,0c-2.906,0-5.892-4.086-6.796-5.661c-0.327-0.571-1.057-0.763-1.62-0.438c-0.568,0.327-0.765,1.052-0.438,1.62   C110.053,258.881,113.888,265.452,118.749,265.452z"/>
	<path style="fill:#251426;" d="M441.699,408.008c0.359,0,0.714-0.162,0.945-0.472c2.934-3.879-0.005-10.897-0.132-11.194   c-0.257-0.604-0.957-0.884-1.555-0.627c-0.602,0.256-0.885,0.952-0.628,1.556c0.709,1.673,2.169,6.524,0.424,8.835   c-0.396,0.523-0.292,1.266,0.229,1.661C441.198,407.931,441.448,408.008,441.699,408.008z"/>
	<path style="fill:#251426;" d="M434.027,418.746c0.359,0,0.714-0.162,0.945-0.472c2.933-3.879-0.005-10.897-0.132-11.194   c-0.257-0.605-0.957-0.886-1.555-0.627c-0.602,0.256-0.885,0.952-0.628,1.556c0.709,1.673,2.169,6.524,0.424,8.835   c-0.396,0.523-0.292,1.266,0.229,1.661C433.526,418.668,433.776,418.746,434.027,418.746z"/>
	<path style="fill:#251426;" d="M450.024,428.099c0.359,0,0.714-0.162,0.945-0.472c2.933-3.879-0.005-10.899-0.132-11.195   c-0.257-0.605-0.957-0.883-1.555-0.627c-0.602,0.256-0.885,0.952-0.628,1.556c0.709,1.674,2.169,6.525,0.424,8.836   c-0.396,0.522-0.292,1.266,0.229,1.661C449.524,428.022,449.774,428.099,450.024,428.099z"/>
	<path style="fill:#251426;" d="M437.718,435.726c0.359,0,0.714-0.162,0.945-0.472c2.933-3.879-0.005-10.899-0.132-11.195   c-0.257-0.604-0.955-0.883-1.555-0.627c-0.602,0.256-0.885,0.952-0.628,1.556c0.709,1.674,2.169,6.525,0.424,8.836   c-0.396,0.523-0.292,1.266,0.229,1.661C437.217,435.648,437.468,435.726,437.718,435.726z"/>
	<path style="fill:#251426;" d="M446.928,447.089c0.359,0,0.714-0.162,0.948-0.472c2.929-3.879-0.007-10.897-0.134-11.194   c-0.257-0.601-0.957-0.886-1.555-0.627c-0.602,0.256-0.883,0.952-0.628,1.555c0.709,1.674,2.167,6.525,0.422,8.836   c-0.394,0.523-0.29,1.266,0.234,1.661C446.428,447.012,446.678,447.089,446.928,447.089z"/>
	<path style="fill:#251426;" d="M423.277,404.41c0.359,0,0.714-0.162,0.945-0.472c2.933-3.879-0.005-10.899-0.132-11.195   c-0.257-0.605-0.957-0.886-1.555-0.627c-0.602,0.256-0.885,0.952-0.628,1.556c0.709,1.674,2.169,6.525,0.424,8.836   c-0.396,0.523-0.292,1.266,0.229,1.661C422.777,404.332,423.027,404.41,423.277,404.41z"/>
	<path style="fill:#251426;" d="M420.877,381.641c0.549,0,1.045-0.386,1.159-0.947c0.982-4.763-4.681-9.841-4.924-10.055   c-0.484-0.432-1.237-0.39-1.673,0.102c-0.433,0.49-0.389,1.24,0.1,1.674c1.36,1.207,4.759,4.963,4.175,7.799   c-0.134,0.642,0.28,1.27,0.922,1.402C420.715,381.633,420.796,381.641,420.877,381.641z"/>
	<path style="fill:#251426;" d="M432.724,396.695c0.429,0,0.846-0.235,1.054-0.644c2.224-4.324-1.872-10.736-2.046-11.008   c-0.357-0.547-1.089-0.708-1.641-0.351c-0.549,0.356-0.707,1.09-0.352,1.641c0.985,1.528,3.253,6.057,1.93,8.634   c-0.301,0.583-0.072,1.298,0.512,1.598C432.356,396.653,432.541,396.695,432.724,396.695z"/>
	<path style="fill:#251426;" d="M339.025,203.574c0.035,0,0.069-0.001,0.104-0.005c4.843-0.418,8.094-7.298,8.228-7.591   c0.276-0.593,0.019-1.298-0.575-1.574c-0.591-0.273-1.298-0.021-1.576,0.575c-0.769,1.647-3.397,5.978-6.282,6.227   c-0.653,0.056-1.135,0.631-1.08,1.284C337.898,203.109,338.417,203.574,339.025,203.574z"/>
	<path style="fill:#251426;" d="M325.912,205.06c0.035,0,0.07-0.001,0.104-0.005c4.843-0.418,8.094-7.298,8.228-7.591   c0.276-0.593,0.019-1.298-0.575-1.574c-0.586-0.275-1.298-0.022-1.576,0.575c-0.769,1.647-3.397,5.978-6.282,6.227   c-0.653,0.056-1.135,0.631-1.08,1.284C324.786,204.594,325.305,205.06,325.912,205.06z"/>
	<path style="fill:#251426;" d="M329.371,187.478c0.035,0,0.07-0.001,0.104-0.005c4.843-0.418,8.094-7.298,8.228-7.591   c0.276-0.593,0.019-1.298-0.575-1.574c-0.589-0.273-1.298-0.021-1.576,0.575c-0.769,1.647-3.397,5.978-6.282,6.227   c-0.653,0.056-1.135,0.631-1.08,1.284C328.245,187.013,328.764,187.478,329.371,187.478z"/>
	<path style="fill:#251426;" d="M344.683,170.456c0.204,0,0.41-0.052,0.6-0.162c4.196-2.458,4.175-10.067,4.173-10.389   c-0.007-0.652-0.535-1.176-1.186-1.176c-0.002,0-0.007,0-0.009,0c-0.656,0.006-1.182,0.541-1.177,1.196   c0.014,1.819-0.501,6.858-3.001,8.321c-0.565,0.331-0.755,1.058-0.424,1.624C343.879,170.246,344.277,170.456,344.683,170.456z"/>
	<path style="fill:#251426;" d="M341.427,189.334c0.1,0,0.202-0.013,0.304-0.039c4.699-1.242,6.724-8.576,6.808-8.887   c0.171-0.631-0.204-1.283-0.834-1.453c-0.64-0.166-1.284,0.204-1.455,0.835c-0.477,1.754-2.326,6.471-5.125,7.211   c-0.633,0.168-1.01,0.817-0.843,1.451C340.422,188.983,340.901,189.334,341.427,189.334z"/>
	<path style="fill:#251426;" d="M140.496,208.592c0.568,0,1.133-0.074,1.687-0.241c0.626-0.189,0.982-0.85,0.792-1.477   c-0.19-0.628-0.846-0.984-1.478-0.794c-2.783,0.826-6.817-2.217-8.14-3.463c-0.477-0.447-1.23-0.428-1.675,0.05   c-0.45,0.476-0.429,1.226,0.046,1.675C131.934,204.538,136.278,208.592,140.496,208.592z"/>
	<path style="fill:#251426;" d="M153.228,205.123c0.568,0,1.133-0.074,1.687-0.24c0.626-0.189,0.982-0.852,0.792-1.478   c-0.188-0.627-0.846-0.976-1.478-0.795c-2.767,0.841-6.819-2.214-8.138-3.462c-0.477-0.45-1.226-0.428-1.678,0.048   c-0.45,0.476-0.429,1.227,0.046,1.676C144.666,201.068,149.013,205.123,153.228,205.123z"/>
	<path style="fill:#251426;" d="M143.512,190.068c0.568,0,1.133-0.074,1.687-0.241c0.626-0.189,0.982-0.85,0.792-1.477   c-0.188-0.627-0.841-0.981-1.478-0.794c-2.774,0.836-6.819-2.216-8.138-3.463c-0.477-0.451-1.228-0.429-1.678,0.048   c-0.45,0.476-0.429,1.227,0.046,1.676C134.953,186.013,139.298,190.068,143.512,190.068z"/>
	<path style="fill:#251426;" d="M124.338,179.723c0.575,0,1.082-0.421,1.17-1.008c0.1-0.648-0.345-1.252-0.994-1.351   c-2.873-0.438-5.207-4.929-5.865-6.621c-0.234-0.613-0.925-0.913-1.534-0.678c-0.612,0.238-0.915,0.925-0.677,1.535   c0.116,0.301,2.913,7.377,7.718,8.109C124.218,179.718,124.278,179.723,124.338,179.723z"/>
	<path style="fill:#251426;" d="M133.822,196.09c0.22,0,0.443-0.013,0.665-0.039c0.649-0.08,1.112-0.671,1.033-1.321   c-0.079-0.651-0.684-1.112-1.321-1.036c-2.818,0.36-6.34-3.348-7.426-4.803c-0.392-0.524-1.138-0.633-1.659-0.24   c-0.526,0.392-0.633,1.135-0.241,1.66C125.057,190.558,129.246,196.09,133.822,196.09z"/>
	<path style="fill:#251426;" d="M334.847,389.912c0.313,0,0.623-0.123,0.857-0.366c3.36-3.515,1.254-10.827,1.163-11.136   c-0.185-0.624-0.836-0.986-1.471-0.802c-0.628,0.184-0.989,0.843-0.804,1.473c0.51,1.745,1.4,6.731-0.602,8.825   c-0.452,0.474-0.436,1.225,0.037,1.678C334.256,389.803,334.552,389.912,334.847,389.912z"/>
	<path style="fill:#251426;" d="M325.984,399.689c0.313,0,0.623-0.123,0.857-0.366c3.36-3.515,1.254-10.827,1.163-11.136   c-0.185-0.624-0.839-0.986-1.471-0.802c-0.628,0.184-0.989,0.843-0.804,1.473c0.51,1.745,1.4,6.731-0.602,8.825   c-0.452,0.474-0.436,1.225,0.037,1.678C325.393,399.58,325.689,399.689,325.984,399.689z"/>
	<path style="fill:#251426;" d="M325.196,440.395c0.313,0,0.623-0.123,0.857-0.366c3.36-3.514,1.254-10.826,1.163-11.136   c-0.185-0.624-0.836-0.985-1.471-0.802c-0.628,0.184-0.989,0.843-0.804,1.473c0.51,1.745,1.4,6.732-0.602,8.825   c-0.452,0.474-0.436,1.225,0.037,1.678C324.605,440.286,324.902,440.395,325.196,440.395z"/>
	<path style="fill:#251426;" d="M340.79,449.36c0.313,0,0.623-0.123,0.857-0.366c3.36-3.515,1.254-10.827,1.163-11.136   c-0.185-0.624-0.841-0.985-1.471-0.802c-0.628,0.184-0.989,0.843-0.804,1.473c0.51,1.745,1.4,6.731-0.602,8.825   c-0.452,0.474-0.436,1.225,0.037,1.678C340.199,449.251,340.496,449.36,340.79,449.36z"/>
	<path style="fill:#251426;" d="M340.79,410.831c0.313,0,0.623-0.123,0.857-0.366c3.36-3.515,1.254-10.827,1.163-11.136   c-0.185-0.626-0.841-0.984-1.471-0.802c-0.628,0.184-0.989,0.843-0.804,1.473c0.51,1.745,1.4,6.731-0.602,8.825   c-0.452,0.474-0.436,1.225,0.037,1.678C340.199,410.722,340.496,410.831,340.79,410.831z"/>
	<path style="fill:#251426;" d="M327.684,416.982c0.313,0,0.623-0.123,0.857-0.366c3.36-3.515,1.254-10.827,1.163-11.136   c-0.185-0.624-0.841-0.984-1.471-0.802c-0.628,0.184-0.989,0.843-0.804,1.473c0.51,1.745,1.4,6.731-0.602,8.825   c-0.452,0.474-0.436,1.225,0.037,1.678C327.094,416.873,327.39,416.982,327.684,416.982z"/>
	<path style="fill:#251426;" d="M335.516,429.335c0.313,0,0.623-0.123,0.857-0.366c3.36-3.515,1.254-10.827,1.163-11.136   c-0.185-0.624-0.839-0.984-1.471-0.802c-0.628,0.184-0.989,0.843-0.804,1.473c0.51,1.745,1.4,6.731-0.602,8.825   c-0.452,0.474-0.436,1.225,0.037,1.678C334.926,429.226,335.222,429.335,335.516,429.335z"/>
	<path style="fill:#251426;" d="M316.965,384.205c0.313,0,0.623-0.123,0.857-0.366c3.36-3.515,1.254-10.827,1.163-11.136   c-0.185-0.624-0.839-0.987-1.471-0.802c-0.628,0.184-0.989,0.843-0.804,1.473c0.51,1.745,1.4,6.731-0.602,8.825   c-0.452,0.474-0.436,1.225,0.037,1.678C316.375,384.096,316.671,384.205,316.965,384.205z"/>
	<path style="fill:#251426;" d="M317.216,361.31c0.498,0,0.962-0.315,1.126-0.814c1.527-4.616-3.513-10.316-3.728-10.556   c-0.433-0.488-1.182-0.532-1.673-0.093c-0.489,0.436-0.531,1.186-0.095,1.674c1.212,1.357,4.152,5.48,3.244,8.23   c-0.206,0.622,0.132,1.293,0.753,1.498C316.968,361.292,317.093,361.31,317.216,361.31z"/>
	<path style="fill:#251426;" d="M332.963,359.929c0.498,0,0.962-0.315,1.126-0.814c1.527-4.616-3.513-10.316-3.728-10.556   c-0.433-0.489-1.179-0.533-1.673-0.093c-0.489,0.436-0.531,1.186-0.095,1.674c1.212,1.357,4.152,5.48,3.244,8.23   c-0.206,0.622,0.132,1.293,0.753,1.498C332.715,359.911,332.84,359.929,332.963,359.929z"/>
	<path style="fill:#251426;" d="M349.213,430.304c0.361,0,0.721-0.166,0.955-0.481c2.892-3.908-0.116-10.896-0.246-11.193   c-0.262-0.598-0.957-0.872-1.562-0.611c-0.6,0.262-0.874,0.962-0.612,1.562c0.725,1.667,2.234,6.503,0.51,8.831   c-0.389,0.526-0.278,1.27,0.248,1.659C348.719,430.229,348.967,430.304,349.213,430.304z"/>
	<path style="fill:#251426;" d="M327.242,377.634c0.38,0,0.755-0.184,0.985-0.526c2.709-4.036-0.614-10.879-0.758-11.169   c-0.29-0.586-1.001-0.827-1.587-0.539c-0.589,0.288-0.83,1-0.54,1.587c0.802,1.632,2.528,6.394,0.915,8.799   c-0.366,0.543-0.22,1.28,0.324,1.645C326.783,377.57,327.013,377.634,327.242,377.634z"/>
	<path style="fill:#FFE9CB;" d="M449.973,232.869c0.67-4.022-12.065-29.006-24.131-23.217c-12.065,5.789,0.025,30.529,12.078,33.241   C449.973,245.605,449.973,232.869,449.973,232.869z"/>
	<path style="fill:#FFE9CB;" d="M47.427,211.866c-3.998,0.8-22.837,21.573-13.143,30.799c9.694,9.226,28.534-10.857,26.792-23.088   C59.334,207.347,47.427,211.866,47.427,211.866z"/>
	<path style="fill:#DA9395;" d="M155.859,351.366c0,0-132.395-25.643-86.034,137.014c0,0,150.889,14.571,164.622,9.826   c13.733-4.745,30.559-31.636,28.977-36.382c-1.582-4.745-41.127,21.863-41.127,21.863   C253.803,371.528,155.859,351.366,155.859,351.366"/>
	<path style="fill:#251426;" d="M215.589,394.49c0.232,0,0.466-0.067,0.672-0.209c0.54-0.371,0.677-1.109,0.306-1.649   c-20.414-29.751-43.094-46.516-67.407-49.834c-29.2-3.991-50.414,13.483-50.627,13.661c-0.503,0.421-0.568,1.168-0.146,1.671   c0.419,0.502,1.168,0.565,1.671,0.147c0.204-0.169,20.639-16.981,48.82-13.122c23.607,3.236,45.724,19.661,65.735,48.82   C214.84,394.311,215.211,394.49,215.589,394.49z"/>
	<path style="fill:#251426;" d="M240.876,485.33c0.405,0,0.802-0.209,1.022-0.584c4.676-7.935,22.089-21.854,22.265-21.994   c0.512-0.408,0.598-1.155,0.188-1.667c-0.412-0.512-1.159-0.595-1.666-0.189c-0.73,0.582-17.935,14.336-22.831,22.645   c-0.334,0.564-0.146,1.292,0.419,1.624C240.463,485.277,240.669,485.33,240.876,485.33z"/>
	<path style="fill:#251426;" d="M196.148,394.667c0.417,0,0.825-0.222,1.04-0.615c2.34-4.261-1.578-10.783-1.747-11.059   c-0.341-0.558-1.075-0.736-1.629-0.395c-0.558,0.339-0.737,1.069-0.396,1.629c0.943,1.555,3.086,6.144,1.691,8.682   c-0.315,0.575-0.104,1.295,0.47,1.612C195.759,394.619,195.954,394.667,196.148,394.667z"/>
	<path style="fill:#251426;" d="M190.107,406.399c0.417,0,0.825-0.222,1.04-0.615c2.34-4.264-1.58-10.784-1.749-11.058   c-0.341-0.561-1.071-0.736-1.629-0.395c-0.561,0.341-0.737,1.071-0.396,1.63c0.943,1.554,3.089,6.142,1.694,8.681   c-0.315,0.575-0.104,1.295,0.47,1.612C189.718,406.352,189.913,406.399,190.107,406.399z"/>
	<path style="fill:#251426;" d="M207.287,413.345c0.417,0,0.825-0.222,1.04-0.615c2.34-4.264-1.578-10.784-1.747-11.06   c-0.341-0.561-1.073-0.736-1.629-0.395c-0.558,0.339-0.737,1.069-0.396,1.629c0.943,1.555,3.086,6.144,1.692,8.683   c-0.315,0.575-0.104,1.295,0.47,1.612C206.897,413.297,207.092,413.345,207.287,413.345z"/>
	<path style="fill:#251426;" d="M196.211,422.668c0.417,0,0.825-0.222,1.04-0.615c2.34-4.262-1.58-10.783-1.749-11.058   c-0.341-0.56-1.075-0.738-1.629-0.395c-0.558,0.341-0.737,1.069-0.396,1.629c0.943,1.555,3.089,6.144,1.694,8.682   c-0.315,0.575-0.104,1.295,0.47,1.612C195.822,422.62,196.016,422.668,196.211,422.668z"/>
	<path style="fill:#251426;" d="M206.965,432.583c0.417,0,0.825-0.222,1.04-0.615c2.34-4.262-1.58-10.783-1.749-11.058   c-0.341-0.561-1.073-0.738-1.629-0.395c-0.558,0.341-0.737,1.069-0.396,1.629c0.943,1.555,3.089,6.144,1.694,8.682   c-0.315,0.575-0.104,1.295,0.47,1.612C206.575,432.535,206.77,432.583,206.965,432.583z"/>
	<path style="fill:#251426;" d="M177.4,393.764c0.417,0,0.825-0.222,1.04-0.615c2.34-4.261-1.578-10.783-1.747-11.058   c-0.338-0.56-1.073-0.737-1.629-0.395c-0.558,0.339-0.737,1.069-0.396,1.629c0.943,1.555,3.086,6.144,1.691,8.682   c-0.315,0.575-0.104,1.295,0.47,1.612C177.011,393.716,177.206,393.764,177.4,393.764z"/>
	<path style="fill:#251426;" d="M164.237,388.787c0.609,0,1.126-0.467,1.179-1.086c0.412-4.845-5.811-9.22-6.076-9.403   c-0.54-0.375-1.279-0.237-1.65,0.298c-0.375,0.538-0.241,1.277,0.297,1.651c1.492,1.039,5.311,4.367,5.065,7.253   c-0.056,0.653,0.429,1.227,1.082,1.283C164.167,388.786,164.202,388.787,164.237,388.787z"/>
	<path style="fill:#251426;" d="M171.737,371.581c0.626,0,1.147-0.487,1.184-1.117c0.285-4.854-6.055-9.061-6.326-9.238   c-0.547-0.358-1.284-0.205-1.641,0.343c-0.359,0.547-0.206,1.283,0.341,1.642c1.52,0.999,5.427,4.223,5.258,7.115   c-0.039,0.655,0.461,1.215,1.115,1.254C171.691,371.58,171.714,371.581,171.737,371.581z"/>
	<path style="fill:#251426;" d="M185.635,384.767c0.494,0,0.955-0.309,1.121-0.802c1.578-4.599-3.399-10.353-3.612-10.596   c-0.433-0.494-1.182-0.54-1.673-0.11c-0.494,0.431-0.542,1.179-0.111,1.673c1.196,1.369,4.092,5.524,3.154,8.264   c-0.213,0.62,0.118,1.294,0.737,1.507C185.378,384.746,185.508,384.767,185.635,384.767z"/>
	<path style="fill:#251426;" d="M105.771,335.533c0.035,0,0.072-0.001,0.107-0.005c0.651-0.057,1.135-0.633,1.077-1.286   c-0.403-4.598,4.465-10.21,4.514-10.267c0.431-0.492,0.382-1.241-0.109-1.673c-0.496-0.433-1.237-0.383-1.675,0.108   c-0.227,0.26-5.587,6.428-5.093,12.041C104.645,335.068,105.164,335.533,105.771,335.533z"/>
	<path style="fill:#251426;" d="M119.051,332.389c0.035,0,0.072-0.001,0.107-0.005c0.651-0.057,1.135-0.633,1.077-1.286   c-0.403-4.598,4.465-10.21,4.514-10.267c0.431-0.492,0.382-1.241-0.109-1.673c-0.496-0.433-1.237-0.383-1.675,0.108   c-0.227,0.26-5.587,6.428-5.093,12.041C117.924,331.923,118.443,332.389,119.051,332.389z"/>
	<path style="fill:#251426;" d="M117.315,315.325c0.035,0,0.072-0.001,0.107-0.005c0.651-0.057,1.135-0.633,1.077-1.286   c-0.403-4.597,4.465-10.209,4.514-10.266c0.431-0.492,0.382-1.241-0.109-1.673c-0.496-0.432-1.237-0.386-1.675,0.108   c-0.227,0.26-5.587,6.428-5.093,12.04C116.189,314.859,116.708,315.325,117.315,315.325z"/>
	<path style="fill:#251426;" d="M134.8,300.983c0.035,0,0.072-0.001,0.107-0.005c0.651-0.057,1.135-0.633,1.077-1.286   c-0.403-4.598,4.465-10.209,4.514-10.265c0.431-0.492,0.382-1.242-0.109-1.674c-0.496-0.432-1.237-0.382-1.675,0.108   c-0.227,0.26-5.587,6.427-5.093,12.04C133.674,300.517,134.193,300.983,134.8,300.983z"/>
</g>















</svg>
