<?xml version="1.0" encoding="UTF-8"?>
<!-- Generator: Adobe Illustrator 25.2.1, SVG Export Plug-In . SVG Version: 6.00 Build 0)  -->
<svg xmlns="http://www.w3.org/2000/svg" xmlns:xlink="http://www.w3.org/1999/xlink" version="1.1" id="Capa_1" x="0px" y="0px" viewBox="0 0 512 512" style="enable-background:new 0 0 512 512;" xml:space="preserve" width="512" height="512">
<g>
	<path style="fill:#FFFFFF;" d="M465.557,194.899c-14.29-49.46-40.264-97.476-90.154-116.447   c-36.335-41.666-96.885-38.865-134.482-2.653c-3.517-0.508-7.051-1.005-10.591-1.417c-5.198-19.581-10.087-39.238-14.616-58.988   c-2.65-11.556-15.21-17.357-26.062-14.798c-9.675,2.281-19.311,4.689-28.908,7.28c-10.147,2.74-19.165,15.39-14.798,26.062   c7.644,18.681,15.289,37.362,22.933,56.042c-2.028,1.396-4.035,2.824-6.013,4.269c-19.659-5.17-39.189-3.386-58.607,6.193   c-19.545,9.642-33.752,30.885-38.189,52.08c-66.92,66.666-27.194,183.11,9.129,255.637c18.738,37.414,45.568,74.446,84.372,92.727   c33.263,15.671,71.786,15.086,102.587-3.802c34.713,9.6,74.33-0.518,101.271-24.229c52.574,0.414,92.862-38.547,109.308-88.181   c9.452-28.528,10.119-60.09,8.9-89.821C480.252,261.124,474.526,227.413,465.557,194.899z"/>
	<g>
		<g>
			<path style="fill:#E06900;" d="M85.39,166.095c0.831-19.441,12.462-38.072,29.562-47.356c17.101-9.285,39.06-8.892,55.817,0.999     c14.662-24.685,51.159-33.014,75.078-17.133c15.783-26.3,49.895-40.058,79.508-32.067c29.613,7.991,52.173,37.042,52.583,67.712"/>
		</g>
		<g>
			<path style="fill:#1C9E5F;" d="M291.718,129.859c-7.338-14.561-20.924-25.839-36.588-30.37     c-12.87-3.723-26.958-2.775-39.338,2.313c-7.504-26.749-14.34-53.685-20.507-80.775c-9.683,2.258-19.328,4.653-28.908,7.28     l30.833,75.347c-27.044,4.787-50.162,26.991-56.036,53.82c29.748,1.147,59.646-1.665,88.659-8.339     c-0.277-0.884-0.542-1.772-0.817-2.656C250.444,143.255,271.524,137.716,291.718,129.859z"/>
		</g>
		<g>
			<path style="fill:#F29D00;" d="M171.298,141.726c-39.832-9.886-85.096,9.508-105.413,45.167     c-18.792,32.982-16.222,73.908-8.039,110.975c7.969,36.095,20.734,71.127,37.856,103.886     c16.131,30.862,37.242,60.74,67.78,77.476s72.203,16.941,97.345-7.154"/>
		</g>
		<g>
			<path style="fill:#F29D00;" d="M271.333,116.584c30.425-27.544,79.479-31.855,114.242-10.04     c32.153,20.178,49.238,57.456,59.553,93.988c10.044,35.573,15.358,72.478,15.759,109.439     c0.378,34.821-4.098,71.13-23.095,100.316c-18.997,29.186-55.614,49.065-89.16,39.721"/>
		</g>
		<g>
			<path style="fill:#FFC200;" d="M347.173,179.271c-6.541-20.1-17.317-39.55-33.704-53.268     c-19.287-16.145-39.285-17.316-63.449-14.076c-9.565,1.283-18.925,3.553-28.153,6.36c-9.458,1.89-18.78,4.315-27.815,7.707     c-22.824,8.569-39.892,19.056-49.254,42.402c-7.954,19.835-8.253,42.069-4.514,62.873c7.377,41.042,19.188,81.36,35.482,119.755     c15.463,36.438,35.388,84.244,65.145,111.382c37.045,33.784,110.501,14.555,126.873-31.888     c13.39-37.982,8.345-89.527,4.742-128.947C368.732,260.036,360.078,218.924,347.173,179.271z"/>
		</g>
		<g>
			<path style="fill:#202D7D;" d="M212.552,261.808c2.62,10.426-0.176,20.114-6.245,21.639c-6.069,1.526-13.113-5.69-15.734-16.115     c-2.62-10.426,0.176-20.114,6.245-21.639C202.887,244.167,209.932,251.382,212.552,261.808z"/>
			<path style="fill:#202D7D;" d="M312.484,236.692c2.62,10.426-0.176,20.114-6.245,21.639c-6.069,1.526-13.113-5.69-15.734-16.115     c-2.62-10.426,0.176-20.114,6.245-21.639C302.819,219.051,309.864,226.266,312.484,236.692z"/>
		</g>
		<g>
			<path style="fill:#202D7D;" d="M220.13,258.017c0.055,0.243,0.084,0.486,0.145,0.728c1.876,7.464,6.17,13.683,11.837,18.03     l49.968-12.642c2.903-6.488,3.73-13.961,1.863-21.389c-0.061-0.243-0.151-0.47-0.217-0.71L220.13,258.017z"/>
			<path style="fill:#FA3E00;" d="M282.021,264.201c-8.003-4.743-17.804-6.457-27.538-4.01c-9.735,2.447-17.561,8.591-22.37,16.553     c7.682,5.9,17.874,8.379,27.997,5.834C270.232,280.035,278.042,273.032,282.021,264.201z"/>
		</g>
	</g>
</g>















</svg>
