<svg height="512" viewBox="0 0 128 128" width="512" xmlns="http://www.w3.org/2000/svg"><g fill-rule="evenodd"><path d="m106.1 30.1a7.172 7.172 0 0 0 1.746-4.6 7.289 7.289 0 1 0 -7.385 7.271c-.674.375-1.355.6-2.021 1.02a.915.915 0 0 1 -1.108-.162 44.885 44.885 0 0 0 -16.132-10.679c.092-.115.208-.188.294-.315l1.224-1.82 2.191-.159a4.808 4.808 0 0 0 2.327-8.789l-1.817-1.218-.16-2.18a4.806 4.806 0 0 0 -5.059-4.462h-.006a4.82 4.82 0 0 0 -3.721 2.12l-1.219 1.821-2.191.158a4.814 4.814 0 0 0 -2.332 8.783l1.822 1.225.158 2.189c.006.081.043.144.052.223a44.343 44.343 0 0 0 -30.539 5.287 44.715 44.715 0 0 0 -13.993 12.864 4.466 4.466 0 0 0 -1.3-4.067 4.626 4.626 0 0 0 -3.293-1.167h-.011-.011a4.613 4.613 0 0 0 -2.037.586l-.728.41-.774-.324a4.64 4.64 0 0 0 -5.826 6.548l.409.728-.324.773a4.638 4.638 0 0 0 6.551 5.826l.726-.407.772.322a4.579 4.579 0 0 0 .559.134 45.15 45.15 0 0 0 -3.133 17.525 9.37 9.37 0 0 0 -13.368 8.554 9.285 9.285 0 0 0 7.6 9.08c-5.122 4.455-7.716 9.826-4.572 14.414a8.809 8.809 0 0 0 4.57 3.289c5.2 1.748 12.293.794 23.283-3.608a6.58 6.58 0 0 0 2.484 6.2 10.659 10.659 0 1 0 13.629 5.951 46.257 46.257 0 0 0 34.13-5.091c.973-.562 1.843-1.227 2.761-1.843l.054 1.117-1.664 1.435a4.811 4.811 0 0 0 3.373 8.44l2.191-.1 1.435 1.66a4.811 4.811 0 0 0 8.438-3.375l-.1-2.187 1.653-1.428a4.807 4.807 0 0 0 -3.366-8.447l-2.189.106-1.435-1.664a4.778 4.778 0 0 0 -1.433-1.11 44.969 44.969 0 0 0 13.624-32.944 6.824 6.824 0 0 0 -4.472-6.6c9.4-7.367 13.815-13.062 14.905-18.464a8.693 8.693 0 0 0 -.642-5.759c-2.47-4.857-8.255-5.269-14.6-3.09z" fill="#fff"/><path d="m102.123 62.127a274.5 274.5 0 0 1 -28.2 18.6c-8.123 4.693-22.767 11.494-30.286 14.916-2.613 1.189-2.93 3.618-.472 5.1 12.561 7.568 28.584 7.824 42.273-.08s21.479-21.907 21.205-36.569c-.054-2.87-2.233-3.703-4.52-1.967z" fill="#f79670"/><path d="m100.708 37.412a5.2 5.2 0 0 1 -6.458-.823 40.855 40.855 0 0 0 -68.707 39.67 5.176 5.176 0 0 1 -2.52 6q-.459.242-.9.486c-9.98 5.573-12.323 12.226-6.718 14.111 7.033 2.366 19.814-.863 55.457-21.441s44.83-30.034 46.3-37.307c1.201-5.963-6.179-7.154-16.454-.696z" fill="#fbc086"/><path d="m50.285 39.774a28.8 28.8 0 0 0 -13.295 32.6 4.155 4.155 0 0 0 5.7 2.536c6.506-2.917 15.7-8.013 21.366-11.285 5.685-3.283 14.734-8.72 20.51-12.9a4.158 4.158 0 0 0 .646-6.2 28.8 28.8 0 0 0 -34.927-4.751z" fill="#5f6787"/><path d="m70.862 75.415c-11.551 6.669-20.672 11.493-28 14.917a33.6 33.6 0 0 0 54.99-31.756c-6.643 4.647-15.399 10.147-26.99 16.839z" fill="#5f6787"/><path d="m54.384 46.8a20.953 20.953 0 0 0 -8.507 26.73c6.383-3.237 13.36-7.126 18.176-9.906 4.844-2.8 11.751-6.926 17.769-10.855a20.952 20.952 0 0 0 -27.438-5.969z" fill="#485774"/><path d="m55.953 83.723a20.777 20.777 0 0 0 29.627-17.108c-4.323 2.691-9.178 5.6-14.718 8.8-5.511 3.185-10.435 5.918-14.909 8.308z" fill="#485774"/><path d="m57.82 45.252a17.388 17.388 0 0 1 -.36 5.232 4.8 4.8 0 0 1 -1.7 2.775c-1.472 1.1-3.777 1.072-6.361 1.071-.828 0-1.685.012-2.544.077q-.405.645-.761 1.32a24.941 24.941 0 0 1 3.305-.168c2.559 0 5.154.135 7.1-1.316a6.1 6.1 0 0 0 2.15-3.439 18.854 18.854 0 0 0 .387-5.932q-.616.173-1.216.38z" fill="#5f6787"/><path d="m75.157 53.6a6.809 6.809 0 0 0 -.782 3.862c.394-.242.785-.485 1.181-.73a5.816 5.816 0 0 1 .7-2.575 15.024 15.024 0 0 1 3.313-4.019q-.457-.434-.939-.84a15.946 15.946 0 0 0 -3.473 4.302z" fill="#5f6787"/><path d="m60.258 82.553a4.808 4.808 0 0 1 -3.41 1.519 20.767 20.767 0 0 0 2.121.776 6.256 6.256 0 0 0 2.161-1.429 13.381 13.381 0 0 0 2.479-3.886c-.654.366-1.29.719-1.927 1.071a9.349 9.349 0 0 1 -1.424 1.949z" fill="#5f6787"/><path d="m74.536 73.276c-.387.227-.8.463-1.191.693a15.869 15.869 0 0 1 5.922 5.905q.454-.439.883-.905a17.051 17.051 0 0 0 -5.614-5.693z" fill="#5f6787"/><path d="m67.6 45.662a22.458 22.458 0 0 0 -.976 5.42 7.85 7.85 0 0 1 -2.389 4.978c-1.635 1.546-4.484 2.991-9.522 4.071-5.132 1.1-8.586 2.932-10.681 5.192q.015.909.11 1.815a8.9 8.9 0 0 1 .73-.919c1.851-2.032 5.08-3.809 10.1-4.885 5.164-1.108 8.238-2.61 10.11-4.381a9.219 9.219 0 0 0 2.761-5.688 23.5 23.5 0 0 1 .9-5.137 5.369 5.369 0 0 1 .934-1.527q-.666-.148-1.342-.254a6.5 6.5 0 0 0 -.735 1.315z" fill="#5f6787"/><path d="m71.177 80a8.227 8.227 0 0 0 -2.013-.178 3.093 3.093 0 0 0 -1.46.42 3.526 3.526 0 0 0 -1.414 2.358c-.211.87-.369 1.907-.619 3.053q.634-.006 1.268-.05c.219-1.06.373-2.009.544-2.713.212-.871.453-1.35.862-1.6a3.846 3.846 0 0 1 2.6-.086 1.516 1.516 0 0 1 1.131.682 2.66 2.66 0 0 1 .3 1.452 7.375 7.375 0 0 1 -.1 1q.662-.262 1.3-.569c.01-.134.021-.269.024-.4a3.787 3.787 0 0 0 -.485-2.131 2.85 2.85 0 0 0 -1.938-1.238z" fill="#5f6787"/><path d="m100.554 22.484a3.023 3.023 0 1 0 3.023 3.022 3.037 3.037 0 0 0 -3.023-3.022z" fill="#f79670"/></g><circle cx="15.891" cy="74.118" fill="#f79670" r="5.182"/><path d="m84.86 15.412-2.138-1.436a3.483 3.483 0 0 1 -1.53-2.638l-.187-2.569a.54.54 0 0 0 -.988-.262l-1.436 2.138a3.481 3.481 0 0 1 -2.637 1.53l-2.57.186a.541.541 0 0 0 -.262.988l2.138 1.437a3.483 3.483 0 0 1 1.531 2.637l.186 2.569a.541.541 0 0 0 .988.263l1.436-2.139a3.481 3.481 0 0 1 2.637-1.53l2.572-.186a.541.541 0 0 0 .26-.988z" fill="#fbe986" fill-rule="evenodd"/><path d="m43.6 107a6.366 6.366 0 1 0 6.366 6.366 6.4 6.4 0 0 0 -6.366-6.366z" fill="#f79670" fill-rule="evenodd"/><path d="m103.077 104.225a.538.538 0 0 0 -.529-.339l-2.573.123a3.477 3.477 0 0 1 -2.8-1.2l-1.683-1.951a.54.54 0 0 0 -.949.379l.123 2.573a3.482 3.482 0 0 1 -1.2 2.8l-1.951 1.683a.54.54 0 0 0 .379.949l2.573-.123a3.479 3.479 0 0 1 2.8 1.2l1.683 1.951a.54.54 0 0 0 .949-.379l-.123-2.573a3.479 3.479 0 0 1 1.2-2.8l1.951-1.683a.541.541 0 0 0 .15-.61z" fill="#fbe986" fill-rule="evenodd"/><path d="m23.635 41.915a2.378 2.378 0 0 1 -.121-2.077l.678-1.622a.369.369 0 0 0 -.521-.464l-1.533.86a2.377 2.377 0 0 1 -2.077.121l-1.622-.678a.369.369 0 0 0 -.464.521l.861 1.533a2.377 2.377 0 0 1 .12 2.077l-.677 1.622a.369.369 0 0 0 .521.464l1.533-.861a2.375 2.375 0 0 1 2.076-.12l1.622.677a.369.369 0 0 0 .464-.521z" fill="#fbe986" fill-rule="evenodd"/><path d="m95.164 45.341a2.249 2.249 0 1 0 2.249 2.249 2.261 2.261 0 0 0 -2.249-2.249z" fill="#f79670" fill-rule="evenodd"/><path d="m34.191 45.5a3.1 3.1 0 1 0 3.094 3.1 3.11 3.11 0 0 0 -3.094-3.1z" fill="#f79670" fill-rule="evenodd"/><path d="m32.108 81.742a3.9 3.9 0 1 0 3.9 3.9 3.921 3.921 0 0 0 -3.9-3.9z" fill="#f79670" fill-rule="evenodd"/></svg>