<?xml version="1.0" encoding="UTF-8"?>
<!-- Generator: Adobe Illustrator 25.2.1, SVG Export Plug-In . SVG Version: 6.00 Build 0)  -->
<svg xmlns="http://www.w3.org/2000/svg" xmlns:xlink="http://www.w3.org/1999/xlink" version="1.1" id="Capa_1" x="0px" y="0px" viewBox="0 0 512 512" style="enable-background:new 0 0 512 512;" xml:space="preserve" width="512" height="512">
<g>
	<path style="fill:#FFFFFF;" d="M334.616,172.431c9.008-10.487,13.374-23.972,7.375-38.61c-5.03-12.273-15.116-16.956-26.542-17.382   c2.685-6.336,4.719-12.822,5.79-19.291c2.462-14.869-0.52-34.753-14.07-43.648c-15.812-10.38-34.378-2.88-47.414,8.771   c-1.669-7.158-3.614-14.233-5.747-21.178c-6.911-22.508-24.877-46.687-51.57-39.944c-24.896,6.289-32.719,32.071-30.603,55.19   c0.751,8.202,2.732,16.481,5.189,24.636c-15.579-4.273-33.866-1.97-43.997,10.888c-11.372,14.432-3.573,34.89,5.131,48.355   c3.512,5.433,8.236,10.433,13.61,14.983c-10.068,6.001-16.807,15.572-15.775,29.967c1.167,16.285,13.365,25.581,27.699,29.897   c-11.999,25.822-9.757,56.223-2.414,84.538c5.923,22.84,15.331,44.714,25.216,66.074c10.434,22.547,21.603,44.693,34.698,65.825   c11.632,18.771,24.906,36.999,39.665,53.441c14.847,16.54,32.532,27.72,55.386,27.027c47.012-1.424,56.622-57.44,62.469-93.382   c7.663-48.498,7.536-99.541,1.767-148.274C376.104,233.348,364.374,194.282,334.616,172.431z"/>
	<g>
		<g>
			<path style="fill:#1C9E5F;" d="M316.136,132.439c-12.762-0.248-25.573,3.502-36.187,10.591     c10.29-11.782,18.601-27.215,24.014-41.795c3.761-10.131,3.676-36.077-12.034-36.702c-6.03-0.238-11.94,2.115-16.905,5.547     c-18.028,12.465-23.097,36.432-26.734,58.046c4.128-24.537-1.197-53.531-7.857-77.138c-3.873-13.729-12.142-35.128-29.256-35.044     c-21.902,0.108-26.13,25.764-22.944,42.568c2.305,12.154,6.172,24.747,10.243,36.488c4.667,13.458,10.266,28.798,18.691,40.421     c-12.863-17.747-28.055-36.964-49.744-40.119c-5.972-0.869-12.312-0.349-17.609,2.543c-13.796,7.542-2.342,30.822,5.53,38.227     c11.328,10.656,25.632,20.787,40.086,26.769c-12.659-1.633-25.802,0.701-37.124,6.594c-7.491,3.901-8.518,13.818-3.91,20.564     c9.406,13.768,27.717,13.95,42.429,10.839c8.383-1.773,14.256-4.724,21.179-9.073c7.843-4.927,16.318-6.831,25.137-8.46     l0.037,0.158c0.523-0.152,1.041-0.299,1.562-0.45c0.534-0.097,1.063-0.195,1.599-0.291l-0.037-0.158     c8.624-2.46,17.062-4.521,26.278-3.592c8.135,0.82,14.707,0.853,23.004-1.284c14.561-3.75,30.884-12.052,33.192-28.565     C329.907,141.032,324.58,132.604,316.136,132.439z"/>
		</g>
		<g>
			<g>
				<path style="fill:#CBD115;" d="M244.756,186.351c0.926-0.217-5.279-30.068-13.86-66.674      c-8.58-36.605-16.287-66.103-17.214-65.886c-0.926,0.217,5.279,30.068,13.86,66.672      C236.123,157.069,243.83,186.568,244.756,186.351z"/>
			</g>
			<g>
				<path style="fill:#CBD115;" d="M281.688,89.505c-0.385-0.211-3.277,4.063-7.083,11.47c-3.809,7.398-8.392,18.002-12.144,30.164      c-3.733,12.167-5.904,23.514-6.912,31.773c-1.016,8.266-1.027,13.426-0.59,13.468c1.053,0.121,3.338-20.253,10.794-44.228      C273.064,108.131,282.628,89.996,281.688,89.505z"/>
			</g>
			<g>
				<path style="fill:#CBD115;" d="M309.494,148.968c-0.335-0.84-11.41,3.007-23.493,10.8      c-12.114,7.743-20.222,16.213-19.598,16.867c0.665,0.745,9.619-6.405,21.459-13.968      C299.666,155.048,309.895,149.883,309.494,148.968z"/>
			</g>
			<g>
				<path style="fill:#CBD115;" d="M237.867,188.765c0.369-0.254-2.404-5.133-7.604-12.553c-5.193-7.419-12.91-17.31-22.271-27.5      c-9.371-10.18-18.581-18.698-25.539-24.493c-6.958-5.803-11.588-8.975-11.872-8.628c-0.662,0.799,16.359,15.231,34.875,35.453      C224.058,171.189,237.015,189.357,237.867,188.765z"/>
			</g>
			<g>
				<path style="fill:#CBD115;" d="M226.119,187.284c0.28-0.849-11.648-5.22-27.146-6.696c-15.491-1.547-28.039,0.436-27.928,1.323      c0.079,1.006,12.474,0.59,27.593,2.106C213.765,185.452,225.847,188.255,226.119,187.284z"/>
			</g>
		</g>
		<g>
			<path style="fill:#F29D00;" d="M358.001,236.71c-5.393-20.272-16.089-40.229-33.67-52.389     c-15.193-10.508-34.3-14.28-52.755-13.454c-6.722,0.301-13.379,1.184-19.973,2.469l-0.014-0.06     c-1.948,0.406-3.886,0.848-5.819,1.31c-1.936,0.445-3.869,0.911-5.795,1.412l0.014,0.06c-6.478,1.779-12.834,3.947-18.989,6.665     c-16.899,7.461-32.34,19.331-41.28,35.496c-10.346,18.707-11.059,41.338-6.881,61.895c7.33,36.07,24.382,71.835,40.491,104.778     c12.414,25.387,27.484,49.473,44.886,71.739c14.47,18.514,32.681,43.441,59.487,39.154c31.496-5.038,36.948-37.187,42.259-62.999     c5.695-27.681,8.492-55.958,8.33-84.218C368.083,311.897,367.464,272.28,358.001,236.71z"/>
		</g>
		<g>
			<g>
				<path style="fill:#E06900;" d="M248.253,212.01c-0.307-0.932-14.586,3.022-32.296,7.361c-17.701,4.376-32.183,7.5-32.023,8.468      c0.141,0.91,14.994-0.711,32.846-5.123C234.642,218.339,248.551,212.882,248.253,212.01z"/>
			</g>
			<g>
				<path style="fill:#E06900;" d="M341.926,224.588c-0.182-0.472-6.453,1.556-16.595,4.708      c-10.141,3.158-24.198,7.324-39.913,11.203c-15.718,3.863-30.102,6.702-40.55,8.615c-10.446,1.919-16.942,3.036-16.883,3.538      c0.05,0.443,6.657,0.181,17.256-1.13c10.595-1.305,25.165-3.786,41.001-7.678c15.832-3.908,29.888-8.478,39.877-12.244      C336.114,227.84,342.087,225.003,341.926,224.588z"/>
			</g>
			<g>
				<path style="fill:#E06900;" d="M259.491,335.257c-0.379-0.923-13.396,3.732-29.809,8.096      c-16.397,4.424-29.998,6.898-29.864,7.887c0.097,0.899,14.102-0.069,30.756-4.56      C247.243,342.245,259.856,336.084,259.491,335.257z"/>
			</g>
			<g>
				<path style="fill:#E06900;" d="M344.111,336.09c-0.216-0.466-5.905,1.803-15.155,5.215c-9.247,3.419-22.12,7.837-36.618,11.759      c-14.503,3.9-27.851,6.555-37.564,8.249c-9.711,1.701-15.769,2.601-15.722,3.112c0.038,0.436,6.192,0.394,16.07-0.701      c9.872-1.087,23.451-3.39,38.112-7.334c14.657-3.964,27.552-8.801,36.632-12.826      C338.956,339.543,344.297,336.485,344.111,336.09z"/>
			</g>
			<g>
				<path style="fill:#E06900;" d="M333.009,363.971c-0.241-0.92-5.13-0.437-10.919,1.08c-5.79,1.517-10.287,3.492-10.046,4.413      c0.241,0.92,5.13,0.437,10.919-1.08C328.752,366.867,333.25,364.892,333.009,363.971z"/>
			</g>
			<g>
				<path style="fill:#E06900;" d="M336.423,392.887c-0.445-1.009-21.509,9.285-49.548,14.965      c-27.994,5.896-51.413,4.791-51.421,5.894c-0.023,0.422,5.796,1.242,15.284,1.289c4.742,0.039,10.391-0.211,16.642-0.776      c6.245-0.62,13.089-1.586,20.192-3.033c7.095-1.486,13.762-3.311,19.741-5.217c5.964-1.959,11.25-3.967,15.588-5.882      C331.593,396.324,336.612,393.265,336.423,392.887z"/>
			</g>
			<g>
				<path style="fill:#E06900;" d="M322.862,422.871c-0.403-0.904-10.269,2.754-22.685,6.27c-12.401,3.568-22.711,5.669-22.577,6.65      c0.102,0.906,10.841,0.308,23.522-3.337C313.817,428.855,323.253,423.695,322.862,422.871z"/>
			</g>
			<g>
				<path style="fill:#E06900;" d="M350.497,447.31c-0.52-0.887-12.345,5.631-28.046,10.706      c-15.665,5.182-29.057,6.911-28.952,7.934c0.018,0.875,13.905,0.663,30.023-4.66C339.67,456.06,351,448.026,350.497,447.31z"/>
			</g>
			<g>
				<path style="fill:#E06900;" d="M227.785,273.407c-0.262-0.942-10.225,1.062-22.528,3.171      c-12.296,2.144-22.355,3.601-22.285,4.576c0.056,0.923,10.378,0.994,22.872-1.182      C218.343,277.828,228.043,274.296,227.785,273.407z"/>
			</g>
			<g>
				<path style="fill:#E06900;" d="M314.151,183.202c-0.24-0.941-13.62,1.696-30.094,4.928c-16.469,3.257-29.849,5.892-29.715,6.853      c0.125,0.923,13.804-0.196,30.38-3.474C301.304,188.256,314.386,184.104,314.151,183.202z"/>
			</g>
		</g>
		<g>
			<path style="fill:#202D7D;" d="M247.451,294.69c1.673,7.135-0.339,13.709-4.493,14.683c-4.154,0.974-8.877-4.021-10.549-11.157     c-1.672-7.135,0.339-13.709,4.493-14.683C241.056,282.56,245.779,287.555,247.451,294.69z"/>
			<path style="fill:#202D7D;" d="M315.844,278.658c1.673,7.135-0.339,13.709-4.492,14.683c-4.154,0.974-8.877-4.021-10.549-11.157     c-1.673-7.135,0.339-13.709,4.492-14.683C309.448,266.528,314.171,271.523,315.844,278.658z"/>
		</g>
		<g>
			<path style="fill:#202D7D;" d="M252.658,292.189c0.035,0.166,0.052,0.332,0.091,0.498c1.198,5.109,4.057,9.395,7.873,12.42     l34.159-7.992c2.08-4.409,2.741-9.527,1.542-14.642c-0.039-0.166-0.098-0.322-0.14-0.487L252.658,292.189z"/>
			<path style="fill:#FA3E00;" d="M294.779,297.078c-5.403-3.32-12.066-4.595-18.728-3.033c-6.662,1.562-12.064,5.665-15.429,11.04     c5.172,4.105,12.092,5.906,19.021,4.282C286.571,307.742,291.97,303.054,294.779,297.078z"/>
		</g>
	</g>
</g>















</svg>
