<svg id="Layer_1" enable-background="new 0 0 75 75" height="512" viewBox="0 0 75 75" width="512" xmlns="http://www.w3.org/2000/svg"><g id="_x34_5"><g><g><g><g><g><path d="m55.2563438 50.4136505-2.140789.2043991c-.860611-8.9397163-3.6576767-17.9655151-8.0253334-26.1307068-1.3339577-2.5065174-2.8293037-4.937788-4.453743-7.2507381-.5730057-.8155823-1.7677231-.9333878-2.4419708-.236639-1.5061188 1.527586-2.8938484 3.1735592-4.1417885 4.9270191-5.5187492 7.7348518-8.3910618 17.3416119-7.8208675 26.7546787l-2.140789.1290855c-.5917301-9.7358475 2.3128853-19.676033 7.928484-27.7336063 1.3877335-1.9793968 2.9368553-3.862009 4.6473732-5.5832939 1.4435234-1.5176334 4.1682739-1.5716534 5.7230835.5056496 1.9256859 2.7432232 3.6684456 5.6370697 5.1960297 8.6492386 4.1524924 8.100645 6.8096999 16.9758205 7.6703108 25.7649135z" fill="#32d457"/></g></g><g><path d="m47.5860329 24.648737c-.8390732.0215359-1.6782112-.0215378-2.4958115-.1613941-1.3339577-2.5065174-2.8293037-4.937788-4.453743-7.2507381-.5730057-.8155823-1.7677231-.9333878-2.4419708-.236639-1.5061188 1.527586-2.8938484 3.1735592-4.1417885 4.9270191-.7099838-.1613274-1.4307365-.44104-2.0331726-.8498421 1.3877335-1.9793968 2.9368553-3.862009 4.6473732-5.5832939.4195023-.441041.9466248-.7530584 1.516819-.9251547 1.4239655.47472 2.0697479.8085995 4.1094818 1.3124189.0322418.0323048.0645447.0753126.0967827.1183853 1.9256859 2.7432232 3.6684456 5.6370697 5.1960297 8.6492386z" fill="#04aa1f"/></g><g><g><path d="m38.8954735 55.4932899c-3.7567978 4.7910995-8.8170986 8.3686485-14.3207436 10.6389122-1.3958302.5715332-3.0004177.3187714-4.1984234-.6044693-3.6528206-2.8521957-7.2882013-6.0928268-9.9795027-9.9904366-.4725885-.6924132-.9231748-1.4178313-1.3298225-2.1541862-.760623-1.3399887-1.4428344-3.2417412-1.5716505-5.066658-.6343374-7.6105995 7.6755095-10.5767059 12.8809757-7.0340233 1.9123554 1.285881 3.2861843 3.2312431 4.1654205 5.3744278.1868877.4066467.3407059.824295.4725876 1.2529488.087944.274765.4726563.2966995.6155396.0439377 1.7088318-3.3770599 6.3240833-5.7180367 10.0453777-4.4511871 2.2750664.8132935 4.2094231 2.505825 4.9897842 4.7698898.9671784 2.8465996.0000001 4.9567795-1.7695426 7.2208442z" fill="#ff5746"/></g><g><path d="m38.8954735 55.4932899c-3.7567978 4.7910995-8.8170986 8.3686485-14.3207436 10.6389122-1.3958302.5715332-3.0004177.3187714-4.1984234-.6044693-2.6294422-2.0531197-4.0324764-3.3273888-5.6821327-4.9237747 2.1211815 1.1209946 4.5391312 1.7035294 6.9460793 1.6155891 10.6895885-.4358521 17.401701-12.9898109 11.6002293-16.592926-4.3199043-2.6829605-6.8753891 3.5940475-7.7984943 3.7903671-.8903141.1893463-1.0247173-1.8403473-1.3007641-2.7550697-.2479706-.8216858-.5148849-1.6391068-.8638554-2.4242897.5557556 1.2504539 1.3080025 2.3406982 1.7369461 3.6721764.087944.274765.4726563.2966995.6155396.0439377 1.7257977-3.4105911 6.3628502-5.7048416 10.0453777-4.4511871 2.2750664.8132935 4.2094231 2.505825 4.9897842 4.7698898.9671783 2.8465996 0 4.9567795-1.7695427 7.2208442z" fill="#ba2525"/></g><g><path d="m69.1526871 52.5808182c-2.4783096 5.5043488-6.2043228 10.0990944-11.2324524 13.8701553-1.2089424.9012375-2.8245316 1.0550613-4.2093582.4505844-5.0547714-2.200264-10.2057228-4.9585915-13.9801064-8.9463768-.4835892-.5275307-.9561768-1.1099968-1.3518219-1.7145348-1.1304855-1.506546-1.9780922-3.9008064-1.9233589-5.923893.1208801-4.7699585 4.7259521-7.737442 9.1332016-7.3417931.7144165.0550041 1.4177666.1978874 2.0991783.4396515 2.5938377.9232407 4.66008 2.9344749 6.1327858 5.2754822.1538849.2418289.5385284.1758881.6044693-.1208801.8691216-3.8365211 4.9244194-7.1393547 8.6276779-6.7921944 2.4069519.2088242 4.703949 1.3738251 6.0118408 3.3741264 1.6485901 2.5168306 1.2419434 4.8028985.0879441 7.4296724z" fill="#ff5746"/></g><g><path d="m69.1526871 52.5808182c-.0989456.2197571-.1868286.4285812-.2967682.6374054.010994-.0110016.010994-.0329361.010994-.0439377.2967682-2.4728889-.0879364-5.1766052-1.7804718-7.0010185-1.8134766-1.9453621-4.879837-2.4618874-7.3747292-1.5387154-2.4948273.9342461-4.3962479 3.1213684-5.3304253 5.6162605-2.5937691-2.5168953-5.4953079-5.1656075-9.0892639-5.4733772-4.316143-.3650703-8.7451363 3.2931252-8.5396652 7.9462662-.2198257-.7803574-.3187714-1.5936546-.2967682-2.4069481.1428833-5.5393181 6.3306084-8.6496811 11.2323799-6.9021416 2.5938377.9232407 4.66008 2.9344749 6.1327858 5.2754822.1538849.2418289.5385284.1758881.6044693-.1208801.8603134-3.7976456 4.8720703-7.1337204 8.6276779-6.7921944 2.4069519.2088242 4.703949 1.3738251 6.0118408 3.3741264 1.6485901 2.5168305 1.2419434 4.8028984.0879441 7.4296723z" fill="#ff908a"/></g><g><path d="m67.8008575 55.2954674c-2.4669724 4.4405594-5.91222 8.1792336-9.8806229 11.1555061-1.2089424.9012375-2.8245316 1.0550613-4.2093582.4505844-5.0547714-2.200264-10.2057228-4.9585915-13.9801064-8.9463768-.4835892-.5275307-.9561768-1.1099968-1.3518219-1.7145348.461586.3077698.9451752.9122391 1.2748795 1.1870041 1.8489227 1.5246353 3.7468796 2.8239594 5.9459648 3.8467178 8.5472069 4.0002899 15.7080116 1.2962303 21.9482346-5.6821327.0879441-.0989456.1758881-.1978225.2528305-.2967681z" fill="#ba2525"/></g><g><path d="m60.9536552 41.9528389c-2.4973755 1.5527267-3.7726402 4.5423126-4.791893 7.077961-.274765.7034187-.7144165 1.5277138-1.4727707 1.5716515-.7253532.0330048-1.2309456-.6594086-1.6375923-1.2528801-1.8683548-2.7257195-4.4731903-4.9567795-7.4626083-6.3746109.7144165.0550041 1.4177666.1978874 2.0991783.4396515 2.5938377.9232407 4.66008 2.9344749 6.1327858 5.2754822.1538849.2418289.5385284.1758881.6044693-.1208801.7174149-3.1668512 3.5925674-5.9253656 6.5284309-6.6163751z" fill="#ba2525"/></g><g><path d="m8.3855686 51.9433441c.0219355.0549393.0439386.098877.0768747.1428833l-.0109339.0439377c-.0220021-.0659409-.0550069-.1208801-.0659408-.186821z" fill="#ff908a"/></g><g><path d="m24.5417271 46.6568565c-1.4397697-2.2970695-3.5938873-4.1654892-6.1657219-4.9897842-5.0048952-1.6191444-10.6127396 1.1871948-10.8806744 6.6493797-.6343374-7.6105995 7.6755095-10.5767059 12.8809757-7.0340233 1.9123555 1.2858811 3.2861843 3.2312432 4.1654206 5.3744278z" fill="#ff908a"/></g><g><path d="m14.7252121 53.557003c-2.4205942.7800865-3.4005213-2.4740829-3.2955475-4.2595215.0889482-1.5128708.9934654-4.254097 2.9404936-3.8811455.703804.1348114 1.288518.6575851 1.644166 1.2797012.6034756 1.0556259.9566021 3.4179878.5241165 4.8437271-.2729588.8998376-.9182291 1.7288056-1.8132286 2.0172387z" fill="#ff908a"/></g><g><path d="m41.1276321 49.7364502c.1479607-.6083984.4110298-1.2320404.9310188-1.5808296.6978607-.4681053 1.6850128-.2888412 2.3469276.2288513.661911.5176964 1.0562439 1.3027344 1.3539467 2.0885506.3474121.917038.5947189 1.9044685.4503822 2.8744278-.3025703 2.0333099-2.5626335 3.0969276-4.2018814 1.683403-1.2603568-1.0868073-1.2257651-3.8742333-.8803939-5.2944031z" fill="#ff908a"/></g></g><g><path d="m39.938076 17.0706215c-.25.9299927-1.2900391 1.1399536-2.1600342 1.3699951-.6199951.1599731-1.2399902.25-1.8599854.2599487-1.4700317.0400391-2.9500122-.2599487-4.2999859-.8299561-2.5499878-1.0900269-4.6300049-3.0800171-6.2999878-5.2900391-1.2851238-1.7243576-2.4649296-3.7901974-3.5700073-5.7799687-.3000488-.539978.1199951-1.1799927.7399902-1.1400146 2.4199829.1799927 4.9099731-.2000122 7.3300171.1400146 3.1147594.4335651 6.2546902 2.2535634 8.3499737 5.2799687 1.0644761 1.5182143 2.2363358 4.2281085 1.7700196 5.9900514z" fill="#32d457"/></g><g><path d="m39.9372635 17.0752773c-.2474098.9251537-1.290947 1.1403236-2.1623268 1.3661938-.6132011.1613941-1.2371712.2474747-1.8610764.2581768-.3765602-2.7001495.4518089-5.572526 2.2591095-7.6164665 1.0552712 1.5263767 2.2336159 4.2086525 1.7642937 5.9920959z" fill="#04aa1f"/></g><g><path d="m58.7956314 22.0130653c-2.1908607.4450665-4.522789.8860283-6.7128487 1.0220032-2.7754631.1720943-5.6370697-.1290894-8.1221161-1.3770294-1.8718452-.9251537-3.4962807-2.4312038-4.4214363-4.313818-.3980331-.8068333-.9036827-1.7427559-.3657951-2.5281181.0860825-.1183205.1721649-.225872.2689476-.3334894h.0107689c.62397-.6777458 1.5491219-1.1403227 2.377491-1.4630432 4.1309547-1.6352043 9.1548882-.7530584 12.4897766 2.1945648 1.8288383 1.6244364 3.1412582 3.7652254 4.8625412 5.4865122.4302712.44104.2151032 1.1833286-.3873291 1.3124179z" fill="#09c631"/></g></g><g><path d="m58.7956314 22.0130653c-.6884499.1398563-1.3769646.2689438-2.0654755.3980331.2446518-4.7380371-3.697319-9.1245832-9.4560738-9.4990797-2.8508415-.18293-5.131485 1.0112343-7.8209305 1.5705948.62397-.6777458 1.5491219-1.1403227 2.377491-1.4630432 4.1309547-1.6352043 9.1548882-.7530584 12.4897766 2.1945648 1.8288383 1.6244364 3.1412582 3.7652254 4.8625412 5.4865122.4302713.4410401.2151033 1.1833287-.387329 1.312418z" fill="#60f47b"/></g></g><g><path d="m21.9080486 6.4205966c.0999756.4000244.2000122.7999878.2999878 1.1900024-.1599731-.2700195-.3099976-.539978-.4599609-.8099976-.3000488-.539978.1199951-1.1799927.7399902-1.1400146 2.4199829.1799927 4.9099731-.2000122 7.3300171.1400146 2.7299786.3800049 5.2799664 1.789978 7.1599712 3.7999883-4.4000244-2.8699955-9.8900127-4.059998-15.0700054-3.1799931z" fill="#60f47b"/></g></g><g><path d="m19.9150066 69.0668945c-1.9549065-.6125183-3.3266869-2.1567917-4.7050791-3.6806641-2.4015598-2.6593513-5.1033506-5.3352051-7.1582031-8.4472618-1.6621089-2.515625-3.5595698-6.4091797-3.1611323-10.6708984.3867188-4.1181641 3.1113276-7.6865234 6.6269526-8.6796875.265625-.0732422.5419922.0800781.6171875.3457031s-.0800781.5419922-.3457031.6171875c-3.1269531.8828125-5.5537105 4.0947266-5.9023433 7.8105469-.3720703 3.9716797 1.4257813 7.6445313 2.999023 10.0263672 1.5732422 2.3808594 3.5625 4.5292969 5.4863281 6.6074219 4.0694094 4.3922615 5.31215 6.5750465 10.9169931 4.6591759 4.6787109-1.5957031 8.8378887-4.4355431 12.0263653-8.2119102.1787109-.2109375.4941406-.2353516.7041016-.0595703.2109375.1777344.2382813.4931641.0595703.7041016-3.3056641 3.9160118-7.6171856 6.8603477-12.4677715 8.5146446-1.8571301.6328887-3.8280754 1.0493773-5.6962891.4648436z" fill="#ff5746"/></g></g></svg>