<svg id="Layer_1" enable-background="new 0 0 512 512" height="512" viewBox="0 0 512 512" width="512" xmlns="http://www.w3.org/2000/svg"><path d="m259.276 245.433s.006.009.447.748l-.323-.086c-.076-.426-.124-.662-.124-.662z" fill="#d33a22"/><g><g><circle cx="256" cy="246.556" fill="#89c0ef" r="232.287"/></g><g><g><path d="m153.174 411.72s-55.404 3.455-58.029-17.791c-1.507-12.193 15.983-12.338 15.983-12.338s-5.73-8.585.396-13.146c7.1-5.285 14.565.594 14.565.594s.234-9.742 8.446-10.359c11.359-.854 41.147 29.06 41.147 29.06s12.679 22.86-22.508 23.98z" fill="#fff"/></g><g><path d="m295.349 489.21c1.06-3.961 9.33-7.916 10.626-8.514-6.53-12.811-33.646-58.654-33.646-58.654s13.332-22.862 23.719-10.085 18.796 64.707 18.796 64.707c10.382-4.37 27.094-10.18 33.236-5.406 2.085-.113 6.366.173 7.151 4.277-.808-.502-2.652-1.685-5.837-.907-.797 1.235-3.147 2.183-6.272 2.907 9.002.643 17.058 2.853 20.577 8.131.518.777.836 1.473.991 2.104 2.685 1.677 6.41 5.017 4.537 9.96-.668-1.335-2.243-4.608-7.864-5.838-11.791 3.551-49.834-4.88-49.834-4.88s-9.095 9.719-14.57 5.851c-3.677 1.165-4.793 3.479-5.291 4.475-1.521-4.022 1.487-6.748 3.681-8.128z" fill="#f29222"/><path d="m181.557 489.21c-1.06-3.961-9.33-7.916-10.626-8.514 6.53-12.811 33.646-58.654 33.646-58.654s-13.332-22.862-23.719-10.085-18.796 64.707-18.796 64.707c-10.382-4.37-27.094-10.18-33.236-5.406-2.085-.113-6.366.173-7.151 4.277.808-.502 2.652-1.685 5.837-.907.797 1.235 3.147 2.183 6.272 2.907-9.002.643-17.058 2.853-20.576 8.131-.518.777-.836 1.473-.991 2.104-2.685 1.677-6.41 5.017-4.537 9.96.668-1.335 2.243-4.608 7.864-5.838 11.791 3.551 49.834-4.88 49.834-4.88s9.095 9.719 14.57 5.851c3.677 1.165 4.793 3.479 5.291 4.475 1.521-4.022-1.487-6.748-3.682-8.128z" fill="#f29222"/><path d="m227.823 273.131s.006.009.422.706l-.305-.082c-.072-.401-.117-.624-.117-.624z" fill="#d33a22"/><g><path d="m430.92 174.465c-2.447-.143-5.238 1.212-7.263 2.373 6.063-17.71 24.044-27.638 36.805-39.87-17.541-4.708-33.876 2.349-45.161 9.798-.04-.062-.076-.124-.117-.187 0 0-2.925-2.409 1.18-10.072 5.471-10.215 18.583-26.841 20.874-31.236-29.047-5.178-43.958 25.524-43.983 25.565-2.752 4.591-11.978-8.321-.316-42.649-21.606 1.684-27.444 26.37-25.446 44.26-.575 15.064-10.234 16.743-10.344 16.829-5.856-20.842-15.343-21.113-29.752-11.215 10.371 5.46 23.712 21.326 22.09 34.318-2.018 16.168-35.41 19.941-48.12 20.69-2.909.172-5.871.287-8.62 1.255-5.38 1.894-13.866 20.848-13.334 26.44.015.158.037.308.053.465-13.482-4.385-29.417-6.157-47.964-4.491-10.75.965-20.603 3.242-29.585 6.574-4.063-3.559-10.565-6.065-20.123-7.145-37.674-4.259-72.965 12.188-99.558 38.056-8.851 8.61-18.266 18.929-24.922 29.223-.679 1.05.367 2.368 1.408 3.061 2.677 1.782 5.807 2.46 8.983 2.514-3.79-.064-11.356 6.191-14.074 8.658-2.286 2.076-12.927 18.249-2.845 15.133 4.476-1.383 8.081-4.389 11.684-7.253-4.768 3.791-24.011 21.408-13.817 28.017 1.495.969 3.474.924 5.144.3 3.464-1.294 5.934-4.275 7.984-7.215-.455 4.264-2.585 8.821-2.933 13.42-.349 4.613.063 10.483 3.37 14.042.898.966 2.057 1.746 3.36 1.947 3.041.469 2.148-.899 4.476 1.239 1.734 1.593 2.968 4.451 4.481 6.326 18.182 22.527 49.413 42.926 77.977 26.301 4.282 6.031 9.295 11.54 15.04 16.36-2.738 2.955-5.536 6.301-7.517 9.478-3.609 5.787.372 10.711 5.269 10.957 1.329 10.531 24.177 18.67 34.371 12.733 4.122 3.185 11.377.432 11.617-6.904.071-2.177-.135-4.529-.518-6.914 9.317 1.519 19.479 1.866 30.489.836 8.174-.764 15.884-2.467 23.115-4.959-.968 3.882-1.638 7.92-1.555 11.493.17 7.338 7.399 10.16 11.551 7.014 10.137 6.034 33.061-1.887 34.491-12.405 4.899-.199 8.927-5.085 5.373-10.906-3.884-6.362-10.995-13.425-14.463-16.697 33.254-31.162 46.11-83.427 33.103-124.295 18.604 1.451 35.002-6.363 35.544-20.347.029-.754-.467-1.277-1.178-1.681 5.367 1.811 12.15 3.169 16.778.556 7.079-3.997.508-9.275-3.581-11.974 4.16 2.747 18.389-4.916 21.645-8.054 2.208-2.129 3.386-4.671 2.148-7.565-1.256-2.935 20.095 3.216 8.385-9.278.598.638 13.587-7.465 14.75-8.404 3.786-3.055 10.745-15.731-.212-12.817-3.733.993-7.302 2.587-10.54 4.69 5.13-3.48 30.552-25.435 14.303-26.388z" fill="#fff"/></g><path d="m164.742 358.314c.008.029.01.058.017.087-.005-.03-.011-.058-.017-.087z" fill="#fff"/><g><g><path d="m268.481 85.431c-17.053-21.541-55.133-25.321-80.352-20.308-28.98 5.76-47.759 33.407-48.892 35.566-4.712 8.975 7.18 7.629 7.18 7.629s-13.239 21.989-13.912 30.516 12.565 0 12.565 0-16.156 43.53-7.18 48.915c6.884 4.13 13.014-1.346 13.014-1.346s-16.604 31.862-7.629 41.735c9.181 10.099 34.555-7.068 34.555-7.068s-8.979 37.275 4.375 39.043c15.258 2.019 30.292-12.453 30.292-12.453s22.55 23.224 47.12 19.858c20.798-2.849 22.55-31.974 22.55-31.974s12.79 2.356 24.233-1.01c11.444-3.366-19.68-56.638-19.68-56.638s-6.379-77.485-18.239-92.465z" fill="#fff"/></g><path d="m267.618 148.104c5.456-4.206 9.951-16.115 6.361-33.841s-20.123-32.765-34.106-29.618c-17.951 4.039-7.462 26.404-15.146 28.16-7.853 1.795-13.014-15.707-24.199-19.45-9.094-3.044-16.505-5.531-27.23 5.361-14.315 14.538-12.857 33.498-11.286 40.903 2.356 11.106 16.639 27.782 41.208 22.061 24.57-5.722 20.508-17.817 32.087-20.755 11.578-2.939 21.54 15.482 32.311 7.179z" fill="#e20613"/><g><ellipse cx="192.288" cy="127.712" fill="#fff" rx="18.95" ry="24.945" transform="matrix(.96 -.279 .279 .96 -28.002 58.74)"/><ellipse cx="194.411" cy="132.086" rx="12.826" ry="18.168" transform="matrix(.975 -.224 .224 .975 -24.647 46.904)"/></g><g><ellipse cx="251.37" cy="119.4" fill="#fff" rx="18.95" ry="24.945" transform="matrix(.96 -.279 .279 .96 -23.335 74.899)"/><ellipse cx="249.257" cy="122.38" rx="12.826" ry="18.168" transform="matrix(.975 -.224 .224 .975 -21.079 58.943)"/></g><path d="m228.765 97.005c-4.039-.673 1.801-17.399 10.658-19.091 13.892-2.654 24.047 12.001 22.438 14.136-.807 1.072-8.414-7.386-17.502-6.601-9.087.786-13.582 11.891-15.594 11.556z"/><path d="m208.459 98.239c1.636-.716.093-2.998.093-2.998-1.803-2.179-12.77-13.849-24.214-11.381-15.292 3.298-21.316 24.682-19.521 25.355s4.015-10.711 20.194-15.258c14.208-3.993 21.653 5.067 23.448 4.282z"/><path d="m158.534 79.372s9.2-41.286 45.156-44.653c12.441-1.165-1.385 14.776-1.385 14.776s33.016-10.39 40.173-.924-13.488 17.114-13.488 17.114 7.18 18.848-1.122 23.56c-9.736 5.526-21.983-12.121-31.414-19.521-6.771-5.313-11.219-3.814-11.219-3.814-15.482 3.589-26.701 13.462-26.701 13.462z" fill="#e20613"/><path d="m266.349 243.284c-11.799 2.95-21.018-16.298-21.018-16.298s.074 19.405-6.244 20.337c-20.531 3.029-21.877-44.428-.337-48.803s39.716 41.734 27.599 44.764z" fill="#e20613"/><g><ellipse cx="185.474" cy="163.691" fill="#e30613" rx="10.434" ry="4.945" transform="matrix(.991 -.137 .137 .991 -20.719 27.017)"/></g><g><path d="m266.013 181.354c1.346 7.741-5.266 28.147-24.57 30.292-21.204 2.356-47.457-11.107-48.803-47.457-.664-17.931 49.925-24.57 60.359-16.829 10.433 7.741 13.014 33.994 13.014 33.994z" fill="#e30613"/></g><g><ellipse cx="267.256" cy="155.163" fill="#e30613" rx="10.434" ry="4.945" transform="matrix(.991 -.137 .137 .991 -18.773 38.165)"/></g><g><path d="m257.345 170.449s-7.02-15.555 12.785-17.611c1.743-7.265-5.57-16.967-14.884-20.981-22.494-9.694-30.468 13.84-43.097 19.212-4.489 1.909-9.033 1.243-9.033 1.243s-8.768-3.642-9.921.746c-1.596 6.076 8.359 8.34 8.359 8.34 7.691 29.888 20.466 35.648 29.71 38.553 15.529 4.881 41.619-10.156 26.081-29.502z" fill="#f29222"/><path d="m260.43 147.194c-9.007-5.068-17.184 18.898-51.787 15.935 4.951 10.444 13.039 16.882 21.244 19.162 20.091 5.583 26.784-4.254 27.527-11.306 0 0-6.348-2.833-4.64-14.191.733-4.885 7.656-9.6 7.656-9.6z"/><path d="m221.207 176.008c1.776 1.854 5.843 5.808 17.745 6.713 0-.001-3.333-12.965-17.745-6.713z" fill="#e20613"/><g fill="#fff"><path d="m241.481 134.34c3.477-.131 6.744.503 9.806 1.893.953.343 1.892.736 2.816 1.185 1.741.728 3.356 1.672 4.845 2.832.063-.091.116-.187.15-.291.589-1.763-3.324-4.66-8.739-6.469-5.416-1.81-10.284-1.847-10.873-.084-.118.353-.048.753.171 1.18.609-.082 1.217-.164 1.824-.246z"/><ellipse cx="261.704" cy="141.901" rx="1.4" ry="1.989" transform="matrix(.383 -.924 .924 .383 30.411 329.328)"/></g></g><g fill="#fff"><path d="m189.038 127.73c-.062.013-.121.032-.183.043-3.18.582-6.229-1.523-6.811-4.702-.072-.394-.103-.786-.096-1.172.049-2.612 1.855-4.921 4.457-5.559.113-.028.224-.059.34-.08 3.179-.582 6.229 1.523 6.811 4.702.199 1.086.078 2.154-.286 3.116-.68 1.8-2.229 3.218-4.232 3.652z"/><path d="m242.441 120.549c-.062.013-.121.032-.183.043-3.18.582-6.229-1.523-6.811-4.702-.072-.394-.103-.786-.095-1.172.049-2.612 1.855-4.921 4.457-5.559.113-.028.224-.059.34-.08 3.179-.582 6.229 1.523 6.811 4.702.199 1.086.078 2.154-.286 3.116-.681 1.801-2.23 3.219-4.233 3.652z"/></g></g><g><path d="m286.419 268.398c8.563 15.736-5.58 16.769-13.847 9.535 2.627 4.577 3.749 20.227-8.652 21.703-16.738 1.993-25.114-15.207-25.114-15.207-6.576 14.61-25.88 18.012-27.799-9.449-4.452 6.781-3.131 21.611 4.429 26.421 13.808 8.786 21.885-5.033 21.885-5.033s9.917 14.37 29.58 10.972c16.334-2.822 13.703-18.661 13.703-18.661s7.914 3.777 11.9-.357.116-14.609-6.085-19.924z" fill="#89c0ef"/></g><g><path d="m331.401 274.601c-2.599-30.002-17.616-47.544-25.859-49.891-.019.015 12.899-2.603 23.267 18.892 7.915 16.637 2.592 30.999 2.592 30.999z" fill="#89c0ef"/></g></g><path d="m161.214 346.368s12.117-21.765-20.755-24.122c9.698-12.417 11.653-27.794 11.653-27.794s-18.848 26.926-28.945 41.96c1.927-.421 3.858-1.485 5.757-3.012 1.051-.844 2.091-1.839 3.116-2.937 4.79-1.128 12.654-2.624 16.033-1.231 6.395 2.636 12.448 15.476 7.798 15.37-1.141-2.224-4.245-3.755-7.685-4.263 0 0 2.412 2.131 3.703 6.114 1.29 3.983-.393 8.863-.393 8.863s1.048.308 2.076-.561c1.409-1.191 2.788-3.891 1.459-6.227 2.006 1.609 9.424 6.507 10.322 13.239.811 6.08-1.305 11.91-4.047 16.65.128-.266.129-.268.129-.268s-18.178 25.663-58.099 8.554c0 0 26.376 21.743 53.109 1.782.147-.305.29-.6.428-.887 2.707-1.518 6.19-4.083 9.149-8.257 15.499-21.866-4.808-32.973-4.808-32.973z" fill="#89c0ef"/></g></g></svg>