<?xml version="1.0" encoding="UTF-8"?>
<!-- Generator: Adobe Illustrator 25.3.1, SVG Export Plug-In . SVG Version: 6.00 Build 0)  -->
<svg xmlns="http://www.w3.org/2000/svg" xmlns:xlink="http://www.w3.org/1999/xlink" version="1.1" id="Capa_1" x="0px" y="0px" viewBox="0 0 512 512" style="enable-background:new 0 0 512 512;" xml:space="preserve" width="512" height="512">
<g>
	<g>
		<path style="fill:#BD7E92;" d="M54.278,315.635c0,0-22.519-12.728-23.043,5.926c-0.278,9.901,20.487,7.03,20.41,4.151    c-0.077-2.879-8.65,5.82-1.776,12.594C56.743,345.079,68.031,323.47,54.278,315.635z"/>
		<path style="fill:#BD7E92;" d="M56.265,313.51c0,0-8.809-24.321,9.673-21.738c9.81,1.371,3.528,21.37,0.702,20.816    c-2.826-0.554,7.176-7.562,12.714,0.341C84.89,320.834,61.705,328.375,56.265,313.51z"/>
		<path style="fill:#241726;" d="M52.715,311.792c-0.301,0-0.602-0.113-0.837-0.339c-0.202-0.195-4.992-4.884-4.95-10.64    c0.024-2.926,1.274-5.57,3.721-7.862c0.487-0.451,1.246-0.43,1.702,0.056c0.454,0.484,0.428,1.246-0.056,1.702    c-1.944,1.819-2.938,3.876-2.959,6.111c-0.042,4.715,4.174,8.863,4.217,8.903c0.477,0.463,0.489,1.225,0.028,1.702    C53.343,311.67,53.028,311.792,52.715,311.792z"/>
		<path style="fill:#241726;" d="M50.805,313.353c-0.36,0-0.715-0.16-0.952-0.468c-3.26-4.221-6.602-6.459-9.371-6.384    c-2.947,0.045-4.724,2.444-4.741,2.47c-0.388,0.533-1.147,0.658-1.678,0.273c-0.538-0.388-0.665-1.133-0.28-1.673    c0.099-0.139,2.458-3.391,6.623-3.474c0.054-0.002,0.108-0.002,0.162-0.002c3.674,0,7.436,2.461,11.188,7.319    c0.407,0.526,0.31,1.281-0.216,1.688C51.322,313.27,51.063,313.353,50.805,313.353z"/>
	</g>
	<g>
		<path style="fill:#BD7E92;" d="M427.383,37.647c0,0,0.68-25.858-16.04-17.572c-8.875,4.398,3.399,21.391,5.905,19.973    c2.506-1.418-9.196-4.91-11.956,4.338C402.533,53.633,426.913,53.469,427.383,37.647z"/>
		<path style="fill:#BD7E92;" d="M430.191,38.406c0,0,17.349-19.186,23.735-1.652c3.389,9.307-17.22,13.138-18.055,10.382    c-0.836-2.756,10.045,2.791,5.661,11.389C437.148,67.123,419.614,50.182,430.191,38.406z"/>
		<path style="fill:#241726;" d="M431.106,35.104c-0.11,0-0.221-0.014-0.331-0.047c-0.639-0.183-1.008-0.848-0.825-1.488    c0.078-0.273,1.972-6.703,7.077-9.364c2.59-1.354,5.512-1.488,8.687-0.399c0.628,0.214,0.964,0.898,0.747,1.528    c-0.214,0.628-0.898,0.966-1.528,0.747c-2.527-0.865-4.811-0.776-6.795,0.258c-4.198,2.188-5.859,7.836-5.876,7.892    C432.112,34.761,431.63,35.104,431.106,35.104z"/>
		<path style="fill:#241726;" d="M428.834,34.148c-0.167,0-0.336-0.035-0.496-0.108c-0.606-0.273-0.874-0.987-0.599-1.591    c2.198-4.856,2.628-8.753,1.241-11.267c-1.42-2.583-4.374-3.025-4.404-3.03c-0.656-0.092-1.116-0.696-1.027-1.351    c0.092-0.656,0.71-1.116,1.344-1.034c0.169,0.024,4.151,0.581,6.177,4.219c1.812,3.255,1.429,7.782-1.14,13.456    C429.729,33.885,429.292,34.148,428.834,34.148z"/>
	</g>
	<path style="fill:#241726;" d="M38.39,245.193h-0.035c-4.588-0.019-8.304-3.768-8.285-8.358c0.019-4.569,3.751-8.285,8.32-8.285   c2.259,0.009,4.346,0.884,5.911,2.463c1.563,1.577,2.421,3.671,2.411,5.892C46.691,241.475,42.957,245.193,38.39,245.193z    M38.416,230.957c-3.274,0-5.925,2.642-5.939,5.887c-0.014,3.262,2.628,5.928,5.888,5.942l0.026,1.203v-1.203   c3.246,0,5.899-2.642,5.916-5.89c0.007-1.579-0.602-3.067-1.716-4.188C41.478,231.585,39.995,230.964,38.416,230.957z"/>
	<path style="fill:#241726;" d="M464.382,278.888h-0.035c-4.588-0.019-8.304-3.768-8.285-8.358c0.019-4.569,3.751-8.285,8.32-8.285   c2.259,0.009,4.346,0.884,5.911,2.463c1.563,1.577,2.421,3.671,2.411,5.892C472.684,275.169,468.949,278.888,464.382,278.888z    M464.408,264.652c-3.274,0-5.925,2.642-5.939,5.887c-0.014,3.262,2.628,5.928,5.888,5.942l0.026,1.203v-1.203   c3.246,0,5.899-2.642,5.916-5.89c0.007-1.579-0.602-3.067-1.716-4.188C467.471,265.279,465.987,264.659,464.408,264.652z"/>
	<g>
		<path style="fill:#241726;" d="M43.859,96.272h-0.007c-0.665-0.005-1.201-0.545-1.196-1.21l0.12-20.253    c0.005-0.663,0.543-1.196,1.203-1.196h0.007c0.665,0.005,1.201,0.545,1.196,1.21l-0.12,20.253    C45.058,95.738,44.52,96.272,43.859,96.272z"/>
		<path style="fill:#241726;" d="M35.694,91.851c-0.378,0-0.752-0.179-0.987-0.515c-0.381-0.545-0.247-1.295,0.299-1.676L51.731,78    c0.538-0.376,1.293-0.249,1.676,0.299c0.381,0.545,0.247,1.295-0.299,1.676l-16.725,11.66    C36.174,91.78,35.934,91.851,35.694,91.851z"/>
		<path style="fill:#241726;" d="M50.379,92.702c-0.32,0-0.637-0.127-0.874-0.376L36.86,78.964    c-0.456-0.482-0.435-1.246,0.047-1.702c0.484-0.458,1.243-0.432,1.702,0.047l12.645,13.362c0.456,0.482,0.435,1.246-0.047,1.702    C50.974,92.593,50.675,92.702,50.379,92.702z"/>
		<path style="fill:#241726;" d="M33.407,85.93c-0.66,0-1.196-0.531-1.203-1.192c-0.007-0.665,0.526-1.208,1.192-1.215l19.479-0.186    h0.007c0.665,0,1.201,0.531,1.208,1.192c0.007,0.665-0.527,1.208-1.192,1.215L33.419,85.93H33.407z"/>
	</g>
	<g>
		<path style="fill:#241726;" d="M370.007,25.952H370c-0.665-0.005-1.201-0.545-1.196-1.21l0.12-20.253    c0.005-0.663,0.543-1.196,1.203-1.196h0.007c0.665,0.005,1.201,0.545,1.196,1.21l-0.12,20.253    C371.206,25.419,370.668,25.952,370.007,25.952z"/>
		<path style="fill:#241726;" d="M361.842,21.531c-0.378,0-0.752-0.179-0.987-0.515c-0.381-0.545-0.247-1.295,0.299-1.676    l16.725-11.66c0.538-0.376,1.293-0.249,1.676,0.299c0.381,0.545,0.247,1.295-0.298,1.676l-16.725,11.66    C362.322,21.461,362.082,21.531,361.842,21.531z"/>
		<path style="fill:#241726;" d="M376.527,22.382c-0.32,0-0.637-0.127-0.874-0.376L363.008,8.644    c-0.456-0.482-0.435-1.246,0.047-1.702c0.484-0.458,1.243-0.433,1.702,0.047l12.645,13.362c0.456,0.482,0.435,1.246-0.047,1.702    C377.122,22.274,376.823,22.382,376.527,22.382z"/>
		<path style="fill:#241726;" d="M359.555,15.611c-0.66,0-1.196-0.531-1.203-1.192c-0.007-0.665,0.526-1.208,1.192-1.215    l19.48-0.186h0.007c0.665,0,1.201,0.531,1.208,1.192c0.007,0.665-0.526,1.208-1.192,1.215l-19.48,0.186H359.555z"/>
	</g>
	<g>
		<path style="fill:#241726;" d="M43.814,382.74l-0.007-0.001c-0.656-0.112-1.097-0.732-0.985-1.388l3.389-19.968    c0.112-0.653,0.729-1.093,1.381-0.986l0.007,0.001c0.656,0.112,1.097,0.732,0.985,1.388l-3.389,19.968    C45.083,382.407,44.465,382.846,43.814,382.74z"/>
		<path style="fill:#241726;" d="M36.47,377.058c-0.373-0.061-0.713-0.298-0.891-0.667c-0.288-0.6-0.035-1.318,0.565-1.606    l18.388-8.806c0.592-0.284,1.316-0.037,1.606,0.565c0.288,0.6,0.034,1.318-0.565,1.605l-18.388,8.806    C36.954,377.066,36.706,377.097,36.47,377.058z"/>
		<path style="fill:#241726;" d="M50.824,380.269c-0.315-0.052-0.608-0.228-0.802-0.512l-10.321-15.228    c-0.372-0.549-0.228-1.299,0.321-1.672c0.552-0.374,1.297-0.226,1.672,0.321l10.321,15.228c0.372,0.549,0.228,1.3-0.321,1.672    C51.429,380.259,51.117,380.317,50.824,380.269z"/>
		<path style="fill:#241726;" d="M35.169,370.846c-0.652-0.107-1.095-0.717-0.995-1.37c0.1-0.658,0.715-1.107,1.372-1.007    l19.254,2.963l0.007,0.001c0.656,0.107,1.099,0.718,1,1.371c-0.1,0.658-0.715,1.107-1.372,1.007l-19.254-2.962L35.169,370.846z"/>
	</g>
	<g>
		<path style="fill:#241726;" d="M323.518,512h-0.007c-0.665-0.005-1.201-0.545-1.196-1.21l0.12-20.253    c0.005-0.663,0.543-1.196,1.203-1.196h0.007c0.665,0.005,1.201,0.545,1.196,1.21l-0.12,20.253    C324.716,511.466,324.178,512,323.518,512z"/>
		<path style="fill:#241726;" d="M315.353,507.579c-0.378,0-0.752-0.179-0.987-0.515c-0.381-0.545-0.247-1.295,0.298-1.676    l16.725-11.66c0.538-0.376,1.293-0.249,1.676,0.298c0.381,0.545,0.247,1.295-0.298,1.676l-16.725,11.66    C315.832,507.509,315.592,507.579,315.353,507.579z"/>
		<path style="fill:#241726;" d="M330.038,508.43c-0.32,0-0.637-0.127-0.874-0.376l-12.645-13.362    c-0.456-0.482-0.435-1.246,0.047-1.702c0.484-0.458,1.243-0.432,1.702,0.047l12.645,13.362c0.456,0.482,0.435,1.246-0.047,1.702    C330.632,508.322,330.334,508.43,330.038,508.43z"/>
		<path style="fill:#241726;" d="M313.066,501.659c-0.66,0-1.196-0.531-1.203-1.192c-0.007-0.665,0.526-1.208,1.192-1.215    l19.48-0.186h0.007c0.665,0,1.201,0.531,1.208,1.192c0.007,0.665-0.526,1.208-1.192,1.215l-19.479,0.186H313.066z"/>
	</g>
	<g>
		<path style="fill:#E77C92;" d="M112.463,66.245c0,0-24.795-17.552-6.965-25.074c17.83-7.522,15.602,16.716,15.602,16.716    s3.343-22.288,16.995-15.88s-3.065,23.402-3.065,23.402s14.766-15.044,21.174-5.015c6.408,10.03-12.258,17.552-12.258,17.552    s15.044-1.672,10.587,10.865c-4.458,12.537-21.731-1.114-21.731-1.114s7.244,14.209-7.244,18.945    c-14.487,4.736-9.194-18.666-9.194-18.666s-9.937,20.749-20.616,5.572c-5.293-7.522,7.801-15.323,7.801-15.323    s-18.388-0.836-16.159-13.373C89.618,52.315,109.12,59.837,112.463,66.245z"/>
		<path style="fill:#241726;" d="M124.379,93.235c-1.368,0-2.794-0.263-4.242-0.783c-3.617-1.3-5.314-3.49-6.109-5.307    c-1.471-0.378-3.171-1.269-5.063-2.656c-2.943-2.158-4.616-5.192-4.712-8.544c-0.08-2.837,0.98-5.629,2.806-7.495    c-1.321-3.953-0.439-9.016,4.677-11.575c3.046-1.525,6.358-1.619,9.218-0.327c0.863-0.921,2.216-1.746,4.299-1.746    c1.711,0,3.73,0.576,6,1.711c2.696,1.349,4.367,4.04,4.656,7.38c0.616-0.16,1.22-0.24,1.805-0.24c1.497,0,3.594,0.538,5.07,3.098    c2.517,4.362,2.898,9.192,1.015,12.917c-1.598,3.166-4.665,5.157-8.635,5.603c-0.362,0.04-0.714,0.063-1.055,0.073    C133.174,89.345,129.667,93.235,124.379,93.235z M116.792,87.202c0.884,1.309,2.277,2.31,4.158,2.985    c1.187,0.425,2.339,0.642,3.429,0.642c3.876,0,6.492-2.771,7.307-5.711c-3.869-0.86-5.81-3.946-5.725-6.116    c0.099-2.411,2.51-3.422,5.389-1.643c1.854,1.147,2.931,3.173,3.006,5.568c0.176-0.012,0.357-0.026,0.541-0.047    c3.18-0.357,5.516-1.843,6.755-4.294c1.514-2.999,1.159-6.973-0.95-10.631c-1.062-1.838-2.71-2.308-4.832-1.528    c-0.383,3.281-2.087,6.51-4.755,6.51c-0.216,0-0.435-0.023-0.651-0.068c-1.004-0.216-1.666-0.905-1.774-1.845    c-0.23-2.005,2.261-4.708,4.856-6.162c-0.031-1.617-0.484-4.752-3.368-6.195c-3.206-1.601-5.65-1.897-7.084-0.818    c1.563,1.241,2.578,2.825,2.632,4.207c0.035,0.896-0.324,1.652-1.015,2.129c-2.571,1.779-4.329,1.838-5.274,0.559    c-0.95-1.281-0.447-3.49-0.212-4.308c0.033-0.306,0.139-1.006,0.454-1.817c-1.664-0.672-4.412-0.82-6.865,0.409    c-3.883,1.941-4.24,5.432-3.678,7.904c1.286-0.616,2.693-0.752,4.014-0.374c4.87,1.391,4.929,3.798,4.83,4.503    c-0.252,1.796-2.287,2.903-5.232,2.733c-1.718-0.101-3.366-1.206-4.546-2.98c-1.011,1.373-1.596,3.225-1.542,5.063    c0.052,1.833,0.743,4.48,3.73,6.67c1.175,0.863,2.139,1.422,2.917,1.781c-0.233-2.435,0.482-4.719,1.438-6.061    c0.841-1.182,1.704-1.429,2.277-1.429c0.454,0,1.568,0.176,2.148,1.821c0.757,2.144,1.076,5.126-0.296,7.065    C118.351,86.466,117.643,86.965,116.792,87.202z M116.865,79.366c-0.592,0.602-1.589,3.02-1.034,5.573    c0.477-0.047,0.825-0.242,1.079-0.602c0.672-0.952,0.668-2.957-0.009-4.877C116.889,79.427,116.877,79.394,116.865,79.366z     M128.563,78.809c-0.195,0.085-0.282,0.505-0.009,1.173c0.414,1.011,1.521,2.214,3.382,2.717    c-0.115-1.452-0.761-2.618-1.854-3.295C129.216,78.868,128.732,78.809,128.563,78.809z M110.019,69.184    c0.773,1.309,1.84,2.148,2.87,2.209c1.876,0.125,2.686-0.508,2.705-0.665c0.021-0.146-0.465-1.102-3.107-1.857    C111.685,68.639,110.83,68.752,110.019,69.184z M133.035,68.136c-1.032,0.886-1.704,1.819-1.897,2.341    C131.811,70.334,132.556,69.487,133.035,68.136z M121.789,59.889c-0.146,0.494-0.176,0.858-0.176,0.863    c-0.007,0.087-0.023,0.179-0.049,0.261c-0.266,0.886-0.36,2.026-0.19,2.303c0.031-0.094,0.606-0.167,1.97-1.109    C123.425,61.929,122.969,60.888,121.789,59.889z"/>
		<circle style="fill:#F6D23F;" cx="123.329" cy="73.071" r="5.015"/>
	</g>
	<g>
		<path style="fill:#E77C92;" d="M390.221,404.31c0,0-24.795-17.552-6.965-25.074c17.83-7.522,15.602,16.716,15.602,16.716    s3.343-22.288,16.995-15.88s-3.065,23.402-3.065,23.402s14.766-15.044,21.174-5.015c6.408,10.03-12.258,17.552-12.258,17.552    s15.044-1.672,10.587,10.865c-4.458,12.537-21.731-1.114-21.731-1.114s7.244,14.209-7.244,18.945    c-14.487,4.736-9.194-18.666-9.194-18.666s-9.937,20.749-20.616,5.572c-5.293-7.522,7.801-15.323,7.801-15.323    s-18.388-0.836-16.159-13.373C367.376,390.38,386.878,397.902,390.221,404.31z"/>
		<path style="fill:#241726;" d="M402.136,431.299c-1.368,0-2.795-0.263-4.242-0.783c-3.617-1.3-5.314-3.49-6.109-5.305    c-1.471-0.381-3.17-1.271-5.063-2.658c-2.943-2.16-4.616-5.194-4.712-8.543c-0.08-2.839,0.98-5.629,2.806-7.495    c-1.319-3.953-0.435-9.016,4.68-11.573c3.048-1.525,6.353-1.622,9.216-0.329c0.862-0.921,2.216-1.744,4.296-1.744    c1.711,0,3.732,0.576,6.003,1.711c2.696,1.349,4.367,4.038,4.658,7.378c0.616-0.16,1.217-0.24,1.803-0.24    c1.5,0,3.594,0.538,5.07,3.098c2.517,4.362,2.898,9.192,1.015,12.917c-1.598,3.166-4.665,5.157-8.635,5.603    c-0.362,0.04-0.714,0.063-1.055,0.073C410.934,427.409,407.427,431.299,402.136,431.299L402.136,431.299z M394.549,425.266    c0.886,1.309,2.277,2.31,4.158,2.985c1.187,0.425,2.341,0.642,3.429,0.642c3.878,0,6.494-2.771,7.307-5.711    c-3.869-0.86-5.81-3.946-5.725-6.115c0.101-2.411,2.51-3.424,5.389-1.643c1.854,1.147,2.931,3.173,3.008,5.568    c0.174-0.012,0.355-0.026,0.538-0.047c3.18-0.357,5.516-1.843,6.755-4.294c1.514-2.999,1.159-6.973-0.949-10.631    c-1.06-1.836-2.705-2.308-4.83-1.528c-0.385,3.283-2.09,6.51-4.755,6.51c-0.219,0-0.437-0.023-0.653-0.068    c-1.001-0.216-1.664-0.905-1.775-1.845c-0.23-2.005,2.261-4.705,4.856-6.163c-0.031-1.617-0.484-4.752-3.368-6.193    c-3.203-1.603-5.645-1.901-7.084-0.82c1.563,1.241,2.578,2.825,2.632,4.207c0.035,0.896-0.324,1.652-1.015,2.129    c-2.571,1.782-4.327,1.838-5.274,0.559c-0.949-1.281-0.447-3.49-0.211-4.308c0.033-0.306,0.139-1.006,0.454-1.817    c-1.662-0.672-4.414-0.813-6.863,0.411c-3.883,1.941-4.24,5.429-3.678,7.904c1.283-0.618,2.684-0.757,4.012-0.376    c4.872,1.391,4.929,3.798,4.83,4.503c-0.249,1.796-2.254,2.91-5.232,2.736c-1.718-0.101-3.366-1.206-4.546-2.983    c-1.011,1.373-1.596,3.225-1.542,5.06c0.052,1.836,0.74,4.482,3.73,6.673c1.175,0.863,2.139,1.422,2.917,1.782    c-0.233-2.435,0.482-4.72,1.438-6.061c0.841-1.182,1.704-1.429,2.277-1.429c0.454,0,1.568,0.176,2.148,1.822    c0.757,2.146,1.076,5.128-0.296,7.067C396.108,424.533,395.4,425.031,394.549,425.266z M394.622,417.43    c-0.592,0.602-1.589,3.02-1.034,5.575c0.477-0.047,0.825-0.242,1.079-0.604c0.672-0.949,0.668-2.954-0.009-4.877    C394.646,417.489,394.634,417.458,394.622,417.43z M406.32,416.873c-0.195,0.085-0.282,0.505-0.009,1.173    c0.411,1.011,1.521,2.214,3.384,2.717c-0.117-1.453-0.764-2.618-1.854-3.295C406.973,416.932,406.489,416.873,406.32,416.873z     M387.776,407.248c0.773,1.309,1.843,2.151,2.87,2.212c1.887,0.113,2.686-0.51,2.708-0.668c0.021-0.146-0.468-1.102-3.109-1.857    C389.433,406.701,388.586,406.814,387.776,407.248z M410.795,406.2c-1.032,0.886-1.704,1.819-1.899,2.341    C409.57,408.395,410.313,407.552,410.795,406.2z M399.546,397.953c-0.146,0.494-0.176,0.858-0.176,0.865    c-0.007,0.085-0.024,0.176-0.049,0.259c-0.266,0.886-0.36,2.026-0.19,2.303c0.031-0.094,0.606-0.167,1.97-1.109    C401.182,399.993,400.726,398.952,399.546,397.953z"/>
		<path style="fill:#F6D23F;" d="M406.101,411.135c0,2.77-2.245,5.015-5.015,5.015c-2.77,0-5.015-2.245-5.015-5.015    s2.245-5.015,5.015-5.015C403.856,406.121,406.101,408.366,406.101,411.135z"/>
	</g>
	<path style="fill:#241726;" d="M201.012,35.889c-0.073,0-0.209-0.014-0.28-0.026c-1.887-0.346-8.955-6.98-11.291-9.213   c-3.66,0.881-9.578,2.181-12.598,2.181c-0.975,0-2.04-0.11-2.543-0.933c-0.284-0.468-0.291-1.036-0.021-1.563   c0.103-0.167,2.83-4.099,6.322-8.821c-5.234-5.967-5.544-7.874-5.074-9.028c0.136-0.331,0.583-1.107,1.81-1.187   c2.183-0.16,7.06,0.757,10.059,1.391C193.592,1.069,195.632,0,196.906,0c0.804,0,1.45,0.468,1.73,1.255   c0.651,1.817,1.568,6.703,2.254,10.929c10.055,3.116,10.497,4.661,10.711,5.413c0.164,0.576,0.028,1.168-0.371,1.624   c-0.308,0.35-1.222,1.391-8.842,3.831c1.187,10.732,0.249,11.785-0.209,12.299C201.869,35.697,201.456,35.887,201.012,35.889   L201.012,35.889z M192.21,25.962c4.014,3.784,6.91,6.172,8.273,7.112c0.122-1.076,0.176-3.587-0.437-9.295   C197.566,24.528,194.875,25.278,192.21,25.962z M182.242,19.341c-2.214,3.006-4.087,5.643-5.098,7.079   c1.977-0.061,5.62-0.689,10.252-1.758C185.528,22.817,183.781,21.014,182.242,19.341z M183.704,17.374   c1.871,2.049,4.078,4.318,6.454,6.623c3.246-0.806,6.6-1.73,9.608-2.649c-0.282-2.317-0.63-4.809-1.018-7.298   c-3.276-0.973-6.919-1.916-10.41-2.691C186.921,13.134,185.368,15.153,183.704,17.374z M201.305,14.84   c0.296,1.967,0.564,3.92,0.794,5.775c3.876-1.257,5.909-2.134,6.799-2.63C208.171,17.475,206.248,16.431,201.305,14.84z    M177.891,9.69c0.256,0.682,1.142,2.334,4.181,5.848c1.281-1.706,2.498-3.293,3.638-4.738C182.195,10.09,179.4,9.693,177.891,9.69z    M190.031,9.274c2.787,0.642,5.636,1.38,8.292,2.144c-0.663-3.953-1.333-7.267-1.791-8.842   C195.827,2.994,194.043,4.426,190.031,9.274z"/>
	<path style="fill:#241726;" d="M368.487,499.513c-0.75,0-1.171-0.32-1.394-0.585c-0.299-0.36-0.411-0.832-0.317-1.33   c0.052-0.193,1.528-4.743,3.509-10.271c-6.731-4.205-7.578-5.939-7.458-7.18c0.033-0.355,0.237-1.227,1.389-1.657   c2.129-0.794,6.922-1.307,10.031-1.57c4.224-10.271,5.845-11.145,7.14-11.145c0.581,0,1.105,0.277,1.478,0.783   c1.147,1.554,3.434,5.967,5.309,9.817c10.527,0.082,11.394,1.436,11.815,2.092c0.324,0.505,0.364,1.109,0.113,1.664   c-0.195,0.423-0.769,1.683-7.361,6.217c4.327,10.16,3.648,11.338,3.276,11.977c-0.251,0.432-0.675,0.712-1.166,0.769l-0.214,0.012   l0,0c-2.111,0-10.727-4.296-13.253-5.58C376.581,496.333,370.663,499.513,368.487,499.513z M368.475,497.106l0.012,1.203v-1.203   C368.482,497.106,368.479,497.106,368.475,497.106z M372.383,488.603c-1.255,3.518-2.289,6.583-2.842,8.25   c1.474-0.498,4.381-1.817,9.31-4.642C376.532,490.983,374.339,489.759,372.383,488.603z M383.836,492.067   c4.936,2.468,8.398,3.92,9.975,4.426c-0.195-1.065-0.87-3.486-3.102-8.774C388.551,489.15,386.189,490.645,383.836,492.067z    M373.215,486.297c2.381,1.422,5.15,2.957,8.09,4.482c2.877-1.709,5.819-3.561,8.435-5.307c-0.938-2.139-1.988-4.423-3.077-6.694   c-3.417,0.012-7.185,0.162-10.746,0.423C375.072,481.312,374.167,483.69,373.215,486.297z M365.436,480.618   c0.442,0.578,1.767,1.906,5.688,4.39c0.736-2.002,1.443-3.871,2.118-5.582C369.662,479.763,366.86,480.188,365.436,480.618z    M389.339,478.797c0.851,1.798,1.671,3.589,2.426,5.298c3.349-2.32,5.044-3.746,5.754-4.48   C396.672,479.337,394.53,478.893,389.339,478.797z M381.204,468.385c-0.449,0.531-1.742,2.343-4.266,8.334   c2.851-0.188,5.796-0.306,8.56-0.338C383.705,472.747,382.09,469.741,381.204,468.385z"/>
	<path style="fill:#241726;" d="M79.939,460.934c-0.527,0-1.511-0.04-7.15-6.757c-1.824,0.482-6.228,1.596-8.052,1.596   c-0.475,0-0.816-0.068-1.105-0.216c-0.334-0.172-0.66-0.627-0.726-0.994c-0.092-0.519-0.308-1.723,6.233-8.95   c-0.71-8.254,0.117-9.159,0.432-9.505c0.228-0.249,0.707-0.47,1.044-0.47c0.23,0,0.454,0.056,0.665,0.167   c0.865,0.447,2.223,2.04,4.362,4.614c0.663,0.799,1.464,1.763,1.857,2.174c0.627-0.019,1.537-0.12,2.548-0.23   c1.582-0.172,3.373-0.367,4.628-0.367c0.874,0,1.85,0.061,2.334,0.785c0.226,0.334,0.277,0.938,0.127,1.307   c-0.479,1.175-3.793,4.639-5.547,6.426c0.362,9.507-0.355,9.904-0.992,10.255C80.416,460.866,80.024,460.92,79.939,460.934z    M73.22,451.613c0.353,0,0.693,0.155,0.926,0.435c1.716,2.063,3.77,4.367,5.056,5.627c0.099-1.803,0.073-4.896-0.038-7.587   c-0.012-0.334,0.113-0.658,0.348-0.896c1.603-1.619,3.377-3.514,4.449-4.769c-1.069,0.052-2.428,0.197-3.655,0.331   c-1.248,0.136-2.355,0.251-2.931,0.251c-0.301,0-0.62-0.021-0.919-0.176c-0.444-0.233-0.903-0.752-2.665-2.874   c-0.665-0.801-1.688-2.031-2.498-2.926c-0.054,1.699,0.073,4.482,0.291,6.894c0.031,0.336-0.082,0.67-0.31,0.919   c-2.019,2.216-4.245,4.872-5.335,6.435c2.099-0.348,5.556-1.234,6.962-1.622C73.006,451.627,73.114,451.613,73.22,451.613z"/>
	<path style="fill:#241726;" d="M477.991,94.974c-0.891,0-1.732,0-4.078-9.338c-7.913-1.523-8.607-2.454-8.839-2.766   c-0.226-0.301-0.322-0.851-0.219-1.21c0.143-0.508,0.475-1.683,9.516-5.328c3.248-8.463,4.348-8.463,5.082-8.463   c0.378,0,0.902,0.27,1.13,0.576c0.581,0.78,1.107,2.809,1.906,6.054c0.249,1.015,0.55,2.24,0.724,2.778   c0.475,0.212,1.518,0.585,2.386,0.898c4.654,1.666,5.855,2.235,6.073,3.345c0.08,0.416-0.132,1.025-0.447,1.307   c-0.945,0.846-5.439,2.515-7.796,3.356c-3.829,8.708-4.647,8.753-5.368,8.79C478.038,94.974,478.012,94.974,477.991,94.974z    M468.133,81.834c1.582,0.456,4.466,1.112,6.983,1.582c0.463,0.085,0.834,0.435,0.947,0.893c0.644,2.606,1.483,5.575,2.089,7.27   c0.877-1.579,2.205-4.372,3.281-6.84c0.134-0.306,0.388-0.543,0.703-0.653c2.148-0.757,4.576-1.685,6.09-2.348   c-1.06-0.446-2.505-0.964-3.441-1.3c-2.649-0.947-3.147-1.154-3.49-1.61c-0.298-0.404-0.484-1.072-1.145-3.756   c-0.247-1.008-0.63-2.56-0.968-3.718c-0.787,1.504-1.89,4.061-2.748,6.325c-0.12,0.317-0.367,0.566-0.679,0.693   C472.963,79.486,469.793,80.905,468.133,81.834z"/>
	<path style="fill:#241726;" d="M459.158,459.014c-0.891,0-1.732,0-4.078-9.338c-7.914-1.523-8.583-2.423-8.84-2.769   c-0.223-0.299-0.32-0.849-0.216-1.208c0.143-0.508,0.475-1.683,9.516-5.326c3.248-8.468,4.348-8.466,5.081-8.466   c0.378,0,0.903,0.27,1.13,0.576c0.581,0.783,1.107,2.809,1.906,6.052c0.249,1.018,0.55,2.242,0.724,2.783   c0.475,0.211,1.525,0.588,2.395,0.9c4.647,1.664,5.843,2.23,6.061,3.34c0.08,0.418-0.132,1.025-0.447,1.307   c-0.945,0.848-5.439,2.517-7.796,3.356c-3.829,8.713-4.647,8.755-5.371,8.79C459.204,459.014,459.179,459.014,459.158,459.014z    M449.303,445.874c1.582,0.456,4.466,1.112,6.98,1.582c0.463,0.085,0.834,0.435,0.947,0.893c0.644,2.607,1.483,5.577,2.089,7.27   c0.877-1.577,2.205-4.372,3.281-6.84c0.134-0.306,0.388-0.543,0.703-0.653c2.15-0.757,4.578-1.685,6.09-2.346   c-1.058-0.447-2.496-0.961-3.429-1.295c-2.66-0.954-3.161-1.161-3.502-1.622c-0.296-0.4-0.482-1.067-1.142-3.751   c-0.247-1.011-0.63-2.557-0.968-3.718c-0.787,1.504-1.89,4.064-2.747,6.327c-0.12,0.317-0.367,0.566-0.679,0.693   C454.133,443.526,450.962,444.945,449.303,445.874z"/>
	<g>
		<path style="fill:#FFFFFF;" d="M22.993,139.497c0,0-2.375-18.027,14.977-12.194c17.352,5.833,11.698,22.338,5.083,16.69    s5.797-24.804,19.075-16.274c13.278,8.53,10.308,25.081,0.89,26.303c-9.419,1.221,5.702-19.272,17.566-6.615    c11.865,12.656-14.04,35.731-24.634,27.247c-10.594-8.484-2.303-22.177,0.238-13.832c2.541,8.345-4.312,16.529-23.101,16.205    c-18.79-0.323-10.237-29.231-3.669-20.817c6.568,8.414-4.336,17.912-17.59,7.999C-1.427,154.296,13.693,133.802,22.993,139.497z"/>
		<path style="fill:#241726;" d="M34.159,178.239l-1.093-0.009c-6.16-0.106-10.494-3.262-12.022-8.699    c-3.241-0.411-6.659-1.906-9.94-4.36c-5.192-3.883-6.952-9.78-4.825-16.175c2.181-6.553,7.984-11.686,13.216-11.686    c0.752,0,1.483,0.101,2.183,0.301c-0.024-2.508,0.362-6.778,2.907-9.679c2.841-3.246,7.528-3.871,13.766-1.77    c2.409,0.809,4.517,1.859,6.287,3.131c2.985-3.149,6.795-4.933,10.6-4.933c2.578,0,5.114,0.79,7.54,2.346    c5.737,3.685,9.22,9.354,9.507,15.357c3.368,0.096,6.452,1.615,9.176,4.52c3.692,3.939,4.374,9.232,1.918,14.906    c-3.737,8.626-13.942,16.196-21.842,16.196c0,0,0,0-0.002,0c-2.47,0-4.604-0.703-6.339-2.092    c-0.827-0.665-1.577-1.382-2.237-2.144C48.814,176.587,42.353,178.239,34.159,178.239z M23.597,169.626    c1.072,3.037,3.619,6.097,9.512,6.198l1.051,0.009c9.446,0,14.605-2.216,17.374-4.32c-2.646-4.282-2.442-8.96-0.971-11.857    c0.851-1.676,2.085-2.635,3.389-2.635c0.872,0,2.473,0.449,3.389,3.45c1.271,4.179,0.327,8.266-2.585,11.376    c0.569,0.661,1.222,1.286,1.946,1.866c1.297,1.039,2.924,1.565,4.835,1.565c0.002,0,0.002,0,0.002,0    c6.934,0,16.29-7.03,19.632-14.746c1.452-3.352,2.376-8.207-1.464-12.304c-2.263-2.414-4.778-3.676-7.479-3.758    c-0.566,5.763-4.174,10.111-9.056,10.746c-0.329,0.042-0.637,0.061-0.917,0.061h-0.002c-2.411,0-3.33-1.474-3.387-2.853    c-0.136-3.396,4.757-9.103,11.018-10.184c-0.228-5.246-3.314-10.236-8.407-13.507c-5.001-3.215-10.75-2.266-14.976,2.096    c4.099,3.902,4.863,8.701,3.718,11.907c-1.274,3.57-4.987,4.698-7.946,2.172c-3.652-3.117-2.473-9.204,0.825-13.757    c-1.547-1.088-3.394-1.995-5.512-2.708c-5.239-1.758-9.002-1.422-11.192,1.077c-3.009,3.434-2.216,9.756-2.207,9.82    c0.059,0.461-0.15,0.914-0.538,1.166c-0.39,0.254-0.888,0.259-1.283,0.019c-0.874-0.536-1.838-0.806-2.87-0.806    c-4.186,0-9.091,4.503-10.931,10.038c-0.841,2.531-2.139,8.91,3.984,13.488c2.675,2,5.415,3.288,8.01,3.775    c-0.533-4.668,0.896-9.218,2.778-11.557c1.051-1.302,2.275-1.991,3.542-1.991c0.879,0,2.198,0.346,3.488,1.998    c2.334,2.99,2.863,6.36,1.455,9.249C30.43,167.569,27.32,169.407,23.597,169.626z M53.952,159.427    c-0.223,0-0.757,0.357-1.243,1.318c-1.076,2.12-1.255,5.718,0.625,9.079c2.073-2.428,2.679-5.453,1.704-8.654    C54.65,159.9,54.165,159.427,53.952,159.427z M26.878,155.878c-0.505,0-1.1,0.388-1.669,1.095    c-1.603,1.991-2.78,6.247-2.193,10.264c3.048-0.047,5.584-1.408,6.64-3.575c0.992-2.028,0.557-4.475-1.189-6.713    C28.086,156.461,27.501,155.878,26.878,155.878z M69.776,144.71c-5.046,1.121-8.581,5.754-8.506,7.617    c0.009,0.23,0.023,0.543,0.982,0.543c0,0,0,0,0.002,0c0.186,0,0.388-0.014,0.606-0.042    C66.474,152.36,69.184,149.105,69.776,144.71z M44.957,132.681c-2.846,3.965-3.389,8.461-1.123,10.398    c1.713,1.455,3.375,0.921,4.12-1.154C48.818,139.501,48.177,135.814,44.957,132.681z"/>
	</g>
	<g>
		<path style="fill:#FFFFFF;" d="M444.765,334.059c0,0-2.375-18.027,14.977-12.194c17.352,5.833,11.698,22.338,5.083,16.69    c-6.615-5.648,5.797-24.804,19.075-16.275c13.278,8.53,10.308,25.082,0.89,26.303c-9.418,1.221,5.702-19.272,17.566-6.616    c11.865,12.656-14.04,35.731-24.634,27.247s-2.303-22.177,0.238-13.832c2.541,8.345-4.312,16.529-23.102,16.205    c-18.789-0.323-10.237-29.231-3.669-20.817c6.568,8.414-4.336,17.912-17.59,7.999    C420.345,348.858,435.466,328.365,444.765,334.059z"/>
		<path style="fill:#241726;" d="M455.93,372.802l-1.093-0.009c-6.158-0.106-10.494-3.262-12.02-8.699    c-3.241-0.411-6.659-1.906-9.94-4.36c-5.194-3.883-6.952-9.78-4.825-16.175c2.179-6.553,7.984-11.686,13.214-11.686    c0.754,0,1.483,0.101,2.183,0.301c-0.023-2.508,0.364-6.778,2.907-9.679c2.846-3.248,7.53-3.871,13.768-1.77    c2.409,0.809,4.517,1.859,6.287,3.131c2.985-3.149,6.795-4.933,10.6-4.933c2.578,0,5.112,0.79,7.538,2.346    c5.737,3.685,9.223,9.354,9.507,15.357c3.368,0.096,6.454,1.615,9.178,4.52c3.692,3.939,4.374,9.232,1.915,14.906    c-3.737,8.626-13.942,16.196-21.839,16.196h-0.002c-2.473,0-4.604-0.703-6.339-2.092c-0.827-0.665-1.577-1.382-2.237-2.143    C470.587,371.15,464.124,372.802,455.93,372.802z M445.368,364.188c1.074,3.037,3.619,6.097,9.512,6.198l1.051,0.009    c9.446,0,14.607-2.216,17.376-4.32c-2.646-4.282-2.444-8.959-0.971-11.86c0.851-1.674,2.085-2.635,3.387-2.635    c0.872,0,2.475,0.449,3.389,3.453c1.274,4.179,0.329,8.266-2.583,11.373c0.569,0.663,1.222,1.288,1.946,1.868    c1.297,1.039,2.924,1.565,4.835,1.565h0.002c6.931,0,16.29-7.03,19.632-14.746c1.45-3.352,2.374-8.207-1.467-12.304    c-2.261-2.414-4.776-3.676-7.479-3.758c-0.564,5.763-4.172,10.111-9.053,10.746c-0.331,0.042-0.637,0.061-0.917,0.061h-0.002    c-2.411,0-3.33-1.474-3.387-2.851c-0.136-3.396,4.757-9.103,11.018-10.186c-0.23-5.246-3.314-10.236-8.41-13.507    c-5.006-3.218-10.753-2.266-14.974,2.097c4.099,3.901,4.863,8.701,3.718,11.907c-1.274,3.57-4.985,4.698-7.946,2.172    c-3.652-3.117-2.473-9.204,0.825-13.756c-1.547-1.088-3.394-1.996-5.512-2.708c-5.241-1.76-9.004-1.422-11.192,1.076    c-3.011,3.434-2.219,9.756-2.209,9.82c0.059,0.461-0.15,0.914-0.538,1.166c-0.393,0.254-0.891,0.261-1.283,0.019    c-0.874-0.536-1.838-0.806-2.87-0.806c-4.186,0-9.089,4.503-10.931,10.038c-0.841,2.531-2.136,8.91,3.986,13.489    c2.675,2,5.413,3.288,8.01,3.775c-0.533-4.668,0.896-9.218,2.778-11.557c1.051-1.302,2.275-1.991,3.544-1.991    c0.877,0,2.195,0.346,3.486,1.998c2.331,2.99,2.863,6.36,1.452,9.249C452.201,362.131,449.091,363.969,445.368,364.188z     M475.723,353.987c-0.221,0-0.755,0.36-1.241,1.319c-1.079,2.12-1.255,5.718,0.625,9.082c2.071-2.428,2.677-5.453,1.702-8.654    C476.421,354.462,475.936,353.987,475.723,353.987z M448.654,350.441c-0.508,0-1.102,0.388-1.671,1.095    c-1.603,1.991-2.78,6.247-2.195,10.264c3.048-0.047,5.584-1.408,6.642-3.575c0.99-2.031,0.557-4.477-1.189-6.712    C449.86,351.024,449.274,350.441,448.654,350.441z M491.55,339.272c-5.046,1.121-8.581,5.756-8.506,7.617    c0.009,0.23,0.023,0.543,0.982,0.543c0,0,0,0,0.002,0c0.186,0,0.388-0.014,0.606-0.042    C488.247,346.922,490.955,343.667,491.55,339.272z M466.73,327.243c-2.846,3.965-3.389,8.461-1.123,10.398    c1.713,1.457,3.375,0.921,4.12-1.154C470.592,334.064,469.95,330.376,466.73,327.243z"/>
	</g>
	<g>
		<g>
			<path style="fill:#FFFFFF;" d="M108.701,171.266c0,0,65.686,7.01,53.359,115.195c-6.115,53.668,74.128,21.268,99.386-4.961     C286.706,255.272,219.814,135.115,108.701,171.266z"/>
			<path style="fill:#241726;" d="M186.609,316.66h-0.002c-9.195,0-16.1-2.515-20.523-7.472c-4.604-5.159-6.36-12.852-5.22-22.864     c4.668-40.954-1.225-72.047-17.51-92.417c-15.289-19.12-34.587-21.423-34.78-21.444c-0.564-0.061-1.008-0.508-1.067-1.072     c-0.059-0.564,0.284-1.093,0.825-1.269c13.834-4.501,27.645-6.783,41.046-6.783c55.115,0,96.909,39.243,112.419,75.704     c8.097,19.038,8.29,35.222,0.519,43.293C246.709,298.539,211.019,316.66,186.609,316.66z M113.556,171.031     c6.929,1.85,20.218,7.072,31.631,21.315c16.737,20.887,22.815,52.598,18.069,94.25c-1.06,9.303,0.496,16.363,4.623,20.988     c3.946,4.423,10.247,6.668,18.727,6.668c23.823,0.002,58.704-17.731,73.974-33.586c6.976-7.244,6.59-22.831-1.001-40.682     c-15.207-35.756-56.18-74.24-110.202-74.24C137.673,165.745,125.646,167.522,113.556,171.031z"/>
		</g>
		<g>
			<path style="fill:#FFFFFF;" d="M427.354,225.279c0,0-65.491,11.367-91.939,87.546c-17.715,51.027-76.758-7.444-90.618-41.117     C230.937,238.037,337.285,150.845,427.354,225.279z"/>
			<path style="fill:#241726;" d="M312.544,334.087c-11.399,0-25.668-7.763-40.172-21.856     c-12.537-12.184-23.529-27.534-28.686-40.064c-3.034-7.368-0.773-17.296,6.367-27.955c16.433-24.537,55.98-49.376,99.771-49.376     c28.256,0,54.6,9.93,78.296,29.513c0.362,0.301,0.517,0.783,0.397,1.236c-0.12,0.454-0.494,0.797-0.957,0.877     c-0.649,0.115-65.116,12.172-91.009,86.758C331.746,327.067,323.668,334.087,312.544,334.087z M349.825,197.244     c-42.948,0-81.693,24.302-97.771,48.309c-6.68,9.97-8.861,19.099-6.144,25.699c9.787,23.771,42.807,60.429,66.634,60.429     c9.989,0,17.301-6.478,21.733-19.249c23.454-67.553,78.108-84.727,90.394-87.782     C401.918,206.462,376.748,197.244,349.825,197.244z"/>
		</g>
		<path style="fill:#F6D13F;" d="M159.475,298.897c0,0,44.042-278.672,118.138-284.386c40.396-3.115,68.257,12.923,80.134,54.921    s-9.061,267.678-18.8,272.448C329.21,346.65,175.527,423.374,159.475,298.897z"/>
		<path style="fill:#241726;" d="M305.867,230.859c-65.562,0-125.312-25.367-126.062-25.691c-0.609-0.263-0.891-0.971-0.628-1.582    c0.261-0.611,0.973-0.896,1.582-0.628c0.935,0.402,94.422,40.083,175.4,19.665c0.646-0.176,1.297,0.228,1.46,0.872    c0.165,0.644-0.228,1.297-0.872,1.46C340.008,229.178,322.745,230.859,305.867,230.859z"/>
		<path style="fill:#241726;" d="M316.784,196.689c-62.328,0-128.311-23.386-129.129-23.68c-0.625-0.226-0.95-0.914-0.726-1.539    c0.226-0.625,0.912-0.945,1.539-0.726c0.254,0.092,25.651,9.152,59.327,15.966c31.024,6.28,75.619,11.879,111.887,2.914    c0.644-0.167,1.297,0.235,1.457,0.879c0.16,0.646-0.235,1.297-0.879,1.457C346.626,195.329,331.807,196.689,316.784,196.689z"/>
		<path style="fill:#241726;" d="M223.058,276.323c-0.054,0-0.106-0.002-0.16-0.009c-0.658-0.087-1.123-0.693-1.036-1.352    c24.674-187.086,69.936-258.531,70.392-259.232c0.364-0.557,1.112-0.71,1.664-0.352c0.557,0.36,0.715,1.105,0.355,1.664    c-0.454,0.696-45.436,71.793-70.023,258.235C224.169,275.884,223.652,276.323,223.058,276.323z"/>
		<path style="fill:#241726;" d="M246.166,302.8c-0.092,0-0.186-0.009-0.277-0.033c-0.649-0.153-1.048-0.801-0.893-1.448    c0.552-2.322,55.183-232.767,53.023-284.303c-0.026-0.663,0.489-1.225,1.154-1.253c0.62-0.019,1.225,0.489,1.253,1.154    c2.172,51.862-52.537,282.632-53.089,284.956C247.205,302.428,246.711,302.8,246.166,302.8z"/>
		<path style="fill:#241726;" d="M188.355,238.262c-0.082,0-0.162-0.007-0.244-0.023c-0.651-0.134-1.069-0.771-0.938-1.422    c1.866-9.096,45.928-221.067,96.509-221.067c0.423,0,0.844,0.016,1.269,0.045c0.663,0.047,1.163,0.623,1.116,1.286    c-0.047,0.665-0.67,1.163-1.286,1.116c-0.381-0.028-0.764-0.04-1.142-0.04c-48.598,0-93.656,216.935-94.107,219.145    C189.415,237.87,188.914,238.262,188.355,238.262z"/>
		<path style="fill:#241726;" d="M295.617,257.568c-0.059,0-0.118-0.005-0.174-0.012c-0.658-0.096-1.114-0.707-1.02-1.363    c0.08-0.548,7.998-55.416,13.169-111.962c8.605-94.102,3.29-120.29-2.682-125.686c-0.494-0.447-0.531-1.206-0.087-1.699    c0.447-0.494,1.208-0.527,1.699-0.087c21.889,19.778-8.417,230.805-9.716,239.778    C296.719,257.135,296.205,257.568,295.617,257.568z"/>
		<path style="fill:#241726;" d="M337.892,241.329c-0.068,0-0.136-0.005-0.202-0.016c-0.656-0.111-1.098-0.733-0.987-1.387    c0.31-1.833,30.451-183.608-17.846-218.667c-0.538-0.39-0.656-1.142-0.266-1.681c0.392-0.538,1.145-0.656,1.68-0.266    c20.855,15.139,30.345,56.991,28.206,124.396c-1.586,49.975-9.324,96.157-9.401,96.617    C338.978,240.913,338.468,241.329,337.892,241.329z"/>
		<path style="fill:#241726;" d="M308.976,160.894c-32.663,0-57.141-3.192-73.657-6.463c-26.136-5.18-38.245-11.507-38.747-11.775    c-0.588-0.31-0.811-1.039-0.498-1.626c0.313-0.581,1.034-0.813,1.626-0.498c0.482,0.256,49.691,25.515,160.791,15.686    c0.611-0.035,1.243,0.43,1.304,1.093c0.059,0.663-0.43,1.246-1.093,1.304C340.421,160.231,323.847,160.894,308.976,160.894z"/>
		<path style="fill:#241726;" d="M322.575,130.33c-63.889,0-113.048-23.108-113.638-23.39c-0.599-0.287-0.853-1.006-0.566-1.605    c0.287-0.602,1.008-0.851,1.605-0.566c0.707,0.338,71.471,33.57,153.335,19.832c0.651-0.106,1.276,0.331,1.387,0.987    c0.111,0.656-0.331,1.276-0.987,1.387C349.573,129.346,335.756,130.33,322.575,130.33z"/>
		<path style="fill:#241726;" d="M359.626,98.103c-0.021,0-0.045,0-0.068-0.002c-102.352-5.791-134.787-26.754-136.119-27.642    c-0.55-0.369-0.698-1.116-0.331-1.669c0.369-0.552,1.114-0.707,1.669-0.334c0.322,0.214,33.398,21.496,134.918,27.243    c0.663,0.038,1.17,0.606,1.133,1.269C360.792,97.607,360.26,98.103,359.626,98.103z"/>
		<path style="fill:#241726;" d="M350.944,56.713c-0.005,0-0.009,0-0.014,0c-67.179-0.743-108.407-16.135-108.815-16.29    c-0.62-0.237-0.933-0.933-0.698-1.554c0.237-0.623,0.935-0.924,1.554-0.698c0.404,0.155,41.272,15.397,107.988,16.135    c0.663,0.007,1.196,0.552,1.189,1.217C352.14,56.182,351.602,56.713,350.944,56.713z"/>
		<path style="fill:#241726;" d="M273.338,260.616c-26.089,0-45.545-5.229-58.406-10.4c-18.92-7.603-27.851-16.502-28.223-16.878    c-0.468-0.472-0.463-1.234,0.009-1.702c0.472-0.465,1.234-0.461,1.702,0.009c0.355,0.357,36.23,35.455,114.583,24.413    c0.644-0.082,1.264,0.364,1.358,1.025c0.092,0.658-0.367,1.264-1.025,1.358C292.519,259.967,282.516,260.616,273.338,260.616z"/>
		<path style="fill:#A7AA49;" d="M61.636,258.949c0,0,60.948-106.606,162.152,3.617c93.288,101.602,10.082,213.855-16.804,204.323    c-26.886-9.531-65.592-11.089-61.55-111.616C148.982,267.06,90.549,257.828,61.636,258.949z"/>
		<path style="fill:#A7AA49;" d="M235.363,317.753c0,0,94.153-169.532,208.772-11.55c0,0-84.356,4.549-90.901,40.386    c-6.987,38.256,8.855,59.302-44.296,106.587S159,475.42,235.363,317.753z"/>
		<path style="fill:#A7AA49;" d="M295.345,455.004c0,0-16.63,40.989-27.688,41.092c-11.058,0.103-80.451-6.478-85.626-14.086    c-5.175-7.608-6.296-36.521-6.296-36.521L295.345,455.004z"/>
		<path style="fill:#241726;" d="M201.044,447.093c-0.632,0-1.161-0.489-1.201-1.128c-5.208-82.2,49.152-149.711,49.702-150.383    c0.421-0.515,1.177-0.59,1.692-0.169c0.515,0.421,0.59,1.178,0.169,1.692c-0.543,0.665-54.309,67.471-49.162,148.71    c0.042,0.663-0.461,1.234-1.126,1.276C201.094,447.093,201.068,447.093,201.044,447.093z"/>
		<path style="fill:#241726;" d="M237.409,466.455c-47.672,0-53.912-12.668-54.203-13.331c-0.268-0.609,0.01-1.319,0.618-1.586    c0.599-0.259,1.302,0.002,1.577,0.599c0.155,0.301,10.149,18.271,92.876,9.486c0.646-0.073,1.253,0.409,1.323,1.069    c0.07,0.66-0.409,1.253-1.069,1.323C262.21,465.75,248.655,466.455,237.409,466.455z"/>
		<path style="fill:#FBFFFF;" d="M409.904,289.25c-0.306,0-0.611-0.115-0.846-0.348c-0.505-0.501-50.878-49.698-86.687-29.814    c-0.571,0.315-1.311,0.113-1.636-0.47c-0.322-0.581-0.113-1.311,0.47-1.636c15.524-8.619,35.974-6.092,59.127,7.31    c17.336,10.034,30.289,22.772,30.418,22.899c0.473,0.468,0.477,1.229,0.009,1.702C410.525,289.13,410.214,289.25,409.904,289.25z"/>
		<path style="fill:#FBFFFF;" d="M284.662,291.911c-0.146,0-0.296-0.026-0.439-0.082c-0.618-0.244-0.924-0.943-0.682-1.561    c7.265-18.523,20.502-27.2,21.061-27.562c0.564-0.364,1.304-0.195,1.662,0.362c0.36,0.557,0.2,1.302-0.36,1.662    c-0.129,0.085-13.155,8.652-20.121,26.418C285.595,291.622,285.142,291.911,284.662,291.911z"/>
		<path style="fill:#FBFFFF;" d="M223.387,289.081c-0.428,0-0.844-0.23-1.062-0.637c-0.2-0.376-20.622-37.96-58.258-55.926    c-0.599-0.287-0.853-1.004-0.566-1.605s0.999-0.853,1.605-0.566c38.367,18.314,59.137,56.579,59.343,56.965    c0.313,0.585,0.092,1.314-0.496,1.629C223.772,289.036,223.579,289.081,223.387,289.081z"/>
		<path style="fill:#FBFFFF;" d="M116.094,232.238c-0.336,0-0.67-0.139-0.907-0.414c-0.437-0.501-0.386-1.26,0.117-1.697    c15.037-13.112,34.587-1.619,34.785-1.499c0.569,0.343,0.752,1.081,0.411,1.65c-0.341,0.569-1.079,0.755-1.65,0.414    c-0.181-0.103-18.25-10.694-31.967,1.25C116.656,232.142,116.376,232.238,116.094,232.238z"/>
		<path style="fill:#241726;" d="M243.637,446.163c-3.053,0-5.025-0.719-5.173-0.776c-0.62-0.233-0.933-0.924-0.703-1.544    c0.233-0.623,0.917-0.938,1.547-0.71c0.059,0.023,5.944,2.115,13.094-1.617c9.082-4.738,16.387-16.805,21.127-34.9    c1.57-5.998,2.886-12.241,4.282-18.852c9.314-44.158,19.914-94.239,111.208-89.449c0.663,0.033,1.173,0.599,1.138,1.264    c-0.033,0.663-0.602,1.208-1.264,1.137c-89.242-4.67-99.612,44.33-108.726,87.543c-1.401,6.64-2.724,12.913-4.31,18.967    c-4.999,19.089-12.541,31.356-22.418,36.463C249.687,445.632,246.262,446.163,243.637,446.163z"/>
		<path style="fill:#241726;" d="M194.036,379.531c-0.071,0-0.139-0.005-0.209-0.019c-0.656-0.113-1.093-0.738-0.978-1.391    c0.125-0.719,11.93-72.519-43.03-118.628c-17.176-14.41-33.483-15.75-44.146-14.342c-11.533,1.525-19.066,6.473-19.141,6.522    c-0.55,0.364-1.297,0.219-1.669-0.334c-0.369-0.552-0.219-1.3,0.334-1.669c0.315-0.209,31.976-20.704,66.169,7.979    c56.044,47.016,43.982,120.151,43.852,120.884C195.117,379.12,194.609,379.531,194.036,379.531z"/>
	</g>
	<path style="fill:#241726;" d="M134.511,510.005c-1.098,0-2.198-0.078-3.265-0.23c-0.658-0.094-1.114-0.705-1.02-1.363   c0.096-0.66,0.708-1.105,1.363-1.02c1.476,0.209,3.022,0.263,4.536,0.146c0.618-0.031,1.241,0.442,1.293,1.105   c0.054,0.663-0.442,1.241-1.105,1.293C135.717,509.981,135.113,510.005,134.511,510.005z M140.949,509.097   c-0.527,0-1.011-0.348-1.159-0.879c-0.179-0.639,0.195-1.304,0.834-1.483c1.438-0.404,2.884-0.954,4.292-1.633   c0.602-0.287,1.321-0.04,1.608,0.559c0.289,0.599,0.038,1.319-0.559,1.608c-1.537,0.743-3.114,1.342-4.691,1.784   C141.165,509.083,141.055,509.097,140.949,509.097z M126.767,508.585c-0.143,0-0.289-0.026-0.43-0.08   c-0.999-0.381-1.984-0.837-2.926-1.349c-0.531-0.289-1.048-0.578-1.551-0.867c-0.576-0.334-0.773-1.069-0.442-1.645   c0.331-0.576,1.067-0.771,1.645-0.442c0.484,0.28,0.983,0.559,1.497,0.839c0.851,0.463,1.739,0.872,2.637,1.217   c0.621,0.237,0.931,0.933,0.693,1.553C127.707,508.291,127.251,508.585,126.767,508.585z M149.584,504.956   c-0.378,0-0.752-0.179-0.987-0.515c-0.381-0.543-0.247-1.295,0.299-1.676c1.255-0.877,2.463-1.864,3.589-2.931   c0.482-0.454,1.241-0.435,1.702,0.047c0.456,0.482,0.435,1.243-0.047,1.702c-1.213,1.147-2.513,2.209-3.866,3.156   C150.064,504.886,149.824,504.956,149.584,504.956z M118.383,503.901c-0.235,0-0.47-0.068-0.679-0.209   c-1.427-0.975-2.75-1.981-3.932-2.992c-0.505-0.432-0.564-1.192-0.132-1.697c0.432-0.503,1.192-0.562,1.697-0.132   c1.114,0.954,2.369,1.906,3.725,2.832c0.548,0.376,0.689,1.124,0.315,1.673C119.145,503.717,118.767,503.901,118.383,503.901z    M156.55,498.356c-0.261,0-0.522-0.085-0.743-0.256c-0.524-0.411-0.613-1.168-0.204-1.69c0.964-1.225,1.829-2.52,2.574-3.845   c0.324-0.581,1.051-0.79,1.638-0.458c0.578,0.324,0.785,1.058,0.458,1.638c-0.804,1.431-1.739,2.83-2.776,4.151   C157.26,498.199,156.905,498.356,156.55,498.356z M111.144,497.599c-0.341,0-0.679-0.143-0.917-0.423   c-1.149-1.354-2.111-2.764-2.851-4.193c-0.308-0.59-0.077-1.316,0.512-1.622c0.583-0.31,1.316-0.08,1.622,0.512   c0.66,1.269,1.518,2.527,2.55,3.742c0.43,0.508,0.369,1.267-0.136,1.697C111.697,497.505,111.419,497.599,111.144,497.599z    M161.235,489.987c-0.136,0-0.273-0.023-0.407-0.07c-0.625-0.226-0.95-0.914-0.726-1.539c0.531-1.476,0.917-2.966,1.149-4.435   c0.104-0.658,0.729-1.095,1.377-1.001c0.656,0.106,1.105,0.721,1.001,1.377c-0.256,1.617-0.682,3.258-1.262,4.872   C162.191,489.681,161.728,489.987,161.235,489.987z M106.832,489.117c-0.559,0-1.06-0.392-1.178-0.961   c-0.251-1.232-0.381-2.524-0.381-3.836c0-0.421,0.012-0.841,0.038-1.264c0.04-0.663,0.611-1.199,1.271-1.13   c0.663,0.038,1.171,0.609,1.131,1.271c-0.021,0.376-0.033,0.75-0.033,1.124c0,1.149,0.113,2.277,0.334,3.352   c0.132,0.651-0.287,1.288-0.938,1.422C106.994,489.11,106.914,489.117,106.832,489.117z M162.697,480.536   c-0.635,0-1.166-0.496-1.201-1.135c-0.087-1.523-0.346-3.025-0.769-4.461c-0.188-0.637,0.176-1.307,0.813-1.495   c0.635-0.186,1.305,0.174,1.495,0.813c0.477,1.615,0.766,3.3,0.863,5.006c0.038,0.665-0.47,1.232-1.133,1.269   C162.741,480.536,162.718,480.536,162.697,480.536z M107.273,479.591c-0.096,0-0.195-0.012-0.296-0.038   c-0.644-0.162-1.034-0.818-0.87-1.462c0.374-1.483,0.867-3.022,1.506-4.71c0.237-0.623,0.936-0.931,1.551-0.7   c0.623,0.235,0.936,0.931,0.7,1.551c-0.606,1.603-1.074,3.058-1.427,4.452C108.303,479.229,107.812,479.591,107.273,479.591z    M159.991,471.389c-0.416,0-0.823-0.219-1.046-0.606c-0.705-1.239-1.563-2.435-2.545-3.554c-0.437-0.501-0.388-1.26,0.11-1.699   c0.496-0.435,1.26-0.388,1.699,0.111c1.088,1.243,2.04,2.571,2.827,3.948c0.329,0.578,0.127,1.314-0.449,1.643   C160.4,471.337,160.193,471.389,159.991,471.389z M110.604,470.571c-0.167,0-0.336-0.035-0.498-0.108   c-0.606-0.275-0.872-0.99-0.597-1.594c0.653-1.434,1.354-2.893,2.078-4.379c0.291-0.599,1.02-0.839,1.608-0.555   c0.597,0.291,0.846,1.011,0.555,1.608c-0.715,1.467-1.406,2.907-2.049,4.322C111.497,470.31,111.06,470.571,110.604,470.571z    M114.792,461.9c-0.179,0-0.36-0.04-0.529-0.122c-0.597-0.291-0.844-1.013-0.552-1.61c0.693-1.415,1.389-2.856,2.071-4.322   c0.277-0.599,0.994-0.87,1.598-0.583c0.602,0.28,0.863,0.994,0.583,1.598c-0.686,1.481-1.391,2.936-2.089,4.365   C115.664,461.654,115.236,461.9,114.792,461.9z M118.823,453.157c-0.155,0-0.313-0.03-0.463-0.092   c-0.613-0.256-0.903-0.961-0.649-1.575c0.606-1.45,1.182-2.926,1.713-4.428c0.226-0.625,0.91-0.952,1.537-0.733   c0.625,0.221,0.954,0.91,0.733,1.537c-0.545,1.544-1.14,3.058-1.76,4.55C119.742,452.88,119.293,453.157,118.823,453.157z    M122.005,444.076c-0.106,0-0.212-0.014-0.32-0.042c-0.639-0.176-1.018-0.839-0.841-1.481c0.423-1.539,0.776-3.084,1.048-4.583   c0.118-0.658,0.757-1.076,1.398-0.971c0.656,0.12,1.088,0.745,0.971,1.398c-0.284,1.572-0.653,3.185-1.095,4.795   C123.018,443.725,122.534,444.076,122.005,444.076z M123.707,434.618c-0.033,0-0.068-0.002-0.101-0.005   c-0.663-0.054-1.154-0.635-1.1-1.297c0.096-1.17,0.146-2.362,0.146-3.57c0-0.367-0.005-0.736-0.014-1.105   c-0.016-0.665,0.51-1.217,1.173-1.234c0.012,0,0.021,0,0.031,0c0.651,0,1.187,0.519,1.203,1.173c0.01,0.392,0.014,0.78,0.014,1.166   c0,1.274-0.054,2.531-0.155,3.768C124.852,434.141,124.325,434.618,123.707,434.618z M123.455,425.019   c-0.592,0-1.109-0.437-1.189-1.041c-0.087-0.644-0.188-1.29-0.306-1.944c-0.165-0.921-0.35-1.812-0.552-2.679   c-0.15-0.646,0.251-1.293,0.9-1.445c0.651-0.146,1.293,0.251,1.445,0.9c0.212,0.905,0.402,1.838,0.576,2.802   c0.122,0.686,0.228,1.366,0.32,2.042c0.089,0.66-0.371,1.264-1.029,1.354C123.564,425.017,123.51,425.019,123.455,425.019z    M121.267,415.662c-0.503,0-0.971-0.317-1.14-0.818c-0.51-1.509-1.095-2.966-1.744-4.329c-0.284-0.602-0.028-1.319,0.571-1.605   c0.595-0.28,1.319-0.031,1.605,0.571c0.686,1.45,1.309,2.997,1.847,4.592c0.214,0.63-0.125,1.314-0.755,1.525   C121.524,415.641,121.394,415.662,121.267,415.662z M80.955,412.551c-0.108,0-0.221-0.014-0.331-0.047   c-1.591-0.454-3.098-1.485-4.48-3.062c-0.437-0.498-0.388-1.26,0.113-1.697c0.498-0.437,1.26-0.39,1.697,0.113   c1.072,1.222,2.193,2.007,3.333,2.334c0.639,0.181,1.008,0.848,0.825,1.488C81.96,412.207,81.479,412.551,80.955,412.551z    M85.582,411.9c-0.416,0-0.823-0.219-1.046-0.606c-0.329-0.578-0.127-1.312,0.449-1.643c1.079-0.613,2.132-1.601,3.133-2.931   c0.399-0.533,1.159-0.639,1.685-0.237c0.531,0.4,0.637,1.154,0.237,1.685c-1.199,1.594-2.498,2.795-3.862,3.575   C85.991,411.848,85.787,411.9,85.582,411.9z M117.126,407.004c-0.393,0-0.778-0.193-1.008-0.548   c-0.848-1.302-1.796-2.534-2.809-3.66c-0.447-0.493-0.407-1.255,0.087-1.699c0.494-0.451,1.255-0.407,1.699,0.087   c1.098,1.217,2.12,2.55,3.039,3.96c0.362,0.555,0.204,1.302-0.353,1.664C117.58,406.94,117.352,407.004,117.126,407.004z    M74.686,405.718c-0.557,0-1.058-0.39-1.175-0.959c-0.096-0.463-0.146-0.933-0.146-1.394c0-1.396,0.428-2.771,1.269-4.083   c0.36-0.564,1.109-0.721,1.662-0.364c0.559,0.36,0.724,1.102,0.364,1.662c-0.59,0.919-0.888,1.857-0.888,2.785   c0,0.296,0.033,0.602,0.094,0.905c0.136,0.651-0.282,1.288-0.933,1.422C74.851,405.711,74.768,405.718,74.686,405.718z    M91.524,404.51c-0.174,0-0.348-0.038-0.515-0.115c-0.599-0.284-0.858-1.001-0.574-1.603c0.618-1.304,1.189-2.764,1.702-4.334   c0.207-0.632,0.888-0.975,1.518-0.771c0.632,0.207,0.975,0.886,0.771,1.518c-0.545,1.666-1.154,3.22-1.814,4.616   C92.405,404.256,91.973,404.51,91.524,404.51z M110.7,399.906c-0.261,0-0.524-0.085-0.745-0.258   c-1.203-0.949-2.496-1.796-3.843-2.517c-0.585-0.313-0.806-1.041-0.491-1.629c0.315-0.588,1.051-0.809,1.626-0.491   c1.471,0.785,2.884,1.711,4.198,2.747c0.522,0.411,0.611,1.168,0.2,1.69C111.408,399.748,111.055,399.906,110.7,399.906z    M79.065,397.793c-0.386,0-0.766-0.186-0.999-0.531c-0.371-0.552-0.223-1.3,0.327-1.671c1.328-0.893,2.858-1.662,4.546-2.287   c0.628-0.235,1.316,0.087,1.547,0.71c0.23,0.625-0.087,1.316-0.71,1.546c-1.511,0.559-2.87,1.241-4.038,2.028   C79.53,397.727,79.298,397.793,79.065,397.793z M94.551,395.393c-0.087,0-0.179-0.009-0.268-0.03   c-0.649-0.148-1.053-0.792-0.905-1.441c0.012-0.052,0.023-0.106,0.035-0.158c-0.179,0.111-0.388,0.174-0.613,0.176   c-1.544,0.017-3.091,0.16-4.592,0.425c-0.642,0.132-1.279-0.32-1.394-0.975c-0.115-0.656,0.322-1.278,0.975-1.394   c1.631-0.289,3.307-0.444,4.983-0.463c0.39,0,0.783,0.202,1.001,0.517c0.176-0.9,0.336-1.826,0.482-2.771   c0.101-0.658,0.731-1.102,1.37-1.008c0.658,0.101,1.109,0.715,1.008,1.37c-0.256,1.676-0.562,3.295-0.91,4.816   C95.597,395.015,95.101,395.393,94.551,395.393z M102.258,395.386c-0.124,0-0.251-0.019-0.378-0.061   c-1.434-0.475-2.94-0.832-4.475-1.065c-0.658-0.099-1.109-0.712-1.011-1.368c0.096-0.66,0.715-1.121,1.368-1.011   c1.671,0.251,3.312,0.642,4.874,1.159c0.63,0.209,0.973,0.888,0.764,1.521C103.233,395.066,102.763,395.386,102.258,395.386z    M96.03,385.888c-0.038,0-0.075-0.002-0.113-0.005c-0.663-0.061-1.149-0.649-1.088-1.309c0.141-1.523,0.247-3.103,0.313-4.741   c0.028-0.663,0.599-1.149,1.253-1.154c0.665,0.028,1.18,0.588,1.154,1.253c-0.07,1.68-0.176,3.302-0.322,4.863   C97.167,385.421,96.643,385.888,96.03,385.888z M96.429,376.273c-0.66,0-1.199-0.533-1.203-1.196   c-0.009-1.542-0.049-3.133-0.122-4.764c-0.031-0.663,0.482-1.227,1.147-1.255c0.74-0.089,1.227,0.484,1.255,1.147   c0.077,1.664,0.118,3.283,0.127,4.858c0.005,0.665-0.531,1.206-1.196,1.21C96.434,376.273,96.431,376.273,96.429,376.273z    M95.926,366.665c-0.602,0-1.123-0.451-1.194-1.065c-0.183-1.591-0.428-3.154-0.729-4.647c-0.132-0.651,0.291-1.286,0.942-1.417   c0.642-0.136,1.286,0.289,1.417,0.943c0.315,1.558,0.569,3.187,0.762,4.844c0.075,0.661-0.4,1.257-1.058,1.335   C96.02,366.663,95.973,366.665,95.926,366.665z M94.001,357.264c-0.515,0-0.989-0.331-1.149-0.846   c-0.47-1.516-1.025-2.982-1.645-4.355c-0.273-0.606-0.002-1.319,0.602-1.594c0.609-0.273,1.316-0.005,1.593,0.602   c0.66,1.464,1.248,3.023,1.749,4.632c0.198,0.635-0.157,1.309-0.792,1.507C94.239,357.247,94.119,357.264,94.001,357.264z    M90.017,348.547c-0.395,0-0.783-0.195-1.013-0.555c-0.844-1.316-1.784-2.548-2.79-3.657c-0.447-0.491-0.409-1.253,0.082-1.699   c0.491-0.444,1.253-0.409,1.699,0.082c1.098,1.208,2.118,2.545,3.034,3.977c0.36,0.559,0.195,1.302-0.364,1.662   C90.466,348.485,90.241,348.547,90.017,348.547z M83.573,341.474c-0.256,0-0.512-0.08-0.731-0.247   c-1.217-0.931-2.524-1.749-3.883-2.435c-0.595-0.298-0.832-1.022-0.534-1.615c0.299-0.597,1.022-0.832,1.615-0.534   c1.492,0.75,2.926,1.65,4.264,2.67c0.529,0.404,0.63,1.159,0.226,1.688C84.292,341.312,83.935,341.474,83.573,341.474z    M75.02,337.169c-0.108,0-0.221-0.014-0.331-0.047c-2.606-0.747-4.421-0.787-4.44-0.787c-0.663-0.012-1.194-0.559-1.182-1.222   c0.009-0.658,0.545-1.185,1.201-1.185c0.005,0,0.009,0,0.017,0c0.085,0.002,2.129,0.038,5.067,0.881   c0.639,0.183,1.008,0.848,0.825,1.488C76.026,336.825,75.544,337.169,75.02,337.169z"/>
	<path style="fill:#241726;" d="M454.61,220.376c-0.005,0-0.012,0-0.019,0c-1.775-0.026-3.46-0.202-5.006-0.517   c-0.651-0.134-1.069-0.771-0.938-1.422c0.134-0.653,0.776-1.067,1.422-0.938c1.398,0.287,2.933,0.447,4.56,0.47   c0.663,0.009,1.194,0.557,1.185,1.222C455.804,219.85,455.265,220.376,454.61,220.376z M459.411,220.094   c-0.595,0-1.112-0.442-1.192-1.048c-0.085-0.658,0.381-1.262,1.039-1.349c1.542-0.2,3.074-0.508,4.553-0.914   c0.649-0.167,1.305,0.202,1.481,0.842c0.176,0.642-0.202,1.304-0.841,1.481c-1.589,0.435-3.229,0.764-4.882,0.98   C459.517,220.092,459.463,220.094,459.411,220.094z M445.323,218.247c-0.214,0-0.43-0.056-0.625-0.174   c-1.664-1.013-2.719-2.339-3.048-3.833c-0.143-0.649,0.268-1.29,0.917-1.434c0.66-0.136,1.29,0.27,1.434,0.917   c0.188,0.848,0.844,1.622,1.948,2.292c0.569,0.346,0.747,1.086,0.404,1.655C446.125,218.04,445.728,218.247,445.323,218.247z    M468.662,217.537c-0.461,0-0.902-0.268-1.1-0.717c-0.27-0.606,0.005-1.319,0.613-1.586c1.436-0.635,2.792-1.38,4.035-2.212   c0.555-0.369,1.3-0.221,1.671,0.331c0.369,0.552,0.221,1.3-0.331,1.671c-1.359,0.907-2.839,1.718-4.402,2.409   C468.991,217.504,468.824,217.537,468.662,217.537z M476.595,212.178c-0.306,0-0.611-0.115-0.846-0.348   c-0.472-0.468-0.477-1.229-0.009-1.702c1.077-1.088,2.019-2.285,2.802-3.554c0.35-0.574,1.093-0.743,1.657-0.395   c0.564,0.348,0.74,1.091,0.392,1.655c-0.879,1.429-1.937,2.769-3.14,3.986C477.215,212.058,476.905,212.178,476.595,212.178z    M481.589,204.055c-0.125,0-0.251-0.019-0.376-0.061c-0.63-0.207-0.975-0.886-0.766-1.518c0.461-1.408,0.78-2.903,0.947-4.445   c0.07-0.66,0.679-1.133,1.326-1.067c0.661,0.071,1.138,0.665,1.067,1.326c-0.183,1.709-0.538,3.368-1.055,4.938   C482.567,203.733,482.094,204.055,481.589,204.055z M482.67,194.562c-0.628,0-1.156-0.486-1.199-1.123   c-0.099-1.469-0.315-3.016-0.642-4.597c-0.136-0.651,0.282-1.288,0.933-1.422c0.642-0.148,1.288,0.28,1.422,0.933   c0.35,1.688,0.583,3.344,0.689,4.926c0.045,0.663-0.458,1.236-1.121,1.281C482.727,194.562,482.698,194.562,482.67,194.562z    M480.764,185.154c-0.508,0-0.978-0.322-1.145-0.83c-0.468-1.441-1.025-2.926-1.652-4.414c-0.259-0.613,0.031-1.319,0.642-1.577   c0.606-0.252,1.316,0.031,1.577,0.642c0.653,1.549,1.232,3.098,1.723,4.602c0.204,0.632-0.141,1.312-0.771,1.518   C481.013,185.135,480.886,185.154,480.764,185.154z M476.961,176.329c-0.416,0-0.82-0.216-1.043-0.604   c-0.809-1.403-1.688-2.672-2.614-3.77c-0.43-0.508-0.364-1.267,0.143-1.695c0.508-0.425,1.267-0.364,1.695,0.143   c1.02,1.206,1.981,2.592,2.863,4.122c0.331,0.576,0.132,1.312-0.444,1.643C477.372,176.277,477.166,176.329,476.961,176.329z    M470.726,169.099c-0.247,0-0.494-0.075-0.708-0.23c-1.217-0.886-2.508-1.584-3.939-2.134c-0.621-0.237-0.931-0.933-0.693-1.554   c0.237-0.62,0.94-0.931,1.554-0.693c1.634,0.625,3.105,1.422,4.494,2.435c0.538,0.392,0.656,1.145,0.266,1.68   C471.464,168.927,471.097,169.099,470.726,169.099z M461.863,165.611c-0.061,0-0.125-0.005-0.186-0.014   c-1.387-0.214-2.903-0.338-4.637-0.378c-0.663-0.016-1.189-0.566-1.175-1.232c0.016-0.663,0.555-1.192,1.232-1.175   c1.84,0.042,3.46,0.176,4.948,0.407c0.658,0.101,1.107,0.717,1.006,1.373C462.958,165.186,462.446,165.611,461.863,165.611z    M442.632,165.439c-0.014,0-0.026,0-0.04,0c-1.796-0.061-3.408-0.202-4.931-0.432c-0.658-0.099-1.109-0.712-1.011-1.368   c0.099-0.661,0.719-1.119,1.368-1.011c1.431,0.214,2.952,0.348,4.654,0.404c0.665,0.023,1.184,0.58,1.163,1.243   C443.812,164.927,443.279,165.439,442.632,165.439z M447.443,165.432c-0.649,0-1.185-0.517-1.203-1.171   c-0.019-0.665,0.505-1.217,1.17-1.236c0.952-0.026,1.901-0.061,2.844-0.096l1.958-0.07c0.769,0,1.22,0.501,1.243,1.163   c0.021,0.665-0.501,1.222-1.163,1.243l-1.949,0.068c-0.952,0.035-1.908,0.073-2.867,0.099   C447.465,165.432,447.455,165.432,447.443,165.432z M433.158,163.928c-0.122,0-0.249-0.019-0.374-0.059   c-1.61-0.527-3.164-1.206-4.616-2.024c-0.578-0.324-0.785-1.06-0.458-1.638c0.324-0.581,1.06-0.787,1.638-0.458   c1.314,0.738,2.722,1.356,4.184,1.831c0.632,0.207,0.975,0.886,0.771,1.518C434.136,163.606,433.666,163.928,433.158,163.928z    M424.789,159.282c-0.266,0-0.534-0.087-0.757-0.268c-1.377-1.112-2.59-2.294-3.608-3.518c-0.425-0.51-0.355-1.269,0.158-1.695   c0.505-0.421,1.271-0.353,1.694,0.158c0.914,1.1,2.014,2.172,3.269,3.185c0.517,0.416,0.597,1.173,0.179,1.692   C425.487,159.129,425.139,159.282,424.789,159.282z M418.788,151.876c-0.461,0-0.9-0.266-1.1-0.712   c-0.715-1.605-1.163-3.29-1.328-5.006c-0.063-0.663,0.423-1.25,1.083-1.314c0.66-0.026,1.25,0.421,1.314,1.083   c0.139,1.457,0.519,2.889,1.13,4.254c0.27,0.606-0.002,1.318-0.609,1.591C419.12,151.843,418.953,151.876,418.788,151.876z    M417.853,142.463c-0.082,0-0.167-0.007-0.249-0.026c-0.651-0.136-1.067-0.773-0.931-1.424c0.331-1.584,0.886-3.204,1.647-4.809   c0.287-0.602,1.013-0.853,1.603-0.574c0.602,0.287,0.858,1.004,0.573,1.603c-0.682,1.436-1.175,2.872-1.469,4.273   C418.91,142.073,418.41,142.463,417.853,142.463z M421.858,133.785c-0.242,0-0.487-0.073-0.7-0.223   c-0.541-0.388-0.665-1.137-0.28-1.68c0.943-1.316,2.01-2.609,3.178-3.838c0.251-0.266,0.606-0.404,0.935-0.371   c-0.289-0.132-0.581-0.266-0.872-0.404c-0.602-0.284-0.858-1.001-0.574-1.603c0.287-0.602,1.006-0.851,1.603-0.573   c0.747,0.355,1.485,0.684,2.207,0.985c-0.209-0.479-0.082-1.06,0.341-1.408c1.314-1.076,2.682-2.05,4.061-2.889   c0.562-0.35,1.307-0.172,1.652,0.402c0.345,0.566,0.167,1.307-0.402,1.652c-1.283,0.783-2.557,1.69-3.784,2.696   c-0.089,0.073-0.186,0.132-0.287,0.174c0.181,0.068,0.362,0.136,0.543,0.2c0.625,0.223,0.949,0.914,0.726,1.539   c-0.223,0.625-0.912,0.947-1.539,0.726c-0.933-0.334-1.901-0.719-2.891-1.149c0.463,0.458,0.475,1.206,0.023,1.683   c-1.088,1.147-2.085,2.35-2.961,3.58C422.603,133.609,422.232,133.785,421.858,133.785z M437.217,130.899   c-1.147,0-2.404-0.129-3.739-0.385c-0.651-0.127-1.079-0.757-0.954-1.41c0.125-0.653,0.75-1.081,1.41-0.954   c1.203,0.233,2.289,0.317,3.345,0.343c0.393,0,0.759-0.016,1.109-0.047c0.637-0.049,1.246,0.43,1.302,1.095   c0.056,0.663-0.432,1.246-1.095,1.302C438.16,130.88,437.682,130.883,437.217,130.899z M442.94,129.214   c-0.343,0-0.682-0.146-0.921-0.428c-0.428-0.51-0.362-1.269,0.146-1.697c0.806-0.677,1.248-1.57,1.246-2.517   c0-0.209-0.021-0.411-0.061-0.606c-0.136-0.649,0.28-1.288,0.931-1.424c0.637-0.148,1.288,0.277,1.424,0.931   c0.075,0.355,0.113,0.724,0.113,1.098c0.002,1.669-0.743,3.218-2.101,4.362C443.49,129.122,443.215,129.214,442.94,129.214z    M420.368,125.162c-0.2,0-0.402-0.049-0.59-0.155l-0.411-0.233c-1.342-0.769-2.607-1.589-3.763-2.437   c-0.536-0.395-0.651-1.147-0.259-1.683c0.397-0.538,1.154-0.646,1.683-0.259c1.083,0.797,2.27,1.565,3.533,2.289l0.397,0.226   c0.578,0.324,0.785,1.058,0.458,1.638C421.197,124.941,420.788,125.162,420.368,125.162z M436.702,121.9   c-0.496,0-0.961-0.31-1.135-0.806c-0.221-0.628,0.111-1.314,0.738-1.533c1.669-0.585,3.114-0.797,4.28-0.634   c0.423,0.059,0.823,0.153,1.199,0.275c0.63,0.207,0.975,0.886,0.771,1.518c-0.207,0.63-0.877,0.978-1.518,0.771   c-0.245-0.08-0.508-0.141-0.785-0.181c-0.797-0.115-1.88,0.078-3.152,0.522C436.968,121.879,436.834,121.9,436.702,121.9z    M412.668,119.444c-0.31,0-0.618-0.12-0.853-0.355c-1.206-1.215-2.287-2.512-3.215-3.854c-0.378-0.545-0.242-1.295,0.306-1.673   c0.543-0.378,1.295-0.244,1.673,0.306c0.848,1.224,1.838,2.411,2.943,3.525c0.47,0.472,0.465,1.234-0.005,1.702   C413.281,119.328,412.973,119.444,412.668,119.444z M407.248,111.561c-0.463,0-0.902-0.268-1.102-0.719   c-0.663-1.509-1.194-3.117-1.579-4.773c-0.15-0.649,0.254-1.295,0.9-1.445c0.656-0.15,1.295,0.256,1.445,0.9   c0.35,1.514,0.834,2.978,1.438,4.351c0.266,0.609-0.009,1.318-0.618,1.587C407.575,111.528,407.41,111.561,407.248,111.561z    M405.048,102.242c-0.628,0-1.159-0.489-1.199-1.126c-0.047-0.722-0.068-1.443-0.068-2.167c0.002-0.94,0.04-1.876,0.108-2.811   c0.052-0.663,0.642-1.163,1.29-1.112c0.663,0.052,1.161,0.628,1.112,1.29c-0.068,0.879-0.101,1.758-0.103,2.635   c0,0.67,0.021,1.34,0.063,2.01c0.042,0.663-0.461,1.236-1.123,1.278C405.102,102.242,405.076,102.242,405.048,102.242z    M405.73,92.659c-0.075,0-0.15-0.007-0.228-0.021c-0.653-0.125-1.081-0.755-0.957-1.408c0.298-1.565,0.686-3.178,1.152-4.79   c0.183-0.639,0.858-1.013,1.49-0.823c0.639,0.186,1.006,0.851,0.823,1.49c-0.447,1.542-0.816,3.079-1.1,4.574   C406.799,92.257,406.296,92.659,405.73,92.659z M408.369,83.408c-0.141,0-0.282-0.023-0.421-0.075   c-0.623-0.235-0.94-0.928-0.707-1.549c0.583-1.558,1.213-3.072,1.866-4.527c0.273-0.609,0.994-0.877,1.591-0.604   c0.606,0.273,0.877,0.985,0.604,1.591c-0.635,1.408-1.241,2.875-1.805,4.381C409.316,83.11,408.856,83.408,408.369,83.408z    M412.308,74.618c-0.188,0-0.378-0.045-0.555-0.136c-0.59-0.306-0.82-1.032-0.512-1.622c0.797-1.535,1.596-2.964,2.364-4.268   c0.336-0.578,1.081-0.762,1.645-0.428c0.573,0.336,0.766,1.074,0.428,1.645c-0.745,1.271-1.525,2.668-2.303,4.16   C413.162,74.383,412.741,74.618,412.308,74.618z M417.185,66.31c-0.228,0-0.458-0.063-0.66-0.197   c-0.557-0.367-0.71-1.112-0.346-1.666c1.65-2.508,2.785-3.97,2.832-4.031c0.409-0.527,1.163-0.623,1.688-0.212   c0.524,0.407,0.62,1.163,0.211,1.688c-0.009,0.014-1.128,1.457-2.719,3.876C417.959,66.119,417.576,66.31,417.185,66.31z"/>
</g>















</svg>
