<?xml version="1.0" encoding="UTF-8"?>
<!-- Generator: Adobe Illustrator 26.2.1, SVG Export Plug-In . SVG Version: 6.00 Build 0)  -->
<svg xmlns="http://www.w3.org/2000/svg" xmlns:xlink="http://www.w3.org/1999/xlink" version="1.1" id="Layer_1" x="0px" y="0px" viewBox="0 0 512 512" style="enable-background:new 0 0 512 512;" xml:space="preserve" width="512" height="512">
<g>
	<path style="fill:#241726;" d="M459.568,42.569c-0.33,0-0.645-0.149-0.857-0.407c-0.032-0.04-3.118-3.828-6.673-8.45   c-4.185,1.42-9.183,2.989-10.86,2.989h-0.002c-0.585,0-1.016-0.187-1.284-0.555c-0.209-0.286-0.281-0.775-0.17-1.11   c0.328-1.014,3.749-6.4,5.997-9.854c-5.13-7.303-5.238-8.833-4.899-9.763c0.17-0.468,0.546-0.809,1.032-0.934   c2.557-0.366,7.055,0.945,10.001,1.596c6.172-8.754,7.527-9.848,8.691-7.199c0.004,0.045,0.496,4.372,0.947,9.948   c10.389,3.339,10.652,4.779,10.782,5.479c0.101,0.551-0.114,1.1-0.576,1.466c-1.243,0.984-6.224,2.992-9.543,4.273   c0.309,10.269-0.74,12.423-2.525,12.52C459.606,42.569,459.587,42.569,459.568,42.569z M454.241,32.953   c2.216,2.869,4.2,5.353,5.292,6.712c0.263-1.064,0.559-3.454,0.432-8.785C458.076,31.587,456.138,32.289,454.241,32.953z    M447.098,27.115c-2.126,3.277-3.623,5.7-4.472,7.14c1.511-0.344,4.096-1.089,7.994-2.397   C449.329,30.157,448.149,28.57,447.098,27.115z M448.393,25.132c1.278,1.784,2.765,3.787,4.431,5.975   c2.333-0.808,4.748-1.683,7.066-2.56c-0.097-2.396-0.261-5.1-0.486-8.058c-2.141-0.664-4.4-1.308-6.615-1.886   C451.334,20.705,449.817,22.963,448.393,25.132z M461.674,21.214c0.171,2.342,0.302,4.516,0.391,6.498   c4.027-1.568,6.429-2.644,7.566-3.25C468.655,23.845,466.303,22.742,461.674,21.214z M443.071,16.616   c0.304,0.806,1.219,2.624,3.954,6.575c1.139-1.723,2.322-3.484,3.479-5.167C447.139,17.204,444.465,16.697,443.071,16.616z    M454.138,16.673c1.701,0.454,3.416,0.943,5.076,1.446c-0.255-3.044-0.511-5.64-0.68-7.248   C457.737,11.785,456.389,13.491,454.138,16.673z"/>
	<path style="fill:#241726;" d="M13.531,237.229c-0.602,0-1.26-0.623-1.271-1.226c-0.017-1.065,1.474-7.269,2.484-11.265   c-7.219-5.247-7.817-6.659-7.795-7.649c0.009-0.499,0.255-0.943,0.671-1.218c1.256-0.829,5.961-1.39,9.979-1.729   c3.111-10.788,4.083-11.629,5.889-9.625c0.082,0.168,1.908,4.026,4.118,9.105c0.732-0.014,1.448-0.02,2.143-0.02   c8.9,0,9.489,1.082,9.843,1.729c0.268,0.493,0.24,1.061-0.08,1.558c-0.859,1.333-4.92,4.846-7.646,7.131   c3.619,9.618,3.326,11.995,1.668,12.664c-0.328,0.127-0.697,0.099-0.999-0.087c-0.043-0.027-4.191-2.612-9.051-5.833   C15.104,237.229,14.006,237.229,13.531,237.229z M16.673,226.12c-0.95,3.79-1.582,6.567-1.919,8.204   c1.247-0.772,3.395-2.257,6.787-4.857C19.77,228.276,18.141,227.156,16.673,226.12z M25.323,229.33   c3.028,1.996,5.708,3.704,7.182,4.636c-0.095-1.092-0.591-3.449-2.439-8.451C28.51,226.796,26.905,228.087,25.323,229.33z    M17.256,223.824c1.787,1.273,3.844,2.689,6.129,4.218c1.944-1.52,3.945-3.13,5.855-4.709c-0.868-2.235-1.897-4.739-3.069-7.466   c-2.242,0.066-4.588,0.188-6.869,0.357C18.605,218.684,17.903,221.31,17.256,223.824z M9.463,217.489   c0.546,0.664,2.001,2.087,5.872,4.942c0.518-1.998,1.066-4.048,1.616-6.014C12.963,216.78,10.555,217.192,9.463,217.489z    M28.554,215.817c0.919,2.159,1.748,4.175,2.473,6.021c3.298-2.783,5.22-4.576,6.103-5.52   C36.809,216.106,32.033,215.701,28.554,215.817z M22.235,207.049c-0.458,1.122-1.183,3.174-2.281,6.912   c1.755-0.121,3.537-0.214,5.27-0.275C23.993,210.877,22.912,208.512,22.235,207.049z"/>
	<path style="fill:#241726;" d="M70.98,187.72h-0.032c-4.213-0.017-7.625-3.459-7.607-7.674c0.017-4.195,3.444-7.607,7.64-7.607   c4.143-0.07,7.735,3.547,7.642,7.672C78.602,184.306,75.173,187.72,70.98,187.72z M71.004,174.648   c-3.006,0-5.441,2.426-5.454,5.406c-0.013,2.995,2.413,5.443,5.406,5.456l0.024,1.105v-1.105c2.98,0,5.417-2.426,5.432-5.408   c0.006-1.45-0.552-2.816-1.575-3.846C73.816,175.224,72.454,174.655,71.004,174.648z"/>
	<path style="fill:#241726;" d="M352.085,106.575h-0.032c-4.213-0.017-7.625-3.459-7.607-7.674c0.017-4.195,3.444-7.607,7.64-7.607   c4.143-0.07,7.735,3.547,7.642,7.672C359.707,103.161,356.278,106.575,352.085,106.575z M352.109,93.503   c-3.006,0-5.441,2.426-5.454,5.406c-0.013,2.995,2.413,5.443,5.406,5.456l0.024,1.105v-1.105c2.98,0,5.417-2.426,5.432-5.408   c0.006-1.45-0.552-2.816-1.575-3.846C354.921,94.079,353.559,93.51,352.109,93.503z"/>
	<path style="fill:#241726;" d="M138.358,482.833h-0.032c-4.213-0.017-7.625-3.459-7.607-7.674c0.017-4.195,3.444-7.607,7.64-7.607   c4.143-0.07,7.735,3.547,7.642,7.672C145.981,479.419,142.552,482.833,138.358,482.833z M138.382,469.761   c-3.006,0-5.441,2.426-5.454,5.406c-0.013,2.995,2.413,5.443,5.406,5.456l0.024,1.105v-1.105c2.98,0,5.417-2.426,5.432-5.408   c0.006-1.45-0.552-2.816-1.575-3.846C141.194,470.338,139.832,469.768,138.382,469.761z"/>
	<path style="fill:#241726;" d="M479.673,183.319h-0.032c-4.213-0.017-7.625-3.459-7.607-7.674c0.017-4.195,3.444-7.607,7.64-7.607   c4.143-0.07,7.735,3.547,7.642,7.672C487.295,179.905,483.866,183.319,479.673,183.319z M479.696,170.248   c-3.006,0-5.441,2.426-5.454,5.406c-0.013,2.995,2.413,5.443,5.406,5.456l0.024,1.105v-1.105c2.98,0,5.417-2.426,5.432-5.408   c0.006-1.45-0.552-2.816-1.575-3.846C482.508,170.824,481.147,170.254,479.696,170.248z"/>
	<path style="fill:#241726;" d="M495.142,421.989h-0.032c-4.213-0.017-7.625-3.459-7.607-7.674c0.017-4.195,3.444-7.607,7.64-7.607   c4.143-0.07,7.735,3.547,7.642,7.672C502.764,418.575,499.335,421.989,495.142,421.989z M495.166,408.918   c-3.006,0-5.441,2.426-5.454,5.406c-0.013,2.995,2.413,5.443,5.406,5.456l0.024,1.105v-1.105c2.98,0,5.417-2.426,5.432-5.408   c0.006-1.45-0.552-2.816-1.575-3.846C497.978,409.494,496.616,408.924,495.166,408.918z"/>
	<path style="fill:#241726;" d="M337.062,460.781h-0.032c-4.213-0.017-7.625-3.459-7.607-7.674c0.017-4.195,3.444-7.607,7.64-7.607   c4.143-0.07,7.735,3.547,7.642,7.672C344.685,457.367,341.256,460.781,337.062,460.781z M337.086,447.71   c-3.006,0-5.441,2.426-5.454,5.406c-0.013,2.995,2.413,5.443,5.406,5.456l0.024,1.105v-1.105c2.98,0,5.417-2.426,5.432-5.408   c0.006-1.45-0.552-2.816-1.575-3.846C339.898,448.286,338.536,447.716,337.086,447.71z"/>
	<path style="fill:#241726;" d="M137.661,439.877c-0.818,0-1.593,0-3.746-8.575c-7.264-1.4-7.901-2.252-8.115-2.538   c-0.207-0.276-0.296-0.782-0.201-1.112c0.132-0.466,0.436-1.545,8.738-4.891c3.231-8.158,4.07-8.515,5.704-7.243   c0.533,0.716,1.016,2.577,1.748,5.556c0.231,0.932,0.507,2.058,0.667,2.553c0.436,0.194,1.396,0.538,2.193,0.824   c4.271,1.531,5.372,2.052,5.572,3.072c0.073,0.382-0.121,0.94-0.41,1.2c-0.865,0.776-4.992,2.309-7.156,3.08   c-3.516,7.999-4.267,8.038-4.931,8.073C137.704,439.877,137.681,439.877,137.661,439.877z M128.61,427.811   c1.452,0.419,4.1,1.02,6.41,1.45c0.425,0.08,0.766,0.401,0.87,0.822c0.591,2.393,1.364,5.121,1.919,6.676   c0.805-1.448,2.024-4.013,3.015-6.28c0.123-0.282,0.356-0.5,0.645-0.601c1.973-0.695,4.202-1.547,5.59-2.155   c-0.971-0.41-2.296-0.885-3.155-1.192c-2.434-0.873-2.894-1.063-3.207-1.483c-0.274-0.369-0.445-0.983-1.051-3.448   c-0.229-0.927-0.578-2.349-0.889-3.413c-0.723,1.381-1.735,3.73-2.523,5.81c-0.11,0.289-0.337,0.52-0.624,0.634   C133.045,425.655,130.136,426.958,128.61,427.811z"/>
	<path style="fill:#241726;" d="M497.626,279.335c-0.816,0-1.591,0-3.744-8.574c-7.264-1.4-7.901-2.253-8.115-2.54   c-0.207-0.275-0.296-0.781-0.201-1.111c0.132-0.465,0.436-1.544,8.738-4.891c3.232-8.159,4.067-8.513,5.704-7.244   c0.533,0.718,1.016,2.578,1.748,5.556c0.231,0.933,0.507,2.059,0.667,2.555c0.436,0.194,1.398,0.538,2.197,0.825   c4.269,1.53,5.369,2.051,5.568,3.07c0.076,0.382-0.119,0.939-0.408,1.199c-0.868,0.779-4.994,2.31-7.158,3.081   c-3.516,7.999-4.267,8.038-4.931,8.073C497.671,279.335,497.645,279.335,497.626,279.335z M488.577,267.27   c1.452,0.419,4.1,1.02,6.41,1.45c0.425,0.08,0.766,0.401,0.87,0.822c0.591,2.393,1.364,5.12,1.919,6.675   c0.805-1.448,2.024-4.013,3.015-6.28c0.123-0.282,0.356-0.5,0.645-0.601c1.975-0.694,4.202-1.547,5.592-2.155   c-0.973-0.409-2.296-0.884-3.153-1.191c-2.439-0.874-2.898-1.063-3.211-1.485c-0.274-0.367-0.445-0.981-1.051-3.448   c-0.229-0.927-0.578-2.348-0.889-3.412c-0.723,1.381-1.735,3.73-2.523,5.81c-0.11,0.289-0.337,0.52-0.624,0.634   C493.012,265.113,490.103,266.418,488.577,267.27z"/>
	<path style="fill:#241726;" d="M283.265,36.245c-0.816,0-1.591,0-3.744-8.574c-7.264-1.4-7.901-2.253-8.115-2.54   c-0.207-0.275-0.296-0.781-0.201-1.111c0.132-0.465,0.436-1.544,8.738-4.891c3.232-8.159,4.067-8.513,5.704-7.244   c0.533,0.718,1.016,2.578,1.748,5.556c0.231,0.933,0.507,2.059,0.667,2.555c0.436,0.194,1.398,0.538,2.197,0.825   c4.269,1.53,5.369,2.051,5.568,3.07c0.076,0.382-0.119,0.939-0.408,1.199c-0.868,0.779-4.994,2.31-7.158,3.081   c-3.516,7.999-4.267,8.038-4.931,8.074C283.31,36.245,283.284,36.245,283.265,36.245z M274.216,24.18   c1.452,0.419,4.1,1.02,6.41,1.45c0.425,0.08,0.766,0.401,0.87,0.822c0.591,2.393,1.364,5.12,1.919,6.675   c0.805-1.448,2.024-4.013,3.015-6.28c0.123-0.282,0.356-0.5,0.645-0.601c1.975-0.694,4.202-1.547,5.592-2.155   c-0.973-0.409-2.296-0.884-3.153-1.191c-2.439-0.874-2.898-1.063-3.211-1.485c-0.274-0.367-0.445-0.981-1.051-3.448   c-0.229-0.927-0.578-2.348-0.889-3.412c-0.723,1.381-1.735,3.73-2.523,5.81c-0.11,0.289-0.337,0.52-0.624,0.634   C278.651,22.023,275.742,23.328,274.216,24.18z"/>
	<path style="fill:#241726;" d="M358.786,155.467c-0.818,0-1.593,0-3.746-8.574c-7.266-1.397-7.881-2.223-8.117-2.54   c-0.205-0.275-0.294-0.78-0.199-1.11c0.132-0.466,0.436-1.545,8.738-4.892c3.232-8.158,4.069-8.513,5.704-7.242   c0.533,0.715,1.016,2.577,1.75,5.556c0.229,0.932,0.505,2.058,0.665,2.553c0.436,0.195,1.396,0.54,2.193,0.824   c4.271,1.531,5.372,2.051,5.572,3.071c0.073,0.382-0.121,0.94-0.41,1.2c-0.868,0.778-4.994,2.309-7.158,3.08   c-3.516,7.999-4.267,8.038-4.929,8.074C358.829,155.467,358.803,155.467,358.786,155.467z M349.735,143.402   c1.452,0.419,4.1,1.02,6.41,1.45c0.425,0.08,0.766,0.401,0.87,0.822c0.591,2.392,1.362,5.118,1.919,6.674   c0.805-1.449,2.024-4.013,3.013-6.279c0.123-0.282,0.356-0.5,0.645-0.601c1.975-0.694,4.204-1.547,5.592-2.155   c-0.973-0.409-2.296-0.884-3.153-1.191c-2.439-0.874-2.898-1.063-3.211-1.485c-0.272-0.367-0.442-0.981-1.049-3.445   c-0.227-0.927-0.578-2.349-0.889-3.414c-0.723,1.381-1.735,3.73-2.523,5.81c-0.11,0.289-0.337,0.52-0.624,0.634   C354.17,141.245,351.258,142.549,349.735,143.402z"/>
	<g>
		<path style="fill:#241726;" d="M65.002,241.621h-0.006c-0.611-0.004-1.103-0.501-1.098-1.111l0.11-18.596    c0.004-0.611,0.503-1.102,1.111-1.098c0.611,0.004,1.103,0.501,1.098,1.111l-0.11,18.596    C66.103,241.131,65.608,241.621,65.002,241.621z"/>
		<path style="fill:#241726;" d="M57.505,237.561c-0.347,0-0.691-0.164-0.906-0.473c-0.35-0.501-0.227-1.189,0.274-1.539    l15.357-10.706c0.494-0.345,1.187-0.229,1.539,0.274c0.35,0.501,0.227,1.189-0.274,1.539l-15.357,10.706    C57.945,237.497,57.725,237.561,57.505,237.561z"/>
		<path style="fill:#241726;" d="M70.989,238.343c-0.294,0-0.585-0.117-0.803-0.345l-11.611-12.269    c-0.419-0.442-0.399-1.144,0.043-1.562c0.445-0.421,1.142-0.397,1.562,0.043l11.611,12.269c0.419,0.442,0.399,1.144-0.043,1.562    C71.535,238.243,71.26,238.343,70.989,238.343z"/>
		<path style="fill:#241726;" d="M55.405,232.125c-0.606,0-1.098-0.488-1.105-1.094c-0.006-0.611,0.483-1.109,1.094-1.116    l17.886-0.171c0.613-0.004,1.109,0.485,1.116,1.094c0.006,0.611-0.483,1.109-1.094,1.116l-17.886,0.17H55.405z"/>
	</g>
	<g>
		<path style="fill:#241726;" d="M351.923,211.968h-0.006c-0.611-0.004-1.103-0.501-1.098-1.111l0.11-18.596    c0.004-0.611,0.503-1.102,1.111-1.098c0.611,0.004,1.103,0.501,1.098,1.111l-0.11,18.596    C353.024,211.478,352.53,211.968,351.923,211.968z"/>
		<path style="fill:#241726;" d="M344.426,207.909c-0.347,0-0.691-0.164-0.906-0.473c-0.35-0.501-0.227-1.189,0.274-1.539    l15.357-10.706c0.494-0.345,1.187-0.229,1.539,0.274c0.35,0.501,0.227,1.189-0.274,1.539l-15.357,10.706    C344.866,207.844,344.646,207.909,344.426,207.909z"/>
		<path style="fill:#241726;" d="M357.91,208.69c-0.293,0-0.585-0.117-0.803-0.345l-11.611-12.269    c-0.419-0.442-0.399-1.144,0.043-1.562c0.445-0.421,1.142-0.397,1.562,0.043l11.611,12.269c0.419,0.442,0.399,1.144-0.043,1.562    C358.456,208.591,358.182,208.69,357.91,208.69z"/>
		<path style="fill:#241726;" d="M342.326,202.473c-0.606,0-1.098-0.488-1.105-1.094c-0.006-0.611,0.483-1.109,1.094-1.116    l17.886-0.17c0.613-0.004,1.109,0.485,1.116,1.094c0.006,0.611-0.483,1.109-1.094,1.116l-17.886,0.171H342.326z"/>
	</g>
	<g>
		<path style="fill:#241726;" d="M90.675,463.626h-0.006c-0.611-0.004-1.103-0.501-1.098-1.111l0.11-18.596    c0.004-0.611,0.503-1.102,1.111-1.098c0.611,0.004,1.103,0.501,1.098,1.111l-0.11,18.596    C91.776,463.136,91.281,463.626,90.675,463.626z"/>
		<path style="fill:#241726;" d="M83.178,459.566c-0.347,0-0.691-0.164-0.906-0.473c-0.35-0.501-0.227-1.189,0.274-1.539    l15.357-10.706c0.494-0.345,1.187-0.229,1.539,0.274c0.35,0.501,0.227,1.189-0.274,1.539L83.81,459.368    C83.618,459.502,83.398,459.566,83.178,459.566z"/>
		<path style="fill:#241726;" d="M96.661,460.348c-0.294,0-0.585-0.117-0.803-0.345l-11.611-12.269    c-0.419-0.442-0.399-1.144,0.043-1.562c0.445-0.421,1.142-0.397,1.562,0.043l11.611,12.269c0.419,0.442,0.399,1.144-0.043,1.562    C97.207,460.248,96.933,460.348,96.661,460.348z"/>
		<path style="fill:#241726;" d="M81.078,454.13c-0.606,0-1.098-0.488-1.105-1.094c-0.006-0.611,0.483-1.109,1.094-1.116    l17.886-0.17c0.613-0.004,1.109,0.485,1.116,1.094c0.006,0.611-0.483,1.109-1.094,1.116l-17.886,0.17H81.078z"/>
	</g>
	<g>
		<path style="fill:#FFFFFF;" d="M23.062,296.135c0,0-2.181-16.553,13.753-11.197c15.933,5.356,10.741,20.511,4.667,15.325    s5.323-22.776,17.515-14.944c12.192,7.832,9.465,23.03,0.817,24.152s5.235-17.696,16.13-6.074s-12.892,32.809-22.619,25.019    c-9.728-7.79-2.115-20.363,0.219-12.7c2.334,7.663-3.959,15.177-21.212,14.88c-17.253-0.297-9.4-26.84-3.369-19.114    s-3.981,16.447-16.152,7.344C0.639,309.724,14.523,290.907,23.062,296.135z"/>
		<path style="fill:#241726;" d="M33.314,331.709l-1.004-0.009c-5.654-0.097-9.636-2.994-11.037-7.987    c-2.976-0.376-6.114-1.749-9.127-4.002c-4.769-3.566-6.384-8.98-4.431-14.852c2.376-6.687,8.257-11.911,14.138-10.454    c-0.022-2.304,0.335-6.225,2.67-8.888c2.611-2.979,6.912-3.552,12.642-1.626c2.21,0.743,4.148,1.708,5.773,2.875    c9.583-10.807,25.022-0.048,25.384,11.727c3.093,0.087,5.926,1.483,8.427,4.15c3.39,3.617,4.016,8.478,1.759,13.687    c-3.431,7.922-12.802,14.872-20.053,14.872c-2.27,0.001-4.23-0.646-5.823-1.922c-0.76-0.609-1.448-1.268-2.055-1.967    C46.77,330.192,40.838,331.709,33.314,331.709z M23.616,323.8c0.986,2.789,3.323,5.598,8.734,5.691l0.965,0.009    c8.673,0,13.411-2.034,15.953-3.967c-2.428-3.931-2.242-8.226-0.891-10.888c1.658-3.103,4.737-3.71,6.224,0.75    c1.17,3.838,0.302,7.59-2.374,10.444c0.524,0.608,1.124,1.183,1.789,1.716c1.191,0.953,2.685,1.437,4.441,1.436    c6.364,0,14.956-6.454,18.027-13.54c1.332-3.077,2.182-7.535-1.347-11.298c-2.076-2.216-4.385-3.376-6.867-3.451    c-0.52,5.292-3.831,9.284-8.313,9.866c-2.926,0.374-3.895-1.148-3.952-2.563c-0.127-3.117,4.366-8.357,10.115-9.352    c-0.209-4.817-3.043-9.399-7.722-12.403c-4.595-2.956-9.873-2.079-13.749,1.925c3.764,3.582,4.463,7.989,3.414,10.931    c-0.734,2.051-2.303,3.326-4.096,3.327h-0.002c-1.075,0-2.182-0.46-3.2-1.329c-3.354-2.863-2.268-8.452,0.76-12.634    c-1.42-0.997-3.118-1.831-5.061-2.484c-4.815-1.62-8.266-1.303-10.277,0.987c-2.765,3.153-2.037,8.958-2.029,9.017    c0.054,0.423-0.138,0.839-0.494,1.072c-0.358,0.231-0.816,0.237-1.178,0.015c-5.088-2.638-10.519,2.594-12.672,8.479    c-1.632,4.911-0.3,9.426,3.66,12.385c2.456,1.838,4.97,3.019,7.355,3.466c-0.49-4.287,0.822-8.464,2.551-10.611    c2.049-2.288,4.125-2.693,6.455,0.006c2.141,2.745,2.629,5.84,1.334,8.492C29.889,321.911,27.034,323.599,23.616,323.8z     M51.488,314.436c-0.203,0-0.693,0.328-1.142,1.21c-0.988,1.948-1.15,5.252,0.576,8.339c1.901-2.229,2.458-5.007,1.562-7.946    C52.129,314.87,51.684,314.436,51.488,314.436z M26.631,311.178c-0.464,0-1.01,0.356-1.532,1.005    c-1.472,1.829-2.553,5.736-2.016,9.426c2.799-0.044,5.128-1.294,6.099-3.282c0.909-1.864,0.511-4.11-1.092-6.164    C27.74,311.713,27.203,311.178,26.631,311.178z M66.021,300.924c-4.633,1.028-7.877,5.283-7.808,6.993    c-0.13,0.459,0.822,0.582,1.459,0.459C62.988,307.946,65.475,304.958,66.021,300.924z M43.229,289.877    c-2.611,3.64-3.112,7.768-1.032,9.545c1.578,1.346,3.103,0.849,3.783-1.06C46.777,296.137,46.185,292.753,43.229,289.877z"/>
	</g>
	<g>
		<path style="fill:#FFFFFF;" d="M335.312,35.735c0,0-2.181-16.553,13.753-11.197c15.933,5.356,10.741,20.511,4.667,15.325    s5.323-22.776,17.515-14.943c12.192,7.832,9.465,23.03,0.817,24.152c-8.648,1.122,5.235-17.696,16.13-6.074    s-12.892,32.809-22.619,25.019s-2.115-20.363,0.219-12.7s-3.959,15.177-21.212,14.88s-9.4-26.84-3.369-19.114    c6.031,7.726-3.981,16.447-16.152,7.344S326.773,30.506,335.312,35.735z"/>
		<path style="fill:#241726;" d="M345.561,71.309l-0.999-0.009c-5.656-0.097-9.636-2.994-11.039-7.987    c-2.976-0.376-6.114-1.749-9.127-4.002c-4.769-3.567-6.384-8.981-4.431-14.854c2.378-6.685,8.258-11.909,14.14-10.452    c-0.022-2.304,0.335-6.225,2.67-8.889c2.611-2.973,6.906-3.551,12.64-1.625c2.21,0.743,4.148,1.708,5.773,2.876    c4.604-4.877,11.126-6.021,16.656-2.377c5.268,3.386,8.466,8.591,8.73,14.103c3.093,0.087,5.926,1.482,8.425,4.149    c3.393,3.618,4.018,8.479,1.761,13.688c-3.431,7.921-12.804,14.87-20.055,14.87c-2.27,0.001-4.23-0.646-5.823-1.922    c-0.76-0.609-1.448-1.268-2.055-1.967C359.019,69.792,353.084,71.309,345.561,71.309z M335.867,63.4    c0.984,2.789,3.323,5.598,8.734,5.691l0.96,0.009c8.676,0,13.413-2.035,15.957-3.968c-2.43-3.93-2.244-8.226-0.891-10.887    c1.658-3.104,4.734-3.711,6.224,0.748c1.168,3.839,0.302,7.591-2.374,10.445c0.522,0.608,1.122,1.183,1.787,1.716    c1.191,0.953,2.685,1.437,4.441,1.436c6.366,0,14.958-6.453,18.027-13.539c1.334-3.077,2.184-7.536-1.345-11.299    c-2.076-2.215-4.387-3.375-6.867-3.451c-0.52,5.293-3.831,9.284-8.313,9.866c-2.896,0.387-3.895-1.146-3.954-2.562    c-0.125-3.117,4.368-8.357,10.115-9.352c-0.209-4.817-3.041-9.399-7.72-12.404c-4.597-2.956-9.873-2.08-13.751,1.927    c3.764,3.582,4.465,7.988,3.414,10.93c-0.732,2.051-2.301,3.326-4.094,3.327c-0.002,0-0.002,0-0.002,0    c-1.075,0-2.182-0.46-3.2-1.329c-3.354-2.862-2.27-8.452,0.758-12.634c-1.42-0.997-3.118-1.831-5.061-2.484    c-4.817-1.62-8.266-1.304-10.275,0.987c-2.765,3.152-2.037,8.958-2.029,9.017c0.054,0.423-0.138,0.84-0.494,1.072    c-0.358,0.233-0.816,0.237-1.178,0.015c-5.087-2.638-10.521,2.594-12.672,8.478c-0.773,2.323-1.964,8.181,3.658,12.386    c2.456,1.838,4.972,3.019,7.355,3.466c-0.49-4.287,0.822-8.464,2.551-10.611c2.048-2.289,4.128-2.694,6.457,0.005    c2.141,2.745,2.629,5.841,1.334,8.493C342.14,61.511,339.285,63.199,335.867,63.4z M363.739,54.034    c-0.205,0-0.695,0.329-1.142,1.211c-0.991,1.948-1.152,5.252,0.574,8.339c1.901-2.23,2.46-5.008,1.565-7.947    C364.38,54.47,363.935,54.034,363.739,54.034z M338.882,50.777c-0.466,0-1.01,0.357-1.532,1.006    c-1.474,1.829-2.553,5.736-2.016,9.426c2.799-0.044,5.128-1.294,6.099-3.284c0.909-1.864,0.511-4.11-1.092-6.164    C339.991,51.312,339.453,50.777,338.882,50.777z M378.269,40.522c-4.631,1.029-7.877,5.284-7.808,6.993    c-0.129,0.459,0.823,0.582,1.461,0.461C375.237,47.546,377.725,44.557,378.269,40.522z M355.477,29.477    c-2.611,3.64-3.11,7.768-1.029,9.545c1.573,1.341,3.097,0.85,3.783-1.059C359.025,35.738,358.436,32.354,355.477,29.477z"/>
	</g>
	<g>
		<path style="fill:#FFFFFF;" d="M422.969,199.099c0,0-2.181-16.553,13.753-11.197c15.933,5.356,10.741,20.511,4.667,15.325    c-6.074-5.186,5.323-22.776,17.515-14.943c12.192,7.832,9.465,23.03,0.817,24.152c-8.648,1.122,5.235-17.696,16.13-6.074    c10.894,11.621-12.892,32.809-22.619,25.019c-9.728-7.79-2.115-20.363,0.219-12.7c2.334,7.663-3.959,15.177-21.212,14.88    s-9.4-26.84-3.369-19.114c6.031,7.726-3.981,16.447-16.152,7.344S414.43,193.871,422.969,199.099z"/>
		<path style="fill:#241726;" d="M433.217,234.674l-0.999-0.009c-5.654-0.097-9.636-2.995-11.037-7.987    c-2.976-0.377-6.114-1.75-9.127-4.003c-4.769-3.566-6.384-8.98-4.431-14.852c2.376-6.687,8.257-11.908,14.138-10.454    c-0.022-2.304,0.335-6.224,2.672-8.888c2.607-2.974,6.908-3.552,12.64-1.626c2.21,0.743,4.148,1.708,5.773,2.876    c4.604-4.876,11.127-6.019,16.654-2.376c5.268,3.385,8.468,8.59,8.73,14.102c3.093,0.087,5.926,1.483,8.427,4.15    c3.39,3.618,4.016,8.479,1.759,13.688c-3.431,7.921-12.802,14.87-20.053,14.87c-2.27,0.001-4.23-0.646-5.823-1.922    c-0.76-0.609-1.448-1.268-2.055-1.967C446.677,233.157,440.742,234.674,433.217,234.674z M423.523,226.763    c0.986,2.789,3.324,5.599,8.734,5.692l0.96,0.009c8.676,0,13.415-2.035,15.957-3.968c-2.428-3.93-2.242-8.225-0.891-10.887    c1.659-3.104,4.736-3.711,6.224,0.749c1.17,3.838,0.302,7.59-2.374,10.444c0.524,0.608,1.124,1.183,1.789,1.716    c1.191,0.953,2.685,1.437,4.441,1.436c6.364,0,14.956-6.453,18.025-13.539c1.334-3.077,2.184-7.536-1.345-11.299    c-2.076-2.216-4.385-3.376-6.867-3.451c-0.52,5.292-3.831,9.284-8.313,9.866c-0.304,0.039-0.585,0.057-0.844,0.057l0,0    c-2.214,0-3.058-1.353-3.11-2.619c-0.125-3.117,4.368-8.358,10.117-9.353c-0.209-4.817-3.043-9.399-7.722-12.403    c-4.597-2.956-9.876-2.079-13.749,1.926c3.764,3.582,4.463,7.989,3.414,10.931c-0.734,2.051-2.303,3.326-4.096,3.327h-0.002    c-1.075,0-2.182-0.46-3.2-1.329c-3.352-2.863-2.268-8.452,0.76-12.634c-1.42-0.998-3.118-1.832-5.061-2.485    c-4.815-1.621-8.263-1.303-10.277,0.988c-2.765,3.152-2.037,8.958-2.029,9.017c0.054,0.423-0.138,0.84-0.494,1.072    c-0.358,0.232-0.818,0.238-1.178,0.015c-5.088-2.638-10.519,2.594-12.672,8.478c-0.773,2.323-1.962,8.181,3.66,12.385    c2.456,1.838,4.97,3.019,7.355,3.467c-0.49-4.288,0.822-8.465,2.551-10.611c2.048-2.288,4.125-2.695,6.455,0.005    c2.141,2.745,2.629,5.841,1.334,8.492C429.796,224.876,426.941,226.564,423.523,226.763z M451.395,217.399    c-0.203,0-0.693,0.329-1.142,1.211c-0.988,1.948-1.15,5.252,0.576,8.339c1.901-2.23,2.458-5.008,1.562-7.947    C452.038,217.834,451.591,217.399,451.395,217.399z M426.54,214.142c-0.466,0-1.012,0.357-1.534,1.006    c-1.472,1.828-2.553,5.736-2.016,9.426c2.799-0.045,5.128-1.295,6.099-3.284c0.909-1.864,0.511-4.11-1.092-6.164    C427.647,214.677,427.11,214.142,426.54,214.142z M465.928,203.887c-4.633,1.029-7.877,5.284-7.808,6.993    c0.009,0.21,0.019,0.499,0.9,0.499l0,0c0.171,0,0.358-0.013,0.559-0.039C462.895,210.91,465.382,207.922,465.928,203.887z     M443.136,192.841c-2.611,3.641-3.112,7.769-1.029,9.546c1.573,1.345,3.101,0.847,3.781-1.06    C446.684,199.102,446.092,195.718,443.136,192.841z"/>
	</g>
	<g>
		<path style="fill:#241726;" d="M230.063,96.6c-1.541,0-5.031-3.689-10.385-10.973c-6.658,6.604-10.674,9.95-11.941,9.951l0,0    c-0.35,0-0.824-0.224-1.032-0.503c-0.712-0.951-1.921-7.037-2.708-11.367c-3.615,1.405-13.21,5.04-15.821,5.04    c-1.338,0-1.588-0.873-1.632-1.142c-0.242-1.448,2.119-9.978,3.449-14.6c-14.815-3.711-15.057-5.151-15.174-5.853    c-0.104-0.624-0.339-2.05,10.32-10.052c-4.528-2.714-12.072-7.736-11.567-10.766c0.505-3.028,8.509-5.414,13.16-6.552    c-7.45-14.076-6.509-14.783-5.747-15.353c0.382-0.287,0.868-0.326,1.291-0.326c2.454,0,10.152,1.8,13.279,2.556    c0.533-15.2,1.424-15.422,2.285-15.639c1.586-0.158,5.896,2.74,14.852,8.553c4.244-13.656,4.923-13.472,6.533-13.246    c0.451,0.181,1.621,0.651,6.401,12.925c3.768-1.796,11.274-6.446,14.136-5.654c0.656,0.328,2.154,1.077-0.529,12.387    c2.87-0.394,8.85-1.15,12.465-1.15c1.455,0,3.891,0,3.891,1.725c0,1.628-3.28,8.234-5.233,12.023    c5.743,1.627,12.142,3.786,12.877,5.501c0.317,0.741,1.047,2.443-10.823,11.136c4.521,3.155,10.631,8.017,9.876,10.793    c-0.747,2.74-9.317,4.718-15.316,5.777c2.305,4.271,5.246,10.418,4.262,12.386c-0.572,1.143-2.216,1.297-3.749,1.297    c-3.544,0-9.2-1.055-11.464-1.507c-1.146,3.459-3.744,11.016-4.951,12.221C230.805,96.454,230.447,96.6,230.063,96.6L230.063,96.6    z M219.812,82.83c0.028,0,0.058,0.001,0.086,0.003c0.324,0.026,0.617,0.191,0.807,0.453c3.321,4.575,7.482,9.692,9.092,10.886    c0.906-1.691,2.89-7.109,4.428-11.828c0.177-0.535,0.725-0.856,1.282-0.737c-0.046-0.048,10.303,2.294,13.754,1.477    c0.095-1.435-2.428-7.024-4.972-11.583c-0.175-0.314-0.188-0.695-0.03-1.019c0.155-0.324,0.462-0.551,0.816-0.61    c7.605-1.247,14.513-3.292,15.087-4.464c0.071-1.158-4.731-5.5-10.286-9.245c-0.63-0.399-0.646-1.394-0.028-1.813    c4.892-3.523,10.352-8.009,11.207-9.529c-1.198-0.933-7.31-3.02-12.601-4.473c-0.322-0.088-0.587-0.317-0.719-0.624    c-0.134-0.306-0.121-0.657,0.032-0.953c2.389-4.57,4.877-9.764,5.477-11.649c-4.196-0.428-15.151,1.282-15.31,1.281    c-0.373,0.057-0.734-0.077-0.982-0.351c-0.248-0.273-0.343-0.652-0.255-1.01c1.129-4.512,2.08-9.897,1.867-11.438    c-1.735,0.349-8.533,3.745-12.985,6.188c-0.278,0.153-0.611,0.178-0.911,0.069c-0.3-0.11-0.537-0.343-0.652-0.641    c-1.817-4.724-4.098-10.086-5.259-12.148c-1.051,2.11-2.939,7.675-4.372,12.561c-0.097,0.338-0.352,0.608-0.682,0.727    c-0.328,0.123-0.699,0.078-0.991-0.119c-5.54-3.694-11.74-7.619-13.972-8.751c-0.425,2.268-0.837,8.751-1.023,14.601    c-0.011,0.335-0.173,0.645-0.438,0.847c-0.268,0.2-0.609,0.272-0.934,0.19c-2.92-0.729-10.62-2.544-13.516-2.788    c0.723,2.274,3.671,8.326,6.526,13.667c0.162,0.304,0.173,0.667,0.03,0.981c-0.145,0.313-0.425,0.542-0.762,0.618    c-6.535,1.48-12.67,3.906-12.873,5.09c-0.045,1.275,5.529,5.642,11.934,9.338c0.678,0.367,0.739,1.406,0.104,1.845    c-4.39,3.247-9.323,7.28-10.549,8.827c1.832,1.004,8.55,2.991,14.397,4.43c0.294,0.071,0.544,0.26,0.693,0.52    c0.151,0.261,0.19,0.572,0.106,0.861c-1.603,5.511-3.226,11.638-3.619,13.94c2.929-0.503,10.853-3.407,15.62-5.299    c0.624-0.263,1.394,0.162,1.496,0.834c0.777,4.365,1.759,9.187,2.309,11.071c1.742-1.232,6.679-5.804,10.788-9.912    C219.238,82.946,219.521,82.83,219.812,82.83z"/>
		<path style="fill:#E4B900;" d="M246.552,53.491c0,15.663-12.698,28.361-28.361,28.361c-37.58-1.39-37.57-55.338,0-56.723    C233.854,25.13,246.552,37.827,246.552,53.491z"/>
		<g>
			<path style="fill:#FFFFFF;" d="M220.362,33.95c0,0,4.116,0.837,4.715,2.85"/>
			<path style="fill:#241726;" d="M225.078,37.905c-0.477,0-0.915-0.31-1.06-0.789c-0.268-0.899-2.424-1.788-3.876-2.084     c-0.598-0.121-0.984-0.705-0.863-1.302c0.123-0.598,0.719-0.98,1.303-0.862c0.796,0.162,4.804,1.096,5.555,3.616     c0.173,0.585-0.16,1.201-0.745,1.375C225.287,37.89,225.181,37.905,225.078,37.905z"/>
		</g>
		<g>
			<path style="fill:#FFFFFF;" d="M223.706,42.673c0,0,4.116,0.837,4.715,2.85"/>
			<path style="fill:#241726;" d="M228.421,46.628c-0.477,0-0.917-0.311-1.06-0.79c-0.265-0.899-2.421-1.787-3.876-2.083     c-0.598-0.121-0.984-0.705-0.863-1.302c0.123-0.598,0.716-0.984,1.303-0.862c0.796,0.162,4.806,1.096,5.555,3.617     c0.173,0.586-0.16,1.201-0.745,1.375C228.63,46.613,228.524,46.628,228.421,46.628z"/>
		</g>
		<g>
			<path style="fill:#FFFFFF;" d="M233.06,42.584c0,0,3.907,1.542,4.147,3.628"/>
			<path style="fill:#241726;" d="M237.204,47.317c-0.552,0-1.032-0.415-1.096-0.979c-0.106-0.932-2.074-2.183-3.453-2.728     c-0.568-0.223-0.846-0.865-0.622-1.433c0.224-0.57,0.868-0.845,1.433-0.622c0.755,0.298,4.539,1.917,4.839,4.53     c0.069,0.606-0.367,1.155-0.973,1.224C237.291,47.315,237.247,47.317,237.204,47.317z"/>
		</g>
		<g>
			<path style="fill:#FFFFFF;" d="M213,40.395c0,0,4.116,0.837,4.715,2.85"/>
			<path style="fill:#241726;" d="M217.714,44.35c-0.477,0-0.917-0.311-1.06-0.79c-0.265-0.899-2.421-1.787-3.876-2.083     c-0.598-0.121-0.984-0.705-0.863-1.302c0.123-0.598,0.719-0.985,1.303-0.862c0.796,0.162,4.806,1.096,5.555,3.617     c0.173,0.586-0.16,1.201-0.745,1.375C217.924,44.335,217.818,44.35,217.714,44.35z"/>
		</g>
		<g>
			<path style="fill:#FFFFFF;" d="M208.15,33.426c0,0,4.199-0.111,5.236,1.716"/>
			<path style="fill:#241726;" d="M213.385,36.246c-0.384,0-0.757-0.201-0.96-0.56c-0.481-0.847-2.827-1.195-4.247-1.156     c-0.542,0.056-1.118-0.468-1.133-1.077c-0.015-0.61,0.466-1.117,1.077-1.133c0.788-0.012,4.927-0.011,6.224,2.276     c0.302,0.531,0.117,1.205-0.414,1.506C213.759,36.2,213.571,36.246,213.385,36.246z"/>
		</g>
	</g>
	<g>
		<path style="fill:#52AFA6;" d="M37.95,138.261c0,0-9.14-3.958-23.128,2.508S1.81,171.202,1.81,171.202    c24.073,6.879,40.953-0.859,40.288-28.639c0,0,13.387,8.803,22.088,1.049c0,0-12.249-11.817-19.367-7.719    c0,0,3.71-7.41-5.277-19.818C39.543,116.075,30.448,121.654,37.95,138.261z"/>
		<path style="fill:#241726;" d="M27.544,165.36c-0.486,0-0.93-0.32-1.064-0.81c-3.265-11.801-15.595-13.043-16.117-13.09    c-0.609-0.055-1.057-0.591-1.004-1.198c0.056-0.609,0.611-1.049,1.196-1.004c0.145,0.012,14.373,1.403,18.053,14.702    c0.164,0.588-0.181,1.197-0.768,1.36C27.74,165.347,27.641,165.36,27.544,165.36z"/>
		<path style="fill:#241726;" d="M10.961,163.875c-2.29,0-5.143-1.751-5.79-2.168c-0.511-0.331-0.658-1.014-0.328-1.527    c0.33-0.511,1.019-0.66,1.526-0.331c1.774,1.142,4.215,2.113,5.022,1.752c0.004-0.391-1.07-2.401-2.335-3.99    c-0.38-0.477-0.3-1.173,0.177-1.553c0.481-0.376,1.174-0.303,1.554,0.178c0.736,0.925,3.097,4.093,2.631,6.029    c-0.145,0.61-0.542,1.089-1.111,1.348C11.899,163.797,11.442,163.875,10.961,163.875z"/>
		<path style="fill:#241726;" d="M8.47,173.477c-0.229,0-0.438-0.022-0.619-0.059c-0.598-0.122-0.984-0.705-0.863-1.302    c0.123-0.596,0.701-0.961,1.286-0.866c0.246,0.04,2.266,0.237,3.449-3.441c0.186-0.581,0.809-0.898,1.39-0.714    c0.581,0.187,0.9,0.809,0.712,1.39C12.547,172.467,10.037,173.477,8.47,173.477z"/>
		<path style="fill:#241726;" d="M34.488,160.155c-0.319,0-0.639-0.139-0.857-0.408c-0.384-0.474-0.313-1.17,0.16-1.555    c1.88-1.529,4.4-4.451,3.841-5.864c-0.054-0.136-0.136-0.245-0.356-0.329c-1.209-0.458-4.191,0.549-5.922,1.415    c-0.455,0.224-1.01,0.114-1.34-0.276c-0.328-0.391-0.347-0.956-0.043-1.367c2.141-2.912,3.326-5.899,2.879-6.432    c-0.654-0.264-3.418,1.46-5.669,3.543c-0.406,0.372-1.023,0.392-1.446,0.046c-0.427-0.345-0.535-0.953-0.255-1.424    c0.805-1.348,2.594-5.271,1.247-7.216c-0.166-0.243-0.341-0.231-0.408-0.257c-1.232,0-3.68,2.567-4.949,4.309    c-0.363,0.493-1.055,0.601-1.545,0.241c-0.492-0.359-0.6-1.051-0.242-1.544c0.641-0.876,4.068-5.299,6.772-5.215    c0.891,0.011,1.649,0.429,2.188,1.209c1.133,1.635,1.014,3.739,0.535,5.566c1.301-0.842,2.758-1.537,3.863-1.456    c0.652,0.041,1.204,0.31,1.599,0.778c1.232,1.469,0.257,4.107-0.919,6.248c1.498-0.436,3.203-0.706,4.441-0.23    c0.768,0.294,1.329,0.84,1.623,1.58c1.379,3.484-3.895,7.901-4.502,8.393C34.98,160.074,34.734,160.155,34.488,160.155z"/>
	</g>
	<g>
		<path style="fill:#52AFA6;" d="M374.869,478.172c0,0,1.076-9.902,13.611-18.866c12.534-8.964,32.887,3.729,32.887,3.729    c-5.917,24.327-20.987,35.177-44.809,20.869c0,0,1.036,15.988-10.004,19.72c0,0-4.219-16.488,2.861-20.651    c0,0-8.276-0.437-14.621-14.382C354.795,468.591,364.14,463.442,374.869,478.172z"/>
		<path style="fill:#241726;" d="M402.609,483.076c-0.283,0-0.568-0.108-0.783-0.325c-9.74-9.772-3.917-22.83-3.857-22.96    c0.255-0.551,0.909-0.793,1.463-0.544c0.555,0.254,0.798,0.909,0.546,1.463c-0.218,0.479-5.231,11.81,3.414,20.48    c0.429,0.433,0.429,1.132-0.004,1.562C403.174,482.968,402.891,483.076,402.609,483.076z"/>
		<path style="fill:#241726;" d="M408.427,468.79c-0.188,0-0.376-0.027-0.565-0.081c-1.912-0.551-3.5-4.173-3.941-5.269    c-0.227-0.566,0.047-1.21,0.613-1.437c0.557-0.227,1.211,0.044,1.437,0.613c0.76,1.884,1.975,3.813,2.503,3.97    c0.596-0.536,0.872-3.371,0.77-5.199c-0.035-0.609,0.432-1.131,1.04-1.164c0.669-0.024,1.133,0.433,1.165,1.041    c0.052,0.929,0.207,5.64-1.869,7.143C409.234,468.66,408.837,468.79,408.427,468.79z"/>
		<path style="fill:#241726;" d="M415.18,472.37c-0.637,0-1.34-0.072-2.115-0.234c-0.598-0.125-0.98-0.71-0.855-1.308    c0.123-0.598,0.716-0.978,1.308-0.855c3.947,0.827,4.683-1.259,4.69-1.279c0.192-0.581,0.814-0.897,1.394-0.707    c0.581,0.189,0.898,0.814,0.708,1.393C419.932,470.535,418.408,472.37,415.18,472.37z"/>
		<path style="fill:#241726;" d="M389.327,487.665c-1.496,0-2.924-0.352-3.794-1.434c-0.499-0.619-0.697-1.377-0.572-2.189    c0.201-1.312,1.275-2.663,2.393-3.748c-2.441-0.036-5.216-0.492-5.883-2.29c-0.214-0.573-0.175-1.187,0.112-1.774    c0.496-1.016,1.802-1.922,3.175-2.639c-1.824-0.487-3.712-1.422-4.575-3.217c-0.41-0.855-0.397-1.718,0.032-2.498    c1.355-2.449,6.802-3.186,7.881-3.309c0.591-0.074,1.155,0.364,1.224,0.972c0.069,0.605-0.367,1.154-0.973,1.223    c-2.149,0.247-5.605,1.113-6.198,2.184c-0.056,0.103-0.097,0.216,0.028,0.473c1.023,2.13,5.454,2.511,6.887,2.482    c0.542-0.03,1.025,0.381,1.116,0.923c0.091,0.543-0.231,1.068-0.755,1.236c-3.205,1.021-5.792,2.562-5.879,3.206    c0.242,0.624,3.423,1.072,7.012,0.647c0.507-0.055,0.988,0.234,1.165,0.714c0.177,0.478,0.004,1.015-0.421,1.3    c-1.61,1.082-3.962,3.178-4.157,4.45c-0.035,0.233,0.019,0.357,0.11,0.47c0.954,1.189,4.739,0.442,6.994-0.438    c1.325-0.543,2.147,1.559,0.803,2.059C394.595,486.646,391.87,487.665,389.327,487.665z"/>
	</g>
	<g>
		<g>
			<path style="fill:#FFFFFF;" d="M431.078,103.95c0,0-8.051,4.536-7.769,7.127s11.293,20.742,12.952,20.2     c1.659-0.542,11.162-6.682,11.162-6.682L431.078,103.95z"/>
			<path style="fill:#241726;" d="M436.182,132.394L436.182,132.394c-3.006-0.001-13.741-19.065-13.972-21.198     c-0.324-2.992,5.715-6.738,8.326-8.208c0.468-0.268,1.068-0.15,1.407,0.276l16.346,20.646c0.194,0.245,0.276,0.559,0.224,0.866     c-0.05,0.308-0.229,0.578-0.49,0.748c-1.608,1.038-9.712,6.246-11.419,6.803C436.495,132.364,436.299,132.394,436.182,132.394z      M430.806,105.387c-3.535,2.113-6.496,4.665-6.399,5.572c0.216,1.982,9.312,17.262,11.82,19.141     c1.5-0.698,6.194-3.613,9.573-5.774L430.806,105.387z"/>
		</g>
		<path style="fill:#D45A41;" d="M450.955,81.36c0,0-12.986-14.682-33.072,0.563c-13.699,10.397,6.531,8.105,11.327,15.223    S450.955,81.36,450.955,81.36z"/>
		<path style="fill:#D45A41;" d="M474.374,118.046c0,0,5.829,18.713-17.617,27.995c-15.99,6.33-3.549-9.785-7.152-17.575    S474.374,118.046,474.374,118.046z"/>
		<g>
			<path style="fill:#FFFFFF;" d="M424.464,98.066c0,0,18.172,31.977,22.948,35.572c4.775,3.595,47.502-27.941,40.106-47.343     C477.452,59.89,423.977,94.412,424.464,98.066z"/>
			<path style="fill:#241726;" d="M448.479,135.025L448.479,135.025c-0.706,0-1.288-0.17-1.733-0.505     c-4.901-3.69-22.496-34.596-23.243-35.909c-0.071-0.123-0.117-0.259-0.134-0.4c-0.082-0.606,0.203-1.242,0.919-2.062     c6.125-7.094,54.019-36.2,64.26-10.249c2.249,5.895,0.477,13.108-5.266,21.44C473.446,121.616,454.397,135.025,448.479,135.025z      M425.661,97.937c5.21,9.141,18.707,32.025,22.414,34.818c5.262,0.362,23.22-12.203,33.388-26.669     c3.647-5.292,7.478-12.953,5.022-19.398C476.883,62.473,428.291,93.476,425.661,97.937z"/>
		</g>
		<path style="fill:#D45A41;" d="M480.712,111.594c0,0-21.663-31.813-21.646-34.572c0.017-2.759,26.585-6.591,32.138,3.266    C498.428,93.11,482.463,109.822,480.712,111.594z"/>
		<g>
			<path style="fill:#FFFFFF;" d="M460.61,114.533c-14.36,7.617-26.049-13.137-12.095-21.468     C462.874,85.447,474.563,106.201,460.61,114.533z"/>
			<path style="fill:#241726;" d="M454.574,117.226c-4.847,0-9.334-2.62-11.708-6.838c-3.634-6.448-1.344-14.653,5.106-18.287     c6.241-3.665,14.85-1.249,18.286,5.108c3.673,6.213,1.254,14.874-5.106,18.286C459.142,116.627,456.868,117.226,454.574,117.226z      M454.55,92.58c-1.914,0-3.816,0.501-5.495,1.446c-5.313,2.852-7.331,10.086-4.264,15.277c2.872,5.31,10.061,7.329,15.277,4.267     c5.313-2.851,7.331-10.085,4.264-15.276C462.347,94.77,458.599,92.58,454.55,92.58z"/>
		</g>
		<path style="fill:#D45A41;" d="M428.261,127.536c0,0,6.119,5.98-2.003,15.27c-8.122,9.29-35.436,5.431-35.756,2.075    c-0.319-3.355-0.446-24.496,12.321-29.725C415.59,109.927,419.769,113.858,428.261,127.536z"/>
		<path style="fill:#DFB500;" d="M423.942,126.516c0,0,3.148,3.076-1.03,7.855c-4.178,4.779-18.228,2.794-18.393,1.068    s-0.229-12.601,6.338-15.291C417.425,117.458,419.574,119.48,423.942,126.516z"/>
		<g>
			<path style="fill:#FFFFFF;" d="M460.178,100.519c0,0,4.683,4.825-0.777,9.08"/>
			<path style="fill:#241726;" d="M459.401,110.703c-0.328,0-0.654-0.146-0.872-0.425c-0.376-0.481-0.289-1.176,0.192-1.552     c1.379-1.075,2.124-2.262,2.21-3.527c0.147-2.103-1.53-3.893-1.545-3.911c-0.425-0.438-0.414-1.137,0.022-1.562     c0.442-0.426,1.142-0.412,1.562,0.024c0.099,0.1,2.383,2.493,2.167,5.601c-0.134,1.92-1.161,3.642-3.056,5.119     C459.878,110.627,459.639,110.703,459.401,110.703z"/>
		</g>
		<path style="fill:#241726;" d="M482.474,100.06c-0.289,0-0.578-0.113-0.794-0.338c-0.425-0.438-0.412-1.138,0.026-1.561    c5.395-5.212,4.48-13.481,4.472-13.564c-0.073-0.606,0.36-1.156,0.967-1.228c0.563-0.08,1.152,0.359,1.226,0.967    c0.047,0.383,1.047,9.449-5.128,15.413C483.026,99.957,482.75,100.06,482.474,100.06z"/>
	</g>
	<g>
		<path style="fill:#F0D9B9;" d="M149.683,131.943c0,0,116.098-13.153,135.541,13.259c58.563,79.557,12.902,106.922,37.568,118.598    c46.076,21.811,61.004-2.075,103.129,21.731c43.235,24.433,35.359,89.501-2.21,123.755s-255.613,26.887-297.233-37.568    C75.487,292.747,105.958,139.735,149.683,131.943z"/>
		<path style="fill:#D45A41;" d="M195.285,265.664c0,0,12.152,16.408,36.328,10.191c24.176-6.218-21.007-32.253-21.007-32.253    S209.687,260.454,195.285,265.664z"/>
		<path style="fill:#F0D9B9;" d="M115.826,335.623c0,0-44.516,44.448-59.465,39.727s-0.787,34.619,23.604,35.406    s75.533-28.325,70.812-36.193S115.826,335.623,115.826,335.623z"/>
		<path style="fill:#F0D9B9;" d="M209.323,395.101c0,0-7.244,35.17-31.043,45.582c-12.178,5.328-24.869,21.183-9.133,25.117    c15.736,3.934,36.242,17.423,53.552,8.768s41.701-54.289,34.619-63.731C250.237,401.396,209.323,395.101,209.323,395.101z"/>
		<path style="fill:#F0D9B9;" d="M390.288,410.05c0,0,46.421,11.802,55.863,39.34c9.442,27.538,38.553-15.736,29.112-31.472    C441.789,364.087,420.934,364.189,390.288,410.05z"/>
		<path style="fill:#F0D9B9;" d="M418.057,351.266c0,0,42.646-1.321,57.507,19.931s29.133-22.96,17.177-34.108    C450.835,299.242,433.007,304.462,418.057,351.266z"/>
		<path style="fill:#E7800D;" d="M435.136,297.538c0,0,17.31-14.949,20.457-36.98s22.817,24.391,0,56.65    S435.136,297.538,435.136,297.538z"/>
		<path style="fill:#E7800D;" d="M186.515,128.996c0,0,21.184,127.426-86.365,121.533    C100.15,250.529,90.016,105.424,186.515,128.996z"/>
		<path style="fill:#E7800D;" d="M168.836,139.309c0,0-19.153-83.976-33.149-84.713c-13.996-0.737-36.832,20.626-35.359,59.668    c1.473,39.042,25.046,55.984,33.885,55.984S168.836,139.309,168.836,139.309z"/>
		<path style="fill:#E6A4A2;" d="M146,129.733c0,0-11.786-41.988-17.679-41.252c-5.893,0.737-21.362,27.256-2.21,53.774    C126.111,142.256,132.741,131.943,146,129.733z"/>
		<path style="fill:#1A1F36;" d="M250.013,209.855c2.703,11.507-13.47,18.557-19.849,7.78    C223.103,202.387,245.889,194.521,250.013,209.855z"/>
		<path style="fill:#E7800D;" d="M250.603,143.729c0,0,24.309-91.343,37.568-83.976c13.259,7.366,32.412,36.095,31.675,69.98    s-44.198,41.988-50.828,36.095S250.603,143.729,250.603,143.729z"/>
		<path style="fill:#E7800D;" d="M214.507,128.996c0,0-13.008,52.262-3.683,78.82s46.408,11.786,55.248,36.095    s47.881,12.523,47.881,12.523C327.931,181.583,306.793,120.99,214.507,128.996z"/>
		<path style="fill:#1A1F36;" d="M159.591,206.343c-0.282,11.124-16.588,11.122-16.869,0    C143.004,195.219,159.311,195.221,159.591,206.343z"/>
		<path style="fill:#1A1F36;" d="M242.319,207.176c-0.282,11.124-16.588,11.122-16.869,0    C225.732,196.052,242.038,196.054,242.319,207.176z"/>
		<path style="fill:#241726;" d="M140.419,321.867c-0.278,0-0.581-0.027-0.906-0.086c-6.351-1.154-12.826-13.751-16.071-21.027    c-0.272,3.863-1.107,8.642-3.5,10.269c-0.775,0.527-2.07,0.987-3.854,0.195c-3.315-1.474-19.639-10.551-15.381-44.609    c0.073-0.608,0.643-1.034,1.234-0.959c0.604,0.076,1.034,0.628,0.958,1.233c-4.064,32.51,11.021,40.953,14.086,42.315    c0.928,0.413,1.42,0.196,1.714-0.002c2.262-1.538,2.81-9.204,2.624-13.675c-0.022-0.541,0.35-1.018,0.881-1.128    c0.542-0.113,1.062,0.18,1.256,0.683c2.49,6.444,10.305,23.413,16.451,24.53c0.93,0.168,1.228-0.127,1.327-0.226    c1.224-1.209,0.423-5.966-0.056-8.808c-0.591-3.512-0.889-5.276,0.434-5.898c1.17-0.551,2.329,0.611,3.41,1.859    c7.86,9.072,11.483,9.422,12.947,8.832c2.903-1.183,3.166-7.989,3.03-10.281c-0.037-0.609,0.427-1.132,1.036-1.169    c0.675-0.028,1.135,0.428,1.17,1.036c0.065,1.065,0.49,10.465-4.4,12.46c-3.606,1.478-8.669-1.608-15.452-9.43    c-0.149-0.172-0.283-0.32-0.401-0.449c0.093,0.801,0.265,1.828,0.408,2.673c0.688,4.093,1.47,8.733-0.572,10.748    C142.34,321.398,141.589,321.867,140.419,321.867z"/>
		<g>
			<path style="fill:#1A1F36;" d="M176.202,215.919c0,0,24.664-9.908,31.935-0.639c7.271,9.269-12.241,25.254-17.861,24.445     C184.656,238.917,169.754,220.864,176.202,215.919z"/>
			<path style="fill:#241726;" d="M192.846,267.394c-2.475,0-5.011-0.891-7.579-2.67c-17.837-12.345-17.174-30.081-17.135-30.83     c0.028-0.608,0.494-1.068,1.157-1.048c0.609,0.029,1.079,0.547,1.049,1.156c-0.006,0.172-0.604,17.282,16.186,28.905     c3.306,2.288,6.349,2.845,9.308,1.71c9.925-3.812,15.087-25.229,15.139-25.445c0.138-0.591,0.719-0.958,1.329-0.822     c0.593,0.14,0.96,0.736,0.82,1.329C213.055,240.759,205.868,267.871,192.846,267.394z"/>
			<path style="fill:#241726;" d="M190.63,266.977c-0.587,0-1.075-0.461-1.103-1.052l-1.247-26.274     c-0.03-0.61,0.44-1.128,1.051-1.157c0.589-0.046,1.127,0.442,1.155,1.051l1.247,26.274c0.03,0.61-0.44,1.128-1.051,1.157     C190.665,266.977,190.647,266.977,190.63,266.977z"/>
		</g>
		<path style="fill:#E6A4A2;" d="M264.599,135.626c0,0,19.153-50.091,25.782-41.988c6.63,8.103,16.943,31.675-2.21,53.774    C288.171,147.412,271.228,135.626,264.599,135.626z"/>
		<path style="fill:#E7800D;" d="M445.074,381.662c0,0-29.998,1.671-51.565-13.259c-38.305-26.519-10.637,5.414-75.137-11.786    c-44.198-11.786-13.259-94.289-1.473-94.289c11.786,0,4.42,10.313,61.877,5.893C436.235,263.8,478.96,325.678,445.074,381.662z"/>
		<path style="fill:#241726;" d="M234.397,229.547c-0.255,0-0.511-0.087-0.719-0.267c-16.807-14.404-34.558-19.037-52.749-13.773    c-13.579,3.93-22.293,12.176-22.38,12.258c-0.44,0.426-1.139,0.406-1.562-0.032c-0.421-0.441-0.406-1.141,0.035-1.562    c0.358-0.346,36.558-34.165,78.093,1.433c0.464,0.397,0.518,1.094,0.121,1.557C235.016,229.417,234.707,229.547,234.397,229.547z"/>
		<path style="fill:#241726;" d="M284.493,312.009c-0.583,0-1.127-0.15-1.627-0.452c-3.449-2.075-2.626-10.889-2.428-12.634    c0.069-0.609,0.624-1.042,1.224-0.972c0.606,0.069,1.042,0.616,0.973,1.223c-0.427,3.756-0.285,9.494,1.37,10.49    c0.626,0.377,1.619-0.143,2.344-0.641c6.85-4.696,11.608-19.775,11.656-19.926c0.155-0.499,0.619-0.824,1.161-0.772    c0.52,0.05,0.934,0.458,0.993,0.978c0.721,6.471,2.519,12.562,3.772,12.779c0.106,0.009,0.915-0.36,1.992-2.576    c5.106-10.505-0.514-20.62-0.572-20.721c-0.278-0.49-0.142-1.111,0.313-1.442c0.462-0.333,1.094-0.263,1.468,0.154    c3.332,3.686,7.972,7.3,9.273,6.612c0.153-0.081,1.437-0.992-0.291-8.097c-3.828-15.754-6.746-17.111-7.096-17.217    c-0.486,0.135-1.029-0.088-1.271-0.562c-0.281-0.543-0.067-1.209,0.477-1.488c0.181-0.094,0.84-0.365,1.791,0.07    c2.769,1.266,5.542,7.549,8.248,18.675c1.489,6.128,1.226,9.488-0.824,10.573c-2.158,1.141-5.49-1.032-8.173-3.361    c1.224,4.31,1.985,10.894-1.357,17.771c-0.503,1.036-2.042,4.191-4.353,3.786c-2.646-0.456-4.15-5.784-4.957-10.281    c-2.005,5.086-5.881,13.359-10.998,16.868C286.47,311.62,285.429,312.009,284.493,312.009z"/>
		<path style="fill:#241726;" d="M222.864,266.155c-0.08,0-0.16-0.009-0.242-0.027c-0.637-0.142-15.614-3.573-18.251-10.167    c-0.227-0.567,0.047-1.21,0.615-1.436c0.565-0.227,1.209,0.049,1.435,0.616c1.832,4.58,12.666,7.927,16.684,8.831    c0.596,0.134,0.969,0.725,0.837,1.32C223.826,265.807,223.371,266.155,222.864,266.155z"/>
		<path style="fill:#241726;" d="M144.712,181.665c-0.149,0-0.3-0.03-0.445-0.094c-0.559-0.245-0.814-0.898-0.568-1.456    c0.125-0.284,3.108-6.939,7.912-7.305c2.693-0.206,5.389,1.638,7.845,5.499c0.328,0.515,0.175,1.198-0.339,1.526    c-0.509,0.325-1.193,0.179-1.526-0.339c-1.981-3.114-3.882-4.621-5.814-4.482c-2.9,0.221-5.354,4.4-6.053,5.991    C145.541,181.419,145.137,181.665,144.712,181.665z"/>
		<path style="fill:#241726;" d="M232.003,181.665c-0.166,0-0.335-0.038-0.494-0.117c-0.546-0.273-0.766-0.937-0.494-1.483    c0.492-1.012,5.159-9.912,10.711-9.65c2.911,0.121,5.376,2.652,7.325,7.524c0.553,1.322-1.541,2.16-2.05,0.82    c-1.098-2.743-2.92-6.035-5.367-6.137c-3.485-0.169-7.445,6.035-8.641,8.431C232.797,181.442,232.407,181.665,232.003,181.665z"/>
		<path style="fill:#241726;" d="M70.846,386.958c-0.3,0-0.6-0.122-0.818-0.361c-6.878-7.569-15.689-1.613-16.061-1.356    c-0.494,0.345-1.189,0.224-1.537-0.279c-0.347-0.502-0.222-1.19,0.281-1.538c0.104-0.072,10.784-7.294,18.953,1.687    c0.41,0.452,0.378,1.15-0.076,1.561C71.377,386.863,71.112,386.958,70.846,386.958z"/>
		<path style="fill:#241726;" d="M76.019,401.183c-0.309,0-0.617-0.129-0.835-0.381c-3.026-3.492-6.265-5.365-9.627-5.57    c-4.603-0.264-7.912,2.686-7.944,2.716c-0.46,0.412-1.152,0.372-1.56-0.074c-0.41-0.45-0.38-1.147,0.069-1.558    c0.162-0.146,4.034-3.599,9.537-3.291c3.99,0.232,7.756,2.361,11.196,6.33c0.399,0.462,0.35,1.16-0.112,1.559    C76.533,401.095,76.276,401.183,76.019,401.183z"/>
		<path style="fill:#241726;" d="M169.148,466.905c-0.166,0-0.335-0.038-0.494-0.117c-0.546-0.273-0.766-0.937-0.494-1.483    c2.404-4.809,15.128-9.869,16.57-10.43c1.327-0.539,2.146,1.558,0.803,2.059c-3.701,1.441-13.68,5.928-15.396,9.36    C169.942,466.682,169.552,466.905,169.148,466.905z"/>
		<path style="fill:#241726;" d="M182.086,472.994c-0.227,0-0.453-0.069-0.65-0.211c-0.494-0.358-0.602-1.05-0.244-1.543    c6.312-8.682,15.631-9.553,16.024-9.585c0.585-0.076,1.142,0.397,1.193,1.007c0.052,0.608-0.399,1.142-1.006,1.195    c-0.088,0.008-8.725,0.846-14.425,8.683C182.764,472.837,182.427,472.994,182.086,472.994z"/>
		<path style="fill:#241726;" d="M215.848,413.612c-38.527,0-61.905-13.959-74.735-25.668    c-13.939-12.725-18.666-25.286-18.86-25.814c-0.209-0.572,0.084-1.206,0.656-1.418c0.565-0.208,1.206,0.081,1.418,0.655    c0.186,0.501,19.311,50.035,91.521,50.035C217.269,411.375,217.29,413.637,215.848,413.612z"/>
		<path style="fill:#241726;" d="M463.666,454.665c-0.194,0-0.391-0.051-0.568-0.158c-4.01-2.405-6.906-13.594-7.223-14.862    c-0.147-0.591,0.211-1.191,0.805-1.339c0.581-0.154,1.189,0.211,1.34,0.803c1.111,4.447,3.783,12.046,6.213,13.503    c0.524,0.314,0.695,0.993,0.38,1.516C464.406,454.474,464.039,454.665,463.666,454.665z"/>
		<path style="fill:#241726;" d="M382.734,420.279c-29.269,0.556-34.26-20.435-29.096-36.492c0.196-0.576,0.816-0.888,1.401-0.693    c0.578,0.195,0.887,0.822,0.693,1.401c-0.054,0.16-5.274,16.073,3.643,25.808c8.015,8.748,24.685,10.13,49.542,4.116    c0.598-0.149,1.189,0.222,1.334,0.814c0.142,0.594-0.222,1.19-0.816,1.334C399.209,419.043,390.299,420.278,382.734,420.279z"/>
		<path style="fill:#241726;" d="M469.637,448.694c-0.255,0-0.511-0.087-0.719-0.267c-5.546-4.753-5.611-16.751-5.611-17.26    c-0.021-1.431,2.231-1.436,2.21,0c0,0.114,0.065,11.49,4.839,15.581c0.464,0.398,0.518,1.095,0.121,1.558    C470.257,448.563,469.948,448.694,469.637,448.694z"/>
		<path style="fill:#241726;" d="M491.266,368.497c-8.136,0-11.235-7.592-11.736-11.606c-0.076-0.605,0.354-1.156,0.958-1.232    c0.593-0.087,1.157,0.351,1.234,0.956c0.05,0.395,1.336,9.673,9.543,9.673C492.699,366.265,492.7,368.52,491.266,368.497z"/>
		<path style="fill:#241726;" d="M493.927,363.179c-0.073,0-0.147-0.006-0.218-0.022c-5.905-1.182-7.946-7.254-8.199-10.301    c-0.052-0.608,0.399-1.139,1.008-1.191c0.54-0.073,1.139,0.397,1.193,1.006c0.026,0.292,0.691,7.171,6.429,8.32    c0.6,0.12,0.988,0.701,0.868,1.3C494.902,362.816,494.443,363.179,493.927,363.179z"/>
		<path style="fill:#241726;" d="M134.15,133.719c-1.327,0-2.566-1.554-4.208-3.617c-1.552-1.948-3.675-4.616-5.158-4.616    c-1.433,0.022-1.434-2.232,0-2.21c2.549,0,4.854,2.895,6.886,5.449c0.697,0.874,1.688,2.12,2.279,2.602    c0.06-0.213,0.132-0.552,0.186-1.084c0.695-6.949-4.964-14.837-5.02-14.916c-0.358-0.494-0.25-1.185,0.244-1.543    c0.49-0.357,1.183-0.251,1.543,0.244c0.255,0.349,6.211,8.64,5.43,16.435c-0.127,1.289-0.436,2.816-1.683,3.183    C134.482,133.696,134.316,133.719,134.15,133.719z"/>
		<path style="fill:#241726;" d="M278.549,140.415c-0.058,0-0.119-0.004-0.177-0.014c-0.807-0.132-1.474-0.592-1.929-1.334    c-2.283-3.704,1.098-15.026,1.8-17.257c0.181-0.582,0.803-0.905,1.383-0.723c0.583,0.183,0.906,0.803,0.723,1.386    c-1.493,4.764-3.36,13.114-2.052,15.39l8.276-10.295c0.384-0.476,1.079-0.548,1.554-0.168c0.475,0.382,0.55,1.078,0.168,1.554    l-8.885,11.051C279.199,140.266,278.882,140.415,278.549,140.415z"/>
		<path style="fill:#241726;" d="M398.666,280.375c-0.356,0-0.706-0.173-0.919-0.492c-2.447-3.673-7.152-2.158-7.202-2.144    c-0.578,0.195-1.204-0.118-1.398-0.698c-0.192-0.579,0.121-1.205,0.699-1.397c2.19-0.73,7.042-1.035,9.74,3.014    c0.339,0.508,0.201,1.193-0.306,1.532C399.091,280.315,398.877,280.375,398.666,280.375z"/>
		<path style="fill:#241726;" d="M403.085,288.846c-0.356,0-0.706-0.173-0.919-0.492c-2.447-3.672-7.154-2.157-7.202-2.143    c-0.576,0.195-1.202-0.118-1.398-0.698c-0.192-0.579,0.121-1.205,0.699-1.397c2.184-0.731,7.038-1.04,9.74,3.013    c0.339,0.508,0.201,1.193-0.306,1.532C403.511,288.785,403.297,288.846,403.085,288.846z"/>
		<path style="fill:#241726;" d="M411.601,287.541c-0.488,0-0.934-0.325-1.066-0.817c-1.15-4.264-6.095-4.328-6.144-4.328    c-1.433,0.017-1.429-2.23,0.002-2.21h0.002c2.307,0.006,7.005,1.26,8.272,5.962c0.16,0.589-0.19,1.196-0.779,1.355    C411.793,287.529,411.696,287.541,411.601,287.541z"/>
		<path style="fill:#241726;" d="M389.09,285.531c-0.356,0-0.706-0.173-0.919-0.492c-2.447-3.672-7.154-2.157-7.202-2.143    c-0.578,0.195-1.204-0.118-1.398-0.698c-0.192-0.579,0.121-1.205,0.699-1.397c2.184-0.733,7.04-1.041,9.74,3.013    c0.339,0.508,0.201,1.193-0.306,1.532C389.515,285.47,389.302,285.531,389.09,285.531z"/>
		<path style="fill:#241726;" d="M382.696,276.686c-0.263,0-0.524-0.093-0.736-0.281c-3.267-2.922-7.34-0.372-7.512-0.264    c-0.509,0.324-1.196,0.179-1.526-0.331c-0.33-0.513-0.183-1.193,0.326-1.525c1.938-1.252,6.554-2.77,10.184,0.472    c0.455,0.407,0.494,1.106,0.088,1.56C383.302,276.562,383,276.686,382.696,276.686z"/>
		<path style="fill:#241726;" d="M374.594,282.579c-0.263,0-0.524-0.093-0.736-0.281c-3.27-2.92-7.34-0.373-7.515-0.264    c-0.507,0.325-1.196,0.18-1.526-0.331c-0.33-0.513-0.183-1.193,0.326-1.525c1.938-1.257,6.559-2.77,10.186,0.472    c0.455,0.407,0.494,1.105,0.088,1.56C375.2,282.454,374.898,282.579,374.594,282.579z"/>
		<path style="fill:#241726;" d="M366.859,277.791c-0.263,0-0.524-0.093-0.736-0.281c-3.27-2.919-7.34-0.372-7.515-0.264    c-1.192,0.785-2.409-1.094-1.2-1.856c1.938-1.257,6.556-2.77,10.186,0.472c0.455,0.407,0.494,1.105,0.089,1.56    C367.466,277.667,367.164,277.791,366.859,277.791z"/>
		<path style="fill:#241726;" d="M306.857,208.59c-0.196,0-0.395-0.052-0.574-0.161c-0.52-0.316-0.686-0.996-0.371-1.517    c2.292-3.777-1.077-7.395-1.111-7.431c-0.421-0.442-0.404-1.142,0.039-1.561c0.44-0.421,1.144-0.404,1.562,0.04    c1.588,1.673,3.926,5.936,1.401,10.099C307.593,208.401,307.231,208.59,306.857,208.59z"/>
		<path style="fill:#241726;" d="M302.807,193.857c-0.196,0-0.393-0.052-0.572-0.16c-0.522-0.317-0.688-0.996-0.373-1.518    c2.272-3.749-0.975-7.285-1.114-7.434c-0.417-0.445-0.397-1.143,0.045-1.561c0.445-0.418,1.142-0.399,1.558,0.042    c1.588,1.673,3.923,5.936,1.401,10.099C303.545,193.669,303.18,193.857,302.807,193.857z"/>
		<path style="fill:#241726;" d="M110.911,205.435c-0.453,0-0.878-0.282-1.04-0.735c-0.77-2.173-1.172-7.017,2.827-9.795    c0.501-0.349,1.191-0.227,1.537,0.277c0.35,0.501,0.224,1.189-0.276,1.538c-3.6,2.5-2.07,7.052-2.003,7.245    c0.201,0.575-0.101,1.205-0.678,1.407C111.158,205.414,111.035,205.435,110.911,205.435z"/>
		<path style="fill:#241726;" d="M112.385,216.854c-0.455,0-0.881-0.283-1.042-0.736c-0.77-2.173-1.172-7.018,2.829-9.796    c0.499-0.35,1.189-0.226,1.539,0.277c0.347,0.501,0.222,1.19-0.278,1.538c-3.628,2.52-2.022,7.195-2.005,7.243    c0.203,0.575-0.097,1.206-0.673,1.41C112.634,216.834,112.508,216.854,112.385,216.854z"/>
		<path style="fill:#241726;" d="M106.017,239.072c-0.365,0-0.719-0.179-0.93-0.507c-1.245-1.94-2.741-6.565,0.52-10.182    c0.41-0.451,1.107-0.487,1.56-0.081c0.453,0.409,0.49,1.108,0.08,1.561c-2.935,3.256-0.408,7.339-0.298,7.51    c0.326,0.515,0.175,1.198-0.339,1.525C106.425,239.016,106.22,239.072,106.017,239.072z"/>
		<path style="fill:#241726;" d="M105.389,222.747c-0.455,0-0.881-0.283-1.042-0.736c-0.77-2.173-1.172-7.017,2.827-9.796    c0.499-0.347,1.189-0.226,1.537,0.277c0.35,0.501,0.224,1.189-0.276,1.538c-3.626,2.521-2.02,7.195-2.003,7.243    c0.203,0.575-0.097,1.206-0.673,1.41C105.637,222.727,105.512,222.747,105.389,222.747z"/>
		<path style="fill:#241726;" d="M111.281,230.85c-0.455,0-0.881-0.283-1.042-0.736c-0.77-2.173-1.172-7.017,2.829-9.795    c0.501-0.347,1.189-0.224,1.539,0.277c0.347,0.501,0.222,1.19-0.278,1.538c-3.628,2.52-2.022,7.194-2.005,7.242    c0.203,0.575-0.097,1.206-0.673,1.41C111.529,230.829,111.404,230.85,111.281,230.85z"/>
		<path style="fill:#241726;" d="M302.807,217.798c-0.196,0-0.393-0.052-0.572-0.16c-0.522-0.316-0.688-0.996-0.373-1.518    c2.29-3.778-1.077-7.396-1.111-7.433c-0.421-0.442-0.404-1.142,0.039-1.562c0.445-0.418,1.144-0.403,1.562,0.041    c1.588,1.673,3.923,5.936,1.401,10.1C303.545,217.61,303.18,217.798,302.807,217.798z"/>
		<path style="fill:#241726;" d="M307.964,224.442c-0.255,0-0.511-0.087-0.719-0.267c-0.464-0.397-0.518-1.095-0.121-1.558    c2.877-3.352,0.147-7.472,0.119-7.513c-0.341-0.505-0.209-1.192,0.296-1.534c0.505-0.34,1.191-0.209,1.534,0.296    c1.293,1.91,2.901,6.497-0.27,10.192C308.584,224.312,308.275,224.442,307.964,224.442z"/>
		<path style="fill:#241726;" d="M167.346,393.666c-0.05,0-0.097-0.003-0.145-0.01c-2.288-0.299-6.785-2.14-7.445-6.964    c-0.084-0.604,0.339-1.162,0.945-1.245c0.591-0.083,1.161,0.34,1.243,0.945c0.596,4.344,5.343,5.046,5.546,5.074    c0.604,0.083,1.027,0.639,0.947,1.242C168.363,393.263,167.89,393.666,167.346,393.666z"/>
		<path style="fill:#241726;" d="M162.989,382.802c-0.05,0-0.097-0.003-0.145-0.01c-2.288-0.299-6.787-2.14-7.445-6.964    c-0.084-0.605,0.341-1.162,0.945-1.245c0.589-0.082,1.159,0.34,1.243,0.945c0.593,4.344,5.343,5.046,5.546,5.074    c0.604,0.083,1.027,0.639,0.947,1.242C164.005,382.399,163.533,382.802,162.989,382.802z"/>
		<path style="fill:#241726;" d="M151.922,373.279c-0.047,0-0.097-0.003-0.145-0.01c-2.288-0.299-6.787-2.14-7.448-6.964    c-0.084-0.604,0.339-1.162,0.945-1.245c0.587-0.08,1.159,0.341,1.243,0.945c0.6,4.377,5.497,5.067,5.544,5.074    c0.606,0.079,1.032,0.633,0.954,1.239C152.943,372.873,152.468,373.279,151.922,373.279z"/>
		<path style="fill:#241726;" d="M176.374,387.951c-0.05,0-0.097-0.003-0.145-0.01c-2.288-0.299-6.787-2.141-7.445-6.964    c-0.084-0.605,0.341-1.162,0.945-1.245c0.583-0.082,1.161,0.34,1.243,0.945c0.593,4.343,5.346,5.046,5.546,5.074    c0.604,0.083,1.027,0.639,0.947,1.242C177.39,387.547,176.917,387.951,176.374,387.951z"/>
		<path style="fill:#241726;" d="M179.483,397.628c-2.48,0-6.364-0.997-7.979-4.936c-0.231-0.564,0.039-1.21,0.604-1.442    c0.559-0.229,1.211,0.039,1.442,0.604c1.677,4.091,6.589,3.534,6.636,3.524c0.613-0.092,1.157,0.355,1.232,0.961    c0.076,0.605-0.356,1.157-0.96,1.231C180.17,397.607,179.842,397.628,179.483,397.628z"/>
		<path style="fill:#241726;" d="M154.106,384.977c-0.047,0-0.097-0.003-0.145-0.01c-2.288-0.299-6.787-2.14-7.448-6.964    c-0.084-0.604,0.339-1.162,0.945-1.245c0.585-0.076,1.161,0.341,1.243,0.945c0.6,4.377,5.497,5.067,5.544,5.074    c0.606,0.079,1.032,0.633,0.954,1.239C155.127,384.571,154.652,384.977,154.106,384.977z"/>
		<path style="fill:#241726;" d="M334.188,425.143c-2.124,0-4.554-0.695-6.33-2.988c-0.373-0.482-0.285-1.176,0.196-1.55    c0.483-0.374,1.176-0.288,1.552,0.196c2.704,3.49,7.288,1.643,7.335,1.623c0.557-0.23,1.209,0.032,1.444,0.598    c0.233,0.563-0.035,1.21-0.598,1.444C336.926,424.824,335.627,425.143,334.188,425.143z"/>
		<path style="fill:#241726;" d="M324.983,417.912c-2.124,0-4.551-0.695-6.33-2.989c-0.373-0.482-0.285-1.176,0.196-1.55    c0.483-0.376,1.178-0.289,1.552,0.196c2.687,3.466,7.152,1.696,7.338,1.623c1.321-0.558,2.171,1.513,0.844,2.043    C327.722,417.592,326.423,417.912,324.983,417.912z"/>
		<path style="fill:#241726;" d="M310.638,415.194c-2.124,0-4.554-0.695-6.332-2.989c-0.373-0.482-0.285-1.176,0.196-1.549    c0.486-0.374,1.176-0.288,1.552,0.196c2.685,3.465,7.154,1.7,7.34,1.623c0.568-0.226,1.211,0.038,1.442,0.603    c0.231,0.562-0.035,1.206-0.598,1.439C313.377,414.874,312.078,415.194,310.638,415.194z"/>
		<path style="fill:#241726;" d="M339.149,415.681c-2.124,0-4.551-0.695-6.33-2.989c-0.373-0.482-0.285-1.176,0.196-1.549    c0.486-0.374,1.174-0.288,1.552,0.196c2.687,3.467,7.15,1.697,7.338,1.623c1.321-0.558,2.171,1.513,0.844,2.043    C341.888,415.362,340.589,415.681,339.149,415.681z"/>
		<path style="fill:#241726;" d="M345.686,423.08c-1.517,0-3.136-0.426-4.653-1.6c-0.483-0.373-0.572-1.067-0.199-1.551    c0.378-0.481,1.073-0.568,1.55-0.197c3.475,2.687,7.353-0.142,7.515-0.267c0.486-0.361,1.178-0.265,1.545,0.223    c0.365,0.488,0.268,1.177-0.218,1.544C350.11,422.074,348.019,423.08,345.686,423.08z"/>
		<path style="fill:#241726;" d="M318.375,424.234c-2.124,0-4.551-0.694-6.33-2.988c-0.373-0.482-0.285-1.176,0.196-1.549    c0.483-0.376,1.174-0.287,1.552,0.196c2.685,3.464,7.15,1.696,7.338,1.622c0.568-0.227,1.209,0.039,1.442,0.602    c0.231,0.563-0.035,1.207-0.598,1.441C321.114,423.914,319.815,424.234,318.375,424.234z"/>
		<path style="fill:#241726;" d="M298.756,203.065c-0.196,0-0.393-0.052-0.572-0.16c-0.522-0.317-0.688-0.996-0.373-1.518    c2.272-3.749-0.975-7.285-1.114-7.434c-0.417-0.445-0.397-1.143,0.045-1.561c0.442-0.417,1.142-0.399,1.558,0.042    c1.588,1.673,3.923,5.936,1.401,10.099C299.494,202.876,299.129,203.065,298.756,203.065z"/>
		<path style="fill:#FBFCFF;" d="M204.563,221.076c-0.341,0-0.678-0.158-0.893-0.455c-1.045-1.435-2.266-2.234-3.632-2.374    c-2.631-0.249-5.203,1.967-5.229,1.99c-0.451,0.411-1.148,0.38-1.56-0.074c-0.41-0.452-0.378-1.15,0.076-1.561    c0.129-0.121,3.237-2.933,6.94-2.552c2.016,0.207,3.764,1.308,5.192,3.273c0.358,0.493,0.25,1.185-0.244,1.543    C205.016,221.007,204.789,221.076,204.563,221.076z"/>
	</g>
	<path style="fill:#241726;" d="M280.2,512c-1.141-0.117-3.352,0.323-3.285-1.374c0.076-0.608,0.604-1.054,1.232-0.961   c1.329,0.164,2.711,0.168,4.135-0.003c0.596-0.093,1.157,0.356,1.23,0.963c0.076,0.605-0.356,1.157-0.962,1.23   C281.754,511.953,280.971,511.999,280.2,512z M286.709,510.843c-0.455,0-0.883-0.284-1.042-0.737   c-0.203-0.576,0.099-1.207,0.675-1.41c0.229-0.081,0.458-0.166,0.688-0.256c1.142-0.448,2.247-0.91,3.315-1.387   c0.559-0.25,1.213,0,1.461,0.559c0.248,0.557-0.002,1.211-0.559,1.459c-1.098,0.49-2.238,0.967-3.41,1.425   c-0.253,0.1-0.507,0.194-0.762,0.284C286.955,510.823,286.83,510.843,286.709,510.843z M273.739,510.807   c-0.129,0-0.261-0.023-0.388-0.071c-1.398-0.526-2.793-1.225-4.141-2.077c-0.516-0.326-0.671-1.009-0.345-1.525   c0.328-0.516,1.01-0.665,1.524-0.344c1.224,0.773,2.482,1.405,3.74,1.879c0.572,0.215,0.861,0.851,0.645,1.423   C274.607,510.534,274.186,510.807,273.739,510.807z M226.222,510.8l-0.388-0.001c-0.611-0.005-1.101-0.504-1.096-1.115   c0.004-0.609,0.504-1.1,1.114-1.095l0.371,0.001c1.291-0.001,2.62-0.053,3.949-0.154c0.55-0.047,1.137,0.407,1.187,1.018   c0.045,0.609-0.41,1.139-1.019,1.186C228.954,510.745,227.568,510.799,226.222,510.8z M221.439,510.559   c-0.039,0-0.078-0.002-0.117-0.005c-1.515-0.156-3.021-0.393-4.472-0.701c-0.596-0.127-0.978-0.714-0.85-1.311   c0.129-0.599,0.725-0.97,1.312-0.851c1.373,0.294,2.799,0.517,4.239,0.665c0.606,0.063,1.047,0.605,0.984,1.213   C222.477,510.136,221.998,510.559,221.439,510.559z M234.64,510.136c-0.533,0-1.004-0.388-1.09-0.933   c-0.095-0.603,0.317-1.169,0.922-1.264c1.455-0.229,2.879-0.515,4.234-0.851c0.593-0.148,1.191,0.215,1.338,0.806   c0.147,0.592-0.214,1.191-0.807,1.339c-1.416,0.352-2.903,0.651-4.424,0.89C234.757,510.132,234.699,510.136,234.64,510.136z    M212.828,508.708c-0.119,0-0.237-0.018-0.356-0.058c-1.446-0.492-2.862-1.073-4.208-1.728c-0.548-0.268-0.777-0.928-0.509-1.477   c0.265-0.549,0.934-0.773,1.476-0.51c1.262,0.615,2.592,1.16,3.954,1.622c0.576,0.196,0.887,0.824,0.691,1.402   C213.718,508.419,213.288,508.708,212.828,508.708z M243.204,507.989c-0.453,0-0.876-0.279-1.04-0.73   c-0.207-0.574,0.091-1.207,0.665-1.414c1.368-0.493,2.695-1.056,3.947-1.675c0.542-0.268,1.211-0.049,1.48,0.501   c0.27,0.547,0.045,1.211-0.501,1.48c-1.327,0.655-2.732,1.252-4.176,1.772C243.454,507.969,243.329,507.989,243.204,507.989z    M294.778,507.247c-0.397,0-0.783-0.217-0.98-0.595c-0.283-0.542-0.071-1.209,0.47-1.49c1.299-0.678,2.57-1.396,3.777-2.138   c0.522-0.313,1.202-0.158,1.519,0.364c0.319,0.52,0.158,1.201-0.363,1.52c-1.25,0.767-2.566,1.512-3.915,2.213   C295.126,507.207,294.951,507.247,294.778,507.247z M336.335,507.2c-0.598,0-1.088-0.475-1.105-1.075   c-0.015-0.611,0.466-1.118,1.075-1.135c1.427-0.038,2.814-0.224,4.124-0.554c0.596-0.153,1.191,0.211,1.342,0.803   c0.147,0.591-0.211,1.191-0.803,1.34c-1.467,0.369-3.017,0.577-4.603,0.62C336.354,507.2,336.344,507.2,336.335,507.2z    M331.935,506.91c-0.056,0-0.112-0.004-0.168-0.013c-1.437-0.219-2.935-0.559-4.457-1.01c-1.377-0.389-0.745-2.545,0.63-2.119   c1.424,0.423,2.823,0.741,4.159,0.945c0.604,0.092,1.019,0.655,0.926,1.259C332.94,506.518,332.47,506.91,331.935,506.91z    M266.287,506.156c-0.263,0-0.527-0.093-0.738-0.282c-1.09-0.977-2.158-2.079-3.179-3.277c-0.395-0.465-0.339-1.162,0.125-1.558   c0.462-0.394,1.163-0.341,1.558,0.125c0.956,1.123,1.955,2.154,2.972,3.063c0.453,0.408,0.492,1.106,0.084,1.56   C266.891,506.032,266.589,506.156,266.287,506.156z M344.808,505.04c-0.395,0-0.777-0.213-0.975-0.587   c-0.287-0.54-0.082-1.209,0.458-1.494c1.204-0.639,2.357-1.432,3.423-2.359c0.462-0.399,1.159-0.354,1.56,0.11   c0.399,0.461,0.35,1.158-0.11,1.558c-1.193,1.037-2.486,1.926-3.837,2.644C345.162,504.999,344.983,505.04,344.808,505.04z    M204.91,504.854c-0.209,0-0.419-0.058-0.606-0.181c-1.256-0.823-2.48-1.744-3.641-2.733c-0.464-0.396-0.52-1.093-0.125-1.557   c0.401-0.467,1.101-0.519,1.558-0.124c1.092,0.93,2.242,1.793,3.421,2.567c0.509,0.335,0.652,1.02,0.317,1.53   C205.622,504.679,205.269,504.854,204.91,504.854z M323.475,504.415c-0.153,0-0.309-0.031-0.458-0.098   c-1.362-0.618-2.711-1.374-4.01-2.243c-0.507-0.34-0.643-1.026-0.302-1.533c0.337-0.507,1.027-0.643,1.532-0.303   c1.198,0.804,2.441,1.499,3.695,2.066c0.555,0.253,0.801,0.908,0.548,1.463C324.297,504.175,323.893,504.415,323.475,504.415z    M251.092,504.065c-0.356,0-0.708-0.173-0.919-0.493c-0.339-0.507-0.201-1.193,0.306-1.531c1.2-0.798,2.335-1.671,3.377-2.596   c0.458-0.406,1.155-0.365,1.56,0.093c0.406,0.456,0.363,1.156-0.093,1.56c-1.118,0.992-2.337,1.928-3.619,2.782   C251.515,504.005,251.303,504.065,251.092,504.065z M302.295,502.614c-0.339,0-0.676-0.156-0.891-0.452   c-0.36-0.493-0.253-1.185,0.24-1.545c1.198-0.876,2.326-1.786,3.356-2.703c0.458-0.408,1.155-0.366,1.56,0.088   c0.406,0.456,0.367,1.155-0.089,1.56c-1.083,0.965-2.268,1.92-3.524,2.839C302.75,502.545,302.522,502.614,302.295,502.614z    M316.133,499.548c-0.263,0-0.527-0.093-0.736-0.282c-1.107-0.988-2.182-2.079-3.198-3.241c-0.404-0.46-0.356-1.157,0.104-1.559   c0.458-0.399,1.157-0.357,1.558,0.105c0.958,1.094,1.97,2.12,3.008,3.049c0.455,0.407,0.494,1.105,0.088,1.56   C316.739,499.424,316.435,499.548,316.133,499.548z M260.551,499.455c-0.356,0-0.706-0.173-0.919-0.491   c-0.306-0.459-0.606-0.928-0.9-1.406c-0.071,0.086-0.142,0.173-0.214,0.259c-0.391,0.468-1.092,0.53-1.556,0.139   c-0.468-0.392-0.531-1.089-0.14-1.557c0.246-0.295,0.488-0.595,0.721-0.899c-0.078-0.142-0.155-0.286-0.231-0.429   c-0.287-0.54-0.082-1.209,0.458-1.494c0.36-0.19,0.773-0.165,1.098,0.036c0.14-0.221,0.278-0.445,0.414-0.669   c0.313-0.523,0.986-0.693,1.515-0.381c0.524,0.314,0.695,0.992,0.38,1.516c-0.317,0.532-0.656,1.057-1.012,1.573   c0.419,0.715,0.857,1.412,1.306,2.085c0.339,0.507,0.203,1.193-0.304,1.532C260.976,499.394,260.762,499.455,260.551,499.455z    M351.461,499.322c-0.237,0-0.477-0.077-0.68-0.233c-0.481-0.375-0.568-1.069-0.192-1.551c0.835-1.073,1.616-2.267,2.32-3.552   c0.293-0.537,0.971-0.729,1.5-0.438c0.535,0.294,0.732,0.965,0.438,1.5c-0.762,1.389-1.608,2.684-2.514,3.848   C352.115,499.175,351.789,499.322,351.461,499.322z M198.201,499.14c-0.298,0-0.596-0.12-0.814-0.356   c-1.006-1.094-1.977-2.275-2.883-3.51c-0.36-0.492-0.255-1.184,0.237-1.545c0.488-0.359,1.185-0.256,1.545,0.237   c0.857,1.17,1.776,2.287,2.728,3.32c0.412,0.449,0.384,1.148-0.065,1.561C198.736,499.043,198.468,499.14,198.201,499.14z    M308.851,496.712c-0.259,0-0.518-0.09-0.727-0.274c-0.46-0.401-0.505-1.1-0.104-1.559c0.619-0.708,1.185-1.423,1.69-2.138   c-0.117-0.077-0.222-0.176-0.309-0.299c-0.872-1.257-1.673-2.561-2.378-3.874c-0.289-0.538-0.086-1.207,0.451-1.497   c0.533-0.288,1.206-0.09,1.496,0.45c0.637,1.185,1.355,2.361,2.137,3.499c0.304-0.111,0.652-0.084,0.947,0.096   c0.522,0.317,0.686,0.997,0.369,1.518c-0.751,1.237-1.673,2.481-2.741,3.7C309.464,496.585,309.158,496.712,308.851,496.712z    M192.972,492.027c-0.378,0-0.747-0.195-0.954-0.546c-0.751-1.284-1.457-2.635-2.098-4.016c-0.255-0.554-0.015-1.211,0.54-1.466   c0.548-0.259,1.211-0.016,1.468,0.538c0.609,1.316,1.282,2.605,1.998,3.826c0.309,0.527,0.132,1.204-0.395,1.512   C193.356,491.978,193.161,492.027,192.972,492.027z M256.416,491.65c-0.436,0-0.85-0.26-1.023-0.69   c-0.587-1.445-1.086-2.891-1.483-4.296c-0.166-0.587,0.177-1.198,0.764-1.364c0.585-0.165,1.198,0.179,1.364,0.764   c0.373,1.327,0.846,2.694,1.401,4.065c0.231,0.565-0.041,1.21-0.606,1.439C256.694,491.624,256.554,491.65,256.416,491.65z    M355.739,491.608c-0.132,0-0.268-0.024-0.397-0.074c-0.57-0.22-0.852-0.859-0.634-1.429c0.906-2.344,1.252-4.041,1.256-4.057   c0.121-0.6,0.712-0.983,1.301-0.866c0.598,0.12,0.984,0.701,0.865,1.299c-0.015,0.077-0.382,1.886-1.36,4.421   C356.6,491.339,356.181,491.608,355.739,491.608z M262.169,490.651c-0.134,0-0.27-0.024-0.401-0.076   c-0.568-0.221-0.85-0.861-0.628-1.43c0.522-1.343,0.915-2.704,1.165-4.044c0.112-0.602,0.695-0.992,1.288-0.884   c0.6,0.112,0.995,0.69,0.883,1.289c-0.274,1.475-0.706,2.97-1.278,4.439C263.028,490.383,262.612,490.651,262.169,490.651z    M313.289,489.15c-0.099,0-0.201-0.013-0.302-0.042c-0.587-0.166-0.928-0.777-0.762-1.364c0.255-0.893,0.382-1.753,0.382-2.558   c0.002-0.451-0.037-0.883-0.117-1.301c-0.114-0.6,0.278-1.178,0.878-1.293c0.583-0.109,1.178,0.277,1.293,0.878   c0.106,0.555,0.158,1.133,0.155,1.72c0,1.004-0.155,2.067-0.464,3.156C314.214,488.833,313.772,489.15,313.289,489.15z    M306.167,485.126c-0.451,0-0.874-0.277-1.038-0.724c-0.647-1.764-1.014-3.364-1.066-4.629c-0.024-0.611,0.451-1.124,1.062-1.148   c0.606-0.026,1.125,0.45,1.148,1.06c0.041,1.038,0.363,2.405,0.932,3.956c0.209,0.573-0.084,1.209-0.658,1.418   C306.421,485.105,306.294,485.126,306.167,485.126z M189.253,484.004c-0.455,0-0.883-0.284-1.042-0.738   c-0.814-2.31-1.187-3.949-1.282-4.397c-0.125-0.597,0.255-1.184,0.852-1.31c0.589-0.12,1.183,0.254,1.31,0.852   c0.088,0.414,0.434,1.936,1.204,4.121c0.203,0.575-0.099,1.206-0.675,1.409C189.499,483.983,189.374,484.004,189.253,484.004z    M254.057,483.145c-0.544,0-1.019-0.404-1.094-0.959c-0.209-1.619-0.273-3.159-0.086-4.691c0.073-0.606,0.609-1.059,1.232-0.961   c0.604,0.074,1.036,0.626,0.96,1.231c-0.16,1.354-0.102,2.692,0.086,4.13c0.08,0.605-0.345,1.16-0.95,1.241   C254.156,483.142,254.107,483.145,254.057,483.145z M263.73,482.012c-0.589,0-1.077-0.463-1.105-1.056   c-0.063-1.474-0.341-2.831-0.803-3.926c-0.237-0.563,0.028-1.211,0.589-1.448c0.568-0.232,1.209,0.028,1.448,0.589   c0.57,1.353,0.898,2.931,0.975,4.687c0.026,0.61-0.447,1.125-1.057,1.152C263.762,482.012,263.745,482.012,263.73,482.012z    M311.515,480.956c-0.281,0-0.559-0.106-0.775-0.317c-0.846-0.832-1.977-1.513-3.36-2.022c-0.572-0.211-0.865-0.847-0.654-1.419   c0.211-0.573,0.85-0.863,1.418-0.655c1.679,0.619,3.073,1.466,4.146,2.521c0.436,0.427,0.44,1.127,0.013,1.562   C312.086,480.845,311.799,480.956,311.515,480.956z M255.781,474.823c-0.326,0-0.65-0.145-0.868-0.421   c-0.378-0.48-0.296-1.175,0.183-1.552c0.682-0.536,1.487-0.855,2.393-0.945c1.057-0.103,2.044,0.051,2.944,0.461   c0.555,0.253,0.801,0.908,0.548,1.462c-0.252,0.559-0.904,0.804-1.463,0.549c-0.546-0.247-1.157-0.341-1.811-0.273   c-0.486,0.049-0.893,0.206-1.243,0.481C256.263,474.746,256.021,474.823,255.781,474.823z"/>
	<path style="fill:#241726;" d="M47.206,107.265c-0.451,0-0.874-0.277-1.038-0.724c-0.024-0.068-0.615-1.687-1.36-4.301   c-0.168-0.587,0.173-1.199,0.76-1.366c0.591-0.172,1.198,0.174,1.364,0.76c0.721,2.529,1.306,4.131,1.312,4.146   c0.209,0.573-0.084,1.209-0.658,1.418C47.461,107.244,47.333,107.265,47.206,107.265z M44.767,98.758   c-0.505,0-0.958-0.345-1.077-0.857c-0.315-1.369-0.619-2.848-0.887-4.396c-0.104-0.601,0.3-1.173,0.902-1.277   c0.591-0.106,1.174,0.3,1.278,0.901c0.259,1.505,0.555,2.945,0.861,4.275c0.136,0.595-0.235,1.188-0.829,1.325   C44.931,98.749,44.849,98.758,44.767,98.758z M43.283,90.044c-0.559,0-1.038-0.423-1.096-0.991   c-0.162-1.543-0.257-3.059-0.287-4.504c-0.013-0.611,0.473-1.115,1.083-1.128c0.613-0.017,1.114,0.474,1.127,1.082   c0.028,1.384,0.121,2.838,0.274,4.321c0.063,0.608-0.378,1.15-0.984,1.214C43.36,90.041,43.322,90.044,43.283,90.044z    M43.16,81.214c-0.035,0-0.071-0.001-0.106-0.004c-0.606-0.057-1.053-0.597-0.997-1.204c0.151-1.61,0.41-3.132,0.766-4.524   c0.151-0.591,0.749-0.947,1.345-0.796c0.591,0.152,0.947,0.753,0.796,1.345c-0.328,1.281-0.565,2.688-0.706,4.184   C44.204,80.784,43.723,81.214,43.16,81.214z M83.32,76.391c-0.872,0-1.867-0.36-2.959-1.07c-0.511-0.332-0.656-1.016-0.324-1.528   c0.335-0.513,1.023-0.656,1.528-0.324c0.954,0.619,1.509,0.712,1.755,0.712c0.55-0.124,0.878-0.263,1.17-0.437   c0.516-0.314,1.2-0.148,1.515,0.38c0.315,0.523,0.145,1.202-0.38,1.515c-0.455,0.274-0.965,0.491-1.511,0.645   C83.86,76.356,83.594,76.391,83.32,76.391z M45.439,72.73c-0.173,0-0.345-0.04-0.507-0.123c-0.542-0.281-0.755-0.946-0.475-1.489   c0.751-1.452,1.677-2.746,2.756-3.844c0.427-0.434,1.124-0.441,1.562-0.015c0.434,0.427,0.44,1.128,0.013,1.562   c-0.922,0.941-1.72,2.055-2.367,3.311C46.224,72.512,45.838,72.73,45.439,72.73z M77.664,72.568c-0.298,0-0.598-0.121-0.816-0.358   c-0.954-1.042-1.914-2.236-2.855-3.547c-0.356-0.496-0.242-1.186,0.255-1.542c0.49-0.357,1.183-0.246,1.541,0.254   c0.889,1.241,1.796,2.365,2.691,3.342c0.412,0.45,0.38,1.149-0.069,1.561C78.199,72.472,77.931,72.568,77.664,72.568z    M87.049,72.096c-0.593,0-1.083-0.469-1.105-1.065c-0.037-1.067-0.568-2.222-1.491-3.25c-0.408-0.454-0.369-1.152,0.084-1.56   c0.453-0.407,1.15-0.37,1.56,0.084c1.288,1.433,1.998,3.041,2.057,4.646c0.022,0.611-0.455,1.122-1.066,1.144   C87.075,72.096,87.062,72.096,87.049,72.096z M51.553,66.562c-0.401,0-0.79-0.22-0.984-0.603c-0.278-0.544-0.06-1.21,0.483-1.486   c1.135-0.579,2.391-1.041,3.734-1.374l0.671-0.163c0.581-0.145,1.187,0.226,1.329,0.819c0.14,0.593-0.227,1.19-0.82,1.33   l-0.65,0.159c-1.178,0.292-2.277,0.695-3.263,1.197C51.894,66.523,51.723,66.562,51.553,66.562z M81.738,65.543   c-0.168,0-0.337-0.038-0.496-0.118c-1.146-0.575-2.462-1.046-3.915-1.398c-0.593-0.144-0.956-0.741-0.814-1.335   c0.145-0.591,0.738-0.954,1.336-0.813c1.612,0.392,3.088,0.92,4.385,1.571c0.544,0.273,0.764,0.938,0.492,1.483   C82.532,65.319,82.142,65.543,81.738,65.543z M72.471,65.423c-0.376,0-0.742-0.192-0.95-0.54c-0.319-0.538-0.634-1.088-0.941-1.643   c-0.227-0.003-0.455-0.001-0.684-0.004c-0.347,0-0.695,0.005-1.051,0.015c-0.688,0.066-1.118-0.466-1.135-1.075   c-0.015-0.611,0.466-1.118,1.075-1.135c0.214-0.005,0.425-0.01,0.637-0.012c-0.019-0.036-0.037-0.071-0.054-0.107   c-0.27-0.546-0.047-1.21,0.501-1.48c0.542-0.269,1.206-0.05,1.48,0.501c0.188,0.378,0.378,0.754,0.574,1.128   c0.479,0.023,0.945,0.054,1.401,0.093c0.609,0.051,1.06,0.586,1.008,1.193c-0.05,0.59-0.57,1.074-1.137,1.011   c0.076,0.129,0.151,0.258,0.227,0.385c0.313,0.524,0.14,1.203-0.384,1.515C72.86,65.373,72.665,65.423,72.471,65.423z    M60.034,64.208c-0.524,0-0.988-0.374-1.086-0.909c-0.108-0.601,0.291-1.175,0.891-1.284c1.511-0.272,3.004-0.493,4.441-0.656   c0.587-0.068,1.152,0.366,1.224,0.974c0.069,0.606-0.367,1.154-0.973,1.223c-1.362,0.153-2.795,0.363-4.299,0.634   C60.166,64.202,60.101,64.208,60.034,64.208z M68.552,57.498c-0.438,0-0.852-0.262-1.025-0.694   c-0.563-1.404-1.07-2.838-1.504-4.259c-0.177-0.584,0.151-1.201,0.736-1.379c0.578-0.182,1.2,0.152,1.379,0.734   c0.414,1.362,0.9,2.735,1.439,4.082c0.227,0.567-0.047,1.21-0.613,1.436C68.828,57.473,68.69,57.498,68.552,57.498z M65.997,49.043   c-0.516,0-0.975-0.363-1.081-0.888c-0.306-1.532-0.518-3.049-0.63-4.507c-0.047-0.609,0.408-1.139,1.016-1.187   c0.563-0.035,1.139,0.407,1.185,1.016c0.106,1.37,0.306,2.799,0.596,4.244c0.119,0.599-0.268,1.18-0.868,1.3   C66.141,49.036,66.07,49.043,65.997,49.043z M122.483,45.899c-1.261,0.054-4.296-1.178-3.069-2.856   c0.427-0.439,1.127-0.451,1.562-0.03c0.82,0.791,1.711,0.874,2.797,0.322c0.544-0.274,1.211-0.063,1.487,0.482   c0.278,0.543,0.063,1.209-0.481,1.486C124.007,45.698,123.234,45.898,122.483,45.899z M127.02,42.141   c-0.088,0-0.177-0.011-0.268-0.033c-0.593-0.148-0.952-0.748-0.805-1.339c0.091-0.359,0.136-0.747,0.136-1.151   c0.002-0.775-0.16-1.635-0.481-2.558c-0.199-0.577,0.106-1.206,0.682-1.406c0.581-0.201,1.204,0.104,1.407,0.681   c0.401,1.16,0.604,2.265,0.602,3.286c0,0.583-0.067,1.15-0.201,1.684C127.967,41.807,127.516,42.141,127.02,42.141z    M118.158,41.054c-0.479,0-0.922-0.314-1.062-0.799c-0.391-1.351-0.65-2.891-0.773-4.577c-0.043-0.609,0.414-1.137,1.023-1.182   c0.593-0.039,1.137,0.411,1.183,1.022c0.11,1.533,0.343,2.921,0.691,4.124c0.168,0.586-0.168,1.199-0.755,1.368   C118.363,41.04,118.26,41.054,118.158,41.054z M65.36,40.252c-0.028,0-0.054-0.001-0.08-0.003c-0.609-0.043-1.068-0.572-1.025-1.18   c0.114-1.583,0.36-3.116,0.738-4.557c0.153-0.588,0.751-0.944,1.347-0.79c0.591,0.154,0.945,0.757,0.79,1.349   c-0.341,1.309-0.565,2.707-0.669,4.155C66.418,39.807,65.934,40.252,65.36,40.252z M124.611,33.891   c-0.352,0-0.699-0.169-0.913-0.483c-0.749-1.096-1.649-2.201-2.678-3.284c-0.421-0.442-0.404-1.142,0.039-1.562   c0.44-0.419,1.139-0.404,1.562,0.039c1.111,1.169,2.089,2.367,2.903,3.564c0.343,0.504,0.214,1.191-0.291,1.534   C125.043,33.828,124.827,33.891,124.611,33.891z M117.433,32.284c-0.026,0-0.052-0.001-0.076-0.002   c-0.609-0.041-1.07-0.568-1.029-1.176c0.099-1.482,0.291-3,0.572-4.513c0.006-0.039,0.015-0.078,0.026-0.114   c-0.809-0.617-1.657-1.212-2.534-1.774c-0.514-0.33-0.663-1.014-0.332-1.527c0.33-0.515,1.014-0.66,1.528-0.333   c1.293,0.831,2.531,1.728,3.68,2.666c0.473,0.386,0.542,1.082,0.158,1.555c-0.119,0.142-0.263,0.249-0.423,0.317   c-0.227,1.299-0.384,2.599-0.468,3.869C118.495,31.836,118.01,32.284,117.433,32.284z M67.62,31.772   c-0.17,0-0.343-0.039-0.503-0.121c-0.544-0.278-0.76-0.944-0.481-1.487c0.708-1.383,1.58-2.688,2.59-3.876   c0.395-0.463,1.092-0.52,1.558-0.126c0.464,0.395,0.52,1.092,0.125,1.557c-0.9,1.059-1.675,2.22-2.305,3.451   C68.407,31.553,68.021,31.772,67.62,31.772z M73.276,25.089c-0.332,0-0.663-0.15-0.881-0.436c-0.369-0.487-0.274-1.179,0.211-1.548   c1.178-0.896,2.495-1.715,3.915-2.434c0.55-0.274,1.211-0.059,1.487,0.486c0.276,0.544,0.058,1.21-0.486,1.485   c-1.303,0.66-2.508,1.408-3.578,2.223C73.744,25.015,73.509,25.089,73.276,25.089z M119.041,23.608   c-0.108,0-0.216-0.015-0.324-0.049c-0.585-0.179-0.911-0.797-0.732-1.381c0.447-1.456,0.98-2.89,1.588-4.262   c0.246-0.559,0.902-0.808,1.457-0.564c0.559,0.247,0.811,0.9,0.563,1.458c-0.572,1.294-1.075,2.645-1.498,4.018   C119.952,23.303,119.514,23.608,119.041,23.608z M111.147,22.696c-0.166,0-0.335-0.037-0.492-0.115   c-1.291-0.642-2.618-1.214-3.945-1.702c-0.574-0.209-0.868-0.845-0.658-1.418c0.209-0.572,0.85-0.863,1.418-0.656   c1.405,0.515,2.808,1.119,4.169,1.797c0.546,0.272,0.768,0.936,0.496,1.482C111.943,22.472,111.552,22.696,111.147,22.696z    M81.093,21.058c-0.46,0-0.889-0.289-1.047-0.749c-0.196-0.577,0.112-1.205,0.691-1.402c1.366-0.466,2.838-0.874,4.37-1.214   c0.619-0.125,1.187,0.246,1.319,0.84c0.132,0.597-0.244,1.186-0.84,1.319c-1.455,0.322-2.847,0.708-4.137,1.147   C81.33,21.04,81.212,21.058,81.093,21.058z M102.857,19.67c-0.084,0-0.17-0.01-0.255-0.03c-1.401-0.332-2.818-0.578-4.215-0.731   c-1.454-0.173-1.171-2.323,0.237-2.197c1.489,0.162,2.998,0.423,4.487,0.778c0.596,0.141,0.963,0.737,0.82,1.33   C103.811,19.328,103.358,19.67,102.857,19.67z M89.693,19.117c-0.544,0-1.019-0.404-1.092-0.958   c-0.082-0.605,0.343-1.161,0.947-1.242c0.714-0.096,1.448-0.18,2.203-0.252c0.773-0.077,1.545-0.123,2.316-0.143   c0.622,0.025,1.118,0.467,1.133,1.076c0.015,0.611-0.466,1.118-1.077,1.134c-0.714,0.018-1.435,0.063-2.158,0.133   c-0.729,0.07-1.435,0.152-2.124,0.244C89.792,19.114,89.743,19.117,89.693,19.117z M169.845,16.174   c-0.404,0-0.792-0.221-0.986-0.606c-0.643-1.271-1.383-2.496-2.201-3.639c-0.356-0.495-0.242-1.186,0.255-1.541   c0.49-0.357,1.183-0.244,1.541,0.255c0.885,1.234,1.685,2.556,2.378,3.928c0.274,0.545,0.056,1.21-0.488,1.485   C170.184,16.136,170.014,16.174,169.845,16.174z M122.632,15.555c-0.199,0-0.397-0.052-0.576-0.162   c-0.52-0.318-0.684-0.999-0.367-1.519c0.809-1.323,1.705-2.576,2.663-3.723c0.391-0.47,1.088-0.53,1.556-0.14   c0.468,0.391,0.531,1.088,0.14,1.556c-0.889,1.065-1.72,2.228-2.473,3.459C123.366,15.367,123.003,15.555,122.632,15.555z    M164.7,9.022c-0.283,0-0.563-0.107-0.779-0.322c-1.01-1.005-2.102-1.907-3.241-2.681c-0.505-0.342-0.637-1.029-0.296-1.534   c0.343-0.504,1.032-0.638,1.534-0.294c1.256,0.851,2.454,1.841,3.561,2.943c0.434,0.431,0.434,1.13,0.004,1.562   C165.268,8.913,164.983,9.022,164.7,9.022z M128.286,8.814c-0.309,0-0.617-0.129-0.837-0.383c-0.397-0.462-0.347-1.159,0.114-1.558   c1.165-1.006,2.419-1.913,3.729-2.697c1.214-0.753,2.379,1.179,1.135,1.897c-1.2,0.718-2.35,1.55-3.418,2.472   C128.8,8.726,128.543,8.814,128.286,8.814z M135.833,4.311c-0.445,0-0.865-0.271-1.034-0.713c-0.216-0.57,0.071-1.209,0.641-1.424   c0.971-0.369,1.985-0.688,3.015-0.95c0.464-0.119,0.926-0.228,1.379-0.327c0.604-0.125,1.187,0.247,1.316,0.842   c0.132,0.597-0.246,1.186-0.842,1.316c-0.432,0.095-0.868,0.197-1.31,0.31c-0.95,0.242-1.882,0.536-2.773,0.874   C136.097,4.289,135.963,4.311,135.833,4.311z M157.427,4.1c-0.145,0-0.289-0.028-0.432-0.087c-1.275-0.54-2.622-0.964-4.005-1.259   c-0.598-0.127-0.978-0.714-0.85-1.311c0.129-0.598,0.725-0.98,1.312-0.849c1.519,0.324,3.002,0.79,4.407,1.384   c0.561,0.237,0.824,0.886,0.587,1.448C158.267,3.847,157.857,4.1,157.427,4.1z M144.431,2.373c-0.559,0-1.04-0.424-1.096-0.994   c-0.063-0.608,0.38-1.149,0.988-1.211c1.558-0.158,3.114-0.203,4.567-0.145c0.611,0.025,1.083,0.54,1.06,1.149   c-0.028,0.609-0.546,1.096-1.15,1.059c-1.355-0.054-2.799-0.013-4.256,0.136C144.507,2.371,144.47,2.373,144.431,2.373z"/>
</g>















</svg>
