<svg height="512" viewBox="0 0 128 128" width="512" xmlns="http://www.w3.org/2000/svg"><g fill-rule="evenodd"><path d="m113.011 63.366a7.175 7.175 0 0 0 -.607.478 41.457 41.457 0 0 0 -32.679-39.876 3.7 3.7 0 0 0 .317-2.93l-.637-1.972 1.16-1.716a3.98 3.98 0 0 0 -4.518-6.006l-1.969.637-1.709-1.156a3.975 3.975 0 0 0 -6.015 4.512l.634 1.971-1.158 1.717a3.816 3.816 0 0 0 .009 4.29 41.262 41.262 0 0 0 -19.059 7.085c-.083.058-.143.135-.225.193a8.456 8.456 0 0 0 -1.414-4.762 8.675 8.675 0 1 0 -14.211 9.949 8.5 8.5 0 0 0 6.8 3.553 41.254 41.254 0 0 0 -4.93 8.181 4.349 4.349 0 0 0 -1.994-.7 14.166 14.166 0 0 0 -4.444-3.714c-.786-1.9-2.885-2.729-4.744-3.009a5.384 5.384 0 0 0 -5.048 1.663 14.033 14.033 0 0 0 -5.085 2.072 13.793 13.793 0 0 0 -4.585 5.322 14.3 14.3 0 0 0 -.609 1.446 15.471 15.471 0 0 0 -.591 3.194c-1.564 1.254-1.845 3.492-1.639 5.341.283 2.543 1.529 4.1 3.326 4.663a15.993 15.993 0 0 0 5.019 6.008 11.654 11.654 0 0 0 9.094 1.806c1.966.822 3.97-.055 5.371-1.009a5.833 5.833 0 0 0 2.373-3.214 40.586 40.586 0 0 0 21.2 33.45 4.012 4.012 0 0 0 -.9 1.031l-1.072 1.774-2.049.247a3.973 3.973 0 0 0 -1.592 7.346l1.769 1.069.248 2.059a3.978 3.978 0 0 0 7.349 1.582l1.07-1.773 2.057-.248a3.979 3.979 0 0 0 1.581-7.349l-1.77-1.07-.2-1.693a41.584 41.584 0 0 0 54.536-30.5 6.976 6.976 0 1 0 1.542-9.945z" fill="#fff"/><path d="m48.785 33.259a38.2 38.2 0 1 0 53.2 9.371 38.231 38.231 0 0 0 -53.2-9.371z" fill="#5668b0"/><path d="m51.443 48.158c2.37 6.309 2.846 8.128-4.551 11.388s-.76 12.857 6.324 10.125 3.232 13.111 12.536 3.467-4.138-21.448-4.052-30.295c.068-6.849-12.626-.995-10.257 5.315z" fill="#74c8b3"/><path d="m83.245 80.364c-9.859 12.672-24.606 24.667-30.7 8.848-3.239-8.4-8.468-9.448-11.79-6.975a7.451 7.451 0 0 0 -2.208 2.769q.42.737.872 1.455a38.046 38.046 0 0 0 65.027-4.194c-6.259-1.534-13.719-11.519-21.201-1.903z" fill="#74c8b3"/><path d="m60.571 27.717c9.421 2.083 15.989 9.428 14.144 18.723-2.351 11.846 5.9 19.363 11.7 9.793s10.424-5.482 11.57-2.749 4.226 5.138 7.16-.145a5.158 5.158 0 0 1 1.447-1.726 37.98 37.98 0 0 0 -46.022-23.9z" fill="#74c8b3"/><g fill="#2f949d"><path d="m85.728 40.866a5.13 5.13 0 0 0 -1.5-1.6.909.909 0 0 0 -.866-.113.919.919 0 0 0 -.444.843c-.142 2.806-.084 4.42.432 5.328a1.263 1.263 0 0 0 1.214.657 3.426 3.426 0 0 0 1.514-.682 1.631 1.631 0 0 0 .657-.941 2.651 2.651 0 0 0 .013-1.157 6.628 6.628 0 0 0 -1.02-2.335zm.287 3.307a.839.839 0 0 1 -.357.518 3.047 3.047 0 0 1 -1.175.559c-.248.025-.338-.012-.5-.287-.313-.552-.478-2.156-.337-4.928a.674.674 0 0 1 .032-.2c-.008 0-.022 0-.009-.009.019-.009.017-.012.008.009a.528.528 0 0 1 .168.075 4.862 4.862 0 0 1 1.26 1.366 6.055 6.055 0 0 1 .905 2.065 1.943 1.943 0 0 1 .005.832z"/><path d="m63.947 60.434c-.882-1.179-2.256-2.275-3.718-2.1a2.128 2.128 0 0 0 -1.2.523 1.926 1.926 0 0 0 -.588 1.018 3.443 3.443 0 0 0 .5 2.443 4.06 4.06 0 0 0 2.145 1.79 4.011 4.011 0 0 0 3.293-.412 1.025 1.025 0 0 0 .485-.657 1.789 1.789 0 0 0 -.025-.824 4.967 4.967 0 0 0 -.892-1.781zm.2 2.433a.231.231 0 0 1 -.125.183 3.222 3.222 0 0 1 -2.7.357 3.341 3.341 0 0 1 -1.748-1.467 2.8 2.8 0 0 1 -.415-1.907 1.19 1.19 0 0 1 .346-.649 1.4 1.4 0 0 1 .809-.318c1.017-.121 2.253.759 3.04 1.81a4.364 4.364 0 0 1 .765 1.5 1.142 1.142 0 0 1 .028.491z"/><path d="m83.674 39.823c-.013.006 0 .007.009.009.009-.021.011-.018-.008-.009z"/><path d="m84.349 29.623c-.171 1.744-.813 2.68-1.592 3.09a2.886 2.886 0 0 1 -2.731-.2 5.939 5.939 0 0 1 -2.852-5.606c-.243-.042-.487-.084-.731-.121a6.68 6.68 0 0 0 3.23 6.376 3.62 3.62 0 0 0 3.427.206c1.045-.55 1.8-1.769 1.983-3.67.017-.175.047-.336.069-.506-.234-.1-.471-.186-.707-.277-.032.235-.072.464-.096.708z"/><path d="m78.173 90.948a1.791 1.791 0 0 0 -1.5.138 5.565 5.565 0 0 0 -.818.485 18.759 18.759 0 0 0 -2.855 2.672c-1.98 2.177-4.253 5.186-6.515 8.259.284.031.568.062.852.088 2.173-2.942 4.341-5.8 6.21-7.851a13.645 13.645 0 0 1 3.432-2.985 1.1 1.1 0 0 1 .887-.131c.181.081.361.293.482.8a7.756 7.756 0 0 1 -.67 4.013c-.579 1.561-1.384 3.231-2 4.741-.183.452-.342.883-.483 1.3.277-.033.552-.077.829-.115.1-.3.211-.6.339-.911.6-1.477 1.407-3.152 2-4.76a8.12 8.12 0 0 0 .7-4.441 1.779 1.779 0 0 0 -.89-1.302z"/><path d="m92.135 84.1a4.254 4.254 0 0 0 -1.965.846 8.608 8.608 0 0 0 -2.611 4.089c-1.842 5.185-2.547 8.733-3.247 11.207.3-.113.588-.235.882-.355.668-2.489 1.376-5.863 3.061-10.6 1.084-3.052 2.441-4.214 3.991-4.452s3.424.5 5.428 1.582c.977.526 1.983 1.129 3 1.718.152-.2.3-.4.446-.6-1.037-.6-2.076-1.22-3.1-1.771-2.041-1.106-4.031-1.949-5.885-1.664z"/><path d="m87.638 32.714a5.847 5.847 0 0 1 3.653-.341c-.474-.3-.956-.593-1.442-.875a5.825 5.825 0 0 0 -2.546.558 3.3 3.3 0 0 0 -1.9 3c0 1.374.726 3.025 2.406 4.941a6.806 6.806 0 0 1 2 5 5.265 5.265 0 0 1 -1.877 3.595 4.934 4.934 0 0 1 -3.431 1.25 3.018 3.018 0 0 1 -2.678-2.031c-1.188-2.857-.827-5.105-1.457-8.028s-2.276-6.421-7.44-11.64a19.055 19.055 0 0 0 -2.048-1.795c-.416 0-.834.007-1.251.019a18.259 18.259 0 0 1 2.774 2.3c5.1 5.157 6.642 8.49 7.243 11.275s.237 5.126 1.5 8.157a3.83 3.83 0 0 0 3.3 2.484 5.616 5.616 0 0 0 3.956-1.429 6.006 6.006 0 0 0 2.134-4.1 7.572 7.572 0 0 0 -2.176-5.547c-1.61-1.835-2.222-3.343-2.223-4.452a2.489 2.489 0 0 1 1.503-2.341z"/><path d="m103.657 46.28a11.135 11.135 0 0 1 -4.353.658 2.687 2.687 0 0 1 -1.426-.387 1.375 1.375 0 0 1 -.555-.853 9.432 9.432 0 0 1 .188-3.271 17.409 17.409 0 0 0 .33-4.334c-.015-.169-.056-.336-.082-.505q-.489-.489-.992-.96a6.525 6.525 0 0 1 .338 1.531 16.99 16.99 0 0 1 -.322 4.151 9.35 9.35 0 0 0 -.176 3.57 2.178 2.178 0 0 0 .846 1.276 3.373 3.373 0 0 0 1.816.519 11.8 11.8 0 0 0 4.65-.7c.184-.07.356-.163.535-.244-.114-.219-.242-.43-.36-.646-.147.06-.285.137-.437.195z"/><path d="m91.029 79.592a9.221 9.221 0 0 0 -6.419 1.27 7.356 7.356 0 0 0 -.847.658c-2.139 1.933-2.56 4.126-1.969 5.494a1.83 1.83 0 0 0 1.606 1.186 2.8 2.8 0 0 0 2.161-1.3c2.5-3.212 5.486-3.618 7.472-4.642a1.271 1.271 0 0 0 .741-.8.987.987 0 0 0 -.342-.917 4.574 4.574 0 0 0 -2.403-.949zm1.662 2.008c-1.773.915-5.062 1.431-7.717 4.846a2.114 2.114 0 0 1 -1.561 1.016 1.055 1.055 0 0 1 -.942-.74c-.42-.972-.181-2.875 1.787-4.653a6.362 6.362 0 0 1 .763-.591 8.57 8.57 0 0 1 5.891-1.155 4.324 4.324 0 0 1 2.007.753c.138.132.139.186.131.22s-.079.159-.359.304z"/><path d="m65.523 58.908c-.857-.866-1.8-1.624-2.486-2.36a2.744 2.744 0 0 1 -.985-2.136c.382-3.153-.242-5.945-1.63-7.166a2.146 2.146 0 0 0 -2.565-.233 7.691 7.691 0 0 0 -2.69 3.413c-1.878 3.805-.13 9.351 2.533 13.2a11.079 11.079 0 0 0 4.474 4.074 3.249 3.249 0 0 0 4.3-1.419 5.555 5.555 0 0 0 .972-4.3 6.669 6.669 0 0 0 -1.923-3.073zm.327 6.979a2.518 2.518 0 0 1 -3.4 1.128 10.578 10.578 0 0 1 -4.145-3.81c-2.556-3.695-4.142-9.078-2.478-12.452a7.193 7.193 0 0 1 2.394-3.1 1.3 1.3 0 0 1 1.71.146c1.022.9 1.749 3.528 1.386 6.524a3.459 3.459 0 0 0 1.183 2.727c.74.8 1.688 1.553 2.5 2.378a6 6 0 0 1 1.731 2.724 4.756 4.756 0 0 1 -.881 3.735z"/></g><path d="m60.772 30.248a17.376 17.376 0 0 1 -2.582-1.783c-.273.094-.545.19-.816.29a18.169 18.169 0 0 0 3.035 2.136 16.065 16.065 0 0 1 5.576 4.664 4.04 4.04 0 0 1 .712 1.782 1.275 1.275 0 0 1 -.334 1.077c-.5.507-1.734.693-3.595.027a22.1 22.1 0 0 1 -7.109-4.763c-1.063-.987-1.972-1.951-2.8-2.893q-.334.174-.666.354a40.75 40.75 0 0 0 2.969 3.079 22.71 22.71 0 0 0 7.362 4.918c2 .715 3.538.633 4.368-.2a2.058 2.058 0 0 0 .546-1.661 4.7 4.7 0 0 0 -.83-2.123 16.645 16.645 0 0 0 -5.836-4.904z" fill="#8babd9"/><path d="m79.425 66.719h.015c-.01-.005-.013-.013-.015 0z" fill="#8babd9"/><path d="m79.817 66.084a.964.964 0 0 0 -.691-.084 5.086 5.086 0 0 0 -1.619.741c-.312.194-.645.419-.992.67a32.173 32.173 0 0 0 -3.308 2.8 22.151 22.151 0 0 0 -3.6 4.278 4.143 4.143 0 0 0 -.67 1.836 1.368 1.368 0 0 0 .853 1.344c1.879.759 4.575 1.243 6.794-.133s3.806-4.556 3.583-10.809a.786.786 0 0 0 -.35-.643zm-3.626 10.827c-1.92 1.19-4.378.781-6.128.074a.521.521 0 0 1 -.391-.628 3.656 3.656 0 0 1 .569-1.492 21.718 21.718 0 0 1 3.478-4.12 27.713 27.713 0 0 1 4.181-3.374 4.876 4.876 0 0 1 1.365-.643.46.46 0 0 1 .163-.009c0-.013.005 0 .015 0-.01-.006-.013-.014-.015 0a.333.333 0 0 0 0 .036c.215 6.12-1.318 8.965-3.237 10.156z" fill="#8babd9"/><path d="m102.921 56.533c-4.756 1.315-10.539 3.426-14.121 11.167-3.5 7.567-8.471 13.018-14.608 14.884s-13.517.191-21.986-6.7c-7.906-6.434-13.578-11.551-17.696-14.084a17.211 17.211 0 0 0 -1.812-.969c-.011.265-.02.53-.025.8.455.222.937.489 1.451.8 4 2.454 9.694 7.577 17.612 14.021 8.588 6.988 16.255 8.783 22.668 6.834s11.5-7.6 15.062-15.281c3.481-7.514 8.94-9.459 13.651-10.762 1.711-.473 3.315-.853 4.693-1.388q-.09-.361-.187-.72c-1.323.521-2.941.911-4.702 1.398z" fill="#8babd9"/><path d="m63.747 86.149a24.723 24.723 0 0 0 -7.614 1.578 3.449 3.449 0 0 0 -.956.471 1.4 1.4 0 0 0 -.507.654 1.461 1.461 0 0 0 .45 1.455 9.443 9.443 0 0 0 4.008 2.093 13.062 13.062 0 0 0 5.265.576 4.634 4.634 0 0 0 2.12-.774 2.8 2.8 0 0 0 1.125-1.841 3.432 3.432 0 0 0 -.836-3.268 4.561 4.561 0 0 0 -3.055-.944zm3.163 4.093a2.005 2.005 0 0 1 -.833 1.365 3.942 3.942 0 0 1 -1.785.637 12.467 12.467 0 0 1 -4.951-.551 9.248 9.248 0 0 1 -3.68-1.889c-.3-.319-.355-.536-.3-.707a.74.74 0 0 1 .273-.312 2.729 2.729 0 0 1 .733-.359 24.492 24.492 0 0 1 7.363-1.538 3.94 3.94 0 0 1 2.572.753 2.644 2.644 0 0 1 .608 2.601z" fill="#8babd9"/><path d="m100.056 71.865a3.523 3.523 0 0 0 -1 2.55 3.218 3.218 0 0 0 1.3 2.116 18.8 18.8 0 0 0 5.6 2.656c.087-.231.173-.462.256-.695a18.774 18.774 0 0 1 -5.39-2.531 2.475 2.475 0 0 1 -1.022-1.617 2.79 2.79 0 0 1 .83-2.008c2.126-2.566 5.221-3.654 8.1-4.815.012-.275.02-.549.026-.823a31.769 31.769 0 0 0 -6.275 2.982 11.67 11.67 0 0 0 -2.425 2.185z" fill="#8babd9"/><path d="m40.657 73.061a6.886 6.886 0 0 0 -4.224-3.336 20.836 20.836 0 0 0 -3.577-.758q.039.379.085.759a19.606 19.606 0 0 1 3.259.7 6.1 6.1 0 0 1 3.8 2.974 6.281 6.281 0 0 1 .671 1.742c.047.345 0 .391-.1.458a1.768 1.768 0 0 1 -.768.132c-.387.007-.869-.019-1.39-.009a4.355 4.355 0 0 0 -3.21 1.155 4.122 4.122 0 0 0 -.409.56q.172.423.355.843a3.478 3.478 0 0 1 .585-.889 3.61 3.61 0 0 1 2.692-.931c.486-.008.96.019 1.389.011a2.088 2.088 0 0 0 1.162-.254 1.176 1.176 0 0 0 .429-1.175 6.645 6.645 0 0 0 -.749-1.982z" fill="#8babd9"/><path d="m45.992 45.963a2.982 2.982 0 0 0 -1.746-1.045 1.487 1.487 0 0 0 -.8.131 1.744 1.744 0 0 0 -.343.212 1.912 1.912 0 0 0 -.291.285 5.687 5.687 0 0 0 -.873 3.817 7.65 7.65 0 0 0 1.484 4.318 3.991 3.991 0 0 0 4.328 1.325 7.065 7.065 0 0 0 3.47-1.6 1.572 1.572 0 0 0 .423-1.106 2.266 2.266 0 0 0 -.407-1.124c-.937-1.462-3.182-3.055-5.245-5.213zm4.682 6.95a6.9 6.9 0 0 1 -3.107 1.38 3.155 3.155 0 0 1 -3.567-1.077 7.035 7.035 0 0 1 -1.32-3.9 5.325 5.325 0 0 1 .7-3.3 1.094 1.094 0 0 1 .362-.3.762.762 0 0 1 .418-.062 2.351 2.351 0 0 1 1.294.822c2.119 2.217 4.4 3.907 5.162 5.1a1.592 1.592 0 0 1 .289.756.764.764 0 0 1 -.231.581z" fill="#8babd9"/><path d="m29.892 50.374a.844.844 0 0 1 -.907-.348 10.83 10.83 0 0 0 -4.585-4.075q-.366-.174-.736-.319a.8.8 0 0 1 -.448-.818c.028-.6-.419-1.011-2.12-1.268-1.345-.2-1.84.172-2.054.707a1.039 1.039 0 0 1 -.768.66 10.431 10.431 0 0 0 -8.234 5.774 10.6 10.6 0 0 0 -.46 1.09 12.519 12.519 0 0 0 -.728 3.946.7.7 0 0 1 -.623.641c-.594.12-.887.652-.694 2.379.171 1.538.781 1.821 1.452 1.816a.914.914 0 0 1 .839.527 12.808 12.808 0 0 0 4.559 5.828 8.478 8.478 0 0 0 7.269 1.124 1.147 1.147 0 0 1 .96.313c.393.313 1.015.219 2.284-.645.744-.507 1.043-.946 1.1-1.341a1.773 1.773 0 0 1 .382-1.02 13.323 13.323 0 0 0 3.027-4.071 12.287 12.287 0 0 0 1.2-6.165.653.653 0 0 1 .56-.689c.872-.143 1.292-.559.645-2.585-.502-1.58-1.212-1.647-1.92-1.461z" fill="#79809f"/><path d="m24.121 55.876a3.042 3.042 0 0 0 5.49 2.623c.552-1.2-.794-1.72-1.433-4.057-.444-1.62-3.333-.082-4.057 1.434z" fill="#495271"/><path d="m18.75 61.978a2.309 2.309 0 0 0 -.351 4.6c1 .062 1-1.034 2.478-2.126 1.023-.752-.856-2.377-2.127-2.474z" fill="#495271"/><path d="m24.19 66.506c-.6.643-1.1.83-1.143 1.129-.053.38.395.482.982.235s1.1-.752 1.143-1.129-.565-.682-.982-.235z" fill="#495271"/><path d="m16.307 48.815a2.309 2.309 0 1 0 -.351 4.6c1 .062 1.425-.421 2.9-1.514 1.028-.754-1.278-2.989-2.549-3.086z" fill="#495271"/><path d="m11.5 59.837a1.817 1.817 0 1 0 3.281 1.563c.329-.717-.475-1.028-.856-2.423-.265-.964-1.991-.045-2.425.86z" fill="#495271"/><path d="m26.842 57.058a1.223 1.223 0 1 0 2.208 1.054c.221-.482-.32-.691-.577-1.631-.173-.652-1.34-.033-1.631.577z" fill="#79809f"/><path d="m20.4 43.83c-.629.094-.96.413-.717.711.19.234.715.134 1.563.373.588.165.951-.412.717-.711a1.875 1.875 0 0 0 -1.563-.373z" fill="#495271"/><path d="m18.6 53.251a24.331 24.331 0 0 1 -6.348.271 5.149 5.149 0 0 1 -2.83-1.262c-.08.252-.148.507-.211.763a6.135 6.135 0 0 0 2.922 1.23 24.4 24.4 0 0 0 6.555-.267 1.566 1.566 0 0 1 1.76.952 4.194 4.194 0 0 1 .242 2.562 3.238 3.238 0 0 1 -1.19 2.064c-.57.373-1.285.421-2.321-.3a55.618 55.618 0 0 0 -5.655-3.851 6.176 6.176 0 0 0 -2.61-.7c-.025.239-.041.479-.052.718a5.4 5.4 0 0 1 2.331.648 58.147 58.147 0 0 1 5.563 3.8 2.754 2.754 0 0 0 3.151.306 3.873 3.873 0 0 0 1.509-2.548 4.82 4.82 0 0 0 -.31-3.032 2.4 2.4 0 0 0 -2.506-1.354z" fill="#495271"/><path d="m25.207 49.42a2.379 2.379 0 0 1 -1.963.914c-.754-.074-1.81-.621-3.344-1.99a14.874 14.874 0 0 0 -4.328-2.751 10.384 10.384 0 0 0 -.981.441 13.64 13.64 0 0 1 4.814 2.866c1.584 1.414 2.739 2.074 3.765 2.175a3.184 3.184 0 0 0 2.555-1.122c.548-.534 1.088-1.186 1.727-1.851-.175-.175-.357-.344-.547-.509-.661.686-1.196 1.339-1.698 1.827z" fill="#495271"/><path d="m28.554 50.376a1.321 1.321 0 0 0 -1.022-.369 2.584 2.584 0 0 0 -1.624.612 1.092 1.092 0 0 0 -.2.276 1.137 1.137 0 0 0 -.106.308 1.151 1.151 0 0 0 .055.62 2.058 2.058 0 0 0 2.213 1.165 1.448 1.448 0 0 0 1.08-.635 1.4 1.4 0 0 0 .135-1.067 1.821 1.821 0 0 0 -.531-.91zm-.239 1.592a.661.661 0 0 1 -.543.284 1.455 1.455 0 0 1 -1.42-.7.32.32 0 0 1 0-.312.561.561 0 0 1 .085-.1 2 2 0 0 1 1.171-.4.57.57 0 0 1 .444.177 1.14 1.14 0 0 1 .313.539.677.677 0 0 1 -.05.512z" fill="#495271"/><path d="m18.076 55.566a1.31 1.31 0 0 0 -1-.088 1.623 1.623 0 0 0 -1.009.853 1.039 1.039 0 0 0 -.054.16 1.474 1.474 0 0 0 .275 1.212 1.982 1.982 0 0 0 1 .748 1.434 1.434 0 0 0 1.878-1.228 1.585 1.585 0 0 0 -.314-1 2.029 2.029 0 0 0 -.776-.657zm.054 2.093a.622.622 0 0 1 -.616.085 1.3 1.3 0 0 1 -.622-.469.767.767 0 0 1 -.162-.6.536.536 0 0 1 .051-.127.926.926 0 0 1 .538-.368.606.606 0 0 1 .438.059 1.336 1.336 0 0 1 .488.417.855.855 0 0 1 .178.526.612.612 0 0 1 -.293.477z" fill="#495271"/><path d="m22.674 59.588a1.584 1.584 0 0 0 -1.318.924 1.375 1.375 0 0 0 -.077.218c-.322 1.2.568 2.776 2.6 3.5a12.948 12.948 0 0 1 2.47 1.157c.012-.012.022-.027.034-.038.175-.16.345-.326.512-.5a.137.137 0 0 0 -.024-.018 13.181 13.181 0 0 0 -2.743-1.306c-1.771-.628-2.31-1.929-2.129-2.6a.759.759 0 0 1 .752-.6 3.441 3.441 0 0 1 2.106.774 17.925 17.925 0 0 0 3.512 1.961c.145-.209.286-.422.419-.641a16.883 16.883 0 0 1 -3.513-1.932 4.067 4.067 0 0 0 -2.601-.899z" fill="#495271"/><path d="m77.122 14.671-2.165.7a3.077 3.077 0 0 1 -2.668-.378l-1.889-1.274a.478.478 0 0 0 -.556.013.476.476 0 0 0 -.168.529l.7 2.166a3.075 3.075 0 0 1 -.376 2.667l-1.271 1.886a.477.477 0 0 0 .542.722l2.166-.7a3.076 3.076 0 0 1 2.667.379l1.886 1.274a.477.477 0 0 0 .722-.542l-.7-2.166a3.081 3.081 0 0 1 .378-2.668l1.275-1.885a.478.478 0 0 0 -.543-.723z" fill="#fbe986"/><path d="m55.15 108.39a3.078 3.078 0 0 1 -1.461-2.263l-.272-2.26a.478.478 0 0 0 -.883-.191l-1.178 1.948a3.075 3.075 0 0 1 -2.263 1.461l-2.26.272a.477.477 0 0 0 -.19.883l1.947 1.178a3.077 3.077 0 0 1 1.461 2.264l.272 2.26a.478.478 0 0 0 .883.19l1.179-1.948a3.078 3.078 0 0 1 2.263-1.461l2.26-.272a.478.478 0 0 0 .19-.883z" fill="#fbe986"/><path d="m115.017 66.231a3.479 3.479 0 1 0 4.845.853 3.479 3.479 0 0 0 -4.845-.853z" fill="#fbe986"/><path d="m35.064 26.562a5.177 5.177 0 1 0 7.211 1.27 5.2 5.2 0 0 0 -7.211-1.27z" fill="#fbe986"/></g></svg>