<svg height="512" viewBox="0 0 128 128" width="512" xmlns="http://www.w3.org/2000/svg"><g fill-rule="evenodd"><path d="m22.96 14.84a6.06 6.06 0 1 0 6.057 6.06 6.032 6.032 0 0 0 -6.057-6.06z" fill="#fff"/><path d="m120.1 47.41c2.936-3.41 1.522-7.65-2.423-12.53-3.174-3.93-6.581-5.2-9.8-4.36a8.032 8.032 0 0 0 .165-1.33 8.043 8.043 0 0 0 -8.07-8.07 7.918 7.918 0 0 0 -6.7 3.82 41.244 41.244 0 0 0 -4.287-.87l.616-2.3a5.12 5.12 0 0 0 -8.563-4.94l-4.265 4.26a5.776 5.776 0 0 1 -5.222 1.03c-.511-.14-1.021-.28-1.527-.41a5.77 5.77 0 0 1 -4.011-3.5l-.344-1.3a6.377 6.377 0 0 0 -12.316 0l-.365 1.36a5.721 5.721 0 0 1 -4 3.49c-.492.12-.986.26-1.479.4a5.855 5.855 0 0 1 -5.245-1.05l-5.326-5.32a4.723 4.723 0 0 0 -7.9 4.56l1.962 7.34a5.8 5.8 0 0 1 -1.718 5.05c-.348.33-.7.68-1.044 1.04a5.8 5.8 0 0 1 -5.048 1.72l-1.414-.38a6.369 6.369 0 0 0 -6.151 10.65l.983.98a5.849 5.849 0 0 1 1.045 5.25c-.14.49-.271.99-.392 1.48a5.729 5.729 0 0 1 -3.488 4l-6.007 1.61a5.091 5.091 0 0 0 0 9.83l6.01 1.61a5.73 5.73 0 0 1 3.489 4c.121.49.252.98.392 1.48a5.832 5.832 0 0 1 -1.044 5.24l-.985.99c-4.6 4.594-1.386 10.272 6.724 10.978 0 0-7.9 1.157-7.493 8.4a8.212 8.212 0 0 0 8.072 8.066 7.906 7.906 0 0 0 6.513-3.552l-.41 1.534a4.725 4.725 0 0 0 7.9 4.554l5.32-5.317a5.832 5.832 0 0 1 5.244-1.048c.495.141.991.272 1.481.392a5.739 5.739 0 0 1 4 3.494l.365 1.355a6.378 6.378 0 0 0 12.314 0l.447-1.67c.771.169 1.5.358 2.366.484 3.553.514 6.535.147 8.72-1.637a2.939 2.939 0 0 0 .485-.44l3.353 3.353a5.12 5.12 0 0 0 8.563-4.944l-.054-.2a47.706 47.706 0 0 0 6.829-2.107c1.118-.451 2.167-1.013 3.239-1.537a7.813 7.813 0 0 0 -.362 1.8 8.07 8.07 0 1 0 16.139 0 7.929 7.929 0 0 0 -6.544-7.764 38.925 38.925 0 0 0 6.209-6.36 41.442 41.442 0 0 0 8.255-17.945 40.376 40.376 0 0 0 -2.327-22.75c-.271-.679-.576-1.319-.876-1.969z" fill="#fff"/><path d="m99.965 24.87a4.32 4.32 0 1 0 4.319 4.32 4.34 4.34 0 0 0 -4.319-4.32z" fill="#495271"/><path d="m115.082 64.01-15.982-4.29a39.837 39.837 0 0 0 -3.167-11.8l11.7-11.71-15.975 4.29a39.849 39.849 0 0 0 -8.646-8.65l2.96-11.05a1.3 1.3 0 0 0 .047-.35 1.377 1.377 0 0 0 -1.368-1.37 1.355 1.355 0 0 0 -.968.4l-4.264 4.27c-2.115 2.11-6.042 2.8-8.913 1.98-.463-.14-.928-.26-1.395-.38-2.9-.72-5.953-3.29-6.727-6.17l-.345-1.29a2.624 2.624 0 0 0 -5.072 0l-.367 1.35c-.774 2.89-3.829 5.45-6.73 6.17-.453.11-.9.23-1.351.35-2.874.82-6.806.12-8.92-2l-5.319-5.32a.97.97 0 0 0 -1.661.69.976.976 0 0 0 .033.25l1.966 7.34c.774 2.88-.586 6.64-2.734 8.71-.323.32-.641.63-.953.96-2.076 2.14-5.828 3.5-8.716 2.73l-1.415-.38a2.585 2.585 0 0 0 -.677-.09 2.619 2.619 0 0 0 -1.851 4.47l.984.98c2.114 2.12 2.817 6.05 2 8.92-.127.45-.246.9-.357 1.36-.713 2.9-3.273 5.95-6.161 6.73l-6.006 1.61a1.329 1.329 0 0 0 0 2.57l6.01 1.61c2.888.78 5.448 3.83 6.161 6.73.111.46.23.91.357 1.36.814 2.87.111 6.8-2 8.92l-.984.98a2.617 2.617 0 0 0 1.85 4.467 2.58 2.58 0 0 0 .677-.09l1.414-.378c2.888-.775 6.64.586 8.716 2.733q.468.486.953.954c2.148 2.076 3.509 5.828 2.735 8.716l-1.966 7.337a.966.966 0 0 0 -.033.251.974.974 0 0 0 1.662.689l5.319-5.32c2.114-2.114 6.046-2.817 8.92-2q.673.191 1.353.357c2.9.714 5.956 3.273 6.73 6.161l.363 1.356a2.626 2.626 0 0 0 5.072 0l1.764-6.584a39.819 39.819 0 0 0 11.771-3.115l8.108 8.108a1.369 1.369 0 0 0 2.289-1.322l-2.988-11.145a39.842 39.842 0 0 0 8.576-8.578l16.075 4.313-11.716-11.72a39.784 39.784 0 0 0 3.113-11.78z" fill="#fbe986"/><path d="m59.5 29.71a34.295 34.295 0 1 0 34.3 34.29 34.457 34.457 0 0 0 -34.3-34.29z" fill="#f6a43d"/><path d="m116.393 48.31a2.713 2.713 0 0 1 .754-3.07c1.433-1.42 1.265-3.48-2.392-8.01-2.891-3.58-4.982-3.78-6.739-2.93a3.531 3.531 0 0 1 -3.425-.11 35.279 35.279 0 0 0 -33.738-4.42 36.484 36.484 0 0 0 -3.642 1.67 42.357 42.357 0 0 0 -10.835 8.18 2.361 2.361 0 0 1 -3.018.17c-1.757-1.06-3.7-.4-7.172 4.35-3.089 4.23-2.214 6.33-.528 7.85a3.089 3.089 0 0 1 .889 3.23 43.384 43.384 0 0 0 -1.953 24.97 28.694 28.694 0 0 0 15.567 19.416 3.889 3.889 0 0 1 1.679 2.977c.264 1.679 2.031 2.866 7.171 3.611 3.014.436 4.764.025 5.81-.83.893-.728 2.119-1.673 3.285-1.671a45.064 45.064 0 0 0 16.859-3.238 39.767 39.767 0 0 0 17.088-12.634 38.118 38.118 0 0 0 7.569-16.391 36.663 36.663 0 0 0 -2.122-20.65c-.341-.84-.712-1.67-1.107-2.47z" fill="#79809f"/><path d="m94.115 74.9a10.3 10.3 0 0 0 7.7 19.1c4.119-1.73 1.95-6.108 5.7-13.4 2.596-5.06-8.128-7.82-13.4-5.7z" fill="#495271"/><path d="m55.724 77.49a7.773 7.773 0 0 0 -.358 11.042c2.353 2.44 4.856-.294 11.041.358 4.291.453 3.309-7.89.359-11.04a7.811 7.811 0 0 0 -11.042-.36z" fill="#495271"/><path d="m60.181 81.33a4.406 4.406 0 0 0 -.2 6.258c1.334 1.383 2.753-.167 6.259.2 2.432.257 1.876-4.471.2-6.261a4.434 4.434 0 0 0 -6.259-.197z" fill="#79809f"/><path d="m69.987 101.579c-2.973.23-4.646-.448-5.433.2-1 .828-.117 2.106 1.911 2.833s4.461.635 5.433-.2.151-2.993-1.911-2.833z" fill="#495271"/><path d="m79.719 39.07a7.771 7.771 0 0 0 -.358 11.04c2.353 2.44 4.518 2.21 10.7 2.86 4.291.45 3.646-10.4.7-13.54a7.809 7.809 0 0 0 -11.042-.36z" fill="#495271"/><path d="m84.748 38.73c-1.784 1.68-2.645 7.08-.948 8.84 1.334 1.38 2.753-.17 6.259.2 2.432.26 2.25-5.03.578-6.82s-4.104-3.89-5.889-2.22z" fill="#79809f"/><path d="m53.578 55.94a6.146 6.146 0 1 0 4.6 11.4c2.46-1.03 1.165-3.65 3.4-8 1.554-3.02-4.851-4.67-8-3.4z" fill="#495271"/><path d="m98.2 84.07a4.14 4.14 0 0 0 3.1 7.679c1.657-.7.784-2.456 2.291-5.388 1.042-2.033-3.27-3.141-5.391-2.291z" fill="#79809f"/><g fill="#495271"><path d="m63.453 38.94a9.328 9.328 0 0 0 -3.489-1.79c-.248-.08-.529-.12-.79-.19-.2.18-.4.35-.6.53a10.521 10.521 0 0 1 1.188.3 8.91 8.91 0 0 1 3.244 1.65 3.2 3.2 0 0 1 1.158 2.04c.176 1.45-.788 3.23-2.755 5.03-3.014 2.75-8.3 5.49-14.758 7.31a2.91 2.91 0 0 1 .04.69c6.592-1.83 12.013-4.62 15.173-7.51 2.046-1.87 3.187-3.8 2.97-5.6a3.868 3.868 0 0 0 -1.381-2.46z"/><path d="m84.519 73.75c1.644-3.18 1.332-5.97-.306-7.96s-4.526-3.17-7.965-3.41a22.5 22.5 0 0 0 -9.884 1.7 27.3 27.3 0 0 0 -12.21 10.01c-2.946 4.31-6.3 5.43-9.5 4.76-.123-.03-.244-.07-.367-.1.048.24.1.49.156.74a.2.2 0 0 1 .072.02c3.439.72 7.138-.58 10.19-5.04 5.936-8.66 14.878-11.88 21.495-11.42 3.309.23 6.019 1.39 7.492 3.17s1.783 4.21.226 7.23c-3.2 6.2-6.059 12.094-5.126 18.38.54 3.643 2.366 7.382 6.073 11.358.268-.04.534-.088.8-.133-3.837-4.014-5.676-7.739-6.208-11.325-.891-6.03 1.864-11.78 5.062-17.98z"/><path d="m110.531 58.52c-.266-3.83.248-6.39 1.139-8.22a10.573 10.573 0 0 1 3.487-3.96c.86-.64 1.736-1.21 2.538-1.87a2.469 2.469 0 0 0 .285-1.17 29.423 29.423 0 0 1 -3.224 2.5 11.3 11.3 0 0 0 -3.693 4.2c-.953 1.97-1.476 4.65-1.2 8.57.534 7.7 5.187 11.34 9.751 13 .006-.05.005-.09.013-.14.034-.18.051-.36.083-.54-4.365-1.62-8.668-5-9.179-12.37z"/><path d="m100.656 31.72c-.269-.15-.543-.28-.815-.42.682 2.83 2.033 6.15 3.068 9.49 1.071 3.46 1.778 6.92 1.074 9.79s-2.767 5.21-7.471 6.54c-9.437 2.67-17.983-.66-22.784-5.98a14.881 14.881 0 0 1 -4.038-8.95 11.223 11.223 0 0 1 3.647-8.9 27.754 27.754 0 0 1 9.08-5.82c.092-.04.184-.07.276-.11-.646.02-1.291.06-1.938.11a28.252 28.252 0 0 0 -7.888 5.33 11.971 11.971 0 0 0 -3.85 9.43 15.526 15.526 0 0 0 4.21 9.36c4.973 5.51 13.787 8.92 23.473 6.18 4.856-1.38 7.184-3.94 7.942-7.03s0-6.65-1.085-10.15c-.98-3.15-2.2-6.24-2.901-8.87z"/></g><path d="m104.635 57.21c-3.942 1.29-13.105 6.73-5.707 11.51s10.116-12.96 5.707-11.51z" fill="#8890b4"/><path d="m78.727 67.16c-3.942 1.3-13.105 6.73-5.707 11.52s10.116-12.97 5.707-11.52z" fill="#8890b4"/><path d="m50.405 41.24c-2.327 2.03-7.59 7.87-2.788 7.48s5.391-9.74 2.788-7.48z" fill="#8890b4"/><path d="m112.378 36.36c-1.784-1.21-3.339-1.17-3.414.13-.06 1.02 1.476 1.97 3.047 4.5 1.09 1.76 3.313 1.15 3.414-.13s-1.262-3.3-3.047-4.5z" fill="#495271"/><path d="m22.96 18.59a2.31 2.31 0 1 0 2.307 2.31 2.318 2.318 0 0 0 -2.307-2.31z" fill="#fbe986"/><path d="m22.924 97.3a4.32 4.32 0 1 0 4.319 4.319 4.339 4.339 0 0 0 -4.319-4.319z" fill="#fbe986"/><path d="m59.151 92.6a4.319 4.319 0 1 0 4.32 4.319 4.34 4.34 0 0 0 -4.32-4.319z" fill="#f6a43d"/><path d="m107.316 99.88a4.319 4.319 0 1 0 4.319 4.319 4.34 4.34 0 0 0 -4.319-4.319z" fill="#495271"/></g></svg>