<?xml version="1.0" encoding="iso-8859-1"?>
<!-- Generator: Adobe Illustrator 26.5.1, SVG Export Plug-In . SVG Version: 6.00 Build 0)  -->
<svg xmlns="http://www.w3.org/2000/svg" xmlns:xlink="http://www.w3.org/1999/xlink" version="1.1" id="Capa_1" x="0px" y="0px" viewBox="0 0 512 512" style="enable-background:new 0 0 512 512;" xml:space="preserve">
<g>
	<g>
		<g>
			<g>
				<path style="fill:#3710A8;" d="M511.484,185.16C504.728,95.063,415.795,51.2,320.255,45.503L99.936,151.273l-63.422,89.229      c25.203,35.37,105.643-4.893,150.035,26.199c13.492,9.446,20.417,32.871,26.41,59.874l83.553,43.787l185.066-65.263      C502.462,269.221,514.724,228.473,511.484,185.16z"/>
			</g>
			<g>
				<path style="fill:#6132E3;" d="M320.255,45.503c-63.644,41.385-121.273,93.359-182.588,137.539      c-34.734,24.293-66.61,46.405-101.153,57.46c-0.551-0.762-1.081-1.546-1.568-2.393C11.669,198.567,41.3,126.387,164.607,71.321      C209.337,51.348,265.865,42.241,320.255,45.503z"/>
			</g>
			<g>
				<path style="fill:#6132E3;" d="M481.578,305.099c-47.252,81.203-138.619,137.539-194.067,142.686      c-53.818,4.998-62.225-65.677-74.552-121.21c19.443-3.114,39.585-4.956,60.256-5.867      C342.323,317.427,413.466,317.807,481.578,305.099z"/>
			</g>
		</g>
		<g>
			<g>
				<path style="fill:#D796FF;" d="M213.686,135.958c-4.533,4.125-10.564,6.642-17.187,6.642c-6.383,0-12.228-2.35-16.705-6.216      c1.165-0.314,6.743-5.954,7.797-6.12C197.821,128.654,203.603,136.624,213.686,135.958z"/>
			</g>
			<g>
				<path style="fill:#D796FF;" d="M195.111,132.036c-4.28-0.012-13.929,0.26-18.037,1.61c-3.848-4.458-6.16-10.286-6.16-16.631      c0-0.332,0-0.685,0.037-1.018c1.979-1.072,3.089-6.283,4.736-7.855c6.068-5.661,9.99-9.553,14.874-16.027      c1.905-0.462,3.903-0.702,5.938-0.702c12.858,0,23.495,9.489,25.308,21.848C210.059,115.295,211.116,132.079,195.111,132.036z"/>
			</g>
			<g>
				<path style="fill:#C175FF;" d="M222.084,117.015c0,7.511-3.237,14.263-8.381,18.943h-0.018      c-10.083,0.666-20.295-1.923-30.525-0.314c-1.054,0.166-2.201,0.425-3.366,0.739c-0.981-0.832-1.906-1.757-2.72-2.738      c4.108-1.35,8.065-3.608,11.822-5.661c10.36-5.883,21.163-12.69,32.911-14.725C221.991,114.48,222.084,115.739,222.084,117.015z      "/>
			</g>
			<g>
				<path style="fill:#C175FF;" d="M190.561,92.115c-4.884,6.475-8.029,14.152-14.097,19.813c-1.647,1.572-3.534,2.997-5.513,4.069      C171.396,104.361,179.61,94.704,190.561,92.115z"/>
			</g>
			<g>
				<ellipse style="fill:#C175FF;" cx="196.246" cy="103.945" rx="8.655" ry="5.197"/>
			</g>
			<g>
				<path style="fill:#C175FF;" d="M212.862,109.142c0,1.38-1.665,2.495-3.72,2.495c-2.053,0-3.719-1.116-3.719-2.495      c0-1.378,1.666-2.492,3.719-2.492C211.197,106.65,212.862,107.764,212.862,109.142z"/>
			</g>
		</g>
		<g>
			<g>
				<polygon style="fill:#FFC325;" points="418.412,257.862 409.798,267.606 427.887,263.604 423.924,272.237 433.058,265.87       437.364,281.88 446.84,267.026 452.009,275.134 452.698,264.408 467.479,270.888 461.657,259.309 472.857,260.658       467.479,254.484 484.917,248.502 470.616,243.097 484.917,233.063 471.134,234.993 482.162,220.133 466.654,224.959       471.479,217.624 461.831,221.053 464.414,204.889 452.527,218.396 450.286,207.205 445.533,217.624 437.537,204.889       436.157,219.554 423.581,212.031 427.887,222.642 420.133,221.053 421.554,229.41 407.386,231.521 418.735,237.506       403.228,243.384 416.398,247.68 407.729,254.291     "/>
			</g>
			<g>
				<polygon style="fill:#FB2AB5;" points="424.439,254.46 417.847,261.916 431.69,258.854 428.657,265.461 435.644,260.59       438.939,272.838 446.192,261.475 450.144,267.679 450.674,259.47 461.982,264.428 457.527,255.568 466.097,256.601       461.982,251.878 475.325,247.3 464.382,243.167 475.325,235.487 464.779,236.963 473.216,225.594 461.35,229.286       465.042,223.674 457.66,226.298 459.638,213.928 450.54,224.265 448.826,215.702 445.189,223.674 439.072,213.928       438.016,225.152 428.392,219.393 431.69,227.514 425.755,226.298 426.843,232.69 415.999,234.305 424.686,238.887       412.82,243.384 422.899,246.671 416.265,251.73     "/>
			</g>
			<g>
				<path style="fill:#FFC325;" d="M463.76,238.224c1.567,9.558-5.979,19.116-16.854,21.349      c-10.872,2.235-20.956-3.701-22.521-13.259c-1.567-9.559,5.978-19.117,16.851-21.352      C452.111,222.727,462.195,228.665,463.76,238.224z"/>
			</g>
		</g>
		<g>
			<g>
				<polygon style="fill:#FFFFFF;" points="241.302,66.222 236.686,66.572 240.275,69.313 238.954,73.262 242.369,70.915       247.105,74.53 245.549,68.729 250.173,65.552 244.802,65.958 243.283,60.287     "/>
			</g>
			<g>
				<polygon style="fill:#FFFFFF;" points="130.048,153.891 123.733,157.326 126.288,150.662 121.478,146.53 127.781,146.76       131.156,137.955 133.649,146.973 142.187,147.284 134.839,151.285 137.278,160.102     "/>
			</g>
			<g>
				<polygon style="fill:#FFFFFF;" points="154.538,162.737 154.469,156.493 150.55,161.519 145.449,159.957 148.255,164.458       143.079,171.095 150.866,168.644 154.667,174.739 154.589,167.473 162.204,165.078     "/>
			</g>
			<g>
				<polygon style="fill:#FFFFFF;" points="147.96,131.727 146.734,128.488 145.526,131.641 142.412,131.528 144.819,133.483       143.224,137.648 147.059,135.306 150.317,137.955 148.89,134.184 152.642,131.894     "/>
			</g>
			<g>
				<polygon style="fill:#FFFFFF;" points="392.123,101.71 385.808,105.146 388.363,98.482 383.553,94.349 389.856,94.58       393.232,85.775 395.724,94.793 404.262,95.104 396.914,99.104 399.353,107.921     "/>
			</g>
			<g>
				<polygon style="fill:#FFFFFF;" points="410.036,79.546 408.809,76.307 407.601,79.461 404.487,79.348 406.894,81.302       405.299,85.468 409.134,83.126 412.392,85.775 410.965,82.003 414.717,79.714     "/>
			</g>
			<g>
				<polygon style="fill:#FFFFFF;" points="386.895,377.771 380.581,381.207 383.135,374.543 378.325,370.41 384.628,370.641       388.004,361.836 390.496,370.854 399.034,371.165 391.687,375.165 394.125,383.983     "/>
			</g>
			<g>
				<polygon style="fill:#FFFFFF;" points="404.808,355.607 403.581,352.368 402.374,355.522 399.26,355.409 401.666,357.363       400.072,361.529 403.906,359.187 407.165,361.836 405.738,358.065 409.49,355.775     "/>
			</g>
			<g>
				<polygon style="fill:#FFFFFF;" points="277.909,85.461 279.931,94.852 272.35,89.063 265.241,93.672 267.912,85.676       257.898,78.029 270.4,78.237 274.019,67.408 276.372,78.335 288.598,78.536     "/>
			</g>
			<g>
				<polygon style="fill:#FFFFFF;" points="450.829,167.592 446.706,163.893 447.418,169.331 443.056,171.555 447.831,172.513       448.773,179.696 452.278,173.406 458.75,174.701 453.954,170.398 457.385,164.246     "/>
			</g>
			<g>
				<polygon style="fill:#FFFFFF;" points="484.706,172.032 482.154,165.649 479.953,172.089 473.872,172.164 478.662,175.859       475.75,184.368 483.117,179.299 489.603,184.305 486.637,176.876 493.839,171.92     "/>
			</g>
			<g>
				<polygon style="fill:#FFFFFF;" points="270.226,403.333 267.674,396.949 265.473,403.389 259.392,403.464 264.183,407.159       261.271,415.668 268.638,410.6 275.124,415.605 272.158,408.176 279.36,403.22     "/>
			</g>
			<g>
				<polygon style="fill:#FFFFFF;" points="465.136,187.361 462.236,188.94 463.407,185.877 461.198,183.98 464.093,184.085       465.645,180.04 466.79,184.183 470.712,184.326 467.336,186.163 468.457,190.215     "/>
			</g>
			<g>
				<polygon style="fill:#FFFFFF;" points="317.728,152.443 325.814,145.148 315.411,145.673 311.074,133.011 307.789,146.056       296.341,146.634 305.861,153.699 302.778,165.928 311.609,157.963 322.349,165.928     "/>
			</g>
			<g>
				<polygon style="fill:#FFFFFF;" points="339.719,138.016 337.356,132.089 335.307,138.068 329.663,138.138 334.11,141.569       331.409,149.471 338.25,144.763 344.27,149.413 341.516,142.515 348.204,137.911     "/>
			</g>
			<g>
				<polygon style="fill:#FFFFFF;" points="291.904,135.096 287.996,137.223 289.577,133.1 286.607,130.546 290.5,130.687       292.591,125.243 294.131,130.819 299.413,131.011 294.863,133.487 296.379,138.938     "/>
			</g>
		</g>
		<g>
			<g>
				<path style="fill:#3710A8;" d="M306.918,414.023c-3.699-4.668,2.863-16.027,14.657-25.369      c11.79-9.344,24.352-13.133,28.053-8.462c3.699,4.669-2.863,16.031-14.658,25.374      C323.179,414.906,310.618,418.695,306.918,414.023z"/>
			</g>
			<g>
				<path style="fill:#3710A8;" d="M311.098,420.673c-4.55,0-7.961-1.392-9.864-4.024c-5.519-7.637,3.264-23.092,19.995-35.182      c10.37-7.494,21.517-11.968,29.817-11.968c4.55,0,7.962,1.391,9.864,4.024c2.724,3.77,2.046,9.563-1.912,16.313      c-3.805,6.49-10.227,13.192-18.084,18.87C330.544,416.199,319.398,420.673,311.098,420.673z M351.046,371.617      c-7.754,0-18.704,4.432-28.576,11.567c-15.243,11.015-24.182,25.772-19.52,32.224c1.879,2.601,5.468,3.147,8.147,3.147      c7.753,0,18.703-4.432,28.575-11.566c7.625-5.51,13.839-11.983,17.498-18.224c3.456-5.896,4.194-10.998,2.023-14.001      C357.314,372.163,353.726,371.617,351.046,371.617z"/>
			</g>
			<g>
				<path style="fill:#3710A8;" d="M305.275,427.024c-5.61,0-9.81-1.708-12.146-4.941c-3.326-4.602-2.517-11.682,2.276-19.935      c4.643-7.995,12.512-16.237,22.159-23.208c12.656-9.145,26.294-14.605,36.485-14.605c5.61,0,9.811,1.71,12.147,4.942      c3.326,4.602,2.518,11.682-2.275,19.934c-4.643,7.995-12.513,16.237-22.161,23.209      C329.105,421.565,315.466,427.024,305.275,427.024z M354.049,366.453c-9.762,0-22.937,5.311-35.244,14.204      c-9.412,6.802-17.071,14.812-21.568,22.556c-4.349,7.485-5.198,13.747-2.391,17.629c1.921,2.659,5.528,4.064,10.429,4.064      c9.762,0,22.938-5.31,35.244-14.203c9.413-6.8,17.073-14.811,21.57-22.556c4.348-7.485,5.197-13.746,2.39-17.629      C362.558,367.858,358.951,366.453,354.049,366.453z"/>
			</g>
		</g>
	</g>
	<g>
		<g>
			<g>
				<polygon style="fill:#56BFDF;" points="93.19,340.653 51.007,344.641 70.951,350.537 25.415,371.187 75.822,367.116       58.597,381.07 82.247,375.246 57.185,406.309 115.625,379.305     "/>
			</g>
			<g>
				<polygon style="fill:#FFC325;" points="95.308,297.941 79.423,339.307 102.368,387.778 144.373,382.129     "/>
			</g>
			<g>
				<polygon style="fill:#FB2AB5;" points="137.711,366.198 137.092,364.173 103.842,374.315 101.152,368.79 131.747,355.033       130.878,353.101 100.224,366.884 96.322,358.871 127.381,339.074 126.243,337.289 95.389,356.956 91.368,348.698       121.02,328.735 119.837,326.979 90.433,346.776 87.427,340.604 110.266,322.33 108.942,320.676 86.476,338.652 84.346,334.277       82.442,335.203 106.798,385.223 108.703,384.297 104.781,376.242     "/>
			</g>
		</g>
		<g>
			<path style="fill:#FB2AB5;" d="M371.699,210.216c-3.961,43.206-15.44,76.436-31.345,101.937     c-31.904-9.171-68.42-23.932-75.082-48.893c-7.278-27.269,8.207-66.98,19.485-80.789     C334.339,189.544,371.699,210.216,371.699,210.216z"/>
		</g>
		<g>
			<path style="fill:#56BFDF;" d="M340.354,312.152c-65.064,104.351-204.107,79.508-204.107,79.508l-49.772-97.066     c50.979-107.888,134.68-121.188,198.282-112.124C279.908,212.546,273.597,292.964,340.354,312.152z"/>
		</g>
		<g>
			<g>
				<path style="fill:#FB2AB5;" d="M147.462,208.193l-3.725,4.542C27.752,169.09,0,279.86,0,279.86s66.216-2.142,91.576-3.521      l-2.887,3.521l8.736,2.991l59.038-66.186L147.462,208.193z"/>
			</g>
			<g>
				
					<rect x="80.654" y="242.895" transform="matrix(0.6338 -0.7735 0.7735 0.6338 -145.4353 180.7066)" style="fill:#FFC325;" width="74.961" height="2.118"/>
			</g>
		</g>
		<g>
			<g>
				<path style="fill:#FB2AB5;" d="M227.679,395.631l-1.324-13.502l-83.129,7.545l-1.324,7.545l3.503-0.065l-38.801,68.634      c0,0,96.301,17.09,113.907-70.025L227.679,395.631z"/>
			</g>
			<g>
				
					<rect x="147.705" y="394.62" transform="matrix(0.9992 -0.041 0.041 0.9992 -16.0658 7.8042)" style="fill:#FFC325;" width="69.149" height="2.118"/>
			</g>
		</g>
		<g>
			<g>
				<g>
					<path style="fill:#6132E3;" d="M278.612,291.566c0,40.55-31.791,73.422-71.006,73.422c-39.214,0-71.005-32.872-71.005-73.422       s31.791-73.423,71.005-73.423C246.821,218.144,278.612,251.016,278.612,291.566z"/>
				</g>
				<g>
					<path style="fill:#3710A8;" d="M262.265,291.29l-60.489,41.534c-12.92-10.696-80.26-47.678,3.262-99.628       c14.021-2.881,27.576-1.865,36.323,3.96C266.946,254.206,262.265,291.29,262.265,291.29z"/>
				</g>
				<g>
					<path style="fill:#D796FF;" d="M201.777,332.824L183.054,345.7c0,0-33.464-18.129-33.655-59.768       c-0.105-27.406,28.655-47.231,55.639-52.737C139.36,275.321,188.857,322.128,201.777,332.824z"/>
				</g>
				<g>
					<path style="fill:#D796FF;" d="M186.556,345.698l7.589,17.194c0,0,61.596,13.06,83.129-52.773L264.214,296L186.556,345.698z"/>
				</g>
				<g>
					<polygon style="fill:#C175FF;" points="268.803,324.984 272.333,319.513 263.558,300.072 269.832,295.85 264.941,285.709        175.368,343.371 184.447,353.319 198.869,343.612 210.56,363.946 219.076,363.008 210.198,335.988 252.521,307.502      "/>
				</g>
				<g>
					<path style="fill:#C175FF;" d="M183.126,322.849c0,7.188-3.473,13.014-7.758,13.014c-4.285,0-7.758-5.825-7.758-13.014       c0-7.189,3.474-13.014,7.758-13.014C179.653,309.835,183.126,315.66,183.126,322.849z"/>
				</g>
				<g>
					<polygon style="fill:#3710A8;" points="227.326,353.319 216.802,339.947 227.326,331.475 234.739,348.596 262.596,326.71        252.565,315.414 261.566,309.237 270.726,325.725 257.217,344.218 234.21,357.42      "/>
				</g>
				<g>
					<path style="fill:#C175FF;" d="M225.962,360.674l-9.16-12.059c0,0,22.203-22.667,30.226,2.748l-15.757,8.937L225.962,360.674z"/>
				</g>
				<g>
					<path style="fill:#C175FF;" d="M262.983,337.732c0,0-15.359-13.846,4.055-25.495l7.241,5.951L262.983,337.732z"/>
				</g>
				<g>
					<g>
						<path style="fill:#3710A8;" d="M235.303,356.766c-2.433-4.624-5.295-7.449-8.506-8.397c-3.272-0.968-5.726,0.384-5.83,0.442        l-1.052-1.838c0.132-0.078,3.286-1.85,7.428-0.651c3.803,1.102,7.111,4.284,9.834,9.458L235.303,356.766z"/>
					</g>
					<g>
						
							<rect x="227.751" y="343.63" transform="matrix(0.7835 -0.6214 0.6214 0.7835 -163.6869 219.5645)" style="fill:#3710A8;" width="11.003" height="2.117"/>
					</g>
					<g>
						
							<rect x="233.554" y="349.07" transform="matrix(0.8533 -0.5214 0.5214 0.8533 -147.4035 176.2892)" style="fill:#3710A8;" width="12.135" height="2.118"/>
					</g>
				</g>
				<g>
					<g>
						<path style="fill:#3710A8;" d="M265.534,330.553c-0.066-0.101-6.552-10.225,0.467-17.716l1.545,1.448        c-5.874,6.27-0.471,14.751-0.238,15.109L265.534,330.553z"/>
					</g>
					<g>
						
							<rect x="257.636" y="322.405" transform="matrix(0.87 -0.4931 0.4931 0.87 -125.6004 170.6202)" style="fill:#3710A8;" width="6.163" height="2.118"/>
					</g>
					<g>
						
							<rect x="258.437" y="329.138" transform="matrix(0.4601 -0.8879 0.8879 0.4601 -151.3582 411.4944)" style="fill:#3710A8;" width="8.445" height="2.118"/>
					</g>
				</g>
				<g>
					<path style="fill:#3710A8;" d="M175.264,332.773c-3.36,0-5.992-4.135-5.992-9.412s2.632-9.412,5.992-9.412       c3.359,0,5.991,4.134,5.991,9.412S178.623,332.773,175.264,332.773z M175.264,316.068c-1.871,0-3.874,2.931-3.874,7.294       c0,4.363,2.003,7.294,3.874,7.294c2.063,0,3.873-3.409,3.873-7.294C179.137,319.476,177.327,316.068,175.264,316.068z"/>
				</g>
				<g>
					<path style="fill:#3710A8;" d="M177.492,323.488c0,2.225-0.868,4.028-1.939,4.028c-1.071,0-1.939-1.804-1.939-4.028       c0-2.224,0.868-4.028,1.939-4.028C176.624,319.46,177.492,321.263,177.492,323.488z"/>
				</g>
				<g>
					
						<rect x="170.34" y="315.534" transform="matrix(0.8405 -0.5418 0.5418 0.8405 -136.093 170.8685)" style="fill:#3710A8;" width="103.681" height="2.119"/>
				</g>
				<g>
					
						<rect x="175.422" y="321.211" transform="matrix(0.8332 -0.553 0.553 0.8332 -140.5355 178.623)" style="fill:#3710A8;" width="100.808" height="2.117"/>
				</g>
				<g>
					<path style="fill:#6132E3;" d="M207.601,235.02l-8.073,88.444C199.528,323.464,143.049,279.86,207.601,235.02z"/>
				</g>
			</g>
			<g>
				<path style="fill:#FB2AB5;" d="M207.601,215.024c-42.591,0-77.115,34.268-77.115,76.543c0,42.274,34.523,76.542,77.115,76.542      c42.592,0,77.115-34.268,77.115-76.542C284.716,249.291,250.193,215.024,207.601,215.024z M207.601,361.839      c-37.234,0-67.414-31.218-67.414-69.723s30.181-69.723,67.414-69.723c37.234,0,67.435,31.218,67.435,69.723      S244.835,361.839,207.601,361.839z"/>
			</g>
			<g>
				<g>
					<path style="fill:#3710A8;" d="M149.201,331.65c0,0.927-1.081,1.678-2.414,1.678c-1.334,0-2.415-0.752-2.415-1.678       c0-0.927,1.081-1.677,2.415-1.677C148.121,329.973,149.201,330.724,149.201,331.65z"/>
				</g>
				<g>
					<path style="fill:#3710A8;" d="M257.217,347.17c0,0.812-0.864,1.469-1.929,1.469c-1.065,0-1.929-0.658-1.929-1.469       s0.863-1.47,1.929-1.47C256.353,345.7,257.217,346.358,257.217,347.17z"/>
				</g>
				<g>
					<path style="fill:#3710A8;" d="M173.953,228.314c0,0.877-0.811,1.588-1.811,1.588c-1,0-1.811-0.711-1.811-1.588       c0-0.877,0.811-1.589,1.811-1.589C173.142,226.725,173.953,227.436,173.953,228.314z"/>
				</g>
				<g>
					<path style="fill:#3710A8;" d="M274.279,259.421c0,1.096-1.097,1.986-2.452,1.986c-1.354,0-2.451-0.889-2.451-1.986       c0-1.096,1.097-1.986,2.451-1.986C273.182,257.435,274.279,258.325,274.279,259.421z"/>
				</g>
				<g>
					<path style="fill:#3710A8;" d="M219.472,220.173c0,0.695-0.741,1.258-1.655,1.258c-0.914,0-1.655-0.562-1.655-1.258       c0-0.695,0.74-1.257,1.655-1.257C218.732,218.915,219.472,219.478,219.472,220.173z"/>
				</g>
				<g>
					<path style="fill:#3710A8;" d="M258.037,237.16c0,1.183-1.018,2.141-2.272,2.141c-1.255,0-2.273-0.958-2.273-2.141       c0-1.181,1.018-2.14,2.273-2.14C257.019,235.02,258.037,235.979,258.037,237.16z"/>
				</g>
				<g>
					<path style="fill:#3710A8;" d="M138.064,297.699c0,0.938-1.067,1.698-2.383,1.698c-1.315,0-2.383-0.76-2.383-1.698       c0-0.939,1.067-1.699,2.383-1.699C136.996,296,138.064,296.76,138.064,297.699z"/>
				</g>
				<g>
					<path style="fill:#3710A8;" d="M146.006,257.634c0,0.987-0.918,1.787-2.052,1.787c-1.133,0-2.052-0.8-2.052-1.787       c0-0.987,0.918-1.787,2.052-1.787C145.087,255.847,146.006,256.647,146.006,257.634z"/>
				</g>
				<g>
					<path style="fill:#3710A8;" d="M186.556,360.818c0,0.95-1.165,1.721-2.603,1.721c-1.438,0-2.604-0.771-2.604-1.721       c0-0.95,1.166-1.721,2.604-1.721C185.391,359.097,186.556,359.867,186.556,360.818z"/>
				</g>
				<g>
					<path style="fill:#3710A8;" d="M279.304,313.292c0,0.948-1.125,1.717-2.513,1.717c-1.387,0-2.512-0.768-2.512-1.717       c0-0.948,1.125-1.717,2.512-1.717C278.179,311.575,279.304,312.344,279.304,313.292z"/>
				</g>
				<g>
					<path style="fill:#3710A8;" d="M280.231,280.357c0,1.036-0.889,1.875-1.985,1.875c-1.096,0-1.986-0.839-1.986-1.875       c0-1.035,0.889-1.875,1.986-1.875C279.341,278.482,280.231,279.322,280.231,280.357z"/>
				</g>
			</g>
		</g>
	</g>
</g>
<g>
</g>
<g>
</g>
<g>
</g>
<g>
</g>
<g>
</g>
<g>
</g>
<g>
</g>
<g>
</g>
<g>
</g>
<g>
</g>
<g>
</g>
<g>
</g>
<g>
</g>
<g>
</g>
<g>
</g>
</svg>
