<?xml version="1.0" encoding="UTF-8"?>
<!-- Generator: Adobe Illustrator 24.2.1, SVG Export Plug-In . SVG Version: 6.00 Build 0)  -->
<svg xmlns="http://www.w3.org/2000/svg" xmlns:xlink="http://www.w3.org/1999/xlink" version="1.1" id="Capa_1" x="0px" y="0px" viewBox="0 0 512 512" style="enable-background:new 0 0 512 512;" xml:space="preserve" width="512" height="512">
<g>
	<g>
		<path style="fill:#E7800D;" d="M39.118,429.047c0,0,25.193,32.517,25.488,50.11c0.295,17.593,25.905,3.465,28.282-5.816    c2.377-9.28-32.55-49.15-40.982-50.37C43.473,421.751,39.118,429.047,39.118,429.047z"/>
		<path style="fill:#E17B8D;" d="M51.794,416.961c0,0,13.823-10.358,27.973-1.302s15.241,23.492,11.277,27.724    c-3.963,4.231-27.245-16.676-39.748-13.249c-4.242,1.163-0.823,43.443-6.892,44.802c-6.069,1.359-12.062-4.404-18.859-18.189    c-6.797-13.785,8.501-28.758,8.501-28.758s-22.707,8.482-27.59,15.375c-4.882,6.893-11.564-17.576-0.249-26.537    s31.361-1.8,31.361-1.8s0.009-17.162,10.932-23.033c19.165-10.301,35.708,8.041,34.444,9.63    C81.681,403.213,59.376,407.426,51.794,416.961z"/>
		<path style="fill:#241726;" d="M38.793,451.206c-0.538,0-1.004-0.4-1.074-0.946c-0.084-0.658-1.955-16.155,5.983-22.304    c0.472-0.364,1.153-0.279,1.521,0.193c0.366,0.474,0.279,1.156-0.194,1.522c-6.959,5.389-5.179,20.166-5.16,20.317    c0.075,0.593-0.345,1.135-0.939,1.211C38.884,451.204,38.839,451.206,38.793,451.206z"/>
		<path style="fill:#241726;" d="M16.815,425.148c-0.398,0-0.781-0.22-0.971-0.599c-0.268-0.536-0.051-1.185,0.485-1.454    c0.56-0.282,13.828-6.831,21.314-2.98c0.532,0.273,0.742,0.925,0.469,1.458c-0.273,0.533-0.924,0.747-1.46,0.468    c-6.511-3.344-19.227,2.93-19.354,2.993C17.143,425.112,16.978,425.148,16.815,425.148z"/>
		<path style="fill:#241726;" d="M45.015,419.04c-0.582,0-1.063-0.461-1.082-1.048c-0.018-0.54-0.37-13.266,5.079-17.777    c1.77-1.467,3.928-1.928,6.407-1.372c0.584,0.131,0.951,0.711,0.82,1.295c-0.131,0.584-0.715,0.944-1.294,0.821    c-1.818-0.415-3.304-0.108-4.55,0.925c-4.634,3.831-4.3,15.914-4.297,16.034c0.02,0.599-0.45,1.101-1.048,1.12    C45.04,419.04,45.028,419.04,45.015,419.04z"/>
		<path style="fill:#241726;" d="M69.543,423.578c-0.258,0-0.518-0.091-0.724-0.277c-5.188-4.659-13.65-0.402-13.735-0.36    c-0.534,0.275-1.188,0.064-1.458-0.468c-0.274-0.531-0.066-1.185,0.467-1.458c0.399-0.207,9.872-4.987,16.174,0.673    c0.446,0.4,0.483,1.086,0.083,1.53C70.136,423.457,69.84,423.578,69.543,423.578z"/>
		<path style="fill:#241726;" d="M55.203,448.888c-0.398,0-0.78-0.22-0.971-0.599c-0.268-0.536-0.051-1.185,0.485-1.454    c0.065-0.032,6.51-3.296,11.53-8.886c0.401-0.447,1.089-0.48,1.53-0.083c0.446,0.4,0.483,1.086,0.083,1.53    c-5.305,5.906-11.896,9.238-12.173,9.377C55.531,448.852,55.366,448.888,55.203,448.888z"/>
		<path style="fill:#241726;" d="M62.899,461.794c-0.487,0-0.929-0.33-1.051-0.826c-0.143-0.58,0.213-1.166,0.793-1.31    c0.074-0.019,7.39-1.892,12.494-8.55c0.365-0.472,1.046-0.565,1.52-0.199c0.475,0.364,0.565,1.044,0.201,1.52    c-5.586,7.282-13.369,9.252-13.699,9.333C63.071,461.783,62.985,461.794,62.899,461.794z"/>
		<path style="fill:#241726;" d="M68.157,475.227c-0.341,0-0.682-0.011-1.025-0.034c-0.597-0.042-1.048-0.561-1.007-1.158    c0.041-0.597,0.568-1.046,1.157-1.005c8.495,0.639,17.155-7.783,17.241-7.868c0.429-0.417,1.114-0.413,1.533,0.017    c0.418,0.428,0.411,1.113-0.017,1.533C85.672,467.071,77.229,475.227,68.157,475.227z"/>
	</g>
	<g>
		<path style="fill:#E7800D;" d="M472.539,208.423c0,0-20.296,35.779-18.077,53.234s-25.146,7.125-28.823-1.721    c-3.677-8.846,25.204-53.291,33.376-55.702S472.539,208.423,472.539,208.423z"/>
		<path style="fill:#E17B8D;" d="M458.267,198.269c0,0-15.16-8.28-27.872,2.702c-12.712,10.982-11.733,25.426-7.206,29.049    c4.526,3.623,24.587-20.393,37.451-18.784c4.364,0.546,7.013,42.881,13.214,43.361c6.201,0.48,11.31-6.079,16.071-20.693    c4.761-14.614-12.517-27.251-12.517-27.251s23.685,5.155,29.501,11.281s8.938-19.046-3.54-26.301    c-12.478-7.254-31.297,2.693-31.297,2.693s-2.457-16.985-14.107-21.238c-20.439-7.461-34.195,13.054-32.718,14.446    S449.403,189.914,458.267,198.269z"/>
		<path style="fill:#241726;" d="M475.866,230.32c-0.591,0-1.073-0.474-1.084-1.065c-0.002-0.15-0.348-15.029-8.006-19.373    c-0.521-0.294-0.704-0.957-0.409-1.477s0.958-0.709,1.478-0.406c8.735,4.953,9.094,20.558,9.104,21.221    c0.01,0.597-0.467,1.09-1.066,1.101C475.877,230.32,475.872,230.32,475.866,230.32z"/>
		<path style="fill:#241726;" d="M493.903,201.392c-0.113,0-0.228-0.017-0.341-0.055c-0.137-0.042-13.614-4.435-19.582-0.201    c-0.488,0.349-1.164,0.233-1.511-0.256c-0.346-0.487-0.232-1.164,0.256-1.509c6.861-4.875,20.924-0.288,21.52-0.091    c0.567,0.188,0.875,0.802,0.687,1.37C494.78,201.104,494.357,201.392,493.903,201.392z"/>
		<path style="fill:#241726;" d="M465.117,199.371c-0.545,0-1.014-0.411-1.076-0.963c-0.013-0.123-1.408-12.129-6.54-15.262    c-1.38-0.84-2.897-0.929-4.636-0.267c-0.559,0.216-1.184-0.064-1.398-0.627c-0.213-0.559,0.068-1.185,0.628-1.397    c2.376-0.906,4.576-0.756,6.537,0.442c6.037,3.687,7.505,16.333,7.564,16.871c0.066,0.595-0.363,1.13-0.958,1.196    C465.197,199.369,465.157,199.371,465.117,199.371z"/>
		<path style="fill:#241726;" d="M441.489,207.361c-0.244,0-0.491-0.083-0.694-0.252c-0.459-0.383-0.52-1.067-0.137-1.526    c5.436-6.503,15.488-3.122,15.913-2.974c0.565,0.197,0.865,0.813,0.67,1.378c-0.196,0.565-0.811,0.866-1.378,0.671    c-0.089-0.03-9.071-3.033-13.541,2.314C442.107,207.228,441.799,207.361,441.489,207.361z"/>
		<path style="fill:#241726;" d="M459.295,230.369c-0.113,0-0.228-0.017-0.341-0.055c-0.295-0.097-7.295-2.455-13.387-7.546    c-0.459-0.383-0.52-1.067-0.137-1.526c0.384-0.457,1.067-0.523,1.527-0.138c5.764,4.818,12.611,7.129,12.679,7.153    c0.567,0.188,0.875,0.802,0.687,1.37C460.172,230.081,459.749,230.369,459.295,230.369z"/>
		<path style="fill:#241726;" d="M453.519,244.24c-0.035,0-0.07-0.002-0.106-0.004c-0.337-0.034-8.322-0.874-14.89-7.288    c-0.429-0.417-0.437-1.103-0.019-1.533c0.42-0.425,1.107-0.438,1.533-0.017c6.03,5.887,13.511,6.672,13.586,6.678    c0.596,0.059,1.032,0.588,0.974,1.183C454.543,243.821,454.071,244.24,453.519,244.24z"/>
		<path style="fill:#241726;" d="M448.066,258.437c-8.229,0-16.216-5.764-16.596-6.041c-0.483-0.354-0.587-1.031-0.235-1.513    s1.033-0.588,1.515-0.235c0.097,0.072,9.879,7.114,18.188,5.33c0.585-0.129,1.161,0.243,1.288,0.83    c0.126,0.584-0.246,1.162-0.831,1.287C450.293,258.333,449.178,258.437,448.066,258.437z"/>
	</g>
	<path style="fill:#241726;" d="M63.373,283.914h-0.032c-4.132-0.017-7.479-3.393-7.462-7.527c0.017-4.115,3.378-7.462,7.493-7.462   c2.034,0.008,3.914,0.796,5.324,2.218c1.408,1.42,2.18,3.306,2.172,5.307C70.849,280.565,67.486,283.914,63.373,283.914z    M63.396,271.093c-2.949,0-5.336,2.379-5.349,5.302c-0.013,2.938,2.367,5.338,5.302,5.351l0.023,1.084v-1.084   c2.923,0,5.313-2.379,5.328-5.305c0.006-1.422-0.542-2.762-1.545-3.772C66.155,271.658,64.819,271.099,63.396,271.093z"/>
	<path style="fill:#241726;" d="M457.36,146.299h-0.032c-4.132-0.017-7.479-3.393-7.462-7.527c0.017-4.115,3.378-7.462,7.493-7.462   c2.034,0.008,3.914,0.796,5.324,2.218c1.408,1.42,2.18,3.306,2.172,5.307C464.836,142.951,461.473,146.299,457.36,146.299z    M457.383,133.478c-2.949,0-5.336,2.379-5.349,5.302c-0.013,2.938,2.367,5.338,5.302,5.351l0.023,1.084v-1.084   c2.923,0,5.313-2.379,5.328-5.305c0.006-1.422-0.542-2.762-1.545-3.772C460.141,134.043,458.806,133.484,457.383,133.478z"/>
	<path style="fill:#241726;" d="M34.662,130.942h-0.032c-4.132-0.017-7.479-3.393-7.462-7.527c0.017-4.115,3.378-7.462,7.493-7.462   c2.034,0.008,3.914,0.796,5.324,2.218c1.408,1.42,2.18,3.306,2.172,5.307C42.139,127.594,38.775,130.942,34.662,130.942z    M34.686,118.121c-2.949,0-5.336,2.379-5.349,5.302c-0.013,2.938,2.367,5.338,5.302,5.351l0.023,1.084v-1.084   c2.923,0,5.313-2.379,5.328-5.305c0.006-1.422-0.542-2.762-1.545-3.772C37.444,118.686,36.108,118.127,34.686,118.121z"/>
	<path style="fill:#241726;" d="M332.921,41.119h-0.006l-4.193,0.04l4.402-3.069c0.491-0.343,0.612-1.018,0.269-1.509   c-0.345-0.493-1.025-0.608-1.509-0.269l-5.939,4.14l0.041-7.002c0.004-0.599-0.478-1.086-1.077-1.09h-0.006   c-0.595,0-1.08,0.481-1.084,1.077l-0.036,6.179l-3.717-3.927c-0.413-0.432-1.096-0.455-1.533-0.042   c-0.434,0.411-0.453,1.099-0.042,1.533l3.824,4.04l-6.944,0.066c-0.599,0.006-1.08,0.495-1.073,1.094   c0.006,0.595,0.489,1.073,1.084,1.073h0.011l6.334-0.06l-4.905,3.42c-0.491,0.343-0.612,1.018-0.269,1.509   c0.212,0.303,0.548,0.464,0.889,0.464c0.216,0,0.432-0.064,0.62-0.195l5.691-3.968l-0.042,7.054   c-0.004,0.599,0.478,1.086,1.077,1.09h0.006c0.595,0,1.08-0.481,1.084-1.077l0.039-6.662l3.961,4.186   c0.214,0.224,0.5,0.339,0.787,0.339c0.267,0,0.536-0.097,0.745-0.296c0.434-0.411,0.453-1.099,0.042-1.533l-4.148-4.383l5.63-0.054   c0.599-0.006,1.08-0.495,1.073-1.094C334.003,41.597,333.52,41.119,332.921,41.119z"/>
	<path style="fill:#241726;" d="M34.301,254.622h-0.006l-4.193,0.04l4.402-3.069c0.491-0.343,0.612-1.018,0.269-1.509   c-0.345-0.493-1.025-0.608-1.509-0.269l-5.939,4.14l0.041-7.002c0.004-0.599-0.478-1.086-1.077-1.09h-0.006   c-0.595,0-1.08,0.48-1.084,1.077l-0.037,6.179l-3.716-3.927c-0.413-0.432-1.096-0.455-1.533-0.042   c-0.434,0.411-0.453,1.099-0.042,1.533l3.824,4.04l-6.944,0.066c-0.599,0.006-1.08,0.495-1.073,1.094   c0.006,0.595,0.489,1.073,1.084,1.073h0.011l6.334-0.06l-4.905,3.42c-0.491,0.343-0.612,1.018-0.269,1.509   c0.212,0.303,0.548,0.464,0.889,0.464c0.216,0,0.432-0.064,0.62-0.195l5.691-3.968l-0.042,7.054   c-0.004,0.599,0.478,1.086,1.077,1.09h0.006c0.595,0,1.08-0.48,1.084-1.077l0.039-6.662l3.961,4.186   c0.214,0.224,0.5,0.339,0.787,0.339c0.267,0,0.536-0.097,0.745-0.296c0.434-0.411,0.453-1.099,0.042-1.533l-4.148-4.383l5.63-0.054   c0.599-0.006,1.08-0.495,1.073-1.094C35.382,255.1,34.9,254.622,34.301,254.622z"/>
	<path style="fill:#241726;" d="M314.726,474.31h-0.006l-4.193,0.04l4.402-3.069c0.491-0.343,0.612-1.018,0.269-1.509   c-0.345-0.493-1.025-0.608-1.509-0.269l-5.939,4.14l0.041-7.002c0.004-0.599-0.478-1.086-1.077-1.09h-0.006   c-0.595,0-1.08,0.48-1.084,1.077l-0.037,6.179l-3.716-3.927c-0.413-0.432-1.096-0.455-1.533-0.042   c-0.434,0.411-0.453,1.099-0.042,1.533l3.824,4.04l-6.944,0.066c-0.599,0.006-1.08,0.495-1.073,1.094   c0.006,0.595,0.489,1.073,1.084,1.073h0.011l6.334-0.06l-4.905,3.42c-0.491,0.343-0.612,1.018-0.269,1.509   c0.212,0.303,0.548,0.464,0.889,0.464c0.216,0,0.432-0.064,0.62-0.195l5.691-3.968l-0.042,7.054   c-0.004,0.599,0.478,1.086,1.077,1.09h0.006c0.595,0,1.08-0.48,1.084-1.077l0.039-6.662l3.961,4.186   c0.214,0.224,0.5,0.339,0.787,0.339c0.267,0,0.536-0.097,0.745-0.296c0.434-0.411,0.453-1.099,0.042-1.533l-4.148-4.383l5.63-0.054   c0.599-0.006,1.08-0.495,1.073-1.094C315.808,474.789,315.325,474.31,314.726,474.31z"/>
	<path style="fill:#241726;" d="M110.193,65.926c-0.802,0-1.561,0-3.672-8.41c-7.128-1.372-7.753-2.21-7.962-2.491   c-0.201-0.271-0.288-0.766-0.197-1.09c0.13-0.457,0.429-1.516,8.573-4.799c2.924-7.625,3.915-7.622,4.575-7.622   c0.342,0,0.813,0.243,1.017,0.519c0.524,0.703,0.998,2.527,1.717,5.449c0.224,0.917,0.496,2.019,0.653,2.506   c0.428,0.191,1.372,0.529,2.156,0.811c4.186,1.501,5.265,2.011,5.46,3.01c0.073,0.377-0.117,0.923-0.402,1.177   c-0.85,0.762-4.897,2.265-7.02,3.023c-3.447,7.843-4.184,7.883-4.835,7.917C110.237,65.926,110.212,65.926,110.193,65.926z    M101.316,54.091c1.424,0.411,4.021,1.001,6.288,1.425c0.418,0.078,0.751,0.392,0.853,0.804c0.579,2.347,1.336,5.021,1.881,6.547   c0.79-1.42,1.986-3.937,2.955-6.16c0.121-0.275,0.35-0.489,0.634-0.588c1.936-0.682,4.122-1.518,5.483-2.115   c-0.953-0.4-2.249-0.866-3.089-1.166c-2.394-0.859-2.845-1.046-3.153-1.458c-0.268-0.36-0.434-0.961-1.029-3.38   c-0.223-0.908-0.566-2.303-0.872-3.347c-0.71,1.355-1.703,3.658-2.474,5.696c-0.108,0.286-0.33,0.51-0.612,0.624   C105.665,51.977,102.81,53.255,101.316,54.091z"/>
	<path style="fill:#241726;" d="M356.21,500.344c-0.802,0-1.561,0-3.672-8.41c-7.128-1.372-7.753-2.21-7.962-2.491   c-0.201-0.269-0.288-0.764-0.197-1.09c0.129-0.455,0.427-1.513,8.573-4.797c2.924-7.625,3.915-7.625,4.575-7.625   c0.342,0,0.813,0.243,1.017,0.519c0.524,0.705,0.998,2.53,1.716,5.451c0.225,0.914,0.497,2.019,0.654,2.506   c0.428,0.191,1.371,0.529,2.153,0.809c4.187,1.501,5.268,2.011,5.463,3.012c0.074,0.375-0.116,0.921-0.401,1.177   c-0.851,0.762-4.898,2.265-7.021,3.021c-3.448,7.847-4.186,7.885-4.838,7.917C356.252,500.344,356.228,500.344,356.21,500.344z    M347.334,488.509c1.426,0.413,4.022,1.001,6.287,1.425c0.418,0.078,0.751,0.392,0.853,0.804c0.579,2.347,1.336,5.023,1.881,6.547   c0.79-1.42,1.986-3.935,2.955-6.16c0.121-0.275,0.35-0.489,0.634-0.588c1.936-0.682,4.123-1.518,5.485-2.113   c-0.954-0.402-2.251-0.868-3.093-1.168c-2.392-0.857-2.843-1.044-3.151-1.456c-0.268-0.36-0.434-0.963-1.029-3.383   c-0.223-0.908-0.566-2.303-0.872-3.347c-0.71,1.355-1.703,3.66-2.475,5.698c-0.108,0.286-0.33,0.51-0.612,0.624   C351.684,486.395,348.831,487.673,347.334,488.509z"/>
	<g>
		<path style="fill:#FFFFFF;" d="M374.427,137.399c0,0-2.139-16.236,13.489-10.982c15.628,5.253,10.536,20.118,4.578,15.032    c-5.958-5.087,5.221-22.339,17.18-14.657s9.284,22.589,0.801,23.689c-8.483,1.1,5.135-17.357,15.821-5.958    c10.686,11.399-12.645,32.18-22.186,24.54s-2.074-19.973,0.214-12.457c2.289,7.516-3.883,14.886-20.806,14.595    c-16.922-0.291-9.22-26.326-3.305-18.748c5.915,7.578-3.905,16.132-15.842,7.204C352.434,150.728,366.052,132.271,374.427,137.399    z"/>
		<path style="fill:#241726;" d="M384.484,172.291l-0.984-0.008c-5.547-0.095-9.451-2.936-10.827-7.834    c-2.918-0.368-5.995-1.715-8.95-3.924c-4.678-3.499-6.262-8.81-4.347-14.57c1.963-5.902,7.191-10.525,11.903-10.525    c0.678,0,1.335,0.091,1.964,0.271c-0.02-2.259,0.328-6.105,2.619-8.717c2.56-2.919,6.774-3.486,12.399-1.594    c2.169,0.728,4.068,1.674,5.662,2.82c2.689-2.836,6.12-4.443,9.548-4.443c2.321,0,4.605,0.711,6.787,2.113    c5.169,3.321,8.306,8.427,8.563,13.833c3.033,0.085,5.812,1.452,8.264,4.068c3.327,3.548,3.939,8.315,1.727,13.424    c-3.366,7.769-12.557,14.587-19.67,14.587c0,0-0.001,0-0.002,0c-2.226,0-4.147-0.633-5.709-1.884    c-0.746-0.597-1.42-1.245-2.015-1.93C397.682,170.803,391.862,172.291,384.484,172.291z M374.972,164.533    c0.965,2.737,3.259,5.491,8.567,5.582l0.946,0.008c8.506,0,13.154-1.996,15.647-3.891c-2.382-3.855-2.2-8.067-0.874-10.677    c0.766-1.509,1.879-2.375,3.051-2.375c0.786,0,2.229,0.404,3.053,3.11c1.145,3.764,0.295,7.443-2.328,10.243    c0.513,0.595,1.101,1.158,1.754,1.681c1.168,0.936,2.633,1.41,4.354,1.41c0.001,0,0.001,0,0.001,0    c6.244,0,14.671-6.331,17.681-13.281c1.308-3.019,2.14-7.392-1.319-11.081c-2.037-2.174-4.302-3.311-6.736-3.385    c-0.51,5.19-3.758,9.106-8.155,9.678c-0.297,0.038-0.574,0.055-0.827,0.055c-0.001,0-0.001,0-0.001,0    c-2.172,0.002-2.999-1.325-3.049-2.568c-0.124-3.059,4.283-8.198,9.922-9.174c-0.205-4.725-2.984-9.218-7.572-12.165    c-4.512-2.898-9.685-2.038-13.488,1.888c3.692,3.514,4.379,7.836,3.349,10.721c-0.719,2.013-2.258,3.262-4.018,3.264h-0.001    c-1.055,0-2.141-0.453-3.14-1.306c-3.288-2.807-2.225-8.289,0.745-12.389c-1.393-0.98-3.058-1.797-4.964-2.439    c-4.728-1.588-8.108-1.279-10.08,0.969c-2.711,3.093-1.997,8.787-1.99,8.844c0.055,0.415-0.133,0.823-0.484,1.05    c-0.352,0.229-0.799,0.233-1.157,0.017c-0.785-0.483-1.654-0.726-2.582-0.726c-3.771,0-8.188,4.056-9.846,9.041    c-1.601,4.818-0.294,9.246,3.588,12.15c2.41,1.801,4.877,2.961,7.214,3.4c-0.48-4.206,0.805-8.302,2.502-10.408    c0.945-1.173,2.049-1.793,3.191-1.793c0.792,0,1.979,0.311,3.14,1.799c2.102,2.693,2.579,5.728,1.31,8.329    C381.125,162.681,378.324,164.336,374.972,164.533z M402.308,155.348c-0.199,0-0.679,0.324-1.119,1.188    c-0.969,1.911-1.129,5.15,0.564,8.177c1.865-2.187,2.412-4.909,1.534-7.792C402.939,155.776,402.502,155.348,402.308,155.348z     M377.928,152.154c-0.457,0-0.991,0.349-1.503,0.986c-1.445,1.793-2.504,5.626-1.977,9.244c2.746-0.044,5.03-1.27,5.982-3.22    c0.892-1.829,0.502-4.032-1.07-6.045C379.016,152.679,378.487,152.154,377.928,152.154z M416.563,142.095    c-4.545,1.01-7.727,5.182-7.659,6.858c0.008,0.207,0.02,0.489,0.883,0.489h0.001c0.168,0,0.351-0.013,0.548-0.038    C413.588,148.983,416.027,146.052,416.563,142.095z M394.209,131.262c-2.562,3.569-3.053,7.618-1.011,9.362    c1.539,1.31,3.04,0.834,3.71-1.039C397.686,137.4,397.108,134.081,394.209,131.262z"/>
	</g>
	<g>
		<path style="fill:#FFFFFF;" d="M225.88,459.814c0,0-2.139-16.236,13.489-10.982c15.628,5.253,10.536,20.118,4.578,15.032    c-5.958-5.087,5.221-22.339,17.18-14.657c11.959,7.682,9.284,22.589,0.801,23.689c-8.483,1.1,5.135-17.357,15.821-5.958    s-12.645,32.18-22.186,24.54c-9.541-7.641-2.074-19.973,0.214-12.457c2.289,7.516-3.883,14.886-20.806,14.595    c-16.922-0.291-9.22-26.326-3.305-18.748c5.915,7.578-3.905,16.132-15.842,7.204C203.887,473.143,217.505,454.686,225.88,459.814z    "/>
		<path style="fill:#241726;" d="M235.93,494.707l-0.978-0.008c-5.547-0.095-9.451-2.938-10.826-7.834    c-2.919-0.37-5.997-1.717-8.951-3.927c-4.678-3.499-6.262-8.81-4.347-14.57c1.963-5.899,7.191-10.522,11.901-10.522    c0.678,0,1.336,0.091,1.965,0.271c-0.02-2.259,0.328-6.105,2.619-8.717c2.561-2.923,6.775-3.486,12.399-1.594    c2.169,0.728,4.068,1.674,5.662,2.82c2.689-2.836,6.12-4.445,9.549-4.445c2.32,0,4.604,0.711,6.786,2.113    c5.169,3.321,8.306,8.427,8.563,13.833c3.033,0.087,5.813,1.454,8.265,4.071c3.326,3.548,3.939,8.315,1.727,13.424    c-3.366,7.768-12.558,14.587-19.67,14.587c-0.001,0-0.002,0-0.003,0c-2.226,0-4.147-0.633-5.709-1.884    c-0.746-0.599-1.42-1.245-2.015-1.93C249.133,493.219,243.311,494.707,235.93,494.707z M226.424,486.949    c0.966,2.735,3.26,5.491,8.567,5.582l0.94,0.008c8.51,0,13.159-1.996,15.653-3.893c-2.382-3.855-2.2-8.067-0.874-10.679    c0.766-1.507,1.879-2.373,3.051-2.373c0.786,0,2.229,0.404,3.053,3.11c1.146,3.764,0.296,7.445-2.328,10.243    c0.513,0.597,1.101,1.16,1.754,1.683c1.168,0.936,2.633,1.41,4.354,1.41c0.001,0,0.001,0,0.001,0    c6.244,0,14.672-6.331,17.682-13.281c1.307-3.018,2.14-7.392-1.319-11.081c-2.038-2.174-4.303-3.311-6.737-3.385    c-0.51,5.19-3.758,9.106-8.154,9.678c-0.297,0.038-0.574,0.055-0.826,0.055h-0.002c-2.172,0-2.999-1.327-3.05-2.57    c-0.124-3.057,4.284-8.198,9.922-9.172c-0.205-4.725-2.984-9.221-7.573-12.167c-4.508-2.9-9.684-2.041-13.487,1.89    c3.693,3.514,4.38,7.836,3.349,10.724c-1.149,3.215-4.494,4.231-7.159,1.956c-3.287-2.807-2.225-8.289,0.745-12.392    c-1.393-0.978-3.058-1.795-4.964-2.436c-4.726-1.585-8.108-1.281-10.079,0.969c-2.712,3.093-1.998,8.787-1.991,8.844    c0.055,0.415-0.133,0.823-0.484,1.05c-0.351,0.229-0.8,0.233-1.157,0.017c-0.785-0.483-1.655-0.726-2.584-0.726    c-3.771,0-8.187,4.056-9.844,9.041c-0.759,2.278-1.926,8.025,3.587,12.148c2.41,1.801,4.877,2.961,7.215,3.4    c-0.481-4.204,0.805-8.302,2.502-10.408c0.946-1.173,2.049-1.793,3.192-1.793c0.792,0,1.978,0.311,3.139,1.799    c2.102,2.693,2.578,5.728,1.309,8.329C232.577,485.097,229.777,486.753,226.424,486.949z M253.761,477.763    c-0.199,0-0.679,0.324-1.119,1.188c-0.971,1.911-1.129,5.15,0.564,8.179c1.866-2.187,2.412-4.911,1.534-7.794    C254.391,478.19,253.954,477.763,253.761,477.763z M229.382,474.568c-0.457,0-0.992,0.349-1.504,0.986    c-1.445,1.793-2.504,5.626-1.977,9.244c2.745-0.042,5.029-1.268,5.981-3.22c0.892-1.829,0.503-4.032-1.069-6.045    C230.469,475.093,229.942,474.568,229.382,474.568z M268.015,464.51c-4.545,1.01-7.727,5.184-7.658,6.86    c0.007,0.207,0.019,0.489,0.884,0.489h0.001c0.168,0,0.35-0.013,0.547-0.038C265.041,471.4,267.479,468.468,268.015,464.51z     M245.661,453.676c-2.562,3.571-3.053,7.62-1.011,9.365c1.539,1.31,3.042,0.834,3.71-1.039    C249.14,459.817,248.561,456.498,245.661,453.676z"/>
	</g>
	<path style="fill:#241726;" d="M25.976,347.821c-2.248-3.361-5.786-8.523-6.574-9.209c-0.397-0.347-1.165-0.359-1.574-0.025   c-0.436,0.356-1.162,0.946-1.983,11.642c-5.539,1.425-10.146,2.747-10.194,2.76c-0.332,0.095-0.599,0.344-0.719,0.671   c-0.601,1.646,0.936,3.423,10.318,7.105c-0.126,3.486-0.236,8.752,0.172,10.254c0.14,0.514,0.495,0.898,0.972,1.051   c0.781,0.251,1.663-0.107,3.047-1.236c1.867-1.522,4.31-4.187,6.181-6.341c5.151,1.728,9.162,2.931,9.339,2.984   c0.343,0.103,0.931,0.014,1.21-0.214c0.806-0.657,1.395-1.137-4.353-10.401c2.392-3.149,5.076-6.945,5.297-8.404   c0.073-0.484-0.09-0.955-0.446-1.29C35.961,346.503,34.54,346.011,25.976,347.821z M7.588,354.695   c1.646-0.461,4.652-1.292,8.093-2.185c-0.133,1.966-0.247,3.985-0.337,5.96C10.488,356.529,8.445,355.343,7.588,354.695z    M18.072,369.154c-0.273,0.223-0.494,0.385-0.67,0.505c-0.108-1.263-0.15-3.843-0.012-8.072c1.822,0.684,3.833,1.405,6.011,2.153   C21.223,366.208,19.357,368.106,18.072,369.154z M33.94,364.898c-1.512-0.469-3.945-1.235-6.799-2.184   c1.094-1.303,2.196-2.661,3.262-4.019C32.403,361.951,33.422,363.827,33.94,364.898z M29.183,356.735   c-1.375,1.772-2.828,3.561-4.252,5.237c-2.757-0.938-5.258-1.834-7.455-2.67c0.104-2.429,0.246-4.944,0.416-7.358   c2.616-0.66,4.996-1.228,7.097-1.693C26.397,352.375,27.848,354.611,29.183,356.735z M23.7,348.319   c-1.717,0.388-3.604,0.839-5.636,1.347c0.336-4.179,0.666-6.72,0.922-8.134C19.958,342.852,21.564,345.138,23.7,348.319z    M30.586,354.896c-1.072-1.692-2.204-3.439-3.318-5.13c4.624-0.944,6.616-1.068,7.457-1.029   C34.225,349.727,32.942,351.752,30.586,354.896z"/>
	<polygon style="fill:#F8C200;" points="74.272,82.718 85.73,92.596 71.547,94.301 66.203,106.193 59.075,96.523 45.67,94.559    54.194,85.608 50.509,71.598 63.843,78.529 74.236,69.917  "/>
	<polygon style="fill:#F8C200;" points="456.076,317.007 450.689,331.143 444.257,318.389 431.256,317.414 437.921,307.418    435.203,294.146 446.522,299.112 458.44,290.878 456.463,305.775 468.1,312.614  "/>
	<g>
		<path style="fill:#241726;" d="M419.864,113.21c-1.509,0-4.934-3.62-10.185-10.764c-6.531,6.477-10.469,9.758-11.712,9.76    c-0.342,0-0.809-0.222-1.014-0.495c-0.697-0.929-1.883-6.899-2.657-11.145c-3.543,1.378-12.952,4.941-15.516,4.943    c-1.313,0-1.558-0.857-1.601-1.12c-0.238-1.42,2.08-9.788,3.385-14.322c-14.535-3.637-14.77-5.053-14.884-5.741    c-0.102-0.61-0.334-2.009,10.121-9.858c-4.439-2.663-11.84-7.589-11.345-10.561c0.494-2.97,8.347-5.311,12.908-6.426    c-7.307-13.808-6.384-14.5-5.637-15.059c0.374-0.282,0.85-0.32,1.267-0.32c2.408,0,9.954,1.765,13.023,2.508    c0.521-14.913,1.397-15.128,2.245-15.34c0.086-0.021,0.218-0.036,0.306-0.036c1.028,0,5.822,2.832,14.257,8.425    c3.915-13.082,5.128-13.082,5.94-13.082c0.138,0,0.339,0.038,0.467,0.091c0.441,0.176,1.591,0.635,6.281,12.675    c3.194-1.721,10.85-5.713,13.072-5.713c0.305,0,0.564,0.055,0.792,0.169c0.642,0.32,2.113,1.054-0.521,12.148    c2.814-0.387,8.68-1.128,12.224-1.128c1.429,0,3.82,0,3.82,1.693c0,1.598-3.217,8.075-5.133,11.79    c5.634,1.596,11.909,3.717,12.631,5.398c0.311,0.728,1.027,2.396-10.616,10.922c4.435,3.095,10.428,7.864,9.686,10.586    c-0.733,2.686-9.138,4.627-15.022,5.667c2.262,4.189,5.146,10.218,4.181,12.148c-0.561,1.122-2.174,1.272-3.678,1.272    c-3.476,0-9.024-1.035-11.244-1.48c-1.124,3.395-3.673,10.808-4.855,11.989c-0.259,0.258-0.61,0.402-0.986,0.402H419.864z     M409.809,99.703c0.029,0,0.057,0.002,0.086,0.004c0.315,0.023,0.605,0.186,0.792,0.442c3.257,4.49,7.339,9.508,8.918,10.679    c0.89-1.657,2.834-6.973,4.343-11.602c0.173-0.527,0.712-0.83,1.258-0.724c0.075,0.017,7.644,1.628,11.745,1.628    c1.065,0,1.549-0.11,1.745-0.178c0.093-1.408-2.382-6.888-4.877-11.359c-0.173-0.309-0.183-0.682-0.03-1.001    c0.153-0.318,0.452-0.54,0.8-0.597c7.458-1.223,14.234-3.23,14.797-4.38c0.069-1.137-4.64-5.396-10.088-9.066    c-0.294-0.199-0.473-0.529-0.478-0.883c-0.005-0.354,0.163-0.69,0.451-0.895c4.799-3.457,10.155-7.857,10.993-9.348    c-1.174-0.917-7.171-2.963-12.36-4.388c-0.316-0.087-0.576-0.313-0.707-0.614c-0.131-0.301-0.119-0.643,0.033-0.933    c2.343-4.481,4.784-9.576,5.372-11.424c-0.302-0.04-0.778-0.076-1.521-0.076c-4.532,0-13.408,1.317-13.496,1.329    c-0.361,0.057-0.721-0.074-0.962-0.343c-0.243-0.269-0.337-0.639-0.249-0.991c1.105-4.424,2.039-9.703,1.831-11.217    c-1.705,0.343-8.372,3.673-12.735,6.069c-0.275,0.15-0.603,0.174-0.894,0.068c-0.293-0.108-0.527-0.337-0.639-0.629    c-1.782-4.634-4.021-9.894-5.16-11.915c-1.03,2.068-2.883,7.527-4.288,12.32c-0.097,0.33-0.346,0.595-0.67,0.713    c-0.324,0.123-0.685,0.076-0.972-0.116c-5.435-3.622-11.516-7.472-13.703-8.583c-0.418,2.225-0.822,8.586-1.005,14.322    c-0.01,0.328-0.168,0.633-0.43,0.83c-0.26,0.199-0.597,0.269-0.915,0.188c-2.864-0.715-10.417-2.496-13.256-2.735    c0.709,2.229,3.601,8.166,6.4,13.405c0.16,0.298,0.17,0.652,0.03,0.961c-0.14,0.307-0.416,0.531-0.746,0.605    c-6.408,1.452-12.426,3.833-12.626,4.993c-0.046,1.251,5.424,5.535,11.706,9.161c0.316,0.182,0.52,0.512,0.54,0.876    c0.021,0.364-0.144,0.715-0.437,0.933c-4.308,3.184-9.145,7.14-10.348,8.655c1.795,0.984,8.386,2.934,14.121,4.344    c0.287,0.07,0.532,0.254,0.681,0.51c0.147,0.256,0.184,0.561,0.102,0.845c-1.572,5.406-3.164,11.416-3.55,13.674    c2.872-0.491,10.645-3.34,15.321-5.197c0.302-0.121,0.643-0.097,0.927,0.061c0.285,0.159,0.483,0.436,0.54,0.756    c0.762,4.284,1.726,9.017,2.266,10.861c1.699-1.192,6.461-5.605,10.581-9.724C409.247,99.817,409.523,99.703,409.809,99.703z"/>
		<circle style="fill:#F8C200;" cx="408.219" cy="70.926" r="27.818"/>
		<g>
			<path style="fill:#241726;" d="M414.974,55.639c-0.468,0-0.899-0.305-1.039-0.775c-0.261-0.883-2.376-1.753-3.802-2.041     c-0.586-0.119-0.965-0.692-0.847-1.279c0.119-0.586,0.682-0.972,1.279-0.847c0.78,0.159,4.712,1.075,5.449,3.548     c0.17,0.574-0.157,1.177-0.73,1.348C415.18,55.624,415.076,55.639,414.974,55.639z"/>
		</g>
		<g>
			<path style="fill:#241726;" d="M418.254,64.195c-0.468,0-0.899-0.305-1.038-0.775c-0.262-0.881-2.377-1.751-3.803-2.041     c-0.586-0.121-0.965-0.692-0.846-1.279c0.119-0.588,0.696-0.963,1.277-0.847c0.781,0.159,4.712,1.077,5.447,3.548     c0.171,0.574-0.156,1.177-0.729,1.348C418.46,64.18,418.356,64.195,418.254,64.195z"/>
		</g>
		<g>
			<path style="fill:#241726;" d="M426.87,64.87c-0.544,0-1.012-0.406-1.075-0.961c-0.109-0.948-2.087-2.155-3.39-2.673     c-0.556-0.22-0.829-0.851-0.607-1.406c0.221-0.557,0.853-0.832,1.404-0.61c0.741,0.292,4.452,1.882,4.746,4.443     c0.069,0.593-0.358,1.13-0.953,1.2C426.953,64.868,426.912,64.87,426.87,64.87z"/>
		</g>
		<g>
			<path style="fill:#241726;" d="M407.753,61.961c-0.468,0-0.899-0.305-1.039-0.775c-0.272-0.917-2.43-1.761-3.803-2.043     c-0.586-0.121-0.964-0.694-0.845-1.281c0.121-0.584,0.69-0.959,1.277-0.845c0.781,0.159,4.713,1.077,5.449,3.55     c0.17,0.574-0.157,1.177-0.73,1.348C407.959,61.947,407.854,61.961,407.753,61.961z"/>
		</g>
		<g>
			<path style="fill:#241726;" d="M403.508,54.013c-0.378,0-0.744-0.197-0.944-0.548c-0.471-0.832-2.777-1.181-4.166-1.135     c-0.581,0.04-1.094-0.459-1.11-1.056c-0.016-0.597,0.456-1.094,1.054-1.111c0.792-0.023,4.836-0.013,6.108,2.231     c0.295,0.521,0.112,1.183-0.409,1.477C403.873,53.968,403.689,54.013,403.508,54.013z"/>
		</g>
	</g>
	<g>
		<path style="fill:#241726;" d="M54.323,351.087c-0.066,0-0.215-0.015-0.279-0.025c-3.142-0.576-14.591-35.655-16.491-42.416    c-1.794-6.384-1.511-7.042-0.901-7.589c0.067-0.059,0.139-0.11,0.215-0.15c0.091-0.053,0.188-0.095,0.29-0.125h0.002    c0.016-0.004,0.038-0.011,0.065-0.015c0.052-0.013,0.104-0.021,0.156-0.025c0.109-0.015,0.223-0.025,0.279-0.025    c4.802,0,44.872,17.804,47.374,22.122c0.418,0.722,0.22,1.285,0.065,1.556c-1.783,3.112-11.343,4.608-13.241,4.877    c-0.293,0.042-0.602-0.04-0.837-0.233c-9.243-7.546-23.15-18.672-29.929-23.632c4.931,6.211,15.553,18.486,22.775,26.663    c0.265,0.298,0.343,0.72,0.204,1.094C59.675,345.055,56.395,351.085,54.323,351.087z M39.156,306.4    c2.891,10.846,12.69,38.345,15.308,42.293c1.516-1.562,4.822-8.935,7.346-15.675C48.719,318.187,42.282,310.486,39.156,306.4z     M43.376,304.438c6.89,5.023,18.485,14.33,28.644,22.62c3.953-0.603,9.413-1.956,10.914-3.393    C80.165,321.072,55.371,308.809,43.376,304.438z"/>
		<path style="fill:#241726;" d="M66.312,346.09c-0.137,0-0.285-0.015-0.443-0.051c-2.102-0.487-5.216-5.317-6.121-6.786    c-0.313-0.508-0.156-1.177,0.355-1.49c0.508-0.311,1.175-0.157,1.491,0.353c1.662,2.699,3.688,5.22,4.57,5.728    c0.854-1.414,2.89-8.969,4.335-15.507c0.129-0.584,0.702-0.95,1.292-0.826c0.584,0.129,0.954,0.707,0.824,1.291    c-1.595,7.22-3.827,16.034-5.406,17.031C67.007,345.961,66.706,346.09,66.312,346.09z"/>
	</g>
	<g>
		<path style="fill:#241726;" d="M509.62,328.906c-3.133,0-13.361-8.42-16.421-11.001c-0.305-0.256-0.445-0.66-0.362-1.05    c2.262-10.751,5.47-26.815,6.673-34.592c-3.348,7.508-10.034,24.256-14.39,35.485c-0.11,0.282-0.331,0.506-0.613,0.616    c-0.294,0.116-7.252,2.843-11.391,2.843h-0.001c-1.081,0-1.909-0.18-2.533-0.548c-0.325-0.193-0.845-0.679-0.68-1.772    c0.751-4.96,25.691-39.518,30.36-42.27c0.023-0.015,0.048-0.032,0.073-0.044c0.257-0.15,0.622-0.205,0.926-0.108    c0.769,0.186,1.353,0.766,2.906,7.064c1.682,6.812,9.027,42.949,6.584,44.996C510.544,328.698,510.178,328.906,509.62,328.906z     M509.62,326.738v1.084l0.004-1.084C509.623,326.738,509.622,326.738,509.62,326.738z M495.091,316.665    c5.481,4.581,11.996,9.358,14.126,10c0.324-4.748-4.724-33.474-7.561-44.331C500.956,287.43,499.159,297.305,495.091,316.665z     M472.108,318.946c0.229,0.051,0.554,0.093,1.008,0.093c3.181,0,8.589-1.935,10.158-2.523    c4.768-12.288,10.292-26.186,13.801-33.932C488.963,292.161,473.279,315.282,472.108,318.946z"/>
		<path style="fill:#241726;" d="M496.799,330.476c-0.026,0-0.052,0-0.077-0.002c-1.866-0.089-8.158-6.653-13.108-12.142    c-0.4-0.445-0.365-1.13,0.079-1.53c0.442-0.406,1.128-0.368,1.531,0.078c4.416,4.898,9.816,10.37,11.44,11.32    c0.512-0.914,1.02-4.075,1.134-7.208c0.022-0.601,0.348-0.708,0.933-0.697c0.598,0.023,1.255,0.177,1.232,0.774    c-0.061,1.723-0.386,7.459-1.975,8.922C497.56,330.385,497.118,330.476,496.799,330.476z"/>
	</g>
	<path style="fill:#241726;" d="M449.055,473.019c-0.853,0-1.714-0.051-2.559-0.148c-0.595-0.07-1.02-0.61-0.95-1.204   c0.07-0.593,0.609-0.999,1.202-0.95c1.326,0.157,2.69,0.18,4.102,0.053c0.597-0.042,1.121,0.387,1.176,0.982   c0.053,0.597-0.386,1.124-0.983,1.177C450.374,472.987,449.71,473.017,449.055,473.019z M455.197,472.117   c-0.468,0-0.899-0.305-1.039-0.775c-0.17-0.574,0.157-1.177,0.73-1.348c1.293-0.383,2.59-0.895,3.854-1.524   c0.536-0.265,1.188-0.047,1.452,0.489c0.267,0.538,0.048,1.188-0.489,1.454c-1.375,0.682-2.787,1.24-4.199,1.66   C455.402,472.102,455.298,472.117,455.197,472.117z M442.4,471.935c-0.113,0-0.229-0.017-0.342-0.055   c-1.411-0.47-2.805-1.086-4.144-1.835c-0.523-0.292-0.709-0.953-0.417-1.475c0.291-0.523,0.95-0.711,1.475-0.417   c1.219,0.684,2.487,1.245,3.769,1.67c0.568,0.188,0.875,0.802,0.687,1.37C443.277,471.647,442.854,471.935,442.4,471.935z    M462.947,468.313c-0.344,0-0.683-0.163-0.892-0.468c-0.341-0.491-0.218-1.166,0.275-1.507c0.275-0.19,0.55-0.389,0.826-0.593   c0.859-0.639,1.686-1.317,2.458-2.013c0.442-0.398,1.128-0.368,1.53,0.078c0.401,0.445,0.366,1.128-0.078,1.53   c-0.821,0.743-1.702,1.463-2.617,2.144c-0.297,0.22-0.592,0.432-0.886,0.635C463.375,468.252,463.16,468.313,462.947,468.313z    M434.874,467.727c-0.242,0-0.487-0.08-0.689-0.248c-1.166-0.965-2.249-2.034-3.22-3.179c-0.386-0.457-0.329-1.141,0.127-1.528   c0.46-0.385,1.141-0.326,1.528,0.127c0.887,1.048,1.878,2.028,2.944,2.908c0.461,0.381,0.527,1.065,0.145,1.526   C435.496,467.594,435.186,467.727,434.874,467.727z M469.342,462.503c-0.244,0-0.49-0.083-0.692-0.25   c-0.46-0.383-0.523-1.067-0.14-1.528c0.895-1.075,1.709-2.216,2.417-3.391c0.308-0.514,0.973-0.679,1.488-0.368   c0.512,0.307,0.677,0.974,0.368,1.486c-0.765,1.27-1.643,2.502-2.608,3.662C469.962,462.37,469.653,462.503,469.342,462.503z    M429.313,461.138c-0.379,0-0.746-0.199-0.945-0.552c-0.787-1.397-1.389-2.817-1.784-4.223c-0.163-0.576,0.171-1.175,0.748-1.338   c0.568-0.161,1.175,0.171,1.337,0.749c0.35,1.238,0.885,2.5,1.588,3.749c0.294,0.521,0.109,1.181-0.412,1.475   C429.676,461.093,429.493,461.138,429.313,461.138z M473.791,455.107c-0.135,0-0.273-0.025-0.406-0.078   c-0.555-0.224-0.822-0.857-0.598-1.412c0.515-1.276,0.94-2.612,1.259-3.971c0.138-0.584,0.724-0.957,1.304-0.806   c0.582,0.135,0.943,0.72,0.806,1.302c-0.346,1.467-0.803,2.911-1.361,4.289C474.625,454.851,474.22,455.107,473.791,455.107z    M427.143,452.867c-0.029,0-0.057-0.002-0.087-0.004c-0.597-0.047-1.041-0.569-0.995-1.164c0.139-1.748,0.684-3.289,1.622-4.585   c0.35-0.489,1.025-0.591,1.513-0.243c0.485,0.351,0.593,1.029,0.241,1.513c-0.701,0.969-1.11,2.14-1.216,3.484   C428.177,452.438,427.703,452.867,427.143,452.867z M475.783,446.701c-0.031,0-0.062-0.002-0.094-0.004   c-0.597-0.051-1.038-0.576-0.986-1.173c0.076-0.885,0.113-1.772,0.113-2.652c0-0.512-0.013-1.025-0.037-1.533   c-0.029-0.599,0.433-1.107,1.031-1.135c0.55-0.068,1.105,0.43,1.135,1.029c0.026,0.546,0.039,1.092,0.039,1.638   c0,0.944-0.039,1.89-0.122,2.839C476.813,446.276,476.34,446.701,475.783,446.701z M431.948,446.214   c-0.42,0-0.82-0.246-0.996-0.656c-0.236-0.55,0.019-1.188,0.569-1.425c1.264-0.542,2.736-0.895,4.374-1.052   c0.596-0.034,1.125,0.381,1.181,0.976c0.057,0.597-0.38,1.126-0.976,1.183c-1.414,0.133-2.668,0.432-3.727,0.887   C432.236,446.187,432.091,446.214,431.948,446.214z M475.384,438.065c-0.518,0-0.975-0.37-1.067-0.898   c-0.238-1.37-0.562-2.748-0.963-4.096c-0.17-0.574,0.157-1.177,0.73-1.348c0.576-0.167,1.177,0.159,1.348,0.73   c0.424,1.429,0.767,2.889,1.02,4.341c0.103,0.591-0.293,1.152-0.883,1.253C475.508,438.061,475.446,438.065,475.384,438.065z    M472.916,429.771c-0.42,0-0.819-0.246-0.996-0.656c-0.562-1.308-1.198-2.57-1.891-3.747c-0.304-0.516-0.132-1.181,0.383-1.484   c0.512-0.307,1.18-0.133,1.484,0.383c0.041,0.07,0.084,0.142,0.124,0.212c0.171-0.146,0.391-0.241,0.633-0.258   c1.377-0.093,2.791-0.256,4.203-0.487c0.596-0.099,1.148,0.303,1.245,0.895c0.096,0.591-0.305,1.147-0.895,1.243   c-1.398,0.229-2.799,0.396-4.17,0.495c0.309,0.618,0.601,1.249,0.877,1.892c0.236,0.55-0.018,1.188-0.568,1.425   C473.204,429.744,473.059,429.771,472.916,429.771z M468.395,426.45c-0.016,0-0.032,0-0.048,0c-1.56-0.07-3.06-0.235-4.457-0.493   c-0.588-0.108-0.978-0.673-0.869-1.262c0.108-0.591,0.675-0.982,1.263-0.868c1.299,0.239,2.697,0.394,4.156,0.455   c0.598,0.028,1.063,0.533,1.036,1.13C469.451,425.995,468.972,426.45,468.395,426.45z M481.271,425.005   c-0.485,0-0.926-0.328-1.05-0.819c-0.146-0.58,0.206-1.171,0.786-1.317c1.269-0.318,2.56-0.696,3.839-1.124l0.228-0.078   c0.562-0.195,1.182,0.106,1.379,0.669c0.196,0.565-0.104,1.183-0.67,1.38l-0.243,0.083c-1.337,0.447-2.681,0.84-4.003,1.175   C481.448,424.994,481.359,425.005,481.271,425.005z M459.933,424.763c-0.143,0-0.289-0.027-0.429-0.089   c-1.866-0.804-3.217-1.846-3.908-3.01c-0.306-0.514-0.137-1.179,0.378-1.484c0.513-0.307,1.18-0.14,1.485,0.379   c0.45,0.756,1.481,1.511,2.904,2.125c0.549,0.237,0.802,0.874,0.565,1.425C460.752,424.518,460.353,424.763,459.933,424.763z    M468.499,422.337c-0.315,0-0.627-0.135-0.841-0.398c-0.938-1.151-1.911-2.121-2.893-2.879c-0.474-0.366-0.561-1.046-0.195-1.52   c0.367-0.474,1.047-0.561,1.52-0.195c1.112,0.859,2.205,1.943,3.248,3.222c0.378,0.466,0.308,1.147-0.156,1.526   C468.982,422.257,468.74,422.337,468.499,422.337z M489.133,421.584c-0.297,0-0.595-0.123-0.809-0.362   c-0.399-0.447-0.36-1.132,0.087-1.53c0.941-0.84,1.751-1.886,2.409-3.11c0.283-0.529,0.938-0.722,1.468-0.442   c0.527,0.284,0.725,0.94,0.441,1.467c-0.778,1.448-1.745,2.693-2.875,3.702C489.648,421.493,489.39,421.584,489.133,421.584z    M457.522,418.394c-0.311,0-0.619-0.133-0.834-0.389c-0.383-0.459-0.321-1.143,0.139-1.526c1.406-1.171,3.116-1.59,4.957-1.24   c0.588,0.114,0.973,0.682,0.86,1.27c-0.114,0.588-0.681,0.974-1.269,0.859c-1.178-0.227-2.249,0.017-3.16,0.775   C458.012,418.311,457.766,418.394,457.522,418.394z M493.302,414.131c-0.087,0-0.175-0.011-0.262-0.032   c-0.58-0.144-0.935-0.732-0.791-1.312c0.314-1.266,0.524-2.644,0.622-4.094c0.04-0.597,0.548-1.044,1.156-1.008   c0.597,0.04,1.048,0.559,1.008,1.156c-0.108,1.575-0.338,3.078-0.682,4.466C494.23,413.801,493.787,414.131,493.302,414.131z    M493.945,405.52c-0.566,0-1.042-0.44-1.081-1.012c-0.09-1.37-0.264-2.777-0.516-4.185c-0.106-0.588,0.286-1.152,0.875-1.257   c0.594-0.091,1.153,0.288,1.258,0.876c0.267,1.484,0.45,2.972,0.546,4.422c0.039,0.597-0.413,1.113-1.011,1.154   C493.994,405.52,493.969,405.52,493.945,405.52z M492.424,396.993c-0.47,0-0.903-0.307-1.04-0.781   c-0.398-1.37-0.868-2.709-1.395-3.979c-0.23-0.552,0.033-1.185,0.585-1.416c0.555-0.231,1.186,0.034,1.417,0.586   c0.558,1.344,1.053,2.758,1.473,4.204c0.167,0.576-0.163,1.177-0.738,1.344C492.625,396.981,492.524,396.993,492.424,396.993z    M483.563,390.427c-0.56,0-1.035-0.432-1.08-0.999c-0.047-0.597,0.399-1.118,0.996-1.164c1.383-0.11,2.741-0.36,4.035-0.743   c0.015-0.004,0.031-0.008,0.046-0.013c-0.569-0.893-1.167-1.706-1.784-2.424c-0.389-0.455-0.338-1.139,0.116-1.528   c0.453-0.389,1.139-0.334,1.528,0.114c0.919,1.071,1.794,2.32,2.599,3.715c0.301,0.516,0.123,1.181-0.395,1.48   c-0.253,0.148-0.538,0.18-0.803,0.114c-0.122,0.29-0.367,0.523-0.691,0.62c-1.438,0.425-2.947,0.703-4.481,0.823   C483.621,390.425,483.592,390.427,483.563,390.427z M479.24,390.315c-0.048,0-0.096-0.002-0.145-0.011   c-1.69-0.227-3.241-0.663-4.485-1.257c-0.54-0.26-0.767-0.906-0.508-1.446s0.905-0.768,1.446-0.51   c1.041,0.5,2.369,0.868,3.836,1.067c0.594,0.078,1.01,0.624,0.93,1.217C480.24,389.919,479.774,390.315,479.24,390.315z    M491.804,387.951c-0.376,0-0.741-0.195-0.941-0.544c-0.298-0.519-0.119-1.181,0.4-1.48c1.185-0.682,2.267-1.503,3.215-2.445   c0.424-0.421,1.108-0.423,1.534,0.004c0.421,0.425,0.419,1.111-0.005,1.533c-1.083,1.075-2.316,2.013-3.664,2.788   C492.172,387.904,491.987,387.951,491.804,387.951z M472.489,386.016c-0.036,0-0.072-0.002-0.109-0.006   c-0.595-0.059-1.03-0.588-0.971-1.185c0.084-0.838,0.505-1.643,1.253-2.386c0.632-0.631,1.286-1.179,1.944-1.621   c0.497-0.341,1.171-0.205,1.505,0.292c0.334,0.495,0.204,1.168-0.292,1.503c-0.543,0.368-1.091,0.826-1.627,1.361   c-0.384,0.381-0.594,0.741-0.627,1.067C473.51,385.599,473.039,386.016,472.489,386.016z M483.352,382.619   c-0.193,0-0.386-0.051-0.563-0.159c-1.135-0.69-2.279-1.041-3.4-1.041c-0.599,0-1.149-0.485-1.149-1.084   c0-0.599,0.419-1.084,1.018-1.084h0.131c1.525,0,3.048,0.457,4.528,1.359c0.511,0.311,0.673,0.978,0.361,1.488   C484.075,382.434,483.717,382.619,483.352,382.619z M497.879,381.92c-0.185,0-0.373-0.047-0.544-0.146   c-0.518-0.303-0.692-0.965-0.392-1.482c0.663-1.141,1.209-2.398,1.621-3.742c0.177-0.569,0.784-0.897,1.355-0.715   c0.573,0.176,0.893,0.781,0.718,1.355c-0.462,1.499-1.074,2.911-1.82,4.191C498.616,381.727,498.253,381.92,497.879,381.92z    M500.459,373.709c-0.035,0-0.071-0.002-0.108-0.004c-0.595-0.059-1.031-0.591-0.972-1.185c0.077-0.781,0.113-1.575,0.113-2.379   c0-0.588-0.019-1.181-0.056-1.776c-0.037-0.599,0.418-1.113,1.015-1.149c0.602-0.059,1.113,0.419,1.148,1.014   c0.039,0.641,0.06,1.281,0.06,1.911c0,0.876-0.04,1.742-0.124,2.591C501.482,373.292,501.01,373.709,500.459,373.709z    M499.997,365.077c-0.516,0-0.975-0.37-1.067-0.897c-0.231-1.319-0.54-2.714-0.917-4.145c-0.152-0.58,0.193-1.173,0.772-1.325   c0.569-0.157,1.172,0.193,1.324,0.771c0.393,1.49,0.714,2.947,0.957,4.327c0.103,0.588-0.291,1.152-0.881,1.253   C500.122,365.073,500.058,365.077,499.997,365.077z M497.81,356.686c-0.453,0-0.875-0.286-1.028-0.739   c-0.476-1.422-0.981-2.771-1.477-4.016c-0.222-0.557,0.049-1.188,0.604-1.408c0.555-0.222,1.186,0.047,1.409,0.603   c0.511,1.279,1.029,2.669,1.52,4.13c0.19,0.567-0.115,1.181-0.683,1.372C498.041,356.669,497.925,356.686,497.81,356.686z    M494.601,348.623c-0.411,0-0.803-0.235-0.986-0.631c-1.076-2.345-1.882-3.812-1.89-3.827c-0.289-0.523-0.097-1.183,0.427-1.471   c0.524-0.294,1.183-0.097,1.472,0.425c0.034,0.061,0.849,1.543,1.962,3.967c0.25,0.544,0.011,1.188-0.533,1.437   C494.906,348.592,494.753,348.623,494.601,348.623z"/>
	<path style="fill:#241726;" d="M167.032,462.717c-0.928,0-1.869-0.034-2.821-0.106c-0.597-0.047-1.045-0.567-0.999-1.164   c0.044-0.595,0.572-1.044,1.162-0.999c1.429,0.108,2.834,0.125,4.203,0.068c0.611-0.078,1.105,0.438,1.13,1.033   c0.026,0.599-0.437,1.105-1.035,1.132C168.13,462.704,167.583,462.717,167.032,462.717z M172.929,462.219   c-0.519,0-0.977-0.373-1.067-0.902c-0.102-0.588,0.295-1.149,0.885-1.251c1.386-0.237,2.756-0.565,4.071-0.978   c0.575-0.18,1.179,0.14,1.358,0.711c0.179,0.572-0.139,1.179-0.71,1.359c-1.407,0.438-2.87,0.792-4.352,1.046   C173.051,462.215,172.989,462.219,172.929,462.219z M159.998,462.039c-0.068,0-0.138-0.006-0.207-0.019   c-1.444-0.282-2.896-0.646-4.316-1.084c-0.573-0.176-0.892-0.783-0.715-1.355c0.175-0.574,0.782-0.904,1.355-0.715   c1.346,0.415,2.721,0.76,4.09,1.025c0.587,0.114,0.972,0.684,0.857,1.27C160.96,461.68,160.507,462.039,159.998,462.039z    M181.175,459.622c-0.403,0-0.791-0.227-0.977-0.614c-0.26-0.538-0.034-1.188,0.506-1.446c1.275-0.616,2.482-1.321,3.586-2.096   c0.489-0.345,1.167-0.226,1.51,0.265c0.344,0.489,0.225,1.164-0.264,1.509c-1.201,0.842-2.51,1.609-3.893,2.273   C181.492,459.588,181.333,459.622,181.175,459.622z M151.729,459.489c-0.143,0-0.287-0.028-0.425-0.087   c-1.339-0.572-2.681-1.228-3.991-1.947c-0.524-0.29-0.715-0.948-0.427-1.473c0.288-0.523,0.947-0.715,1.472-0.428   c1.247,0.688,2.524,1.31,3.796,1.854c0.55,0.235,0.806,0.872,0.572,1.422C152.549,459.243,152.149,459.489,151.729,459.489z    M144.199,455.236c-0.23,0-0.461-0.072-0.658-0.224c-1.204-0.923-2.327-1.943-3.338-3.033c-0.406-0.438-0.381-1.124,0.058-1.53   c0.437-0.411,1.124-0.383,1.531,0.057c0.928,1.001,1.96,1.939,3.067,2.788c0.475,0.364,0.565,1.044,0.201,1.518   C144.847,455.09,144.525,455.236,144.199,455.236z M188.208,454.631c-0.27,0-0.541-0.1-0.75-0.303   c-0.432-0.415-0.446-1.101-0.031-1.533c0.978-1.018,1.808-2.106,2.467-3.234c0.302-0.517,0.968-0.694,1.482-0.389   c0.518,0.301,0.691,0.965,0.389,1.482c-0.744,1.276-1.679,2.502-2.776,3.645C188.776,454.518,188.493,454.631,188.208,454.631z    M138.343,448.907c-0.356,0-0.704-0.176-0.911-0.495c-0.805-1.247-1.52-2.587-2.123-3.977c-0.237-0.55,0.015-1.188,0.564-1.427   c0.552-0.243,1.188,0.017,1.426,0.563c0.556,1.285,1.213,2.517,1.954,3.664c0.325,0.504,0.181,1.175-0.323,1.499   C138.749,448.852,138.544,448.907,138.343,448.907z M192.464,447.197c-0.085,0-0.171-0.011-0.257-0.032   c-0.582-0.14-0.939-0.726-0.797-1.308c0.232-0.955,0.35-1.93,0.351-2.9c0-0.347-0.016-0.701-0.046-1.052   c-0.052-0.597,0.391-1.122,0.987-1.173c0.572-0.038,1.121,0.389,1.172,0.986c0.036,0.415,0.054,0.828,0.054,1.24   c-0.001,1.143-0.14,2.288-0.413,3.41C193.395,446.864,192.951,447.197,192.464,447.197z M134.893,440.992   c-0.479,0-0.919-0.322-1.047-0.806c-0.371-1.408-0.654-2.887-0.839-4.399c-0.073-0.593,0.349-1.135,0.943-1.207   c0.588-0.087,1.135,0.349,1.208,0.944c0.175,1.414,0.438,2.796,0.784,4.107c0.152,0.58-0.193,1.173-0.772,1.325   C135.078,440.982,134.985,440.992,134.893,440.992z M133.821,432.403c-0.599,0-1.084-0.472-1.084-1.071   c0-1.484,0.085-2.974,0.25-4.447c0.067-0.597,0.592-1.031,1.199-0.957c0.595,0.068,1.022,0.603,0.956,1.198   c-0.158,1.395-0.237,2.803-0.237,4.183C134.905,431.907,134.42,432.403,133.821,432.403z M134.786,423.815   c-0.079,0-0.16-0.008-0.24-0.028c-0.584-0.131-0.95-0.711-0.818-1.295s0.277-1.162,0.434-1.734   c-1.045-0.008-2.103-0.066-3.151-0.171c-0.595-0.059-1.03-0.588-0.971-1.185c0.06-0.595,0.583-1.037,1.186-0.969   c1.2,0.116,2.427,0.155,3.598,0.159c0.044-0.129,0.089-0.258,0.133-0.385c0.201-0.567,0.819-0.866,1.383-0.663   c0.564,0.199,0.86,0.819,0.661,1.382c-0.455,1.291-0.846,2.652-1.161,4.045C135.728,423.474,135.281,423.815,134.786,423.815z    M139.754,420.274c-0.51,0-0.964-0.362-1.064-0.881c-0.112-0.588,0.274-1.156,0.862-1.268c1.426-0.271,2.757-0.654,3.956-1.141   c0.555-0.218,1.188,0.044,1.411,0.599c0.224,0.555-0.043,1.188-0.598,1.412c-1.33,0.538-2.798,0.961-4.363,1.259   C139.89,420.267,139.821,420.274,139.754,420.274z M126.845,419.897c-0.079,0-0.159-0.008-0.239-0.028   c-1.425-0.32-2.866-0.734-4.283-1.23c-0.565-0.197-0.864-0.815-0.667-1.38c0.199-0.565,0.819-0.868,1.38-0.665   c1.341,0.468,2.702,0.857,4.046,1.162c0.584,0.131,0.95,0.711,0.819,1.295C127.788,419.556,127.34,419.897,126.845,419.897z    M118.668,417.058c-0.155,0-0.311-0.034-0.46-0.104c-1.305-0.614-2.623-1.317-3.916-2.091c-0.513-0.307-0.681-0.972-0.374-1.486   c0.308-0.512,0.975-0.684,1.487-0.373c1.232,0.737,2.485,1.406,3.725,1.99c0.542,0.254,0.774,0.9,0.52,1.441   C119.465,416.827,119.076,417.058,118.668,417.058z M147.642,416.899c-0.306,0-0.61-0.129-0.823-0.379   c-0.389-0.455-0.336-1.139,0.12-1.528c1.083-0.927,1.685-1.935,1.694-2.843c0.006-0.593,0.491-1.071,1.084-1.071   c0.004,0,0.007,0,0.012,0c0.599,0.006,1.078,0.497,1.072,1.096c-0.017,1.562-0.866,3.107-2.454,4.464   C148.143,416.815,147.892,416.899,147.642,416.899z M137.693,415.665c-0.169,0-0.341-0.04-0.501-0.123   c-0.53-0.277-0.736-0.931-0.459-1.463c0.767-1.469,1.605-2.754,2.49-3.817c0.382-0.461,1.067-0.523,1.526-0.142   c0.46,0.383,0.523,1.067,0.14,1.526c-0.786,0.946-1.539,2.102-2.234,3.435C138.462,415.454,138.084,415.665,137.693,415.665z    M111.235,412.624c-0.222,0-0.448-0.068-0.64-0.21c-1.246-0.917-2.399-1.884-3.428-2.879c-0.431-0.415-0.442-1.101-0.028-1.533   c0.417-0.43,1.105-0.44,1.533-0.025c0.96,0.927,2.038,1.831,3.206,2.688c0.483,0.356,0.586,1.033,0.232,1.516   C111.897,412.471,111.568,412.624,111.235,412.624z M146.889,409.537l0.614-0.893l-0.692,0.84c-0.949-0.635-1.91-0.696-2.989-0.235   c-0.548,0.241-1.189-0.017-1.425-0.567c-0.236-0.548,0.018-1.188,0.567-1.422c1.745-0.751,3.505-0.608,5.035,0.413l-0.496,0.972   L146.889,409.537z M105.056,406.591c-0.331,0-0.658-0.152-0.871-0.438c-0.921-1.24-1.709-2.546-2.344-3.884   c-0.257-0.542-0.026-1.188,0.514-1.446c0.543-0.254,1.188-0.023,1.444,0.514c0.575,1.211,1.29,2.396,2.126,3.524   c0.357,0.48,0.256,1.16-0.224,1.516C105.507,406.521,105.281,406.591,105.056,406.591z M101.387,398.803   c-0.492,0-0.938-0.337-1.054-0.836c-0.344-1.469-0.531-2.991-0.558-4.521c-0.011-0.599,0.467-1.092,1.065-1.103   c0.593,0.051,1.092,0.466,1.103,1.065c0.023,1.378,0.193,2.745,0.501,4.064c0.137,0.584-0.225,1.166-0.809,1.304   C101.552,398.795,101.468,398.803,101.387,398.803z M101.217,390.199c-0.065,0-0.129-0.006-0.195-0.017   c-0.59-0.108-0.98-0.671-0.873-1.262c0.028-0.146,0.056-0.294,0.086-0.442c-0.421,0.015-0.847,0.021-1.277,0.021   c-0.599,0-1.181-0.485-1.181-1.084s0.388-1.084,0.987-1.084h0.194c0.619,0,1.228-0.015,1.82-0.044   c0.171-0.58,0.364-1.154,0.577-1.723c0.211-0.561,0.835-0.845,1.394-0.637c0.561,0.21,0.846,0.834,0.636,1.395   c-0.095,0.256-0.186,0.514-0.273,0.773c0.53,0.011,0.986,0.411,1.053,0.953c0.072,0.595-0.351,1.135-0.945,1.207   c-0.243,0.03-0.489,0.057-0.738,0.08c-0.074,0.326-0.141,0.65-0.2,0.976C102.188,389.832,101.732,390.199,101.217,390.199z    M94.439,388.264c-0.036,0-0.073-0.002-0.111-0.006c-0.762-0.076-1.546-0.171-2.353-0.286c-0.725-0.104-1.416-0.237-2.077-0.4   c-0.581-0.144-0.936-0.73-0.792-1.312c0.144-0.582,0.73-0.931,1.312-0.792c0.591,0.146,1.21,0.267,1.86,0.358   c0.778,0.11,1.535,0.201,2.269,0.277c0.595,0.059,1.029,0.593,0.968,1.188C95.459,387.849,94.988,388.264,94.439,388.264z    M107.329,387.392c-0.466,0-0.895-0.303-1.037-0.771c-0.174-0.574,0.15-1.177,0.724-1.35c1.383-0.419,2.631-0.963,3.709-1.617   c0.512-0.313,1.179-0.15,1.489,0.362c0.311,0.51,0.148,1.177-0.363,1.488c-1.233,0.751-2.649,1.372-4.208,1.842   C107.537,387.377,107.432,387.392,107.329,387.392z M86.133,386.043c-0.18,0-0.362-0.044-0.53-0.14   c-1.371-0.771-2.598-1.744-3.647-2.894c-0.404-0.442-0.373-1.126,0.07-1.53c0.441-0.404,1.126-0.375,1.53,0.07   c0.893,0.978,1.94,1.808,3.11,2.466c0.522,0.292,0.707,0.953,0.414,1.475C86.881,385.844,86.512,386.043,86.133,386.043z    M114.495,382.792c-0.221,0-0.445-0.068-0.637-0.207c-0.484-0.353-0.591-1.031-0.238-1.516c0.784-1.075,1.198-2.223,1.198-3.317   c0-0.599,0.485-1.116,1.084-1.116c0.599,0,1.084,0.451,1.084,1.05c0,1.624-0.558,3.211-1.613,4.661   C115.16,382.638,114.829,382.792,114.495,382.792z M104.221,382.108c-0.185,0-0.371-0.047-0.543-0.146   c-0.518-0.301-0.694-0.965-0.394-1.482c0.784-1.348,1.664-2.593,2.616-3.7c0.392-0.457,1.076-0.504,1.528-0.114   c0.454,0.389,0.505,1.075,0.114,1.528c-0.866,1.005-1.668,2.14-2.383,3.374C104.959,381.916,104.595,382.108,104.221,382.108z    M80.359,379.776c-0.403,0-0.791-0.227-0.977-0.612c-0.627-1.298-1.13-2.748-1.5-4.308c-0.139-0.582,0.222-1.166,0.804-1.304   c0.58-0.15,1.165,0.222,1.304,0.804c0.333,1.408,0.785,2.709,1.343,3.863c0.26,0.54,0.034,1.188-0.505,1.448   C80.678,379.742,80.517,379.776,80.359,379.776z M109.935,375.68c-0.357,0-0.706-0.176-0.913-0.5   c-0.323-0.504-0.177-1.173,0.327-1.497c1.942-1.245,3.715-1.494,5.009-0.72c0.018,0.011,0.205,0.129,0.222,0.14   c0.495,0.337,0.624,1.012,0.288,1.507c-0.336,0.493-1.009,0.622-1.505,0.288l0.609-0.898l-0.723,0.823   c-0.559-0.33-1.582-0.053-2.73,0.684C110.339,375.625,110.135,375.68,109.935,375.68z M78.28,371.408   c-0.56,0-1.034-0.43-1.08-0.999c-0.08-1.016-0.117-2.043-0.117-3.063c0-0.464,0.007-0.927,0.021-1.391   c0.018-0.586,0.5-1.05,1.083-1.05c0.012,0,0.023,0,0.034,0c0.599,0.019,1.069,0.519,1.051,1.118   c-0.014,0.438-0.021,0.881-0.021,1.323c0,0.965,0.035,1.933,0.111,2.894c0.047,0.595-0.398,1.118-0.995,1.164   C78.337,371.406,78.309,371.408,78.28,371.408z M78.515,362.753c-0.041,0-0.084-0.002-0.126-0.006   c-0.595-0.07-1.02-0.608-0.951-1.202c0.164-1.416,0.387-2.883,0.663-4.363c0.109-0.588,0.667-0.986,1.265-0.866   c0.588,0.108,0.976,0.675,0.867,1.264c-0.267,1.431-0.483,2.849-0.641,4.214C79.527,362.346,79.058,362.753,78.515,362.753z    M80.094,354.224c-0.087,0-0.176-0.011-0.264-0.032c-0.581-0.146-0.935-0.735-0.788-1.315c0.644-2.578,1.198-4.198,1.221-4.263   c0.195-0.567,0.805-0.87,1.377-0.673c0.565,0.195,0.867,0.811,0.672,1.376c-0.005,0.017-0.548,1.607-1.168,4.085   C81.021,353.896,80.58,354.224,80.094,354.224z"/>
	<g>
		<path style="fill:#A55D88;" d="M338.977,350.08c0,0,20.417-58.79,70.604-24.079c40.106,27.738,14.826,84.554-33.111,79.091    C328.534,399.628,334.909,361.147,338.977,350.08z"/>
		<g>
			<path style="fill:#A55D88;" d="M132.931,319.361c0,0,20.417-58.79,70.604-24.079c40.106,27.738,14.826,84.554-33.111,79.091     S128.863,330.429,132.931,319.361z"/>
		</g>
		<path style="fill:#A55D88;" d="M335.336,413.528c0,0,20.417-58.79,70.604-24.079c40.106,27.738,14.826,84.554-33.111,79.091    S331.268,424.596,335.336,413.528z"/>
		<path style="fill:#A55D88;" d="M285.309,213.362c0,0,20.417-58.79,70.604-24.079c40.106,27.738,14.826,84.554-33.111,79.091    C274.867,262.911,281.241,224.43,285.309,213.362z"/>
		<g>
			<path style="fill:#A55D88;" d="M140.282,173.628c0,0,20.417-58.79,70.604-24.079c40.106,27.738,14.826,84.554-33.111,79.091     C129.839,223.176,136.214,184.695,140.282,173.628z"/>
			<path style="fill:#A55D88;" d="M218.507,174.782c0,0,4.86,6.682,4.86,9.72"/>
		</g>
		<path style="fill:#B1739A;" d="M381.322,257.842c-15.737-10.903-28.547-12.572-38.734-9.754    c-2.861-8.258-8.562-16.105-17.709-22.434c-10.188-7.045-19.161-10.231-26.964-10.838c5.267-16.257,0.737-35.375-17.861-48.25    c-50.179-34.703-70.597,24.082-70.597,24.082c-1.756,4.79-3.945,14.718-1.973,24.884c-10.686,1.084-18.858,7.066-24.818,13.807    c-2.818-3.316-6.264-6.416-10.404-9.19c-50.764-33.879-70.207,25.252-70.207,25.252c-3.88,11.12-9.624,49.702,38.388,54.384    c13.894,1.344,25.772-2.493,34.703-9.256c5.939,7.218,15.997,12.984,32.47,14.869c0.433,0.043,0.845,0.065,1.279,0.087    c-1.17,2.536-1.734,4.162-1.734,4.162c-2.645,7.175-6.221,25.902,4.66,39.645c-13.742,10.274-19.855,27.853-19.855,27.853    c-4.075,11.076-10.448,49.55,37.499,55.013c13.439,1.539,25.122-1.842,34.052-8.107c6.069,6.546,15.845,11.705,31.213,13.46    c37.412,4.27,61.017-29.414,50.504-57.592c17.167-8.649,26.791-26.986,24.147-44.803    C402.586,324.885,415.006,281.122,381.322,257.842z"/>
		<g>
			<path style="fill:#FBFCFF;" d="M384.093,279.905c-0.36,0-0.711-0.18-0.918-0.506c-16.813-26.667-33.683-17.645-34.394-17.249     c-0.52,0.292-1.181,0.108-1.474-0.413s-0.111-1.179,0.409-1.473c0.193-0.11,19.332-10.508,37.293,17.98     c0.32,0.506,0.168,1.175-0.339,1.494C384.491,279.852,384.291,279.905,384.093,279.905z"/>
			<path style="fill:#FBFCFF;" d="M393.812,293.878c-0.599,0-1.084-0.485-1.084-1.084c0-1.956-2.853-6.609-4.653-9.083     c-0.352-0.485-0.246-1.162,0.239-1.513c0.486-0.351,1.162-0.246,1.513,0.239c0.519,0.713,5.068,7.062,5.068,10.357     C394.896,293.393,394.411,293.878,393.812,293.878z"/>
		</g>
		<path style="fill:#241726;" d="M97.734,144.526c-0.004,0-0.008,0-0.013,0c-0.599-0.006-1.078-0.497-1.071-1.096    c0.006-0.497,0.248-12.284,9-20.499c5.866-5.506,14.09-8.042,24.48-7.495c6.167,0.315,11.459,1.564,15.535,3.573    c3.493-3.241,8.036-5.533,12.54-5.444c6.049,0.089,14.139,4.208,18.33,23.318c0.128,0.584-0.241,1.164-0.827,1.291    c-0.587,0.123-1.162-0.241-1.29-0.826c-3.033-13.829-8.803-21.506-16.245-21.616c-3.683-0.152-7.469,1.761-10.494,4.392    c3.167,1.971,5.37,4.492,6.385,7.453c1.202,3.501,0.409,7.123-2.021,9.223c-2.409,2.081-5.933,2.244-9.433,0.438    c-2.94-1.518-4.071-4.604-3.102-8.467c0.694-2.769,2.337-5.648,4.571-8.145c-3.243-1.505-7.764-2.703-14.058-3.027    c-9.761-0.502-17.466,1.825-22.886,6.913c-8.088,7.591-8.316,18.831-8.317,18.943C98.811,144.049,98.327,144.526,97.734,144.526z     M146.068,121.673c-2.191,2.328-3.812,5.055-4.457,7.625c-0.505,2.013-0.569,4.691,1.994,6.014    c2.722,1.406,5.282,1.35,7.021-0.152c1.757-1.518,2.302-4.219,1.389-6.879C151.582,127.014,150.187,124.135,146.068,121.673z"/>
		<path style="fill:#241726;" d="M178.42,138.62c-0.545,0-1.015-0.411-1.076-0.963c-5.426-48.832-0.461-67.573-0.248-68.346    c0.159-0.578,0.753-0.923,1.332-0.756c0.577,0.159,0.915,0.754,0.757,1.331c-0.051,0.186-5.056,19.218,0.313,67.529    c0.066,0.595-0.363,1.132-0.958,1.198C178.5,138.618,178.459,138.62,178.42,138.62z"/>
		<path style="fill:#241726;" d="M181.072,131.556c-0.105,0-0.211-0.015-0.316-0.047c-0.573-0.176-0.894-0.781-0.72-1.353    c4.169-13.678,14.401-22.347,27.371-23.187c1.268-0.083,2.521-0.08,3.73-0.006c1.593-3.692,4.471-7.538,9.132-10.827    c5.057-3.571,10.235-4.89,15.403-3.92c9.503,1.784,15.462,10.641,15.711,11.016c0.33,0.5,0.194,1.171-0.305,1.501    c-0.502,0.332-1.174,0.193-1.502-0.303c-0.056-0.085-5.722-8.48-14.318-10.086c-4.556-0.855-9.181,0.347-13.738,3.563    c-4.045,2.856-6.623,6.132-8.121,9.295c5.215,0.766,9.375,2.991,10.75,6.026c0.997,2.199,0.401,4.555-1.676,6.636    c-3.826,3.831-6.836,3.59-8.289,3.12c-2.342-0.773-4.033-3.194-4.524-6.479c-0.312-2.093-0.155-4.667,0.691-7.411    c-0.899-0.032-1.838-0.021-2.804,0.04c-5.778,0.375-19.821,3.234-25.438,21.654C181.967,131.256,181.537,131.556,181.072,131.556z     M212.558,109.273c-0.867,2.57-1.044,4.977-0.755,6.909c0.366,2.46,1.51,4.231,3.058,4.742c1.699,0.559,3.852-0.362,6.077-2.593    c1.435-1.435,1.851-2.851,1.236-4.208C221.193,111.957,217.566,109.906,212.558,109.273z"/>
		<g>
			<path style="fill:#FBFCFF;" d="M283.281,185.874c-0.36,0-0.712-0.18-0.918-0.506c-16.872-26.76-34.215-17.351-34.391-17.254     c-0.523,0.301-1.182,0.114-1.478-0.409c-0.295-0.521-0.112-1.181,0.409-1.475c0.193-0.11,19.332-10.51,37.293,17.982     c0.32,0.506,0.167,1.175-0.339,1.494C283.679,185.821,283.479,185.874,283.281,185.874z"/>
			<path style="fill:#FBFCFF;" d="M293,199.847c-0.599,0-1.084-0.485-1.084-1.084c0-1.956-2.853-6.609-4.653-9.083     c-0.352-0.485-0.246-1.162,0.239-1.513c0.486-0.354,1.162-0.246,1.513,0.239c0.519,0.713,5.068,7.062,5.068,10.357     C294.084,199.362,293.599,199.847,293,199.847z"/>
		</g>
		<g>
			<path style="fill:#FBFCFF;" d="M168.854,236.211c-0.354,0-0.701-0.174-0.908-0.491c-17.31-26.481-34.499-16.784-34.671-16.684     c-0.516,0.305-1.181,0.131-1.483-0.383c-0.304-0.516-0.132-1.181,0.384-1.484c0.187-0.112,19.155-10.829,37.584,17.366     c0.328,0.502,0.187,1.173-0.314,1.501C169.263,236.154,169.057,236.211,168.854,236.211z"/>
		</g>
		<g>
			<path style="fill:#FBFCFF;" d="M249.663,243.507c-0.36,0-0.712-0.18-0.918-0.506c-16.871-26.76-34.216-17.351-34.392-17.254     c-0.525,0.303-1.181,0.114-1.477-0.409c-0.295-0.521-0.112-1.181,0.409-1.475c0.193-0.11,19.334-10.512,37.294,17.982     c0.32,0.506,0.167,1.175-0.339,1.494C250.061,243.454,249.861,243.507,249.663,243.507z"/>
			<path style="fill:#FBFCFF;" d="M259.381,257.478c-0.599,0-1.084-0.485-1.084-1.084c0-1.956-2.853-6.609-4.653-9.083     c-0.352-0.485-0.246-1.162,0.239-1.513c0.484-0.354,1.161-0.246,1.513,0.239c0.519,0.713,5.068,7.062,5.068,10.357     C260.464,256.993,259.98,257.478,259.381,257.478z"/>
		</g>
		<g>
			<path style="fill:#FBFCFF;" d="M327.645,244.5c-0.36,0-0.712-0.18-0.918-0.506c-16.871-26.762-34.215-17.347-34.391-17.252     c-0.524,0.301-1.183,0.114-1.477-0.409c-0.295-0.521-0.112-1.181,0.409-1.475c0.193-0.108,19.332-10.51,37.293,17.98     c0.32,0.506,0.167,1.175-0.339,1.494C328.043,244.447,327.843,244.5,327.645,244.5z"/>
			<path style="fill:#FBFCFF;" d="M337.364,258.473c-0.599,0-1.084-0.485-1.084-1.084c0-1.956-2.853-6.609-4.653-9.083     c-0.352-0.485-0.246-1.162,0.239-1.513s1.162-0.246,1.513,0.239c0.519,0.713,5.068,7.062,5.068,10.357     C338.448,257.988,337.963,258.473,337.364,258.473z"/>
		</g>
		<g>
			<path style="fill:#FBFCFF;" d="M362.672,209.474c-0.36,0-0.712-0.18-0.918-0.506c-16.871-26.762-34.216-17.349-34.391-17.254     c-0.522,0.303-1.181,0.114-1.477-0.409c-0.295-0.521-0.112-1.181,0.409-1.475c0.193-0.11,19.331-10.512,37.293,17.982     c0.32,0.506,0.167,1.175-0.339,1.494C363.07,209.421,362.87,209.474,362.672,209.474z"/>
			<path style="fill:#FBFCFF;" d="M372.391,223.447c-0.599,0-1.084-0.485-1.084-1.084c0-1.956-2.853-6.609-4.653-9.083     c-0.352-0.485-0.246-1.162,0.239-1.513c0.485-0.354,1.162-0.246,1.513,0.239c0.519,0.713,5.068,7.062,5.068,10.357     C373.475,222.962,372.99,223.447,372.391,223.447z"/>
		</g>
		<g>
			<path style="fill:#FBFCFF;" d="M280.526,307.628c-0.36,0-0.712-0.18-0.918-0.506c-16.87-26.756-34.216-17.349-34.391-17.254     c-0.523,0.303-1.182,0.114-1.477-0.409c-0.295-0.521-0.112-1.181,0.409-1.475c0.193-0.108,19.334-10.505,37.293,17.982     c0.32,0.506,0.167,1.175-0.339,1.494C280.924,307.575,280.724,307.628,280.526,307.628z"/>
		</g>
		<path style="fill:#FBFCFF;" d="M352.688,327.653c-0.36,0-0.712-0.18-0.918-0.506c-16.871-26.758-34.216-17.349-34.392-17.254    c-0.524,0.301-1.181,0.114-1.478-0.409c-0.295-0.521-0.112-1.181,0.409-1.475c0.192-0.11,19.333-10.51,37.294,17.982    c0.32,0.506,0.167,1.175-0.339,1.494C353.086,327.6,352.886,327.653,352.688,327.653z"/>
		<path style="fill:#FBFCFF;" d="M362.406,341.625c-0.599,0-1.084-0.485-1.084-1.084c0-1.954-2.853-6.609-4.652-9.083    c-0.352-0.485-0.244-1.162,0.239-1.513c0.486-0.351,1.162-0.246,1.513,0.239c0.519,0.713,5.066,7.061,5.066,10.357    C363.49,341.141,363.006,341.625,362.406,341.625z"/>
		<path style="fill:#FBFCFF;" d="M257.738,371.882c-0.36,0-0.711-0.18-0.918-0.506c-16.816-26.667-33.683-17.645-34.394-17.252    c-0.523,0.29-1.181,0.108-1.474-0.413s-0.111-1.179,0.409-1.473c0.193-0.11,19.33-10.51,37.293,17.982    c0.32,0.506,0.168,1.175-0.339,1.494C258.136,371.829,257.936,371.882,257.738,371.882z"/>
		<path style="fill:#FBFCFF;" d="M326.016,375.676c-0.36,0-0.711-0.18-0.918-0.506c-16.813-26.667-33.683-17.647-34.394-17.252    c-0.522,0.29-1.181,0.106-1.474-0.413c-0.293-0.521-0.111-1.179,0.409-1.473c0.193-0.11,19.33-10.508,37.293,17.982    c0.32,0.506,0.168,1.175-0.339,1.494C326.414,375.623,326.214,375.676,326.016,375.676z"/>
		<path style="fill:#FBFCFF;" d="M335.735,389.648c-0.599,0-1.084-0.485-1.084-1.084c0-1.956-2.853-6.609-4.653-9.083    c-0.352-0.485-0.246-1.162,0.239-1.513c0.484-0.351,1.162-0.246,1.513,0.239c0.519,0.713,5.068,7.062,5.068,10.357    C336.819,389.164,336.334,389.648,335.735,389.648z"/>
		<path style="fill:#241726;" d="M243.846,156.43c-0.353,0-0.701-0.174-0.908-0.491c-0.182-0.277-18.376-27.782-38.32-29.08    c-7.591-0.5-14.571,2.911-20.751,10.12c-0.388,0.455-1.073,0.504-1.527,0.119c-0.455-0.389-0.508-1.075-0.117-1.528    c6.648-7.756,14.234-11.399,22.54-10.874c21.027,1.372,39.225,28.887,39.989,30.058c0.328,0.502,0.186,1.173-0.314,1.501    C244.254,156.373,244.049,156.43,243.846,156.43z"/>
		<path style="fill:#52AFA6;" d="M99.719,119.049c0,0-43.248,8.153-55.75,44.149c-8.915,25.668-0.98,44.268,0.071,47.164    s19.251-16.488,19.251-16.488s-2.446,33.002,5.862,45.063c8.308,12.06,31.532-38.64,31.532-38.64s6.114,24.981,14.197,21.066    S166.805,120.599,99.719,119.049z"/>
		<path style="fill:#52AFA6;" d="M162.822,87.38c0,0-9.692-35.777,13.006-58.465c16.186-16.179,33.198-16.99,35.779-17.257    c2.581-0.266-5.433,20.645-5.433,20.645s24.12-13.966,36.311-12.095s-17.718,38.085-17.718,38.085s21.181-4.534,21.179,3.03    C245.945,68.888,188.619,137.666,162.822,87.38z"/>
		<path style="fill:#241726;" d="M213.747,65.606c-0.608-0.1-13.645-2.225-21.166-1.545c9.09-10.36,18.736-16.177,18.915-16.283    c0.515-0.305,0.686-0.969,0.382-1.484c-0.305-0.514-0.965-0.684-1.485-0.383c-0.189,0.112-10.734,6.46-20.341,17.779    c-0.755-2.594-0.162-11.56,1.483-21.17c0.102-0.588-0.295-1.149-0.885-1.251c-0.595-0.097-1.149,0.296-1.251,0.887    c-0.803,4.682-3.132,19.695-0.826,23.331c-4.733,5.907-9.074,13.04-11.641,21.242c-1.683-4.416-3.003-20.192-1.163-27.909    c0.139-0.582-0.22-1.166-0.802-1.306c-0.578-0.144-1.167,0.22-1.306,0.802c-1.804,7.565-0.929,27.967,2.506,31.107    c-0.819,3.189-1.378,6.519-1.566,10c-0.032,0.599,0.427,1.109,1.025,1.141c0.02,0.002,0.039,0.002,0.059,0.002    c0.572,0,1.05-0.447,1.082-1.025c0.188-3.471,0.76-6.788,1.599-9.96c0.094-0.065,0.193-0.105,0.281-0.188    c2.147-2.028,19.682-6.501,30.229-8.844c0.584-0.129,0.953-0.709,0.823-1.293c-0.129-0.584-0.708-0.948-1.293-0.823    c-2.504,0.556-22.157,4.975-29.155,8.16c2.561-7.773,6.767-14.54,11.322-20.151c0.034-0.005,0.064,0.01,0.098,0.004    c6.566-1.348,22.561,1.27,22.722,1.298c0.06,0.011,0.12,0.015,0.178,0.015c0.521,0,0.98-0.377,1.068-0.908    C214.736,66.26,214.337,65.704,213.747,65.606z"/>
		<path style="fill:#241726;" d="M116.747,161.46l-14.17-30.114c1.857-2.522,3.084-3.941,3.141-4.004    c0.396-0.449,0.352-1.135-0.096-1.53c-0.445-0.396-1.131-0.351-1.529,0.095c-0.058,0.066-1.34,1.544-3.275,4.179    c-2.92,0.17-19.706,1.847-38.265,18.354c-0.447,0.398-0.487,1.084-0.089,1.53c0.397,0.447,1.082,0.485,1.53,0.091    c15.429-13.727,29.829-16.888,35.138-17.61c-3.641,5.249-8.613,13.388-12.588,23.444c-6.051,0.286-26.051,13.257-30.202,15.982    c-0.501,0.328-0.639,1.001-0.311,1.501c0.329,0.502,1,0.641,1.501,0.311c11.043-7.247,23.912-14.56,28.16-15.56    c-3.997,10.825-6.704,23.657-5.396,37.384c0.053,0.561,0.525,0.98,1.077,0.98c0.034,0,0.069-0.002,0.104-0.004    c0.596-0.057,1.033-0.586,0.976-1.183c-1.253-13.159,1.284-25.487,5.084-35.945c3.538,6.369,15.81,26.972,18.413,29.573    c0.212,0.212,0.489,0.318,0.766,0.318c0.277,0,0.555-0.106,0.766-0.318c0.423-0.423,0.423-1.109,0-1.533    c-2.602-2.599-16.969-26.821-18.803-30.49c-0.034-0.068-0.082-0.142-0.133-0.216c3.984-10.085,8.999-18.207,12.584-23.329    l13.655,29.018c0.185,0.392,0.575,0.622,0.982,0.622c0.155,0,0.311-0.034,0.46-0.104    C116.769,162.647,117.001,162.001,116.747,161.46z"/>
		<path style="fill:#52AFA6;" d="M238.692,87.077c0,0,30.22-31.995,67.266-23.076c26.417,6.36,37.786,23.083,39.656,25.532    c1.87,2.448-24.274,7.297-24.274,7.297s29.096,15.766,34.759,29.271c5.663,13.506-49.549,5.67-49.549,5.67    s17.723,18.638,10.062,23.325S203.764,144.375,238.692,87.077z"/>
		<path style="fill:#241726;" d="M313.533,112.025c-10.849-8.515-23.114-13.168-34.385-15.649    c3.119-3.053,16.239-9.91,28.313-15.293c0.547-0.246,0.793-0.885,0.548-1.433c-0.243-0.544-0.884-0.792-1.431-0.548    c-4.531,2.022-26.211,11.871-29.769,16.786c-10.607-2.085-20.14-2.296-26.523-2.066c3.476-4.077,13.913-14.488,33.798-20.063    c0.577-0.161,0.913-0.76,0.751-1.336s-0.762-0.908-1.336-0.751c-23.917,6.704-34.394,19.923-36.113,22.291    c-3.264,0.207-5.2,0.487-5.287,0.5c-0.592,0.091-0.998,0.644-0.907,1.236s0.66,0.995,1.235,0.906    c0.085-0.013,1.943-0.28,5.07-0.48l17.689,28.189c0.205,0.328,0.558,0.508,0.919,0.508c0.197,0,0.396-0.053,0.575-0.165    c0.507-0.32,0.66-0.989,0.342-1.494l-17.045-27.164c6.247-0.25,15.791-0.084,26.431,2.01c0.035,0.082,0.071,0.162,0.11,0.228    c2.096,3.522,14.72,28.693,15.506,32.291c0.11,0.508,0.559,0.853,1.057,0.853c0.076,0,0.155-0.008,0.232-0.025    c0.585-0.127,0.956-0.705,0.828-1.289c-0.786-3.602-11.494-25.049-14.944-31.467c10.853,2.45,22.599,6.973,32.996,15.134    c0.198,0.155,0.434,0.231,0.668,0.231c0.322,0,0.64-0.142,0.854-0.415C314.086,113.077,314.004,112.395,313.533,112.025z"/>
		<path style="fill:#FBFCFF;" d="M170.159,48.397c-0.087,0-0.176-0.011-0.264-0.032c-0.581-0.146-0.935-0.735-0.788-1.315    c2.214-8.861,13.879-20.6,14.374-21.096c0.423-0.423,1.109-0.423,1.533,0c0.423,0.423,0.423,1.109,0,1.533    c-0.117,0.116-11.734,11.812-13.804,20.088C171.086,48.069,170.645,48.397,170.159,48.397z"/>
		<path style="fill:#FBFCFF;" d="M320.444,78.021c-0.322,0-0.64-0.142-0.854-0.415c-6.115-7.815-22.487-8.251-22.652-8.255    c-0.598-0.013-1.073-0.508-1.061-1.107c0.014-0.597,0.477-1.056,1.107-1.061c0.714,0.015,17.57,0.472,24.312,9.085    c0.369,0.472,0.286,1.154-0.185,1.522C320.913,77.945,320.677,78.021,320.444,78.021z"/>
		<path style="fill:#FBFCFF;" d="M45.163,175.561c-0.449,0-0.868-0.279-1.023-0.728c-3.058-8.787,8.028-22.162,8.501-22.728    c0.387-0.459,1.07-0.516,1.526-0.135c0.459,0.385,0.52,1.069,0.135,1.528c-0.108,0.129-10.77,12.993-8.116,20.624    c0.197,0.565-0.102,1.183-0.668,1.38C45.401,175.542,45.281,175.561,45.163,175.561z"/>
		<g>
			<path style="fill:#241726;" d="M148.123,186.037c-0.368,0-0.727-0.188-0.93-0.527c-2.491-4.151-0.076-7.864,0.028-8.02     c0.331-0.5,1.001-0.633,1.503-0.301c0.496,0.33,0.632,1.001,0.303,1.499c-0.087,0.135-1.739,2.769,0.025,5.709     c0.308,0.512,0.142,1.177-0.371,1.486C148.505,185.986,148.312,186.037,148.123,186.037z"/>
			<path style="fill:#241726;" d="M154.986,179.535c-0.368,0-0.727-0.188-0.93-0.527c-2.491-4.151-0.076-7.864,0.028-8.02     c0.329-0.5,1.001-0.635,1.503-0.301c0.496,0.33,0.632,1.001,0.303,1.499c-0.087,0.135-1.739,2.769,0.025,5.709     c0.308,0.512,0.142,1.177-0.371,1.486C155.368,179.484,155.176,179.535,154.986,179.535z"/>
			<path style="fill:#241726;" d="M150.611,171.609c-0.455,0-0.878-0.288-1.029-0.743c-1.523-4.598,1.646-7.692,1.781-7.821     c0.432-0.415,1.118-0.398,1.533,0.034c0.412,0.432,0.397,1.116-0.032,1.528c-0.097,0.095-2.307,2.309-1.225,5.578     c0.188,0.567-0.12,1.181-0.688,1.37C150.839,171.593,150.724,171.609,150.611,171.609z"/>
			<path style="fill:#241726;" d="M154.263,191.818c-0.368,0-0.727-0.188-0.93-0.527c-2.491-4.153-0.076-7.866,0.028-8.023     c0.33-0.5,1.002-0.633,1.503-0.301c0.496,0.33,0.632,1.001,0.303,1.499c-0.087,0.135-1.739,2.769,0.025,5.711     c0.308,0.512,0.142,1.179-0.372,1.486C154.646,191.769,154.453,191.818,154.263,191.818z"/>
			<path style="fill:#241726;" d="M147.761,197.959c-0.368,0-0.727-0.188-0.93-0.527c-2.491-4.151-0.076-7.864,0.028-8.02     c0.329-0.5,1.001-0.633,1.503-0.301c0.496,0.33,0.632,1.001,0.303,1.499c-0.087,0.135-1.739,2.769,0.025,5.709     c0.308,0.512,0.142,1.177-0.371,1.486C148.143,197.908,147.95,197.959,147.761,197.959z"/>
		</g>
		<g>
			<path style="fill:#241726;" d="M179.552,260.096c-0.368,0-0.727-0.188-0.93-0.527c-2.491-4.153-0.076-7.866,0.028-8.023     c0.33-0.5,1.001-0.633,1.503-0.301c0.496,0.33,0.632,1.001,0.303,1.499c-0.087,0.135-1.739,2.769,0.025,5.711     c0.308,0.512,0.142,1.179-0.371,1.486C179.934,260.048,179.742,260.096,179.552,260.096z"/>
			<path style="fill:#241726;" d="M186.416,253.594c-0.368,0-0.727-0.188-0.93-0.527c-2.491-4.153-0.076-7.866,0.028-8.023     c0.331-0.497,1.001-0.635,1.503-0.301c0.496,0.33,0.632,1.001,0.303,1.499c-0.087,0.135-1.739,2.769,0.025,5.711     c0.308,0.512,0.142,1.179-0.371,1.486C186.798,253.545,186.605,253.594,186.416,253.594z"/>
			<path style="fill:#241726;" d="M182.041,245.668c-0.455,0-0.878-0.288-1.029-0.743c-1.523-4.598,1.646-7.692,1.781-7.821     c0.433-0.415,1.118-0.396,1.533,0.034c0.412,0.432,0.397,1.116-0.032,1.528c-0.097,0.095-2.307,2.309-1.225,5.578     c0.188,0.567-0.12,1.181-0.688,1.37C182.268,245.652,182.154,245.668,182.041,245.668z"/>
			<path style="fill:#241726;" d="M185.693,265.877c-0.368,0-0.727-0.188-0.93-0.527c-2.491-4.153-0.076-7.866,0.028-8.022     c0.33-0.5,1.002-0.633,1.503-0.301c0.497,0.332,0.632,1.003,0.303,1.501c-0.093,0.144-1.735,2.773,0.025,5.709     c0.308,0.512,0.142,1.179-0.371,1.486C186.075,265.828,185.883,265.877,185.693,265.877z"/>
			<path style="fill:#241726;" d="M179.19,272.018c-0.368,0-0.727-0.188-0.93-0.527c-2.491-4.153-0.076-7.866,0.028-8.022     c0.331-0.5,1.001-0.633,1.503-0.301c0.496,0.33,0.632,1.001,0.303,1.499c-0.087,0.135-1.739,2.769,0.025,5.711     c0.308,0.512,0.142,1.179-0.371,1.486C179.572,271.969,179.38,272.018,179.19,272.018z"/>
		</g>
		<g>
			<path style="fill:#241726;" d="M110.912,264.793c-0.368,0-0.727-0.188-0.93-0.527c-2.491-4.153-0.076-7.866,0.028-8.023     c0.331-0.5,1.001-0.635,1.503-0.301c0.497,0.332,0.632,1.003,0.303,1.501c-0.093,0.144-1.735,2.773,0.025,5.709     c0.308,0.512,0.142,1.179-0.371,1.486C111.294,264.745,111.102,264.793,110.912,264.793z"/>
			<path style="fill:#241726;" d="M117.777,258.291c-0.368,0-0.727-0.188-0.93-0.527c-2.491-4.153-0.076-7.866,0.028-8.023     c0.33-0.5,1.002-0.633,1.503-0.301c0.497,0.332,0.632,1.003,0.303,1.501c-0.093,0.144-1.735,2.773,0.025,5.709     c0.308,0.512,0.142,1.179-0.371,1.486C118.159,258.242,117.966,258.291,117.777,258.291z"/>
			<path style="fill:#241726;" d="M113.4,250.366c-0.455,0-0.878-0.288-1.029-0.743c-1.523-4.6,1.646-7.694,1.781-7.824     c0.432-0.415,1.118-0.398,1.533,0.034c0.412,0.432,0.397,1.116-0.032,1.528h0.001c-0.095,0.093-2.309,2.307-1.226,5.58     c0.188,0.567-0.12,1.181-0.688,1.37C113.628,250.349,113.514,250.366,113.4,250.366z"/>
			<path style="fill:#241726;" d="M117.054,270.572c-0.368,0-0.727-0.188-0.93-0.527c-2.491-4.151-0.076-7.864,0.028-8.02     c0.331-0.497,1.003-0.635,1.503-0.301c0.496,0.33,0.632,1.001,0.303,1.499c-0.087,0.135-1.739,2.769,0.025,5.709     c0.308,0.512,0.142,1.177-0.371,1.486C117.436,270.521,117.243,270.572,117.054,270.572z"/>
			<path style="fill:#241726;" d="M110.551,276.715c-0.368,0-0.727-0.188-0.93-0.527c-2.491-4.153-0.076-7.866,0.028-8.023     c0.33-0.5,1.002-0.635,1.503-0.301c0.497,0.332,0.632,1.003,0.303,1.501c-0.093,0.144-1.735,2.773,0.025,5.709     c0.308,0.512,0.142,1.179-0.371,1.486C110.933,276.666,110.741,276.715,110.551,276.715z"/>
		</g>
		<g>
			<path style="fill:#241726;" d="M273.479,264.431c-0.368,0-0.727-0.188-0.93-0.527c-2.491-4.153-0.076-7.866,0.028-8.023     c0.329-0.497,1.001-0.633,1.503-0.301c0.496,0.33,0.632,1.001,0.303,1.499c-0.087,0.135-1.739,2.769,0.025,5.711     c0.308,0.512,0.142,1.179-0.371,1.486C273.861,264.383,273.669,264.431,273.479,264.431z"/>
			<path style="fill:#241726;" d="M280.344,257.929c-0.368,0-0.727-0.188-0.93-0.527c-2.491-4.153-0.076-7.866,0.027-8.023     c0.33-0.497,1.002-0.633,1.503-0.301c0.496,0.33,0.632,1.001,0.303,1.499c-0.087,0.135-1.739,2.769,0.025,5.711     c0.308,0.512,0.142,1.179-0.371,1.486C280.726,257.88,280.533,257.929,280.344,257.929z"/>
			<path style="fill:#241726;" d="M275.968,250.004c-0.455,0-0.878-0.288-1.029-0.743c-1.523-4.598,1.646-7.692,1.781-7.821     c0.432-0.415,1.118-0.398,1.533,0.034c0.412,0.432,0.397,1.116-0.032,1.528c-0.097,0.095-2.307,2.309-1.225,5.578     c0.188,0.567-0.12,1.181-0.688,1.37C276.195,249.987,276.081,250.004,275.968,250.004z"/>
			<path style="fill:#241726;" d="M279.621,270.212c-0.368,0-0.727-0.188-0.93-0.527c-2.491-4.153-0.076-7.866,0.027-8.023     c0.33-0.5,1.003-0.633,1.503-0.301c0.497,0.332,0.632,1.003,0.303,1.501c-0.093,0.144-1.735,2.773,0.025,5.709     c0.308,0.512,0.142,1.179-0.371,1.486C280.003,270.164,279.811,270.212,279.621,270.212z"/>
			<path style="fill:#241726;" d="M273.118,276.353c-0.368,0-0.727-0.188-0.93-0.527c-2.491-4.153-0.076-7.866,0.027-8.023     c0.33-0.497,1.002-0.635,1.503-0.301c0.496,0.33,0.632,1.001,0.303,1.499c-0.087,0.135-1.739,2.769,0.025,5.711     c0.308,0.512,0.142,1.179-0.371,1.486C273.5,276.304,273.308,276.353,273.118,276.353z"/>
		</g>
		<g>
			<path style="fill:#241726;" d="M286.485,342.826c-0.368,0-0.727-0.188-0.93-0.527c-2.491-4.153-0.076-7.866,0.027-8.023     c0.331-0.5,1.003-0.633,1.503-0.301c0.497,0.332,0.632,1.003,0.303,1.501c-0.093,0.144-1.735,2.773,0.025,5.709     c0.308,0.512,0.142,1.179-0.371,1.486C286.867,342.777,286.674,342.826,286.485,342.826z"/>
			<path style="fill:#241726;" d="M293.349,336.323c-0.368,0-0.727-0.188-0.93-0.527c-2.491-4.153-0.076-7.866,0.028-8.023     c0.331-0.497,1.001-0.635,1.503-0.301c0.497,0.332,0.632,1.003,0.303,1.501c-0.093,0.144-1.735,2.773,0.025,5.709     c0.308,0.512,0.142,1.179-0.371,1.486C293.731,336.274,293.539,336.323,293.349,336.323z"/>
			<path style="fill:#241726;" d="M288.973,328.398c-0.455,0-0.878-0.288-1.029-0.743c-1.523-4.6,1.646-7.694,1.781-7.824     c0.432-0.415,1.119-0.398,1.533,0.034c0.412,0.432,0.397,1.116-0.032,1.528h0.001c-0.095,0.093-2.309,2.307-1.226,5.58     c0.188,0.567-0.12,1.181-0.688,1.37C289.201,328.381,289.086,328.398,288.973,328.398z"/>
		</g>
		<g>
			<path style="fill:#241726;" d="M346.455,293.694c-0.368,0-0.727-0.188-0.93-0.527c-2.491-4.153-0.076-7.866,0.028-8.023     c0.331-0.497,1.003-0.635,1.503-0.301c0.496,0.33,0.632,1.001,0.303,1.499c-0.087,0.135-1.739,2.769,0.025,5.711     c0.308,0.512,0.142,1.179-0.371,1.486C346.837,293.645,346.644,293.694,346.455,293.694z"/>
			<path style="fill:#241726;" d="M353.318,287.191c-0.368,0-0.727-0.188-0.93-0.527c-2.491-4.153-0.076-7.866,0.028-8.023     c0.33-0.497,1.003-0.633,1.503-0.301c0.496,0.33,0.632,1.001,0.303,1.499c-0.087,0.135-1.739,2.769,0.025,5.711     c0.308,0.512,0.142,1.179-0.371,1.486C353.7,287.142,353.508,287.191,353.318,287.191z"/>
			<path style="fill:#241726;" d="M348.943,279.266c-0.455,0-0.878-0.288-1.029-0.743c-1.523-4.598,1.646-7.692,1.781-7.821     c0.432-0.415,1.118-0.398,1.533,0.034c0.412,0.432,0.397,1.116-0.032,1.528c-0.097,0.095-2.307,2.309-1.225,5.578     c0.188,0.567-0.12,1.181-0.688,1.37C349.17,279.249,349.056,279.266,348.943,279.266z"/>
		</g>
		<g>
			<path style="fill:#241726;" d="M306.966,210.15c-0.368,0-0.727-0.188-0.93-0.527c-2.491-4.153-0.076-7.866,0.028-8.023     c0.331-0.5,1.003-0.635,1.503-0.301c0.496,0.33,0.632,1.001,0.303,1.499c-0.087,0.135-1.739,2.769,0.025,5.711     c0.308,0.512,0.142,1.179-0.371,1.486C307.348,210.101,307.155,210.15,306.966,210.15z"/>
			<path style="fill:#241726;" d="M313.83,203.647c-0.368,0-0.727-0.188-0.93-0.527c-2.491-4.153-0.076-7.866,0.027-8.023     c0.33-0.5,1.001-0.633,1.503-0.301c0.496,0.33,0.632,1.001,0.303,1.499c-0.087,0.135-1.739,2.769,0.025,5.711     c0.308,0.512,0.142,1.179-0.371,1.486C314.212,203.598,314.02,203.647,313.83,203.647z"/>
			<path style="fill:#241726;" d="M309.454,195.722c-0.455,0-0.878-0.288-1.029-0.743c-1.523-4.598,1.646-7.692,1.781-7.821     c0.432-0.413,1.118-0.398,1.533,0.034c0.412,0.432,0.397,1.116-0.032,1.528c-0.097,0.095-2.307,2.309-1.225,5.578     c0.188,0.567-0.12,1.181-0.688,1.37C309.681,195.705,309.567,195.722,309.454,195.722z"/>
		</g>
		<g>
			<path style="fill:#241726;" d="M252.346,222.344c-0.368,0-0.727-0.188-0.93-0.527c-2.491-4.151-0.076-7.864,0.028-8.02     c0.331-0.5,1.003-0.633,1.503-0.301c0.496,0.33,0.632,1.001,0.303,1.499c-0.087,0.135-1.739,2.769,0.025,5.709     c0.308,0.512,0.142,1.177-0.371,1.486C252.728,222.293,252.535,222.344,252.346,222.344z"/>
			<path style="fill:#241726;" d="M259.21,215.841c-0.368,0-0.727-0.188-0.93-0.527c-2.491-4.151-0.076-7.864,0.028-8.02     c0.331-0.5,1.001-0.633,1.503-0.301c0.496,0.33,0.632,1.001,0.303,1.499c-0.087,0.135-1.739,2.769,0.025,5.709     c0.308,0.512,0.142,1.177-0.371,1.486C259.592,215.79,259.4,215.841,259.21,215.841z"/>
			<path style="fill:#241726;" d="M254.834,207.916c-0.455,0-0.878-0.288-1.029-0.743c-1.523-4.598,1.646-7.692,1.781-7.821     c0.433-0.415,1.118-0.398,1.533,0.034c0.412,0.432,0.397,1.116-0.032,1.528c-0.097,0.095-2.307,2.309-1.225,5.578     c0.188,0.567-0.12,1.181-0.688,1.37C255.061,207.899,254.947,207.916,254.834,207.916z"/>
		</g>
		<g>
			<path style="fill:#241726;" d="M373.187,370.28c-0.368,0-0.727-0.188-0.93-0.527c-2.491-4.151-0.076-7.864,0.028-8.02     c0.331-0.497,1.001-0.635,1.503-0.301c0.496,0.33,0.632,1.001,0.303,1.499c-0.087,0.135-1.739,2.769,0.025,5.709     c0.308,0.512,0.142,1.177-0.371,1.486C373.569,370.229,373.377,370.28,373.187,370.28z"/>
			<path style="fill:#241726;" d="M380.052,363.777c-0.368,0-0.727-0.188-0.93-0.527c-2.491-4.151-0.076-7.864,0.028-8.02     c0.33-0.5,1.002-0.633,1.503-0.301c0.496,0.33,0.632,1.001,0.303,1.499c-0.087,0.135-1.739,2.769,0.025,5.709     c0.308,0.512,0.142,1.177-0.371,1.486C380.434,363.726,380.241,363.777,380.052,363.777z"/>
			<path style="fill:#241726;" d="M375.675,355.852c-0.455,0-0.878-0.288-1.029-0.743c-1.523-4.598,1.646-7.692,1.781-7.821     c0.433-0.415,1.117-0.398,1.533,0.034c0.412,0.432,0.397,1.116-0.032,1.528c-0.097,0.095-2.307,2.309-1.225,5.578     c0.188,0.567-0.12,1.181-0.688,1.37C375.903,355.835,375.789,355.852,375.675,355.852z"/>
		</g>
		<g>
			<path style="fill:#241726;" d="M217.846,320.426c-0.368,0-0.727-0.188-0.93-0.527c-2.491-4.151-0.076-7.864,0.028-8.02     c0.331-0.497,1.001-0.633,1.503-0.301c0.496,0.33,0.632,1.001,0.303,1.499c-0.087,0.135-1.739,2.769,0.025,5.709     c0.308,0.512,0.142,1.177-0.371,1.486C218.228,320.375,218.035,320.426,217.846,320.426z"/>
			<path style="fill:#241726;" d="M224.709,313.923c-0.368,0-0.727-0.188-0.93-0.527c-2.491-4.151-0.076-7.864,0.028-8.02     c0.331-0.5,1.001-0.633,1.503-0.301c0.496,0.33,0.632,1.001,0.303,1.499c-0.087,0.135-1.739,2.769,0.025,5.709     c0.308,0.512,0.142,1.177-0.371,1.486C225.091,313.873,224.899,313.923,224.709,313.923z"/>
			<path style="fill:#241726;" d="M220.334,305.998c-0.455,0-0.878-0.288-1.029-0.743c-1.523-4.598,1.646-7.692,1.781-7.821     c0.432-0.415,1.118-0.398,1.533,0.034c0.412,0.432,0.397,1.116-0.032,1.528c-0.097,0.095-2.307,2.309-1.225,5.578     c0.188,0.567-0.12,1.181-0.688,1.37C220.561,305.981,220.447,305.998,220.334,305.998z"/>
			<path style="fill:#241726;" d="M223.987,326.207c-0.368,0-0.727-0.188-0.93-0.527c-2.491-4.153-0.076-7.866,0.028-8.023     c0.33-0.5,1-0.633,1.503-0.301c0.496,0.33,0.632,1.001,0.303,1.499c-0.087,0.135-1.739,2.769,0.025,5.711     c0.308,0.512,0.142,1.179-0.371,1.486C224.369,326.158,224.177,326.207,223.987,326.207z"/>
			<path style="fill:#241726;" d="M217.485,332.348c-0.368,0-0.727-0.188-0.93-0.527c-2.491-4.151-0.076-7.864,0.028-8.02     c0.33-0.497,1.002-0.633,1.503-0.301c0.496,0.33,0.632,1.001,0.303,1.499c-0.087,0.135-1.739,2.769,0.025,5.709     c0.308,0.512,0.142,1.177-0.371,1.486C217.867,332.297,217.674,332.348,217.485,332.348z"/>
		</g>
		<g>
			<path style="fill:#241726;" d="M140.14,341.926c-0.314,0-0.627-0.135-0.84-0.398c-3.062-3.753-1.204-7.775-1.124-7.944     c0.257-0.54,0.901-0.771,1.445-0.512c0.539,0.256,0.768,0.9,0.515,1.439c-0.058,0.127-1.331,2.98,0.842,5.645     c0.379,0.464,0.31,1.147-0.155,1.526C140.623,341.846,140.381,341.926,140.14,341.926z"/>
			<path style="fill:#241726;" d="M146.002,334.507c-0.314,0-0.627-0.135-0.84-0.398c-3.062-3.753-1.204-7.775-1.124-7.944     c0.257-0.538,0.901-0.773,1.445-0.512c0.539,0.256,0.768,0.897,0.515,1.437l0,0c-0.055,0.121-1.335,2.978,0.842,5.647     c0.379,0.464,0.31,1.147-0.155,1.526C146.484,334.426,146.242,334.507,146.002,334.507z"/>
			<path style="fill:#241726;" d="M140.536,327.291c-0.398,0-0.78-0.22-0.971-0.599c-2.167-4.331,0.526-7.849,0.641-7.997     c0.37-0.472,1.05-0.552,1.522-0.184c0.469,0.368,0.552,1.046,0.188,1.516l0,0c-0.08,0.106-1.955,2.614-0.413,5.696     c0.268,0.536,0.051,1.185-0.485,1.454C140.864,327.255,140.699,327.291,140.536,327.291z"/>
			<path style="fill:#241726;" d="M147.046,346.767c-0.314,0-0.627-0.135-0.84-0.398c-3.062-3.753-1.203-7.775-1.123-7.944     c0.257-0.54,0.901-0.773,1.445-0.512c0.54,0.256,0.769,0.9,0.514,1.439c-0.066,0.144-1.325,2.989,0.842,5.645     c0.379,0.464,0.31,1.147-0.155,1.526C147.529,346.687,147.287,346.767,147.046,346.767z"/>
			<path style="fill:#241726;" d="M141.491,353.778c-0.315,0-0.627-0.135-0.841-0.398c-3.061-3.755-1.202-7.777-1.122-7.946     c0.258-0.538,0.904-0.773,1.445-0.512c0.54,0.256,0.769,0.902,0.514,1.441c-0.07,0.152-1.321,2.991,0.844,5.645     c0.378,0.466,0.308,1.147-0.156,1.526C141.974,353.697,141.731,353.778,141.491,353.778z"/>
		</g>
		<g>
			<path style="fill:#241726;" d="M197.581,402.618c-0.314,0-0.627-0.135-0.84-0.398c-3.062-3.753-1.204-7.775-1.124-7.944     c0.257-0.54,0.902-0.771,1.445-0.512c0.539,0.256,0.768,0.9,0.515,1.439c-0.058,0.127-1.331,2.98,0.842,5.645     c0.379,0.464,0.31,1.147-0.155,1.526C198.063,402.537,197.821,402.618,197.581,402.618z"/>
			<path style="fill:#241726;" d="M203.442,395.198c-0.314,0-0.627-0.135-0.84-0.398c-3.062-3.753-1.204-7.775-1.124-7.944     c0.257-0.54,0.902-0.773,1.445-0.512c0.539,0.256,0.768,0.897,0.515,1.437l0,0c-0.055,0.121-1.335,2.978,0.842,5.647     c0.379,0.464,0.31,1.147-0.155,1.526C203.925,395.118,203.682,395.198,203.442,395.198z"/>
			<path style="fill:#241726;" d="M197.977,387.982c-0.398,0-0.78-0.22-0.971-0.599c-2.167-4.331,0.526-7.849,0.641-7.997     c0.369-0.47,1.05-0.552,1.522-0.184c0.469,0.368,0.552,1.046,0.188,1.516l0,0c-0.08,0.106-1.955,2.614-0.413,5.696     c0.268,0.536,0.051,1.185-0.485,1.454C198.305,387.946,198.14,387.982,197.977,387.982z"/>
			<path style="fill:#241726;" d="M204.487,407.459c-0.314,0-0.627-0.135-0.84-0.398c-3.062-3.753-1.203-7.775-1.123-7.944     c0.257-0.538,0.902-0.773,1.445-0.512c0.54,0.256,0.769,0.9,0.514,1.439c-0.066,0.144-1.325,2.989,0.842,5.645     c0.379,0.464,0.31,1.147-0.155,1.526C204.969,407.378,204.727,407.459,204.487,407.459z"/>
			<path style="fill:#241726;" d="M198.931,414.469c-0.315,0-0.627-0.135-0.841-0.398c-3.061-3.755-1.202-7.777-1.122-7.946     c0.257-0.54,0.901-0.77,1.445-0.512c0.54,0.256,0.769,0.902,0.514,1.441c-0.07,0.152-1.321,2.991,0.844,5.645     c0.378,0.466,0.308,1.147-0.156,1.526C199.414,414.389,199.172,414.469,198.931,414.469z"/>
		</g>
		<g>
			<path style="fill:#241726;" d="M267.223,412.088c-0.241,0-0.485-0.08-0.687-0.246c-3.742-3.074-2.716-7.381-2.67-7.563     c0.144-0.584,0.732-0.927,1.315-0.79c0.578,0.146,0.93,0.73,0.79,1.308l0,0c-0.031,0.129-0.72,3.184,1.942,5.368     c0.463,0.381,0.529,1.063,0.149,1.526C267.848,411.953,267.537,412.088,267.223,412.088z"/>
			<path style="fill:#241726;" d="M271.501,403.657c-0.241,0-0.485-0.08-0.687-0.246c-3.742-3.074-2.717-7.383-2.671-7.565     c0.144-0.582,0.728-0.936,1.313-0.79c0.579,0.146,0.931,0.73,0.791,1.308l0,0c-0.031,0.129-0.72,3.184,1.943,5.37     c0.463,0.381,0.529,1.063,0.149,1.526C272.126,403.522,271.814,403.657,271.501,403.657z"/>
			<path style="fill:#241726;" d="M264.718,397.664c-0.323,0-0.641-0.144-0.855-0.417c-2.979-3.819-1.037-7.8-0.953-7.967     c0.269-0.533,0.921-0.751,1.454-0.483c0.534,0.269,0.75,0.917,0.485,1.452c-0.066,0.135-1.391,2.957,0.722,5.664     c0.368,0.472,0.285,1.154-0.187,1.522C265.186,397.59,264.951,397.664,264.718,397.664z"/>
			<path style="fill:#241726;" d="M274.952,415.466c-0.241,0-0.485-0.08-0.687-0.246c-3.743-3.074-2.717-7.381-2.671-7.563     c0.144-0.582,0.731-0.933,1.315-0.79c0.578,0.146,0.931,0.73,0.79,1.31c-0.033,0.135-0.717,3.184,1.943,5.366     c0.463,0.381,0.529,1.063,0.149,1.526C275.576,415.331,275.265,415.466,274.952,415.466z"/>
			<path style="fill:#241726;" d="M270.893,423.438c-0.241,0-0.485-0.08-0.687-0.246c-3.743-3.074-2.717-7.383-2.671-7.565     c0.144-0.582,0.741-0.934,1.313-0.79c0.579,0.146,0.931,0.73,0.791,1.31c-0.033,0.133-0.718,3.186,1.943,5.368     c0.463,0.381,0.529,1.063,0.149,1.526C271.517,423.303,271.206,423.438,270.893,423.438z"/>
		</g>
		<g>
			<path style="fill:#241726;" d="M346.871,445.186c-0.241,0-0.485-0.08-0.687-0.246c-3.742-3.074-2.716-7.383-2.67-7.565     c0.145-0.584,0.736-0.931,1.313-0.79c0.579,0.146,0.931,0.73,0.791,1.308l0,0c-0.031,0.129-0.72,3.186,1.942,5.37     c0.462,0.381,0.529,1.063,0.149,1.526C347.495,445.05,347.184,445.186,346.871,445.186z"/>
			<path style="fill:#241726;" d="M351.148,436.753c-0.241,0-0.485-0.08-0.687-0.246c-3.743-3.074-2.717-7.383-2.671-7.565     c0.145-0.582,0.737-0.934,1.313-0.79c0.579,0.146,0.931,0.73,0.791,1.31c-0.033,0.133-0.718,3.186,1.943,5.368     c0.463,0.381,0.529,1.063,0.149,1.526C351.773,436.617,351.462,436.753,351.148,436.753z"/>
			<path style="fill:#241726;" d="M344.365,430.76c-0.323,0-0.641-0.144-0.855-0.417c-2.981-3.819-1.037-7.8-0.953-7.967     c0.269-0.536,0.919-0.751,1.455-0.483c0.533,0.269,0.749,0.919,0.484,1.452c-0.068,0.138-1.391,2.959,0.722,5.664     c0.368,0.472,0.285,1.154-0.187,1.522C344.833,430.686,344.598,430.76,344.365,430.76z"/>
			<path style="fill:#241726;" d="M354.599,448.564c-0.241,0-0.485-0.08-0.687-0.246c-3.743-3.074-2.717-7.383-2.671-7.565     c0.145-0.582,0.736-0.929,1.313-0.79c0.579,0.146,0.931,0.73,0.791,1.31c-0.033,0.133-0.718,3.186,1.943,5.368     c0.463,0.381,0.529,1.063,0.149,1.526C355.223,448.429,354.912,448.564,354.599,448.564z"/>
			<path style="fill:#241726;" d="M350.54,456.534c-0.241,0-0.485-0.08-0.687-0.246c-3.743-3.074-2.717-7.383-2.671-7.565     c0.145-0.584,0.738-0.931,1.313-0.79c0.579,0.146,0.931,0.73,0.791,1.31c-0.033,0.133-0.718,3.186,1.943,5.368     c0.462,0.381,0.529,1.063,0.149,1.526C351.164,456.398,350.853,456.534,350.54,456.534z"/>
		</g>
		<path style="fill:#A55D88;" d="M322.831,192.646c0,0,18.225-10.327,35.842,17.617"/>
		<path style="fill:#A55D88;" d="M363.534,214.516c0,0,4.86,6.682,4.86,9.72"/>
		<path style="fill:#FBFCFF;" d="M412.342,348.065c-0.412,0-0.805-0.235-0.987-0.635c-9.191-20.177-25.002-14.843-25.162-14.781    c-0.56,0.199-1.183-0.095-1.383-0.66c-0.2-0.563,0.095-1.183,0.659-1.384c0.175-0.061,17.851-6.039,27.859,15.929    c0.248,0.544,0.007,1.188-0.537,1.435C412.645,348.033,412.492,348.065,412.342,348.065z"/>
		<path style="fill:#FBFCFF;" d="M422.061,362.037c-0.599,0-1.084-0.485-1.084-1.084c0-1.956-2.853-6.609-4.653-9.083    c-0.352-0.485-0.246-1.162,0.239-1.513s1.162-0.246,1.513,0.239c0.519,0.713,5.068,7.062,5.068,10.357    C423.145,361.553,422.66,362.037,422.061,362.037z"/>
		<path style="fill:#FBFCFF;" d="M408.702,411.514c-0.36,0-0.712-0.18-0.918-0.506c-16.872-26.76-34.216-17.349-34.391-17.254    c-0.522,0.301-1.18,0.114-1.478-0.409c-0.295-0.521-0.112-1.181,0.409-1.475c0.192-0.11,19.331-10.51,37.293,17.982    c0.32,0.506,0.167,1.175-0.339,1.494C409.1,411.462,408.9,411.514,408.702,411.514z"/>
		<path style="fill:#FBFCFF;" d="M418.421,425.487c-0.599,0-1.084-0.485-1.084-1.084c0-1.956-2.853-6.609-4.653-9.083    c-0.352-0.485-0.246-1.162,0.239-1.513c0.486-0.351,1.163-0.246,1.513,0.239c0.519,0.713,5.068,7.061,5.068,10.357    C419.505,425.002,419.02,425.487,418.421,425.487z"/>
		<path style="fill:#241726;" d="M413.868,394.491c-0.119-0.205-12.085-20.672-40.646-16.794    c-15.337,2.065-22.001,7.951-24.694,11.484c-0.334-2.961-0.971-5.89-1.955-8.734c16.479-8.742,26.221-26.832,24.003-44.575    c16.468-5.429,28.695-19.55,31.263-36.214c2.562-16.629-4.691-32.196-19.901-42.708c-13.861-9.604-26.92-13.039-38.668-10.16    c-3.214-8.592-9.342-16.191-17.777-22.027c-9.116-6.304-17.906-9.966-26.154-10.899c5.286-18.136-1.787-36.501-18.671-48.19    c-10.702-7.402-20.929-11.153-30.397-11.153c-12.068,0-23.138,6.206-32.017,17.95c-6.65,8.797-9.698,17.457-9.818,17.804    c-0.737,2.009-4.205,12.372-2.226,24.317c-8.667,1.173-16.574,5.58-23.534,13.113c-2.805-3.129-6.102-5.969-9.816-8.459    c-10.598-7.072-20.686-10.658-29.986-10.658c-12.248,0-23.379,6.329-32.188,18.304c-6.598,8.969-9.541,17.798-9.658,18.149    c-2.722,7.804-5.11,24.482,3.212,37.496c6.7,10.478,18.843,16.642,36.094,18.325c12.865,1.238,24.975-1.869,34.638-8.861    c6.912,7.889,17.765,12.745,32.3,14.449c-0.75,1.727-1.119,2.781-1.132,2.822c-3.161,8.579-5.739,26.417,4.159,39.818    c-13.236,10.41-19.111,26.982-19.354,27.679c-2.854,7.76-5.522,24.398,2.585,37.547c6.527,10.59,18.576,16.953,35.808,18.917    c12.489,1.435,24.415-1.31,34.028-7.769c6.997,7.14,17.5,11.553,31.237,13.122c2.181,0.248,4.372,0.375,6.512,0.375    c0.002,0,0.002,0,0.004,0c16.367,0,30.853-7.343,39.744-20.149c5.424-7.812,8.125-16.919,7.924-25.917    c0.044-0.068,0.098-0.128,0.127-0.208c0.037-0.099,3.895-10.057,24.596-12.845c27.07-3.632,38.361,15.529,38.471,15.719    c0.2,0.351,0.566,0.548,0.943,0.548c0.182,0,0.366-0.047,0.534-0.142C413.98,395.673,414.162,395.012,413.868,394.491z     M345.72,378.411c-2.998-6.122-19.391-36.068-51.079-31.602c-6.462,0.908-12.515,3.243-17.909,6.741    c-5.037-12.182-3.28-25.738,4.953-37.446c10.194-14.498,27.43-22.548,45.011-20.977c33.352,2.956,41.395,39.149,41.612,40.165    C370.833,352.356,361.568,369.909,345.72,378.411z M380.706,258.733c14.501,10.023,21.423,24.819,18.992,40.595    c-2.431,15.772-13.979,29.135-29.547,34.374c-1.555-5.968-9.889-32.648-35.52-39.374c14.654-16.335,10.459-40.065,9.261-45.44    C354.982,246.215,367.41,249.521,380.706,258.733z M324.261,226.546c8.472,5.862,14.288,13.22,17.292,21.873    c0.284,1.12,6.866,28.105-9.075,45.074c-0.08,0.086-0.13,0.186-0.178,0.287c-1.734-0.358-3.527-0.645-5.413-0.812    c-11.502-1.021-22.865,1.899-32.365,7.948c-0.673-1.678-3.058-6.963-8.23-12.311c-4.124-4.263-10.671-9.112-20.259-11.423    c4.904-13.214,1.291-33.378-9.506-46.707c0.07-0.072,0.157-0.123,0.207-0.216c9.295-17.561,40.74-14.4,41.064-14.364    c0.006,0.001,0.012-0.003,0.019-0.002c0.005,0,0.008,0.004,0.013,0.004C306.076,216.538,314.969,220.119,324.261,226.546z     M210.479,191.003c0.12-0.343,12.234-34.315,39.794-34.315c9.018,0,18.831,3.622,29.164,10.768    c16.209,11.223,22.913,28.858,17.677,46.201c-5.411-0.429-32.588-1.707-42.019,15.114c-2.937-3.268-6.329-6.062-10.191-8.106    c-16.188-8.574-32.184-7.02-36.512-6.383C206.925,205.406,208.546,196.279,210.479,191.003z M140.546,298.704    c-16.554-1.613-28.154-7.445-34.478-17.334c-7.874-12.313-5.585-28.178-2.985-35.631c0.114-0.349,11.823-34.982,39.793-34.982    c8.864,0,18.548,3.463,28.782,10.292c3.635,2.435,6.829,5.233,9.548,8.3c-4.084,4.752-24.89,31.356-7.499,60.851    C164.468,296.891,152.886,299.901,140.546,298.704z M176.023,289.887c-19.172-31.29,7.157-59.519,7.426-59.802    c0.005-0.006,0.007-0.013,0.012-0.019c0.004-0.005,0.011-0.006,0.015-0.011c7.091-8.018,15.205-12.542,24.115-13.446    c0.017-0.002,0.031-0.013,0.048-0.015c0.019-0.003,0.036,0.004,0.054,0c0.181-0.034,18.321-3.478,36.197,5.984    c18.631,9.864,26.22,37.57,20.084,53.935c-0.027,0.072-0.024,0.145-0.035,0.218c-2.987-0.576-6.233-0.921-9.788-0.921    c-28.62,0-43.501,24.306-45.878,28.547c-0.178-0.012-0.36-0.019-0.536-0.036C193.233,302.661,182.565,297.803,176.023,289.887z     M208.182,310.003c0.006-0.015,0.564-1.611,1.691-4.052c0.324-0.632,14.6-27.972,44.279-27.972    c29.644,0,38.144,23.092,38.53,24.188c-4.891,3.415-9.24,7.672-12.768,12.69c-8.763,12.461-10.548,26.937-5.012,39.921    c-1.377,0.99-2.694,2.077-3.969,3.224c-2.162-3.504-12.598-17.506-40.678-16.078c-9.004,0.449-15.796,4.326-18.173,5.874    C202.724,335.141,205.165,318.19,208.182,310.003z M229.585,431.08c-16.538-1.884-28.048-7.906-34.209-17.899    c-7.669-12.44-5.114-28.269-2.389-35.68c0.06-0.171,6.175-17.393,19.479-27.34l0.002-0.002l0,0    c0.074-0.055,7.507-5.55,17.893-6.071c27.989-1.368,37.753,13.417,38.951,15.441c-4.897,4.83-8.921,10.819-11.725,17.745    c-6.559,16.198-4.851,33.873,4.374,46.476C252.807,429.838,241.487,432.448,229.585,431.08z M339.084,417.577    c-8.48,12.214-22.316,19.218-37.963,19.218c0,0-0.003,0-0.004,0c-2.057,0-4.166-0.121-6.267-0.362    c-13.616-1.553-23.88-5.96-30.508-13.088c-9.354-12.043-11.174-29.38-4.744-45.258c3.661-9.041,9.456-16.444,16.616-21.579    c0.054,0.008,0.1,0.045,0.156,0.045c0.152,0,0.307-0.032,0.454-0.099c0.316-0.147,0.511-0.429,0.584-0.744    c5.259-3.517,11.193-5.861,17.537-6.753c13.993-1.975,26.527,2.68,37.245,13.818c7.968,8.282,11.909,17.256,12.036,17.549    C348.755,392.491,346.835,406.414,339.084,417.577z"/>
		<path style="fill:#52AFA6;" d="M185.196,123.75c0,0,36.703-5.181,56.401,20.156c14.046,18.067,12.742,35.049,12.686,37.643    s-19.812-7.951-19.812-7.951s10.867,25.666,7.498,37.531s-35.593-22.304-35.593-22.304s1.872,21.58-5.634,20.64    C193.237,208.524,132.099,143.111,185.196,123.75z"/>
		<path style="fill:#241726;" d="M229.597,163.78c-2.027-3.186-10.5-6.865-18.282-10.063c-0.997-0.409-1.803-0.739-2.324-0.97    c-6.152-7.952-12.93-13.383-18.473-16.921c0.08-0.002,0.148-0.004,0.232-0.007c5.105-0.159,17.057-0.529,20.454,3.914    c0.363,0.478,1.044,0.567,1.519,0.203c0.475-0.364,0.566-1.044,0.202-1.52c-4.074-5.33-16.351-4.951-22.242-4.763    c-1.152,0.036-2.339,0.074-2.611,0.023c-0.25-0.05-0.577,0.041-0.845,0.176c-4.727-2.659-7.969-3.727-8.073-3.76    c-0.574-0.18-1.18,0.138-1.36,0.707c-0.18,0.572,0.138,1.179,0.708,1.359c0.101,0.032,3.253,1.071,7.848,3.668    c-0.552,3.609-0.291,12.212,0.79,25.732c0.046,0.567,0.52,0.997,1.08,0.997c0.029,0,0.058-0.002,0.088-0.004    c0.596-0.047,1.041-0.569,0.994-1.166c-0.78-9.744-1.279-20.382-0.997-24.406c5.358,3.277,12.146,8.471,18.362,16.288    c-1.657,2.849-2.495,13.401-2.91,22.243c-0.028,0.597,0.434,1.105,1.032,1.132c0.017,0.002,0.035,0.002,0.052,0.002    c0.575,0,1.054-0.453,1.082-1.033c0.386-8.232,1.286-17.621,2.181-20.467c5.356,7.209,10.151,16.459,13.024,28.259    c0.121,0.495,0.564,0.828,1.052,0.828c0.085,0,0.171-0.011,0.257-0.032c0.582-0.14,0.939-0.726,0.797-1.308    c-2.658-10.918-6.933-19.714-11.793-26.78c5.009,2.067,14.616,6.141,16.328,8.832c0.32,0.504,0.99,0.652,1.497,0.332    C229.769,164.954,229.919,164.285,229.597,163.78z"/>
		<path style="fill:#FBFCFF;" d="M241.687,153.524c-0.477,0-0.915-0.318-1.046-0.802c-2.374-8.818-14.154-15.156-14.272-15.219    c-0.529-0.279-0.73-0.936-0.451-1.465c0.282-0.527,0.935-0.726,1.465-0.451c0.519,0.275,12.73,6.837,15.352,16.572    c0.156,0.578-0.187,1.173-0.765,1.327C241.875,153.511,241.78,153.524,241.687,153.524z"/>
	</g>
</g>















</svg>
