<svg id="Layer_1" enable-background="new 0 0 3000 3000" viewBox="0 0 3000 3000" xmlns="http://www.w3.org/2000/svg"><g><path d="m2805.3 1621.4c0 522.3-210.2 983.1-530.5 1257.1-84.6 72.4-192 111.5-302.6 111.5h-763.9c-110.6 0-218-39.1-302.6-111.5-320.3-273.9-530.5-734.8-530.5-1257.1 0-840.2 544-1521.3 1215.1-1521.3s1215 681.2 1215 1521.3z" fill="#f1e0a5"/><path d="m2658 1543.3c0 471.2-184.8 887-466.2 1134.1-74.4 65.3-168.7 100.6-265.9 100.6h-671.3c-97.2 0-191.5-35.3-265.9-100.6-137.6-120.8-252-281.8-333.1-469.9-84.8-196.8-133.1-423.2-133.1-664.2 0-188.1 29.4-367.4 82.7-530.6 161.4-494.6 541.7-841.9 985.1-841.9 139.4 0 272.6 34.3 394.7 96.8 186.1 95.2 346.5 255.8 464 459.7 131.3 228.1 209 510.4 209 816z" fill="#9c0b56"/><path d="m2448.9 727.3c-1.7-3-3.4-5.9-5.1-8.8-.5-.9-1-1.8-1.6-2.7-1.2-2.1-2.4-4.1-3.7-6.2-.6-1-1.2-2-1.8-3-1.2-2-2.4-3.9-3.6-5.9-.6-1-1.2-1.9-1.8-2.9-1.3-2.2-2.7-4.4-4-6.5-.4-.7-.9-1.4-1.3-2.1-1.8-2.9-3.6-5.9-5.5-8.8-.1-.1-.1-.2-.2-.2-1.8-2.8-3.5-5.5-5.3-8.3-.5-.8-1-1.5-1.5-2.3-1.3-2.1-2.7-4.2-4.1-6.3-.6-.9-1.1-1.8-1.7-2.6-1.3-2-2.7-4.1-4-6.1-.5-.8-1.1-1.6-1.6-2.4-1.6-2.4-3.1-4.7-4.7-7.1-.3-.4-.6-.9-.9-1.3-1.9-2.9-3.9-5.7-5.9-8.6-.1-.2-.2-.3-.3-.5-1.8-2.6-3.6-5.2-5.4-7.8-.5-.7-1-1.4-1.5-2.1-1.5-2.1-2.9-4.2-4.4-6.2-.5-.8-1.1-1.5-1.6-2.3-1.5-2.1-3-4.1-4.5-6.2-.5-.7-1-1.3-1.5-2-1.8-2.6-3.7-5.1-5.6-7.6-.1-.1-.2-.3-.3-.4-2.1-2.8-4.1-5.6-6.2-8.4-.2-.3-.4-.5-.6-.8-1.8-2.4-3.6-4.8-5.5-7.2-.5-.6-1-1.3-1.5-1.9-1.6-2-3.1-4.1-4.7-6.1-.5-.7-1.1-1.4-1.6-2.1-1.6-2.1-3.2-4.2-4.9-6.2-.4-.6-.9-1.1-1.3-1.7-4.2-5.3-8.4-10.6-12.7-15.8-.3-.3-.5-.6-.8-1-1.8-2.2-3.7-4.5-5.5-6.7-.5-.6-1-1.2-1.5-1.9-1.6-2-3.3-3.9-4.9-5.9-.5-.6-1.1-1.3-1.6-1.9-1.7-2.1-3.5-4.1-5.2-6.1-.4-.5-.8-.9-1.2-1.4-4.4-5.1-8.8-10.1-13.2-15.1-.4-.4-.7-.8-1.1-1.2-1.8-2-3.6-4.1-5.5-6.1-.6-.6-1.1-1.2-1.7-1.8-1.7-1.9-3.4-3.7-5.1-5.6-.6-.6-1.1-1.2-1.7-1.8-1.9-2-3.7-4-5.6-6-.3-.4-.7-.7-1-1.1-4.5-4.8-9.1-9.6-13.7-14.4-.5-.5-.9-.9-1.4-1.4-1.8-1.9-3.6-3.7-5.4-5.6-.6-.6-1.2-1.2-1.8-1.8-1.7-1.8-3.5-3.5-5.2-5.2-.6-.6-1.1-1.1-1.7-1.7-2-2-4-3.9-6-5.9-.3-.3-.6-.6-.9-.9-4.7-4.6-9.4-9.1-14.1-13.5-.6-.5-1.1-1-1.7-1.6-1.8-1.7-3.6-3.4-5.4-5-.7-.6-1.3-1.2-2-1.8-1.8-1.6-3.6-3.3-5.3-4.9-.6-.5-1.2-1.1-1.8-1.6-2.1-1.9-4.3-3.9-6.4-5.8-.2-.2-.4-.4-.7-.6-2.5-2.2-4.9-4.4-7.4-6.5-.2-.2-.5-.4-.7-.6-2.1-1.9-4.3-3.7-6.4-5.6-.6-.5-1.3-1.1-1.9-1.6-1.8-1.5-3.6-3.1-5.4-4.6-.7-.6-1.4-1.2-2.1-1.8-1.8-1.5-3.6-3-5.5-4.6-.6-.5-1.2-1-1.9-1.5-2.3-1.9-4.6-3.8-6.9-5.7-.1-.1-.2-.2-.4-.3-2.5-2-5-4.1-7.6-6.1-.4-.3-.9-.7-1.3-1-2-1.6-4.1-3.2-6.1-4.8-.7-.6-1.4-1.1-2.1-1.7-1.8-1.4-3.6-2.8-5.4-4.2-.7-.6-1.5-1.1-2.2-1.7-1.9-1.4-3.8-2.9-5.7-4.3-.6-.5-1.2-.9-1.9-1.4-5.1-3.8-10.1-7.5-15.2-11.2-.5-.4-1.1-.8-1.6-1.2-2-1.4-4-2.8-6-4.2-.8-.5-1.5-1.1-2.3-1.6-1.8-1.3-3.7-2.6-5.5-3.9-.8-.5-1.5-1.1-2.3-1.6-2-1.4-4-2.7-6-4.1-.6-.4-1.2-.8-1.7-1.2-5.2-3.5-10.4-7-15.7-10.4-.6-.4-1.2-.8-1.8-1.2-2-1.3-4-2.6-6-3.9-.8-.5-1.5-1-2.3-1.4-1.9-1.2-3.8-2.4-5.8-3.6-.7-.5-1.5-.9-2.2-1.4-2.2-1.3-4.4-2.7-6.5-4-.4-.3-.9-.5-1.3-.8-5.4-3.2-10.7-6.4-16.2-9.6-.6-.3-1.2-.7-1.8-1-2.1-1.2-4.2-2.4-6.3-3.6-.7-.4-1.4-.8-2.1-1.2-2.1-1.2-4.2-2.3-6.3-3.5-.6-.3-1.3-.7-1.9-1-2.5-1.4-5-2.8-7.6-4.1-.2-.1-.3-.2-.5-.3-5.6-3-11.2-5.9-16.8-8.8-.2-.1-.3-.2-.5-.3-122.1-62.5-255.3-96.8-394.7-96.8-443.4 0-823.7 347.4-985.1 841.9 84.2-55.8 173.6-137.1 206.2-243.8 68.2-222.6 158 25.3 137.2 291.6s675.8 193.2 642.2-146.2c-33.5-339.3 291.5-117.7 297.3 37.9s75.7 528.4 244.5 433.7c91.3-51.2 131.3-114.8 150.8-211s177.1 537.5-124.8 1110.6c-40.2 76.3-112.6 129.5-196.5 144.1-287.1 50.1-985.6 127.9-1306.5-222.2 81.1 188.1 195.5 349.2 333.1 469.9 74.4 65.3 168.7 100.6 265.9 100.6h671.3c97.2 0 191.5-35.3 265.9-100.6 281.5-247.1 466.2-662.9 466.2-1134.1.7-305.4-77-587.7-208.4-815.8z" fill="#721129" opacity=".33"/><g><g><path d="m2352.5 672.2c-246.3-44.8 0 627.9-247.2 637s-44-600.4-432.3-611.4 35.1 432.3-388.3 467.9-203.1-502.7-397.3-538.3-282.2 467-459.3 476.2c-145.6 7.5-22-367.5 71-541.1 20.1-37.6 38.7-65.7 53-78.5 80-72.2 0-255.9 0-255.9h1967.6s-26.1 166.3 106.1 255.9c27.4 18.6 42.2 39.5 46.5 60.5 15.9 80.3-124.5 163.1-319.8 127.7z" fill="#8e476b"/></g><path d="m2352.5 672.2c-246.3-44.8 0 627.9-247.2 637s-44-600.4-432.3-611.4 35.1 432.3-388.3 467.9-203.1-502.7-397.3-538.3-282.2 467-459.3 476.2c-145.6 7.5-22-367.5 71-541.1-.9 2.9-173.1 541.8-24.3 438.8 149.2-103.4 284.2-577.9 448.1-438.9 164 139 93.9 581.3 363.6 524.7s-30.6-429.5 348.8-490.8 331.7 668.1 484.5 619.6c152.8-48.4-100.7-724.7 294.8-587.6 0 0 177.3 8 257.7-83.9 15.9 80.4-124.5 163.2-319.8 127.8z" fill="#641222" opacity=".11"/><g><path d="m2519.6 211.5c0 114.1-440.4 206.5-983.8 206.5-542.7 0-982.8-92.3-983.8-206.2 0-.1 0-.3 0-.4 0-113.9 440.4-206.4 983.8-206.4 112.5 0 220.7 3.9 321.3 11.2 385.6 28 662.5 104.9 662.5 195.3z" fill="#c25fa5"/></g><g opacity=".22"><path d="m2519.7 211.5c0 114.1-440.4 206.5-983.8 206.5-542.7 0-982.8-92.3-983.8-206.2 892.6 307.4 1722.2 75.4 1730.6-5.4s-425.4-190.2-425.4-190.2c385.5 28 662.4 104.9 662.4 195.3z" fill="#8e476b"/></g><g><path d="m1790 677.6c-23.6 0-45.6-1.6-65.5-4.7-40.5-6.3-74.1-19.3-99.8-38.5-14.8-11.1-36.6-23.1-68.2-35.2-53.8 12.1-101.5 23-139.9 32.1-68 16-156.4 19.3-263 9.8-84.2-7.5-180-23-285-46.1-178.2-39.1-323.1-87.3-324.6-87.7-11.4-3.8-18.5-15.4-16.7-27.6 1.8-12.1 11.9-21.2 23.9-21.5 2.2-.1 224.9-5.1 469.6 8.5 144.1 8 267.6 20.8 367.2 38.1 69.1 12 126.1 26 172 42 150-33.6 342.2-75.1 516-110.2 135.8-27.4 244.5-47.8 322.9-60.4 44.4-7.2 79.2-11.9 103.4-14 13.8-1.2 24.3-1.6 32.3-1.2 6.4.3 25.9 1.3 33.3 18.5 2 4.7 5.5 16.8-4.9 30.3-2.8 3.7-6.6 7.3-11.7 11.5-45.1 36.6-225.7 126.1-417.2 188.6-108.5 35.5-204.4 57.2-284.8 64.7-21.1 1.9-40.7 3-59.3 3zm-154.4-96.1c6.6 4 12.7 8.1 18.3 12.3 20 14.9 47.4 24.9 81.5 29.8 33.1 4.8 72.7 4.8 117.8 0 80.3-8.5 176.3-31.4 285.3-68.3 87-29.4 179.3-66.9 260-105.6 25.2-12.1 46.3-22.9 63.6-32.3-21.7 3-49.6 7.2-85.8 13.4-80.9 13.7-188.3 34.2-319.3 60.9-140.7 28.8-292.3 61.3-421.4 89.8zm-912-73.6c46.1 12.4 99.3 25.7 155.9 38.1 102.8 22.6 196.6 37.7 278.6 45.1 101.2 9 184.4 6.1 247.3-8.7 16.1-3.7 33.6-7.9 52.4-12.2-94.7-22-234.2-41.7-439.5-53.1-108.4-6.2-212.5-8.4-294.7-9.2z" fill="#f3df7d"/></g><g><path d="m1549.9 627.8c-7.8 0-15.5-3.8-20.2-10.7-6.8-9.9-5.8-23.3 2.4-31.9 3.1-3.3 77.1-80.8 169.1-156.3 54.5-44.8 103.9-79.3 146.8-102.8 58-31.7 104.1-43.5 140.9-35.9 32.1 6.6 38.8 25.6 40.1 36.3 2.3 21-13.1 38.8-25 50.4-12.6 12.3-30.3 26.1-54 42.1-38.1 25.8-91.6 56.8-158.8 92.4-113.8 60.2-229.9 113.6-231.1 114.1-3.3 1.6-6.8 2.3-10.2 2.3zm416.6-289.5c-33.3 0-101.8 21.1-233.9 129.5-17.9 14.6-35.1 29.4-51.3 43.9 23.7-11.9 48.9-24.7 74.2-37.9 63.2-33.2 114.5-62.3 152.6-86.9 37-23.9 55.2-39.3 63.9-48.3-1.7-.3-3.5-.3-5.5-.3z" fill="#f3df7d"/></g><g><path d="m1549.4 627.4c-2.3 0-4.7-.4-6.9-1-1.2-.4-117.8-35.1-232.3-77.1-67.7-25-121.6-47.6-160.1-67.4-24.3-12.4-42.3-23.7-55.3-34.3-7.3-5.9-29.4-24-27-49.1 1.2-12 8.2-28.4 35.2-38.8 15.4-5.9 36.9-10.1 65.7-12.7 73.6-6.6 140.7 2.2 199.5 26.1 47.5 19.4 89.3 48.4 124.6 86.5 59.8 64.7 79.5 132.9 80.4 135.7 2.5 8.8.1 18.3-6.3 24.8-4.7 4.7-11 7.3-17.5 7.3zm-426.6-221.6c8.2 7.2 26.4 20.3 66.7 39.6 38.3 18.4 89.6 39.2 152.5 62.1 61.6 22.3 122.2 42 163.3 55-11.1-20.7-27.3-45.7-50-69.9-30.3-32.4-66.2-56.9-106.8-73.3-51.1-20.6-110.2-28.1-175.5-22.2-27.2 2.3-42.2 5.9-50.2 8.7z" fill="#f3df7d"/></g><g><path d="m1580.9 1253.4c-6.7 0-13-2.7-17.7-7.6-7.7-8-8.3-16.6-8.8-45.1-.6-33.7-.1-91.1 1.8-170.4 1-43.1-2.7-74.5-11.6-98.7-7.6-20.7-18.4-34.5-31.1-50.5-13-16.6-27.9-35.5-40.8-64.1-14.4-31.8-24.1-70.9-29.7-119.5-4.9-42.4-5-74.6-.6-98.4 4.9-26.3 16-43.6 33.1-51.5 23.8-11 49.1 1.6 66 14 6.1 4.5 11.5 9.1 15.8 13.2 19.8-2.7 47.9-.4 72.3 18.4 38.6 29.4 56.2 88.8 52.3 176.5-2.1 48-5.5 95-8.8 140.5-4.5 61.3-8.7 119.3-8.3 164.3.5 57.2 8.8 75.3 13.7 81 1.5 1.8 2.4 2 3.8 2.1 13.7.9 23.9 12.9 23 26.8s-12.7 24.3-26.3 23.4c-14.8-1-27.9-7.7-37.8-19.3-33.3-39-28.6-128-17.3-281.9 3.3-45.1 6.7-91.8 8.7-139 1.7-39.6-1.3-71.9-9-96-5.5-17.4-13.3-30.1-23.3-37.7-18.6-14.5-40.9-8.2-43.1-7.6-9.4 3.5-19.5.5-26.2-7 0 0-6.9-7.8-16.2-14.9-10.8-8.4-16.8-10.1-19-10.3-2.5 3.7-12.3 23-3.8 97.9 11 95.8 35.9 127.4 60 158 14 17.7 28.5 36.2 38.8 64.3 11.1 30.4 15.8 67.7 14.7 117.4-3.4 151.6-1.4 184.2-.9 190.2.5 2.1.9 4.4.9 6.7.1 13.6-11 24.8-24.6 24.8zm21.5-37.5c.4.8.9 1.7 1.3 2.7-.4-1-.8-1.9-1.3-2.7zm-21.5-12.8c6.4 0 12.1 2.5 16.5 6.5-4-3.7-9.6-6.5-16.5-6.5z" fill="#f3df7d"/></g><g fill="#fff"><ellipse cx="1836.2" cy="116" opacity=".11" rx="155.1" ry="54.4"/><ellipse cx="836.2" cy="143.9" opacity=".11" rx="112.4" ry="27.4"/><path d="m948.5 238c-4.7-37.8 151.5-96.9 296.6-107.8 27-2 194.3-14.7 211.2 39.3 10.2 32.6-37.6 80.1-76.4 103.3-25.9 15.5-71.2 34.3-236.4 12.8-128.1-16.7-192.2-25-195-47.6z" opacity=".11"/></g></g><g fill="#fff"><ellipse cx="1213.6" cy="1474.1" opacity=".11" rx="90.8" ry="60"/><ellipse cx="1836.2" cy="2175.1" opacity=".11" rx="90.8" ry="60"/><path d="m733.4 1704.1c-41-11.4-65.1-57.5-72.9-91-24.5-105.4 75.8-239.7 151.6-228.9 44.6 6.4 80.5 62.9 89.5 111.9 8.8 47.6-8.3 85.1-16 101.5-25.9 54.7-91.3 123.3-152.2 106.5z" opacity=".11"/></g><path d="m733.4 1297.6c-41-11.4-65.1-57.5-72.9-91-24.5-105.4 75.8-239.7 151.6-228.9 44.6 6.4 80.5 62.9 89.5 111.9 8.8 47.6-8.3 85.1-16 101.5-25.9 54.8-91.3 123.4-152.2 106.5z" fill="#720a22"/><ellipse cx="1681.4" cy="2392.4" fill="#fff" opacity=".11" rx="100.7" ry="102.4"/><ellipse cx="904.1" cy="2235.1" fill="#fff" opacity=".11" rx="54.9" ry="55.8"/><g fill="#641233"><path d="m1956.3 2630.9c-60.7-2.5-134.6-43.4-142.2-99.4-5.8-43 29.9-76.5 97.7-139.9 72.8-68.2 120.1-112.6 171.7-99.4 46.2 11.9 76.8 65.1 83.6 109.1 16.7 107.4-97.4 234.3-210.8 229.6z"/><path d="m1048.7 2468.3c-32-10.6-21.2-90.2-19.1-106.7 12.6-94.2 80.5-195.8 132.4-190.5 33.8 3.4 51.6 51.5 53.1 55.9 5.9 16.8 10.3 44.9-20.1 100.7-34.8 64.5-108.9 152.9-146.3 140.6z"/><ellipse cx="1017.7" cy="1290.4" rx="69.2" ry="70.4"/></g><ellipse cx="1620.2" cy="1857.3" fill="#621221" opacity=".22" rx="875.7" ry="437.9"/></g></svg>