<svg id="Layer_1" enable-background="new 0 0 55 55" viewBox="0 0 55 55" xmlns="http://www.w3.org/2000/svg"><g id="_x32_9_9_"><g><g><path d="m43.843399 49.5061417c0 1.0751572-4.9103737 1.9427414-10.9670868 1.9427414-6.0758381 0-10.9862099-.8675842-10.9862099-1.9427414 0-1.0751534 4.9103718-1.961731 10.9862099-1.961731 6.0567132 0 10.9670868.8865776 10.9670868 1.961731z" fill="#181e1e"/></g><g><g><g><g><g><g><path d="m7.2053509 40.2902298c0 .0029221.0028081.0029221.0028081.0058403.0224462.0437469.0448756.0904312.0673218.1341782 1.9524274 3.9206543 11.3819923 13.6131744 24.5580368 9.2666092 13.1760273-4.3465462 17.6587543-18.5997753 18.0739155-24.2269573.4808464-6.4859257.0871201-14.3019361-4.7785492-18.7998657-.0056152-.0058398-.0112152-.011662-.0168304-.0145822-.0028076-.0029197-.0056152-.0029197-.0056152-.0029197s0 0 0-.0029202c-3.5652847-3.2427733-8.6141052-2.2143149-11.0459175-1.4386029-.9009094.2873774-1.8744087.2295017-2.7245255-.1933074-12.9697252-6.4505396-22.5534187 9.9820709-25.0591656 18.1663342-2.5611512 8.3576526-.9958434 13.2059593.9285212 17.1061935z" fill="#ffb63c"/></g><g><path d="m7.2053509 40.2902298c0 .0029221.0028081.0029221.0028081.0058403 3.2764745 4.8512268 8.906517 4.8483086 11.0693359 4.046093 2.1627998-.8022194 3.3578186-.0641899 3.3578186-.0641899 3.9441128 1.7415504 10.0818977-.7292862 10.0818977-.7292862 11.6387806-4.944561 16.0906353-18.0105057 16.7498684-26.0239182.4067421-4.9299965-.9593887-7.9083996-2.0674324-9.4690866-.0897903-.1008372-.6115837-.8886323-1.2707634-1.3856487-.0056152-.0058398-.0112152-.011662-.0168304-.0145822-.0028076-.0029197-.0056152-.0029197-.0056152-.0029197s0 0 0-.0029202c-3.5652847-3.2427733-8.6141052-2.2143149-11.0459175-1.4386029-.9009094.2873774-1.8744087.2295017-2.7245255-.1933074-12.9697251-6.4505386-22.5534186 9.9820719-25.0591655 18.1663352-2.5611512 8.3576526-.9958434 13.2059593.9285212 17.1061935z" fill="#cce949"/></g><g><path d="m39.7251892 37.93787c-.1010742-.09375-.1069336-.2519531-.0126953-.3525391 5.543457-5.9628906 8.0283203-14.2832031 8.5053711-20.0810547.3945313-4.781249-.8818359-7.6982412-2.0219727-9.30371-.5507813-.7705083-1.027832-1.1806645-1.175293-1.297852h-.1640625v-.25c0-.1474609.1303711-.2666016.2773438-.25h.0898438c.102047.1625409 4.1637268 3.0100141 3.4921875 11.1425781-.4838867 5.8818359-3.0068359 14.3242188-8.637207 20.3798828-.0924798.1007191-.2508164.1081348-.3535157.0126949z" fill="#181e1e"/></g><g><path d="m31.6197205 43.3177528c2.0717773-.8798828 4.0131836-2.0673828 5.7700195-3.5302734.2567863-.2110558.5726929.1730919.3203125.3847656-1.7949219 1.4941406-3.7783203 2.7070313-5.8950195 3.6064453-.3096314.1238518-.4978486-.3306121-.1953125-.4609375z" fill="#181e1e"/></g></g><g><path d="m34.8335762 22.5750542c-.6765633 2.7617531-1.7631073 5.4823475-3.6190186 7.6446323-1.8559093 2.1622829-4.5626659 3.7134037-7.4227943 3.7289371-3.5819969.019455-5.9186516-2.0158443-5.0437202-6.7577305.4315567-2.3389225 1.1417522-4.6268368 2.1110153-6.800705 2.1430149-4.8063669 4.4365711-5.5245752 9.512043-5.5215397 1.2697849.0007591 2.1968842.1791372 3.1805382.981636 2.0469818 1.6699964 1.9054985 4.1793482 1.2819366 6.7247698z" fill="#fff"/></g><g><path d="m23.7915955 34.1986122c-.1376953 0-.2490234-.1113281-.25-.2490234s.1103516-.25.2485352-.2509766c2.5849609-.0136719 5.2895508-1.375 7.2348633-3.6416016 1.6181641-1.8857422 2.784668-4.3535156 3.565918-7.5419922.5984612-2.445507.762516-4.8708897-1.1972656-6.4716797-.9477539-.77246-1.8261719-.9238272-3.0224609-.9248037-.1381836 0-.25-.1123047-.25-.25 0-.1386719.1118164-.25.25-.25 1.2763672.0009766 2.2797852.1748047 3.3383789 1.0380859 2.1275101 1.7379961 2.0186501 4.3180208 1.3666992 6.9775381-.800293 3.2666016-2.0014648 5.8017578-3.671875 7.7490234-2.0385742 2.3740234-4.8837891 3.8007813-7.6113281 3.8154297-.0004885.0000001-.0009768.0000001-.001465.0000001z" fill="#181e1e"/></g><g><path d="m22.5030136 14.1136646c.1194267.0524988.2432938-.0613909.2205544-.2027607-.1199341-.7456493-.5048065-2.5596886-1.4297543-2.7345209-1.1672707-.2206373-1.4932442.9563541-1.3416042 1.4171658.1591739.4837036 1.8612632 1.2169962 2.5508041 1.5201158z" fill="#181e1e"/></g><g><path d="m18.2929802 19.5896721c.1133232.0164661.1995964-.102066.1536198-.211031-.2425022-.5747299-.9132023-1.9528236-1.7478447-1.8936462-1.0533075.0746803-1.1174126 1.0933094-.9003153 1.4317303.2278814.3552341 1.84023.577877 2.4945402.6729469z" fill="#181e1e"/></g><g><path d="m15.7957716 24.6295547c.1084919-.0378189.1348724-.1839237.0469875-.2601299-.4635468-.4019489-1.6549025-1.3243599-2.3765602-.8842983-.9107218.5553513-.5312176 1.4968147-.191761 1.6990337.3563194.212265 1.8949261-.3362407 2.5213337-.5546055z" fill="#181e1e"/></g><g><path d="m13.4896727 31.6830177c.3879194.0614414 1.7481022-.8124714 2.3020897-1.1620464.0968533-.0612717.0893698-.1826859-.0113039-.2192001-.5315723-.1790218-1.8780327-.5582333-2.4747896-.0053539-.7546235.6992645-.1864978 1.3248596.1840038 1.3866004z" fill="#181e1e"/></g><g><path d="m18.2024078 38.0799179c.3510017-.1824036.9778194-1.7116661 1.2366409-2.3293228.0451622-.1081123-.0282631-.2027855-.1307583-.1722488-.533556.1725082-1.8438797.6700935-2.0249348 1.479435-.2288817 1.0235519.5821134 1.1938514.9190522 1.0221366z" fill="#181e1e"/></g><g><path d="m25.3957386 39.0933685c-.2069187-.3474617.030014-1.9948578.1208935-2.6633186.0160275-.1169281.1262436-.1575813.1981201-.0755081.3673286.4387817 1.2321663 1.5794525.978487 2.368969-.3208961.9984245-1.097168.7005157-1.2975006.3698577z" fill="#181e1e"/></g><g><path d="m33.4447212 36.2554893c-.3524132-.1795731-.9925537-1.7058029-1.256752-2.3221855-.0461044-.1078911.0264244-.2033806.1291275-.1737099.5347595.1680222 1.8487053.6547203 2.0369072 1.4638062.2379227 1.0232277-.571022 1.2010765-.9092827 1.0320892z" fill="#181e1e"/></g><g><path d="m38.2472992 30.6343594c-.3913727.030138-1.6851692-.9508266-2.212574-1.3440189-.0921974-.0688972-.075985-.1894093.0270691-.2177486.5431328-.135891 1.9135323-.4060402 2.4689522.193388.7023429.7581233.0905685 1.3365439-.2834473 1.3683795z" fill="#181e1e"/></g><g><path d="m40.6087112 24.5881062c-.4357796.1269989-2.2111778-.5011654-2.9328346-.750742-.1262016-.043787-.1450996-.1647129-.0366745-.2179432.5756187-.2674713 2.0505104-.8718109 2.8679237-.4292202 1.03368.5597992.5171013 1.2735958.1015854 1.3979054z" fill="#181e1e"/></g><g><path d="m41.1354485 17.9481125c-.3465614.2761879-2.1486664.3271828-2.8792152.3533077-.1278038.0044346-.1858978-.1021461-.1070404-.1911469.4238091-.4583263 1.5373039-1.5567303 2.4192543-1.4363842 1.1153258.1522904.8963546 1.0078583.5670013 1.2742234z" fill="#181e1e"/></g><g><path d="m38.5389709 12.1916533c-.2230797.3710899-1.8433075 1.0051889-2.4983139 1.2673445-.1146355.0457363-.2028236-.0350456-.1607552-.1439486.2327309-.5665789.8793602-1.9562464 1.7205772-2.1306715 1.0638543-.2204924 1.1491968.6509752.9384919 1.0072756z" fill="#181e1e"/></g><g><path d="m29.7758884 9.5935135c.01861.4370651-.9707146 1.9129267-1.3674984 2.5143585-.069521.1051397-.1862717.090456-.2110157-.0240421-.1173019-.6038485-.3425503-2.1295233.2555561-2.768219.7564507-.8076515 1.3022233-.1396971 1.322958.2779026z" fill="#181e1e"/></g></g><g><g><path d="m19.2735291 7.1263471c1.3769531-1.3183594 3.2192383-2.2255859 4.9272461-2.4277344.2630157-.032877.3910904.3259621.1552734.4638672.0681267.0350013.1154289.0995669.1298828.1689453.1557617.015625.3027344.0449219.4394531.0888672.2326336.0764527.2295876.4053402-.003418.4775391l-2.2436523.6845703c-.671875.3330078-1.3603516.6113281-2.0449219.8242188-.1103516.0351563-.2314453-.0117188-.2900391-.1123047l-.8237305.2519531c-.2580356.0722498-.4333533-.2403274-.2460936-.4199219z" fill="#fff"/></g><g><path d="m15.5347595 9.7757616c.6967773-.6533203 1.5244141-1.2519531 2.3300781-1.6835938.2413788-.1250873.481369.1663799.3139648.3759766.1076603.1174469.0832405.2892132-.0341797.375-.7636719.5566406-1.5737305 1.0214844-2.3417969 1.3457031-.2530736.1090155-.4717444-.2217865-.2680663-.4130859z" fill="#fff"/></g></g></g><g><g><path d="m17.495697 47.7952919c-.2270432-.1268501-.1372337-.4835167.1533203-.4658203-.0029297-.0322266.0004883-.0654297.0107422-.0986328.0004883 0 .0004883-.0009766.0004883-.0009766-.0917969-.0830078-.1757813-.1728516-.2470703-.2685547-.1484203-.2000923.056282-.471035.2885742-.3837891l2.1655273.8134766c.730957.1660156 1.4384766.3740234 2.0991211.6181641.0996094.0361328.1625977.1308594.1635742.2324219l.7783203.2919922c.2574139.0984879.190649.477684-.0825195.484375-.0786132.0019531-3.8007793-.3605881-5.3300781-1.2226563z" fill="#fff"/></g></g></g><g><path d="m43.8453064 38.3314247c-.1079102-.0859375-.1264648-.2431641-.0405273-.3515625.3696289-.4667969.7226563-.9853516 1.0498047-1.5390625.1698761-.285862.5981483-.0298843.4306641.2539063-.3383789.5742188-.7050781 1.1103516-1.0888672 1.5957031-.0858346.1087799-.2433015.1258583-.3510743.0410156z" fill="#181e1e"/></g><g><path d="m45.7676697 35.3958778c-.1225586-.0634766-.1713867-.2138672-.1083984-.3369141.5146484-1.0029297.9814453-2.1103516 1.3876953-3.2919922.1094933-.3165798.5796852-.1473389.4726563.1621094-.4140625 1.2041016-.8901367 2.3339844-1.4150391 3.3583984-.0635491.1229096-.2137299.1708146-.3369141.1083985z" fill="#181e1e"/></g></g></g><g><path d="m24.7447205 48.6595497c-.1976681-.1259842-.1300163-.4297867.1005859-.4599609l1.3759766-.1806641c.2643719-.1517677.8970032-.2783203 1.5239258-.1240234.5463886.1356544-.1798534 1.2656898-1.3496094 1.2958984-.4717923 0-.9693051-.1033668-1.6508789-.53125z" fill="#fff"/></g></g></svg>