<svg height="512" viewBox="0 0 128 128" width="512" xmlns="http://www.w3.org/2000/svg"><g fill-rule="evenodd"><path d="m92.232 15.327a1.293 1.293 0 0 1 -.256-1.1l.856-3.746a4.722 4.722 0 0 0 -4.538-5.781c-.121 0-.243 0-.364.01a4.706 4.706 0 0 0 -2.675 1.049l-2.992 2.43a1.291 1.291 0 0 1 -1.1.256l-3.76-.858a4.725 4.725 0 0 0 -4.703 7.582l2.428 2.988a1.294 1.294 0 0 1 .256 1.1l-.858 3.758a4.725 4.725 0 0 0 7.583 4.709l2.984-2.424a1.293 1.293 0 0 1 1.1-.256l3.756.858a4.724 4.724 0 0 0 4.713-7.583z" fill="#fff"/><path d="m103.7 25.406a14.785 14.785 0 0 0 -7.063 5.938c-3.247-3.8-7.244-6.264-11.331-4.7l-.016.008c-3.946 1.53-5.236 5.72-5.244 10.277l-.182.034-1.778-4.6c-1.69-4.374-6.125-5.312-9.516-4.788l-13.907 2.147c-2.244-7.661-8.963-12.052-17.085-12.288a29.313 29.313 0 0 0 -15.154 4.071 118.82 118.82 0 0 0 -14.894 9.723c-4.792 3.787-4.53 10.872-.265 14.819 2.548 2.359 5.88 5.192 9.174 7.676a35.574 35.574 0 0 0 -.562 11.2l-3.968 1.532a9.746 9.746 0 0 0 7.025 18.185l4.646-1.8a38.38 38.38 0 0 0 5.953 5.945 4.593 4.593 0 0 0 -.852-.147 4.554 4.554 0 0 0 -4.289 4.637l.051 3.127a.316.316 0 0 1 -.116.249l-2.427 1.973a4.574 4.574 0 0 0 2.953 8.12l3.13-.052a.315.315 0 0 1 .246.113l1.97 2.436a4.571 4.571 0 0 0 8.121-2.956l-.053-3.129a.315.315 0 0 1 .112-.247l2.427-1.963a4.47 4.47 0 0 0 1.452-4.486l10.289 21.666a9.036 9.036 0 0 0 12.053 4.293l18.909-8.981c4.463-2.12 6.84-7.769 4.129-12.368l-3.892-6.6.963-.518a16.293 16.293 0 0 0 6.3-6.174 4.252 4.252 0 0 0 4.554 3.062l2.163-.231 1.517 1.565a4.432 4.432 0 0 0 7.581-3.559l-.232-2.161 1.563-1.517a4.43 4.43 0 0 0 -3.557-7.582l-2.165.231-1.507-1.555a4.418 4.418 0 0 0 -3.057-1.351 4.474 4.474 0 0 0 -2.01.418 4.424 4.424 0 0 0 -2.521 4.478l.231 2.167-.774.751a11.269 11.269 0 0 0 -1.855-7.768l-1.421-2.107a7.369 7.369 0 0 0 1.253-7.409l-1.744-4.515.158-.1c3.071 3.368 6.842 5.6 10.792 4.081h.008.008c4.077-1.591 5.384-6.1 5.229-11.1a14.853 14.853 0 1 0 -1.523-28.17z" fill="#fff"/><path d="m77.227 61.387c-1.144-1.7-3.072-2.629-4.92-1.752l-11.526 5.474a3.686 3.686 0 0 0 -1.752 4.92l10.929 23.011a3.624 3.624 0 0 0 4.92 1.752l7.984-4.292c4.979-2.674 8-8.907 4.839-13.592z" fill="#f6a43d"/><path d="m66.194 72.39a5.306 5.306 0 0 0 -6.848-2.438l-16.046 7.619a5.129 5.129 0 0 0 -2.438 6.848l15.212 32.028a5.128 5.128 0 0 0 6.847 2.438l18.91-8.981c2.572-1.221 3.883-4.395 2.437-6.848z" fill="#6b7392"/><path d="m59.831 69.751a4.885 4.885 0 0 0 -.485.2l-16.046 7.619a5.128 5.128 0 0 0 -2.437 6.848l7.681 16.174a19.305 19.305 0 0 0 8.656-3.261l16.887-11.553-7.893-13.388a5.363 5.363 0 0 0 -6.363-2.639z" fill="#495271"/><path d="m24.356 24.908a115.126 115.126 0 0 0 -14.4 9.392 5.877 5.877 0 0 0 -.033 8.878c5.009 4.636 12.851 11.334 17.217 12.216l22.666-11.07c7.382-19.724-9.522-28.46-25.45-19.416z" fill="#fbe986"/><path d="m74.329 41.98 7.233 18.721 23.186-14.293-3.646-9.438z" fill="#6b7392"/><path d="m105.118 29.053a11 11 0 1 0 14.22 6.294 11.05 11.05 0 0 0 -14.22-6.294z" fill="#87b3e0"/><path d="m59.831 69.751a4.885 4.885 0 0 0 -.485.2l-.593.282a15.415 15.415 0 0 0 19.81 23.137l-12.369-20.98a5.363 5.363 0 0 0 -6.363-2.639z" fill="#495271"/><path d="m74.437 33.771c-.813-2.105-3.037-2.671-5.267-2.331l-31.945 4.936c-15.044 2.324-21.214 21.333-15.725 35.532 5.93 15.348 24.826 26.288 38.407 17l24.893-17.024c1.863-1.274 3.145-3.162 2.331-5.267z" fill="#87b3e0"/><path d="m45.863 57.534-32.544 12.574a5.834 5.834 0 1 0 4.205 10.883l32.544-12.574a5.834 5.834 0 1 0 -4.2-10.883z" fill="#fbe986"/><path d="m97.068 51.142a21.55 21.55 0 0 1 .089 6.2 25.726 25.726 0 0 1 -7.234-10.635 25.724 25.724 0 0 1 -1.8-12.735 21.549 21.549 0 0 1 4.106 4.652l4.234-.792c-3.231-5.543-7.123-8.548-9.763-7.538-3.508 1.358-3.716 9.407-.46 17.834s8.822 14.246 12.332 12.892c2.633-1.027 3.494-5.868 2.159-12.143z" fill="#e2e9ef"/><path d="m70.585 69.676a10.469 10.469 0 1 0 9.766 6.7 10.472 10.472 0 0 0 -9.766-6.7z" fill="#fbe986"/><g fill="#7899cf"><path d="m110.067 47.511a14.3 14.3 0 0 0 -2.342 1.167 7.754 7.754 0 0 1 -2.4.963 10.932 10.932 0 0 0 1.743.467 8.607 8.607 0 0 0 1.167-.594 8.745 8.745 0 0 1 5.007-1.588 4.243 4.243 0 0 1 1.862.552c.3-.188.582-.391.858-.608a5.253 5.253 0 0 0 -2.657-.921 7.693 7.693 0 0 0 -3.238.562z"/><path d="m115.366 35.514c-2.37 1.169-4.006 1.276-5.311.891a8.167 8.167 0 0 1 -3.373-2.363 16.683 16.683 0 0 0 -3.443-3.034 6.339 6.339 0 0 0 -.869-.408 11.088 11.088 0 0 0 -.835.742 5.392 5.392 0 0 1 1.216.514 16.376 16.376 0 0 1 3.233 2.871 9.007 9.007 0 0 0 3.793 2.617c1.573.464 3.51.286 6.022-.953a9.476 9.476 0 0 1 3.538-1.047c-.124-.321-.263-.637-.417-.945a10.878 10.878 0 0 0 -3.554 1.115z"/><path d="m111.517 29.772a5.843 5.843 0 0 1 -2.969-1.44 10.927 10.927 0 0 0 -1.21.125 6.724 6.724 0 0 0 3.983 2.273 22.1 22.1 0 0 0 4.921.237 10.99 10.99 0 0 0 -1.3-.958 16.886 16.886 0 0 1 -3.425-.237z"/><path d="m111.662 42.77c-1.655 1.444-2.752 1.648-3.727 1.342a8.007 8.007 0 0 1 -2.954-2.376 15.884 15.884 0 0 0 -3.64-3.253 6.655 6.655 0 0 0 -3.1-.886c-.056.318-.1.637-.127.959a5.562 5.562 0 0 1 2.738.777 15.36 15.36 0 0 1 3.407 3.067 8.446 8.446 0 0 0 3.381 2.644c1.325.417 2.87.027 4.663-1.538 1.638-1.428 2.872-1.571 4-1.17a6.873 6.873 0 0 1 2.565 1.948c.16-.319.3-.647.432-.98a7.072 7.072 0 0 0 -2.672-1.89c-1.438-.514-3.155-.224-4.966 1.356z"/></g><path d="m70.585 76.009a4.135 4.135 0 1 0 3.858 2.645 4.149 4.149 0 0 0 -3.858-2.645z" fill="#6b7392"/><path d="m65.711 42.11a3.295 3.295 0 1 0 4.26 1.89 3.31 3.31 0 0 0 -4.26-1.89z" fill="#e2e9ef"/><path d="m69.215 51.181a3.295 3.295 0 1 0 4.261 1.886 3.31 3.31 0 0 0 -4.261-1.886z" fill="#e2e9ef"/><path d="m72.72 60.252a3.295 3.295 0 1 0 4.261 1.886 3.311 3.311 0 0 0 -4.261-1.886z" fill="#e2e9ef"/><path d="m89.2 17.8a5.205 5.205 0 0 1 -1.035-4.44l.854-3.76a.807.807 0 0 0 -1.3-.806l-2.989 2.428a5.206 5.206 0 0 1 -4.438 1.036l-3.754-.858a.808.808 0 0 0 -.806 1.3l2.428 2.988a5.205 5.205 0 0 1 1.035 4.44l-.858 3.754a.809.809 0 0 0 1.3.806l2.988-2.428a5.207 5.207 0 0 1 4.44-1.036l3.754.858a.809.809 0 0 0 .808-1.3z" fill="#fbe986"/><path d="m105.019 81.241-2.448.263a3.33 3.33 0 0 1 -2.74-.991l-1.714-1.767a.515.515 0 0 0 -.884.414l.261 2.448a3.328 3.328 0 0 1 -.991 2.74l-1.767 1.715a.516.516 0 0 0 .415.884l2.447-.261a3.327 3.327 0 0 1 2.741.991l1.714 1.767a.517.517 0 0 0 .884-.416l-.261-2.447a3.326 3.326 0 0 1 .991-2.74l1.767-1.714a.518.518 0 0 0 -.415-.886z" fill="#fbe986"/><path d="m38.305 96.85a.663.663 0 0 0 -.384-.114l-3.128.052a4.231 4.231 0 0 1 -3.354-1.565l-1.969-2.434a.657.657 0 0 0 -1.166.426l.052 3.127a4.225 4.225 0 0 1 -1.566 3.358l-2.431 1.968a.656.656 0 0 0 .425 1.166l3.127-.052a4.228 4.228 0 0 1 3.355 1.566l1.968 2.431a.657.657 0 0 0 1.168-.424l-.053-3.128a4.227 4.227 0 0 1 1.565-3.355l2.432-1.972a.656.656 0 0 0 .2-.735.645.645 0 0 0 -.241-.315z" fill="#fbe986"/></g></svg>