<svg id="Layer_1" enable-background="new 0 0 3800 3000" viewBox="0 0 3800 3000" xmlns="http://www.w3.org/2000/svg"><g><g><path d="m3780.9 1408.5c-3.6 46.1-23.2 87.1-52.9 118-38.5 40.1-94.1 63.2-153.9 58.5l-9.9-.8c-38.5-3.1-74.6 19.3-89 55.1-115.4 287.4-367.5 502.1-398.7 528-254.8 211.3-609.1 328-962.2 286.5-111.3-13.1-222.5-41.9-330.5-88.4-287.8-124.1-597.9-394-699-710.2-10.9-34.3-41.4-58.5-77.3-61.3l-5.3-.4c-5.5-.4-10.9-1.1-16.3-2-1.4-.2-2.8-.5-4.2-.7-4.1-.8-8.2-1.7-12.2-2.7-1-.2-1.9-.5-2.9-.8-4.9-1.3-9.8-2.9-14.5-4.6-1-.4-2.1-.8-3.1-1.1-5.8-2.2-11.5-4.7-17-7.4-1.1-.5-2.2-1.1-3.2-1.6-1.2-.6-2.3-1.2-3.5-1.9-1-.5-1.9-1-2.8-1.6-1.5-.8-2.9-1.7-4.4-2.6-1.1-.6-2.1-1.3-3.2-2-.7-.4-1.4-.9-2.1-1.4-1.2-.8-2.4-1.6-3.7-2.4-1.8-1.2-3.6-2.5-5.4-3.8-1.2-.9-2.3-1.7-3.5-2.6s-2.3-1.8-3.4-2.7c-.6-.5-1.2-.9-1.7-1.4-1.1-.9-2.2-1.9-3.3-2.8-2.2-1.9-4.4-3.9-6.5-5.9-.5-.5-1.1-1-1.6-1.5-39.7-38.5-62.5-93.8-57.9-153.2 1.2-14.3 3.8-28.1 7.9-41.3 25.8-84.4 107.5-142.5 199.1-135.3 6.2.5 12.5.3 18.5-.5 28.6-3.8 54.1-21.4 67.4-47.8 107.9-213 332.5-365.6 583.9-461 222.5-84.4 466.1-124.1 668.5-121.1 341.6 5 954.7 137.2 1120.3 562.5 12.3 31.8 41.7 53.7 75.6 56.4l37.7 3c79.9 6.3 144.6 60.7 167.8 132.4 7.2 23.3 10.4 48.5 8.4 74.4z" fill="#f8c720"/><g fill="#fb9702"><path d="m3780.9 1408.5c-3.6 46.1-23.2 87.1-52.9 118-38.5 40.1-94.1 63.2-153.9 58.5l-9.9-.8c-38.5-3.1-74.6 19.3-89 55.1-115.4 287.4-367.5 502.1-398.7 528-254.8 211.3-609.1 328-962.2 286.5-111.3-13.1-222.5-41.9-330.5-88.4-287.8-124.1-597.9-394-699-710.2-10.9-34.3-41.4-58.5-77.3-61.3l-5.3-.4c-5.5-.4-10.9-1.1-16.3-2-1.4-.2-2.8-.5-4.2-.7-4.1-.8-8.2-1.7-12.2-2.7-1-.2-1.9-.5-2.9-.8-4.9-1.3-9.8-2.9-14.5-4.6-1-.4-2.1-.8-3.1-1.1-5.8-2.2-11.5-4.7-17-7.4-1.1-.5-2.2-1.1-3.2-1.6-1.2-.6-2.3-1.2-3.5-1.9-1-.5-1.9-1-2.8-1.6-1.5-.8-2.9-1.7-4.4-2.6-1.1-.6-2.1-1.3-3.2-2-.7-.4-1.4-.9-2.1-1.4-1.2-.8-2.4-1.6-3.7-2.4-1.8-1.2-3.6-2.5-5.4-3.8-1.2-.9-2.3-1.7-3.5-2.6s-2.3-1.8-3.4-2.7c-.6-.5-1.2-.9-1.7-1.4-1.1-.9-2.2-1.9-3.3-2.8-2.2-1.9-4.4-3.9-6.5-5.9-.5-.5-1.1-1-1.6-1.5-39.7-38.5-62.5-93.8-57.8-153.2 1.2-14.3 3.8-28.1 7.9-41.3 37.3 48.2 123.9 135.9 266.5 148.3 57.7 5 119 56.1 194.1 128.6 10.5 10.1 21.3 20.7 32.3 31.6 37.9 37.4 79.3 79 125.4 122.1 24.2 22.6 49.7 45.7 76.6 68.7 167.1 143.2 389.8 287.2 707.3 338.9 74.1 12.1 144.6 13.2 211.6 5.6 563.2-63.5 879.8-741.8 1066.9-714 184.5 27.4 246.1-108.5 258.1-141.2 7.1 23.3 10.3 48.5 8.3 74.4z" opacity=".33"/><path d="m2593.3 807.8c-126.1-35.9-370.4-84.1-553.8 11-11.8 6.1-7 24 6.3 23.3 101.2-4.9 340-14.6 543.8-10.1 14.5.3 17.6-20.2 3.7-24.2z"/><path d="m2154.8 2381.6c130.5 13 379.5 17.3 543-108.7 10.5-8.1 2.7-24.8-10.2-21.9-98.7 22.6-332 74.5-533.6 106-14.2 2.4-13.6 23.2.8 24.6z"/><path d="m2289.4 920.8c-55.8-12.3-163.6-26.2-242.4 23.5-5 3.2-2.7 11.2 3.1 10.5 44.2-5.6 148.7-18.1 238.1-22.8 6.4-.3 7.4-9.9 1.2-11.2z"/><path d="m2095.4 2278.7c56.4 8.9 164.9 16.3 240.5-38.2 4.9-3.5 2-11.4-3.7-10.3-43.8 8.2-147.3 27-236.3 37.1-6.3.7-6.8 10.3-.5 11.4z"/><path d="m2329.9 2141.7c56.4 8.9 164.9 16.3 240.5-38.2 4.9-3.5 2-11.4-3.7-10.3-43.8 8.2-147.3 27-236.3 37.1-6.3.8-6.8 10.4-.5 11.4z"/></g><g fill="#fff"><path d="m3099.8 969.8c-10.2-24.5-64-25.1-97-17.9-29.9 6.6-79.7 27.9-79.4 56.3.3 28.3 50.3 57.1 93.5 51.6 52-6.6 94.2-63 82.9-90z" opacity=".66"/><path d="m2884.6 1395c11.2 24 65 22.5 97.6 14 29.6-7.8 78.6-31.1 77.1-59.4-1.4-28.2-52.6-55.1-95.5-47.8-51.7 8.6-91.6 66.6-79.2 93.2z" opacity=".66"/><path d="m3215.8 1118.4c15.9-18.5-1-46.5-24.8-41.1-22.5 5.2-47.4 14.2-72 29.8-52.6 33.2-95.8 91.2-84.9 106.1 10.8 14.8 76.1-11.3 119.8-40.2 25.6-17 46-36.2 61.9-54.6z" opacity=".66"/><ellipse cx="2878.2" cy="1148.3" opacity=".66" rx="62.6" ry="30.4" transform="matrix(.992 -.127 .127 .992 -122.159 373.386)"/><ellipse cx="2848.6" cy="920.3" opacity=".66" rx="30.2" ry="62.5" transform="matrix(.482 -.876 .876 .482 670.073 2973.507)"/><circle cx="2795.6" cy="1288.4" opacity=".66" r="37.1"/><path d="m1360.5 1870.4c11.2 24 65 22.5 97.6 14 29.6-7.8 78.6-31.1 77.1-59.4-1.4-28.2-52.6-55.1-95.5-47.8-51.7 8.6-91.7 66.6-79.2 93.2z" opacity=".33"/><path d="m1691.7 1593.8c15.9-18.5-1-46.5-24.8-41.1-22.5 5.2-47.4 14.2-72 29.8-52.6 33.2-95.8 91.2-84.9 106.1 10.8 14.8 76.1-11.3 119.8-40.2 25.6-16.9 46-36.1 61.9-54.6z" opacity=".33"/><ellipse cx="1354.4" cy="1623.9" opacity=".33" rx="62.6" ry="30.4" transform="matrix(.992 -.127 .127 .992 -194.572 184.412)"/><ellipse cx="1324.2" cy="1396.3" opacity=".33" rx="30.2" ry="62.5" transform="matrix(.482 -.876 .876 .482 -537.225 1884.284)"/><circle cx="1271.8" cy="1763.9" opacity=".33" r="37.1"/></g></g><path d="m2488.5 2107.2c-4 11.9-8.7 23.6-14.1 34.9-7.8 16.4-16.9 32.2-27.3 47.1-25.7 36.7-59.3 68.3-99.3 91.9-29.6 17.4-58.1 37-86.4 57.9-20.1 14.8-40.2 30.4-60.5 46.4-28.2 22.2-56.9 45.3-86.8 68.5-111.3-13.1-222.5-41.9-330.5-88.4-287.8-124.1-597.9-394-699-710.2-10.9-34.3-41.4-58.5-77.3-61.3l-5.3-.4c-5.5-.4-10.9-1.1-16.3-2-1.4-.2-2.8-.5-4.2-.7-4.1-.8-8.2-1.7-12.2-2.7-1-.2-1.9-.5-2.9-.8-4.9-1.3-9.8-2.9-14.5-4.6-1-.4-2.1-.8-3.1-1.1-5.8-2.2-11.5-4.7-17-7.4-1.1-.5-2.2-1.1-3.2-1.6-1.2-.6-2.3-1.2-3.5-1.9-1-.5-1.9-1-2.8-1.6-1.5-.8-2.9-1.7-4.4-2.6-1.1-.6-2.1-1.3-3.2-2-.7-.4-1.4-.9-2.1-1.4-1.2-.8-2.4-1.6-3.7-2.4-1.8-1.2-3.6-2.5-5.4-3.8-1.2-.9-2.3-1.7-3.5-2.6s-2.3-1.8-3.4-2.7c-.6-.5-1.2-.9-1.7-1.4-1.1-.9-2.2-1.9-3.3-2.8-2.2-1.9-4.4-3.9-6.5-5.9-.5-.5-1.1-1-1.6-1.5-39.7-38.5-62.5-93.8-57.9-153.2 1.2-14.3 3.8-28.1 7.9-41.3 25.8-84.4 107.5-142.5 199.1-135.3 6.2.5 12.5.3 18.5-.5 28.6-3.8 54.1-21.4 67.4-47.8 107.9-213 332.5-365.6 583.9-461 10.2 4.3 20.3 8.8 30.3 13.6l.1-.1s151.6 63.6 320.7 226.3c4.2 4 8.4 8.1 12.6 12.3 144.6 142.7 299.5 357.9 382 667.5 29.4 110.1 49.5 232.1 56.9 367.1 2 41.1-3.7 81.6-16.5 119.5z" opacity=".11"/><path d="m2172.1 2246c-300.3 177.2-492.2 569.6-1490.3 419.5l129-292.7 746.1-1693.7s533.4 223.8 715.3 906.2c29.4 110.1 49.5 232.1 56.9 367.1 6.4 119.5-54 232.7-157 293.6z" fill="#f9c232"/><path d="m2172.1 2246c-300.3 177.2-492.2 569.6-1490.3 419.5l129-292.7 610.6-187.3s36.2 350.7 372.2 95.8 519.6-166.9 478.7-696c29.4 110.1 49.5 232.1 56.9 367.1 6.3 119.5-54.1 232.7-157.1 293.6z" fill="#fa9702" opacity=".33"/><ellipse cx="978.9" cy="1638.7" fill="#f4e07e" rx="1126.5" ry="841.9" transform="matrix(.617 -.787 .787 .617 -914.542 1397.048)"/><path d="m596.9 1109.5c-4.8-191 238.5-363.1 326.7-231l12.7 19.1c9.2 13.7 29.8 12.7 37.4-2l29.8-57.2c98.8-189.7 319.2-206.1 316.5-23.7l-1.6 111.1c-.2 17.8 19.8 28.4 34.3 18.2l105.5-74.1c161.8-113.6 285.3 33 181.8 215.7l-54.9 96.9c-8.6 15.1 3.1 33.7 20.5 32.5l69.5-4.7c168.2-11.3 155 250.3-18.2 362.6l-8.5 5.5c-13.1 8.5-13.3 27.7-.3 36.4 126.3 84.7-11.9 365.9-181.7 369.8 52.8 161.5-166.6 385.2-288.5 294.2-12.5-9.4-30.5-2.9-34.2 12.3l-6.6 27.6c-47.3 195.7-283.8 292.6-327.7 134.2l-22.7-81.5c-4.6-16.7-26-21.6-37.4-8.5l-83.7 96c-134.6 154.4-309.5 88.1-257.3-97.5l39-138.6c4.8-17.1-11.8-32.5-28.5-26.3l-118 43.4c-167 61.6-223.2-146.5-80.8-298.8l55.8-59.7c11.3-12.1 5.5-31.9-10.5-36l-31.5-8c-151.5-38.7-71.2-321 107.8-378.9l10.9-3.5c-94.6-127.8 92.7-392.3 244.4-345.5z" fill="#f9c232" opacity=".44"/><g fill="#fff"><ellipse cx="955.4" cy="1615.1" opacity=".55" rx="212.1" ry="168.8" transform="matrix(.347 -.938 .938 .347 -890.801 1951.318)"/><path d="m955.6 977.8s-38.7 211.7 23.4 384.7c.1 0-2.7-173-23.4-384.7z" opacity=".33"/><path d="m1421.2 2000.4s-144.6-159.4-319.7-215.2c0 .1 139 103 319.7 215.2z" opacity=".33"/><path d="m861.5 1983.3c-27 58-62.3 147.7-74.4 242.8-1.2 9.3 12 12.3 15 3.4 17.6-53 45.1-139.1 73.8-240.9 2.5-9.1-10.4-14-14.4-5.3z" opacity=".33"/><path d="m452 1776.1c-33.2 4.7-83 17.8-123.3 54.7-6.1 5.5.1 15.5 7.8 12.5 27.1-10.5 70.5-28.5 120-53 7.4-3.9 3.9-15.4-4.5-14.2z" opacity=".33"/><path d="m705.9 1699.4c-33.5-.7-84.7 4.4-130.5 34.3-7 4.5-2.4 15.3 5.7 13.6 28.4-6.1 74.2-16.9 126.9-33.2 8.1-2.6 6.4-14.5-2.1-14.7z" opacity=".33"/><path d="m1513.8 1231c-32.5 8.3-80.5 26.9-116.6 68-5.5 6.2 1.8 15.4 9.1 11.6 25.8-13.4 66.9-36.1 113.3-65.9 7.2-4.7 2.5-15.8-5.8-13.7z" opacity=".33"/><path d="m739.5 1255.1c-37-18.7-90.7-53.4-126.7-109.3-5.5-8.4 4.6-16.3 12.6-10 28.3 22.4 73.3 59.5 123.3 106.1 7.6 7.3.2 18-9.2 13.2z" opacity=".33"/><path d="m679.4 1585.2c-41.3-3.9-104-16.4-157.9-55.1-8.1-5.9-1.7-16.9 8-13.9 34.5 10.5 90 28.5 153.6 53.4 9.8 3.9 6.8 16.6-3.7 15.6z" opacity=".33"/><path d="m1433.5 1607.7c-48.4-7-123.7-12.8-197.3 1.8-11.2 2.2-7.3 11.5 4.8 11.7 42.6.7 111.5 1 191.8-1.6 12.4-.4 13-10.1.7-11.9z" opacity=".33"/></g><g fill="#f9c232"><path d="m1114.5 1198c4.8-80.2 17.6-200.7 51.3-317 4.8-16.8 16.9-12.5 14.5 5.2-9.3 68.7-25.5 178.5-50.4 311.8-3.4 17.9-16.5 17.9-15.4 0z"/><path d="m502 2131.1c65.4-80.1 166.6-199.2 275.6-309.9 15.8-16 18.7-9.3 3.7 8.1-58.7 67.5-153.4 175.1-271 304.9-16.1 17.4-22.9 14.8-8.3-3.1z"/><path d="m1195.2 1477.5c76.9-23.6 194.2-53.7 314.9-62.8 17.4-1.3 17.6 11.5.2 15.4-67.6 15.3-176.1 38.4-309.8 61.9-18 3.2-22.5-9.2-5.3-14.5z"/><path d="m1076.2 2056.8c18.3 36.5 43.2 92.7 57.9 152.3 2.1 8.6-4.3 9.8-7.7 1.4-13.4-32.6-34.1-84.9-57-149.9-3-8.7 2.8-12 6.8-3.8z"/><path d="m987.1 1848.6c18.3 36.5 43.2 92.7 57.9 152.3 2.1 8.6-4.3 9.8-7.7 1.4-13.4-32.6-34.1-84.9-57-149.9-3.1-8.6 2.7-11.9 6.8-3.8z"/><path d="m765.4 963.1c18.3 36.5 43.2 92.7 57.9 152.3 2.1 8.6-4.3 9.8-7.7 1.4-13.4-32.6-34.1-84.9-57-149.9-3-8.7 2.8-11.9 6.8-3.8z"/><path d="m652.7 1375c35.9 20.1 87.3 54 128.1 100.8 5.9 6.7-1.2 13.7-8.5 8.4-28.5-20.6-73.5-54.5-126.1-99-7-6.1-1.5-14.8 6.5-10.2z"/><path d="m418.6 1956.3c33.6-23.7 86.4-55.5 146.1-72.1 8.7-2.4 12 7 4 11.3-30.9 16.8-80.9 42.7-143.8 70.9-8.4 3.9-13.8-4.8-6.3-10.1z"/><path d="m1282.6 1727.5c38.7 13.8 95.1 38.6 143.2 77.9 7 5.7 1.2 13.7-7 9.8-31.6-15.5-81.6-41.5-140.9-76.5-8-4.9-4-14.3 4.7-11.2z"/><path d="m1329.8 1122.1c28.5-29.6 74.3-70.9 129.8-98.6 8-4 13 4.6 6.1 10.3-27.2 22.4-71.3 57.3-127.7 97-7.6 5.5-14.6-2-8.2-8.7z"/></g><g fill="#fa9702"><circle cx="1323.3" cy="2619.7" r="30.1"/><path d="m1382.4 2615.6c24.4-21.7 55.6-44.8 86.5-54.8 12.3-4 18 24.4 6.8 33.7-22.8 18.8-53.2 40.5-85.5 54.3-12.4 5.3-19-23.2-7.8-33.2z"/><path d="m1346.3 2540.8c-18.6-1.7-28.4-22.7-18.1-38.1 13.2-19.8 35.4-41.1 69.8-43 65.6-3.6 86.5 81.7 42.3 84.7-25.8 1.7-65.5-1.1-94-3.6z"/></g></g></svg>