<svg id="Layer_1" enable-background="new 0 0 548.356 838.495" height="512" viewBox="0 0 548.356 838.495" width="512" xmlns="http://www.w3.org/2000/svg"><g><g><path d="m187.512 501.399c-28.691-37.544-93.188-52.356-127.775-103.992-10.156-15.162-18.375-34.941-26.67-59.044-9.3-54.809 9.84-58.504 13.206-68.905 3.368-10.4-15.853-94.823 23.33-104.265 9.203-2.217 10.942-32.298 25.795-50.166 14.09-16.951 40.882-22.043 64.594-13.178 0 0 25.678-22.299 47.472-15.738 0 0 26.773 12.255 30.073 38.692 3.3 26.436 25.974 31.93 34.029 46.059 8.057 14.129-4.808 38.252 24.893 52.818s54.448 109.971 33.383 186.906c-21.063 76.934-16.605 76.734-16.605 76.734s-61.272 56.199-99.378 58.249c-14.939.804-20.855-36.983-26.347-44.17z" fill="#b4c79d"/><path d="m134.679 119.703c13.764 131.951 12.797 237.423 46.997 293.539 68.39 112.215 189.628 100.753 236.06 224.804 26.387 70.499-16.737 135.705-65.991 147.798-31.992 7.855-128.329-3.903-160.977-46.417-47.561-61.934 40.438-197.118 3.797-240.265-60.189-70.873-82.055-188.675-59.886-379.459z" fill="#f5ece7"/><path d="m405.751 489.062c23.829-50.749 93.504-42.926 113.044-188.116-1.118-55.072-19.337-54.996-24.26-64.463-4.921-9.467-5.84-34.114-4.589-47.611 1.249-13.498-18.154-52.182-35.19-49.292-8.436 1.431-20.621-25.406-36.62-40.126-16.311-15.007-36.553-17.789-57.504-4.138 0 0-27.497-16.761-46.347-6.204 0 0-22.415 17.046-20.788 43.382 1.629 26.336-18.216 36.022-23.121 51.304-4.907 15.282 11.151 36.27-13.545 56.125-24.697 19.855-30.607 117.357 2.279 188.122 32.886 70.764 28.758 71.423 28.758 71.423s104.478 18.143 117.883-10.406z" fill="#b4c79d"/><path d="m387.012 107.824c31.821 392.753-137.356 363.945-168.51 558.22-11.803 73.602 38.272 119.35 85.612 121.669 30.748 1.505 118.644-3.903 141.122-51.495 9.959-21.086 14.659-48.504 7.59-77.878-9.659-40.133-35.251-78.403-46.988-114.382-7.918-24.274-7.191-50.481.108-64.209 42.761-80.443 35.02-190.68-18.934-371.925z" fill="#f5ece7"/><path d="m340.996 494.344c.744-1.536 25.543-35.005 53.925-54.871 28.381-19.867 88.455-72.372 54.398-227.524-22.233-55.344-42.099-47.775-51.087-55.344-8.988-7.568-19.394-32.166-23.179-46.356-3.784-14.191-23.504-49.144-64.317-35.182 0 0-62.83-67.125-117.067 4.833 0 0-33.385-5.023-49.941 13.425 0 0-16.539 14.558-4.713 40.574 11.825 26.017-20.463 49.324-19.989 66.826.472 17.502 20.467 74.442 1.074 104.716-19.394 30.273 31.213 83.891 94.125 142.074 62.912 58.182 58.654 60.546 58.654 60.546s52.98 17.502 68.117-13.717z" fill="#b4c79d"/><g fill="#fff"><path d="m282.584 84.143c-4.301 5.535-14.542 4.774-22.877-1.701-8.333-6.475 7.24-26.521 15.574-20.045 8.335 6.474 11.604 16.211 7.303 21.746z"/><path d="m247.943 81.286c-1.546 1.991-5.23 1.717-8.229-.612s-4.174-5.831-2.628-7.823c1.548-1.991 5.232-1.717 8.23.612s4.175 5.832 2.627 7.823z"/><path d="m380.101 542.493s73.791 150.562 50.78 199.816c15.857-26.372 42.168-43.291-50.78-199.816z"/></g><path d="m356.381 471.374c-8.806-19.277-13.917-39.859-17.618-62.061 30.969-24.547 67.785-65.718 76-126.449 0 0-21.104 67.588-79.33 103.592-2.581-19.996-4.687-41.266-7.748-64.013 29.506-25.703 62.366-76.804 68.875-135.207 0 0-18.811 65.588-73.769 103.335-2.913-16.634-6.584-34.006-11.497-52.199 11.063-12.31 45.804-57.722 30.052-128.001 0 0 3.644 72.908-36.078 107.349-11.187-35.676-27.444-74.362-51.992-116.521 13.066 41.656 22.529 78.961 29.042 112.641-52.136-21.56-78.543-84.2-78.543-84.2 16.983 75 63.615 100.28 82.707 107.648 3.613 22.49 5.83 43.255 6.885 62.56-.523-1.661-1.057-3.319-1.62-4.97-80.013-19.491-117.728-101.493-117.728-101.493 20.927 77.756 86.512 115.708 120.08 130.443.124 23.548-1.574 44.781-4.608 64.238-77.876-19.853-115.651-98.871-115.651-98.871 19.86 69.644 75.357 106.555 110.901 123.634-25.914 113.194-96.276 165.538-90.535 291.067 3.521 76.976 108.353 102.779 160.267 93.791 33.719-5.838 87.649-24.004 101.493-77.328 20.167-77.681-70.719-185.792-99.585-248.985z" fill="#f5ece7"/><path d="m246.064 598.646c26.358-72.643 48.026-195.249 48.026-195.249-12.987 50.092-33.92 97.872-45.619 122.622-16.293-36.632-54.802-43.682-54.802-43.682s16.399 14.577 19.87 38.127c3.234 21.937-5.981 50.656-17.722 109.012-9.856 48.992-2.332 91.958 24.703 115.456 39.736 34.54 104.178 42.423 104.178 42.423-114.886-44.853-94-127.468-78.634-188.709z" fill="#dacfc7"/><path d="m147.666 450.117c-.717-2.148-104.895-76.613-101.673-130.313 2.208-36.815 23.629-36.158 20.048-76.255-3.58-40.096-4.657-54.039 11.099-62.292 22.553-11.814 15.035-28.641 19.331-39.38 4.296-10.74 15.036-27.924 25.06-25.776s5.728 32.578-6.444 41.886-22.196 36.874-12.888 54.774c9.309 17.9 13.605 36.874 2.148 64.798-3.727 9.084-8.576 19.554-10.381 30.431-13.603 81.983 53.7 142.127 53.7 142.127z" fill="#879576"/><path d="m166.013 267.267c16.246-25.438 1.236-35.425-6.712-53.969-7.097-16.56-3.031-26.61 1.798-35.916 12.432-23.96 11.845-35.175 1.961-62.355-5.76-15.839 12.407-25.814 12.407-25.814-33.519 8.8-19.714 30.303-21.953 41.511-2.267 11.344-1.676 27.644-11.834 42.244-18.718 26.905-8.779 22.5 2.047 61.273 10.827 38.773-21.078 40.791-7.876 100.241 12.559 56.55 83.801 89.886 91.665 94.709-9.203-6.925-113.352-80.738-61.503-161.924z" fill="#879576"/><path d="m389.317 98.201s27.925 4.296 38.665 34.368c7.07 18.168 21.838 17.9 21.838 17.9s36.516-.537 25.418 60.145c-6.121 33.469 21.032 45.914 21.032 45.914s-29.624-5.102-31.772-29.446 10.39-52.912-17.363-61.308c-31.952-9.666-25.89-31.646-37.322-49.136-7.755-11.865-20.496-18.437-20.496-18.437z" fill="#fff"/><path d="m220.853 563.333-4.478 15.735c-.71 2.493.736 5.088 3.23 5.798 2.493.709 9.538-24.053 7.045-24.762-2.492-.711-5.088.735-5.797 3.229" fill="#604a38"/><path d="m320.939 84.955s34.368-6.444 46.182 59.07c-1.074-18.258 0-73.033-46.182-59.07z" fill="#fff"/><path d="m522.786 271.722c-1.789-6.744-4.607-12.998-8.701-18.417-4.08-5.404-7.545-9.071-10.199-11.928-1.326-1.427-2.441-2.645-3.337-3.758-.899-1.114-1.58-2.111-2.126-3.158-1.63-3.131-2.884-7.072-3.699-11.478-.818-4.406-1.209-9.269-1.208-14.241 0-2.991.14-6.021.406-9.017.302-3.382.481-6.833.481-10.306-.006-11.062-1.81-22.435-7.664-32.276-2.923-4.909-6.872-9.391-11.984-13.11-5.111-3.723-11.363-6.679-18.866-8.686-.296-.077-.743-.266-1.314-.637-1.071-.687-2.51-2.021-4.084-3.85-2.778-3.201-5.993-7.848-9.637-12.972-5.486-7.692-11.97-16.497-20.261-23.545-4.148-3.521-8.766-6.602-13.951-8.809-5.18-2.208-10.93-3.522-17.183-3.519-6.139-.001-12.723 1.285-19.758 4.04-5.717-7.845-12.591-12.906-19.54-15.889-6.977-3.004-13.98-3.964-20.127-3.964-7.78.011-14.22 1.517-17.85 2.593-8.791-9.768-18.203-17.403-28.033-22.692-10.611-5.712-21.721-8.698-32.846-8.695-10.933-.005-21.832 2.889-32.175 8.654-9.773 5.443-19.052 13.449-27.626 23.936-.379-.005-.787-.008-1.243-.008-3.253.001-8.394.152-14.344.899-4.462.561-9.379 1.457-14.31 2.901-7.383 2.176-14.863 5.56-20.729 11.191-2.397 2.307-4.478 5.027-6.112 8.125-.66-.019-1.332-.051-1.977-.052-7.139-.001-13.433 1.035-18.956 2.917-9.684 3.282-16.89 9.185-22.194 15.994-7.97 10.228-11.976 22.425-15.325 32.213-1.655 4.888-3.153 9.19-4.661 12.184-.746 1.496-1.49 2.651-2.138 3.386-.653.747-1.143 1.045-1.498 1.178-5.198 1.931-9.552 4.372-13.125 7.283-5.375 4.358-8.907 9.787-10.963 15.629-2.066 5.849-2.741 12.079-2.744 18.431.004 7.922 1.055 16.083 2.066 24.111 1.017 8.023 1.997 15.91 1.994 23.13.003 6.787-.864 12.926-3.143 18.125-.113.274-.508.955-1.123 1.817-1.074 1.528-2.779 3.644-4.688 6.253-2.866 3.924-6.206 9.017-8.813 15.49-2.612 6.471-4.473 14.332-4.47 23.684 0 9.012 1.717 19.388 6.003 31.296 4.287 11.911 11.135 25.365 21.423 40.631 30.216 44.845 67.394 68.534 96.341 87.592 14.48 9.518 26.879 17.923 35.353 26.917 4.246 4.495 7.518 9.103 9.74 14.085 2.219 4.988 3.425 10.367 3.43 16.623 0 .986-.029 1.994-.093 3.025-1.279 21.263-7.003 44.828-12.49 69.096-5.472 24.278-10.707 49.276-10.715 73.719 0 12.584 1.399 25.029 4.924 37.1 3.522 12.069 9.184 23.751 17.608 34.715 7.074 9.209 16.278 16.961 26.661 23.448 15.579 9.725 33.835 16.628 51.919 21.148 13.923 3.474 27.723 5.518 40.171 6.282.185-.165.378-.321.563-.486 6.498.676 12.839 1.019 18.889 1.021 8.107 0 15.704-.594 22.536-1.776 17.246-2.995 39.678-9.098 59.856-21.482 10.083-6.196 19.603-13.98 27.526-23.758 7.921-9.771 14.224-21.544 17.853-35.531 1.682-6.482 2.434-13.34 2.434-20.485-.006-14.691-3.157-30.604-8.186-47.211-7.555-24.901-19.377-51.389-31.662-77.317-4.221-8.906-8.492-17.734-12.67-26.411-4.186-10.203-5.989-19.078-5.99-27.05.01-9.565 2.532-17.948 6.969-26.105 6.643-12.218 17.77-23.773 30.661-36.414 12.877-12.652 27.459-26.411 40.743-43.397 4.009-5.133 8.579-12.395 13.278-21.174 7.039-13.16 14.316-29.689 19.868-47.12 5.545-17.435 9.385-35.752 9.394-52.603.001-7.536-.772-14.786-2.559-21.535zm-10.467 54.49c-3.995 17.026-10.378 34.232-17.146 48.904-3.382 7.336-6.861 14.04-10.169 19.769-3.305 5.725-6.452 10.484-9.1 13.868-17.032 21.801-36.672 38.451-52.419 55.126-7.865 8.347-14.772 16.723-19.775 25.886-4.408 8.062-7.291 16.785-7.909 26.375-2.537-5.569-4.952-11.018-7.169-16.29-1.005-2.388-3.756-3.51-6.146-2.506-2.388 1.005-3.51 3.756-2.506 6.146 12.813 30.448 31.297 65.518 46.523 99.878 7.612 17.171 14.405 34.154 19.269 50.202 4.87 16.044 7.789 31.151 7.783 44.487 0 6.487-.684 12.55-2.132 18.126-3.294 12.672-8.925 23.167-16.062 31.981-10.698 13.211-24.869 22.634-39.545 29.277-14.666 6.646-29.793 10.487-42.145 12.624-6.197 1.074-13.29 1.641-20.935 1.639-13.322.001-28.313-1.717-43.269-5.325-22.443-5.4-44.783-15.084-61.519-29.264-8.376-7.089-15.36-15.279-20.386-24.629-5.024-9.354-8.12-19.869-8.67-31.803l-.003-.09c-.021-.658-.112-3.687-.112-8.148 0-5.098.119-12.07.589-19.494.466-7.42 1.292-15.304 2.663-22.147.508-2.542-1.14-5.014-3.681-5.523-2.542-.508-8.956 41.921-8.956 47.165s.122 8.578.124 8.623v.013l.001.031c.8 17.754 6.786 33.111 16.124 45.875 2.346 3.208 4.913 6.24 7.642 9.131-4.347-3.709-8.238-7.702-11.529-11.99-7.718-10.056-12.852-20.648-16.088-31.721-3.234-11.07-4.56-22.634-4.56-34.547-.009-23.133 5.029-47.544 10.492-71.713 5.45-24.179 11.324-48.095 12.697-70.551.074-1.209.109-2.401.109-3.575.006-7.449-1.485-14.214-4.218-20.33-2.389-5.357-5.701-10.208-9.688-14.717-6.986-7.892-16.01-14.791-26.262-21.851-30.767-21.138-72.815-43.815-106.25-93.406-9.952-14.763-16.428-27.568-20.405-38.625-3.978-11.06-5.464-20.36-5.464-28.213.001-6.212.927-11.53 2.345-16.15 2.129-6.927 5.372-12.296 8.425-16.599 1.529-2.153 3.007-4.031 4.301-5.746.647-.859 1.249-1.679 1.796-2.503.547-.827 1.045-1.651 1.461-2.598 2.981-6.832 3.902-14.246 3.906-21.772-.004-8.024-1.053-16.241-2.066-24.272-1.018-8.025-1.997-15.863-1.994-22.97 0-3.8.278-7.385.937-10.676.999-4.947 2.807-9.187 5.866-12.842 3.068-3.648 7.471-6.82 14.095-9.29 1.613-.598 3.003-1.549 4.159-2.651 2.17-2.084 3.65-4.646 4.989-7.494 2.31-4.986 4.139-11.029 6.377-17.387 1.668-4.761 3.541-9.675 5.87-14.325 3.497-6.988 7.982-13.312 14.243-17.875 3.138-2.288 6.736-4.159 10.993-5.481 3.963-1.228 8.537-1.951 13.809-2.049-.379 2.087-.585 4.277-.584 6.573 0 3.801.534 7.881 1.646 12.259 2.014 7.933 2.813 14.171 2.812 19.215-.01 5.92-1.056 10.189-2.669 14.021-1.215 2.872-2.794 5.513-4.614 8.298-2.717 4.171-6.003 8.651-8.85 14.491-2.848 5.837-5.176 13.002-6.09 22.358-.106 1.076-.157 2.136-.157 3.176 0 4.404.905 8.443 2.148 12.234 1.88 5.696 4.464 10.918 6.497 16.675 2.038 5.76 3.599 12.022 3.606 19.937-.003 8.067-1.648 17.913-6.441 30.546-4.011 10.558-5.923 20.983-5.92 31.218-.003 12.184 2.703 24.065 7.595 35.615 7.345 17.334 19.547 33.962 35.119 50.377 15.578 16.414 34.556 32.626 55.613 49.025 11.108 8.655 18.142 17.541 22.453 26.247 4.303 8.71 5.913 17.288 5.917 25.487.006 10.935-2.925 21.189-6.327 29.555-1.699 4.183-3.508 7.886-5.107 10.979-1.605 3.106-2.979 5.545-3.917 7.449-1.142 2.326-.181 5.138 2.145 6.279 2.326 1.142 5.138.181 6.279-2.145.721-1.476 2.154-4.037 3.828-7.271 5.027-9.755 12.462-25.931 12.484-44.846.004-9.435-1.895-19.558-6.891-29.648-4.991-10.096-13.046-20.11-25.099-29.491-27.8-21.639-51.674-42.802-68.418-63.952-8.375-10.573-14.964-21.128-19.44-31.704-4.476-10.581-6.85-21.164-6.852-31.956.001-9.07 1.676-18.31 5.31-27.887 5.116-13.47 7.053-24.508 7.052-33.877.013-12.251-3.357-21.509-6.475-29.108-1.561-3.807-3.046-7.219-4.095-10.427-1.053-3.215-1.68-6.194-1.682-9.31 0-.739.037-1.488.112-2.254.734-7.397 2.367-12.876 4.404-17.484 1.532-3.456 3.309-6.433 5.197-9.338 2.815-4.353 5.945-8.547 8.453-13.8 2.509-5.243 4.231-11.524 4.215-19.469-.001-6.034-.946-13.034-3.101-21.525-.946-3.726-1.357-7.028-1.357-9.95.003-3.452.566-6.37 1.529-8.917 1.691-4.44 4.63-7.871 8.529-10.689 5.823-4.217 13.814-6.784 21.344-8.156 7.526-1.388 14.547-1.637 18.426-1.635 1.023 0 1.829.017 2.369.033.269.008.474.016.605.022l.143.007.029.001h.001l2.438.137 1.511-1.919c8.36-10.619 17.263-18.341 26.339-23.393 9.085-5.052 18.328-7.465 27.61-7.469 9.443.003 18.975 2.51 28.4 7.576 9.419 5.064 18.71 12.704 27.472 22.905l2.182 2.54 3.112-1.238.068-.026c.828-.323 8.267-2.976 17.496-2.963 3.449-.001 7.14.362 10.851 1.31 5.572 1.431 11.17 4.132 16.317 9.04 5.136 4.915 9.877 12.109 13.393 22.779 2.342 7.111 5.931 16.929 10.136 26.067 2.105 4.572 4.362 8.972 6.743 12.819 2.397 3.848 4.857 7.148 7.736 9.593 1.602 1.348 3.331 2.267 5.023 2.999 2.978 1.272 5.901 2.075 8.988 3.358 2.314.958 4.73 2.155 7.337 3.955 3.903 2.7 8.274 6.772 13.069 13.556 4.746 6.719 9.874 16.102 15.19 29.278 6.687 30.578 9.46 56.807 9.46 79.377-.019 45.343-11.114 75.895-24.375 97.817-6.641 10.96-13.851 19.762-20.595 27.136-6.747 7.382-13.018 13.3-17.869 18.655-7.342 8.118-12.471 16.263-15.788 24.3-3.319 8.036-4.813 15.952-4.973 23.518-.056 2.591 1.999 4.736 4.59 4.792 2.592.056 4.738-1.999 4.793-4.592.141-6.482 1.398-13.184 4.265-20.137 2.87-6.95 7.365-14.165 14.074-21.587 4.443-4.922 10.827-10.962 17.832-18.615 10.514-11.491 22.444-26.704 31.674-47.873 9.24-21.168 15.76-48.259 15.756-83.414 0-23.438-2.888-50.464-9.762-81.775l-.084-.38-.144-.363c-5.663-14.093-11.226-24.325-16.631-31.907-4.053-5.684-8.027-9.875-11.851-13.018-5.725-4.721-11.13-7.019-15.385-8.552-2.125-.767-3.953-1.362-5.385-1.95-1.44-.586-2.444-1.146-3.166-1.757-1.614-1.338-3.725-3.981-5.8-7.355-3.141-5.066-6.316-11.748-9.087-18.412-2.776-6.669-5.169-13.337-6.856-18.466-1.482-4.502-3.202-8.526-5.108-12.14 5.538-2 10.535-2.862 15.057-2.864 4.093.001 7.836.685 11.355 1.896 6.147 2.117 11.635 5.901 16.62 10.598 7.48 7.036 13.698 16.058 19.2 23.811 2.763 3.881 5.345 7.443 7.982 10.362 1.323 1.46 2.663 2.765 4.118 3.864 1.455 1.094 3.046 2.006 4.889 2.504 6.612 1.771 11.825 4.286 15.974 7.305 6.209 4.536 10.122 10.214 12.61 16.762 2.476 6.538 3.435 13.953 3.432 21.54 0 3.169-.165 6.364-.447 9.529-.288 3.245-.44 6.53-.44 9.794 0 5.427.419 10.795 1.355 15.841.939 5.045 2.388 9.774 4.54 13.921.883 1.699 1.936 3.203 3.082 4.621 3.462 4.25 7.652 7.899 13.362 15.462 3.3 4.369 5.67 9.535 7.221 15.381 1.551 5.842 2.27 12.352 2.269 19.286.008 10.338-1.593 21.607-4.259 32.955z" fill="#604a38"/></g><g><path d="m285.605 639.299c-5.895.369-11.021-4.152-11.392-10.047l-.94-15.006c-.369-5.895 4.152-11.021 10.047-11.392 5.895-.369 11.021 4.152 11.391 10.047l.94 15.007c.371 5.896-4.151 11.022-10.046 11.391z" fill="#604a38"/><path d="m354.927 633.98c-5.895.369-11.021-4.152-11.391-10.047l-.942-15.007c-.369-5.895 4.152-11.021 10.047-11.391 5.895-.369 11.021 4.152 11.391 10.047l.942 15.006c.37 5.896-4.151 11.021-10.047 11.392z" fill="#604a38"/><path d="m366.465 664.734c-2.148 11.813-37.949 6.085-34.368-10.383 1.596-7.342 13.533-12.709 21.838-12.709 8.305.001 14.678 11.278 12.53 23.092z" fill="#c64a4c"/><path d="m334.961 648.981c2.759-3.555 6.522-6.378 11.042-7.952 4.471-1.56 9.971-1.649 14.751.794l1.741.974c.559.355 1.056.814 1.577 1.23.487.456 1.048.834 1.454 1.365.421.515.849 1.024 1.242 1.557.196.266.406.522.583.797l.458.87c.309.578.587 1.168.861 1.752.458 1.201.758 2.454 1.02 3.671.728 4.983-.665 9.79-3.402 13.38-.255-4.53-.839-8.525-2.311-11.814-1.474-3.287-3.794-5.603-6.615-7.059-2.834-1.467-6.35-2.008-10.15-1.739-3.827.235-7.795 1.231-12.251 2.174z" fill="#604a38"/><path d="m384.669 583.242c-1.841-8.632-5.307-15.26-9.908-19.806-4.579-4.548-10.34-6.896-16.056-6.878-6.037-.004-11.907 2.542-16.502 7.024-4.608 4.486-7.985 10.896-9.366 18.743-.434 2.458 1.206 4.802 3.665 5.236 2.458.434 4.802-1.206 5.236-3.665 1.099-6.213 3.671-10.82 6.771-13.834 3.112-3.019 6.711-4.461 10.196-4.464 3.307.016 6.621 1.252 9.706 4.271 3.066 3.022 5.859 7.949 7.415 15.257.521 2.442 2.922 3.999 5.363 3.48 2.443-.522 4-2.923 3.48-5.364z" fill="#604a38"/><path d="m353.977 652.524c-.324 1.986-3.009 3.2-5.997 2.712-2.99-.487-5.149-2.491-4.826-4.477.324-1.985 3.009-3.199 5.998-2.712 2.989.489 5.149 2.493 4.825 4.477z" fill="#fff"/><path d="m360.795 655.654c-.188 1.155-1.751 1.861-3.49 1.577s-2.996-1.451-2.807-2.604c.188-1.155 1.751-1.861 3.49-1.579 1.737.284 2.995 1.451 2.807 2.606z" fill="#fff"/><g><path d="m373.336 714.512c-1.629.771-3.37 1.448-5.231 2.045-7.98 2.525-18.054 3.684-28.446 3.693-7.264 0-14.658-.583-21.525-1.764-6.871-1.189-13.202-2.951-18.431-5.479-.884-.431-1.737-.885-2.558-1.364.389 2.029.984 4.158 1.809 6.347 1.532 4.073 3.789 8.313 6.574 12.387 5.561 8.157 13.274 15.612 21.184 20.081 5.273 2.996 10.577 4.642 15.319 4.632 2.642-.001 5.049-.435 7.306-1.239 2.257-.805 4.371-1.985 6.371-3.525 3.996-3.069 7.523-7.626 10.386-13.181 3.404-6.559 5.827-14.477 7.242-22.633z" fill="#c64a4c"/><path d="m303.647 704.874c2.732 1.326 6.153 2.503 9.987 3.45 7.674 1.902 16.993 2.891 26.025 2.887 6.356.001 12.581-.484 17.992-1.43 5.404-.934 10.006-2.372 12.975-4.012 1.994-1.083 3.172-2.227 3.634-3.031.274-.468.371-.811.4-1.22.01-.172.052-.333.081-.498.04-1.137.067-2.27.065-3.389 0-.831-.029-1.646-.051-2.464-2.269.212-5.246.382-9.001.382-7.57 0-18.257-.689-32.474-3.097-5.463-.927-10.222-1.343-14.308-1.343-5.099-.001-9.14.652-12.218 1.699-3.087 1.053-5.201 2.461-6.705 4.065-1.003 1.076-1.749 2.255-2.304 3.59-.025.06-.042.127-.066.188.026.029.057.049.082.078 1.135 1.341 3.148 2.825 5.886 4.145z" fill="#fff"/><path d="m383.85 689.396-.469-5.507-5.349 1.354c-.225.052-4.081.92-12.275.92-7 0-17.163-.636-30.906-2.966-5.89-.997-11.157-1.473-15.877-1.474-5.233.001-9.799.584-13.774 1.738-2.978.865-5.626 2.058-7.92 3.572-3.443 2.261-6.051 5.28-7.69 8.692-1.648 3.412-2.351 7.155-2.35 10.954.013 6.399 1.927 13.028 5.023 19.492 4.665 9.684 12.05 19.034 20.727 26.165 4.345 3.559 9.019 6.56 13.901 8.704 4.879 2.141 9.986 3.434 15.141 3.437 3.69.001 7.203-.624 10.458-1.785 5.707-2.033 10.559-5.675 14.554-10.222 5.998-6.841 10.205-15.728 13.003-25.291 2.788-9.568 4.143-19.84 4.146-29.548 0-2.801-.115-5.556-.343-8.235zm-28.141 60.93c-1.999 1.54-4.114 2.72-6.371 3.525-2.257.803-4.664 1.237-7.306 1.239-4.742.01-10.046-1.636-15.319-4.632-7.91-4.47-15.622-11.925-21.184-20.081-2.785-4.074-5.042-8.314-6.574-12.387-.826-2.189-1.42-4.318-1.809-6.347.821.479 1.674.933 2.558 1.364 5.229 2.528 11.56 4.29 18.431 5.479 6.866 1.181 14.261 1.764 21.525 1.764 10.392-.009 20.466-1.168 28.446-3.693 1.861-.597 3.602-1.274 5.231-2.045-1.415 8.156-3.838 16.073-7.242 22.633-2.864 5.556-6.39 10.112-10.386 13.181zm-58.027-49.675c.024-.061.041-.128.066-.188.555-1.334 1.301-2.514 2.304-3.59 1.504-1.604 3.618-3.012 6.705-4.065 3.078-1.048 7.118-1.701 12.218-1.699 4.086 0 8.845.416 14.308 1.343 14.217 2.408 24.904 3.097 32.474 3.097 3.754 0 6.731-.17 9.001-.382.022.818.051 1.632.051 2.464.002 1.119-.025 2.252-.065 3.389-.029.166-.07.327-.081.498-.029.409-.127.752-.4 1.22-.462.803-1.641 1.948-3.634 3.031-2.969 1.641-7.571 3.078-12.975 4.012-5.411.946-11.636 1.432-17.992 1.43-9.032.004-18.351-.984-26.025-2.887-3.834-.948-7.255-2.125-9.987-3.45-2.738-1.32-4.751-2.804-5.884-4.145-.028-.029-.059-.049-.084-.078z" fill="#604a38"/></g><path d="m298.686 651.165c.572 4.412-8.619 9.243-20.53 10.79-11.911 1.546-22.032-.775-22.605-5.188-.574-4.411 8.619-9.241 20.53-10.789 11.91-1.546 22.031.776 22.605 5.187z" fill="#c64a4c"/><path d="m418.262 639.67c.572 4.412-8.619 9.243-20.53 10.79-11.911 1.546-22.032-.775-22.605-5.188-.572-4.411 8.619-9.241 20.53-10.789 11.911-1.546 22.031.776 22.605 5.187z" fill="#c64a4c"/><g fill="#604a38"><path d="m405.597 616.165c0 1.352-2.008 2.447-4.484 2.447-2.478 0-4.486-1.095-4.486-2.447 0-1.351 2.008-2.445 4.486-2.445 2.475-.001 4.484 1.094 4.484 2.445z"/><path d="m400.5 622.281c0 1.351-1.231 2.447-2.753 2.447-1.52 0-2.751-1.096-2.751-2.447s1.231-2.447 2.751-2.447c1.522 0 2.753 1.096 2.753 2.447z"/><path d="m255.894 592.867c1.604-7.496 4.796-12.618 8.532-15.906 3.746-3.282 8.094-4.789 12.366-4.796 4.165.003 8.238 1.451 11.539 4.267 3.294 2.823 5.878 7.011 6.917 12.834.434 2.459 2.778 4.099 5.236 3.665s4.099-2.778 3.665-5.236c-1.348-7.696-4.998-13.926-9.95-18.139-4.946-4.223-11.133-6.432-17.407-6.43-6.434-.006-12.978 2.333-18.332 7.044-5.364 4.705-9.478 11.725-11.408 20.814-.519 2.441 1.037 4.842 3.48 5.363 2.44.519 4.841-1.038 5.362-3.48z"/></g></g></g></svg>