<svg height="512" viewBox="0 0 128 128" width="512" xmlns="http://www.w3.org/2000/svg"><g fill-rule="evenodd"><path d="m123.612 22.62a15.343 15.343 0 0 0 -28.234-4.48 68.477 68.477 0 0 0 -29.761-11.2 43.088 43.088 0 0 0 -5.988-.29 46.071 46.071 0 0 0 -10.813 1.51 56.081 56.081 0 0 0 -23.981 13.81 12.243 12.243 0 0 0 -11.179-3.2 12.371 12.371 0 0 0 -9.342 14.84 12.23 12.23 0 0 0 6.376 8.06 55 55 0 0 0 -5.281 24.69c.542 15.89 8.591 29.749 20.327 39.572a9.4 9.4 0 1 0 16.008 9.839 65.69 65.69 0 0 0 23.228 5.534c31.712 1.442 58.119-25.654 57.38-57.285a52.534 52.534 0 0 0 -6.724-24.27 15.423 15.423 0 0 0 7.984-17.13z" fill="#fff"/><path d="m32.374 105.745a5.492 5.492 0 1 0 6.572 4.139 5.517 5.517 0 0 0 -6.572-4.139z" fill="#f2775f"/><path d="m65.154 10.9c-29.19-3.42-56.766 25.96-55.763 55.33.957 28.046 27.3 49.8 55.763 51.094 29.359 1.335 53.9-23.833 53.213-53.214-.667-28.5-26.191-50.05-53.213-53.21z" fill="#fbc086"/><path d="m86.562 72.88c-20.541-9.31-26.961 7.04-18.4 10.17s26.798-6.36 18.4-10.17z" fill="#fbd5ae"/><path d="m32.857 88.664c6.118 5.746-1.792 12.42 2.992 16.757 6.459 5.855 11.813-10.3 5.3-18.779s-14.409-3.722-8.292 2.022z" fill="#f1835d"/><path d="m24.341 91.417c-2.469-.639-5.228-1-7.779-1.919.28.454.564.905.859 1.35 2.312.684 4.664 1.015 6.672 1.534 2.171.561 3.908 1.331 4.931 2.946s1.395 4.191.551 8.5c-.009.046-.005.1-.014.143.307.242.614.484.926.721.025-.221.023-.46.065-.671.868-4.438.534-7.3-.685-9.227s-3.267-2.794-5.526-3.377z" fill="#f1835d"/><path d="m85.755 90.356c-2.441-1.861-4.226-2.716-5.643-2.668a2.313 2.313 0 0 0 -1.738.823 3.711 3.711 0 0 0 -.725 1.939c-.382 3.095 1.115 8.235 3.526 13.79a81.366 81.366 0 0 0 4.88 9.418c.31-.128.613-.271.92-.405a51.437 51.437 0 0 0 12.316-7.594v-.01l.519-.442c-2.956-5.013-7.859-10.126-14.055-14.851z" fill="#f1835d"/><path d="m75.888 66.4c-.45-.01-.894-.01-1.333.02a16.233 16.233 0 0 0 -6.486 1.67c-7.8 3.88-11.571 13.89-5.464 23.883 5.133 8.4 12.48 16.73 17.994 23.567.345-.1.687-.2 1.029-.306-5.568-6.934-13.028-15.367-18.173-23.78-5.855-9.584-2.249-18.834 5.058-22.474a15.369 15.369 0 0 1 6.108-1.58c6.648-.35 14.658 3.3 21.679 13.47a93.412 93.412 0 0 1 9.936 17.815c.239-.29.472-.585.706-.88a95.452 95.452 0 0 0 -9.823-17.505c-6.713-9.72-14.493-13.73-21.231-13.9z" fill="#f1835d"/><path d="m36.207 79.3c-11.341-5.82-18.557-8.67-22.965-11.96a15.285 15.285 0 0 1 -3.855-4.01c-.015.52-.005 1.05 0 1.58a15.973 15.973 0 0 0 3.261 3.22c4.6 3.44 11.8 6.26 23.106 12.06 5.583 2.86 8.859 6.4 10.63 10.221a21.283 21.283 0 0 1 1.5 11.942 42.532 42.532 0 0 1 -3.024 10.5c.31.125.623.239.934.36a43.452 43.452 0 0 0 3.077-10.724 22.292 22.292 0 0 0 -1.582-12.5c-1.872-4.03-5.342-7.749-11.082-10.689z" fill="#f1835d"/><path d="m20.115 56.5a1.686 1.686 0 0 0 -.388-.01 1.536 1.536 0 0 0 -.978.47 2.283 2.283 0 0 0 -.569 1.34 7.3 7.3 0 0 0 .724 3.74 10.25 10.25 0 0 0 8.185 6.16 9.6 9.6 0 0 1 7.065 4.39 9.561 9.561 0 0 0 1.716 2.12 1.325 1.325 0 0 0 1.16.23 2.279 2.279 0 0 0 1.061-.89 11.716 11.716 0 0 0 2.38-5.2 6.681 6.681 0 0 0 -1.392-5.18c-2.502-3.23-8.244-5.77-18.964-7.17z" fill="#fbd5ae"/><g fill="#f1835d"><path d="m44.481 63.2c-6.437-6.16-15.6-10.85-27.871-19.93a21.134 21.134 0 0 1 -1.7-1.45c-.15.31-.294.62-.439.93.5.45.993.9 1.553 1.32 12.33 9.13 21.5 13.85 27.775 19.85s9.751 13.26 10.814 27.791c.8 10.959 2.387 19.118 5.015 25.1.394.055.791.1 1.187.144-2.7-5.859-4.383-14.052-5.207-25.317-1.073-14.668-4.69-22.288-11.127-28.438z"/><path d="m89.275 54.37a23.609 23.609 0 0 0 -6.555-2.7c-6.267-1.81-9.46-2.89-11.678-4.38s-3.555-3.47-6.114-7.19a.5.5 0 0 0 -.42-.22.478.478 0 0 0 -.412.24 10.574 10.574 0 0 0 -.189 11.09c2.1 3.56 6.487 6.41 13.438 7.16a44.949 44.949 0 0 0 8.443.24c2.154-.19 3.617-.55 4.392-1.33a1.454 1.454 0 0 0 .348-1.51 3.2 3.2 0 0 0 -1.253-1.4z"/><path d="m91.92 63.19c-15.03-.44-33.193-3.38-46.561-9.95-6.684-3.28-12.159-7.47-15.482-12.67a22.221 22.221 0 0 1 -3.331-14.88c-.378.37-.751.75-1.119 1.13a23.156 23.156 0 0 0 3.611 14.29c3.458 5.41 9.09 9.69 15.881 13.03 13.582 6.67 31.836 9.6 46.972 10.04 7.429.22 12.475 2.85 16.036 6.49a30.687 30.687 0 0 1 6.948 12.64c.04.13.065.24.1.37.191-.5.382-1 .557-1.51a30.786 30.786 0 0 0 -6.9-12.2c-3.718-3.8-9.059-6.56-16.712-6.78z"/><path d="m50.856 22.61a3.8 3.8 0 0 0 -1.7-.92 2.24 2.24 0 0 0 -.81-.05 1.962 1.962 0 0 0 -.747.21 4.087 4.087 0 0 0 -1.918 2.66 9.236 9.236 0 0 0 1.543 8.16 4.963 4.963 0 0 0 7.417.35 4.406 4.406 0 0 0 .738-4.3c-.526-1.77-1.916-3.82-4.523-6.11z"/><path d="m92.92 31.84a9.159 9.159 0 0 1 -.442-7.8 17.427 17.427 0 0 1 1.122-2.49c-.275-.19-.558-.36-.837-.55a18.843 18.843 0 0 0 -1.226 2.71 10.266 10.266 0 0 0 .51 8.61c2.728 4.97 9.932 8.88 21.72 12.33-.191-.41-.392-.81-.593-1.22-11.158-3.36-17.841-7.19-20.254-11.59z"/><path d="m80.2 40.21c-2.955-4.31-3.849-8.81-4.217-13.21s-.192-8.7-1.072-12.56a15.782 15.782 0 0 0 -.506-1.72c-.383-.11-.767-.21-1.152-.31a16.461 16.461 0 0 1 .687 2.25c.837 3.68.676 7.94 1.051 12.42s1.3 9.19 4.389 13.7 8.312 8.77 17.183 12.47c10.663 4.45 17.532 8.78 21.8 12.95.008-.46.011-.92.006-1.38-4.428-4.09-11.252-8.24-21.42-12.48-8.749-3.65-13.79-7.81-16.749-12.13z"/><path d="m55.549 10.94c-.366.05-.735.08-1.1.13 3.844 6.11 5.853 11.35 6.513 15.63.831 5.39-.41 9.26-2.6 11.65a9.111 9.111 0 0 1 -8.56 2.7 12.832 12.832 0 0 1 -8.581-6.64c-2.782-4.92-4.385-10.9-5.591-16.04-.3.2-.6.39-.9.59 1.2 5.07 2.817 10.99 5.618 15.94a13.867 13.867 0 0 0 9.26 7.13 10.117 10.117 0 0 0 9.483-3.01c2.432-2.64 3.719-6.87 2.854-12.48-.67-4.35-2.657-9.57-6.396-15.6z"/></g><path d="m67.656 17.7c-3.978 5.43-4.751 11.96 1.069 14.96s2.816-20.26-1.069-14.96z" fill="#fbd5ae"/><path d="m106.935 14.82a10.706 10.706 0 1 0 12.811 8.07 10.758 10.758 0 0 0 -12.811-8.07z" fill="#f2775f"/><path d="m36.539 90.751c3.583 3.365-1.05 7.274 1.752 9.814 3.783 3.429 6.919-6.033 3.1-11s-8.435-2.179-4.852 1.186z" fill="#fbc086"/><path d="m83.42 73.29c-11.413-5.17-14.98 3.91-10.226 5.65s14.892-3.53 10.226-5.65z" fill="#fbc086"/><path d="m82.3 92.91a10.613 10.613 0 0 0 -3.283-1.9c-.2 1.761.982 6.854 3.294 12.183.954 2.2 2.048 4.66 4.517 5.136 3.169.611 5.177-.992 5.069-4.206-.158-4.792-4.527-7.349-9.597-11.213z" fill="#fbc086"/><path d="m81.743 52.81c-5.743-.62-12.778-1.94-15.443-7.31-1.165-2.34-1.527 2.73-.207 4.96s4.073 4.02 8.439 4.49a28.487 28.487 0 0 0 5.3.16 4.514 4.514 0 0 0 2.758-.84c.643-.67-.006-1.37-.847-1.46z" fill="#fbc086"/><path d="m28.819 23.56a59.793 59.793 0 0 0 -15.351 21.42 14.385 14.385 0 0 0 15.351-21.42z" fill="#f1835d"/><path d="m14.54 22.65a8.419 8.419 0 1 0 10.07 6.35 8.461 8.461 0 0 0 -10.07-6.35z" fill="#fbc086"/></g></svg>