<svg height="512" viewBox="0 0 128 128" width="512" xmlns="http://www.w3.org/2000/svg"><g fill-rule="evenodd"><g fill="#fff"><path d="m34.272 121.341.006-.033c-.178.035-.278.059-.006.033z"/><path d="m34.486 121.269a1.248 1.248 0 0 0 .251-.044z"/><path d="m34.278 121.308.208-.039a1.4 1.4 0 0 0 -.208.033z"/><path d="m80.182 116.446.052-.049c-.009.008-.021.016-.029.024s-.015.017-.023.025z"/><path d="m115.071 50.093c-1.647.156-3.232 1.531-4.849 4.084a5.862 5.862 0 0 1 2.413-6.451c2.673-1.628 4.534-3.517 4.533-6.235a7.55 7.55 0 0 0 -7.575-7.572 7.437 7.437 0 0 0 -3.409.9c5.566-7.608 10.919-14.935 12.551-18.3.491-1.012 1.764-3.4-.041-5.759-1.371-1.788-3.858-2.167-5.29-2.153-5.665.057-17.058 4.312-27.926 10.325-2.095 1.159-3.823 2.3-5.66 3.461 2.228-4.96-1.411-7.668-9.938-4.323-7.136 2.8-20.468 11.771-32.31 22.272a7.78 7.78 0 0 0 -7.47-5.714 7.886 7.886 0 0 0 -7.909 7.909 7.8 7.8 0 0 0 5.449 7.42 74.316 74.316 0 0 0 -9.715 12.6 43.123 43.123 0 0 0 -9.817 20.913 31.835 31.835 0 0 0 6.325 24.215 12.427 12.427 0 0 0 2.4 6.83 21.167 21.167 0 0 0 6 4.752 15.267 15.267 0 0 0 10.769 2.148 44.66 44.66 0 0 0 14.672 2.585 42.136 42.136 0 0 0 16.269-3.333 11.9 11.9 0 0 0 5.761 1.1c4.8-.5 7.478-3.072 9.9-5.35 7.943-7.221 14.531-19.312 18.969-30.267a4.541 4.541 0 0 0 1.387 3.011c5.784 5.454 13.014-7.191 17.246-20.505 2.516-7.908 4.962-19.294-2.735-18.563z"/><path d="m64.614 4c-2.977.067-8.151 1.954-13.507 4.785-12.351 6.53-23.507 15.896-17.112 20.615 2.223 1.64 4.921.567 6.33-.132 20.235-10.041 29.475-15.968 29.558-20.619.071-3.815-3.608-4.685-5.269-4.649z"/></g><path d="m33.86 117.379h.087c-.12-.029-.286-.079-.5-.154.139.049.275.102.413.154z" fill="#f0567a"/><path d="m33.448 117.223c-.172-.063-.344-.125-.514-.194.202.082.366.143.514.194z" fill="#f0567a"/><path d="m18.16 105.833c.024-.18-.066-.383-.027-.557a1.373 1.373 0 0 0 .027.557z" fill="#f0567a"/><path d="m33.448 117.223c-.172-.063-.344-.125-.514-.194.202.082.366.143.514.194z" fill="#f0567a"/><path d="m115.548 13.172c-1.71-2.231-14.987 1.949-28.15 9.231s-21.369 15.616-19.033 9.513 14.075-14.516 2.963-10.154-40.628 26.257-50.243 43.176a39.206 39.206 0 0 0 -9.059 19.147 28.118 28.118 0 0 0 6.152 22.106 8.624 8.624 0 0 0 1.7 5.786 17.342 17.342 0 0 0 4.953 3.862c2.745 1.6 5.765 2.526 8.763 1.594a1.353 1.353 0 0 1 .263-.054c-.138-.052-.274-.105-.412-.156s-.312-.112-.514-.194c.17.069.342.131.514.194.213.075.379.125.5.154.306-.008.406.1 0 0-.03 0-.054 0-.087 0a40.862 40.862 0 0 0 14.413 2.655 38.392 38.392 0 0 0 16.444-3.714c.139.106.153.209.309.313a7.921 7.921 0 0 0 4.862 1.192c3.339-.351 5.235-2.065 7.63-4.317 9.712-8.806 16.431-26.106 20.384-38.622 3.01-9.516 9.011-32.557 1.147-24.352s-14.385 16.488-13.131 8.59 31.341-43.722 29.632-45.95zm-97.415 92.1c-.039.174.051.377.027.557a1.373 1.373 0 0 1 -.027-.553z" fill="#f0567a"/><path d="m77.462 69.989a2.781 2.781 0 0 1 -2.484-1.095 27.958 27.958 0 0 0 -23.478-13.243 29.041 29.041 0 0 0 -3.17.147 33.538 33.538 0 0 0 -10.383 2.8 1.878 1.878 0 0 1 -2.27-.765c-.977-1.3-2.6-1.391-6.557 1.069-3.523 2.191-3.5 3.994-2.714 5.61a2.454 2.454 0 0 1 -.3 2.639 34.341 34.341 0 0 0 -8.831 17.76 22.727 22.727 0 0 0 5.682 18.88 3.081 3.081 0 0 1 .352 2.684c-.3 1.312.643 2.708 4.2 4.778 2.085 1.214 3.493 1.43 4.515 1.112a4.737 4.737 0 0 1 2.908-.254 35.709 35.709 0 0 0 13.346 2.616 32.934 32.934 0 0 0 16.3-4.219 1.749 1.749 0 0 1 2.313.558c1.353 1.944 2.846 2.479 7-1.425 3.238-3.044 2.577-4.851 1.313-6.337a2.261 2.261 0 0 1 -.207-2.6 29.039 29.039 0 0 0 4.559-15.8q0-1.085-.08-2.148a2.143 2.143 0 0 1 1.463-2.028c1.474-.621 1.96-2.181.615-6.593-1.073-3.482-2.554-4.247-4.092-4.146z" fill="#fbe986"/><path d="m55.3 93.381a8.155 8.155 0 1 0 0 16.309c3.539-.051 3.242-3.909 8.154-8.155 3.405-2.944-3.654-8.154-8.154-8.154z" fill="#f6a43d"/><path d="m26.247 86.227a6.156 6.156 0 0 0 -3.534 8.006c1.006 2.49 3.655 1.222 8.006 3.534 3.017 1.6 4.769-4.819 3.534-8.006a6.187 6.187 0 0 0 -8.006-3.534z" fill="#f6a43d"/><path d="m28.079 89.68a2.894 2.894 0 0 0 -1.662 3.764c.473 1.171 1.718.575 3.764 1.662 1.418.754 2.242-2.266 1.661-3.764a2.909 2.909 0 0 0 -3.763-1.662z" fill="#fbe986"/><path d="m29.589 108.15c-2.252-.712-3.281-1.706-4.052-1.461-.981.311-.71 1.513.565 2.647s3.089 1.789 4.052 1.461.997-2.154-.565-2.647z" fill="#f6a43d"/><path d="m55.26 65.108a6.157 6.157 0 0 0 -3.535 8.006c1.007 2.49 2.666 2.96 7.017 5.272 3.018 1.6 5.759-6.557 4.524-9.744a6.188 6.188 0 0 0 -8.006-3.534z" fill="#f6a43d"/><path d="m59.1 67.319c-1.382.535-3.09 3.377-2.535 4.75.436 1.08 1.584.53 3.47 1.532 1.308.7 2.405-2.318 1.87-3.7s-1.423-3.117-2.805-2.582z" fill="#fbe986"/><path d="m32.3 67.21a3.966 3.966 0 1 0 0 7.931c1.72-.025 1.576-1.9 3.965-3.966 1.659-1.432-1.773-3.965-3.965-3.965z" fill="#f6a43d"/><path d="m55.645 100.4a3.28 3.28 0 0 0 0 6.559c1.423-.02 1.3-1.572 3.279-3.279 1.376-1.187-1.468-3.28-3.279-3.28z" fill="#fbe986"/><path d="m77.509 71.879c-.345.731.5 1.884.905 4.211.28 1.615 2.094 1.825 2.548.915s.049-2.8-.905-4.211-2.108-1.845-2.548-.915z" fill="#f6a43d"/><path d="m43.593 104.369c1.124-4.27.837-8.407-.435-10.852a3.351 3.351 0 0 0 -2.769-2.093c-1.179-.022-2.392.759-3.61 2.346-2.495 3.252-3.7 9.878-4.379 15.757-.118 1.016-.2 1.916-.28 2.806.316-.1.666-.188 1.026-.26.076-.806.139-1.58.238-2.432.677-5.824 2-12.427 4.182-15.268 1.119-1.458 2.092-1.972 2.808-1.959s1.367.52 1.908 1.559c1.081 2.079 1.427 6.074.355 10.145a10.75 10.75 0 0 0 3.3 10.519q.8.054 1.6.07c-3.345-2.696-4.949-6.52-3.944-10.338z" fill="#f6a43d"/><path d="m26.1 67.15c-.311.337-.6.692-.895 1.04.086 2.5.249 4.853.224 6.818a11.047 11.047 0 0 1 -.587 3.933 2.7 2.7 0 0 1 -2.042 1.774 15.133 15.133 0 0 0 -5.141 2.219c-.109.487-.208.976-.293 1.467a13.991 13.991 0 0 1 5.655-2.719 3.819 3.819 0 0 0 2.738-2.356 11.675 11.675 0 0 0 .665-4.306c.031-2.33-.194-5.082-.257-7.951-.025.031-.043.056-.067.081z" fill="#f6a43d"/><path d="m73.354 80.187a12.744 12.744 0 0 1 -1.361-7.707 53.361 53.361 0 0 0 1.021-6.335c-.307-.381-.625-.75-.949-1.113a43.177 43.177 0 0 1 -1.04 7.251 13.61 13.61 0 0 0 1.436 8.332 19.162 19.162 0 0 0 5.721 7.075 13.483 13.483 0 0 0 1.144.746c.044-.362.087-.721.116-1.088-.227-.145-.452-.293-.675-.456a18.278 18.278 0 0 1 -5.413-6.705z" fill="#f6a43d"/><path d="m71.234 86.446c-4.677-2.365-10.334-2.791-17.978-3.118a11.422 11.422 0 0 1 -8.732-4.9 18.709 18.709 0 0 1 -3.517-10.249 14.572 14.572 0 0 1 2.964-9.924 10.818 10.818 0 0 1 2.534-2.213c-.728.115-1.451.251-2.164.414a11.76 11.76 0 0 0 -1.131 1.169 15.518 15.518 0 0 0 -3.191 10.6 19.634 19.634 0 0 0 3.713 10.8 12.456 12.456 0 0 0 9.482 5.3c7.627.326 13.143.77 17.573 3.011a19.537 19.537 0 0 1 7.333 6.7c.125-.388.244-.779.353-1.175a20.241 20.241 0 0 0 -7.239-6.415z" fill="#f6a43d"/><path d="m76.6 34.838a3.753 3.753 0 0 0 0 7.506 3.753 3.753 0 0 0 0-7.506z" fill="#f4f5f7"/><path d="m47.292 46.005a2.857 2.857 0 1 0 2.856 2.857 2.87 2.87 0 0 0 -2.856-2.857z" fill="#f4f5f7"/><path d="m83.838 87.472a2.857 2.857 0 1 0 2.862 2.857 2.87 2.87 0 0 0 -2.862-2.857z" fill="#f4f5f7"/><path d="m78.587 53.666a3.945 3.945 0 1 0 3.945 3.945 3.963 3.963 0 0 0 -3.945-3.945z" fill="#f37a81"/><path d="m30.1 38.6a3.945 3.945 0 1 0 3.945 3.944 3.963 3.963 0 0 0 -3.945-3.944z" fill="#f37a81"/><path d="m109.592 37.885a3.61 3.61 0 1 0 3.608 3.615 3.627 3.627 0 0 0 -3.608-3.615z" fill="#f0567a"/><path d="m52.962 12.293c-15.154 8.01-20.276 16.338-14.4 13.422 38.454-19.081 29.554-21.431 14.4-13.422z" fill="#f37a81"/><path d="m103.374 84.013c-1.827 6.3 5.46-.217 10.653-16.552s1.299-24.677-10.653 16.552z" fill="#f37a81"/><path d="m96.914 27.816a3.945 3.945 0 1 0 3.945 3.945 3.964 3.964 0 0 0 -3.945-3.945z" fill="#f37a81"/></g></svg>