<svg id="Layer_1" enable-background="new 0 0 512 512" height="512" viewBox="0 0 512 512" width="512" xmlns="http://www.w3.org/2000/svg"><g><g fill="#93c01f"><path d="m434.482 122.002c-.679-13.477-13.937-23.762-13.937-23.762s-12.159 11.565-11.481 25.041 13.937 23.762 13.937 23.762 12.16-11.565 11.481-25.041z"/><path d="m441.275 113.189c12.808 4.243 27.194-4.398 27.194-4.398s-6.383-15.518-19.193-19.761c-12.808-4.243-27.194 4.398-27.194 4.398s6.383 15.518 19.193 19.761z"/></g><g fill="#93c01f"><path d="m244.998 37.513c10.422 6.512 25.01 1.962 25.01 1.962s-2.308-15.106-12.728-21.617c-10.421-6.511-25.01-1.962-25.01-1.962s2.308 15.106 12.728 21.617z"/><path d="m247.165 47.628c-9.84 7.359-10.876 22.606-10.876 22.606s14.917 3.313 24.758-4.048c9.84-7.359 10.876-22.606 10.876-22.606s-14.917-3.312-24.758 4.048z"/></g><path d="m201.369 336.32c-8.878 8.483-67.486 67.945-16.814 113.985 0 0 2.26 31.814 14.226 44.713 11.965 12.9 25.762-24.77 21.72-44.859-3.311-16.458-19.48-20.586-9.128-43.744 1.459-3.262 16.462-20.708 30.819-37.026-17.526-6.478-31.862-18.012-40.823-33.069z" fill="#d3623b"/><g><path d="m323.975 147.517c-.122.328 4.58 74.913-52.652 111.154-9.994-11.514-7.102-22.989-17.501-34.145 34.121-10.974 54.442-76.917 55.35-81.477-1.103-4.743-3.566-11.605-3.55-11.6-.401-1.619-1.159-4.265-1.244-7.252-2.356-7.682-7.21-12.176-7.21-12.176s4.415-17.115 18.909 5.953c5.362 3.03 25.448 12.87 25.448 12.87s-.189 14.348-17.55 16.673z" fill="#d3623b"/></g><g fill="#d3623b"><path d="m57.377 272.183c4.003-.099 7.415.318 9.867.771 6.69 6.799 18.704 7.004 22.572 2.973 44.936 42.282 86.606 31.313 112.652 9.73-1.879-14.762-.473-29.925 2.262-42.703-1.164.61-2.322 1.175-3.476 1.711-.218.282-.438.559-.652.85-33.509 45.542-100.438 13.452-101.351 14.027-.017-1.441.039-3.819-.542-6.335.296-6.937 3.375-11.753 3.375-11.753s.191-9.421-6.753-8.064c-3.727.729-6.122 6.107-7.542 10.933-2.23.575-2.082 1.737-2.082 1.737s-.233-.311-.637-.773c-3.595-4.393-16.202-19.952-23.087-16.843-7.385 3.334-3.336 6.396 2.416 12.244 1.736 1.764 3.17 3.497 4.333 5.062-.539.661-1.065 1.371-1.573 2.122-7.249-3.529-17.447-7.493-21.216-3.541-5.593 5.864-.69 7.181 6.839 10.44 3.965 1.718 7.05 3.689 9.094 5.174-6.8.306-13.718 1.612-15.088 5.633-2.614 7.669 2.388 6.806 10.589 6.605z"/><path d="m262.018 362.468c1.276 2.868 2.122 5.768 2.531 8.739.605 4.457.252 9.097-1.348 14.156-1.603 5.051-4.49 10.523-9.028 16.372-7.538 9.708-11.762 19.489-13.202 28.765-1.451 9.272-.086 17.971 3.193 25.317 4.188 9.385 11.378 16.606 19.785 20.672 4.207 2.029 8.742 3.266 13.38 3.505 4.63.24 9.373-.541 13.811-2.519 2.206-.982 4.331-2.254 6.32-3.812 2.877-2.252 3.384-6.411 1.132-9.288s-6.411-3.384-9.288-1.132v.001c-1.15.899-2.33 1.601-3.545 2.143-2.438 1.082-5.03 1.529-7.754 1.392-4.072-.201-8.439-1.788-12.327-4.619-3.888-2.823-7.26-6.851-9.427-11.724-2.261-5.099-3.258-11.1-2.206-17.901 1.061-6.797 4.203-14.461 10.582-22.69 3.546-4.57 6.375-9.126 8.508-13.672 3.202-6.813 4.826-13.631 4.919-20.245.102-6.613-1.33-12.973-3.949-18.84-1.645-3.695-3.753-7.198-6.23-10.521-4.088 1.152-8.493 2.691-13.199 4.699 3.176 3.641 5.647 7.393 7.342 11.202z"/><path d="m284.978 352.211c22.407 5.705 40.492-10.052 45.88-9.703 20.252 1.311 11.361 38.248 35.05 44.666 12.963 3.512 49.662-36.013 44.994-49.293s-38.977 2.016-38.977 2.016c-18.982-58.01-51.713-44.878-81.058-34.135s-28.296 40.744-5.889 46.449z"/><path d="m269.565 229.712c-4.555 1.336-9.528 2.406-14.96 3.148-24.508 3.35-54.769 6.03-58.35 6.245-7.736 10.531-15.238 23.783-19.58 38.017-3.543 11.615-4.982 23.881-2.717 35.854.879 4.648 1.918 9.137 3.271 13.419 3.905 12.36 10.446 22.982 23.473 30.63 20.007 11.745 40.999 14.912 59.113 11.172 7.239-1.495 14.016-4.094 20.089-7.691 17.273-10.232 34.352-26.9 34.506-50.846.08-12.38-5.599-55.14-44.845-79.948z"/></g><g><g><path d="m170.734 205.418c.733 14.247-26.488 27.227-41.831 28.017-15.342.79-28.374-10.119-29.108-24.366-.733-14.247 11.11-26.436 26.452-27.225s43.754 9.328 44.487 23.574z" fill="#d3623b"/><path d="m156.346 208.488c.458 8.891-16.53 16.992-26.105 17.484s-17.708-6.315-18.165-15.206c-.458-8.891 6.933-16.498 16.508-16.991s27.305 5.822 27.762 14.713z" fill="#f9c491"/></g><g><path d="m246.641 154.004c12.958 5.966 35.111-14.496 41.537-28.451s1.13-30.104-11.828-36.07-28.671.509-35.096 14.464-7.571 44.09 5.387 50.057z" fill="#d3623b"/><path d="m254.294 142.392c8.087 3.723 21.912-9.047 25.922-17.755s.705-18.787-7.382-22.51-17.893.318-21.902 9.026c-4.01 8.709-4.724 27.516 3.362 31.239z" fill="#f9c491"/></g><path d="m276.676 137.542c-2.346-.666-4.731-.927-7.089-.707 0 0-1.087-1.491-3.015-3.904-3.911-4.894-11.296-13.595-20.18-21.438-3.881-3.425-8.046-6.683-12.332-9.389-7.773-4.908-15.94-7.996-23.517-6.932-10.986 1.544-21.356 5.278-30.707 9.951 2.225-5.123 3.494-10.817 1.019-14.928-3.454-5.738-10.422 5.73-15.369 15.635-.28-2.767-1.15-5.266-3.032-6.884-5.354-4.607-7.904 14.667-8.745 23.046-11.853 9.434-18.991 17.658-18.991 17.658-9.963 9.649-10.715 24.33-8.227 38.133.788 4.369 1.899 8.649 3.147 12.655 4.219 13.545 9.987 23.944 9.987 23.944-1.223 2.218-2.037 4.534-2.488 6.897-.536 2.812-.976 5.796-.074 8.554 19.416 59.338 97.516 17.427 119.185 5.498 4.803-2.644 16.271-12.293 20.042-15.176.2-.153.442-.265.599-.459 37.164-45.991 22.135-75.81-.213-82.154z" fill="#d3623b"/><path d="m289.385 160.191c-6.568-22.445-25.418-15.532-25.418-15.532-9.154-20.741-42.701-49.03-60.829-32.074-11.485 10.743-2.319 21.695-11.296 26.541s-21.388-9.258-40.432 3.584c-26.447 17.834 2.734 70.817 10.248 70.478-4.142 4.169-6.87 10.592-5.886 19.13.19 1.648 2.832 1.369 3.444-1.417 1.883 11.233 15.667 17.921 15.695 13.445.001-.192-.007-.377-.01-.566 29.29 11.614 101.763-5.568 112.27-61.521.066.059.12.12.187.179 3.363 2.952 5.333-12.842-1.524-20.793-.001.002 4.016.138 3.551-1.454z" fill="#f9c491"/><path d="m250.123 139.536c-7.944-11.33-24.673-16.7-33.206-8.749-7.736 7.252-8.816 20.331-.047 33.453 20.304 30.314 55.019 6.206 33.253-24.704z" fill="#fce7de"/><g><path d="m246.216 145.66c-7.06-8.438-17.592-11.1-23.633-5.907-6.041 5.192-5.375 16.373 1.792 24.666 13.054 15.156 23.311 6.163 23.633 5.907 4.218-3.62 5.048-10.126 2.81-16.597-.969-2.768-2.517-5.602-4.602-8.069z" fill="#93c01f"/><path d="m243.163 149.044c-4.553-6.233-11.861-8.642-16.307-5.297s-4.55 11.202.08 17.396c8.479 11.248 16.117 5.491 16.307 5.297 3.116-2.372 4.061-6.905 2.745-11.526-.56-2.025-1.502-4.046-2.825-5.87z" fill="#863418"/><path d="m227.375 160.442c.083-.021.166-.041.25-.062 3.432-1.467 5.105-5.411 3.638-8.843-.186-.395-.372-.791-.641-1.165-1.677-2.498-4.874-3.649-7.786-2.576-.166.041-.25.062-.416.103-3.432 1.467-5.105 5.411-3.638 8.843.475 1.206 1.241 2.164 2.216 2.894 1.804 1.231 4.193 1.611 6.377.806z" fill="#fce7de"/></g><path d="m203.826 170.287c-7.944-11.33-24.673-16.7-33.206-8.749-7.736 7.252-8.816 20.331-.047 33.453 20.303 30.314 55.019 6.207 33.253-24.704z" fill="#fce7de"/><g><path d="m201.864 176.329c-7.06-8.438-17.592-11.1-23.633-5.907s-5.375 16.373 1.792 24.666c13.054 15.156 23.311 6.163 23.633 5.907 4.218-3.62 5.048-10.126 2.81-16.597-.97-2.768-2.517-5.602-4.602-8.069z" fill="#93c01f"/><path d="m199.002 179.162c-4.553-6.233-11.861-8.642-16.307-5.297s-4.55 11.202.08 17.396c8.479 11.248 16.117 5.491 16.307 5.297 3.116-2.372 4.061-6.905 2.745-11.526-.56-2.025-1.502-4.045-2.825-5.87z" fill="#863418"/><path d="m181.693 191.487c.083-.021.166-.041.25-.062 3.432-1.467 5.105-5.411 3.638-8.843-.186-.395-.372-.791-.641-1.165-1.677-2.498-4.874-3.649-7.786-2.576-.166.041-.25.062-.416.103-3.432 1.467-5.105 5.411-3.638 8.843.475 1.206 1.241 2.164 2.216 2.894 1.804 1.231 4.193 1.611 6.377.806z" fill="#fce7de"/></g><ellipse cx="235.497" cy="197.092" fill="#f9c491" rx="54.172" ry="25.174" transform="matrix(.837 -.547 .547 .837 -69.454 160.909)"/><path d="m154.259 166.419c.599 1.789 3.115 1.644 3.709-.147 1.837-5.945 6.498-15.277 17.589-15.337 1.925-.009 2.765-2.354 1.219-3.502-3.929-2.799-10.704-4.407-17.788 1.269-7.244 5.737-5.439 15.878-4.729 17.717z" fill="#863418"/><path d="m203.508 133.945c.369 1.85 2.883 2.023 3.698.321 2.57-5.666 8.369-14.338 19.379-13.001 1.911.233 3.039-1.987 1.65-3.321-3.545-3.272-10.064-5.719-17.806-.98-7.908 4.781-7.394 15.068-6.921 16.981z" fill="#863418"/><path d="m266.011 153.243c-.023-.091-.045-.183-.102-.217-.534-.788-2.415-.565-4.778.455-.479.215-1.004.442-1.518.714-1.027.545-2.078 1.192-3.197 1.953-4.34 3.01-7.107 6.503-6.256 7.793.897 1.279 5.153-.112 9.481-3.168 4.146-2.816 6.822-6.092 6.37-7.53z" fill="#e20613"/><path d="m195.614 203.213c-.023-.091-.045-.183-.102-.217-.534-.788-2.415-.565-4.778.455-.479.215-1.004.442-1.518.714-1.027.545-2.078 1.192-3.197 1.953-4.34 3.01-7.107 6.503-6.256 7.793.897 1.279 5.153-.112 9.481-3.168 4.146-2.816 6.822-6.092 6.37-7.53z" fill="#e20613"/><g><path d="m258.428 165.107c-1.465.665-1.838 2.208-1.664 2.648 5.604 14.226-2.733 23.836-10.746 25.64-8.013 1.803-12.581-9.686-12.581-9.686 3.78-3.596 5.449-8.234 4.85-11.642-.226-1.284-.778-2.386-1.655-3.195-2.243-2.07-6.64-2.179-13.332 1.714-.645.375-1.314.793-2.002 1.245-.978.642-1.988 1.342-3.053 2.148-18.388 13.911-.401 18.428 11.012 12.658.544.284 12.942 10.551.084 19.321-4.606 3.142-12.655 7.825-18.014 9.197-4.266 1.096-8.384 1.587-11.875 1.222-1.747-.18-3.333-.569-4.73-1.176-1.397-.609-2.608-1.427-3.65-2.514-.887-.926-2.357-.958-3.282-.071-.926.887-.958 2.357-.072 3.282 1.489 1.557 3.247 2.734 5.155 3.561 2.867 1.243 6.051 1.716 9.363 1.677 3.314-.041 6.771-.595 10.243-1.484 2.796-.717 5.6-1.657 8.34-2.732 5.307 7.501 18.294 15.372 31.126 4.8 12.832-10.573 6.325-20.483 1.862-26.714 5.707-4.245 12.717-13.089 7.452-28.403-.324-.947-1.366-2.161-2.831-1.496z" fill="#863418"/><path d="m243.937 210.58 1.709 1.188c-7.255-1.024-11.294 8.613-11.294 8.613 5.525 2.078 12.661 2.521 16.152-.412 3.121-2.622 2.925-8.408 2.553-10.658-3.663-2.719-9.12 1.269-9.12 1.269z" fill="#e31917"/></g></g><path d="m240.009 241.985c-26.346 3.761-41.762 28.966-39.741 56.837 2.762 38.1 34.287 57.069 60.253 51.239 59.586-13.379 41.392-116.914-20.512-108.076z" fill="#f9c491"/><g><path d="m280.12 31.49c-1.236 12.842-.895 29.47 5.069 46.357 5.94 16.878 17.669 33.951 38.567 47.045 8.796 5.526 17.235 8.784 25.245 10.145 12.944 2.221 24.612-.64 34.335-6.024 14.618-8.093 25.223-21.531 32.37-32.864 7.128-11.352 10.744-20.703 10.822-20.898.981-2.536-.281-5.388-2.817-6.368-2.536-.981-5.388.281-6.368 2.817l-.054.136c-.635 1.627-7.126 17.335-18.696 31.274-5.773 6.977-12.788 13.476-20.78 17.694-8.017 4.215-16.889 6.253-27.162 4.525-6.574-1.119-13.776-3.828-21.658-8.776-19.027-11.978-29.168-26.932-34.52-41.988-5.329-15.048-5.702-30.264-4.551-42.128.261-2.707-1.721-5.113-4.428-5.374-2.706-.262-5.113 1.72-5.374 4.427z" fill="#863418"/></g><path d="m339.419 126.975c-2.445 3.261-5.313 3.756-8.96 3.153-4.734-.782-6.102-4.009-4.353-10.368-2.508 3.626-5.459 4.186-9.252 3.558-5.586-.923-6.502-5.233-3.117-14.102.516-1.351-2.532-6.727-2.393-7.23 9.715-2.44 13.84 1.981 15.608 6.399 9.766-1.626 13.13 4.353 14.305 8.978 9.092-.93 8.832 8.981 8.892 9.168-.225.565-.454 1.069-.69 1.528-1.793 3.502-3.919 4.061-6.779 3.587-2.517-.415-3.576-1.889-3.261-4.671z" fill="#d3623b"/></g></svg>