<svg id="Capa_2" enable-background="new 0 0 453.543 453.543" viewBox="0 0 453.543 453.543" xmlns="http://www.w3.org/2000/svg"><g><path d="m256.768 279.04c-8.652 70.603-79.756 119.796-150.358 111.144-70.603-8.653-113.968-71.874-105.316-142.476 8.652-70.603 80.403-119.674 151.006-111.022 70.602 8.653 113.32 71.752 104.668 142.354z" fill="#ff9013"/><path d="m196.306 124.995s52.972 11.94 60.95-49.634c0 0-26.985 17.701-59.365 9.163-18.858-4.973-34.658 31.327-1.585 40.471z" fill="#04955d"/><path d="m184.883 148.944c.935-31.165-9.172-62.091-28.382-86.657-.784-1.003-3.969.196-3.058 1.361 18.963 24.249 29.036 54.871 28.112 85.648-.046 1.511 3.291.901 3.328-.352z" fill="#37342a"/><path d="m127.855 241.572c-.777 2.434-3.381 3.776-5.815 2.999-2.434-.778-3.776-3.381-2.999-5.815.778-2.434 3.381-3.776 5.815-2.999 2.434.778 3.777 3.382 2.999 5.815z" fill="#37342a"/><path d="m147.427 247.826c-.778 2.434-3.381 3.776-5.815 2.998s-3.776-3.381-2.999-5.815c.778-2.434 3.381-3.776 5.815-2.999 2.434.779 3.776 3.383 2.999 5.816z" fill="#37342a"/><path d="m136.182 263.198c3.452-3.823 3.192-9.678-.633-13.133-3.706-3.346-9.749-3.087-13.383.226-2.368 2.16-3.432 5.141-3.069 8.315.096.839 1.377.944 1.984.782.794-.213 1.425-.819 1.327-1.669-.232-2.033.414-4.111 1.832-5.595 1.089-1.139 2.5-1.754 3.927-1.846 3.519-.228 6.46 2.559 7.033 5.919.369 2.164-.374 4.29-1.824 5.896-.539.596-.234 1.451.464 1.733.816.328 1.776-.001 2.342-.628z" fill="#37342a"/><path d="m107.111 249.202c-2.94 12.116 6.038 22.716 17.228 26.024 5.461 1.614 11.457 1.535 16.603-1.075 4.812-2.441 8.183-6.845 10.393-11.667.253-.552-2.872-.298-3.27.57-1.89 4.125-4.643 8.147-8.682 10.414-4.972 2.79-11.457 1.237-16.332-1.078-8.899-4.227-15.096-13.765-12.671-23.757.182-.749-3.062-.284-3.269.569z" fill="#37342a"/><path d="m255.795 75.713c-7.451 11.68-18.146 21.23-30.834 26.892-14.491 6.466-30.82 7.519-46.136 3.576-.941-.242-3.863 1.194-2.066 1.656 31.124 8.011 64.791-5.037 82.092-32.156.755-1.182-2.525-.8-3.056.032z" fill="#37342a"/><path d="m90.819 337.37c1.687 2.773 1.608 6.476-.361 9.096-.888 1.182-2.23 2.128-3.516 2.496-1.314.376-2.811.315-4.258-.211-3.031-1.102-5.146-4.236-5.18-7.441-.033-3.132 1.727-6.249 4.739-7.363 1.252-.463 2.895-.478 4.419.038 1.759.595 3.165 1.838 4.157 3.385.731 1.14 3.916-.047 3.047-1.403-2.389-3.727-6.897-5.212-11.134-4.355-4.229.855-7.817 4.298-8.467 8.615-.621 4.117 1.585 8.296 5.328 10.119 4.086 1.99 9.088 1.178 12.455-1.837 3.576-3.203 4.296-8.471 1.818-12.543-.701-1.15-3.888.022-3.047 1.404z" fill="#37342a"/><path d="m72.583 356.602c.497.817.767 1.9.711 2.821-.031.502-.123 1.011-.292 1.486l-.081.189-.165.343-.189.333-.186.288-.139.167-.264.287-.287.271c.242-.215-.093.066-.122.087l-.337.227c-.359.247.291-.119-.102.058l-.363.166c-.183.072-.163.067.062-.015l-.249.077-.377.094.197-.035-.254.036-.382.032c-.416.036.328.035-.086-.002l-.379-.027c-.047-.005-.458-.076-.123-.009-.292-.058-.569-.148-.852-.237-.238-.075-.098-.034-.04-.009l-.343-.165c-.226-.119-.445-.253-.653-.401-.384-.273-.734-.633-1.067-1.091-.567-.78-.934-1.867-.949-2.777-.017-1.043.229-1.903.737-2.732l.212-.32c-.148.208.106-.126.113-.135l.551-.558c-.242.215.093-.066.123-.087l.337-.227c.359-.247-.291.119.102-.058l.485-.215c-.403.037-.06.022.065-.013l.377-.094-.197.035.254-.036.509-.037c-.409.015.014.009.085.014l.504.053c-.336-.047.072.02.119.031l.486.141c.013.004.401.153.159.051l.456.226c.261.144.514.308.747.494.127.101.345.314.527.521.208.236.391.488.56.752.168.262.648.37.921.393.416.036.929-.057 1.303-.241.572-.282 1.263-.86.827-1.539-3.432-5.353-12.698-3.193-13.635 3.022-.409 2.712 1.044 5.494 3.522 6.688 2.923 1.408 6.49.793 8.891-1.353 2.396-2.142 2.878-5.636 1.222-8.357-.16-.263-.656-.37-.921-.393-.416-.036-.929.057-1.303.241-.586.29-1.245.852-.827 1.539z" fill="#37342a"/><path d="m102.291 353.589c-3.129-1.07-6.154-1.56-9.401-.586-2.763.829-5.291 2.508-7.027 4.827-3.081 4.116-3.431 9.726-.812 14.16 2.619 4.435 7.946 6.842 13.014 6.141 5.239-.725 9.871-4.374 11.305-9.547 1.691-6.107-1.391-12.332-7.079-14.995-1.477-.692-3.811 1.446-1.88 2.35 4.026 1.885 6.457 6.216 6.024 10.629-.381 3.887-2.997 7.489-6.796 8.656-3.715 1.142-7.86-.128-10.382-3.077-2.695-3.15-3.389-7.609-1.665-11.397.929-2.041 2.53-3.739 4.539-4.744 1.219-.609 2.537-.927 3.898-.973 1.569-.053 2.919.405 4.382.905.791.271 1.815.056 2.342-.628.467-.605.309-1.458-.462-1.721z" fill="#37342a"/><path d="m54.867 358.261c-25.521-22.479-40.429-56.087-40.843-90.023-.409-33.434 14.166-65.517 38.591-88.185 13.506-12.534 29.712-22.011 47.414-27.2 2.041-.598 1.395-3.084-.665-2.48-32.161 9.427-59.568 32.452-75.162 62.037-16.302 30.927-17.573 67.772-4.927 100.225 7.108 18.24 18.365 34.694 33.068 47.644 1.211 1.067 4.017-.703 2.524-2.018z" fill="#37342a"/><path d="m204.972 169.895c27.159 23.062 42.881 57.659 41.92 93.34-.293 10.889-2.109 21.673-5.31 32.08-.332 1.079 2.974.632 3.304-.442 10.931-35.54 4.647-74.693-17.078-104.888-5.687-7.904-12.334-15.059-19.754-21.36-.851-.722-3.926.554-3.082 1.27z" fill="#fff"/><path d="m53.519 347.847c1.107 0 3.56-1.663 1.346-1.663-1.107 0-3.56 1.663-1.346 1.663z" fill="#37342a"/><path d="m59.124 336.33c1.34 0 3.481-2.023 1.249-2.023-1.339 0-3.481 2.023-1.249 2.023z" fill="#37342a"/><path d="m45.843 343.787c1.851 0 2.577-2.317.323-2.317-1.851.001-2.577 2.317-.323 2.317z" fill="#37342a"/><path d="m46.107 331.34c.736 0 3.758-1.401 2.135-1.401-.737 0-3.759 1.401-2.135 1.401z" fill="#37342a"/><path d="m53.599 338.788c1.493 0 3.416-2.261 1.186-2.261-1.493 0-3.416 2.261-1.186 2.261z" fill="#37342a"/><path d="m45.681 337.533c1.383 0 3.463-2.09 1.232-2.09-1.383 0-3.464 2.09-1.232 2.09z" fill="#37342a"/><path d="m35.44 331.957c1.357 0 3.474-2.05 1.242-2.05-1.357 0-3.473 2.05-1.242 2.05z" fill="#37342a"/><path d="m31.928 323.465c1.343 0 3.479-2.029 1.248-2.029-1.343.001-3.479 2.029-1.248 2.029z" fill="#37342a"/><path d="m28.646 311.232c1.031 0 3.582-1.541 1.379-1.541-1.031 0-3.582 1.541-1.379 1.541z" fill="#37342a"/><path d="m31.026 316.063c1.225 0 3.523-1.846 1.297-1.846-1.225 0-3.523 1.846-1.297 1.846z" fill="#37342a"/><path d="m42.982 320.046c2.018 0 2.428-2.792.195-2.792-2.018-.001-2.427 2.792-.195 2.792z" fill="#37342a"/><path d="m38.002 316.194c1.019 0 3.584-1.524 1.383-1.524-1.02.001-3.585 1.524-1.383 1.524z" fill="#37342a"/><path d="m41.572 305.309c1.311 0 3.492-1.979 1.261-1.979-1.311.001-3.492 1.979-1.261 1.979z" fill="#37342a"/><path d="m53.491 311.788c1.972 0 2.471-2.654.233-2.654-1.972.001-2.471 2.654-.233 2.654z" fill="#37342a"/><path d="m56.97 322.786c1.891 0 2.543-2.425.294-2.425-1.891 0-2.543 2.425-.294 2.425z" fill="#37342a"/><path d="m67.545 324.133c2.014 0 2.432-2.779.199-2.779-2.014 0-2.432 2.779-.199 2.779z" fill="#37342a"/><path d="m63.478 315.154c1.184 0 3.537-1.782 1.314-1.782-1.184 0-3.537 1.782-1.314 1.782z" fill="#37342a"/><path d="m52.031 320.57c1.978 0 2.465-2.671.228-2.671-1.978 0-2.465 2.671-.228 2.671z" fill="#37342a"/><path d="m42.765 297.502c1.425 0 3.446-2.155 1.214-2.155-1.425 0-3.446 2.155-1.214 2.155z" fill="#37342a"/><path d="m39.187 284.085c1.092 0 3.565-1.639 1.352-1.639-1.092-.001-3.565 1.639-1.352 1.639z" fill="#37342a"/><path d="m30.187 302.462c1.41 0 3.452-2.131 1.221-2.131-1.41-.001-3.453 2.131-1.221 2.131z" fill="#37342a"/><path d="m24.057 302.504c1.464 0 3.429-2.216 1.198-2.216-1.463 0-3.429 2.216-1.198 2.216z" fill="#37342a"/><path d="m20.506 288.6c1.258 0 3.511-1.897 1.283-1.897-1.258 0-3.512 1.897-1.283 1.897z" fill="#37342a"/><path d="m19.547 274.862c1.916 0 2.521-2.494.275-2.494-1.915 0-2.52 2.494-.275 2.494z" fill="#37342a"/><path d="m26.624 264.828c1.148 0 3.548-1.727 1.329-1.727-1.149 0-3.548 1.727-1.329 1.727z" fill="#37342a"/><path d="m30.464 284.856c1.332 0 3.484-2.012 1.253-2.012-1.333 0-3.485 2.012-1.253 2.012z" fill="#37342a"/><path d="m24.845 273.818c2.003 0 2.442-2.746.208-2.746-2.003 0-2.442 2.746-.208 2.746z" fill="#37342a"/><path d="m18.431 258.085c1.126 0 3.555-1.693 1.338-1.693-1.126 0-3.555 1.693-1.338 1.693z" fill="#37342a"/><path d="m25.137 243.988c2.002 0 2.443-2.743.209-2.743-2.003 0-2.443 2.743-.209 2.743z" fill="#37342a"/><path d="m33.999 227.637c1.459 0 3.431-2.209 1.2-2.209-1.459 0-3.431 2.209-1.2 2.209z" fill="#37342a"/><path d="m42.046 241.163c1.866 0 2.564-2.357.312-2.357-1.865 0-2.564 2.357-.312 2.357z" fill="#37342a"/><path d="m40.585 256.098-.292.292-.272.354-.058.352.227.276.413.171.369.038c.293.003.582-.035.865-.113l.432-.147c.246-.099.471-.235.674-.405l.292-.293.272-.354.059-.352-.227-.276-.413-.171-.369-.038c-.294-.003-.582.035-.866.113l-.432.147c-.246.1-.471.235-.674.406z" fill="#37342a"/><path d="m31.315 251.421c1.206 0 3.529-1.817 1.304-1.817-1.206 0-3.529 1.817-1.304 1.817z" fill="#37342a"/><path d="m31.005 239.075c1.124 0 3.555-1.689 1.339-1.689-1.124-.001-3.555 1.689-1.339 1.689z" fill="#37342a"/><path d="m26.294 230.765c.972 0 3.596-1.446 1.404-1.446-.972 0-3.596 1.446-1.404 1.446z" fill="#37342a"/><path d="m26.975 223.52c1.429 0 3.444-2.162 1.212-2.162-1.429 0-3.444 2.162-1.212 2.162z" fill="#37342a"/><path d="m35.952 216.188c1.989 0 2.455-2.705.219-2.705-1.99 0-2.455 2.705-.219 2.705z" fill="#37342a"/><path d="m42.14 197.63c1.228 0 3.522-1.851 1.296-1.851-1.229 0-3.523 1.851-1.296 1.851z" fill="#37342a"/><path d="m53.86 189.822c1.342 0 3.48-2.027 1.248-2.027-1.341 0-3.479 2.027-1.248 2.027z" fill="#37342a"/><path d="m64.033 191.05c1.041 0 3.579-1.558 1.374-1.558-1.041 0-3.579 1.558-1.374 1.558z" fill="#37342a"/><path d="m66.222 177.499-.293-.585-.418-.374c-.165-.119-.351-.192-.557-.219-.222-.046-.441-.044-.658.007-.231.019-.449.086-.654.201l-.36.24c-.209.174-.364.386-.466.638l-.081.363c-.016.257.048.494.19.709l.292.585.418.374c.165.119.351.192.557.219.221.046.441.044.658-.007.231-.019.449-.086.654-.201l.36-.24c.209-.174.364-.386.466-.638l.082-.363c.015-.258-.048-.494-.19-.709z" fill="#37342a"/><path d="m73.646 171.92c1.912 0 2.524-2.484.278-2.484-1.912 0-2.524 2.484-.278 2.484z" fill="#37342a"/><path d="m82.819 171.135c1.38 0 3.465-2.085 1.233-2.085-1.38 0-3.465 2.085-1.233 2.085z" fill="#37342a"/><path d="m87.429 162.998c2.012 0 2.434-2.772.201-2.772-2.012 0-2.434 2.772-.201 2.772z" fill="#37342a"/><path d="m95.238 159.982c.657 0 1.877-.084 2.342-.627.315-.369.613-.791-.212-.791-.657 0-1.877.084-2.342.627-.316.369-.613.791.212.791z" fill="#37342a"/><path d="m104.616 164.796c1.834 0 2.59-2.273.335-2.273-1.835 0-2.591 2.273-.335 2.273z" fill="#37342a"/><path d="m95.019 186.013c-.195.39-.39.78-.585 1.17l-.089.456.145.424.395.289.539.155.425.003c.307-.027.601-.106.88-.236l.366-.215c.206-.145.37-.327.49-.548.195-.39.39-.78.585-1.17l.089-.456-.146-.424-.395-.289-.539-.155-.425-.003c-.307.027-.601.106-.88.236l-.366.215c-.206.144-.369.327-.489.548z" fill="#37342a"/><path d="m83.081 200.849c1.231 0 3.521-1.855 1.294-1.855-1.23 0-3.521 1.855-1.294 1.855z" fill="#37342a"/><path d="m76.616 189.326c1.079 0 3.568-1.619 1.358-1.619-1.08 0-3.569 1.619-1.358 1.619z" fill="#37342a"/><path d="m73.105 204.542c2.024 0 2.423-2.808.191-2.808-2.023 0-2.423 2.808-.191 2.808z" fill="#37342a"/><path d="m66.9 214.538c1.856 0 2.572-2.331.319-2.331-1.856.001-2.573 2.331-.319 2.331z" fill="#37342a"/><path d="m53.292 209.184c1.42 0 3.448-2.148 1.216-2.148-1.421-.001-3.448 2.148-1.216 2.148z" fill="#37342a"/><path d="m48.595 216.136c1.335 0 3.482-2.016 1.251-2.016-1.335 0-3.482 2.016-1.251 2.016z" fill="#37342a"/><path d="m57.597 239.294c1.032 0 3.581-1.544 1.378-1.544-1.032.001-3.581 1.544-1.378 1.544z" fill="#37342a"/><path d="m72.783 238.649c1.951 0 2.49-2.592.249-2.592-1.95 0-2.489 2.592-.249 2.592z" fill="#37342a"/><path d="m85.005 225.495c.66 0 1.876-.079 2.342-.628.314-.37.611-.807-.216-.807-.66 0-1.876.079-2.342.627-.315.372-.611.808.216.808z" fill="#37342a"/><path d="m79.587 213.771c1.303 0 3.495-1.966 1.265-1.966-1.303 0-3.496 1.966-1.265 1.966z" fill="#37342a"/><path d="m74.844 263.248c1 0 3.589-1.492 1.392-1.492-1 0-3.59 1.492-1.392 1.492z" fill="#37342a"/><path d="m78.088 272.708c1.128 0 3.554-1.696 1.337-1.696-1.128 0-3.554 1.696-1.337 1.696z" fill="#37342a"/><path d="m58.765 277.888c1.022 0 3.584-1.527 1.382-1.527-1.022-.001-3.584 1.527-1.382 1.527z" fill="#37342a"/><path d="m55.607 257.051c1.301 0 3.495-1.964 1.265-1.964-1.302-.001-3.496 1.964-1.265 1.964z" fill="#37342a"/><path d="m67.822 297.756c1.975 0 2.468-2.663.23-2.663-1.975 0-2.468 2.663-.23 2.663z" fill="#37342a"/><path d="m72.513 307.143c1.037 0 3.58-1.552 1.376-1.552-1.038 0-3.581 1.552-1.376 1.552z" fill="#37342a"/><path d="m56.807 300.447c1.451 0 3.435-2.196 1.203-2.196-1.451 0-3.434 2.196-1.203 2.196z" fill="#37342a"/><path d="m49.726 282.372c1.146 0 3.549-1.724 1.33-1.724-1.147 0-3.549 1.724-1.33 1.724z" fill="#37342a"/><path d="m38.878 269.986c1.014 0 3.586-1.515 1.386-1.515-1.015-.001-3.586 1.515-1.386 1.515z" fill="#37342a"/><path d="m31.514 276.239c1.853 0 2.575-2.324.321-2.324-1.853 0-2.574 2.324-.321 2.324z" fill="#37342a"/><path d="m25.683 295.895c1.9 0 2.535-2.451.287-2.451-1.901.001-2.535 2.451-.287 2.451z" fill="#37342a"/><path d="m19.299 282.03c1.083 0 3.567-1.625 1.356-1.625-1.083 0-3.567 1.625-1.356 1.625z" fill="#37342a"/><path d="m20.734 265.567c1.96 0 2.481-2.62.241-2.62-1.96 0-2.481 2.62-.241 2.62z" fill="#37342a"/><path d="m19.309 248.435c1.127 0 3.555-1.694 1.338-1.694-1.128 0-3.555 1.694-1.338 1.694z" fill="#37342a"/><path d="m22.891 234.67c1.477 0 3.423-2.237 1.192-2.237-1.478 0-3.423 2.237-1.192 2.237z" fill="#37342a"/><path d="m37.421 206.549c1.042 0 3.579-1.559 1.374-1.559-1.041 0-3.578 1.559-1.374 1.559z" fill="#37342a"/><path d="m50.839 200.004c1.92 0 2.517-2.505.272-2.505-1.919 0-2.517 2.505-.272 2.505z" fill="#37342a"/><path d="m49.981 188.376c1.969 0 2.474-2.645.235-2.645-1.969.001-2.474 2.645-.235 2.645z" fill="#37342a"/><path d="m57.302 182.257c1.016 0 3.585-1.518 1.385-1.518-1.017 0-3.586 1.518-1.385 1.518z" fill="#37342a"/><path d="m452.436 277.686c-8.652 70.603-79.756 119.796-150.358 111.144s-113.968-71.874-105.316-142.476 80.403-119.673 151.006-111.021c70.602 8.652 113.32 71.751 104.668 142.353z" fill="#ff9013"/><path d="m430.194 276.258c-5.93 46.841-44.159 83.727-89.562 93.465-22.73 4.875-47.037 2.875-68.323-6.648-19.637-8.786-36.017-23.95-46.605-42.646-10.819-19.104-15.505-41.294-14.348-63.155 1.235-23.353 9.906-45.372 25.109-63.175 30.277-35.454 82.008-50.956 126.335-35.274 20.05 7.093 37.4 20.552 49.361 38.126 12.361 18.162 18.626 40.062 18.964 61.949.091 5.802-.243 11.596-.931 17.358-.128 1.071 3.176.444 3.289-.501 2.767-23.17-.556-47.022-11.112-67.958-9.829-19.493-25.599-35.587-45.131-45.408-42.238-21.237-95.814-11.268-131.042 19.016-17.719 15.232-30.854 35.714-35.832 58.659-4.939 22.768-2.759 47.495 6.091 69.034 8.363 20.351 22.924 37.976 41.772 49.428 19.912 12.098 43.653 16.907 66.775 14.937 46.529-3.965 90.98-34.969 104.849-80.559 1.705-5.604 2.894-11.339 3.63-17.149.135-1.066-3.169-.446-3.289.501z" fill="#37342a"/><path d="m332.188 192.564c-.008-8.018.325-16.471-1.238-24.387-.408-2.068-.977-4.654-3.359-5.108-1.514-.289-2.999-.23-4.555.033-2.696.457-3.902 2.163-4.543 4.687-1.694 6.672-1.407 14.081-1.475 20.894-.121 12.065.129 24.155.961 36.194.507 7.333.851 15.139 2.953 22.235.341 1.15.766 2.903 1.972 3.463 1.238.575 3.167-.24 4.001-1.197 1.356-1.556 1.698-4.24 2.083-6.17.779-3.909 1.226-7.886 1.61-11.85 1.249-12.884 1.577-25.859 1.59-38.794.001-.63-3.311-.134-3.312.887-.011 10.48-.262 20.967-.984 31.424-.476 6.889-.939 13.967-2.575 20.7-.205.844-.423 1.693-.73 2.506-.123.326-.877 1.387-.867 1.675.017.484 1.918.007 1.849-.615-.02-.178-.398-.44-.463-.647-.239-.765-.63-1.49-.862-2.27-1.749-5.906-2.164-12.325-2.666-18.43-.811-9.868-1.144-19.778-1.243-29.677-.088-8.79-.26-17.725.711-26.479.197-1.78.417-3.622.983-5.329.126-.381 1.057-2.126 1.075-2.068.055.174-1.525.207.019.232.519.008 1.681-.036 1.769-.022 1.828.276 2.387 2.795 2.746 4.614 1.562 7.917 1.229 16.369 1.238 24.387.001.631 3.313.132 3.312-.888z" fill="#37342a"/><path d="m378.348 217.736c5.712-5.724 11.871-11.502 16.456-18.218 1.175-1.721 2.858-4.247 1.557-6.326-2.401-3.836-6.039-4.129-9.776-1.864-6.082 3.686-11.263 9.243-16.29 14.18-8.474 8.322-16.71 16.913-24.514 25.869-4.844 5.559-10.023 11.313-13.686 17.759-1.391 2.447-2.611 6.415 1.817 5.464 2.207-.474 4.274-1.895 6.121-3.122 3.522-2.34 6.835-5.005 10.088-7.702 9.855-8.172 19.168-16.999 28.227-26.04 1.425-1.422-1.793-1.71-2.72-.785-7.286 7.271-14.742 14.382-22.494 21.156-5.207 4.55-10.545 9.207-16.435 12.87-.794.493-1.609.903-2.437 1.33-.204.105-.45.207-.678.248-.409.074.302-.024.298.069.03-.706.704-2.09 1.15-2.904 3.038-5.546 7.405-10.479 11.488-15.261 6.461-7.567 13.277-14.832 20.254-21.923 5.906-6.003 11.847-12.185 18.455-17.433 1.352-1.074 2.749-2.168 4.304-2.933.396-.195.837-.311.822-.309l.158-.009c.69.493 1.642 1.35 2.351 2.177 1.287 1.501.095 3.319-.989 4.954-4.414 6.659-10.641 12.353-16.246 17.97-1.424 1.423 1.793 1.71 2.719.783z" fill="#37342a"/><path d="m392.026 268.489c8.087-.008 16.459.23 24.458-1.177 2.342-.412 5.977-1.061 6.904-3.662.394-1.105.342-3.003.169-4.159-.334-2.225-2.492-3.016-4.451-3.514-6.752-1.715-14.204-1.455-21.102-1.524-11.913-.12-23.85.118-35.739.907-7.568.502-15.439.952-22.809 2.887-1.723.452-7.706 2.369-4.581 4.907 1.627 1.321 4.328 1.693 6.301 2.086 3.979.793 8.022 1.268 12.058 1.659 12.881 1.249 25.856 1.577 38.792 1.59 1.44.001 3.44-2.176 1.208-2.178-10.334-.01-20.674-.256-30.986-.954-6.893-.467-13.974-.916-20.72-2.506-.974-.23-3.472-.547-4.087-1.507-.169-.264-.148-.058-.126-.106.179-.387 1.406-.621 1.75-.728 5.897-1.846 12.449-2.176 18.565-2.669 9.957-.803 19.956-1.133 29.944-1.215 8.408-.069 16.929-.19 25.303.712 1.938.209 6.032.27 7.183 2.203.357.599.206 2.085.182 3.054-.048 1.893-.814 1.994-2.996 2.463-7.731 1.662-16.17 1.244-24.011 1.252-1.441.002-3.441 2.181-1.209 2.179z" fill="#37342a"/><path d="m366.753 314.493c5.715 5.703 11.493 11.927 18.241 16.451 2.211 1.482 4.737 2.72 7.35 1.44 1.356-.664 2.458-1.87 3.363-2.985 1.412-1.74.657-3.559-.382-5.323-3.577-6.073-9.161-11.213-14.049-16.19-8.323-8.474-16.914-16.71-25.869-24.514-5.547-4.834-11.274-9.97-17.705-13.624-1.777-1.01-7.381-3.043-7.374.834.003 1.86 1.699 4.007 2.657 5.478 2.255 3.462 4.851 6.709 7.475 9.896 8.221 9.984 17.161 19.386 26.293 28.537.786.788 3.917-.437 3.081-1.274-7.271-7.286-14.382-14.742-21.156-22.494-4.538-5.193-9.162-10.504-12.871-16.34-.557-.876-1.106-1.771-1.538-2.717-.207-.453-.325-1.433-.612-1.794l.005-.404c-.207-.155-1.399.641-1.432.581l.384.09c.45.42 1.538.666 2.101.975 5.56 3.046 10.521 7.456 15.315 11.549 7.567 6.461 14.832 13.277 21.923 20.254 5.985 5.888 12.087 11.818 17.369 18.362 1.302 1.613 4.3 4.686 3.87 7.071-.17.945-1.197 1.652-2.035 2.481-.767.759-.21.153-.047.301-.507-.46-2.472-1.084-3.331-1.665-6.627-4.482-12.319-10.635-17.947-16.251-.785-.786-3.915.44-3.079 1.275z" fill="#37342a"/><path d="m316.554 329.601c.008 8.037-.257 16.427 1.199 24.375.423 2.309 1.081 5.258 3.673 5.946 3.89 1.033 7.647-.264 8.814-4.723 1.757-6.712 1.469-14.17 1.538-21.037.121-12.065-.129-24.155-.961-36.194-.508-7.349-.885-15.073-2.876-22.207-.733-2.627-3.076-6.766-5.971-3.273-1.336 1.613-1.725 4.185-2.137 6.159-.836 4.005-1.296 8.093-1.69 12.161-1.248 12.883-1.576 25.858-1.589 38.793-.002 1.815 3.365 1.393 3.367-.208.01-10.334.256-20.674.955-30.986.466-6.884.956-13.91 2.472-20.659.093-.414 1.614-4.161 1.539-4.302l-1.526.204.393.57c.149.729.613 1.512.823 2.245 1.762 6.15 2.192 12.803 2.685 19.148.764 9.823 1.075 19.684 1.154 29.535.068 8.408.19 16.929-.713 25.303-.196 1.82-.386 3.737-.998 5.475-.131.372-.339.86-.475 1.124-.191.371-.505.582-.295.402.105-.09-.403.038-.626.034-.699-.011-1.395.004-2.093 0-.159-.001-.462.044-.76-.334-.783-.996-1.045-2.33-1.293-3.543-1.603-7.843-1.236-16.264-1.244-24.216 0-1.815-3.367-1.393-3.365.208z" fill="#37342a"/><path d="m270.433 304.813c-5.707 5.718-11.878 11.496-16.46 18.206-1.164 1.704-2.859 4.217-1.569 6.278 2.396 3.831 6.04 4.073 9.767 1.827 6.088-3.671 11.268-9.236 16.293-14.171 8.474-8.322 16.71-16.914 24.514-25.869 4.842-5.557 10.028-11.304 13.689-17.746 1.395-2.456 2.616-6.327-1.792-5.371-2.209.479-4.273 1.884-6.123 3.113-3.41 2.266-6.622 4.839-9.78 7.44-9.986 8.221-19.388 17.16-28.539 26.293-1.404 1.401 1.823 1.569 2.697.698 7.286-7.271 14.741-14.382 22.494-21.156 5.211-4.553 10.539-9.214 16.432-12.88.747-.465 1.756-.8 2.435-1.336.854-.674.376.167.253-.392.214.97-.508 2.175-.998 3.07-3.038 5.546-7.402 10.492-11.484 15.273-6.461 7.567-13.277 14.832-20.254 21.923-5.884 5.98-11.805 12.111-18.362 17.369-1.374 1.102-2.807 2.227-4.393 3.013-.398.197-.832.31-.822.309l-.165-.019c-.666-.501-1.669-1.384-2.355-2.192-1.316-1.55-.078-3.412.976-5.002 4.418-6.665 10.632-12.36 16.243-17.982 1.402-1.403-1.825-1.57-2.697-.696z" fill="#37342a"/><path d="m256.811 254.267c-8.069.008-16.469-.236-24.45 1.206-2.237.404-6.063 1.044-6.991 3.549-.38 1.028-.304 2.906-.157 3.991.295 2.176 2.524 2.851 4.396 3.308 6.763 1.65 14.189 1.409 21.089 1.479 12.065.121 24.155-.129 36.194-.961 7.425-.513 15.114-.974 22.344-2.873 1.453-.382 7.615-2.142 4.753-4.456-1.623-1.312-4.377-1.648-6.341-2.04-4.105-.818-8.286-1.277-12.45-1.665-12.75-1.192-25.586-1.525-38.387-1.538-1.116-.001-3.558 1.673-1.343 1.675 10.502.011 21.014.255 31.492.993 6.729.474 13.644.936 20.225 2.512 1.711.409 6.404 1.626 2.597 2.837-5.999 1.908-12.757 2.205-18.984 2.69-9.823.766-19.684 1.075-29.535 1.154-8.439.068-17.021.23-25.421-.745-1.882-.218-5.922-.301-7.058-2.27-.504-.873-.309-2.406-.265-3.376.087-1.942.999-2.172 2.871-2.571 7.759-1.656 16.206-1.217 24.077-1.225 1.116 0 3.56-1.676 1.344-1.674z" fill="#37342a"/><path d="m282.012 207.997c-5.705-5.693-11.465-11.849-18.168-16.408-2.158-1.468-4.699-2.791-7.296-1.59-1.253.579-2.462 1.875-3.356 2.921-1.521 1.779-.875 3.586.219 5.463 3.555 6.105 9.188 11.266 14.085 16.252 8.322 8.474 16.913 16.71 25.869 24.514 5.546 4.833 11.277 9.983 17.708 13.638 1.794 1.02 7.415 3.082 7.367-.862-.023-1.87-1.696-4.011-2.661-5.493-2.255-3.462-4.851-6.709-7.475-9.896-8.22-9.986-17.159-19.388-26.292-28.539-.827-.829-3.966.409-3.073 1.304 7.271 7.286 14.382 14.741 21.156 22.494 4.54 5.195 9.155 10.507 12.871 16.34.556.872 1.104 1.76 1.534 2.702.202.441.328 1.45.612 1.794l-.012.376c.248.157 1.415-.227 1.012-.689-.343-.393-1.578-.69-2.065-.957-5.561-3.046-10.516-7.441-15.312-11.536-7.567-6.461-14.832-13.277-21.923-20.254-5.985-5.888-12.087-11.818-17.369-18.362-1.382-1.712-4.16-4.571-3.862-7.041.102-.84 1.117-1.531 1.903-2.313l.582-.568-.394.131c.491.426 2.403 1.026 3.248 1.589 6.673 4.44 12.385 10.671 18.02 16.294.828.827 3.966-.412 3.072-1.304z" fill="#37342a"/><path d="m268.28 236.794.086-.107c.456-.106-.55.099-.282.061-.733.104-1.508.02-2.238-.067-2.251-.266-4.475-.753-6.699-1.181-2.357-.453-4.885-.65-7.12-1.565-1.221-.5-2.453-1.242-3.028-2.485-.66-1.429-.106-3.337 1.048-4.207.19-.143.616-.343.946-.4.743-.129 1.526.005 2.244.196 2.401.638 4.523 2.189 6.633 3.441 2.138 1.269 4.33 2.493 6.331 3.976.6.445 1.24.915 1.707 1.505.193.244.3.425.343.542.127.351.082.133.029.291-.655 1.943 2.66 2.253 3.222.587.576-1.709-.529-3.115-1.748-4.198-1.841-1.635-4.08-2.859-6.182-4.114-4.082-2.437-9.697-6.909-14.732-4.382-2.527 1.268-4.021 4.316-3.333 7.086 1.187 4.776 7.23 5.486 11.191 6.225 3.039.567 6.086 1.321 9.177 1.549 2.072.153 4.659.02 5.628-2.166.822-1.86-2.516-2.184-3.223-.587z" fill="#fff"/><path d="m302.291 201.087c-.397.209.306-.094.266-.051.324-.342.076.24.027-.001-.001-.007-.277-.098-.498-.23-.613-.367-1.229-.971-1.763-1.499-1.664-1.64-3.134-3.476-4.657-5.244-1.647-1.913-3.547-3.717-4.745-5.964-.607-1.138-1.008-2.586-.619-3.773.179-.546.287-.708.669-1.147l.347-.31.334-.252c-.233.16-.043.025.089-.039l.584-.281c-.425.171.233-.048.349-.078.309-.079.027-.01-.039-.002l.429-.033.293.002c-.359-.02.254.055.321.071.241.055.791.311 1.156.583.589.439 1.055.987 1.471 1.588 1.42 2.044 2.127 4.499 3.006 6.802.87 2.28 1.797 4.559 2.448 6.914.207.747.427 1.534.434 2.315.003.308-.037.589-.06.661-.074.237-.009-.02.028.003.056.033-.355.278.13-.035-.661.426-1.203 1.182-.715 1.958.436.694 1.632.813 2.288.39 1.577-1.015 1.854-2.549 1.615-4.312-.315-2.316-1.259-4.568-2.078-6.74-1.09-2.892-1.999-6.004-3.559-8.684-.976-1.677-2.386-3.279-4.257-3.954-2.821-1.018-6.257.175-7.87 2.715-2.83 4.453 1.248 8.919 4.043 12.124 2.11 2.419 4.099 5.006 6.446 7.206 1.521 1.426 3.57 2.746 5.661 1.645 1.976-1.04.216-3.29-1.574-2.348z" fill="#fff"/><path d="m350.703 198.601c.367.221.037-.104.078.026-.081-.256-.111-.384-.125-.57-.057-.762.12-1.571.29-2.308.509-2.208 1.295-4.358 2.001-6.507.777-2.365 1.317-4.937 2.513-7.136.338-.622.755-1.243 1.262-1.74l.556-.475.385-.216c.355-.187-.011-.033.264-.118l.305-.084c.474-.127-.327.008.15-.029.118-.009.794.011.441-.024.232.023.46.067.686.121.063.015.287.092-.003-.005l.427.166c.536.235.445.181.875.529.417.338.62.553.9 1.102 1.622 3.176-2.37 7.267-4.18 9.585-1.568 2.009-3.089 4.091-4.828 5.958-.294.315-.6.62-.919.91l-.722.602-.358.202.082-.016-.266.078c.226.022.247-.022.186-.051-1.613-.788-3.779 1.573-1.834 2.523 1.676.818 3.486-.05 4.806-1.128 1.829-1.492 3.302-3.474 4.755-5.316 1.98-2.512 4.237-4.98 5.746-7.814.945-1.775 1.602-3.921 1.029-5.923-.797-2.786-3.808-4.564-6.634-4.32-5.061.438-6.815 5.677-8.116 9.782-.986 3.11-2.172 6.188-2.872 9.381-.43 1.963-.662 4.164 1.287 5.337 1.544.93 3.682-1.409 1.833-2.522z" fill="#fff"/><path d="m378.108 239.655c-.039-.172-.023-.206.231-.488.527-.586 1.271-1.007 1.944-1.398 2.07-1.204 4.263-2.193 6.413-3.242 2.576-1.257 7.55-4.805 10.312-2.249.634.587.942 1.309 1.117 2.178.121.603.01 1.572-.301 2.115-1.685 2.941-6.951 2.704-9.879 3.02-2.356.254-4.727.558-7.1.585-.738.009-1.535.018-2.251-.197.164.049-.547-.273-.289-.11-.294-.184-.15-.07-.197-.214-.573-1.742-3.882-.847-3.312.887.533 1.62 2.169 2.19 3.725 2.363 2.359.263 4.773-.028 7.12-.27 3.059-.315 6.26-.419 9.249-1.176 2.028-.514 4.102-1.444 5.43-3.121 1.731-2.186 1.593-5.418-.196-7.533-3.438-4.064-9.167-1.546-13.005.385-2.972 1.495-6.089 2.785-8.924 4.536-1.651 1.019-3.91 2.558-3.4 4.816.403 1.781 3.718.905 3.313-.887z" fill="#fff"/><path d="m374.947 279.733.022-.046c-.533.068.299.105-.17.059l.426-.02c.502 0 1.422.201 2.07.367 2.186.559 4.306 1.387 6.432 2.135 2.354.827 4.936 1.415 7.086 2.719 1.105.67 2.185 1.652 2.529 2.835.261.897.151 1.596-.221 2.482-.02.047-.217.424-.042.11l-.174.285-.416.554c-.178.204.269-.247-.068.064l-.278.24c-.063.052-.334.229-.07.063l-.407.222c-.195.097-.699.207-1.109.19-.714-.03-1.529-.316-2.221-.639-2.304-1.077-4.201-2.952-6.154-4.542-1.907-1.552-3.87-3.077-5.605-4.825-.524-.528-1.065-1.115-1.401-1.786l-.151-.356c-.057-.285-.073-.101.108-.451.4-.776-.38-1.533-1.085-1.674-.896-.179-1.736.31-2.137 1.088-.735 1.426.145 3.004 1.066 4.1 1.58 1.882 3.542 3.433 5.435 4.983 3.654 2.992 8.343 8.074 13.64 6.703 2.781-.72 4.963-3.509 4.803-6.416-.278-5.055-6.106-6.676-10.019-8.029-2.965-1.025-5.919-2.24-8.985-2.939-1.895-.432-4.551-.652-5.753 1.256-1.154 1.83 1.888 2.792 2.849 1.268z" fill="#fff"/><path d="m272.7 278.315c-1.027-1.629-3.201-1.514-4.856-1.226-2.603.452-5.114 1.474-7.594 2.349-4.135 1.459-10.766 2.706-12.16 7.683-.781 2.789.644 5.869 3.26 7.116 4.843 2.309 9.725-2.292 13.142-5.076 2.337-1.903 4.784-3.755 6.815-5.995 1.213-1.338 2.317-3.059 1.393-4.851-.805-1.562-3.891-.155-3.003 1.568l-.002.103c-.008.374.096-.234-.019.151l-.104.272c-.162.377-.699 1.046-1.115 1.489-1.375 1.466-2.991 2.728-4.542 3.999-2.01 1.646-3.974 3.552-6.201 4.898-1.276.771-2.717 1.399-3.995 1.116-.721-.159-1.371-.683-1.864-1.459-.416-.654-.665-1.436-.604-2.275.073-1.012.673-1.93 1.602-2.683 1.749-1.419 4.039-1.962 6.124-2.68 2.493-.858 4.96-1.817 7.495-2.547.866-.25 1.708-.465 2.561-.535l.365-.007c-.34.011.492.111.097-.002l.246.109-.043.051c.942 1.496 4.034.07 3.002-1.568z" fill="#fff"/><path d="m348.802 316.832-.506.108c.117-.127.159.225.038.008l.582.376c.622.497 1.133 1.119 1.625 1.74 1.491 1.882 2.801 3.907 4.165 5.882 1.401 2.028 3.145 4.008 3.97 6.364.429 1.225.678 2.649.021 3.845-.189.345-.444.599-.763.864-.302.251-.046.07-.324.222-.121.066-.821.369-.376.208-.212.077-.426.132-.644.191-.079.021-.331.057.044.004l-.352.034c-.254.02-.774-.046-1.029-.148-3.227-1.293-3.876-6.498-4.656-9.466-.63-2.395-1.319-4.794-1.732-7.239-.135-.797-.239-1.602-.167-2.41.033-.372.059-.34.147-.636l-.043.053c1.997-1.007.229-3.257-1.573-2.349-1.596.805-2.019 2.505-1.921 4.165.142 2.397.792 4.755 1.391 7.069.785 3.03 1.359 6.244 2.704 9.087.801 1.694 1.989 3.279 3.713 4.113 2.725 1.318 6.199.307 8.065-1.996 3.308-4.081-.358-9.085-2.757-12.512-1.821-2.603-3.496-5.381-5.596-7.774-1.505-1.716-3.251-3.076-5.6-2.151-.74.291-1.145 1.275-.715 1.958.5.795 1.555.679 2.289.39z" fill="#fff"/><path d="m305.147 312.582c-1.929-.759-3.716.34-5.032 1.711-1.85 1.928-3.304 4.22-4.811 6.415-2.528 3.682-7.392 8.862-4.869 13.71 1.333 2.561 4.648 3.806 7.379 3.052 4.937-1.363 5.992-7.269 7.1-11.483.743-2.827 1.624-5.698 1.96-8.611.21-1.818.101-3.872-1.727-4.794-1.605-.809-3.767 1.549-1.834 2.523l.073.109c.042.072.083.169.141.478.099.527.032 1.229-.036 1.827-.234 2.035-.79 4.03-1.305 6.007-.638 2.449-1.136 5.002-2.032 7.372-.476 1.259-1.315 2.858-2.275 3.515-.104.071-.765.39-.479.282-.12.045-.823.195-.447.145-.218.029-.438.037-.658.031-.277-.007.38.054-.063-.011l-.409-.074c-.419-.085.009.044-.375-.118l-.554-.257-.904-.721c-2.366-2.735.634-6.675 2.266-8.978 1.618-2.283 3.133-4.643 4.813-6.882.587-.783 1.185-1.585 1.919-2.238.229-.204.504-.283.648-.477l-.321-.009c.8.315 1.827.095 2.342-.628.462-.653.274-1.587-.51-1.896z" fill="#fff"/><path d="m363.09 147.005c36.495 11.977 65.07 41.943 75.18 79.016 2.987 10.953 4.34 22.283 4.039 33.63-.042 1.57 3.301.987 3.336-.326 1.061-39.912-18.555-78.208-51.79-100.39-8.915-5.95-18.62-10.626-28.8-13.967-1.252-.41-3.895 1.404-1.965 2.037z" fill="#fff"/><g fill="#37342a"><path d="m232.439 326.715c1.301 0 3.496-1.963 1.266-1.963-1.301.001-3.496 1.963-1.266 1.963z"/><path d="m226.91 317.332c1.08 0 3.568-1.62 1.357-1.62-1.079.001-3.567 1.62-1.357 1.62z"/><path d="m230.445 323.13c1.202 0 3.531-1.81 1.306-1.81-1.201 0-3.53 1.81-1.306 1.81z"/><path d="m235.342 317.092c1.902 0 2.533-2.456.286-2.456-1.903.001-2.533 2.456-.286 2.456z"/><path d="m240.526 319.809c1.162 0 3.544-1.749 1.323-1.749-1.162.001-3.544 1.749-1.323 1.749z"/><path d="m239.422 328.1-.219.219-.272.356-.058.354.227.278.413.172.37.038c.294.003.582-.034.866-.112l.432-.147c.247-.1.471-.235.674-.407l.219-.219.272-.356.058-.354-.227-.278-.413-.172-.37-.038c-.294-.003-.582.034-.866.112l-.432.147c-.246.1-.471.235-.674.407z"/><path d="m248.541 340.269c2.005 0 2.44-2.751.206-2.751-2.004 0-2.44 2.751-.206 2.751z"/><path d="m254.305 345.984c.981 0 3.594-1.461 1.4-1.461-.981.001-3.594 1.461-1.4 1.461z"/><path d="m242.043 340.14c1.078 0 3.569-1.616 1.358-1.616-1.077 0-3.568 1.616-1.358 1.616z"/><path d="m236.191 327.021c1.412 0 3.451-2.135 1.219-2.135-1.412 0-3.451 2.135-1.219 2.135z"/><path d="m236.586 320.059c1.201 0 3.531-1.809 1.307-1.809-1.202 0-3.531 1.809-1.307 1.809z"/><path d="m228.241 311.027c1.15 0 3.547-1.73 1.328-1.73-1.15 0-3.547 1.73-1.328 1.73z"/><path d="m228.743 300.35c1.848 0 2.579-2.31.325-2.31-1.849.001-2.58 2.31-.325 2.31z"/><path d="m222.444 302.994c2.012 0 2.434-2.772.201-2.772-2.012 0-2.434 2.772-.201 2.772z"/><path d="m220.463 290.183.219-.439-.046-.29-.267-.211-.48-.084-.597.024-.447.093c-.283.074-.553.181-.81.32l-.305.201-.342.427-.219.439.046.29.267.211.48.084.597-.024.447-.093c.283-.074.553-.181.81-.321l.305-.2z"/><path d="m224.147 286.792c1.878 0 2.554-2.388.304-2.388-1.877-.001-2.554 2.388-.304 2.388z"/><path d="m225.449 293.922c1.436 0 3.441-2.173 1.209-2.173-1.436 0-3.44 2.173-1.209 2.173z"/><path d="m229.997 282.302c1.158 0 3.545-1.743 1.325-1.743-1.159 0-3.545 1.743-1.325 1.743z"/><path d="m221.48 276.221c.659 0 1.876-.082 2.342-.627.315-.37.612-.798-.214-.798-.659 0-1.876.082-2.342.628-.314.369-.611.797.214.797z"/><path d="m218.207 269.78c1.416 0 3.45-2.141 1.218-2.141-1.416 0-3.45 2.141-1.218 2.141z"/><path d="m214.642 276.152c1.147 0 3.548-1.725 1.329-1.725-1.147-.001-3.548 1.725-1.329 1.725z"/><path d="m214.835 257.631c1.023 0 3.583-1.53 1.382-1.53-1.023 0-3.583 1.53-1.382 1.53z"/><path d="m219.484 245.29c1.228 0 3.522-1.851 1.296-1.851-1.229 0-3.522 1.851-1.296 1.851z"/><path d="m225.055 233.61c1.96 0 2.482-2.618.242-2.618-1.959 0-2.481 2.618-.242 2.618z"/><path d="m223.26 224.906c1.85 0 2.577-2.316.323-2.316-1.85-.001-2.577 2.316-.323 2.316z"/><path d="m219.318 236.111c1.865 0 2.565-2.355.313-2.355-1.866 0-2.565 2.355-.313 2.355z"/><path d="m232.417 219.162c1.193 0 3.534-1.796 1.31-1.796-1.192.001-3.533 1.796-1.31 1.796z"/><path d="m236.186 209.881c1.386 0 3.462-2.095 1.23-2.095-1.387 0-3.462 2.095-1.23 2.095z"/><path d="m236.41 233.585c1.408 0 3.453-2.129 1.221-2.129-1.409 0-3.453 2.129-1.221 2.129z"/><path d="m234.272 249.639c1.972 0 2.47-2.654.232-2.654-1.972 0-2.47 2.654-.232 2.654z"/><path d="m232.119 245.557v-.219l-.093-.465-.311-.374-.513-.207c-.201-.061-.407-.079-.618-.054l-.451.077c-.289.076-.554.203-.794.38l-.287.269c-.158.178-.255.385-.29.62v.219l.093.465.311.374.513.207c.201.061.407.079.618.054l.451-.077c.289-.076.554-.203.794-.38l.287-.269c.157-.179.254-.385.29-.62z"/><path d="m232.031 232.355c1.845 0 2.582-2.302.327-2.302-1.845.001-2.581 2.302-.327 2.302z"/><path d="m241.383 243.627c1.065 0 3.572-1.597 1.364-1.597-1.066.001-3.573 1.597-1.364 1.597z"/><path d="m250.436 249.556c1.357 0 3.474-2.05 1.242-2.05-1.357.001-3.474 2.05-1.242 2.05z"/><path d="m257.034 252.533c1.845 0 2.582-2.301.327-2.301-1.844 0-2.581 2.301-.327 2.301z"/><path d="m257.915 245.473c1.466 0 3.428-2.219 1.197-2.219-1.465.001-3.428 2.219-1.197 2.219z"/><path d="m237.486 239.214c1.314 0 3.491-1.983 1.26-1.983-1.313.001-3.49 1.983-1.26 1.983z"/><path d="m240.133 252.208c1.382 0 3.464-2.089 1.232-2.089-1.382 0-3.464 2.089-1.232 2.089z"/><path d="m226.346 255.448c1.892 0 2.542-2.428.293-2.428-1.892 0-2.542 2.428-.293 2.428z"/><path d="m236.151 279.277c1.218 0 3.525-1.836 1.3-1.836-1.219.001-3.526 1.836-1.3 1.836z"/><path d="m244.565 276.121c1.933 0 2.506-2.542.263-2.542-1.933.001-2.506 2.542-.263 2.542z"/><path d="m243.632 290.475c.658 0 1.877-.083 2.342-.627.316-.369.613-.792-.212-.792-.658 0-1.877.083-2.342.628-.316.367-.613.791.212.791z"/><path d="m235.442 289.397c.979 0 3.594-1.459 1.401-1.459-.979.001-3.594 1.459-1.401 1.459z"/><path d="m237.93 297.275c.658 0 1.877-.083 2.342-.628.316-.369.613-.795-.213-.795-.658 0-1.876.083-2.342.628-.316.369-.613.795.213.795z"/><path d="m244.482 306.681c1.202 0 3.531-1.811 1.306-1.811-1.202 0-3.53 1.811-1.306 1.811z"/><path d="m249.057 316.436c1.057 0 3.575-1.583 1.367-1.583-1.056.001-3.574 1.583-1.367 1.583z"/><path d="m238.127 308.236c1.227 0 3.522-1.85 1.296-1.85-1.228 0-3.522 1.85-1.296 1.85z"/><path d="m228.458 273.293c1.137 0 3.551-1.709 1.333-1.709-1.137-.001-3.551 1.709-1.333 1.709z"/><path d="m278.943 277.39c1.33 0 3.484-2.008 1.253-2.008-1.33 0-3.485 2.008-1.253 2.008z"/><path d="m291.523 279.057c1.992 0 2.453-2.711.217-2.711-1.991 0-2.452 2.711-.217 2.711z"/><path d="m297.43 270.884c1.952 0 2.489-2.595.248-2.595-1.952 0-2.489 2.595-.248 2.595z"/><path d="m274.377 296.677c1.889 0 2.544-2.419.295-2.419-1.888 0-2.544 2.419-.295 2.419z"/><path d="m257.253 307.306c1.444 0 3.438-2.185 1.206-2.185-1.444.001-3.438 2.185-1.206 2.185z"/><path d="m251.152 301.588c1.951 0 2.49-2.592.249-2.592-1.951 0-2.49 2.592-.249 2.592z"/><path d="m262.735 300.284c1.439 0 3.44-2.177 1.208-2.177-1.438 0-3.44 2.177-1.208 2.177z"/><path d="m256.638 278.571c1.959 0 2.483-2.615.243-2.615-1.959 0-2.483 2.615-.243 2.615z"/><path d="m243.851 282.141c.658 0 1.877-.083 2.342-.627.315-.369.613-.793-.213-.793-.658 0-1.877.083-2.342.628-.315.367-.612.792.213.792z"/><path d="m275.852 339.823c1.233 0 3.52-1.859 1.293-1.859-1.233 0-3.52 1.859-1.293 1.859z"/><path d="m280.461 324.483c1.25 0 3.514-1.885 1.287-1.885-1.25 0-3.514 1.885-1.287 1.885z"/><path d="m287.485 318.8c1.274 0 3.505-1.922 1.276-1.922-1.274-.001-3.505 1.922-1.276 1.922z"/><path d="m297.834 305.355c1.472 0 3.425-2.229 1.194-2.229-1.472-.001-3.425 2.229-1.194 2.229z"/><path d="m306.334 299.891c1.214 0 3.527-1.829 1.302-1.829-1.214 0-3.527 1.829-1.302 1.829z"/><path d="m311.565 321.918c1.055 0 3.575-1.58 1.368-1.58-1.055 0-3.575 1.58-1.368 1.58z"/><path d="m309.23 339.809c1.833 0 2.591-2.27.335-2.27-1.833 0-2.591 2.27-.335 2.27z"/><path d="m306.326 353.136-.219.219-.276.34-.063.336.222.259.409.157.367.031c.293-.001.581-.041.864-.118l.433-.146c.246-.097.472-.229.677-.395l.219-.219.276-.34.063-.336-.222-.259-.409-.157-.368-.031c-.293.001-.581.041-.864.118l-.433.145c-.245.099-.471.231-.676.396z"/><path d="m296.42 350.828c1.004 0 3.588-1.498 1.39-1.498-1.003 0-3.588 1.498-1.39 1.498z"/><path d="m287.301 345.47c1.446 0 3.437-2.187 1.206-2.187-1.446 0-3.438 2.187-1.206 2.187z"/><path d="m284.875 358.74c-.218.22-.437.44-.655.661l-.139.266.091.221.349.116.504.023.411-.048c.301-.051.594-.13.88-.236l.38-.164.539-.365c.219-.22.437-.441.655-.661l.139-.266-.091-.221-.349-.116-.504-.024-.411.048c-.301.051-.594.13-.88.236l-.38.164z"/><path d="m276.813 353.498h-.219c-.235.003-.457.054-.667.153-.214.065-.405.173-.573.324l-.372.469-.175.534.036.371c.07.248.206.453.407.614l.331.201c.263.112.537.162.823.148h.219c.235-.003.457-.054.667-.153.213-.065.404-.173.573-.323l.372-.469.175-.534-.036-.371c-.07-.248-.206-.453-.407-.614l-.331-.201c-.263-.114-.537-.163-.823-.149z"/><path d="m264.468 349.553c1.336 0 3.482-2.018 1.251-2.018-1.336 0-3.482 2.018-1.251 2.018z"/><path d="m262.475 354.964c1.242 0 3.517-1.873 1.29-1.873-1.243 0-3.517 1.873-1.29 1.873z"/><path d="m257.48 345.936c1.48 0 3.422-2.242 1.191-2.242-1.481.001-3.422 2.242-1.191 2.242z"/><path d="m259.251 339.253c1.909 0 2.527-2.474.281-2.474-1.909 0-2.527 2.474-.281 2.474z"/><path d="m251.998 336.783c1.866 0 2.564-2.358.312-2.358-1.867 0-2.564 2.358-.312 2.358z"/><path d="m247.795 327.822c1.313 0 3.491-1.982 1.261-1.982-1.314 0-3.492 1.982-1.261 1.982z"/><path d="m241.935 335.126c1.937 0 2.502-2.554.259-2.554-1.937 0-2.502 2.554-.259 2.554z"/><path d="m250.825 346.313c1.118 0 3.557-1.679 1.342-1.679-1.118 0-3.558 1.679-1.342 1.679z"/><path d="m273.312 347.897c1.972 0 2.471-2.654.232-2.654-1.972 0-2.47 2.654-.232 2.654z"/><path d="m267.118 339.969c1.422 0 3.447-2.152 1.215-2.152-1.423.001-3.447 2.152-1.215 2.152z"/><path d="m270.762 330.879c1.015 0 3.585-1.517 1.385-1.517-1.016 0-3.586 1.517-1.385 1.517z"/><path d="m278.662 332.651c1.037 0 3.58-1.551 1.376-1.551-1.037 0-3.58 1.551-1.376 1.551z"/><path d="m280.912 348.652c1.306 0 3.493-1.972 1.263-1.972-1.307.001-3.494 1.972-1.263 1.972z"/><path d="m284.837 338.042c1.199 0 3.532-1.806 1.308-1.806-1.199 0-3.532 1.806-1.308 1.806z"/><path d="m291.232 310.756c1.367 0 3.47-2.065 1.238-2.065-1.366 0-3.469 2.065-1.238 2.065z"/><path d="m278.529 290.042c1.848 0 2.579-2.308.325-2.308-1.847-.001-2.579 2.308-.325 2.308z"/><path d="m272.56 249.013c1.222 0 3.524-1.841 1.298-1.841-1.222 0-3.524 1.841-1.298 1.841z"/><path d="m289.536 253.565c1.957 0 2.484-2.611.244-2.611-1.957.001-2.484 2.611-.244 2.611z"/><path d="m289.692 250.124c.659 0 1.876-.08 2.342-.627.315-.37.611-.804-.215-.804-.659 0-1.876.08-2.342.627-.316.371-.612.804.215.804z"/><path d="m283.599 240.566c1.916 0 2.521-2.493.276-2.493-1.916 0-2.522 2.493-.276 2.493z"/><path d="m279.245 244.417c2.001 0 2.445-2.738.21-2.738-2.001 0-2.445 2.738-.21 2.738z"/><path d="m261.834 222.475c.738 0 3.758-1.404 2.134-1.404-.739.001-3.759 1.404-2.134 1.404z"/><path d="m243.896 221.686c1.902 0 2.533-2.456.285-2.456-1.902-.001-2.532 2.456-.285 2.456z"/><path d="m243.786 201.044c1.023 0 3.583-1.529 1.382-1.529-1.023 0-3.584 1.529-1.382 1.529z"/><path d="m245.439 192.763c1.922 0 2.515-2.512.27-2.512-1.922 0-2.515 2.512-.27 2.512z"/><path d="m237.68 201.395c1.19 0 3.535-1.792 1.311-1.792-1.189 0-3.534 1.792-1.311 1.792z"/><path d="m230.858 207.869-.219.219-.267.374-.052.376.233.299.418.19.372.047c.294.008.584-.026.868-.104l.432-.149c.247-.103.471-.243.67-.421l.219-.219.267-.374.052-.376-.233-.299-.418-.19-.372-.047c-.294-.008-.583.026-.868.104l-.432.149c-.247.103-.47.243-.67.421z"/><path d="m227.132 216.231c1.09 0 3.565-1.635 1.353-1.635-1.09 0-3.565 1.635-1.353 1.635z"/><path d="m294.449 363.341c1.018 0 3.585-1.52 1.384-1.52-1.017-.001-3.584 1.52-1.384 1.52z"/><path d="m301.903 368.811c1.001 0 3.589-1.494 1.391-1.494-1.001 0-3.589 1.494-1.391 1.494z"/><path d="m307.706 365.239c1.483 0 3.42-2.246 1.19-2.246-1.483 0-3.421 2.246-1.19 2.246z"/><path d="m226.048 347.449c-15.249-18.609-25.148-41.317-28.462-65.148-3.293-23.68.305-47.992 9.93-69.852 5.517-12.531 13.04-24.177 22.189-34.362 1.302-1.449-1.905-1.415-2.663-.572-32.97 36.702-42.915 89.675-24.906 135.688 5.033 12.859 12.089 24.874 20.84 35.553.733.895 3.916-.276 3.072-1.307z"/></g></g></svg>