<svg id="Layer_1" height="512" viewBox="0 0 512 512" width="512" xmlns="http://www.w3.org/2000/svg" data-name="Layer 1"><path d="m37.83 351.92 9.83 19.93 22 3.19-15.92 15.52 3.76 21.9-19.67-10.34-19.67 10.34 3.75-21.9-15.91-15.52 21.99-3.19z" fill="#ffe161"/><g fill="#f4b8b0"><path d="m345.78 65.38s8-24.8-3.91-37c0 0 23.26 18 28.74 47.52z"/><path d="m321.12 54.8s5.66-29.48-19.48-45.32c0 0 46.54 17.21 46.8 55.72z"/><path d="m322.29 54.87s2.45-19.41-26.43-18.13c0 0 10.53 5 8.75 14.45z"/></g><path d="m295.86 36.74s18.8 3.39 11.06 24.61l-3.8-2.62s5.73-12.9-7.26-21.99z" fill="#e8a69e"/><path d="m301.64 9.48s34.29 19 20 39.65c0 0 .17-22.59-20-39.65z" fill="#e8a69e"/><path d="m341.87 28.37s17.42 15.19 5.8 28.67c0-.04 2.63-16.73-5.8-28.67z" fill="#e8a69e"/><path d="m313.76 488.21a7.91 7.91 0 0 1 -.81 2.29l-34.16 8.72-4.19-3.72-2.3 5.3-.71.18c-4.23-2.59-7-6.66-9.35-13-2.86-7.52-5.22-18.18-9-33.25l44.91-25.35-3.86 50h.2z" fill="#f7cbc0"/><path d="m181.36 429.77c-12 11.43-20 19.49-26.68 24.21-4.82 3.41-9 5.08-13.54 5l-.41-.42.9-5.71-5.52.9-24.3-25.75a7.58 7.58 0 0 1 .52-2.28l21.14 2.94 23.62-44.54z" fill="#f7cbc0"/><path d="m149.73 467.91-9-9.35-4.62-4.81-24.3-25.75-2.56-2.71 3.08.43 21.14 2.94s13.24 7.54 22.72 24.23z" fill="#3e2945"/><path d="m316.7 489.54-3.61.92h-.14l-34.16 8.72-6.49 1.58-12.6 3.09 2.54-15.85v-.3a69 69 0 0 1 32-8.31h.13.06l19.25 8.76.11.05z" fill="#3e2945"/><path d="m147.25 402.69 6.11-11.45 23.89 42.48-6.4 6.12s-19.11-19.94-23.6-37.15z" fill="#dd686e" opacity=".5"/><path d="m296.46 451.51 1.07-14.29-42.91 23.1 2.13 8.59s26.71-5.27 39.71-17.4z" fill="#dd686e" opacity=".5"/><path d="m85.22 273.61c-5.39.29-12.53 10.37-12.41 19.7v.71c-.88 9.75 6.43 19.1 11.78 18.92 39.81-1.29 70.91 5.62 103.07 36.94 7.87-8.18 15.85-16 24-23.9-36.66-43.67-77.99-54.98-126.44-52.37z" fill="#f4b8b0"/><path d="m186.1 315.87c6.41 4.85 11.17 12.73 17.07 18.6-.19 0 .09-.21.14-.26 2.09-2.22 6-6 7.67-7.62 1.16-1.12 0 .07.48-.43s-.16.15.18-.18c-36.55-43.78-78.14-54.74-126.28-52.56-3.86.17-9.25 6.24-11.22 11.8 38.86-3.88 78.05 5.01 111.96 30.65z" fill="#f7cbc0"/><path d="m66.83 269.19 2.53 32.26 6.16 2.55-5.4 4.16 1.46 13 17.94-8.35.34-.15c3.64-18.24-2.68-37.65-3.36-39.07l-19.67-4.35" fill="#3e2945"/><path d="m418.69 388.61c4.07 3.85 2.95 16.6-3.4 23.89-.08.08-.42.45-.49.55-5.85 8.28-17.89 10.76-22 7-30.57-27.68-59.8-43.05-106.17-39.89-.73-11.75-1.8-23.26-2.9-35 58.27-9.84 98.46 8.9 134.96 43.45z" fill="#f7cbc0"/><path d="m310.68 354.36c-8.31-.47-17.36 2.56-25.95 3.23.18.1.07-.22.07-.29-.17-3.16-.72-8.79-1-11.17-.17-1.66 0 .09-.09-.66s0 .23 0-.26c58.22-10.07 98.42 9.16 135 43.16 2.93 2.73 3.13 11.13 1 16.84-28.16-29.13-65.05-48.37-109.03-50.85z" fill="#ffe3de"/><path d="m436.19 397.46-23.63 23.77-6.56-2.13 1.48 6.91-9.87 9.27-8.61-18.63-.16-.34c9.35-16.86 27.37-27.94 28.85-28.61l18.46 9.76" fill="#3e2945"/><path d="m328.57 370c-17.89 60.66-31.51 110-114.23 85.7-78.54-23.09-67.34-73.3-49.46-134s69-99 114.22-85.69 67.35 73.36 49.47 133.99z" fill="#f4b8b0"/><path d="m328.57 370c17.88-60.65-4.27-120.63-49.47-133.95l-.39-.11c20.46 30.93 26.58 76.88 12.93 123.18-13.42 45.51-24.81 85.63-56.44 101.41 64.36 10.47 77.1-35.36 93.37-90.53z" fill="#f7cbc0"/><path d="m181.61 270.1s56 119.54 167.25 54.19z" fill="#dd686e" opacity=".5"/><path d="m257.48 62.51c-25.82-50.07-85.38-54.4-85.38-54.4.43.29.85.59 1.25.89a34.65 34.65 0 0 1 13.19 33.89l-3.44 19.77c-4.82 27.61 5.88 53.72 5.88 53.72z" fill="#f4b8b0"/><path d="m245.68 73.29c-16-38.37-48.84-48.8-53.65-50.14-.13 0-.21.16-.1.25l.32.27c7.58 6.55 10.79 17.51 8.61 28l-3.35 16.13c-4.67 22.45 2.29 44 2.29 44l53.2-42.51" fill="#ef7d7e"/><path d="m192 23.15s29.59 16.19 17.18 42.07a49.24 49.24 0 0 0 -3.53 9.44c-1.29 5.25-2.26 12.48.1 18.1l-8.35 8.81s-5.17-16.92-1.85-29.64c.24-.93 1.47-5.68 1.9-7.3 2.65-9.81 9.55-27.76-5.45-41.48z" fill="#dd686e"/><path d="m400 100c48.84-28.06 101.23.62 101.23.62q-.78 0-1.53.06a34.68 34.68 0 0 0 -29.45 21.32l-7.83 18.47c-10.94 25.81-34.09 41.94-34.09 41.94z" fill="#f4b8b0"/><path d="m404.08 115.49c34.26-23.55 67.5-14.49 72.27-13 .13 0 .09.25-.05.26l-.41.06c-9.93 1.39-18.57 8.85-22.44 18.86l-5.93 15.33c-8.26 21.39-25.8 35.73-25.8 35.73l-21.61-64.57" fill="#ef7d7e"/><path d="m476.35 102.48s-33.64-2.45-37.26 26a48.66 48.66 0 0 1 -2.16 9.85c-1.76 5.1-4.87 11.71-9.9 15.14l2.24 11.94s13.52-11.41 17.63-23.87c.3-.92 1.85-5.58 2.37-7.17 3.12-9.67 7.02-28.51 27.08-31.89z" fill="#dd686e"/><path d="m403.26 261c-16 54.2-71.94 85.46-125 69.82l-37-10.91c-53.05-15.64-83.1-72.26-67.12-126.46l21.86-74.12c16-54.2 72-85.47 125-69.82l37 10.9c53.05 15.64 83.1 72.26 67.12 126.47z" fill="#f4b8b0"/><path d="m380.58 69.72c39.18 22.78 59.13 70.85 45.48 117.15l-21.86 74.13c-15 51-65.49 81.7-115.59 72.1 22.92-16.31 60.43-51.71 82.12-125.29 18.44-62.53 12.91-107.19 9.85-138.09z" fill="#f7cbc0"/><path d="m232.5 78s24.38-19.19 46.27-5.76c0 .01-25.14-28.98-46.27 5.76z" fill="#3e2945"/><path d="m377.53 100.36s30.17 7.21 33.22 32.72c0 0 7.15-37.7-33.22-32.72z" fill="#3e2945"/><path d="m295.51 151.26a56.78 56.78 0 0 0 -110.79-23.26c-.5 1.69-.91 3.39-1.26 5.08a56.79 56.79 0 1 0 112 18.22z" fill="#efb1ab"/><path d="m338.13 244.59a21.72 21.72 0 0 0 -2.38-9.44c-5.95-12.27-22.64-24.45-44.21-30.81-27.14-8-52.77-4.07-61 8.53a16.56 16.56 0 0 0 -2 4.39 17.18 17.18 0 0 0 -.54 2.74 21.22 21.22 0 0 0 2.66 12.29c6.3 12 22.72 23.79 43.82 30s41.3 5.24 53.1-1.44c5-2.84 8.51-6.7 9.91-11.47a16.55 16.55 0 0 0 .64-4.79z" fill="#efb1ab"/><path d="m424 189.13a56.79 56.79 0 0 0 -40.27-61.7 56.79 56.79 0 0 0 -67.3 30 55.8 55.8 0 0 0 -3.22 8.41q-.75 2.53-1.26 5.09a56.79 56.79 0 0 0 110.19 27 57.75 57.75 0 0 0 1.86-8.8z" fill="#efb1ab"/><path d="m433.67 192a55.88 55.88 0 0 0 -.29-16.5 56.79 56.79 0 0 0 -107.27-15.21 55.8 55.8 0 0 0 -3.22 8.41c-.5 1.69-.92 3.4-1.26 5.09a56.79 56.79 0 1 0 112 18.21z" fill="#fff"/><path d="m431.82 200.81a56.79 56.79 0 0 1 -108.94-32.12 58.81 58.81 0 0 1 2-5.69 56.8 56.8 0 0 0 108.34 32 56.59 56.59 0 0 1 -1.4 5.81z" fill="#f2f2f2"/><path d="m287.21 148.93a55.94 55.94 0 0 0 -.29-16.51 56.79 56.79 0 0 0 -110.5-6.79c-.49 1.69-.91 3.39-1.25 5.08a56.79 56.79 0 1 0 112 18.22z" fill="#fff"/><path d="m285.36 157.74a56.79 56.79 0 0 1 -108.94-32.12 56.06 56.06 0 0 1 2-5.68 56.8 56.8 0 0 0 108.34 31.94 56 56 0 0 1 -1.4 5.86z" fill="#f2f2f2"/><ellipse cx="287.24" cy="218.93" fill="#dd686e" rx="38.68" ry="62.38" transform="matrix(.283 -.959 .959 .283 -3.99 432.53)"/><path d="m306.73 184.77s44.49 44.66-5.57 75.23c0 0 26.3 1 37.88-11.16 0 0 18.07-14.79 3-37.47.02 0-8.52-15.99-35.31-26.6z" fill="#ef7d7e"/><path d="m289.92 184.16s58.87 12.89 52.73 49.08c0 0 1.35-31.91-52.73-49.08z" fill="#fff"/><ellipse cx="309.54" cy="220.18" fill="#1e1523" rx="12.99" ry="11.89" transform="matrix(.283 -.959 .959 .283 10.81 454.82)"/><ellipse cx="267.83" cy="207.88" fill="#1e1523" rx="12.99" ry="11.89" transform="matrix(.283 -.959 .959 .283 -7.31 405.98)"/><circle cx="309" cy="222.02" fill="#3e2945" r="11.89"/><circle cx="267.28" cy="209.72" fill="#3e2945" r="11.89"/><path d="m239.72 271.63a26.58 26.58 0 0 1 -1.56 9.16c-2.07 5.67-6 9.52-10.54 9.52-4.87 0-9.06-4.44-11-10.84a27.2 27.2 0 0 1 -1.12-7.84c0-10.31 5.42-18.67 12.1-18.67s12.12 8.36 12.12 18.67z" fill="#822244"/><path d="m238.16 280.79c-2.07 5.67-6 9.52-10.54 9.52-4.87 0-9.06-4.44-11-10.84 9.32-5.13 16.67-2.41 21.54 1.32z" fill="#dd686e"/><path d="m230.89 95.04 12.36 25.04 27.63 4.02-20 19.49 4.73 27.53-24.72-13-24.72 13 4.72-27.53-20-19.49 27.64-4.02z" fill="#3e2945"/><path d="m379.12 141.69 12.36 25.04 27.64 4.02-20 19.49 4.72 27.52-24.72-12.99-24.72 12.99 4.72-27.52-20-19.49 27.64-4.02z" fill="#3e2945"/><g id="HELMET"><path d="m236.62 347.39q9.87 3.44 19.64 6.15 26.75 7.32 53.93 12.17 32 5.69 42.75 4a13.55 13.55 0 0 0 -1-1.87q-6-9.7-15.52-12.68-8.55-2.67-30.27-4.95-21.89-2.32-49.13-10.84a395.22 395.22 0 0 1 -55-22.08q-27.91-13.59-28.55-13.79-9.66-3-17.19-1.2a18.12 18.12 0 0 0 -7.8 3.81q8.55 7.59 36.87 20.58 25.09 11.49 51.25 20.72m73.76-335.87a49.36 49.36 0 0 0 -8.69 1.1q-2.78.52-7.54 3.56-4.72 2.86-6.08 3.84a163.57 163.57 0 0 1 59.36 7.61 165.06 165.06 0 0 1 51.72 26.43q-2.41-11.71-8.56-17.08t-21.84-11.9q-15.73-6.48-23.94-8.53-8.18-2.22-18.08-3.92-10.06-1.75-16.35-1.11z" fill="#77559f"/><path d="m363.16 349.24a48.47 48.47 0 0 0 .09-6.41 42.29 42.29 0 0 0 -.52-5 559.2 559.2 0 0 1 -103.8-21.16 559.85 559.85 0 0 1 -100.85-42.85 30.5 30.5 0 0 0 -3.08 3.73 43.38 43.38 0 0 0 -8.12 14.85l-1.24 4c-.8 3.69-.76 6 .13 6.82a14.93 14.93 0 0 0 2.73 2.94 18.12 18.12 0 0 1 7.8-3.81q7.53-1.83 17.19 1.2.63.19 28.55 13.79a395.22 395.22 0 0 0 55 22.08q27.25 8.52 49.13 10.84 21.72 2.28 30.27 4.95 9.51 3 15.52 12.68a13.55 13.55 0 0 1 1 1.87 13.35 13.35 0 0 0 3.18-.74c1.12-.23 2.4-2.1 3.83-5.59.47-1.13.94-2.43 1.4-3.91a33.7 33.7 0 0 0 1.79-10.28z" fill="#3e2945"/><path d="m153.73 276.6a3.42 3.42 0 0 0 -1.22-.55q-7.12-2.24-11.44 11.55a5.53 5.53 0 0 0 1.74 6.11c1.18 1.06 2.12 1.93 2.83 2.62l1.24-4a43.38 43.38 0 0 1 8.12-14.81 3.81 3.81 0 0 1 -1.27-.92m-25.63-175.48a8.34 8.34 0 0 0 .54 6.61 8.91 8.91 0 0 0 5.28 4.26 8.7 8.7 0 0 0 6.6-.55 8.32 8.32 0 0 0 4.21-5.12 8.91 8.91 0 0 0 -.49-6.76 8.76 8.76 0 0 0 -5.12-4.21 8.53 8.53 0 0 0 -11 5.77m238.23 241.81a3.44 3.44 0 0 0 -1.32-.24 12.25 12.25 0 0 1 -1.78.14 48.47 48.47 0 0 1 -.09 6.41 33.7 33.7 0 0 1 -1.81 10.21c-.46 1.48-.93 2.78-1.4 3.91 1.2-.09 2.63-.22 4.3-.39a5.53 5.53 0 0 0 4.91-4q4.32-13.79-2.81-16m117.65-137.14a8.82 8.82 0 0 0 -11.72-3.66 8.65 8.65 0 0 0 -4.42 5.22 8.1 8.1 0 0 0 .71 6.66 8.8 8.8 0 0 0 11.72 3.66 8.09 8.09 0 0 0 4.37-5.06 8.67 8.67 0 0 0 -.66-6.82m-48.72 21.8a150.1 150.1 0 0 0 6.56-33.77q2.87-38.72-16.42-75.39-27.48-52.75-84.35-70.55t-109.37 10q-52.56 27.35-70.3 84.08-17.84 57 9.76 109.48 1.8 3.69 4 7.33a509 509 0 0 0 182.31 57c2.47-1.2 4.94-2.46 7.44-3.76q52.56-27.39 70.4-84.41m-1-26.91a145.5 145.5 0 0 1 -5.52 24.88q-16.93 54.18-66.95 80.62c-1.8.94-3.59 1.83-5.35 2.67a499.62 499.62 0 0 1 -176.49-55.2q-1.47-2.55-2.77-5l.05-.16q-15.74-29.91-16.16-61.22a138.39 138.39 0 0 1 6.6-43.33q16.89-54 67.12-80l.2-.11q49.8-26.32 104-9.38t80.52 67.26q20.05 38.24 14.74 78.96z" fill="#2a1d30"/><path d="m125.75 90.82a83.31 83.31 0 0 0 -5.75 11.61q-2.42 6-6.92 20.44a60 60 0 0 0 -1.24 29q2.94 14.49 14.51 18.1c1 .33 3.21.84 6.48 1.51a171.68 171.68 0 0 1 7.22-35.31 167.14 167.14 0 0 1 22.19-45.92q-7.77-3-13.37-4.53-9.34-2.93-14.62-1.61a13.73 13.73 0 0 0 -8.54 6.71m2.89 16.91a8.34 8.34 0 0 1 -.54-6.61 8.53 8.53 0 0 1 11-5.77 8.76 8.76 0 0 1 5.12 4.21 8.91 8.91 0 0 1 .49 6.76 8.32 8.32 0 0 1 -4.21 5.12 8.7 8.7 0 0 1 -6.6.55 8.91 8.91 0 0 1 -5.28-4.26m361.95 110.58a99.56 99.56 0 0 0 1.76-12.84 13.14 13.14 0 0 0 -3-10.34q-3.75-4.12-13.09-7a113.62 113.62 0 0 0 -12.3-3.5 166.08 166.08 0 0 1 -7.96 50.37 174.52 174.52 0 0 1 -14.29 33.45q2.66 1 5 1.74 11.56 3.62 22.24-6.61a59.94 59.94 0 0 0 15.52-24.58q4.66-14.35 6.12-20.69m-11.64-16.68a8.34 8.34 0 0 1 5.11 4.2 8.67 8.67 0 0 1 .66 6.82 8.09 8.09 0 0 1 -4.37 5.06 8.8 8.8 0 0 1 -11.72-3.66 8.1 8.1 0 0 1 -.71-6.66 8.65 8.65 0 0 1 4.42-5.22 8.34 8.34 0 0 1 6.61-.54z" fill="#c4c4c4"/><path d="m288.05 20q-34 1.89-66.78 18.93-37 19.38-59 51.28a167.14 167.14 0 0 0 -22.19 45.92 171.68 171.68 0 0 0 -7.22 35.31q-4.53 46.76 18.54 90.83 3.06 5.82 6.67 11.48a559.85 559.85 0 0 0 100.85 42.85 559.2 559.2 0 0 0 103.8 21.16q6-2.62 12-5.63 43.88-23 66.89-63.76a174.52 174.52 0 0 0 14.33-33.37 166.08 166.08 0 0 0 7.93-50.38q.12-38.75-19.26-75.75-17.61-33.73-45.48-54.79a165.06 165.06 0 0 0 -51.72-26.43 163.57 163.57 0 0 0 -59.36-7.65m153.79 173.86a150.1 150.1 0 0 1 -6.56 33.77q-17.83 57-70.4 84.41c-2.5 1.3-5 2.56-7.44 3.76a509 509 0 0 1 -182.31-57q-2.17-3.64-4-7.33-27.55-52.47-9.73-109.47 17.74-56.7 70.3-84.09 52.5-27.74 109.37-10t84.35 70.55q19.29 36.68 16.42 75.4z" fill="#e2e2e2"/><path d="m298.42 227.08q45.61 3.15 67.75-.89 38-7.42 52.65-14.31a54.18 54.18 0 0 0 15.48-11.16q5.31-40.72-14.75-79-26.34-50.37-80.55-67.3t-104 9.38l-.2.11q-50.24 26-67.12 80a138.39 138.39 0 0 0 -6.6 43.33q23.9 16 60.15 27.33 28.88 9.06 77.19 12.51z" fill="#543966" opacity=".16"/><path d="m434.3 200.72a54.18 54.18 0 0 1 -15.48 11.16q-14.69 6.88-52.65 14.31-22.12 4-67.75.89-48.3-3.45-77.13-12.47-36.29-11.34-60.15-27.33.42 31.31 16.16 61.22l-.05.16q1.31 2.49 2.77 5a499.62 499.62 0 0 0 176.46 55.19c1.76-.84 3.55-1.73 5.35-2.67q50-26.45 66.95-80.62a145.5 145.5 0 0 0 5.52-24.84z" fill="#2a1d30" opacity=".16"/><path d="m300.25 76.31a12 12 0 0 0 2.2-7.72q-.45-12.29-11.68-10.53t-10.85 11.86a12.27 12.27 0 0 0 1.37 5.76q2.68 5.22 10.15 4.94 6-.23 8.81-4.31m-34-2.4q-3.78-3.51-13.4-3.16-33.15 1.25-57.17 38.66a146.88 146.88 0 0 0 -13.76 27.74q-4.53 12.12-4.36 16.77 0 .33 1.07 6.44 2.7 5.71 11.82 5.37 5.48-.19 42.48-41.43 36.21-40.36 36.13-42.52-.19-5.31-2.78-7.87z" fill="#fff"/></g><path d="m476.43 306.75 9.14 18.51 20.43 2.97-14.79 14.41 3.49 20.36-18.27-9.61-18.28 9.61 3.49-20.36-14.78-14.41 20.43-2.97z" fill="#ffe161"/><path d="m90.98 192.49 5.52 11.16 12.32 1.79-8.92 8.7 2.11 12.27-11.03-5.79-11.02 5.79 2.11-12.27-8.92-8.7 12.32-1.79z" fill="#ffe161"/></svg>