<svg id="Слой_2" height="512" viewBox="0 0 512 512" width="512" xmlns="http://www.w3.org/2000/svg"><g><g><path d="m354.984 140.982s12.923-5.626 19.972-16.766c11.589-18.315 7.354-40.086-.081-41.165-10.275-1.491-5.59 12.07-11.015 17.248 0 0 1.156-18.573-5.424-20.218-9.863-2.466-6.584 10.645-9.462 15.441 0 0-.319-16.204-7.551-15.195-10.602 1.479.247 24.657-17.26 29.588z" fill="#bd6031"/></g><g><path d="m332.341 104.089c4.188 4.307 8.889 8 14.636 9.408 6.228 1.526 13.009.024 18.372-3.491 8.59-5.631 13.333-17.206 7.858-27.291 6.983 2.311 12.964 23.775 1.749 41.5-7.049 11.14-19.972 16.766-19.972 16.766l-30.82-31.067c4.029-1.135 6.545-3.243 8.177-5.825z" fill="#a04525"/></g><g><path d="m343.196 81.305c1.971 1.577 2.857 4.16 3.19 6.662.732 5.504-.845 11.279-4.274 15.646s-8.664 7.27-14.185 7.864c2.986-3.2 6.416-6.984 7.552-11.211.989-3.678.381-7.592.891-11.367.509-3.775 3.046-7.126 6.826-7.594z" fill="#d58f66"/></g><g><path d="m356.187 143.746-2.411-5.528c.121-.053 12.184-5.426 18.631-15.615 7.58-11.98 8.12-26.159 4.779-33.418-1.002-2.177-2.104-3.058-2.745-3.15-2.776-.402-3.35.011-4.357 6.089-.59 3.564-1.26 7.605-4.143 10.356-.898.856-2.228 1.076-3.353.553s-1.815-1.682-1.739-2.92c.507-8.262-1.022-16.576-3.146-17.107-1.162-.29-2.039-.288-2.466.006-1.082.746-1.473 4.03-1.758 6.427-.324 2.72-.659 5.532-1.92 7.634-.692 1.153-2.065 1.708-3.362 1.362-1.299-.346-2.212-1.51-2.238-2.855-.081-3.812-1.144-10.257-3.166-11.98-.313-.267-.561-.342-.954-.288-2.007.28-2.534 2.258-3.195 8.468-.797 7.478-1.887 17.719-13.663 21.036l-1.635-5.805c7.3-2.057 8.423-7.619 9.301-15.87.641-6.012 1.366-12.826 8.359-13.802 2.103-.295 4.075.285 5.702 1.673.88.751 1.613 1.71 2.224 2.79.613-1.495 1.509-2.811 2.882-3.758 1.927-1.329 4.401-1.629 7.353-.891 3.426.856 5.389 4.095 6.492 7.961 1.382-3.229 4.028-5.863 9.648-5.05 2.986.433 5.599 2.776 7.358 6.598 4.105 8.92 3.65 25.237-5.161 39.164-7.459 11.789-20.754 17.675-21.317 17.92z" fill="#681d17"/></g><g><path d="m157.088 140.982s-12.923-5.626-19.972-16.766c-11.589-18.315-7.354-40.086.081-41.165 10.275-1.491 5.59 12.07 11.015 17.248 0 0-1.156-18.573 5.424-20.218 9.863-2.466 6.584 10.645 9.462 15.441 0 0 .319-16.204 7.551-15.195 10.602 1.479-.247 24.657 17.26 29.588z" fill="#bd6031"/></g><g><path d="m179.73 104.089c-4.188 4.307-8.889 8-14.636 9.408-6.228 1.526-13.009.024-18.372-3.491-8.59-5.631-13.333-17.206-7.858-27.291-6.983 2.311-12.964 23.775-1.749 41.5 7.049 11.14 19.972 16.766 19.972 16.766l30.82-31.067c-4.028-1.135-6.544-3.243-8.177-5.825z" fill="#a04525"/></g><g><path d="m168.876 81.305c-1.971 1.577-2.857 4.16-3.19 6.662-.732 5.504.845 11.279 4.274 15.646s8.664 7.27 14.185 7.864c-2.986-3.2-6.416-6.984-7.552-11.211-.989-3.678-.381-7.592-.891-11.367s-3.046-7.126-6.826-7.594z" fill="#d58f66"/></g><g><g><path d="m378.219 214.705s19.417-6.103 40.498-23.855c19.353-16.298 32.657-40.637 40.588-37.614 9.896 3.772-14.514 34.84-14.514 34.84s21.792-16.105 24.981-11.116c4.977 7.787-23.871 32.752-23.871 32.752s19.417-11.095 21.08-2.748c1.286 6.456-25.817 28.608-25.817 28.608s19.842-11.075 21.935-2.004-28.913 29.915-50.543 36.195-33.782 5.413-33.782 5.413z" fill="#bd6031"/></g><g><path d="m467.845 177.284c-2.979-2.063-30.467 18.749-28.709 21.678 3.437 5.728 32.517-19.042 28.709-21.678z" fill="#d58f66"/></g><g><path d="m464.916 205.993c-2.407-2.708-25.159 9.668-24.022 12.89 1.757 4.98 26.365-10.254 24.022-12.89z" fill="#d58f66"/></g><g><path d="m460.228 230.601c-1.499-3.299-22.004 7.93-20.214 10.839 2.344 3.808 21.679-7.617 20.214-10.839z" fill="#d58f66"/></g><g><path d="m460.228 153.555c-7.932-3.024-22.157 20.997-41.511 37.295-10.256 8.637-26.06 16.363-33.485 20.124-1.465 1.465 1.172 3.222 1.172 3.222s39.549-1.758 73.824-60.641z" fill="#d58f66"/></g><g opacity=".4"><path d="m412.556 269.761c-21.631 6.28-33.782 5.413-33.782 5.413l-.555-60.47s10.222-5.191 10.796-5.394c-3.252 15.445 2.558 35.285 25.2 38.206 25.2 3.252 45.522-14.632 45.522-14.632 8.942 8.13-25.55 30.598-47.181 36.877z" fill="#681d17"/></g><g><path d="m380.496 278.233c-1.173 0-1.826-.042-1.937-.05-1.567-.112-2.787-1.409-2.801-2.98l-.555-60.47c-.012-1.327.845-2.506 2.111-2.904.309-.099 19.208-6.231 39.46-23.285 7.889-6.644 14.733-14.637 20.772-21.69 9.421-11.003 16.227-18.952 22.833-16.436 2.005.765 3.426 2.326 4 4.398 1.419 5.124-2.946 13.984-7.708 21.613 5.433-2.985 11.913-5.424 15.374-1.449.796.913 1.707 2.514 1.531 4.953-.416 5.787-7.47 14.329-14.185 21.228 2.543-.446 4.958-.433 6.832.421 1.957.892 3.276 2.593 3.714 4.792.557 2.797-.587 7.299-13.296 19.49-.461.442-.922.88-1.381 1.312 2.436-.328 4.76-.232 6.638.602 2.156.956 3.586 2.724 4.138 5.112 1.641 7.112-8.657 16.048-17.585 22.293-11.003 7.696-24.436 14.392-35.056 17.475-17.218 4.999-28.58 5.575-32.899 5.575zm.759-61.397.508 55.34c4.65-.128 14.999-.969 29.953-5.31 10.029-2.912 22.781-9.283 33.28-16.626 11.828-8.273 15.579-14.202 15.165-15.995-.152-.66-.421-.827-.706-.954-3.035-1.348-11.833 2.135-16.822 4.914-1.365.761-3.084.352-3.962-.939-.878-1.292-.624-3.041.585-4.029 13.261-10.84 24.552-22.596 24.752-25.757-.073-.312-.158-.351-.283-.409-2.364-1.078-10.35 1.85-16.328 5.26-1.35.769-3.062.389-3.958-.88s-.682-3.01.495-4.024c9.571-8.245 23.229-22.359 23.629-27.926.017-.23 0-.428-.041-.522-2.249-.907-12.309 4.612-20.844 11.45-1.195.958-2.918.868-4.007-.211-1.089-1.078-1.196-2.801-.25-4.005 8.675-11.046 17.315-25.575 16.148-29.787-.066-.237-.11-.286-.336-.372-2.639-1.009-10.104 7.714-16.104 14.722-6.188 7.227-13.203 15.42-21.468 22.38-17.486 14.725-33.707 21.562-39.406 23.68z" fill="#681d17"/></g><g><g><path d="m408.259 292.119c-1.497 0-2.796-1.115-2.988-2.639-.208-1.652.963-3.161 2.615-3.369 20.865-2.628 40.632-13.335 54.231-29.376 1.077-1.271 2.98-1.427 4.25-.35s1.427 2.98.35 4.25c-14.564 17.18-35.733 28.647-58.079 31.461-.126.015-.253.023-.379.023z" fill="#681d17"/></g><g><path d="m428.788 302.471c-1.313 0-2.52-.864-2.898-2.189-.457-1.601.472-3.27 2.073-3.727 11.056-3.153 21.723-8.519 30.845-15.517 1.321-1.013 3.214-.764 4.228.557s.764 3.214-.557 4.228c-9.719 7.456-21.082 13.173-32.862 16.532-.277.078-.555.116-.829.116z" fill="#681d17"/></g></g></g><g><g><path d="m133.78 214.705s-19.417-6.103-40.498-23.855c-19.353-16.298-32.657-40.637-40.588-37.614-9.896 3.772 14.514 34.84 14.514 34.84s-21.792-16.105-24.981-11.116c-4.977 7.787 23.871 32.752 23.871 32.752s-19.417-11.095-21.08-2.748c-1.286 6.456 25.817 28.608 25.817 28.608s-19.842-11.075-21.935-2.004 28.913 29.915 50.543 36.195c21.631 6.28 33.782 5.413 33.782 5.413z" fill="#bd6031"/></g><g><path d="m44.155 177.284c2.979-2.063 30.467 18.749 28.709 21.678-3.437 5.728-32.518-19.042-28.709-21.678z" fill="#d58f66"/></g><g><path d="m47.084 205.993c2.407-2.708 25.159 9.668 24.022 12.89-1.758 4.98-26.365-10.254-24.022-12.89z" fill="#d58f66"/></g><g><path d="m51.771 230.601c1.499-3.299 22.004 7.93 20.214 10.839-2.344 3.808-21.678-7.617-20.214-10.839z" fill="#d58f66"/></g><g><path d="m51.771 153.555c7.932-3.024 22.157 20.997 41.511 37.295 10.256 8.637 26.06 16.363 33.485 20.124 1.465 1.465-1.172 3.222-1.172 3.222s-39.548-1.758-73.824-60.641z" fill="#d58f66"/></g><g opacity=".4"><path d="m99.443 269.761c21.631 6.28 33.782 5.413 33.782 5.413l.555-60.47s-10.222-5.191-10.796-5.394c3.252 15.445-2.558 35.285-25.2 38.206-25.2 3.252-45.522-14.632-45.522-14.632-8.941 8.13 25.551 30.598 47.181 36.877z" fill="#681d17"/></g><g><path d="m131.504 278.233c-4.318 0-15.679-.576-32.901-5.575-10.62-3.083-24.052-9.779-35.056-17.475-8.928-6.245-19.226-15.181-17.585-22.293.551-2.388 1.982-4.155 4.137-5.112 1.878-.833 4.202-.93 6.638-.602-.459-.432-.92-.869-1.38-1.312-12.71-12.191-13.854-16.693-13.296-19.49.438-2.199 1.757-3.9 3.714-4.792 1.873-.854 4.288-.867 6.832-.421-6.715-6.899-13.769-15.44-14.185-21.228-.175-2.439.736-4.04 1.531-4.953 3.459-3.975 9.94-1.537 15.374 1.449-4.762-7.63-9.127-16.49-7.707-21.613.574-2.071 1.994-3.633 4-4.398 6.605-2.517 13.412 5.432 22.833 16.435 6.039 7.053 12.883 15.046 20.773 21.69 20.383 17.165 39.271 23.226 39.46 23.285 1.266.398 2.124 1.577 2.111 2.904l-.555 60.47c-.014 1.571-1.234 2.869-2.801 2.98-.111.008-.765.051-1.937.051zm-77.197-45.242c-.7 0-1.299.093-1.763.3-.285.127-.553.294-.706.954-.414 1.793 3.337 7.722 15.165 15.995 10.499 7.343 23.251 13.714 33.28 16.626 14.952 4.341 25.3 5.181 29.953 5.31l.508-55.339c-5.699-2.118-21.92-8.955-39.406-23.68-8.266-6.961-15.28-15.153-21.469-22.381-5.999-7.006-13.461-15.732-16.103-14.722-.226.086-.27.135-.336.373-1.169 4.217 7.472 18.745 16.147 29.786.946 1.204.839 2.927-.249 4.005s-2.812 1.169-4.007.212c-8.538-6.836-18.592-12.354-20.844-11.45-.041.094-.057.292-.041.522.4 5.567 14.058 19.682 23.629 27.926 1.177 1.014 1.391 2.755.495 4.024-.896 1.268-2.609 1.648-3.958.88-5.978-3.41-13.964-6.338-16.328-5.26-.125.057-.211.096-.283.409.199 3.163 11.491 14.919 24.752 25.757 1.21.989 1.463 2.737.586 4.029s-2.597 1.7-3.963.94c-4.225-2.356-11.183-5.216-15.059-5.216z" fill="#681d17"/></g><g><g><path d="m103.74 292.119c-.126 0-.253-.008-.38-.024-22.346-2.814-43.514-14.281-58.079-31.461-1.077-1.27-.92-3.173.35-4.25s3.173-.92 4.25.35c13.6 16.042 33.366 26.749 54.231 29.376 1.652.208 2.823 1.716 2.615 3.369-.19 1.526-1.489 2.64-2.987 2.64z" fill="#681d17"/></g><g><path d="m83.212 302.471c-.274 0-.552-.038-.828-.116-11.779-3.359-23.143-9.076-32.863-16.532-1.321-1.014-1.571-2.907-.557-4.228s2.907-1.57 4.228-.557c9.123 6.999 19.789 12.364 30.845 15.517 1.602.457 2.53 2.125 2.073 3.727-.378 1.325-1.585 2.189-2.898 2.189z" fill="#681d17"/></g></g></g><g><g><g><path d="m227.694 435.239c-1.665 0-3.016-1.35-3.016-3.016v-44.437c0-1.665 1.35-3.016 3.016-3.016 1.665 0 3.016 1.35 3.016 3.016v44.437c-.001 1.666-1.351 3.016-3.016 3.016z" fill="#681d17"/></g><g><path d="m212.246 428.835c-1.074 0-2.113-.575-2.658-1.587-.79-1.467-.241-3.295 1.225-4.085l15.451-8.32c.925-.498 2.042-.479 2.949.05l14.262 8.32c1.439.839 1.924 2.686 1.085 4.124-.839 1.439-2.685 1.925-4.124 1.085l-12.802-7.468-13.962 7.518c-.454.247-.944.363-1.426.363z" fill="#681d17"/></g></g><g><g><path d="m290.686 435.239c-1.665 0-3.016-1.35-3.016-3.016v-44.437c0-1.665 1.35-3.016 3.016-3.016 1.665 0 3.016 1.35 3.016 3.016v44.437c-.001 1.666-1.351 3.016-3.016 3.016z" fill="#681d17"/></g><g><path d="m275.237 428.835c-1.074 0-2.113-.575-2.658-1.587-.79-1.467-.241-3.295 1.225-4.085l15.451-8.32c.925-.498 2.042-.479 2.949.05l14.262 8.32c1.439.839 1.924 2.686 1.085 4.124s-2.685 1.924-4.124 1.085l-12.801-7.468-13.962 7.518c-.454.247-.944.363-1.427.363z" fill="#681d17"/></g></g></g><g><path d="m378.493 210.195c9.332 92.583-11.928 178.495-122.264 178.495-107.353 0-133.136-86.08-122.264-178.495 8.946-76.042 54.739-117.855 122.264-117.855s114.511 40.939 122.264 117.855z" fill="#bd6031"/></g><g><path d="m259.635 109.6c48.382 0 86.679 19.22 108.609 56.058-18.646-48.075-58.997-73.318-112.015-73.318-67.524 0-113.318 41.813-122.264 117.855-.323 2.747-.612 5.488-.869 8.222 11.941-70.307 58.772-108.817 126.539-108.817z" fill="#d58f66"/></g><g><ellipse cx="203.776" cy="191.974" fill="#fdce76" rx="44.019" ry="42.724"/></g><g><ellipse cx="308.631" cy="191.974" fill="#fdce76" rx="44.019" ry="42.724"/></g><g><path d="m155.884 143.746c-.562-.245-13.858-6.132-21.316-17.919-8.812-13.927-9.267-30.243-5.162-39.164 1.758-3.821 4.371-6.164 7.358-6.598 5.623-.815 8.267 1.821 9.648 5.049 1.103-3.866 3.066-7.104 6.492-7.961 2.951-.738 5.424-.438 7.353.891 1.373.947 2.269 2.263 2.882 3.758.611-1.08 1.344-2.04 2.224-2.79 1.627-1.388 3.599-1.966 5.702-1.673 6.993.975 7.718 7.79 8.359 13.802.879 8.251 2.001 13.813 9.302 15.87l-1.635 5.805c-11.776-3.317-12.867-13.558-13.664-21.036-.661-6.21-1.188-8.188-3.195-8.468-.392-.053-.641.021-.955.289-2.032 1.733-3.089 8.172-3.164 11.979-.027 1.344-.939 2.509-2.238 2.855-1.3.349-2.671-.209-3.362-1.362-1.261-2.102-1.596-4.914-1.92-7.634-.286-2.398-.677-5.682-1.758-6.427-.427-.294-1.302-.297-2.466-.006-2.132.533-3.66 8.846-3.146 17.106.077 1.239-.613 2.398-1.738 2.922-1.125.523-2.457.304-3.354-.553-2.883-2.752-3.552-6.792-4.143-10.356-1.008-6.078-1.584-6.491-4.357-6.089-.64.093-1.743.974-2.745 3.151-3.341 7.259-2.801 21.438 4.779 33.418 6.478 10.239 18.506 15.561 18.627 15.614z" fill="#681d17"/></g><g><path d="m256.066 251.007c-49.39 0-96.279 24.959-116.275 56.992 14.472 47.398 49.68 80.69 116.438 80.69 68.384 0 102.542-33.007 116.417-80.144-20.319-34.361-66.976-57.538-116.58-57.538z" fill="#fdce76"/></g><g><g><ellipse cx="205.183" cy="198.844" fill="#681d17" rx="19.082" ry="19.082" transform="matrix(.893 -.451 .451 .893 -67.601 113.827)"/></g><g><ellipse cx="199.704" cy="203.325" fill="#fff" rx="6.323" ry="6.323" transform="matrix(.541 -.841 .841 .541 -79.342 261.259)"/></g><g><ellipse cx="212.222" cy="191.126" fill="#fff" rx="3.817" ry="4.269" transform="matrix(.971 -.239 .239 .971 -39.492 56.191)"/></g></g><g><g><ellipse cx="307.424" cy="198.844" fill="#681d17" rx="19.082" ry="19.082" transform="matrix(.518 -.856 .856 .518 -21.885 358.857)"/></g><g><ellipse cx="301.945" cy="203.325" fill="#fff" rx="6.323" ry="6.323" transform="matrix(.729 -.685 .685 .729 -57.306 262.07)"/></g><g><ellipse cx="314.464" cy="191.126" fill="#fff" rx="3.817" ry="4.269" transform="matrix(.971 -.239 .239 .971 -36.535 80.598)"/></g></g><g><path d="m256.229 391.705c-40.939 0-72.698-12.371-94.395-36.77-34.988-39.346-36.095-100.619-30.863-145.092 4.499-38.245 17.985-68.283 40.083-89.277 21.512-20.438 50.965-31.241 85.176-31.241 34.46 0 64.063 10.685 85.609 30.901 22.438 21.051 35.779 51.22 39.655 89.667 6.734 66.813-3.721 116.029-31.076 146.28-21.321 23.577-53.011 35.532-94.189 35.532zm0-296.35c-67.185 0-110.656 41.986-119.269 115.192-5.088 43.247-4.121 102.706 29.38 140.379 20.503 23.057 50.746 34.747 89.889 34.747 39.401 0 69.586-11.287 89.715-33.547 26.163-28.933 36.105-76.584 29.548-141.63-7.375-73.173-50.845-115.141-119.263-115.141z" fill="#681d17"/></g><g opacity=".4"><path d="m370.665 305.358c-20.664 32.388-56.599 55.919-114.665 55.919-56.699 0-92.98-23.772-114.179-56.368-.703 1.022-1.382 2.052-2.03 3.09 9.148 29.96 26.585 54.279 55.034 68.122 17.039 5.969 37.29 11.384 61.175 11.384 25.178 0 46.194-5.57 63.609-11.823 27.829-13.825 44.381-37.73 53.037-67.137-.635-1.072-1.295-2.135-1.981-3.187z" fill="#681d17"/></g><g><g><g><g><g><g><path d="m204.931 293.244c-1.665 0-3.016-1.35-3.016-3.016v-11.885c0-1.665 1.35-3.016 3.016-3.016 1.665 0 3.016 1.35 3.016 3.016v11.885c-.001 1.666-1.351 3.016-3.016 3.016z" fill="#681d17"/></g><g><path d="m239.397 293.244c-1.665 0-3.016-1.35-3.016-3.016v-11.885c0-1.665 1.35-3.016 3.016-3.016 1.665 0 3.016 1.35 3.016 3.016v11.885c0 1.666-1.35 3.016-3.016 3.016z" fill="#681d17"/></g></g><g><g><path d="m273.039 293.244c-1.665 0-3.016-1.35-3.016-3.016v-11.885c0-1.665 1.35-3.016 3.016-3.016 1.665 0 3.016 1.35 3.016 3.016v11.885c0 1.666-1.35 3.016-3.016 3.016z" fill="#681d17"/></g><g><path d="m307.506 293.244c-1.665 0-3.016-1.35-3.016-3.016v-11.885c0-1.665 1.35-3.016 3.016-3.016 1.665 0 3.016 1.35 3.016 3.016v11.885c0 1.666-1.35 3.016-3.016 3.016z" fill="#681d17"/></g></g><g><path d="m222.758 305.129c-1.665 0-3.016-1.35-3.016-3.016v-11.885c0-1.665 1.35-3.016 3.016-3.016 1.665 0 3.016 1.35 3.016 3.016v11.885c0 1.666-1.35 3.016-3.016 3.016z" fill="#681d17"/></g><g><path d="m256.037 305.129c-1.665 0-3.016-1.35-3.016-3.016v-11.885c0-1.665 1.35-3.016 3.016-3.016s3.016 1.35 3.016 3.016v11.885c0 1.666-1.351 3.016-3.016 3.016z" fill="#681d17"/></g><g><path d="m290.504 305.129c-1.665 0-3.016-1.35-3.016-3.016v-11.885c0-1.665 1.35-3.016 3.016-3.016s3.016 1.35 3.016 3.016v11.885c-.001 1.666-1.351 3.016-3.016 3.016z" fill="#681d17"/></g></g></g><g><g><g><g><path d="m239.397 325.334c-1.665 0-3.016-1.35-3.016-3.016v-11.885c0-1.665 1.35-3.016 3.016-3.016 1.665 0 3.016 1.35 3.016 3.016v11.885c0 1.666-1.35 3.016-3.016 3.016z" fill="#681d17"/></g></g><g><g><path d="m273.039 325.334c-1.665 0-3.016-1.35-3.016-3.016v-11.885c0-1.665 1.35-3.016 3.016-3.016 1.665 0 3.016 1.35 3.016 3.016v11.885c0 1.666-1.35 3.016-3.016 3.016z" fill="#681d17"/></g></g><g><path d="m256.037 337.22c-1.665 0-3.016-1.35-3.016-3.016v-11.885c0-1.665 1.35-3.016 3.016-3.016s3.016 1.35 3.016 3.016v11.885c0 1.665-1.351 3.016-3.016 3.016z" fill="#681d17"/></g></g></g></g></g><g><g><g><g><g><g><g><path d="m244.025 117.028c-1.665 0-3.016-1.35-3.016-3.016v-9.127c0-1.665 1.35-3.016 3.016-3.016s3.016 1.35 3.016 3.016v9.127c-.001 1.666-1.351 3.016-3.016 3.016z" fill="#fdce76"/></g></g><g><g><path d="m268.412 117.028c-1.665 0-3.016-1.35-3.016-3.016v-9.127c0-1.665 1.35-3.016 3.016-3.016s3.016 1.35 3.016 3.016v9.127c0 1.666-1.35 3.016-3.016 3.016z" fill="#fdce76"/></g></g><g><path d="m231.962 126.155c-1.665 0-3.016-1.35-3.016-3.016v-9.127c0-1.665 1.35-3.016 3.016-3.016 1.665 0 3.016 1.35 3.016 3.016v9.127c0 1.666-1.351 3.016-3.016 3.016z" fill="#fdce76"/></g><g><path d="m256.087 126.155c-1.665 0-3.016-1.35-3.016-3.016v-9.127c0-1.665 1.35-3.016 3.016-3.016 1.665 0 3.016 1.35 3.016 3.016v9.127c-.001 1.666-1.351 3.016-3.016 3.016z" fill="#fdce76"/></g><g><path d="m281.073 126.155c-1.665 0-3.016-1.35-3.016-3.016v-9.127c0-1.665 1.35-3.016 3.016-3.016s3.016 1.35 3.016 3.016v9.127c0 1.666-1.351 3.016-3.016 3.016z" fill="#fdce76"/></g></g></g></g><g><g><g><g><g><path d="m219.038 140.026c-1.665 0-3.016-1.35-3.016-3.016v-9.127c0-1.665 1.35-3.016 3.016-3.016 1.665 0 3.016 1.35 3.016 3.016v9.127c0 1.666-1.35 3.016-3.016 3.016z" fill="#fdce76"/></g><g><path d="m244.025 140.026c-1.665 0-3.016-1.35-3.016-3.016v-9.127c0-1.665 1.35-3.016 3.016-3.016s3.016 1.35 3.016 3.016v9.127c-.001 1.666-1.351 3.016-3.016 3.016z" fill="#fdce76"/></g></g><g><g><path d="m268.412 140.026c-1.665 0-3.016-1.35-3.016-3.016v-9.127c0-1.665 1.35-3.016 3.016-3.016s3.016 1.35 3.016 3.016v9.127c0 1.666-1.35 3.016-3.016 3.016z" fill="#fdce76"/></g><g><path d="m293.399 140.026c-1.665 0-3.016-1.35-3.016-3.016v-9.127c0-1.665 1.35-3.016 3.016-3.016s3.016 1.35 3.016 3.016v9.127c-.001 1.666-1.351 3.016-3.016 3.016z" fill="#fdce76"/></g></g><g><path d="m231.962 149.153c-1.665 0-3.016-1.35-3.016-3.016v-9.127c0-1.665 1.35-3.016 3.016-3.016 1.665 0 3.016 1.35 3.016 3.016v9.127c0 1.666-1.351 3.016-3.016 3.016z" fill="#fdce76"/></g><g><path d="m256.087 149.153c-1.665 0-3.016-1.35-3.016-3.016v-9.127c0-1.665 1.35-3.016 3.016-3.016 1.665 0 3.016 1.35 3.016 3.016v9.127c-.001 1.666-1.351 3.016-3.016 3.016z" fill="#fdce76"/></g><g><path d="m281.073 149.153c-1.665 0-3.016-1.35-3.016-3.016v-9.127c0-1.665 1.35-3.016 3.016-3.016s3.016 1.35 3.016 3.016v9.127c0 1.666-1.351 3.016-3.016 3.016z" fill="#fdce76"/></g></g></g></g></g></g><g><g><path d="m256.112 201.448c-4.713 0-17.794 10.997-17.794 15.711 0 4.713 8.368 18.853 17.794 18.853s17.794-14.139 17.794-18.853-13.081-15.711-17.794-15.711z" fill="#fccb32"/></g><g><path d="m256.112 239.027c-11.358 0-20.81-15.878-20.81-21.868 0-6.633 14.591-18.726 20.81-18.726s20.81 12.093 20.81 18.726c0 5.99-9.452 21.868-20.81 21.868zm0-34.563c-3.317 0-14.505 9.627-14.779 12.717.001 3.422 7.335 15.815 14.779 15.815s14.779-12.393 14.779-15.837c-.274-3.069-11.462-12.695-14.779-12.695z" fill="#681d17"/></g><g><path d="m256.93 228.093c-6.309 0-16.317-10.083-19.234-13.173l4.385-4.14c5.148 5.449 12.343 11.283 14.849 11.283 2.452 0 9.042-5.777 13.659-11.172l4.584 3.919c-2.664 3.115-11.852 13.283-18.243 13.283z" fill="#681d17"/></g></g></g></svg>