<?xml version="1.0" encoding="UTF-8"?>
<!-- Generator: Adobe Illustrator 25.1.0, SVG Export Plug-In . SVG Version: 6.00 Build 0)  -->
<svg xmlns="http://www.w3.org/2000/svg" xmlns:xlink="http://www.w3.org/1999/xlink" version="1.1" id="Capa_1" x="0px" y="0px" viewBox="0 0 500 500" style="enable-background:new 0 0 500 500;" xml:space="preserve" width="512" height="512">
<g>
	<g>
		<path style="fill:#251426;" d="M61.04,134.382c-0.084-0.218-8.526-21.867-21.159-26.99c-3.049-1.235-6.13-1.393-9.182-0.481    c2.762,7.068,3.022,14.865-1.255,19.377c-2.744,2.892-5.94,3.935-8.784,2.865c-2.909-1.099-4.877-4.232-5.013-7.981    c-0.222-6.171,4.253-11.987,11.969-15.56c0.002-0.002,0.007-0.003,0.009-0.005c-0.724-1.5-1.586-2.975-2.583-4.387    c-2.328-3.298-10.901-13.632-23.415-8.087c-0.575,0.258-1.264-0.003-1.527-0.589c-0.26-0.585,0.005-1.269,0.59-1.528    c9.53-4.228,19.345-0.91,26.244,8.87c1.068,1.514,2.027,3.163,2.839,4.884c3.649-1.162,7.334-1.003,10.98,0.477    c13.566,5.502,22.091,27.375,22.449,28.304c0.228,0.597-0.07,1.267-0.665,1.496c-0.138,0.052-0.278,0.077-0.416,0.077    C61.655,135.125,61.216,134.842,61.04,134.382z M17.964,121.089c0.102,2.814,1.482,5.128,3.515,5.897    c1.945,0.74,4.18-0.076,6.282-2.293c3.287-3.464,3.418-10.264,0.792-16.962C21.732,110.9,17.776,115.891,17.964,121.089z"/>
		<path style="fill:#F5B2AF;" d="M366.893,302.4c0,0,102.441-9.043,110.918-23.178c8.477-14.135-27.607-87.224-37.808-90.396    S306.689,187.658,366.893,302.4z"/>
		<path style="fill:#F194A0;" d="M409.574,149.519c0,0,11.438-9.156,12.898-25.634c1.459-16.478-30.636-34.594-30.205-42.193    c0,0-52.951,29.89-18.524,64.352"/>
		<path style="fill:#F5B2AF;" d="M347.254,139.16c0,0-274.79-169.311-326.961,60.809S301.896,326.206,426.9,290.69    C510.364,266.976,425.449,77.017,347.254,139.16z"/>
		<g>
			<path style="fill:#F5B2AF;" d="M346.982,144.587c0,0-1.492-48.403-37.876-35.538c-26.436,9.348-36.767-8.87-36.767-8.87     s-29.985,75.084,40.21,74.907"/>
			<path style="fill:#251426;" d="M312.303,176.244c0.726,0.001,1.407-0.438,1.405-1.162c-0.002-0.638-0.52-1.155-1.158-1.155     h-0.002c-0.081,0-0.165,0-0.244,0c-18.479,0-31.467-5.332-38.611-15.849c-12.473-18.362-3.739-47.543-1.013-55.444     c3.671,4.548,15.045,15.202,36.815,7.507c8.967-3.171,16.481-2.753,22.333,1.252c13.102,8.963,13.991,32.989,13.998,33.231     c0.02,0.638,0.439,1.149,1.194,1.122c0.638-0.02,1.14-0.554,1.122-1.194c-0.032-1.034-0.943-25.449-15.007-35.07     c-6.494-4.443-14.71-4.957-24.414-1.523c-25.156,8.891-34.969-7.645-35.374-8.353c-0.222-0.386-0.647-0.593-1.088-0.581     c-0.443,0.032-0.83,0.312-0.993,0.725c-0.606,1.514-14.633,37.336,0.511,59.63C279.376,170.571,293.014,176.244,312.303,176.244z     "/>
		</g>
		<path style="fill:#251426;" d="M435.619,292.362c10.152,0.001,27.355-1.815,42.837-12.178c16.264-10.887,9.017-45.679-3.339-65.83    c-6.902-11.255-14.145-15.866-19.888-12.662c-18.305,10.241-28.534,8.279-32.904,7.443c-0.875-0.167-1.516-0.26-2.025-0.276    c-0.638,0.017-1.142,0.55-1.126,1.189c0.018,0.629,0.532,1.128,1.158,1.128c0.016-0.001,0.032-0.003,0.054-0.001    c0.276,0,0.873,0.114,1.502,0.235c4.624,0.884,15.436,2.957,34.471-7.696c4.436-2.478,10.709,1.948,16.782,11.85    c11.591,18.903,18.92,52.724,4.024,62.695c-22.962,15.371-49.817,11.329-50.084,11.288c-0.615-0.107-1.224,0.329-1.326,0.961    c-0.1,0.632,0.33,1.226,0.964,1.326C426.815,291.85,430.221,292.362,435.619,292.362z"/>
		<path style="fill:#FAD5C2;" d="M463.675,199.297c0,0-28.88,7.722-29.288,39.979c-0.408,32.257,43.209,65.875,54.745,42.806    C500.668,259.014,514.501,184.67,463.675,199.297z"/>
		<path style="fill:#251426;" d="M471.66,263.187c0.075,0,0.152-0.007,0.226-0.021c0.629-0.124,1.036-0.734,0.912-1.361    c-0.256-1.296-6.386-31.772-16.868-34.847c-2.719-0.795-5.436,0.182-8.064,2.916c-0.443,0.461-0.43,1.194,0.032,1.638    c0.457,0.443,1.192,0.432,1.638-0.032c2.011-2.091,3.882-2.848,5.743-2.299c7.591,2.227,13.581,24.629,15.249,33.072    C470.635,262.805,471.119,263.187,471.66,263.187z"/>
		<path style="fill:#251426;" d="M476.847,254.309c0.204,0,0.407-0.052,0.593-0.163c0.55-0.327,0.731-1.038,0.403-1.588    c-5.786-9.719-7.809-17.903-6.013-24.325c1.545-5.517,5.393-7.615,5.556-7.702c0.563-0.299,0.78-0.998,0.484-1.562    c-0.294-0.564-0.991-0.783-1.556-0.491c-0.197,0.103-4.85,2.586-6.691,9.056c-2.011,7.068,0.084,15.885,6.23,26.209    C476.069,254.107,476.453,254.309,476.847,254.309z"/>
		<path style="fill:#251426;" d="M380.78,198.902c1.943,0.001,3.074-0.897,3.703-1.712c4.343-5.649-3.251-24.371-4.131-26.488    c-0.247-0.594-0.921-0.87-1.516-0.624c-0.59,0.245-0.869,0.923-0.624,1.513c3.126,7.517,7.092,20.728,4.434,24.186    c-0.328,0.428-0.932,0.979-2.502,0.763c-8.333-1.125-14.084-18.594-15.597-25.231c-0.143-0.62-0.744-1.022-1.387-0.871    c-0.622,0.141-1.013,0.762-0.871,1.387c0.235,1.037,5.929,25.442,17.542,27.011C380.169,198.881,380.483,198.902,380.78,198.902z"/>
		<path style="fill:#251426;" d="M416.936,190.593c1.943,0,3.076-0.898,3.703-1.714c4.345-5.651-3.251-24.371-4.131-26.488    c-0.247-0.594-0.921-0.87-1.516-0.624c-0.59,0.245-0.869,0.923-0.624,1.513c3.126,7.516,7.094,20.728,4.434,24.187    c-0.328,0.428-0.948,0.981-2.502,0.763c-10.034-1.356-15.543-24.992-15.597-25.231c-0.14-0.622-0.758-1.024-1.387-0.871    c-0.624,0.141-1.013,0.762-0.871,1.387c0.235,1.037,5.929,25.441,17.542,27.011C416.326,190.573,416.64,190.593,416.936,190.593z"/>
		<path style="fill:#251426;" d="M324.129,159.9c0.145,0,0.292-0.027,0.432-0.084c0.457-0.184,0.746-0.636,0.724-1.125    c-0.461-10.421-3.999-18.482-10.512-23.959c-11.747-9.881-28.816-7.819-29.54-7.725c-0.636,0.081-1.084,0.662-1.002,1.296    c0.081,0.633,0.645,1.078,1.296,1.002c0.163-0.021,16.809-2.019,27.767,7.209c5.314,4.474,8.476,10.88,9.424,19.071    c-5.689-5.636-20.741-18.487-31.875-9.528c-0.498,0.402-0.577,1.13-0.176,1.629c0.403,0.5,1.131,0.573,1.629,0.176    c11.982-9.641,30.775,11.429,30.965,11.643C323.484,159.762,323.803,159.9,324.129,159.9z"/>
		<path style="fill:#F5B2AF;" d="M339.599,302.969c0,0-30.707,83.559-30.17,103.777l-35.395-1.475c0,0-28.509-99.611-9.539-121.145    C283.465,262.593,345.432,273.386,339.599,302.969z"/>
		<path style="fill:#F5B2AF;" d="M408.254,298.326c0,0-25.589,88.292-23.605,108.421l-34.463-1.684c0,0-35.572-97.313-18.193-120.15    C349.372,262.074,411.953,268.401,408.254,298.326z"/>
		<path style="fill:#F5B2AF;" d="M107.477,309.132c0,0-31.848,86.232-31.311,106.451l-34.253-4.149c0,0-28.509-99.611-9.539-121.145    C51.344,268.756,113.31,279.549,107.477,309.132z"/>
		<path style="fill:#F5B2AF;" d="M176.132,304.489c0,0-25.589,88.292-23.605,108.421l-34.463-1.684c0,0-35.572-97.313-18.193-120.15    C117.251,268.237,179.831,274.564,176.132,304.489z"/>
		<path style="fill:#251426;" d="M151.513,346.575c8.652,0,17.909-0.408,27.482-1.445c0.636-0.069,1.095-0.64,1.027-1.276    c-0.068-0.638-0.654-1.087-1.276-1.027c-44.61,4.829-82.3-4.081-82.676-4.171c-0.627-0.156-1.246,0.234-1.398,0.854    c-0.149,0.622,0.233,1.248,0.855,1.397C95.826,340.978,119.503,346.575,151.513,346.575z"/>
		<path style="fill:#251426;" d="M341.386,332.793c16.579,0,46.965-4.47,67.812-33.796c0.371-0.521,0.249-1.244-0.271-1.615    c-0.52-0.369-1.244-0.25-1.615,0.274c-28.979,40.762-76.883,32.096-77.362,32.004c-0.633-0.114-1.237,0.292-1.357,0.92    c-0.12,0.628,0.292,1.235,0.918,1.356C329.659,331.963,334.242,332.793,341.386,332.793z"/>
	</g>
	<path style="fill:#251426;" d="M85.248,130.591c0.471,0,0.912-0.287,1.086-0.753c1.764-4.731,8.906-6.404,8.978-6.42   c0.622-0.141,1.013-0.761,0.873-1.386c-0.143-0.622-0.767-1.011-1.382-0.874c-0.344,0.077-8.435,1.959-10.641,7.87   c-0.224,0.599,0.081,1.267,0.681,1.49C84.977,130.567,85.113,130.591,85.248,130.591z"/>
	<path style="fill:#251426;" d="M98.104,108.355c0.471,0,0.912-0.287,1.086-0.753c1.764-4.731,8.903-6.404,8.976-6.42   c0.622-0.141,1.013-0.762,0.873-1.386c-0.14-0.622-0.771-1.018-1.382-0.874c-0.344,0.077-8.433,1.959-10.638,7.87   c-0.224,0.599,0.081,1.267,0.681,1.49C97.832,108.331,97.968,108.355,98.104,108.355z"/>
	<path style="fill:#251426;" d="M77.248,119.886c0.471,0,0.912-0.287,1.086-0.753c1.764-4.731,8.903-6.404,8.976-6.42   c0.622-0.141,1.013-0.762,0.873-1.386c-0.14-0.622-0.767-1.017-1.382-0.874c-0.344,0.077-8.433,1.959-10.638,7.87   c-0.224,0.599,0.081,1.267,0.681,1.49C76.976,119.862,77.112,119.886,77.248,119.886z"/>
	<path style="fill:#251426;" d="M110.683,121.183c0.29,0,0.579-0.107,0.803-0.323c3.633-3.497,10.801-1.914,10.871-1.898   c0.624,0.15,1.244-0.247,1.389-0.87c0.143-0.623-0.247-1.244-0.869-1.388c-0.339-0.079-8.456-1.887-12.998,2.486   c-0.461,0.443-0.475,1.176-0.032,1.638C110.077,121.064,110.38,121.183,110.683,121.183z"/>
	<path style="fill:#251426;" d="M132.324,110.949c0.29,0,0.579-0.107,0.803-0.323c3.637-3.495,10.799-1.914,10.871-1.897   c0.624,0.147,1.244-0.245,1.389-0.87c0.143-0.623-0.247-1.244-0.869-1.388c-0.342-0.079-8.451-1.884-12.998,2.485   c-0.461,0.443-0.475,1.176-0.032,1.638C131.716,110.831,132.021,110.949,132.324,110.949z"/>
	<path style="fill:#251426;" d="M116.65,104.783c0.29,0,0.579-0.107,0.803-0.323c3.635-3.501,10.799-1.915,10.869-1.898   c0.629,0.144,1.244-0.245,1.389-0.87c0.143-0.623-0.247-1.244-0.869-1.388c-0.342-0.08-8.449-1.889-12.996,2.486   c-0.461,0.443-0.475,1.176-0.032,1.638C116.044,104.664,116.347,104.783,116.65,104.783z"/>
	<path style="fill:#251426;" d="M122.618,94.137c0.29,0,0.579-0.107,0.803-0.323c3.637-3.502,10.797-1.915,10.869-1.898   c0.629,0.15,1.244-0.247,1.389-0.87c0.143-0.623-0.247-1.244-0.869-1.388c-0.342-0.079-8.449-1.888-12.996,2.486   c-0.461,0.443-0.475,1.176-0.032,1.638C122.011,94.018,122.315,94.137,122.618,94.137z"/>
	<path style="fill:#251426;" d="M140.642,99.672c0.29,0,0.579-0.107,0.803-0.323c3.651-3.512,10.799-1.914,10.869-1.897   c0.627,0.152,1.244-0.245,1.389-0.869c0.143-0.623-0.244-1.245-0.869-1.389c-0.342-0.079-8.449-1.888-12.996,2.485   c-0.461,0.443-0.475,1.176-0.032,1.638C140.033,99.553,140.339,99.672,140.642,99.672z"/>
	<path style="fill:#251426;" d="M92.225,139.589c0.482,0,0.932-0.303,1.097-0.786c1.629-4.798,8.711-6.663,8.784-6.681   c0.62-0.158,0.993-0.789,0.835-1.409c-0.158-0.62-0.783-0.991-1.409-0.835c-0.342,0.087-8.374,2.207-10.403,8.181   c-0.206,0.605,0.12,1.263,0.724,1.469C91.976,139.57,92.1,139.589,92.225,139.589z"/>
	<path style="fill:#251426;" d="M67.442,140.257c0.471,0,0.912-0.287,1.086-0.753c1.769-4.748,8.903-6.403,8.974-6.419   c0.624-0.14,1.018-0.76,0.878-1.384c-0.143-0.623-0.753-1.015-1.384-0.875c-0.344,0.077-8.435,1.959-10.638,7.869   c-0.224,0.599,0.081,1.267,0.681,1.491C67.17,140.233,67.308,140.257,67.442,140.257z"/>
	<path style="fill:#251426;" d="M61.196,158.292c0.511,0,0.979-0.339,1.117-0.856c1.319-4.872,8.275-7.198,8.345-7.22   c0.606-0.199,0.939-0.853,0.742-1.46c-0.199-0.606-0.855-0.936-1.459-0.743c-0.335,0.109-8.216,2.729-9.863,8.82   c-0.167,0.618,0.197,1.253,0.814,1.419C60.995,158.28,61.096,158.292,61.196,158.292z"/>
	<path style="fill:#251426;" d="M57.59,140.983c0.029,0,0.057-0.001,0.084-0.003c0.638-0.044,1.12-0.598,1.074-1.236   c-0.355-5.035,5.449-9.518,5.508-9.563c0.509-0.387,0.606-1.113,0.219-1.622c-0.385-0.506-1.111-0.61-1.62-0.223   c-0.28,0.213-6.863,5.279-6.42,11.57C56.48,140.517,56.989,140.983,57.59,140.983z"/>
	<path style="fill:#251426;" d="M368.888,414.571c1.454,0,2.549-0.472,3.262-1.409c0.977-1.283,0.912-3.141,0.588-4.701   c3.554,1.849,9.48,4.59,12.152,3.92c0.909-0.226,1.592-0.785,1.977-1.614c1.151-2.492-0.866-6.818-1.283-7.659   c-0.283-0.572-0.979-0.805-1.552-0.525c-0.572,0.283-0.808,0.977-0.525,1.551c0.83,1.685,1.769,4.555,1.255,5.662   c-0.075,0.161-0.172,0.274-0.434,0.339c-1.968,0.485-8.781-2.672-12.991-5.073c-0.434-0.249-0.979-0.188-1.353,0.148   c-0.371,0.336-0.484,0.873-0.278,1.331c0.552,1.235,1.425,4.137,0.599,5.217c-0.439,0.575-1.504,0.545-2.319,0.42   c-6.354-0.983-17.056-8.012-17.164-8.083c-0.532-0.351-1.251-0.207-1.604,0.329c-0.353,0.534-0.206,1.252,0.328,1.605   c0.455,0.301,11.238,7.38,18.087,8.439C368.078,414.537,368.497,414.571,368.888,414.571z"/>
	<path style="fill:#251426;" d="M308.934,414.666c1.443,0,2.402-0.461,2.857-1.376c1.115-2.247-2.009-5.935-3.402-7.415   c-0.439-0.466-1.172-0.487-1.638-0.05c-0.466,0.439-0.489,1.172-0.05,1.638c1.735,1.845,3.196,4.172,3.013,4.8   c-0.027-0.008-0.179,0.088-0.749,0.088c-0.179,0-0.394-0.01-0.651-0.037c-6.001-0.642-13.593-6.427-13.67-6.485   c-0.439-0.34-1.061-0.318-1.479,0.058c-0.414,0.373-0.504,0.99-0.215,1.466c0.837,1.369,1.719,3.698,1.201,4.512   c-0.24,0.379-1.025,0.521-2.149,0.398c-6.261-0.698-17.221-7.884-17.33-7.957c-0.532-0.351-1.251-0.205-1.604,0.329   c-0.353,0.534-0.206,1.253,0.328,1.605c0.468,0.309,11.541,7.565,18.348,8.326c2.135,0.241,3.599-0.252,4.364-1.459   c0.593-0.932,0.602-2.099,0.371-3.216c2.97,1.866,7.505,4.29,11.589,4.727C308.373,414.649,308.661,414.666,308.934,414.666z"/>
	<path style="fill:#251426;" d="M155.562,420.858c1.443,0,2.402-0.461,2.857-1.376c1.117-2.247-2.006-5.935-3.4-7.415   c-0.439-0.466-1.172-0.487-1.638-0.05c-0.466,0.439-0.489,1.172-0.05,1.638c1.735,1.845,3.194,4.172,3.011,4.8   c-0.005-0.006-0.181,0.089-0.749,0.089c-0.176,0-0.394-0.011-0.651-0.038c-6.01-0.644-13.593-6.425-13.67-6.484   c-0.439-0.34-1.063-0.32-1.479,0.058c-0.416,0.373-0.504,0.99-0.215,1.466c0.837,1.369,1.721,3.698,1.203,4.512   c-0.242,0.378-1.025,0.526-2.151,0.398c-6.261-0.698-17.221-7.884-17.33-7.957c-0.532-0.349-1.251-0.205-1.604,0.329   s-0.206,1.253,0.328,1.605c0.468,0.309,11.541,7.565,18.348,8.326c2.133,0.236,3.599-0.254,4.364-1.46   c0.593-0.932,0.604-2.098,0.371-3.214c2.97,1.865,7.506,4.289,11.586,4.725C155.001,420.841,155.291,420.858,155.562,420.858z"/>
	<path style="fill:#251426;" d="M76.449,420.858c1.443,0,2.402-0.461,2.857-1.376c1.117-2.247-2.006-5.935-3.4-7.415   c-0.441-0.466-1.172-0.487-1.638-0.05c-0.466,0.439-0.489,1.172-0.05,1.638c1.735,1.845,3.194,4.172,3.011,4.8   c0.005-0.006-0.183,0.089-0.749,0.089c-0.176,0-0.394-0.011-0.651-0.038c-6.01-0.644-13.593-6.425-13.67-6.484   c-0.439-0.34-1.061-0.32-1.479,0.058c-0.416,0.373-0.504,0.99-0.215,1.466c0.837,1.369,1.721,3.698,1.203,4.512   c-0.242,0.378-1.022,0.526-2.151,0.398c-6.261-0.698-17.221-7.884-17.33-7.957c-0.532-0.349-1.251-0.205-1.604,0.329   s-0.206,1.253,0.328,1.605c0.468,0.309,11.541,7.565,18.348,8.326c2.14,0.236,3.599-0.254,4.364-1.46   c0.593-0.932,0.604-2.098,0.371-3.214c2.97,1.865,7.506,4.289,11.586,4.725C75.888,420.841,76.178,420.858,76.449,420.858z"/>
	<path style="fill:#251426;" d="M406.422,286.182c0.36,0,0.728-0.036,1.106-0.109c6.105-1.176,13.459-12.159,13.769-12.626   c0.353-0.533,0.208-1.251-0.326-1.605c-0.527-0.353-1.249-0.211-1.606,0.323c-1.963,2.957-7.999,10.809-12.276,11.633   c-0.803,0.155-1.484,0.036-2.065-0.364c-3.622-2.502-1.647-14.249,0.448-21.065c0.188-0.611-0.154-1.259-0.765-1.448   c-0.624-0.184-1.262,0.156-1.448,0.767c-0.606,1.97-5.748,19.373,0.448,23.653C404.518,285.902,405.429,286.182,406.422,286.182z"/>
	<path style="fill:#251426;" d="M378.262,375.381c0.314,0,0.627-0.127,0.855-0.378c4.477-4.909,3.156-9.866,3.097-10.074   c-0.172-0.613-0.808-0.973-1.427-0.803c-0.613,0.172-0.973,0.808-0.805,1.422c0.047,0.182,0.991,3.983-2.574,7.895   c-0.432,0.473-0.398,1.206,0.075,1.637C377.703,375.281,377.984,375.381,378.262,375.381z"/>
	<path style="fill:#251426;" d="M381.282,359.791c0.314,0,0.627-0.128,0.855-0.378c4.474-4.909,3.156-9.864,3.097-10.073   c-0.172-0.613-0.812-0.975-1.427-0.803c-0.613,0.172-0.973,0.806-0.805,1.421c0.048,0.178,0.991,3.981-2.574,7.895   c-0.432,0.473-0.398,1.206,0.075,1.637C380.723,359.691,381.004,359.791,381.282,359.791z"/>
	<path style="fill:#251426;" d="M371.539,366.964c0.314,0,0.627-0.127,0.855-0.378c4.477-4.909,3.156-9.865,3.097-10.073   c-0.172-0.613-0.812-0.975-1.427-0.803c-0.615,0.172-0.973,0.808-0.805,1.422c0.047,0.182,0.991,3.982-2.574,7.893   c-0.432,0.473-0.398,1.206,0.075,1.637C370.98,366.864,371.261,366.964,371.539,366.964z"/>
	<path style="fill:#251426;" d="M368.519,382.147c0.314,0,0.627-0.127,0.855-0.378c4.477-4.908,3.158-9.864,3.099-10.073   c-0.172-0.613-0.81-0.973-1.427-0.803c-0.613,0.172-0.973,0.808-0.805,1.422c0.05,0.184,0.988,3.983-2.577,7.893   c-0.432,0.473-0.398,1.206,0.075,1.637C367.961,382.047,368.241,382.147,368.519,382.147z"/>
	<path style="fill:#251426;" d="M376.753,391.127c0.314,0,0.627-0.128,0.855-0.378c4.474-4.909,3.156-9.864,3.097-10.073   c-0.172-0.613-0.805-0.974-1.427-0.803c-0.613,0.172-0.973,0.806-0.805,1.421c0.047,0.178,0.991,3.981-2.574,7.895   c-0.432,0.473-0.398,1.206,0.075,1.637C376.194,391.027,376.475,391.127,376.753,391.127z"/>
	<path style="fill:#251426;" d="M305.602,375.235c0.314,0,0.627-0.128,0.855-0.378c4.474-4.909,3.156-9.865,3.097-10.074   c-0.172-0.613-0.808-0.976-1.427-0.803c-0.613,0.171-0.973,0.806-0.805,1.419l0,0c0.043,0.161,1,3.973-2.574,7.897   c-0.432,0.473-0.398,1.206,0.075,1.637C305.044,375.135,305.324,375.235,305.602,375.235z"/>
	<path style="fill:#251426;" d="M308.62,359.645c0.314,0,0.627-0.127,0.855-0.378c4.477-4.908,3.158-9.864,3.099-10.073   c-0.172-0.614-0.805-0.978-1.427-0.803c-0.613,0.172-0.973,0.808-0.805,1.422c0.05,0.184,0.989,3.983-2.576,7.893   c-0.432,0.473-0.398,1.206,0.075,1.637C308.061,359.545,308.342,359.645,308.62,359.645z"/>
	<path style="fill:#251426;" d="M298.879,366.818c0.314,0,0.627-0.127,0.855-0.378c4.477-4.909,3.156-9.865,3.097-10.073   c-0.172-0.614-0.805-0.977-1.427-0.803c-0.615,0.172-0.973,0.808-0.805,1.422c0.048,0.182,0.991,3.982-2.574,7.893   c-0.432,0.473-0.398,1.206,0.075,1.637C298.321,366.718,298.601,366.818,298.879,366.818z"/>
	<path style="fill:#251426;" d="M295.86,382.001c0.314,0,0.627-0.127,0.855-0.378c4.477-4.909,3.156-9.865,3.097-10.073   c-0.172-0.613-0.808-0.975-1.427-0.803c-0.615,0.172-0.973,0.808-0.805,1.422c0.047,0.182,0.991,3.982-2.574,7.893   c-0.432,0.473-0.398,1.206,0.075,1.637C295.301,381.901,295.581,382.001,295.86,382.001z"/>
	<path style="fill:#251426;" d="M304.091,390.981c0.314,0,0.627-0.127,0.855-0.378c4.477-4.908,3.158-9.864,3.099-10.073   c-0.172-0.614-0.808-0.977-1.427-0.803c-0.613,0.172-0.973,0.808-0.805,1.422c0.05,0.184,0.989,3.983-2.576,7.893   c-0.432,0.473-0.398,1.206,0.075,1.637C303.533,390.881,303.813,390.981,304.091,390.981z"/>
	<path style="fill:#251426;" d="M144.994,379.647c0.314,0,0.627-0.127,0.855-0.378c4.477-4.91,3.156-9.866,3.097-10.074   c-0.172-0.613-0.808-0.973-1.427-0.803c-0.615,0.172-0.973,0.808-0.805,1.423c0.05,0.188,0.989,3.985-2.574,7.893   c-0.432,0.473-0.398,1.206,0.075,1.637C144.435,379.547,144.716,379.647,144.994,379.647z"/>
	<path style="fill:#251426;" d="M148.014,364.057c0.314,0,0.627-0.128,0.855-0.378c4.474-4.909,3.156-9.865,3.097-10.074   c-0.172-0.613-0.805-0.974-1.427-0.803c-0.613,0.171-0.973,0.806-0.805,1.419l0,0c0.043,0.161,1,3.973-2.574,7.897   c-0.432,0.473-0.398,1.206,0.075,1.637C147.455,363.957,147.736,364.057,148.014,364.057z"/>
	<path style="fill:#251426;" d="M138.271,371.23c0.314,0,0.627-0.127,0.855-0.378c4.477-4.909,3.156-9.865,3.097-10.073   c-0.172-0.613-0.805-0.975-1.427-0.803c-0.615,0.172-0.973,0.808-0.805,1.422c0.048,0.182,0.991,3.982-2.574,7.893   c-0.432,0.473-0.398,1.206,0.075,1.637C137.712,371.13,137.993,371.23,138.271,371.23z"/>
	<path style="fill:#251426;" d="M135.251,386.413c0.314,0,0.627-0.127,0.855-0.378c4.477-4.908,3.158-9.865,3.099-10.074   c-0.172-0.614-0.81-0.978-1.427-0.803c-0.613,0.171-0.973,0.806-0.805,1.419l0,0c0.043,0.161,1,3.973-2.576,7.897   c-0.432,0.473-0.398,1.206,0.075,1.637C134.693,386.313,134.973,386.413,135.251,386.413z"/>
	<path style="fill:#251426;" d="M143.485,395.393c0.314,0,0.627-0.128,0.855-0.378c4.474-4.909,3.156-9.864,3.097-10.073   c-0.172-0.613-0.808-0.974-1.427-0.803c-0.613,0.172-0.973,0.806-0.805,1.421c0.048,0.178,0.991,3.981-2.574,7.895   c-0.432,0.473-0.398,1.206,0.075,1.637C142.926,395.294,143.207,395.393,143.485,395.393z"/>
	<path style="fill:#251426;" d="M69.713,375.642c0.314,0,0.627-0.127,0.855-0.378c4.477-4.91,3.156-9.866,3.097-10.074   c-0.172-0.614-0.812-0.977-1.427-0.803c-0.615,0.172-0.973,0.808-0.805,1.422c0.048,0.182,0.991,3.982-2.574,7.895   c-0.432,0.473-0.398,1.206,0.075,1.637C69.154,375.542,69.434,375.642,69.713,375.642z"/>
	<path style="fill:#251426;" d="M72.732,360.052c0.314,0,0.627-0.127,0.855-0.378c4.477-4.909,3.156-9.865,3.097-10.073   c-0.172-0.613-0.81-0.973-1.427-0.803c-0.615,0.172-0.973,0.808-0.805,1.422c0.048,0.182,0.991,3.982-2.574,7.893   c-0.432,0.473-0.398,1.206,0.075,1.637C72.174,359.952,72.454,360.052,72.732,360.052z"/>
	<path style="fill:#251426;" d="M62.99,367.225c0.314,0,0.627-0.127,0.855-0.378c4.477-4.908,3.158-9.864,3.099-10.073   c-0.172-0.613-0.812-0.973-1.427-0.803c-0.613,0.172-0.973,0.808-0.805,1.422c0.05,0.184,0.989,3.983-2.576,7.893   c-0.432,0.473-0.398,1.206,0.075,1.637C62.431,367.125,62.712,367.225,62.99,367.225z"/>
	<path style="fill:#251426;" d="M59.972,382.408c0.314,0,0.627-0.128,0.855-0.378c4.474-4.909,3.156-9.865,3.097-10.074   c-0.172-0.613-0.808-0.975-1.427-0.803c-0.613,0.172-0.973,0.806-0.805,1.421c0.048,0.178,0.991,3.982-2.574,7.896   c-0.432,0.473-0.398,1.206,0.075,1.637C59.413,382.308,59.694,382.408,59.972,382.408z"/>
	<path style="fill:#251426;" d="M68.204,391.388c0.314,0,0.627-0.127,0.855-0.378c4.477-4.909,3.156-9.865,3.097-10.073   c-0.172-0.614-0.81-0.978-1.427-0.803c-0.615,0.172-0.973,0.808-0.805,1.422c0.048,0.182,0.991,3.982-2.574,7.893   c-0.432,0.473-0.398,1.206,0.075,1.637C67.645,391.289,67.926,391.388,68.204,391.388z"/>
</g>















</svg>
