<svg id="Layer_1" enable-background="new 0 0 140 140" viewBox="0 0 140 140" xmlns="http://www.w3.org/2000/svg"><g id="_x35_"><g><path d="m54.94599 133.17682c-11.54341-2.07071-21.52064-8.5219-26.69045-17.2568-6.05892-10.23939-5.75243-23.21596-5.5057-33.64281.00337-.13638.1383-.23902.25251-.24095.13638.00337.24432.11613.24095.25252-.24529 10.36372-.55033 23.26222 5.43727 33.37969 5.09705 8.61346 14.94851 14.97694 26.35216 17.0226 9.39703 1.6852 19.85279.76622 31.9687-2.81044 6.52972-7.62074 9.29727-17.11801 8.71128-29.88303-.52431-11.39546-4.13565-22.46371-7.96049-32.72672-.11388-.30486.34779-.47989.46262-.17252 3.83881 10.30107 7.46365 21.41367 7.99036 32.87659.59418 12.92886-2.22685 22.55142-8.87706 30.28252-.03084.03566-.07132.06216-.1171.07567-10.47765 3.10013-21.5149 4.77285-32.26505 2.84368zm32.19518-3.08029h.00626z"/></g><g><path d="m86.63855 130.45216c-.30166-.12762-.10799-.58089.1918-.45491 5.08205 2.14194 11.69556-.67778 13.66087-5.84206.5325-1.39896.76044-2.92561.98067-4.40215.65974-4.42249 1.12086-5.6079 4.16795-9.52666.67995-.87513 1.38305-1.77966 1.97868-2.7208 3.07259-4.85176 3.46292-11.33667.99464-16.52142-.14038-.29342.30536-.50922.44527-.21204 2.53961 5.33414 2.13818 12.00603-1.02259 16.99754-1.61988 2.55744-3.93209 4.73798-5.03728 7.50558-1.12601 2.82019-.93977 6.14851-2.04566 9.05536-2.06464 5.42305-8.9715 8.37254-14.31435 6.12156z"/></g><g><ellipse cx="87.006" cy="67.39" fill="#70e474" rx="2.958" ry="3.819" transform="matrix(.965 -.261 .261 .965 -14.566 25.027)"/></g><g><ellipse cx="23.989" cy="81.847" fill="#70e474" rx="2.958" ry="3.819" transform="matrix(.996 -.085 .085 .996 -6.877 2.338)"/></g><g><path d="m33.28944 48.59832c4.55765 1.96679 8.53331 1.30717 10.47993.35231-.03024.0473-.07352.0903-.11677.13322l21.12309-1.82883c3.99975-5.12273 11.40083-10.09307 16.90214-13.50407 1.49464-.92673.96532-2.75648-.68026-3.02716-2.21598-.36451-5.11296.52983-7.27841.99075-5.12967 1.09186-10.11511 2.86295-14.77949 5.26134 1.04065-.53509-1.2864-2.55904 5.70604-11.10575 2.10265-2.57043 4.53231-4.95889 7.06085-7.29956 1.2881-1.1767-.12917-2.73271-1.93242-2.16096-4.53397 1.42063-8.88832 3.29008-12.92506 5.53977 1.76914-4.73931 4.25328-9.33842 7.38307-13.71994.96982-1.3846-.74107-2.75189-2.52327-2.02927-5.60215 2.28308-10.81148 5.61947-15.05104 10.01501-4.52869-2.94931-10.44469-4.64027-16.62864-4.76776-1.87024-.04048-3.03553 1.83915-1.71114 2.77429 3.72366 2.64932 6.82515 5.82248 9.1454 9.35091-3.81679-.49488-7.79872-.54201-11.77353-.14103-2.05203.20031-2.8732 2.29654-1.21658 3.09907 6.80318 3.24104 12.36937 7.89166 16.0451 13.41538-5.60085-.84507-12.69366-.56795-19.63006 1.23894-2.29036.60892-2.48785 3.07342-.32612 3.6147 6.88318 1.71971 11.81116 3.50744 12.72717 3.79864" fill="#70e474"/></g><g><path d="m42.92357 23.77131c-.00241 0-.00482 0-.00723 0-.13638-.00434-.24336-.11807-.2395-.25396.07469-2.47021 1.07463-4.93175 2.74297-6.75381.22293-.24025.58388.09322.36432.33347-1.59027 1.7358-2.54298 4.0812-2.61382 6.4348-.00434.13396-.11373.2395-.24674.2395z"/></g><g><path d="m46.15326 30.62198c-2.8326-3.2133-7.07765-5.02524-11.35836-4.86188-.31729.02465-.35429-.47926-.01928-.49347 4.41275-.16963 8.8173 1.70544 11.74773 5.02862.21614.24504-.15369.57099-.37009.32673z"/></g><g><path d="m47.12188 44.37201c2.26204-3.02102 5.30282-5.37606 8.79321-6.8102.30324-.12222.48922.33218.18794.45684-3.40847 1.39992-6.37745 3.69905-8.58599 6.64924-.19262.25555-.59226-.03232-.39516-.29588z"/></g><g><path d="m72.92577 121.15762c-7.54964 4.63304-17.35573 5.55198-25.30481 1.97385-.26649-.11842-.53298-.24673-.78959-.37504-.26643-.1283-.52304-.26649-.77965-.40461-.11843-.06909-.25661-.13819-.38492-.21716-4.49051-2.57587-8.64545-6.17819-11.82339-10.41209l-.00988-.00988c-5.07559-6.50252-9.62896-19.9231-9.08958-33.6345h-.00988v-.00987h.00988c0-.48055.02958-.72291.02958-1.01657.48578-8.49224 2.39913-13.83262 5.42811-18.70232v-.00982c.27688-.41532.66042-1.04097.8685-1.33239v-.00988c4.12306-6.05358 9.5426-10.07633 14.11307-11.92206 3.44944-1.43527 7.24456-2.06271 10.8661-2.06271.64153.00988 1.2633.01976 1.90477.06909.13818-.00988.27637.00988.41449.02964 1.87519.12825 3.75038.43419 5.5466.8882 2.2995.58232 4.48064 1.43106 6.44461 2.50678.46389.24673.90796.51322 1.34222.78959.6711.42437 1.29287.87832 1.89494 1.36197 3.26673 2.62521 6.01036 5.81297 8.24084 9.34619 0 0 0 .00988.00987.00988.27145.44243.5549.88189.90796 1.50015h.00988c3.18236 5.51605 5.61005 12.57303 6.50383 18.83056 3.22069 19.57464-4.07758 35.28564-16.34355 42.813z" fill="#ffe42c"/></g><g><g><g><path d="m88.74953 75.51772c.09186.40511.26477 1.27117.34915 1.79984-5.72905-2.14364-10.24142-4.29689-15.38725-6.84715l-.0062-.01023c-11.38693-5.75513-22.89377-13.48946-33.36228-22.77086.44139-.30907.90136-.58744 1.36132-.86581 13.91731 12.37377 30.67178 22.35911 47.04526 28.69421z" fill="#ff6545"/></g></g><g><g><path d="m89.78789 92.33283c-.04825.52247-.11006 1.04234-.17357 1.55634-3.11447-.84223-6.20061-1.80856-9.23869-2.89816-.50758-.17482-1.0186-.36152-1.52547-.55587-18.45926-6.80456-35.40741-18.05126-48.64551-32.09212.27437-.45274.56405-.8971.86729-1.33887 13.30525 14.19221 30.24552 25.38761 48.7646 32.14767.5068.19437 1.01617.37511 1.52554.55585 2.77861.97171 5.58837 1.85073 8.42581 2.62516z" fill="#ff6545"/></g></g><g><g><path d="m85.58331 107.15036c-.23611.47387-.48749.93927-.75073 1.40819-23.27554-6.11572-44.42305-18.92537-59.74172-35.07034.0809-.65417.17118-1.29818.27923-1.94733 15.5926 16.71075 36.93945 29.57655 60.21322 35.60948z" fill="#ff6545"/></g></g><g><g><path d="m75.80765 119.17387c-.26608.18621-.36147.31113-1.59882 1.15469-6.96519-1.9613-14.11154-4.74924-17.59696-6.42486h-.00988c-5.15174-2.30944-10.1259-4.96428-14.92236-7.94482-5.19459-3.13829-12.44345-8.52052-15.18885-11.00423-.18115-.64689-.47443-2.0834-.56256-2.51665 9.98544 8.79566 22.49392 16.44592 33.51613 21.02158h.00988c5.30969 2.2798 10.77725 4.19445 16.35342 5.71429z" fill="#ff6545"/></g></g><g><g><path d="m56.04934 43.01886c-8.54376 14.00682-19.94992 26.37411-31.31555 35.05882.02719-.68363.06047-1.36903.11485-2.04774 11.20561-8.86763 21.32191-20.06985 29.35556-32.95944.61382-.03619 1.23115-.06051 1.84514-.05164z" fill="#ff6545"/></g></g><g><g><path d="m71.702 47.29588c-3.07922 5.02343-6.42492 9.87917-10.0173 14.53745v.00988h-.00988c-.30595.40462-.62177.80929-.92772 1.21391h-.00988v.00988c-10.15688 12.9268-22.2047 24.28618-34.03917 32.73642-.02881-.11523-.33846-1.32412-.3948-1.62846 3.46456-2.42484 9.56796-7.41129 12.6722-10.20482 12.50771-11.12602 23.09581-23.8812 31.38433-37.46384.46389.24672.90796.51321 1.34222.78958z" fill="#ff6545"/></g></g><g><g><path d="m82.76161 59.51527c-12.675 21.11644-29.71204 39.00561-48.92322 52.20054-.31819-.4099-.62035-.83089-.90467-1.25703 19.69243-13.50294 36.71128-31.77148 48.9096-52.44754.36814.57392.6485 1.05095.91829 1.50403z" fill="#ff6545"/></g></g><g><g><path d="m88.87059 76.08456c.11215.56523.23984 1.23171.40215 2.25674-2.47288 3.89883-5.12035 7.69398-7.91177 11.36652-.3242.4337-.64826.86732-.98492 1.28043-9.60119 12.39548-20.70593 23.18111-32.75533 32.14239-.53375-.23568-1.05322-.49398-1.56454-.785 11.8834-8.70136 23.03997-19.41553 32.79522-31.91505.33026-.42339.66073-.84673.98484-1.28056 3.68341-4.8037 6.22524-8.61202 9.03435-13.06547z" fill="#ff6545"/></g></g></g><g><path d="m59.08646 89.78954c-.21926-.16144-.26601-.47034-.10409-.69008 1.82312-2.47289.47492-6.04124-2.53093-6.68828-.63916-.13754-.42891-1.10469.20818-.96476 3.70086.7974 5.36421 5.19004 3.11692 8.23903-.09686.13107-.46972.26664-.69008.10409z"/></g><g><path d="m45.63088 102.81767c-.11132-.24866.00048-.54069.24962-.65153 1.7358-.77489 3.00801-2.56804 3.1656-4.46239.05397-.66059 1.03683-.56316.98307.08192-.1889 2.27698-1.65966 4.35011-3.74676 5.28162-.24163.10919-.53822.00433-.65153-.24962z"/></g><g><path d="m48.15362 100.93875c-.19469-.19083-.19758-.50311-.00675-.69779.19035-.19469.50311-.19854.69779-.00674 5.51788 5.41005 14.00488 4.98191 19.04368-.07855.19276-.1918.50552-.19324.69827-.00144.19276.19228.19373.50503.00145.69827-5.38514 5.4073-14.47478 5.92921-20.43444.08625z"/></g><g><path d="m51.49872 73.00214c.07661.58049-.32521 1.11592-.90571 1.19254l-19.18619 2.53211c-.5805.07661-1.11721-.33495-1.19382-.91545-.07661-.58049.33623-1.10752.91673-1.18414l19.18619-2.53211c.58049-.07661 1.10619.32656 1.1828.90705z"/></g><g><path d="m47.07519 78.4193c-1.74155.22984-3.3406-.99635-3.57172-2.74758-.02426-.18383-.02788-.36053-.02187-.53851.02895-.89964.44212-1.72196 1.09684-2.28091l3.46373-.45713c2.78237 1.32424 2.19538 5.60678-.96698 6.02413z"/></g><g><path d="m77.6572 69.54985c.07661.5805-.32521 1.11593-.90571 1.19254l-19.18619 2.53212c-.58049.07661-1.11721-.33495-1.19382-.91545s.33624-1.10753.91673-1.18414l19.1862-2.53212c.58048-.07661 1.10617.32656 1.18279.90705z"/></g><g><path d="m73.23367 74.96702c-3.15295.41611-4.85843-3.55079-2.49673-5.56701l3.46372-.45713c2.80435 1.33471 2.18559 5.60807-.96699 6.02414z"/></g><g><path d="m120.94996 68.4275v19.05598c0 3.29704-2.54326 5.97234-5.67758 5.97234h-9.59748c-3.13436 0-5.6698-2.6753-5.6698-5.97234v-19.05598c0-3.29704 2.53544-5.97235 5.6698-5.97235h9.59748c3.13432 0 5.67758 2.67531 5.67758 5.97235z" fill="#ff5e85"/></g><g><path d="m118.14909 71.76764v12.3757c0 2.41524-1.86307 4.37503-4.1591 4.37503h-7.03062c-2.29607 0-4.1534-1.95979-4.1534-4.37503v-12.3757c0-2.41525 1.85732-4.37503 4.1534-4.37503h7.03062c2.29604 0 4.1591 1.95978 4.1591 4.37503z" fill="#70e474"/></g><g><path d="m114.34902 76.88698-4.92526-3.04784c-.96018-.59418-2.19971.09644-2.19971 1.2256v5.78172c0 1.09872 1.18012 1.7934 2.14077 1.26017l4.92527-2.73389c.96243-.53422.99497-1.90653.05893-2.48576z"/></g><g><path d="m112.13922 64.63324h-6.73834c-.44464 0-.44419-.66519 0-.66519h6.73834c.44013 0 .44058.66519 0 .66519z"/></g><g><path d="m118.39085 87.8455c.10998-.24167.20608-.50014.39775-.68388s.51701-.2631.72136-.09356c.20582.17077.19012.48724.14066.75007-1.0154 5.39589-6.8392 4.13477-5.25621 2.95277.35997-.26879 1.14593-.27742 1.58128-.4874 1.04973-.50634 1.931-1.37406 2.41516-2.438z" fill="#fff"/></g><g><path d="m114.26971 64.71432c-.54694 0-.54771-.82736 0-.82736.22847 0 .5477.82736 0 .82736z"/></g><g><path d="m108.14382 75.50946c-.00032-.13894.00041-.28296.05847-.40919.14008-.30455.58819-.34631.61118.33034.03011.88631.06023 1.77262.09035 2.65895.02794.82207-.64809 1.01574-.75063.13944-.10309-.88117-.00731-1.83192-.00937-2.71954z" fill="#fff"/></g><g><path d="m82.86416 101.68552c.17492 4.12538-2.1022 7.80751-4.8728 10.87925-1.16725 1.29412-2.14493 2.2733-3.75565 2.93061-.3726.15205-.91905.38708-1.31976.244-.45401-.16776-.60207-.77971-.41455-1.22378.17764-.45401.57243-.76984.94747-1.07578 3.48383-2.89169 6.05976-6.86905 7.26379-11.24113.1283-.45395.24673-.92772.56255-1.27312s.89814-.50334 1.2633-.1974c.25656.22704.31577.61189.32565.95735z" fill="#fff"/></g><g><path d="m37.62952 55.57672c.37123-.42936.84974-.88953 1.41224-.81362.66051.08914.99693.91702.82773 1.56168-.33279 1.26794-2.38609 2.29698-5.23555 6.73154-.54811.85301-1.2927 3.43567-2.25447 3.84159-1.85304.7821-1.53304-1.25294-1.06388-2.49655 1.21917-3.23167 4.08148-6.24254 6.31393-8.82464z" fill="#fff"/></g><g><path d="m66.27892 18.42483c.21719-.0887.47229-.17322.67616-.05713.26131.14881.25996.55341.07707.79212-.44994.58723-2.98063.94768-6.21168 3.87248-.55403.50152-1.66848.71119-1.4373-.41893.13792-.67423 1.0763-1.06904 1.6013-1.41173 1.6712-1.09084 3.44679-2.0222 5.29445-2.77681z" fill="#fff"/></g><g><path d="m36.24671 41.35767c.23027.04484.48997.11397.59687.3228.13702.26769-.08587.60537-.36968.70479-.69818.24458-3.01248-.84095-7.31803-.16543-.73828.11583-1.78535-.3196-.97259-1.13815.48489-.48835 1.48616-.30428 2.11311-.30317 1.99569.00353 3.9913.19767 5.95032.57916z" fill="#fff"/></g><g><g><path d="m102.33813 42.13248-4.3288-2.16517 2.70819 7.41449c.04919.03883.08214.09534.1012.14561.19446.5128-.80167 1.37355-2.20935 1.90736-1.41769.53761-2.73414.55381-2.9286.04101-.32069-.84567 2.57488-2.47803 4.39156-2.30936l-2.80595-7.64192c-.09159-.24153.16685-.45097.37759-.33868l4.93655 2.46376c.31658.16304.06368.64065-.24239.4829z" fill="#ff5e85"/></g></g><g><g><path d="m114.6301 31.69114-4.56712-1.60243 3.62092 7.01413c.0537.03233.09349.08423.11874.13169.25753.48421-.62219 1.46362-1.95139 2.17056-1.33865.71196-2.64256.89393-2.90009.40972-.42469-.79852 2.2421-2.78275 4.06555-2.84434l-3.74655-7.22742c-.1213-.22807.10869-.4684.33191-.38356l5.20765 1.82205c.33461.12186.14389.62753-.17962.5096z" fill="#ff5e85"/></g></g></g></svg>