<svg id="Capa_2" enable-background="new 0 0 453.543 453.543" viewBox="0 0 453.543 453.543" xmlns="http://www.w3.org/2000/svg"><g><path d="m268.997 275.637c-.61 104.546-61.117 154.125-135.398 153.692-74.28-.433-134.204-50.716-133.594-155.261.61-104.546 61.15-159.674 135.43-159.241s134.172 56.265 133.562 160.81z" fill="#ff9013"/><path d="m228.87 23.136c-13.987-.081-25.345 3.206-25.369 7.342s10.916 72.486 24.903 72.567c13.987.082 25.724-68.136 25.748-72.272.024-4.136-11.295-7.555-25.282-7.637z" fill="#04955d"/><path d="m281.146 108.874c-.08 13.742-24.206 98.898-53.352 98.728s-52.277-85.601-52.196-99.344c.08-13.743 23.773-24.745 52.919-24.575s52.709 11.448 52.629 25.191z" fill="#04955d"/><path d="m453.539 276.714c-.61 104.546-61.118 154.125-135.398 153.692-74.28-.434-134.205-50.716-133.595-155.262s61.15-159.674 135.43-159.241c74.28.434 134.172 56.265 133.563 160.811z" fill="#ff9013"/><path d="m362.05 276.18c-.61 104.546-61.118 154.125-135.398 153.692s-134.205-50.716-133.595-155.262 61.15-159.674 135.43-159.241c74.28.434 134.173 56.266 133.563 160.811z" fill="#ff9013"/><g fill="#37342a"><path d="m179.684 420.898c-10.284-3.567-19.674-9.418-28.292-15.992-9.364-7.144-17.981-15.346-25.538-24.381-14.492-17.326-22.673-38.245-27.114-60.238-5.231-25.907-5.564-53.17-1.786-79.297 3.22-22.272 9.945-44.259 21.479-63.679 13.99-23.556 34.988-42.245 60.517-52.388 2.201-.874.163-1.652-1.252-1.09-22.747 9.038-42.322 24.491-56.459 44.475-13.05 18.448-21.279 39.917-25.705 61.991-5.247 26.168-5.852 53.736-2.021 80.137 3.248 22.383 9.987 45.284 23.341 63.815 7.856 10.902 17.414 20.652 27.843 29.103 9.678 7.842 20.432 14.915 32.266 19.019.883.307 3.929-1.056 2.721-1.475z"/><path d="m274.63 125.171c23.09 8.888 42.787 24.553 56.873 44.879 12.571 18.139 20.413 39.151 24.62 60.732 5.042 25.871 5.421 53.052 1.547 79.109-3.388 22.786-10.641 45.307-23.453 64.601-14.654 22.068-36.088 38.457-61.171 46.931-2.04.689-1.389 3.279.69 2.576 22.198-7.5 41.922-20.834 56.635-39.137 14.763-18.365 23.854-40.6 28.656-63.533 5.552-26.514 6.025-54.484 2.181-81.27-3.297-22.972-10.413-45.605-22.637-65.438-14.533-23.579-36.167-41.948-62.049-51.91-1.593-.613-3.921 1.679-1.892 2.46z"/><path d="m220.956 243.563c-.043 3.457-2.881 6.224-6.338 6.18-3.456-.044-6.223-2.881-6.18-6.338.044-3.457 2.881-6.224 6.338-6.18s6.224 2.881 6.18 6.338z"/><path d="m248.755 243.914c-.043 3.457-2.881 6.224-6.338 6.18-3.456-.044-6.224-2.881-6.18-6.338s2.881-6.224 6.338-6.18c3.456.044 6.224 2.881 6.18 6.338z"/><path d="m239.874 268.331c2.874-6.157.22-13.41-5.949-16.253-5.92-2.728-13.286-.348-16.604 5.211-1.996 3.344-2.234 7.438-.677 11.003.692 1.584 4.04.635 3.368-.902-2.113-4.837-.485-10.721 4.474-13.024 4.497-2.089 9.737.228 12.017 4.42 1.54 2.832 1.47 6.187.125 9.067-.838 1.797 2.562 1.943 3.246.478z"/><path d="m197.451 261.076c.984 16.778 16.912 26.791 32.568 26.747 6.986-.02 14.399-1.73 19.842-6.326 5.725-4.834 8.434-12.198 9.409-19.438.115-.854-3.214-.25-3.326.58-.821 6.098-2.801 12.314-6.976 16.977-5.482 6.124-13.825 7.485-21.663 6.518-13.582-1.676-25.655-11.769-26.487-25.96-.036-.633-3.423-.058-3.367.902z"/><path d="m163.78 424.831c1.342 0 3.548-2.026 1.279-2.026-1.342 0-3.547 2.026-1.279 2.026z"/><path d="m159.366 421.039c1.046 0 3.643-1.565 1.403-1.565-1.047 0-3.643 1.565-1.403 1.565z"/><path d="m153.617 427.538c2.003 0 2.515-2.692.238-2.692-2.003 0-2.515 2.692-.238 2.692z"/><path d="m151.92 418.934c1.391 0 3.529-2.102 1.259-2.102-1.391 0-3.529 2.102-1.259 2.102z"/><path d="m142.79 416.451c1.25 0 3.581-1.885 1.317-1.885-1.25 0-3.581 1.885-1.317 1.885z"/><path d="m139.213 424.701c1.173 0 3.607-1.765 1.349-1.765-1.173-.001-3.606 1.765-1.349 1.765z"/><path d="m136.17 413.153c1.903 0 2.603-2.412.314-2.412-1.904.001-2.604 2.412-.314 2.412z"/><path d="m134.997 403.316c1.943 0 2.569-2.52.284-2.52-1.942-.001-2.568 2.52-.284 2.52z"/><path d="m123.761 417.5c1.074 0 3.636-1.608 1.391-1.608-1.074 0-3.636 1.608-1.391 1.608z"/><path d="m123.382 426.664c1.154 0 3.612-1.736 1.357-1.736-1.154 0-3.612 1.736-1.357 1.736z"/><path d="m114.642 407.147c.992 0 3.656-1.477 1.426-1.477-.992-.001-3.656 1.477-1.426 1.477z"/><path d="m123.404 400.631c1.26 0 3.578-1.899 1.313-1.899-1.259 0-3.578 1.899-1.313 1.899z"/><path d="m131.046 416.788c1.956 0 2.557-2.558.274-2.558-1.956 0-2.557 2.558-.274 2.558z"/><path d="m124.943 407.984c1.05 0 3.642-1.57 1.401-1.57-1.05 0-3.642 1.57-1.401 1.57z"/><path d="m105.989 422.376c1.238 0 3.586-1.864 1.323-1.864-1.238 0-3.586 1.864-1.323 1.864z"/><path d="m100.798 412.306c1.01 0 3.652-1.507 1.418-1.507-1.011-.001-3.652 1.507-1.418 1.507z"/><path d="m109.205 388.141c1.482 0 3.49-2.242 1.221-2.242-1.481 0-3.49 2.242-1.221 2.242z"/><path d="m113.555 396.441c1.47 0 3.496-2.224 1.226-2.224-1.469 0-3.495 2.224-1.226 2.224z"/><path d="m97.249 395.337c1.067 0 3.637-1.599 1.394-1.599-1.068 0-3.638 1.599-1.394 1.599z"/><path d="m94.487 376.373c1.103 0 3.628-1.655 1.378-1.655-1.103 0-3.627 1.655-1.378 1.655z"/><path d="m103.753 367.361c1.979 0 2.536-2.624.257-2.624-1.98 0-2.537 2.624-.257 2.624z"/><path d="m75.641 373.229c1.932 0 2.578-2.49.293-2.49-1.932 0-2.579 2.49-.293 2.49z"/><path d="m80.013 398.625c1.984 0 2.533-2.636.253-2.636-1.983.001-2.532 2.636-.253 2.636z"/><path d="m58.503 396.639c1.215 0 3.593-1.829 1.332-1.829-1.215 0-3.593 1.829-1.332 1.829z"/><path d="m47.841 376.936c1.319 0 3.556-1.99 1.289-1.99-1.319 0-3.557 1.99-1.289 1.99z"/><path d="m64.973 380.012c1.972 0 2.543-2.604.262-2.604-1.972.001-2.542 2.604-.262 2.604z"/><path d="m63.812 359.136c2.037 0 2.483-2.793.211-2.793-2.037 0-2.484 2.793-.211 2.793z"/><path d="m68.926 338.848c1.963 0 2.551-2.577.269-2.577-1.962 0-2.55 2.577-.269 2.577z"/><path d="m86.879 342.942.396.396.369.174.524.066c.221.001.437-.025.65-.079.23-.038.452-.102.668-.193l.382-.183.532-.431.122-.224-.107-.398-.396-.396-.37-.174-.524-.066c-.22-.001-.437.025-.65.079-.23.038-.452.102-.668.193l-.382.183-.532.43-.122.224z"/><path d="m85.033 313.222c1.307 0 3.561-1.972 1.294-1.972-1.308 0-3.562 1.972-1.294 1.972z"/><path d="m80.241 295.562c-.264-.659-.528-1.319-.792-1.978-.091-.228-.402-.278-.609-.299l-.576.019c-.225.018-.446.058-.663.121-.392.112-.815.248-1.143.498l-.23.194-.148.369c.264.659.527 1.319.791 1.978.091.228.402.278.609.299l.576-.019c.225-.017.446-.058.663-.121.392-.112.815-.248 1.143-.498l.23-.194z"/><path d="m61.245 283.768c1.084 0 3.633-1.625 1.387-1.625-1.084.001-3.633 1.625-1.387 1.625z"/><path d="m53.465 307.48c1.883 0 2.62-2.358.328-2.358-1.882 0-2.62 2.358-.328 2.358z"/><path d="m89.728 416.707c2.037 0 2.484-2.791.212-2.791-2.037-.001-2.484 2.791-.212 2.791z"/><path d="m90.359 407.04c1.233 0 3.587-1.858 1.324-1.858-1.233 0-3.587 1.858-1.324 1.858z"/><path d="m102.815 404.933c1.195 0 3.6-1.799 1.34-1.799-1.195.001-3.6 1.799-1.34 1.799z"/><path d="m103.076 393.239c2.021 0 2.498-2.744.224-2.744-2.02 0-2.498 2.744-.224 2.744z"/><path d="m108.17 374.415c1.257 0 3.579-1.894 1.314-1.894-1.257 0-3.579 1.894-1.314 1.894z"/><path d="m118.512 390.585c2.032 0 2.488-2.777.215-2.777-2.031-.001-2.488 2.777-.215 2.777z"/><path d="m92.1 387.614c2.03 0 2.49-2.77.217-2.77-2.03-.001-2.491 2.77-.217 2.77z"/><path d="m81.765 410.348c1.289 0 3.568-1.944 1.301-1.944-1.289 0-3.568 1.944-1.301 1.944z"/><path d="m68.025 407.359c1.934 0 2.577-2.496.291-2.496-1.934 0-2.576 2.496-.291 2.496z"/><path d="m68.321 394.892c1.932 0 2.578-2.49.293-2.49-1.932 0-2.579 2.49-.293 2.49z"/><path d="m79.328 384.01c2.001 0 2.517-2.685.24-2.685-2.001 0-2.517 2.685-.24 2.685z"/><path d="m92.994 363.28c1.059 0 3.64-1.585 1.397-1.585-1.06 0-3.64 1.585-1.397 1.585z"/><path d="m94.777 357.963c2.047 0 2.475-2.821.204-2.821-2.047 0-2.475 2.821-.204 2.821z"/><path d="m52.112 342.179c1.401 0 3.525-2.117 1.255-2.117-1.401.001-3.525 2.117-1.255 2.117z"/><path d="m40.706 314.408c1.885 0 2.618-2.364.326-2.364-1.885-.001-2.618 2.364-.326 2.364z"/><path d="m32.361 344.306c-.198.594-.396 1.187-.594 1.781l.058.335.282.251.495.114.612-.007c.44-.066.899-.188 1.276-.43.271-.175.536-.377.643-.697.198-.593.396-1.187.594-1.78l-.058-.335-.281-.251-.495-.114-.612.007c-.44.065-.899.187-1.276.43-.273.174-.537.376-.644.696z"/><path d="m19.144 317.148c1.266 0 3.576-1.909 1.311-1.909-1.267 0-3.577 1.909-1.311 1.909z"/><path d="m26.008 273.075c1.453 0 3.503-2.197 1.233-2.197-1.453-.001-3.503 2.197-1.233 2.197z"/><path d="m51.477 247.655c1.2 0 3.598-1.806 1.338-1.806-1.2-.001-3.598 1.806-1.338 1.806z"/><path d="m72.81 247.839c2.029 0 2.491-2.768.218-2.768-2.029 0-2.492 2.768-.218 2.768z"/><path d="m51.832 224.43c1.483 0 3.49-2.245 1.221-2.245-1.483 0-3.49 2.245-1.221 2.245z"/><path d="m27.11 243.973c1.047 0 3.643-1.566 1.402-1.566-1.047 0-3.642 1.566-1.402 1.566z"/><path d="m8.998 265.898c1.004 0 3.654-1.496 1.421-1.496-1.003.001-3.653 1.496-1.421 1.496z"/><path d="m22.103 293.971c1.228 0 3.589-1.85 1.326-1.85-1.227 0-3.588 1.85-1.326 1.85z"/><path d="m45.564 278.008c1.308 0 3.561-1.974 1.293-1.974-1.308 0-3.561 1.974-1.293 1.974z"/><path d="m84.706 363.065c1.162 0 3.61-1.748 1.354-1.748-1.163 0-3.61 1.748-1.354 1.748z"/><path d="m87.397 375.307c1.259 0 3.578-1.898 1.314-1.898-1.26 0-3.579 1.898-1.314 1.898z"/><path d="m102.504 382.624c1.128 0 3.621-1.694 1.368-1.694-1.128 0-3.62 1.694-1.368 1.694z"/><path d="m112.005 381.451c1.146 0 3.615-1.722 1.36-1.722-1.146 0-3.615 1.722-1.36 1.722z"/><path d="m117.02 418.731c1.006 0 3.653-1.499 1.42-1.499-1.006 0-3.653 1.499-1.42 1.499z"/><path d="m108.75 414.131c1.192 0 3.601-1.795 1.341-1.795-1.192 0-3.601 1.795-1.341 1.795z"/><path d="m97.102 420.396c1.919 0 2.589-2.454.302-2.454-1.919-.001-2.589 2.454-.302 2.454z"/><path d="m109.055 401.7c1.234 0 3.587-1.86 1.324-1.86-1.235 0-3.587 1.86-1.324 1.86z"/><path d="m145.558 408.828c1.242 0 3.584-1.872 1.32-1.872-1.241 0-3.583 1.872-1.32 1.872z"/><path d="m148.486 414.924c2.036 0 2.485-2.788.213-2.788-2.036 0-2.485 2.788-.213 2.788z"/><path d="m145.489 425.794c1.959 0 2.554-2.567.272-2.567-1.959 0-2.554 2.567-.272 2.567z"/><path d="m132.168 421.455c1.072 0 3.636-1.605 1.392-1.605-1.072 0-3.636 1.605-1.392 1.605z"/><path d="m127.807 266.584c1.502 0 3.481-2.274 1.213-2.274-1.503 0-3.482 2.274-1.213 2.274z"/><path d="m141.018 296.039c1.908 0 2.599-2.424.31-2.424-1.907-.001-2.598 2.424-.31 2.424z"/><path d="m166.673 289.401c1.459 0 3.501-2.207 1.231-2.207-1.459 0-3.501 2.207-1.231 2.207z"/><path d="m163.068 265.792c1.245 0 3.583-1.876 1.319-1.876-1.245 0-3.583 1.876-1.319 1.876z"/><path d="m111.219 302.909h-.297c-.223-.022-.443-.007-.659.046-.232.029-.454.095-.667.198l-.523.338-.356.405-.104.291.146.547.236.201c.218.123.452.192.703.207h.297c.223.022.443.007.659-.046.232-.029.454-.095.667-.198l.523-.338.356-.405.104-.291-.146-.547-.236-.2c-.218-.123-.452-.192-.703-.208z"/><path d="m112.37 340.163c1.478 0 3.492-2.238 1.222-2.238-1.478 0-3.491 2.238-1.222 2.238z"/><path d="m141.983 348.899c.198.297.396.594.594.89l.377.201.529.087c.221.007.439-.016.653-.069.23-.035.453-.1.667-.195l.38-.191.524-.46.117-.244-.118-.441c-.198-.297-.396-.594-.594-.89l-.377-.201-.53-.087c-.221-.007-.439.016-.653.069-.23.035-.453.1-.667.195l-.38.191-.524.46-.117.244z"/><path d="m153.884 326.685c1.32 0 3.556-1.992 1.288-1.992-1.32.001-3.557 1.992-1.288 1.992z"/><path d="m132.211 315.967c1.275 0 3.573-1.922 1.307-1.922-1.275 0-3.573 1.922-1.307 1.922z"/><path d="m191.258 324.614.296.297.394.264.542.135c.223.021.443.005.659-.047.232-.03.454-.096.667-.198l.375-.21c.209-.137.378-.312.507-.526l.105-.288-.145-.54-.297-.297-.394-.264-.543-.135c-.223-.021-.442-.005-.658.047-.232.03-.454.096-.667.198l-.375.21c-.209.137-.378.312-.507.526l-.105.288z"/><path d="m186.158 344.501c-.198.495-.396.989-.594 1.484l-.087.474.151.443.404.304.551.165.433.006c.313-.026.611-.106.895-.24l.372-.222c.21-.15.375-.339.495-.568.198-.495.396-.989.593-1.484l.087-.474-.151-.443-.405-.304-.55-.165-.433-.006c-.313.026-.611.106-.895.24l-.372.222c-.209.15-.374.34-.494.568z"/><path d="m171.98 368.508c1.293 0 3.566-1.95 1.3-1.95-1.293 0-3.566 1.95-1.3 1.95z"/><path d="m158.956 346.374c1.452 0 3.503-2.197 1.233-2.197-1.452 0-3.503 2.197-1.233 2.197z"/><path d="m144.798 375.037v.297l.11.532.331.435.533.252c.204.075.416.102.636.082l.46-.073c.297-.079.564-.214.802-.407l.286-.297c.159-.206.252-.438.278-.696v-.297l-.11-.532-.331-.435-.533-.252c-.204-.075-.416-.102-.636-.082l-.46.073c-.296.079-.564.214-.802.407l-.286.297c-.16.206-.252.438-.278.696z"/><path d="m151.753 384.948c1.064 0 3.638-1.593 1.395-1.593-1.064 0-3.638 1.593-1.395 1.593z"/><path d="m166.023 397.804c1.186 0 3.603-1.785 1.344-1.785-1.186 0-3.603 1.785-1.344 1.785z"/><path d="m184.994 400.705c2.052 0 2.469-2.838.199-2.838-2.052 0-2.469 2.838-.199 2.838z"/><path d="m202.143 392.349.593.297.492.1.61-.016c.232-.028.457-.083.675-.166.211-.06.412-.146.602-.259l.308-.212.342-.456.005-.221-.334-.327-.594-.297-.492-.1-.61.016c-.232.028-.457.083-.675.166-.212.06-.412.147-.602.259l-.309.212-.342.456-.005.221z"/><path d="m207.613 407.132.3.592.404.304.551.165c.224.03.444.019.662-.034.233-.026.455-.093.666-.2l.372-.222c.211-.15.376-.339.495-.568l.097-.316c.027-.222-.027-.422-.161-.601l-.301-.592-.404-.304-.551-.165c-.224-.03-.445-.019-.662.034-.233.026-.455.093-.666.2l-.372.222c-.21.15-.375.339-.495.568l-.097.316c-.026.221.028.422.162.601z"/><path d="m202.201 416.414c2.04 0 2.481-2.8.21-2.8-2.04 0-2.481 2.8-.21 2.8z"/><path d="m186.548 413.714c1.421 0 3.516-2.148 1.247-2.148-1.421 0-3.517 2.148-1.247 2.148z"/><path d="m171.948 409.34c1.137 0 3.618-1.708 1.364-1.708-1.137-.001-3.617 1.708-1.364 1.708z"/><path d="m159.997 409.941c1.868 0 2.633-2.318.339-2.318-1.868 0-2.633 2.318-.339 2.318z"/><path d="m158.311 389.807c1.206 0 3.596-1.816 1.335-1.816-1.206 0-3.595 1.816-1.335 1.816z"/><path d="m176.928 384.075c.396.198.791.396 1.187.594l.497.12.613-.003c.233-.025.458-.08.675-.165.212-.061.412-.15.6-.268l.305-.223.334-.487v-.24l-.344-.363c-.396-.198-.791-.396-1.187-.594l-.497-.12-.613.003c-.233.025-.458.08-.676.165-.212.061-.411.15-.599.268l-.306.223-.333.487v.24z"/><path d="m175.735 401.721-.3.592-.079.505.16.476.412.332.556.186.435.015c.314-.022.612-.102.895-.24l.37-.23c.211-.16.374-.359.488-.598l.3-.592.079-.505-.16-.476-.412-.332-.556-.186-.435-.015c-.314.022-.612.102-.895.24l-.37.23c-.211.16-.374.359-.488.598z"/><path d="m172.801 389.331c1.986 0 2.53-2.644.251-2.644-1.986 0-2.529 2.644-.251 2.644z"/><path d="m161.201 379.437c1.914 0 2.594-2.442.305-2.442-1.914 0-2.594 2.442-.305 2.442z"/><path d="m137.772 390.178c1.956 0 2.557-2.559.274-2.559-1.956.001-2.556 2.559-.274 2.559z"/><path d="m128.26 367.274c-.396-.297-.791-.594-1.187-.89l-.503-.141-.617-.01c-.234.022-.459.076-.676.164-.212.061-.411.154-.597.276l-.302.234-.325.52.005.26.354.4c.396.297.792.594 1.187.89l.503.141.617.01c.234-.022.459-.076.676-.164.212-.061.411-.154.597-.276l.303-.235.325-.52-.005-.259z"/><path d="m121.812 357.766c1.217 0 3.592-1.834 1.331-1.834-1.217 0-3.592 1.834-1.331 1.834z"/><path d="m157.771 361.22c1.463 0 3.499-2.214 1.229-2.214-1.463.001-3.498 2.214-1.229 2.214z"/><path d="m190.425 420.835c1.038 0 3.645-1.551 1.406-1.551-1.037-.001-3.645 1.551-1.406 1.551z"/><path d="m193.408 408.313c.756 0 3.824-1.436 2.168-1.436-.756 0-3.825 1.436-2.168 1.436z"/><path d="m204.016 412.315c1.867 0 2.633-2.317.339-2.317-1.867 0-2.633 2.317-.339 2.317z"/><path d="m208.239 421.302v.396l.213.216.405.119.579-.009c.225-.014.447-.053.664-.117l.442-.144c.249-.093.481-.216.697-.369l.228-.204.141-.395v-.396l-.213-.216-.405-.119-.579.009c-.225.014-.447.053-.664.117l-.442.144c-.249.093-.481.216-.697.369l-.228.204z"/><path d="m220.957 424.241c1.347 0 3.546-2.033 1.277-2.033-1.346 0-3.546 2.033-1.277 2.033z"/><path d="m230.33 424.189c1.87 0 2.631-2.324.337-2.324-1.87 0-2.631 2.324-.337 2.324z"/><path d="m235.822 417.025c1.48 0 3.491-2.24 1.222-2.24-1.48-.001-3.491 2.24-1.222 2.24z"/><path d="m221.453 413.168-.396.198-.519.353-.35.429-.089.468.149.437.241.221c.218.135.455.215.711.238l.433.005c.313-.027.611-.107.895-.24l.396-.198.519-.353.35-.429.089-.468-.149-.437-.241-.221c-.218-.135-.455-.215-.711-.238l-.432-.005c-.313.027-.612.107-.896.24z"/><path d="m219.92 406.408c0-.33 0-.659 0-.989l-.065-.364-.289-.279-.501-.134-.616-.006-.456.088c-.29.076-.562.193-.817.35l-.303.231-.327.51v.989l.065.364.289.279.501.134.615.007.456-.088c.29-.076.562-.193.817-.35l.303-.231z"/><path d="m217.211 399.758c1.41 0 3.521-2.131 1.251-2.131-1.41 0-3.521 2.131-1.251 2.131z"/><path d="m201.643 402.031c1.871 0 2.63-2.326.336-2.326-1.87.001-2.63 2.326-.336 2.326z"/><path d="m195.437 389.236-.396-.396-.41-.324-.555-.18c-.224-.034-.445-.026-.664.027-.233.025-.455.092-.666.201l-.37.228c-.211.157-.374.353-.49.589l-.094.33c-.024.233.033.444.17.633l.396.396.41.324.554.18c.225.034.446.026.664-.026.233-.025.455-.092.666-.201l.37-.228c.211-.157.374-.353.49-.589l.094-.33c.024-.234-.032-.445-.169-.634z"/><path d="m191.257 382.01c1.229 0 3.588-1.852 1.326-1.852-1.23.001-3.589 1.852-1.326 1.852z"/><path d="m213.548 379.211c1.965 0 2.549-2.583.268-2.583-1.966 0-2.549 2.583-.268 2.583z"/><path d="m214.509 392.688.395.594.4.286.547.151c.224.026.443.013.66-.04.232-.028.455-.094.666-.199l.373-.217c.21-.144.377-.327.501-.549l.1-.303c.029-.213-.022-.404-.154-.574l-.396-.594-.4-.286-.547-.152c-.224-.026-.444-.013-.661.04-.232.028-.455.094-.666.199l-.373.217c-.21.144-.377.327-.5.549l-.101.303c-.027.214.024.405.156.575z"/><path d="m237.005 390.301c1.46 0 3.5-2.209 1.23-2.209-1.46-.001-3.499 2.209-1.23 2.209z"/><path d="m249.631 402.431c1.285 0 3.569-1.938 1.303-1.938-1.285 0-3.57 1.938-1.303 1.938z"/><path d="m246.686 411.413-.198.198-.244.482-.02.504.27.426.452.295.392.098c.302.038.6.017.894-.063l.436-.163c.256-.123.476-.293.66-.51l.198-.198.244-.482.02-.504-.27-.427-.453-.295-.391-.098c-.302-.038-.6-.017-.894.063l-.436.163c-.256.124-.476.294-.66.511z"/><path d="m235.028 402.93c-.264-.064-.528-.128-.793-.192l-.605-.091c-.228-.017-.453.008-.675.075-.226.052-.433.143-.622.272l-.479.382-.201.302c-.103.204-.128.417-.076.638l.142.288c.151.185.34.315.568.388.264.064.529.128.793.192l.605.091c.228.017.454-.008.675-.075.226-.052.434-.143.623-.272l.479-.382.201-.302c.103-.204.128-.417.075-.638l-.142-.288c-.15-.185-.34-.315-.568-.388z"/><path d="m223.541 409.163-.198.396-.081.497.158.468.41.325.555.181.434.013c.314-.023.612-.103.896-.24l.37-.228c.211-.157.374-.354.489-.59l.198-.396.081-.497-.158-.468-.41-.325-.555-.181-.434-.013c-.314.023-.612.103-.895.24l-.37.228c-.212.157-.375.354-.49.59z"/><path d="m229.28 414.993c1.411 0 3.52-2.134 1.25-2.134-1.412 0-3.52 2.134-1.25 2.134z"/><path d="m248.764 424.121c1.966 0 2.549-2.584.267-2.584-1.965 0-2.549 2.584-.267 2.584z"/><path d="m262.05 418.093c1.073 0 3.636-1.608 1.391-1.608-1.073 0-3.635 1.608-1.391 1.608z"/><path d="m271.56 415.966c1.135 0 3.619-1.705 1.365-1.705-1.135-.001-3.618 1.705-1.365 1.705z"/><path d="m277.892 404.449v-.198l-.073-.393-.296-.306-.506-.155-.619-.02-.457.085c-.291.076-.563.196-.815.36l-.3.242c-.161.15-.267.33-.319.543v.198l.073.394.296.306.507.155.619.02.457-.085c.291-.076.563-.196.815-.36l.301-.242c.159-.151.265-.331.317-.544z"/><path d="m266.612 397.049c.672 0 1.907-.079 2.382-.638.32-.377.621-.824-.221-.824-.672 0-1.907.079-2.382.638-.32.377-.621.824.221.824z"/><path d="m193.686 370.348c1.497 0 3.483-2.267 1.215-2.267-1.497 0-3.484 2.267-1.215 2.267z"/><path d="m181.317 360.082c2.008 0 2.51-2.707.234-2.707-2.008 0-2.51 2.707-.234 2.707z"/><path d="m172.839 345.539c1.14 0 3.617-1.714 1.363-1.714-1.141 0-3.617 1.714-1.363 1.714z"/><path d="m175.439 327.99c-.133-.263-.265-.527-.398-.79l-.217-.23-.408-.131-.581.001c-.225.012-.447.05-.665.114l-.441.145c-.249.094-.481.221-.695.378l-.226.212-.136.413c.133.263.265.527.398.79l.217.23.408.131.581-.001c.226-.012.447-.05.665-.114l.441-.145c.249-.094.481-.221.695-.378l.226-.212z"/><path d="m137.796 333.153-.396.198-.525.333-.358.397-.1.426.137.391.234.194c.218.118.452.184.7.197l.429-.007c.311-.032.61-.112.895-.24l.396-.198.525-.333.358-.397.1-.426-.137-.391-.234-.194c-.218-.118-.452-.184-.7-.197l-.429.007c-.311.032-.609.112-.895.24z"/><path d="m119.89 317.917-.198-.198-.375-.194-.528-.081c-.221-.005-.438.018-.652.072-.23.036-.453.101-.668.194l-.38.189-.527.452-.118.238.115.43.198.198.375.194.528.081c.221.005.438-.018.652-.072.23-.036.453-.101.668-.194l.381-.189.526-.452.118-.238z"/><path d="m106.523 326.806c1.981 0 2.535-2.629.255-2.629-1.981 0-2.535 2.629-.255 2.629z"/></g><path d="m279.097 144.241c33.87 17.393 53.369 52.574 61.049 88.731 2.396 11.28 3.764 22.746 4.462 34.25.08 1.309 3.457.563 3.368-.902-2.353-38.715-13.311-78.75-42-106.428-7.203-6.949-15.336-12.867-24.242-17.441-1.136-.583-4.17 1.003-2.637 1.79z" fill="#fff"/><path d="m342.122 129.21c29.378 11.852 53.92 33.793 70.516 60.632 18.57 30.031 26.194 65.645 23.799 100.728-1.427 20.906-6.306 41.473-14.185 60.878-.728 1.794 2.654 1.797 3.223.395 14.083-34.685 18.752-73.367 11.28-110.19-6.621-32.633-23.212-62.861-47.495-85.687-13.146-12.358-28.459-22.286-45.198-29.039-1.436-.581-3.924 1.482-1.94 2.283z" fill="#fff"/><path d="m215.427 86.65c9.5-2.66 19.445-2.896 29.072-.759 1.734.385 3.356-2.078 1.133-2.571-10.186-2.26-20.819-1.933-30.862.88-2.08.582-1.437 3.036.657 2.45z" fill="#37342a"/></g></svg>