<?xml version="1.0" encoding="UTF-8"?>
<!-- Generator: Adobe Illustrator 25.1.0, SVG Export Plug-In . SVG Version: 6.00 Build 0)  -->
<svg xmlns="http://www.w3.org/2000/svg" xmlns:xlink="http://www.w3.org/1999/xlink" version="1.1" id="Capa_1" x="0px" y="0px" viewBox="0 0 500 500" style="enable-background:new 0 0 500 500;" xml:space="preserve" width="512" height="512">
<g>
	<path style="fill:#FFFFFF;" d="M317.331,121.231"/>
	<path style="fill:#251426;" d="M181.134,127.514c-6.266,0-13.129-0.701-20.662-2.478c-20.609-4.863-35.996-20.776-42.219-43.659   c-6.639-24.414-1.542-51.609,12.118-64.664c4.604-4.401,7.665-5.897,9.939-4.842c3.929,1.818,3.393,10.985,2.651,23.672   c-0.806,13.769-1.808,30.903,2.806,43.109c6.417,16.977,24.665,27.803,30.651,27.828c0.479,0.016,1.283-0.064,1.463-0.533   c0.128-0.328,0.886-3.526-11.461-14.697c-10.092-9.13-15.609-26.538-0.827-48.014c5.361-7.791,13.43-14.865,17.826-12.629   c3.229,1.642,3.194,7.237-0.106,16.634c-9.708,27.646,6.503,44.001,13.569,47.971c2.825,1.585,4.225,1.44,4.416,1.202   c0.176-0.215,0.166-1.8-3.108-5.603c-9.209-10.698-2.901-32.069,3.218-41.027c2.873-4.204,5.771-6.052,8.149-5.218   c3.685,1.297,5.036,8.603,4.014,21.716c-1.222,15.688,2.142,27.317,9.998,34.564c11.76,10.846,29.829,8.105,30.011,8.077   c0.529-0.095,1.035,0.277,1.121,0.811c0.085,0.533-0.277,1.035-0.81,1.121c-0.779,0.123-19.17,2.928-31.636-8.561   c-8.329-7.673-11.907-19.842-10.635-36.166c1.321-16.944-1.742-19.376-2.712-19.717c-1.402-0.5-3.66,1.22-5.883,4.475   c-6.764,9.904-11.313,29.397-3.351,38.646c3.329,3.867,4.385,6.598,3.138,8.12c-1.114,1.366-3.629,1.094-6.889-0.737   c-7.464-4.193-24.612-21.407-14.457-50.325c4.087-11.639,1.849-13.843,1.066-14.241c-2.528-1.294-9.292,3.225-15.327,11.994   c-9.222,13.4-13.927,32.377,0.528,45.454c9.091,8.225,13.12,13.896,11.973,16.855c-0.259,0.668-1.027,1.784-3.268,1.784   c-0.01,0-0.019,0-0.029-0.001c-7.555-0.032-26.031-12.05-32.473-29.093c-4.761-12.596-3.745-29.962-2.929-43.916   c0.617-10.555,1.2-20.523-1.519-21.781c-0.948-0.444-3.061-0.016-7.766,4.48c-13.172,12.588-18.042,38.973-11.581,62.735   c3.543,13.028,13.552,35.843,40.779,42.267c23.963,5.657,40.406,0.377,53.616-3.867c13.782-4.426,23.738-7.622,32.753,6.521   c0.291,0.455,0.157,1.06-0.299,1.35c-0.457,0.29-1.06,0.157-1.35-0.299c-8.206-12.866-16.594-10.172-30.506-5.708   C206.319,123.958,195.244,127.513,181.134,127.514z"/>
	<path style="fill:#251426;" d="M300.571,125.613c-0.149,0-0.301-0.034-0.443-0.106c-0.482-0.246-0.673-0.835-0.428-1.317   c7.61-14.944,17.827-12.724,31.972-9.651c13.557,2.947,30.433,6.615,53.74-1.326c26.481-9.023,34.24-32.697,36.509-46.006   c4.138-24.275-3.256-50.066-17.583-61.325c-5.117-4.021-7.261-4.237-8.161-3.71c-2.585,1.514-1.043,11.38,0.591,21.826   c2.159,13.81,4.845,30.998,1.322,43.994c-4.767,17.585-21.996,31.33-29.514,32.091c-2.246,0.233-3.13-0.815-3.453-1.456   c-1.428-2.835,2.035-8.868,10.29-17.933c13.125-14.41,6.611-32.845-3.862-45.292c-6.852-8.143-14.013-11.984-16.414-10.459   c-0.741,0.472-2.755,2.881,2.436,14.072c12.898,27.803-2.509,46.593-9.533,51.486c-3.069,2.139-5.542,2.649-6.785,1.398   c-1.387-1.394-0.599-4.216,2.34-8.385c7.032-9.975,0.624-28.938-7.065-38.144c-2.529-3.027-4.936-4.509-6.287-3.887   c-0.933,0.434-3.746,3.149-0.797,19.887c2.842,16.125,0.455,28.583-7.094,37.024c-11.3,12.638-29.882,11.621-30.661,11.573   c-0.54-0.034-0.949-0.499-0.916-1.038c0.034-0.538,0.497-0.937,1.038-0.916c0.186,0.017,18.431,0.997,29.09-10.935   c7.121-7.972,9.347-19.873,6.616-35.369c-2.283-12.952-1.644-20.355,1.898-22.002c2.29-1.065,5.351,0.498,8.615,4.407   c6.956,8.326,15.298,28.989,7.164,40.526c-2.893,4.102-2.75,5.68-2.553,5.877c0.209,0.208,1.62,0.226,4.279-1.624   c6.65-4.633,21.208-22.477,8.876-49.057c-4.191-9.034-4.767-14.601-1.711-16.546c4.152-2.65,12.874,3.613,18.962,10.85   c16.787,19.95,12.975,37.809,3.811,47.871c-11.211,12.308-10.148,15.419-9.989,15.734c0.226,0.447,1.04,0.433,1.508,0.389   c5.955-0.602,23.073-13.14,27.822-30.656c3.414-12.594,0.763-29.553-1.368-43.18c-1.963-12.557-3.381-21.629,0.355-23.818   c2.156-1.264,5.352-0.074,10.36,3.861c14.856,11.676,22.554,38.252,18.302,63.192c-3.985,23.377-17.765,40.701-37.808,47.529   c-23.82,8.119-41.719,4.226-54.787,1.386c-14.272-3.102-22.887-4.972-29.811,8.627   C301.272,125.418,300.928,125.613,300.571,125.613z"/>
	<path style="fill:#D7736D;" d="M213.822,277.169c0,0-14.862-182.54,57.26-181.263c45.238,0.801,113.886,50.095,113.598,83.107   c-0.167,19.197-81.141-1.564-81.141-1.564l17.82,75.077L213.822,277.169z"/>
	<path style="fill:#251426;" d="M274.069,150.078c-4.391,0-11.029-8.032-12.402-9.756c-0.336-0.422-0.267-1.038,0.156-1.375   c0.423-0.338,1.039-0.267,1.375,0.156c3.33,4.178,9.02,9.728,11.237,8.964c0.156-0.054,0.334-0.154,0.475-0.5   c1.054-2.581-2.325-11.042-4.703-15.768c-0.243-0.483-0.048-1.071,0.435-1.314c0.484-0.243,1.072-0.048,1.314,0.435   c0.67,1.332,6.499,13.142,4.766,17.387c-0.324,0.795-0.895,1.353-1.652,1.612C274.752,150.027,274.418,150.078,274.069,150.078z"/>
	<path style="fill:#251426;" d="M301.087,138.184c-1.935,0-5.911-2.213-12.868-14.78c-0.262-0.473-0.091-1.068,0.382-1.33   c0.471-0.261,1.068-0.092,1.33,0.382c4.486,8.101,9.738,14.52,11.225,13.767c1.717-0.881-0.176-9.446-3.022-16.892   c-0.192-0.506,0.06-1.071,0.565-1.264c0.507-0.189,1.071,0.06,1.264,0.565c1.529,4.002,6.199,17.223,2.086,19.333   C301.815,138.086,301.496,138.184,301.087,138.184z"/>
	<path style="fill:#FAD7B3;" d="M283.452,252.978c0,0-5.186-92.375,15.029-96.868c20.216-4.492,96.306,4.492,86.199,28.078   c-3.245,7.573-74.844-1.67-74.844-1.67l12.791,70.46H283.452z"/>
	<path style="fill:#251426;" d="M350.876,181.811c-0.796,0-1.531-0.297-2.143-0.87c-2.728-2.552-2.484-10.378-2.447-11.262   c0.023-0.54,0.519-0.964,1.018-0.937c0.54,0.022,0.96,0.478,0.938,1.018c-0.123,2.994,0.264,8.289,1.828,9.752   c0.29,0.27,0.584,0.372,0.952,0.333c2.499-0.272,4.958-7.337,5.905-12.266c0.103-0.53,0.617-0.869,1.146-0.777   c0.53,0.102,0.878,0.615,0.777,1.146c-0.426,2.219-2.794,13.318-7.616,13.843C351.114,181.804,350.994,181.811,350.876,181.811z"/>
	<path style="fill:#D7736D;" d="M235.757,135.769l-34.063-14.237c0,0-3.864,17.386,3.864,25.113s32.357-4.658,32.357-4.658   L235.757,135.769z"/>
	<path style="fill:#251426;" d="M231.877,142.965c-0.266,0-0.53-0.107-0.723-0.319c-7.643-8.382-22.627-1.697-22.777-1.629   c-0.492,0.228-1.071,0.005-1.296-0.485c-0.224-0.492-0.007-1.072,0.485-1.296c0.665-0.304,16.442-7.33,25.034,2.092   c0.364,0.399,0.335,1.019-0.064,1.383C232.349,142.881,232.113,142.965,231.877,142.965z"/>
	<path style="fill:#251326;" d="M371.908,151.929c0,0-20.167,28.8,0.623,35.162c0,0,10.704,3.363,13.251-5.31   C391.684,161.691,371.908,151.929,371.908,151.929z"/>
	<path style="fill:#251326;" d="M277.07,103.882c-0.202,0-0.404-0.062-0.579-0.19c-0.938-0.69-3.806-2.49-5.343-2.407   c-0.559,0.022-0.995-0.4-1.015-0.94c-0.021-0.54,0.4-0.995,0.94-1.015c2.585-0.114,6.178,2.491,6.578,2.787   c0.436,0.32,0.529,0.933,0.207,1.368C277.667,103.744,277.37,103.882,277.07,103.882z"/>
	<path style="fill:#251326;" d="M265.984,107.838c-0.202,0-0.404-0.062-0.579-0.19c-0.938-0.691-3.764-2.445-5.343-2.408   c-0.548,0.019-0.995-0.4-1.015-0.94c-0.021-0.54,0.4-0.995,0.94-1.015c2.582-0.101,6.178,2.491,6.579,2.788   c0.435,0.32,0.528,0.933,0.206,1.368C266.581,107.701,266.284,107.838,265.984,107.838z"/>
	<path style="fill:#251326;" d="M280.05,110.426c-0.202,0-0.404-0.062-0.579-0.19c-0.939-0.691-3.681-2.466-5.343-2.408   c-0.53,0.056-0.994-0.401-1.014-0.941c-0.02-0.54,0.4-0.994,0.941-1.014c2.532-0.08,6.176,2.491,6.577,2.788   c0.435,0.32,0.528,0.933,0.206,1.368C280.647,110.289,280.35,110.426,280.05,110.426z"/>
	<path style="fill:#251326;" d="M272.501,115.255c-0.09,0-0.182-0.012-0.272-0.039c-1.119-0.323-4.351-1.029-5.845-0.415   c-0.5,0.205-1.07-0.032-1.278-0.532c-0.205-0.5,0.033-1.072,0.532-1.278c2.391-0.986,6.657,0.205,7.136,0.346   c0.519,0.15,0.817,0.693,0.666,1.212C273.316,114.977,272.925,115.255,272.501,115.255z"/>
	<path style="fill:#251326;" d="M226.234,188.99c-0.352,0-0.692-0.19-0.867-0.523c-1.563-2.97-0.528-8.707-0.404-9.351   c0.101-0.53,0.602-0.878,1.145-0.778c0.53,0.101,0.879,0.614,0.778,1.145c-0.298,1.565-0.841,6.069,0.213,8.073   c0.252,0.479,0.068,1.07-0.41,1.322C226.544,188.953,226.388,188.99,226.234,188.99z"/>
	<path style="fill:#251326;" d="M226.373,171.383c-0.442,0-0.842-0.3-0.95-0.748c-0.79-3.261,1.614-8.572,1.891-9.167   c0.227-0.489,0.813-0.701,1.299-0.474c0.49,0.227,0.703,0.809,0.476,1.3c-0.672,1.445-2.297,5.68-1.764,7.881   c0.127,0.526-0.195,1.054-0.721,1.181C226.527,171.374,226.45,171.383,226.373,171.383z"/>
	<path style="fill:#251326;" d="M233.122,179.019c-0.366,0-0.718-0.206-0.885-0.558c-1.44-3.03-0.173-8.722-0.024-9.361   c0.122-0.527,0.65-0.852,1.175-0.73c0.527,0.122,0.853,0.649,0.731,1.175c-0.361,1.552-1.087,6.029-0.114,8.075   c0.232,0.488,0.024,1.072-0.464,1.305C233.406,178.988,233.263,179.019,233.122,179.019z"/>
	<path style="fill:#251326;" d="M233.112,197.752c-0.442,0-0.842-0.3-0.95-0.748c-0.79-3.261,1.614-8.572,1.891-9.167   c0.227-0.491,0.813-0.701,1.299-0.474c0.49,0.227,0.703,0.809,0.476,1.3c-0.672,1.445-2.297,5.68-1.764,7.881   c0.127,0.526-0.195,1.054-0.721,1.181C233.266,197.744,233.188,197.752,233.112,197.752z"/>
	<path style="fill:#251326;" d="M234.012,216.727c-0.442,0-0.842-0.3-0.95-0.748c-0.79-3.261,1.614-8.572,1.891-9.167   c0.227-0.492,0.814-0.7,1.299-0.474c0.49,0.227,0.703,0.809,0.476,1.3c-0.672,1.445-2.297,5.68-1.764,7.881   c0.127,0.526-0.195,1.054-0.721,1.181C234.166,216.718,234.089,216.727,234.012,216.727z"/>
	<path style="fill:#251326;" d="M250.804,112.415c-0.332,0-0.655-0.168-0.838-0.472c-0.28-0.463-0.132-1.065,0.331-1.344   c2.214-1.339,6.611-0.815,7.105-0.75c0.536,0.069,0.914,0.56,0.844,1.095c-0.071,0.537-0.57,0.903-1.095,0.846   c-1.158-0.151-4.457-0.356-5.84,0.484C251.151,112.369,250.976,112.415,250.804,112.415z"/>
	<path style="fill:#251326;" d="M289.522,105.581c-0.247,0-0.493-0.093-0.683-0.278c-0.834-0.813-3.351-2.96-4.959-3.123   c-0.538-0.054-0.93-0.535-0.875-1.072c0.055-0.537,0.539-0.919,1.072-0.875c2.575,0.261,5.773,3.322,6.13,3.671   c0.386,0.377,0.393,0.997,0.016,1.383C290.03,105.482,289.776,105.581,289.522,105.581z"/>
	<path style="fill:#D7736D;" d="M322.628,252.978c0,0,29.856,105.068,6.893,121.788c-22.963,16.72-198.224,12.031-204.317,10.979   c-43.69-7.542-28.758-100.467,4.538-117.401S304.254,238.471,322.628,252.978z"/>
	<path style="fill:#D7736D;" d="M333.376,339.677c0,0,58.478-9.608,54.315,34.535c-2.378,25.218-24.198,50.518-24.198,50.518   l30.038,14.517c0,0,16.536-46.285,17.468-74.103c1.592-47.52-84.535-69.757-84.535-69.757L333.376,339.677z"/>
	<path style="fill:#D7736D;" d="M320.374,374.212c0,0,20.746,87.964,9.827,120.72h-22.967c0,0,5.225-104.835-14.293-120.659   L320.374,374.212z"/>
	<path style="fill:#D7736D;" d="M188.978,374.212c0,0,20.746,87.964,9.827,120.72h-22.967c0,0,5.225-104.835-14.293-120.659   L188.978,374.212z"/>
	<path style="fill:#D7736D;" d="M148.406,379.831c0,0-8.959,89.932-29.927,117.364l-21.721-7.462c0,0,39.002-97.45,25.684-118.757   L148.406,379.831z"/>
	<path style="fill:#D7736D;" d="M122.582,279.215c0,0-25.176-23.487-22.373-41.102c2.803-17.615-63.728,68.173,8.683,61.488   C108.891,299.601,127.472,296.831,122.582,279.215z"/>
	<path style="fill:#251326;" d="M307.235,494.932h30.967c0,0-4.774-18.8-4.826-20.584h-26.142V494.932z"/>
	<polygon style="fill:#251326;" points="373.874,410.214 399.061,423.311 393.532,439.247 359.986,426.487  "/>
	<path style="fill:#FAD7B3;" d="M292.686,160.555c0,0-65.242,116.779,33.809,107.294c0,0-4.505-51.755-20.907-101.114   L292.686,160.555z"/>
	<path style="fill:#FAD7B3;" d="M298.583,382.611c0,0-16.425-18.257-61.514-25.434s-83.738-6.661-89.426,29.46   C147.643,386.637,265.689,395.435,298.583,382.611z"/>
	<path style="fill:#FAD7B3;" d="M321.277,378.203c0,0-13.352-56.236,10.926-81.147C332.203,297.056,361.57,367.242,321.277,378.203z   "/>
	<path style="fill:#251326;" d="M175.839,494.932h26.142c0,0-0.113-20.325-0.098-20.737c0.015-0.412-26.044,0.153-26.044,0.153   V494.932z"/>
	<polygon style="fill:#251326;" points="103.41,472.057 127.818,479.382 122.582,500 96.758,489.733  "/>
	<circle style="fill:#D55662;" cx="264.113" cy="163.321" r="11.356"/>
	<circle style="fill:#D55662;" cx="322.718" cy="130.337" r="11.356"/>
	<path style="fill:#251326;" d="M314.745,242.025c-0.006,0-0.012,0-0.019,0c-0.54-0.011-0.97-0.458-0.96-0.998   c0.031-1.593-0.192-6.123-1.569-7.923c-0.329-0.429-0.247-1.043,0.183-1.371c0.429-0.327,1.045-0.247,1.371,0.183   c2.039,2.664,1.985,8.494,1.973,9.15C315.713,241.599,315.277,242.025,314.745,242.025z"/>
	<path style="fill:#251326;" d="M315.431,259.578c-0.085,0-0.172-0.011-0.258-0.034c-0.522-0.142-0.829-0.68-0.687-1.201   c0.419-1.539,1.308-5.986,0.413-8.066c-0.214-0.496,0.015-1.072,0.511-1.285c0.493-0.213,1.072,0.014,1.285,0.511   c1.327,3.081-0.148,8.722-0.321,9.354C316.256,259.292,315.861,259.578,315.431,259.578z"/>
	<path style="fill:#251326;" d="M309.285,253.077c-0.02,0-0.039-0.001-0.059-0.002c-0.54-0.033-0.951-0.496-0.918-1.035   c0.095-1.591,0.056-6.127-1.246-7.98c-0.311-0.442-0.205-1.053,0.238-1.364c0.442-0.311,1.052-0.203,1.364,0.238   c1.929,2.745,1.638,8.568,1.598,9.223C310.229,252.677,309.798,253.077,309.285,253.077z"/>
	<path style="fill:#251326;" d="M304.352,234.718c-0.085,0-0.172-0.011-0.258-0.034c-0.522-0.142-0.829-0.68-0.687-1.201   c0.419-1.539,1.308-5.985,0.412-8.066c-0.213-0.496,0.016-1.072,0.512-1.286c0.492-0.208,1.071,0.015,1.286,0.512   c1.327,3.082-0.149,8.722-0.322,9.355C305.177,234.432,304.782,234.718,304.352,234.718z"/>
	<path style="fill:#251326;" d="M312.598,221.051c-0.085,0-0.172-0.011-0.258-0.034c-0.522-0.142-0.829-0.68-0.687-1.201   c0.419-1.538,1.308-5.985,0.412-8.066c-0.214-0.496,0.014-1.072,0.511-1.285c0.495-0.218,1.072,0.013,1.285,0.511   c1.328,3.082-0.147,8.722-0.32,9.355C313.422,220.765,313.028,221.051,312.598,221.051z"/>
	<path style="fill:#251326;" d="M304.769,216.696c-0.085,0-0.172-0.011-0.258-0.034c-0.522-0.142-0.829-0.68-0.687-1.201   c0.419-1.539,1.308-5.985,0.412-8.066c-0.213-0.496,0.016-1.072,0.512-1.286c0.494-0.21,1.072,0.015,1.286,0.512   c1.327,3.082-0.149,8.722-0.322,9.355C305.593,216.41,305.199,216.696,304.769,216.696z"/>
	<path style="fill:#251326;" d="M332.962,353.829c-0.085,0-0.172-0.011-0.258-0.034c-0.522-0.142-0.829-0.68-0.687-1.201   c0.419-1.539,1.308-5.986,0.413-8.066c-0.214-0.496,0.015-1.072,0.511-1.285c0.493-0.215,1.072,0.014,1.285,0.511   c1.327,3.081-0.148,8.722-0.321,9.354C333.786,353.543,333.392,353.829,332.962,353.829z"/>
	<path style="fill:#251326;" d="M333.812,333.138c-0.085,0-0.172-0.011-0.258-0.034c-0.522-0.142-0.829-0.68-0.687-1.201   c0.419-1.539,1.308-5.985,0.412-8.066c-0.213-0.496,0.016-1.072,0.512-1.286c0.495-0.207,1.071,0.016,1.286,0.512   c1.327,3.082-0.149,8.722-0.322,9.355C334.637,332.853,334.242,333.138,333.812,333.138z"/>
	<path style="fill:#251326;" d="M326.08,344.344c-0.085,0-0.172-0.011-0.258-0.034c-0.522-0.142-0.829-0.68-0.687-1.201   c0.419-1.538,1.308-5.985,0.413-8.065c-0.214-0.496,0.015-1.072,0.511-1.285c0.492-0.215,1.072,0.014,1.285,0.511   c1.327,3.081-0.148,8.721-0.321,9.354C326.904,344.058,326.51,344.344,326.08,344.344z"/>
	<path style="fill:#251326;" d="M229.865,379.44c-2.392,0-4.662-0.45-5.053-0.532c-0.529-0.11-0.869-0.628-0.758-1.157   c0.109-0.529,0.617-0.869,1.157-0.759c1.56,0.324,6.053,0.941,8.077-0.077c0.483-0.247,1.07-0.05,1.314,0.433   c0.244,0.483,0.05,1.07-0.433,1.314C232.996,379.253,231.405,379.44,229.865,379.44z"/>
	<path style="fill:#251326;" d="M218.671,384.76c-2.393,0-4.662-0.45-5.053-0.532c-0.529-0.11-0.869-0.628-0.758-1.157   c0.108-0.528,0.621-0.87,1.157-0.759c1.56,0.326,6.054,0.945,8.076-0.077c0.483-0.248,1.07-0.05,1.314,0.433s0.05,1.07-0.433,1.314   C221.802,384.574,220.211,384.76,218.671,384.76z"/>
	<path style="fill:#251326;" d="M221.66,373.217c-2.392,0-4.662-0.45-5.053-0.532c-0.529-0.11-0.869-0.628-0.758-1.157   c0.109-0.529,0.616-0.87,1.157-0.759c1.561,0.324,6.052,0.941,8.077-0.077c0.481-0.248,1.069-0.051,1.314,0.433   c0.244,0.483,0.05,1.07-0.433,1.314C224.792,373.031,223.201,373.217,221.66,373.217z"/>
	<path style="fill:#251326;" d="M202.475,384.425c-2.393,0-4.662-0.45-5.053-0.532c-0.529-0.11-0.869-0.628-0.758-1.157   c0.109-0.529,0.617-0.874,1.157-0.758c1.561,0.324,6.053,0.942,8.075-0.078c0.482-0.246,1.071-0.051,1.315,0.432   c0.244,0.483,0.05,1.071-0.432,1.315C205.606,384.239,204.015,384.425,202.475,384.425z"/>
	<path style="fill:#251326;" d="M206.833,376.692c-2.393,0-4.662-0.45-5.053-0.532c-0.529-0.11-0.869-0.628-0.758-1.157   c0.109-0.529,0.622-0.871,1.157-0.759c1.56,0.324,6.052,0.944,8.077-0.077c0.483-0.248,1.069-0.05,1.314,0.433   c0.244,0.483,0.05,1.071-0.433,1.314C209.964,376.506,208.373,376.692,206.833,376.692z"/>
	<path style="fill:#251326;" d="M185.481,382.13c-2.392,0-4.662-0.45-5.053-0.532c-0.529-0.11-0.869-0.628-0.758-1.157   c0.108-0.529,0.621-0.869,1.157-0.759c1.56,0.324,6.053,0.941,8.077-0.077c0.481-0.247,1.069-0.05,1.314,0.433   c0.244,0.483,0.05,1.07-0.433,1.314C188.613,381.944,187.022,382.13,185.481,382.13z"/>
	<path style="fill:#251326;" d="M240.614,384.76c-2.393,0-4.662-0.45-5.053-0.532c-0.529-0.11-0.869-0.628-0.758-1.157   c0.109-0.528,0.619-0.87,1.157-0.759c1.561,0.326,6.055,0.945,8.076-0.077c0.481-0.248,1.07-0.05,1.314,0.433   c0.244,0.483,0.05,1.07-0.433,1.314C243.745,384.574,242.154,384.76,240.614,384.76z"/>
	<path style="fill:#251326;" d="M242.939,373.217c-2.393,0-4.662-0.45-5.053-0.532c-0.529-0.11-0.869-0.628-0.758-1.157   c0.109-0.529,0.615-0.87,1.157-0.759c1.561,0.327,6.054,0.944,8.076-0.077c0.482-0.248,1.07-0.051,1.314,0.433   c0.244,0.483,0.05,1.07-0.433,1.314C246.07,373.031,244.479,373.217,242.939,373.217z"/>
	<path style="fill:#251326;" d="M257.843,382.463c-2.393,0-4.662-0.45-5.053-0.532c-0.529-0.11-0.869-0.628-0.758-1.157   c0.109-0.529,0.615-0.871,1.157-0.759c1.561,0.325,6.055,0.945,8.076-0.077c0.48-0.247,1.071-0.051,1.314,0.433   c0.244,0.483,0.05,1.07-0.433,1.314C260.974,382.277,259.383,382.463,257.843,382.463z"/>
	<path style="fill:#251326;" d="M102.806,294.696c-0.002,0-0.004,0-0.006,0c-15.749-0.086-18.666-9.283-19.003-14.757   c-0.551-8.953,4.777-19.807,7.948-20.217c0.759-0.103,1.659,0.293,1.935,1.688c1.395,7.046,15.809,26.956,15.955,27.156   c0.317,0.438,0.22,1.049-0.217,1.368c-0.44,0.317-1.049,0.219-1.368-0.217c-0.604-0.832-14.813-20.461-16.291-27.926   c0-0.005-0.001-0.009-0.002-0.012c-1.784,1.171-6.895,10.35-5.93,18.949c0.889,7.913,6.602,11.955,16.983,12.011   c0.54,0.003,0.976,0.443,0.973,0.984C103.782,294.261,103.345,294.696,102.806,294.696z"/>
	<path style="fill:#251326;" d="M222.685,209.837c-0.442,0-0.842-0.3-0.95-0.748c-0.79-3.262,1.614-8.573,1.891-9.167   c0.228-0.491,0.809-0.702,1.3-0.474c0.489,0.227,0.702,0.809,0.475,1.3c-0.672,1.445-2.297,5.679-1.764,7.881   c0.127,0.526-0.195,1.054-0.721,1.181C222.839,209.828,222.762,209.837,222.685,209.837z"/>
	<path style="fill:#251326;" d="M167.818,267.454c-0.244,0-0.487-0.091-0.678-0.272c-0.39-0.374-0.403-0.993-0.029-1.384   c2.321-2.422,8.092-3.258,8.743-3.346c0.528-0.076,1.026,0.304,1.1,0.839c0.072,0.536-0.304,1.028-0.839,1.101   c-1.58,0.213-6.023,1.126-7.591,2.761C168.332,267.352,168.075,267.454,167.818,267.454z"/>
	<path style="fill:#251326;" d="M181.925,267.454c-0.244,0-0.487-0.091-0.678-0.272c-0.39-0.374-0.403-0.993-0.029-1.384   c2.321-2.422,8.092-3.258,8.743-3.346c0.532-0.076,1.026,0.304,1.1,0.839c0.072,0.536-0.304,1.028-0.839,1.101   c-1.58,0.213-6.023,1.126-7.591,2.761C182.439,267.352,182.182,267.454,181.925,267.454z"/>
	<path style="fill:#251326;" d="M193.54,270.353c-0.244,0-0.487-0.09-0.677-0.272c-0.391-0.374-0.404-0.993-0.03-1.383   c2.32-2.423,8.091-3.259,8.742-3.346c0.529-0.069,1.026,0.304,1.1,0.839c0.072,0.536-0.304,1.028-0.839,1.101   c-1.58,0.213-6.023,1.125-7.59,2.759C194.054,270.252,193.797,270.353,193.54,270.353z"/>
	<path style="fill:#251326;" d="M189.243,280.054c-0.307,0-0.608-0.143-0.799-0.412c-0.313-0.442-0.209-1.052,0.231-1.365   c2.737-1.941,8.561-1.679,9.216-1.64c0.54,0.03,0.953,0.491,0.922,1.031c-0.03,0.539-0.52,0.942-1.031,0.922   c-1.594-0.089-6.128-0.028-7.973,1.283C189.637,279.995,189.439,280.054,189.243,280.054z"/>
	<path style="fill:#251326;" d="M192.565,444.506c-0.011,0-0.023,0-0.034-0.001c-0.54-0.018-0.963-0.471-0.944-1.011   c0.054-1.593-0.102-6.126-1.452-7.945c-0.322-0.434-0.231-1.046,0.203-1.369c0.432-0.322,1.045-0.231,1.369,0.203   c1.999,2.694,1.859,8.522,1.836,9.177C193.523,444.089,193.09,444.506,192.565,444.506z"/>
	<path style="fill:#251326;" d="M192.565,428.696c-0.011,0-0.023,0-0.034-0.001c-0.54-0.018-0.963-0.471-0.944-1.011   c0.054-1.593-0.102-6.126-1.452-7.945c-0.322-0.434-0.231-1.047,0.203-1.369c0.432-0.324,1.045-0.233,1.369,0.203   c1.999,2.694,1.859,8.522,1.836,9.177C193.523,428.279,193.09,428.696,192.565,428.696z"/>
	<path style="fill:#251326;" d="M186.089,434.27c-0.011,0-0.023,0-0.034-0.001c-0.54-0.018-0.963-0.471-0.944-1.011   c0.054-1.593-0.102-6.127-1.452-7.946c-0.322-0.434-0.231-1.046,0.203-1.369c0.433-0.324,1.045-0.232,1.369,0.203   c1.999,2.694,1.859,8.523,1.836,9.178C187.048,433.854,186.614,434.27,186.089,434.27z"/>
	<path style="fill:#251326;" d="M325.067,439.41c-0.011,0-0.023,0-0.034-0.001c-0.54-0.018-0.963-0.471-0.944-1.011   c0.053-1.593-0.102-6.127-1.452-7.946c-0.322-0.434-0.231-1.047,0.203-1.369c0.432-0.323,1.046-0.232,1.369,0.203   c1.999,2.694,1.859,8.523,1.836,9.178C326.025,438.993,325.591,439.41,325.067,439.41z"/>
	<path style="fill:#251326;" d="M325.067,423.6c-0.011,0-0.023,0-0.034-0.001c-0.54-0.018-0.963-0.471-0.944-1.011   c0.053-1.593-0.102-6.127-1.452-7.946c-0.322-0.434-0.231-1.046,0.203-1.369c0.432-0.323,1.046-0.233,1.369,0.203   c1.999,2.694,1.859,8.523,1.836,9.178C326.025,423.184,325.591,423.6,325.067,423.6z"/>
	<path style="fill:#251326;" d="M318.591,429.174c-0.011,0-0.023,0-0.034-0.001c-0.54-0.018-0.963-0.471-0.944-1.011   c0.054-1.593-0.102-6.126-1.452-7.945c-0.322-0.434-0.231-1.047,0.203-1.369c0.432-0.324,1.046-0.234,1.369,0.203   c1.999,2.694,1.859,8.522,1.836,9.177C319.549,428.757,319.116,429.174,318.591,429.174z"/>
	<path style="fill:#251326;" d="M406.329,360.12c-0.402,0-0.779-0.249-0.922-0.65c-0.535-1.501-2.346-5.661-4.27-6.855   c-0.46-0.286-0.6-0.889-0.315-1.348c0.284-0.46,0.89-0.599,1.348-0.315c2.851,1.771,4.863,7.243,5.082,7.861   c0.181,0.508-0.085,1.068-0.593,1.249C406.549,360.102,406.438,360.12,406.329,360.12z"/>
	<path style="fill:#251326;" d="M400.517,345.417c-0.402,0-0.779-0.249-0.922-0.65c-0.535-1.501-2.346-5.66-4.271-6.855   c-0.459-0.286-0.599-0.889-0.314-1.348c0.286-0.46,0.89-0.596,1.348-0.314c2.85,1.772,4.862,7.243,5.081,7.862   c0.181,0.508-0.085,1.068-0.593,1.249C400.737,345.399,400.626,345.417,400.517,345.417z"/>
	<path style="fill:#251326;" d="M396.544,352.981c-0.402,0-0.779-0.249-0.922-0.65c-0.535-1.501-2.346-5.66-4.27-6.854   c-0.46-0.286-0.6-0.889-0.315-1.348c0.286-0.46,0.889-0.599,1.348-0.315c2.85,1.771,4.863,7.242,5.082,7.861   c0.181,0.508-0.085,1.068-0.593,1.249C396.763,352.963,396.653,352.981,396.544,352.981z"/>
	<path style="fill:#251326;" d="M129.701,446.195c-0.168,0-0.339-0.044-0.495-0.135c-0.465-0.274-0.621-0.874-0.348-1.34   c0.808-1.374,2.834-5.432,2.515-7.675c-0.076-0.535,0.296-1.03,0.831-1.107c0.53-0.08,1.029,0.296,1.107,0.831   c0.471,3.322-2.433,8.378-2.766,8.942C130.363,446.023,130.036,446.195,129.701,446.195z"/>
	<path style="fill:#251326;" d="M125.773,433.983c-0.202,0-0.405-0.062-0.581-0.192c-0.434-0.321-0.526-0.934-0.205-1.369   c0.947-1.282,3.387-5.105,3.306-7.368c-0.02-0.54,0.402-0.994,0.942-1.013c0.551-0.039,0.994,0.402,1.013,0.942   c0.121,3.354-3.298,8.076-3.688,8.603C126.368,433.845,126.073,433.983,125.773,433.983z"/>
	<path style="fill:#251326;" d="M136.439,427.224c-0.067,0-0.135-0.007-0.204-0.021c-0.528-0.112-0.867-0.632-0.755-1.16   c0.33-1.56,0.962-6.05-0.052-8.077c-0.242-0.484-0.046-1.071,0.438-1.313c0.484-0.239,1.069-0.046,1.313,0.438   c1.501,3,0.352,8.716,0.216,9.357C137.298,426.909,136.892,427.224,136.439,427.224z"/>
	<path style="fill:#251326;" d="M156.089,277.666c-0.244,0-0.487-0.09-0.677-0.272c-0.391-0.374-0.404-0.993-0.03-1.383   c2.32-2.423,8.091-3.259,8.742-3.346c0.531-0.069,1.026,0.304,1.1,0.839c0.072,0.536-0.304,1.028-0.839,1.101   c-1.58,0.213-6.023,1.125-7.59,2.759C156.603,277.565,156.346,277.666,156.089,277.666z"/>
	<path style="fill:#251326;" d="M136.194,284.378c-0.244,0-0.487-0.091-0.678-0.272c-0.39-0.374-0.403-0.993-0.029-1.384   c2.322-2.422,8.091-3.258,8.742-3.345c0.534-0.076,1.026,0.304,1.1,0.839c0.072,0.536-0.304,1.028-0.839,1.101   c-1.58,0.213-6.023,1.125-7.59,2.76C136.709,284.277,136.452,284.378,136.194,284.378z"/>
	<path style="fill:#251326;" d="M144.323,272.428c-0.244,0-0.487-0.091-0.678-0.272c-0.39-0.374-0.403-0.993-0.029-1.384   c2.322-2.422,8.092-3.258,8.743-3.345c0.534-0.076,1.027,0.304,1.1,0.839c0.072,0.536-0.304,1.028-0.839,1.101   c-1.58,0.213-6.024,1.125-7.591,2.76C144.837,272.327,144.58,272.428,144.323,272.428z"/>
	<path style="fill:#251326;" d="M173.386,277.666c-0.244,0-0.487-0.091-0.678-0.272c-0.39-0.374-0.403-0.993-0.029-1.384   c2.322-2.422,8.091-3.258,8.742-3.345c0.533-0.069,1.026,0.304,1.1,0.839c0.072,0.536-0.304,1.028-0.839,1.101   c-1.58,0.213-6.023,1.125-7.59,2.76C173.9,277.565,173.643,277.666,173.386,277.666z"/>
	<path style="fill:#251326;" d="M148.405,289.174c-0.244,0-0.487-0.091-0.678-0.272c-0.39-0.374-0.403-0.993-0.029-1.384   c2.322-2.422,8.092-3.258,8.743-3.345c0.54-0.072,1.026,0.304,1.1,0.839c0.072,0.536-0.304,1.028-0.839,1.101   c-1.58,0.213-6.024,1.125-7.591,2.76C148.919,289.072,148.662,289.174,148.405,289.174z"/>
</g>















</svg>
