<svg height="512" viewBox="0 0 128 128" width="512" xmlns="http://www.w3.org/2000/svg"><path d="m54.677 15.75a6 6 0 0 0 -5.648 5.64 6.007 6.007 0 0 0 5.65 5.65 6 6 0 0 0 5.645-5.65 6 6 0 0 0 -5.647-5.64z" fill="#fff" fill-rule="evenodd"/><path d="m18.625 53.85a7.094 7.094 0 0 0 -6.7 6.69 7.1 7.1 0 0 0 6.7 6.7 7.1 7.1 0 0 0 6.7-6.7 7.094 7.094 0 0 0 -6.7-6.69z" fill="#fff" fill-rule="evenodd"/><path d="m112.391 8.36a17.77 17.77 0 0 0 -2.873-1.95 21.385 21.385 0 0 0 -9.789-2.41c-13.111-.23-28.863 9.07-35.408 19.82l-9.29 15.26c-.517-.07-.949-.05-1.561-.18-3.559-.77-14.329-5.73-20.152 11.79-5.4 16.24-2.318 22.37 2.082 23.45l2.6.65 1.586-2.16c.11-.15.465-.25.637-.39a6.837 6.837 0 0 0 2.367 4.88l2.6 2.16a6.986 6.986 0 0 0 .055 1.69 11.126 11.126 0 0 0 -5.874-1.99 11.172 11.172 0 0 0 -1.722.17 6.463 6.463 0 0 0 -1.606-2.02 6.369 6.369 0 0 0 -8.249 9.706c-.139.09-.263.2-.395.3a15.757 15.757 0 1 0 -.975 31.039 15.893 15.893 0 0 0 20.013 3.825 15.647 15.647 0 0 0 7.039-8.373 7.08 7.08 0 0 0 .935 1.161 7.348 7.348 0 1 0 4.559-12.992 7.243 7.243 0 0 0 -2.365.56c0-.251-.066-.5-.082-.748a10.948 10.948 0 0 0 1.433-8.494 8.158 8.158 0 0 0 1.414-2.614 6.952 6.952 0 0 0 2.266.351c-.018.022-.022.082-.041.1l-1.838 1.949 1.1 2.439c1.867 4.134 8.447 6.055 23.443-2.2 15.238-8.378 10.1-16.969 8.226-21.299-.211-.49-.287-.86-.455-1.3l13.692-12.15v-.01c12.619-11.01 20.111-38.8 6.628-50.02z" fill="#fff" fill-rule="evenodd"/><circle cx="107.831" cy="90.457" fill="#fff" r="6.697" transform="matrix(.973 -.23 .23 .973 -17.898 27.194)"/><g fill-rule="evenodd"><path d="m98.993 68.96a4.66 4.66 0 1 0 4.654 4.66 4.982 4.982 0 0 0 -4.654-4.66z" fill="#fff"/><path d="m49.9 97.5a5.31 5.31 0 1 0 2.2 7.181 5.335 5.335 0 0 0 -2.2-7.181z" fill="#f1adac"/><path d="m54.488 84.761a4.207 4.207 0 0 0 -6.874 1.654 4 4 0 0 0 -2.959-.645 7.147 7.147 0 0 0 -12.792 3.73 4.118 4.118 0 0 0 -3.273 2.084 11.794 11.794 0 1 0 -.4 22.094c.025.056.052.112.079.168a11.938 11.938 0 0 0 21.042-11.277 7.128 7.128 0 0 0 4.141-10.279q-.135-.227-.287-.441a4.467 4.467 0 0 0 .48-.226 4.276 4.276 0 0 0 .843-6.862z" fill="#f5cec3"/><path d="m32.142 91.425a5.311 5.311 0 1 0 2.2 7.181 5.336 5.336 0 0 0 -2.2-7.181z" fill="#f1adac"/><path d="m38.566 111.04a9.744 9.744 0 0 1 -7.491 1.919c-2.912-.472-5.729-2.27-7.263-6.741a1 1 0 1 0 -1.891.649c1.733 5.053 5.286 7.491 8.834 8.065a11.387 11.387 0 0 0 9.14-2.4 1 1 0 0 0 -1.329-1.495z" fill="#f1adac"/><path d="m48.5 85.612a5.853 5.853 0 0 0 -2.56-.3 5.693 5.693 0 0 0 -2.923 1.227 1 1 0 0 0 1.239 1.569 3.425 3.425 0 0 1 3.578-.609 5.428 5.428 0 0 1 1.694.981 1 1 0 0 0 1.363-1.462 7.392 7.392 0 0 0 -2.391-1.406z" fill="#f1adac"/><path d="m30.13 80.51a2.382 2.382 0 1 0 3.353-.3 2.4 2.4 0 0 0 -3.353.3z" fill="#f5cec3"/><path d="m56.541 107a3.346 3.346 0 1 0 4.712-.43 3.362 3.362 0 0 0 -4.712.43z" fill="#f1adac"/><path d="m51.731 65.47a2.471 2.471 0 0 0 -3.613.29l-3.546 4.73a2.649 2.649 0 0 0 .579 3.56l14.608 12.158a2.649 2.649 0 0 0 3.606-.069l4.026-4.329a2.465 2.465 0 0 0 -.362-3.6z" fill="#f0567a"/><path d="m88.321 62.56-23.839 11.58c5.874 13.368.024 19.557.024 19.557s2.09 4.625 17.867-4.058c18.338-10.089.327-16.049 5.948-27.079z" fill="#fbe986"/><path d="m37.112 51.95c-5.68 17.09-.754 18.31-.754 18.31s5.028-6.87 19.237-3.52l7.075-25.54c-9.834 7.53-18.956-9.11-25.558 10.75z" fill="#fbe986"/><path d="m109.829 11.43c-11.103-9.24-34.355 1.77-42.092 14.47l-22.693 37.27a5.521 5.521 0 0 0 1.359 7l16.937 14.106a5.552 5.552 0 0 0 7.149.077l32.643-28.983c11.217-9.79 17.8-34.69 6.697-43.94z" fill="#f37a81"/><path d="m93.926 30.48c-6.1-5.08-15.421-3.41-20.526 3.35-4.811 6.37-4.069 14.97 1.412 19.53s14.089 3.75 19.5-2.12c5.744-6.23 5.716-15.68-.386-20.76z" fill="#f4f5f7"/><path d="m90.213 34.93c-3.852-3.21-9.766-2.25-13.09 2-3.2 4.08-2.793 9.71.8 12.71s9.214 2.38 12.666-1.5c3.588-4.03 3.476-10.01-.376-13.21z" fill="#79809f"/><path d="m72.351 20.18a12.344 12.344 0 0 0 8.367 3.35 12.442 12.442 0 0 0 12.382-12.38 12.2 12.2 0 0 0 -.265-2.36 45.052 45.052 0 0 0 -20.484 11.39z" fill="#f0567a"/><path d="m84.156 60.37a12.359 12.359 0 0 0 -9.5 20.29l18.484-16.42a12.445 12.445 0 0 0 -8.983-3.87z" fill="#f0567a"/><path d="m55.286 46.35-1 1.64a28.321 28.321 0 0 0 1.247 6.6 19.629 19.629 0 0 1 1.009 6.83c-.193 2.3-1.133 4.71-3.634 7.48a25.154 25.154 0 0 0 -3.075 4.13l.772.64a24.582 24.582 0 0 1 3.045-4.1 13.565 13.565 0 0 0 3.888-8.07 20.4 20.4 0 0 0 -1.038-7.18c-.716-2.6-1.466-5.15-1.214-7.97z" fill="#f8b0b3"/><path d="m110.987 25.25c-3.5 2.62-5.341 5.17-6.185 7.85a20.3 20.3 0 0 0 -.372 8.45 69.491 69.491 0 0 1 .76 11.8q.526-.57 1.033-1.2a78.433 78.433 0 0 0 -.8-10.71 19.4 19.4 0 0 1 .332-8.04c.775-2.46 2.441-4.82 5.828-7.35 1.459-1.09 2.707-2.09 3.793-3.02-.044-.4-.1-.8-.159-1.19-1.174 1.03-2.551 2.16-4.23 3.41z" fill="#f8b0b3"/><path d="m63.487 32.88-1 1.65c.137 5.91 2 10.48 3.183 14.91 1.48 5.53 1.987 10.83-2.994 18.74a32.975 32.975 0 0 0 -4.793 11.55l.881.74a31.416 31.416 0 0 1 4.76-11.76c5.107-8.11 4.619-13.89 3.111-19.52-1.323-4.94-3.365-9.78-3.148-16.31z" fill="#f8b0b3"/><path d="m61.126 64.57a2.575 2.575 0 0 0 -3.89.57l-7.687 12.88a3.226 3.226 0 0 0 .691 4.14 3.452 3.452 0 0 0 4.447.14l11.287-9.89a2.565 2.565 0 0 0 -.14-3.92z" fill="#fbe986"/><path d="m54.674 18.28a3.115 3.115 0 1 0 3.118 3.11 3.126 3.126 0 0 0 -3.118-3.11z" fill="#f37a81"/><path d="m98.991 71.49a2.13 2.13 0 1 0 2.128 2.13 2.138 2.138 0 0 0 -2.128-2.13z" fill="#f37a81"/><path d="m18.624 56.38a4.165 4.165 0 1 0 4.168 4.17 4.188 4.188 0 0 0 -4.168-4.17z" fill="#fbe986"/><path d="m107.831 86.289a4.169 4.169 0 1 0 4.169 4.169 4.189 4.189 0 0 0 -4.169-4.169z" fill="#fbe986"/></g></svg>