<svg height="512" viewBox="0 0 128 128" width="512" xmlns="http://www.w3.org/2000/svg"><g fill-rule="evenodd"><path d="m45.73 91.343.011-.006-.033.008z" fill="#fff"/><path d="m96.66 67.152a16.8 16.8 0 0 0 4.957-2.612 4.834 4.834 0 0 0 2.122-4.434c-.28-3.216-1.765-5.488-4.256-10.284l1.058-1.485a10.581 10.581 0 0 0 7.055-1.668l.011-.008a10.619 10.619 0 0 0 -11.827-17.64h-.006a10.588 10.588 0 0 0 -4.224 5.892l-1.79.42c-.872-1.022-1.657-1.878-2.422-2.665a4.406 4.406 0 0 0 .737-.792l2-2.982a1.2 1.2 0 0 1 .906-.525l3.584-.259a4.418 4.418 0 0 0 2.142-8.065l-2.984-2a1.2 1.2 0 0 1 -.523-.906l-.261-3.575a4.412 4.412 0 0 0 -8.065-2.148l-2 2.982a1.2 1.2 0 0 1 -.906.524l-3.584.259a4.416 4.416 0 0 0 -2.14 8.066l2.981 2c.16.107.185.311.276.477l-2.343 1.576a22.224 22.224 0 0 0 -4.492 4.068l-12.617-23.633a7.035 7.035 0 0 0 -5.833-3.725 7.152 7.152 0 0 0 -1.034.02 7.054 7.054 0 0 0 -2.685.8l-34.112 18.217a7.046 7.046 0 0 0 -2.9 9.552l13.645 25.558a6.916 6.916 0 0 0 2.222 2.4l-2.4 1.085a1.2 1.2 0 0 1 -1.043-.029l-3.186-1.665a4.319 4.319 0 0 0 -2.076-.5 4.38 4.38 0 0 0 -3.985 6.239l1.482 3.271a1.2 1.2 0 0 1 -.024 1.042l-1.667 3.187a4.416 4.416 0 0 0 5.737 6.06l3.269-1.481a1.2 1.2 0 0 1 1.047.028l3.184 1.665a4.132 4.132 0 0 0 4.21-.279l5.41 8.066c2.527 3.769 6.982 4.058 10.409 2.391l1.627-.792a19.509 19.509 0 0 0 3.867.715 6.912 6.912 0 0 0 -2.039 6.18l-.023-.008-2.09-.37-.995-1.862a4.139 4.139 0 0 0 -3.657-2.21 4.78 4.78 0 0 0 -.679.058 4.148 4.148 0 0 0 -3.425 3.373l-.37 2.088-1.874 1a4.159 4.159 0 0 0 1.226 7.756l2.088.37 1 1.874a4.157 4.157 0 0 0 7.758-1.226l.369-2.09 1.874-1a3.88 3.88 0 0 0 1.885-2.362l16.791 20.306a7.045 7.045 0 0 0 9.937.942l29.8-24.643a7.044 7.044 0 0 0 .941-9.937z" fill="#fff"/><path d="m63.8 39.96a4.092 4.092 0 0 0 -5.69-1.122l-16.81 11.273a4.092 4.092 0 0 0 -1.123 5.69l27.623 41.192a4.091 4.091 0 0 0 5.69 1.122l16.81-11.273a4.092 4.092 0 0 0 1.122-5.69z" fill="#79809f"/><path d="m36.476 68.987c-1.719 1.533-2.421 3.856-1.138 5.769l7.008 10.452c1.283 1.913 3.7 2.146 5.769 1.138l14.735-7.17-14.15-21.098z" fill="#79809f"/><path d="m73.035 47.138c-1.679-2.5-4.841-2.809-7.553-1.49l-19.29 9.387c-8.283 4.031-9.681 15.419-4.551 23.07s16.2 10.683 23.07 4.551l16.009-14.282c2.251-2.007 3.169-5.048 1.49-7.553z" fill="#87b3e0"/><path d="m50.178 54.919c-.12-.565-.22-1.123-.307-1.676l-.859.42c.081.482.17.965.273 1.447.683 3.207 1.738 6.437 1.89 9.137a7.213 7.213 0 0 1 -.561 3.573 5.374 5.374 0 0 1 -2.722 2.535 13.074 13.074 0 0 0 -6.005 4.971 8.025 8.025 0 0 0 -.793 1.9c.174.3.354.591.546.879.046.068.1.134.143.2a7.194 7.194 0 0 1 .895-2.523 12.169 12.169 0 0 1 5.605-4.6 6.362 6.362 0 0 0 3.155-2.966 8.1 8.1 0 0 0 .65-4.022c-.163-2.894-1.241-6.136-1.91-9.275z" fill="#738ec8"/><path d="m41.878 58.457c.944 2.834 1.014 4.546.595 5.49a2.213 2.213 0 0 1 -1.245 1.17 7.712 7.712 0 0 1 -2.255.486c-.044.005-.1.005-.145.009-.045.307-.084.616-.112.926.111-.01.237-.013.346-.024a8.392 8.392 0 0 0 2.532-.557 3.205 3.205 0 0 0 1.715-1.638c.615-1.387.431-3.423-.725-6.657q-.37.384-.706.795z" fill="#738ec8"/><path d="m54.561 80.074a4.6 4.6 0 0 0 -3.654-2.088 4.4 4.4 0 0 0 -3.793 1.738 8.38 8.38 0 0 0 -1.345 2.7q.387.288.788.553a7.925 7.925 0 0 1 1.274-2.687 3.379 3.379 0 0 1 3.028-1.39 3.582 3.582 0 0 1 2.948 1.69 9.115 9.115 0 0 1 1.274 3.662c.087.563.137 1.119.17 1.657.306.013.613.015.918.01-.034-.582-.088-1.19-.184-1.806a9.891 9.891 0 0 0 -1.424-4.039z" fill="#738ec8"/><path d="m76.243 60.552a34.449 34.449 0 0 1 2.132-4.845c.055-.121.1-.249.159-.371l-.608-.905c-.124.3-.246.6-.382.894a33.175 33.175 0 0 0 -2.185 4.992 5.463 5.463 0 0 0 1.023 5.083 37.6 37.6 0 0 1 2.941 4.221l.7-.625a39.131 39.131 0 0 0 -2.923-4.168 4.4 4.4 0 0 1 -.857-4.276z" fill="#738ec8"/><path d="m55.947 54.063c-.473-1.1-.886-2.17-1.207-3.187l-.84.408c.333 1.018.746 2.067 1.206 3.14 1.362 3.176 3.11 6.558 4.193 9.809s1.489 6.33.29 8.956a16.654 16.654 0 0 0 -.283 12.322c.3-.074.589-.157.879-.252a15.775 15.775 0 0 1 .236-11.689c1.343-2.941.862-6.278-.254-9.627s-2.877-6.749-4.22-9.88z" fill="#738ec8"/><path d="m68.9 70.713c.18-1.941.615-3.816.646-5.651a7.291 7.291 0 0 0 -1.877-5.31c-2.792-3.077-4.1-5.933-4.081-9.222a15.353 15.353 0 0 1 .717-4.308l-1.1.536a15.576 15.576 0 0 0 -.533 3.766c-.022 3.54 1.431 6.66 4.319 9.843a6.255 6.255 0 0 1 1.64 4.679c-.03 1.7-.456 3.564-.644 5.583a12.746 12.746 0 0 0 .88 6.5 12.4 12.4 0 0 0 .646 1.249l.7-.62c-.187-.335-.36-.667-.5-1a11.789 11.789 0 0 1 -.813-6.045z" fill="#738ec8"/><path d="m99.461 38.086c-.651-.97-1.789-.843-2.926-.577l-9.679 2.266c-2.405.563-2.6 4.135-1.22 6.187l2.447 3.649c1.376 2.052 4.753 3.232 6.187 1.22l5.771-8.093c.678-.951 1.227-1.956.577-2.926z" fill="#79809f"/><path d="m92.061 44.3c-5.375-8.016-9.628-11.7-11.625-13.155a2.19 2.19 0 0 0 -2.436.061 18.763 18.763 0 0 0 20.834 31.071 2.188 2.188 0 0 0 .984-2.228c-.587-2.399-2.381-7.734-7.757-15.749z" fill="#e2e9ef"/><path d="m97.815 32.06a6.96 6.96 0 1 0 9.658 1.905 6.967 6.967 0 0 0 -9.658-1.905z" fill="#87b3e0"/><path d="m56.821 9.459a3.392 3.392 0 0 0 -4.6-1.4l-34.112 18.216a3.393 3.393 0 0 0 -1.4 4.6l13.649 25.558a3.392 3.392 0 0 0 4.6 1.4l34.111-18.216a3.392 3.392 0 0 0 1.4-4.6z" fill="#e2e9ef"/><g fill="#f4f5f7"><path d="m19.116 28.58.001-.001z"/><path d="m19.283 28.472a.955.955 0 0 0 -.165.107.844.844 0 0 0 -.207 1.121l1.864 3.5 15.441-8.613-2.075-4.043z"/><path d="m41.171 26.081 4.81 9.366 16.868-9.409-4.958-9.283z"/><path d="m53.394 10.259-15.97 8.526 2.046 3.982 16.669-9.3-1.514-2.836a.858.858 0 0 0 -1.231-.372z"/><path d="m22.528 36.479 4.958 9.284 15.242-8.502-4.809-9.365z"/><path d="m64.6 29.324-16.918 9.437 3.81 7.418 16.408-8.759a.856.856 0 0 0 .373-1.228z"/><path d="m29.238 49.048 3.318 6.212a.855.855 0 0 0 1.228.373l14.422-7.7-3.779-7.356z"/></g><path d="m92.447 67.8a3.392 3.392 0 0 0 -4.786-.453l-29.8 24.641a3.392 3.392 0 0 0 -.453 4.786l18.46 22.326a3.392 3.392 0 0 0 4.786.454l29.8-24.641a3.394 3.394 0 0 0 .454-4.787z" fill="#e2e9ef"/><path d="m89.249 69.265-14.332 11.85 5.415 6.342 15.156-12.071-4.961-6a.856.856 0 0 0 -1.278-.121z" fill="#f4f5f7"/><path d="m82.752 90.288 6.839 8.007 14.976-11.927-6.705-8.112z" fill="#f4f5f7"/><path d="m59.449 93.906a.855.855 0 0 0 -.122 1.278l4.488 5.428 13.605-10.835-5.371-6.289z" fill="#f4f5f7"/><path d="m75.264 114.462 2.524 3.053a.845.845 0 0 0 1.117.233 1.024 1.024 0 0 0 .162-.112l12.981-10.736-2.948-3.452z" fill="#f4f5f7"/><path d="m106.94 89.237-14.931 11.89 2.907 3.405 13.951-11.532a.857.857 0 0 0 .12-1.279z" fill="#f4f5f7"/><path d="m66.186 103.481 6.706 8.111 13.785-10.978-6.838-8.005z" fill="#f4f5f7"/><path d="m94.663 23.087-2.982-2a4.858 4.858 0 0 1 -2.134-3.678l-.259-3.583a.755.755 0 0 0 -.558-.676.753.753 0 0 0 -.819.31l-2 2.982a4.854 4.854 0 0 1 -3.677 2.134l-3.583.259a.754.754 0 0 0 -.367 1.378l2.983 2a4.858 4.858 0 0 1 2.133 3.678l.259 3.584a.754.754 0 0 0 1.378.365l2-2.982a4.858 4.858 0 0 1 3.678-2.134l3.583-.259a.754.754 0 0 0 .365-1.378z" fill="#fbe986"/><path d="m52.509 99.336-2.318-.41a3.185 3.185 0 0 1 -2.254-1.639l-1.1-2.08a.494.494 0 0 0 -.923.146l-.414 2.319a3.18 3.18 0 0 1 -1.639 2.253l-2.081 1.105a.494.494 0 0 0 .145.923l2.319.411a3.185 3.185 0 0 1 2.256 1.636l1.105 2.079a.494.494 0 0 0 .923-.145l.41-2.319a3.183 3.183 0 0 1 1.64-2.254l2.079-1.105a.5.5 0 0 0 -.148-.92z" fill="#fbe986"/><path d="m31.741 63.49-3.272 1.483a4.856 4.856 0 0 1 -4.251-.119l-3.184-1.664a.754.754 0 0 0 -1.034.979l1.483 3.273a4.854 4.854 0 0 1 -.119 4.25l-1.664 3.184a.754.754 0 0 0 .979 1.036l3.273-1.483a4.857 4.857 0 0 1 4.25.12l3.184 1.663a.754.754 0 0 0 1.036-.979l-1.483-3.272a4.859 4.859 0 0 1 .12-4.251l1.663-3.184a.753.753 0 0 0 -.979-1.036z" fill="#fbe986"/></g></svg>