<svg height="512" viewBox="0 0 128 128" width="512" xmlns="http://www.w3.org/2000/svg"><g fill-rule="evenodd"><path d="m122.611 27.51c-3.737-6.01-12.949-5.93-22.89-3.54-2.7.65-5.808 1.78-8.842 2.83a7.755 7.755 0 0 0 -12.271-4.2 43.789 43.789 0 0 0 -11.838-2.65h-.028a43.816 43.816 0 0 0 -46.242 38.12 7.036 7.036 0 0 0 -2.1-.47 7.136 7.136 0 0 0 -2.062.16 7.244 7.244 0 0 0 -5.47 8.7 7.136 7.136 0 0 0 7.607 5.49c-10.704 10.72-17.545 21.425-13.098 28.564 3.324 5.334 11.016 5.732 19.656 4.105a7.532 7.532 0 0 0 13.591-3.785c.258-.092.512-.179.773-.274a43.976 43.976 0 0 0 61.618-12.535 9.221 9.221 0 0 0 10.056 4.506 9.361 9.361 0 0 0 -1.491-18.471 9.471 9.471 0 0 0 -2.655.22c-.043.01-.073.04-.116.05a43.86 43.86 0 0 0 .758-16.27c11.883-11.36 19.765-22.97 15.044-30.55z" fill="#fff"/><path d="m30.324 96.512a3.676 3.676 0 1 0 4.4 2.77 3.694 3.694 0 0 0 -4.4-2.77z" fill="#727bbb"/><path d="m82.446 25.02a3.969 3.969 0 1 0 4.754 2.99 3.983 3.983 0 0 0 -4.754-2.99z" fill="#727bbb"/><path d="m55.089 24.8a40.208 40.208 0 1 0 48.117 30.3 40.391 40.391 0 0 0 -48.117-30.3z" fill="#b3b0d8"/><g fill="#727bbb"><path d="m101.863 50.52c-6.4 7.38-17.891 16.74-31.969 25.51-12.709 7.91-24.912 13.713-34.126 16.605a40.2 40.2 0 0 0 8.355 6.257 207.585 207.585 0 0 0 30.227-15.712 202.622 202.622 0 0 0 29.725-22.25 38.887 38.887 0 0 0 -2.212-10.41z"/><path d="m24.627 55.82c-.048.32-.092.65-.132.98 5.627.53 9.454 3.31 10.758 6.3a5.276 5.276 0 0 1 -.288 5.08c-.985 1.57-2.947 2.97-6.122 3.77-1.266.32-2.646.61-4.069.89 0 .03.007.05.01.08.086.29.175.58.267.88 1.4-.29 2.769-.58 4.033-.89 3.345-.85 5.559-2.36 6.717-4.21a6.311 6.311 0 0 0 .353-5.99c-1.489-3.42-5.633-6.33-11.527-6.89z"/><path d="m57.221 82.81c-8.046-6.63-16.608-8.67-22.9-7.2a12.265 12.265 0 0 0 -1.228.34 11.628 11.628 0 0 0 -5.893 4.06c.156.34.316.69.482 1.03a10.5 10.5 0 0 1 5.711-4.16c5.95-1.92 14.82-.22 23.2 6.69 7.342 6.055 11.28 14.1 13.923 20.015.338-.048.676-.1 1.012-.157-2.645-5.96-6.66-14.31-14.307-20.618z"/><path d="m56.764 35.4a12.355 12.355 0 0 0 -8.258-.91 19.319 19.319 0 0 0 -3.406 1.02 6.165 6.165 0 0 0 -3.209 2.57 6.053 6.053 0 0 0 -.7 3.69c.26 2.67 1.791 5.61 3.906 8.31a28.042 28.042 0 0 0 7.536 6.73c2.71 1.59 5.451 2.36 7.623 1.47s3.429-3.3 3.878-6.17a18.567 18.567 0 0 0 -1.107-9.34 13.536 13.536 0 0 0 -6.263-7.37zm6.394 16.56c-.417 2.67-1.573 4.71-3.279 5.41s-4.175.1-6.75-1.41a27.271 27.271 0 0 1 -7.261-6.49c-2.041-2.6-3.471-5.44-3.7-7.79a5.085 5.085 0 0 1 .574-3.11 5.16 5.16 0 0 1 2.719-2.15 18.6 18.6 0 0 1 3.237-.97 11.338 11.338 0 0 1 7.621.83 12.566 12.566 0 0 1 5.791 6.85 17.684 17.684 0 0 1 1.048 8.83z"/><path d="m91.36 57.46c1.163-8.03.168-13.68-1.855-17.92s-5.055-7.07-7.866-9.52c-1.566-1.36-3.049-2.62-4.28-3.92-.6-.21-1.207-.41-1.817-.59a40.261 40.261 0 0 0 5.452 5.25c2.792 2.44 5.691 5.15 7.622 9.2s2.913 9.47 1.77 17.37c-2 13.81 2.561 21.96 8.406 26.688.178-.278.353-.548.524-.828-5.587-4.53-9.908-12.24-7.956-25.73z"/><path d="m85.171 84.793c-4.3-6.283-6.192-15.733-9.542-29.093-3.371-13.45-10.115-23.5-18.254-28.5a24.733 24.733 0 0 0 -3.845-1.93c-.524.15-1.045.31-1.563.47a23.592 23.592 0 0 1 4.9 2.3c7.842 4.81 14.489 14.64 17.812 27.9 3.345 13.33 5.2 22.86 9.684 29.408a20.979 20.979 0 0 0 8.078 7.052q.348-.364.688-.737a20.058 20.058 0 0 1 -7.958-6.87z"/><path d="m56.187 63.98c-11.1-5.17-21.5-10.48-26.911-16.07-.493-.51-.928-1.02-1.335-1.53-.155.34-.3.67-.451 1.01.338.41.7.81 1.081 1.21 5.627 5.81 16.08 11.09 27.2 16.27 11.047 5.15 17.848 11.18 21.262 17.94 2.841 5.627 3.332 11.792 1.951 18.465.369-.165.736-.337 1.1-.513 1.233-6.581.676-12.755-2.171-18.392-3.546-7.02-10.552-13.18-21.726-18.39z"/></g><path d="m100.643 27.8a102.4 102.4 0 0 0 -12.573 4.02 40.562 40.562 0 0 1 3.363 2.8c7.608-2.25 13-2.39 14.577.14 3.517 5.65-13.06 22.33-37.027 37.26s-46.249 22.444-49.767 16.8c-1.588-2.55.948-7.356 6.381-13.226q-.453-1.32-.813-2.67-.133-.78-.238-1.56c-12.522 11.596-19.026 21.936-15.828 27.068 5.217 8.373 34.194-.249 64.722-19.262s51.045-41.21 45.831-49.58c-2.281-3.67-9.11-4.08-18.628-1.79z" fill="#fbe986"/><path d="m84.121 39.65a7.993 7.993 0 0 0 -5.163-3.8 4.139 4.139 0 0 0 -1.509-.08 2.726 2.726 0 0 0 -1.207.47 3.58 3.58 0 0 0 -1.3 2.22 15 15 0 0 0 .622 6.83 24.766 24.766 0 0 0 3.059 6.85 8.824 8.824 0 0 0 1.984 2.19 2.69 2.69 0 0 0 2.25.59 2.6 2.6 0 0 0 1.432-1.13 7.837 7.837 0 0 0 .962-2.1 16.852 16.852 0 0 0 .629-5.89 13.672 13.672 0 0 0 -1.759-6.15zm.2 11.75a6.957 6.957 0 0 1 -.832 1.83 1.718 1.718 0 0 1 -.867.74 1.754 1.754 0 0 1 -1.426-.43 8.066 8.066 0 0 1 -1.749-1.95 24.016 24.016 0 0 1 -2.926-6.57 14.467 14.467 0 0 1 -.61-6.35 2.644 2.644 0 0 1 .91-1.63 2.278 2.278 0 0 1 1.925-.23 6.932 6.932 0 0 1 4.538 3.35 12.724 12.724 0 0 1 1.616 5.71 15.964 15.964 0 0 1 -.584 5.53z" fill="#727bbb"/><path d="m56.38 45.66a3.131 3.131 0 0 0 -1.255.03 3.17 3.17 0 1 0 1.255-.03zm-.073 5.24a2.174 2.174 0 1 1 1.635-2.6 2.173 2.173 0 0 1 -1.635 2.6z" fill="#727bbb"/><path d="m51.691 70.48a2.359 2.359 0 1 0 2.827 1.78 2.365 2.365 0 0 0 -2.827-1.78z" fill="#727bbb"/><path d="m59.8 88.823a3.791 3.791 0 1 0 4.537 2.857 3.809 3.809 0 0 0 -4.537-2.857z" fill="#727bbb"/><path d="m74.328 55.41a3.792 3.792 0 0 0 .84 7.49 3.4 3.4 0 0 0 .84-.1 3.737 3.737 0 0 0 .859-.31 41.245 41.245 0 0 0 -1.831-7.17 4.219 4.219 0 0 0 -.708.09z" fill="#727bbb"/><path d="m46.122 35.8c-1.819.73-7.361 2.34-2.344 11.32 6.751-.47 8.496-10.81 2.344-11.32z" fill="#727bbb"/><path d="m19.453 86.081a2.636 2.636 0 1 0 3.154 1.986 2.649 2.649 0 0 0 -3.154-1.986z" fill="#f6a43d"/><path d="m17.215 61.6a3.328 3.328 0 1 0 3.985 2.51 3.34 3.34 0 0 0 -3.985-2.51z" fill="#f6a43d"/><path d="m107.8 78.12a5.421 5.421 0 1 0 6.49 4.08 5.438 5.438 0 0 0 -6.49-4.08z" fill="#f6a43d"/></g></svg>