<svg id="Space" height="512" viewBox="0 0 1200 1200" width="512" xmlns="http://www.w3.org/2000/svg"><g><path d="m938.101 443.363c75.215-66.857-70.055-244.804-120.814-283.058-105.154-79.247-254.742-82.601-373.619-33.109-98.58 41.04-223.498 174.132-200.098 292.56 4.633 23.449 31.604 54.207 42.176 77.613 13.793 30.527 28.691 60.572 43.662 90.535 25.672 51.383 51.748 107.668 89.861 151.281-23.375 86.992-131.916 223.126-42.119 303.153 73.773 65.749 204.167 68.349 296.012 59.455 147.633-14.295 248.271-81.406 185.242-237.048-15.467-38.193-33.19-75.736-43.667-115.745-9.716-37.101 14.835-60.374 32.396-92.515 36.622-67.018 72.93-138.487 90.968-213.122 2.185-1.943-3.95 16.338 0 0z" fill="#fff"/><g><path d="m923.095 381.257c-10.943-64.058-41.727-124.371-87.601-170.464-80.733-81.121-181.249-100.455-288.927-84.537-31.785 4.698-63.169 12.681-92.865 25.044-54.908 22.859-101.824 60.646-134.051 110.832-17.246 26.854-30.059 56.476-39.217 87.003-5.037 16.793-9.98 34.397-11.676 51.895-.893 9.206-.385 26.156 12.809 25.66 1.098-.041 2.163-.262 3.209-.557 15.561 43.408 36.082 85.375 56.383 126.666 23.557 47.91 47.988 96 77.08 140.838 5.482 8.45 11.195 16.784 17.541 24.611 3.611 4.455 7.637 9.116 12.532 12.282-11.005 48.405-30.89 93.412-51.657 138.419-15.27 33.094-34.031 70.313-28.27 107.887 8.326 54.298 74.08 76.69 119.998 87.65 68.496 16.35 141.708 17.912 211.252 7.814 31.445-4.567 62.844-11.916 91.957-24.885 21.799-9.707 43.914-23.6 56.359-44.617 18.398-31.074 8.086-69.848-3.378-101.408-17.763-48.904-41.856-95.225-55.095-145.776-3.197-12.21-5.725-24.569-7.578-37.049.018-.311.016-.625.012-.942 43.685-73.115 85.006-149.232 114.706-229.177 7.571-20.376 14.327-41.207 18.612-62.547 2.613.14 5.174-.998 7.396-4.183 2.723-3.906 3.066-9.211 3.158-13.818.178-8.908-1.248-17.88-2.689-26.641zm-458.145 321.798c-48.16-74.059-88.525-153.231-125.581-233.313-10.304-22.267-20.285-44.677-30.017-67.199 1.387-2.061 2.734-4.138 4.037-6.211 9.684-15.39 20.754-29.521 36.604-38.965 19.954-11.891 49.534-15.393 65.751 4.702 8.994 11.146 8.576 26.651 17.918 37.812.98 1.171 2.045 2.207 3.166 3.15 8.189 93.924 31.484 186.547 63.293 275.128.771 2.146 1.578 4.274 2.36 6.417-13.171 4.531-26.3 10.231-37.531 18.479zm74.406-28.323c-23.08-66.9-40.73-135.871-54.204-205.094-5.08-26.092-9.476-52.326-12.95-78.682.219-.411.441-.807.658-1.223 2.883-5.502 6.211-10.791 9.953-15.75 7.623-10.092 17.063-18.961 27.382-26.248 22.446-15.855 49.169-25.484 76.698-28.866 3.01 91.453 3.334 182.974 3.883 274.468.148 24.656.319 49.313.545 73.969-17.474 1.436-34.845 3.909-51.965 7.426zm127.118-11.23c-.426 1.332-.896 2.649-1.325 3.98-12.015-1.062-24.092-1.597-36.188-1.646 4.859-92.51 7.671-185.123 7.048-277.768-.156-22.912-.522-45.821-1.044-68.727 10.497 1.514 20.823 3.931 30.769 7.322 25.763 8.781 49.392 24.751 65.6 46.806 3.956 5.384 7.371 11.084 10.537 16.955-24.972 91.083-46.615 183.068-75.397 273.078zm120.615-30.134c-9.955 19.156-20.116 38.207-30.325 57.233-16.083-8.291-33.741-13.528-51.44-17.268 23.89-66.104 42.203-134.354 59.596-202.277 6.542-25.539 12.901-51.129 19.295-76.708 3.928-5.289 7.58-10.499 12.866-14.859 21.827-18.001 56.471-18.72 78.589-.778 5.549 4.502 9.363 10.052 12.766 15.898-23.628 83.338-61.523 162.124-101.347 238.759z" fill="#68182b"/><path d="m793.522 189.685c50.492 37.123 88.303 90.765 107.599 150.275 4.702 14.502 8.304 29.332 10.872 44.354.913 5.57 1.867 11.325 2.215 17.065.754 12.482-1.07 12.618-7.314 2.525-4.014-6.489-6.827-13.686-11.09-20.009-15.8-23.429-45.284-33.203-72.514-28.542-13.961 2.391-27.177 9.028-37.465 18.759-1.39 1.311-4.33 4.881-6.969 8.229-5.522 7.012-8.437 10.09-7.137-2.7 3.397-33.396 1.959-67.186-3.703-100.307-6.407-37.484-18.189-75.076-37.965-107.763-4.911-8.117-10.402-15.968-16.534-23.258 28.433 9.541 55.453 23.319 80.005 41.372z" fill="#fac135"/><path d="m468.351 714.859c10.613-9.213 24.739-14.989 38.102-19.496 5.778 15.383 11.884 30.643 18.242 45.797-.914-.098-1.832-.172-2.745-.27-11.801-1.273-23.674-2.501-35.286-5.021-12.532-2.721-30.403-10.521-18.313-21.01z" fill="#ff8e5b"/><path d="m458.114 477.371c-4.005-22.975-7.107-46.088-9.285-69.306.228.019.455.038.682.048.371.058.742.082 1.115.08.295-.004.587-.051.882-.069.054-.009.108-.014.161-.022 3.549-.256 7.109-1.464 10.402-3.895.176-.131.305-.293.475-.426 13.148 93.165 35.658 185.428 66.044 274.402 7.532 22.064 15.685 43.914 24.528 65.483-5.174-.371-10.346-.775-15.512-1.243-36.173-84.87-63.65-174.124-79.492-265.052z" fill="#aa8053"/><path d="m543.188 685.686c38.756-7.857 78.813-10.126 118.232-6.984-5.762 17.521-11.725 34.976-17.961 52.338-4.873 13.553-8.572 14.088-24.266 14.438-8.751.198-17.514.225-26.281.061-2.175-.04-4.35-.095-6.521-.159-17.488-.538-18.756 3.768-24.74-11.008-6.503-16.079-12.65-32.319-18.463-48.686z" fill="#ff8e5b"/><path d="m598.372 317.847c8.356-.495 16.732-.416 25.055.236 2.033 88.685 1.194 177.386-2.215 266.028-1.048 27.265-2.336 54.519-3.769 81.768-4.875.11-9.748.311-14.616.58-.839-91.878-.794-183.766-2.562-275.634-.467-24.329-1.09-48.657-1.893-72.978z" fill="#aa8053"/><path d="m689.364 627.306c15.734-52.688 29.857-105.858 43.746-159.14 5.729-21.983 11.535-43.946 17.49-65.871 2.852 2.496 6.192 4.354 10.139 5.033 2.961.508 5.822.244 8.51-.569-22.109 88.577-44.279 177.38-75.113 263.391-8.821 24.603-18.414 48.927-29.16 72.755-4.678.421-9.359.787-14.043 1.111 12.591-31.325 33.656-100.72 38.431-116.71z" fill="#aa8053"/><path d="m701.348 684.239c16.049 3.335 32.086 7.841 46.866 14.931 5.703 2.734 11.916 6.169 16.266 10.005 8.045 7.088 4.953 13.394-9.438 18.502-9.588 3.402-19.63 5.411-29.626 7.185-15.719 2.791-31.513 5.041-47.357 6.769 8.339-18.897 16.082-38.037 23.289-57.392z" fill="#ff8e5b"/><path d="m660.19 135.613c28.747 4.195 37.568 9.802 52.05 29.768 11.799 16.271 20.739 34.812 27.701 53.358 13.698 36.498 20.839 75.535 22.01 114.459.437 14.425-.016 28.873-1.409 43.23-1.5 15.478-2.982 17.927-10.389 5.275-12.82-21.931-30.137-40.139-52.356-53.041-46.019-26.729-105.154-29.154-154.641-10.913-23.64 8.716-45.864 22.267-62.747 41.162-4.195 4.697-8.084 9.712-11.555 14.967-11.572 17.504-13.576 18.873-13.34 3.488 1.16-74.555 26.955-149.33 78.694-203.954 33.462-35.336 48.843-40.141 67.517-40.869 19.629-.767 39.21.259 58.465 3.07z" fill="#fac135"/><path d="m280.437 399.493c2.046-16.93 6.982-33.988 11.998-50.251 4.604-14.92 10.068-29.583 16.623-43.759 24.283-52.526 62.836-96.751 113.047-125.855 41.835-24.249 89.185-37.653 137.172-43.628-60.363 44.822-98.595 115.864-110.801 189.58-2.759 16.672-4.274 33.489-4.565 50.348-.249 14.389-4.465 14.697-8.158 3.206-1.252-3.903-2.293-7.886-3.836-11.737-2.098-5.235-4.979-9.973-8.68-14.232-7.285-8.383-17.775-13.933-28.639-15.959-28.045-5.228-55.514 9.339-73.965 29.701-10.291 11.355-16.973 25.713-26.742 37.424-9.872 11.827-15.699 13.769-13.454-4.838z" fill="#fac135"/><path d="m444.998 711.419c-5.144-6.179-9.714-12.842-14.157-19.536-12.965-19.532-24.621-39.938-35.93-60.46-26.986-48.967-51.893-99.187-74.815-150.179-9.044-20.121-17.929-40.422-25.312-61.234.469-.42 4.988-4.965 6.678-6.947 35.461 81.738 74.223 162.313 118.932 239.414 11.445 19.739 23.379 39.192 35.848 58.302-1.844 2.116-3.436 4.414-4.469 6.901-.156.191-.294.408-.427.637-.065-.062-.161-.146-.212-.193-2.192-2.093-4.199-4.378-6.136-6.705z" fill="#aa8053"/><path d="m844.605 943.52c2.351 13.161 2.86 26.689-.731 39.65-5.771 20.836-23.453 35.783-42.123 46.313-25.172 14.198-53.686 22.192-81.883 27.747-66.723 13.143-137.805 13.189-204.689 1.107-29.037-5.246-58.377-12.859-84.799-26.289-18.768-9.539-38.455-23.348-46.703-42.69-6.838-16.035-6.043-33.472-2.008-50.482 32.887 37.542 85.291 54.44 132.968 62.677 48.927 8.453 99.751 10.031 149.172 5.627 40.177-3.583 80.333-11.602 117.722-27.041 22.468-9.278 44.305-21.041 63.074-36.619z" fill="#aa8053"/><path d="m818.919 867.976c21.081 50.106 24.816 62.763 6.391 75.938-16.098 11.513-33.99 20.679-52.758 27.942-5.995-30.974-18.898-60.011-31.317-88.859-6.375-14.809-13.163-29.718-17.675-45.229-4.205-14.445-6.676-29.384-8.551-44.29-1.865-14.825-3.097-29.719-4.369-44.603 1.746-.27 3.498-.494 5.243-.775 9.222-1.488 40.72-5.37 56.657-16.056 8.717 47.335 27.765 91.683 46.379 135.932z" fill="#ff801d"/><path d="m776.212 704.586c-2.664-3.158-5.956-5.863-9.482-8.219 40.391-75.254 80.049-151.284 110.36-231.258 7.054-18.611 13.503-37.449 19.232-56.506 1.241 2.082 2.53 4.144 3.974 6.129 1.148 1.581 2.653 3.418 4.369 5.139-8.062 42.893-25.39 84.184-43.41 123.679-19.096 41.856-40.463 82.679-62.979 122.79-7.205 12.834-14.58 25.572-22.064 38.246z" fill="#aa8053"/><path d="m624.997 812.566c-19.809-30.795-59.372-42.196-93.029-28.016-36.24 15.27-57.836 54.312-60.52 92.32-2.405 44.033 29.318 86.789 74.164 92.57 38.949 5.021 74.258-20.107 88.534-55.553 12.867-31.941 9.542-72.264-9.149-101.321zm-14.196 110.284c-15.648 25.729-46.819 39.84-76.128 30.148-29.588-9.787-49.147-38.954-47.587-69.938 2.462-33.38 23.712-68.009 58.366-75.2 28.272-5.866 55.985 8.222 68.256 34.203 11.864 25.117 11.673 56.812-2.907 80.787z" fill="#fac135"/><path d="m599.853 840.722c12.106 19.173 14.287 45.639 5.891 66.647-4.49 11.232-12.188 20.918-21.825 27.583-18.046 12.474-38.286 10.575-48.339-3.254-6.717-9.233-10.328-21.131-11.406-32.503-2.134-22.518 5.529-47.361 20.977-64.062 18.85-20.385 40.074-17.576 54.702 5.589z" fill="#00ebed"/><path d="m498.599 883.06c1.867-25.272 16.268-51.452 40.598-61.316 5.523-2.239 11.264-3.44 16.973-3.67-15.771 8.329-27.132 24.67-33.332 41.616-8.259 22.564-8.396 48.787 3.347 70.236 2.111 3.857 4.682 7.371 7.599 10.516-22.125-9.317-36.408-33.054-35.185-57.382z" fill="#aa8053"/><path d="m751.014 924.07c-6.265-16.098-13.358-31.852-20.092-47.754-6.054-14.305-12.149-28.658-15.925-43.76-6.75-27.008-8.851-54.982-11.186-82.672-45.456 6.535-91.322 8.702-137.227 6.188-26.748-1.466-54.174-3.319-80.477-8.585-7.961-1.593-19.766-3.972-27.605-9.708-2.091 8.968-4.357 17.89-7.014 26.712-13.793 45.842-35.656 88.127-54.629 131.879-10.676 24.621-7.791 36.596 10.434 50.865 8.939 6.994 18.781 13.033 28.754 18.045 29.959 15.064 63.396 22.922 96.447 27.469 48.763 6.707 99.254 7.164 148.1 1.137 20.906-2.576 42.543-6.588 63.7-12.597 24.759-7.021 22.928-15.573 6.72-57.219zm-113.872 9.463c-22.253 37.061-66.806 57.444-108.907 43.685-42.443-13.87-70.726-55.938-68.299-100.347 3.339-47.296 33.204-96.097 81.7-107.52 20.563-4.844 43.014-2.303 61.713 7.639 16.615 8.835 29.514 23.662 37.57 40.525 17.183 35.962 16.915 81.559-3.777 116.018z" fill="#ff801d"/><path d="m599.853 840.722c-2.285-3.62-4.748-6.681-7.322-9.296 12.617 20.867 9.953 48.558-1.025 70.555-8.143 16.313-21.604 30.693-41.369 25.848-14.434-3.537-22.311-18.437-26.133-32.883.056 1.418.037 2.848.17 4.25 1.078 11.372 4.689 23.27 11.406 32.503 10.053 13.829 30.293 15.728 48.339 3.254 9.638-6.665 17.335-16.351 21.825-27.583 8.396-21.01 6.215-47.475-5.891-66.648z" fill="#00afb3"/><path d="m547.822 849.624c-7.501 10.976-12.567 27.704-8.942 42.228 4.879 19.555 24.888 19.305 34.8-10.479 2.653-7.977 3.978-16.771 3.054-24.76-2.366-20.438-15.417-26.746-28.912-6.989z" fill="#88f9f9"/><path d="m751.014 924.07c-6.265-16.098-13.358-31.852-20.092-47.754-6.054-14.305-12.149-28.658-15.925-43.76-3.751-15.01-6.045-30.32-7.762-45.713-1.395 8.914-3.148 17.791-3.174 26.876-.033 13.634 2.917 27.508 5.688 40.777 6.028 28.899 19.023 63.394 4.881 91.66-13.253 26.493-48.643 35.925-74.518 44.073-9.66 3.043-19.474 5.646-29.391 7.83 23.422.018 46.831-1.331 69.873-4.174 20.906-2.576 42.543-6.588 63.7-12.597 24.759-7.02 22.928-15.572 6.72-57.218z" fill="#ef6200"/><path d="m407.294 947.236c8.939 6.994 18.781 13.033 28.754 18.045 5.598 2.816 11.35 5.303 17.164 7.639-14.902-10.235-27.967-23.062-38.063-38.951-22.814-35.91 10.139-69.508 12.203-105.635-9.919 22.754-20.589 45.2-30.492 68.037-10.675 24.621-7.791 36.596 10.434 50.865z" fill="#ef6200"/><path d="m806.765 927.576c-14.283 5.629-28.688-4.526-38.276-13.967-17.625-17.354-26.909-42.016-35.245-64.736-7.498-20.434-13.092-41.105-18.934-61.867.246 2.156.429 4.317.699 6.472 1.875 14.906 4.346 29.845 8.551 44.29 4.512 15.511 11.3 30.42 17.675 45.229 12.419 28.849 25.322 57.886 31.317 88.859 18.768-7.264 36.66-16.43 52.758-27.942 15.361-10.983 15.273-21.687 2.622-53.943-.024.477-.019.951-.05 1.428-.944 14.349-6.809 30.538-21.117 36.177z" fill="#ef6200"/><path d="m772.54 732.044c-7.613 5.104-18.771 8.644-29.363 11.124 2.268.463 4.529 1.003 6.767 1.716 2.6.827 4.989 2.044 7.231 3.517.477.309.938.646 1.408.972 10.258 7.499 16.953 20.839 22.844 31.245 2.948 5.208 5.941 10.461 8.912 15.7-7.426-20.978-13.751-42.296-17.799-64.274z" fill="#facb1a"/><path d="m460.431 770.966c16.854-11.003 39.279-10.818 58.656-12.156 13.978-.964 27.957-2.015 41.941-3.054-24.98-1.428-50.435-3.366-74.92-8.268-7.961-1.593-19.766-3.972-27.605-9.708-2.091 8.968-4.357 17.89-7.014 26.712-1.969 6.551-4.142 13.013-6.41 19.433 4.58-4.817 9.619-9.22 15.352-12.959z" fill="#facb1a"/><path d="m778.856 382.343c2.639-3.349 5.579-6.919 6.969-8.229 10.288-9.73 23.504-16.368 37.465-18.759 27.229-4.661 56.714 5.113 72.514 28.542 4.069 6.035 6.844 12.852 10.577 19.105-2.451-9.394-5.892-18.467-10.636-26.915-1.799-3.346-3.837-6.491-6.067-9.46-.249-.33-.495-.666-.751-.991-.549-.735-1.131-1.453-1.707-2.175-.477-.601-.922-1.217-1.416-1.806-9.43-11.239-21.229-16.688-35.563-18.464-17.412-2.156-38.621 2.842-52.088-11.057-9.42-9.717-11.992-25.469-14.401-38.225-2.505-13.261-4.249-26.432-9.329-39.02-7.131-17.67-15.118-34.955-24.652-51.465-4.631-8.017-9.296-17.416-15.719-24.767 17.331 30.989 28.012 65.853 33.965 100.677 5.662 33.121 7.101 66.911 3.703 100.307-1.3 12.792 1.614 9.713 7.136 2.702z" fill="#ee9e2b"/><path d="m632.495 881.48c-5.135 34.209-22.832 68.947-58.379 78.371-33.37 8.846-69.844-7.848-87.3-36.771-13.54-22.435-14.77-49.315-9.755-74.864-3.033 9.352-4.934 19.035-5.613 28.654-2.405 44.033 29.318 86.789 74.164 92.57 38.949 5.021 74.258-20.107 88.534-55.553 11.315-28.09 10.097-62.652-3.069-90.342 3.779 18.912 4.347 38.435 1.418 57.935z" fill="#ee9e2b"/><path d="m501.897 193.671c-10.871 12.577-20.367 26.321-29.574 40.132-11.18 16.773-21.42 34.157-30.896 51.942-9.197 17.261-17.793 34.031-37.109 41.384-15.021 5.719-32.008 4.768-47.639 8.03-13.924 2.905-25.148 10.839-35.057 20.706-14.207 14.15-25.832 33.284-32.104 53.281 1.35-1.338 2.805-2.934 4.373-4.816 9.77-11.711 16.451-26.068 26.742-37.424 18.451-20.362 45.92-34.929 73.965-29.701 10.863 2.026 21.354 7.576 28.639 15.959 3.701 4.26 6.582 8.997 8.68 14.232 1.543 3.852 2.584 7.834 3.836 11.737 3.693 11.491 7.909 11.183 8.158-3.206.291-16.858 1.807-33.676 4.565-50.348 8.149-49.219 27.962-97.201 58.157-137.026-1.591 1.674-3.191 3.333-4.736 5.118z" fill="#ee9e2b"/><path d="m761.951 333.198c-.517-17.193-2.271-34.397-5.169-51.406.458 11.663.152 23.312-1.883 35.043-.852 4.911-2.309 9.674-3.906 14.382-1.171 6.309-5.063 10.126-11.675 11.453-3.071-1.117-5.8-2.805-8.183-5.06-8.248-6.672-15.875-14.036-24.285-20.546-30.402-23.521-69.774-37.801-108.453-32.451-21.428 2.965-41.756 9.984-62.315 16.42-9.008 2.818-18.131 5.258-27.261 7.639-4.112 1.073-8.27 1.719-12.525 1.772-12.188.155-13.521-12.48-13.774-21.552-.592-21.063 9.13-43.198 16.88-62.359 3.359-8.305 7.133-16.384 11.234-24.281-35.987 50.665-54.154 112.943-55.121 175.115-.236 15.385 1.768 14.016 13.34-3.488 3.471-5.255 7.359-10.27 11.555-14.967 16.883-18.896 39.107-32.446 62.747-41.162 49.486-18.241 108.622-15.816 154.641 10.913 22.22 12.902 39.536 31.11 52.356 53.041 7.406 12.651 8.889 10.202 10.389-5.275 1.393-14.358 1.845-28.806 1.408-43.231z" fill="#ee9e2b"/><path d="m814.988 207.201c-6.878-6.161-14.016-12.039-21.466-17.517-24.553-18.053-51.572-31.83-80.005-41.369 3.271 3.891 6.335 7.956 9.251 12.123 18.747 3.199 38.07 14.63 54.146 23.101 13.224 6.969 25.892 14.984 38.074 23.662z" fill="#fbe134"/><path d="m542.999 791.238c24.316-6.908 48.461-2.131 70.664 7.762-21.4-20.238-53.586-26.291-81.695-14.449-20.24 8.528-35.9 24.479-46.26 43.514 15.295-17.233 34.439-30.338 57.291-36.827z" fill="#fbe134"/><path d="m601.726 132.544c-15.525.604-28.813 4.095-52.072 25.542 25.088-13.089 57.896-16.822 82.636-15.345 39.669 2.368 71.415 23.998 97.274 51.854-4.984-10.185-10.688-20.065-17.323-29.215-14.481-19.966-23.303-25.572-52.05-29.768-19.256-2.81-38.837-3.836-58.465-3.068z" fill="#fbe134"/><path d="m333.979 261.747c15.373-17.411 33.158-32.853 51.627-46.574 23.887-17.751 50.02-32.376 77.226-44.363 27.746-12.227 56.312-19.575 85.55-26.231 3.549-2.954 7.178-5.817 10.896-8.578-47.987 5.975-95.337 19.379-137.173 43.628-35.534 20.598-65.196 48.793-88.126 82.118z" fill="#fbe134"/><g fill="#865725"><path d="m828.694 607.929c-12.948 16.979-26.408 33.507-40.943 48.911-6.963 13.203-13.967 26.386-21.021 39.527 3.526 2.355 6.818 5.061 9.482 8.219 7.484-12.674 14.859-25.412 22.064-38.246 11.678-20.803 23.021-41.809 33.926-63.041-1.172 1.543-2.334 3.09-3.508 4.63z"/><path d="m515.179 1058.338c66.885 12.082 137.967 12.035 204.689-1.107 28.197-5.555 56.711-13.549 81.883-27.747 18.67-10.53 36.352-25.478 42.123-46.313.569-2.051 1.002-4.119 1.373-6.195-18.855 28.174-49.786 45.156-83.608 56.662-45.459 15.465-94.079 21.754-141.909 23.105-50 1.414-100.928-3.542-148.812-18.455-22.032-6.861-43.339-16.42-62.423-29.451-11.535-7.879-20.766-17.308-27.666-28.072.754 2.896 1.645 5.775 2.848 8.595 8.248 19.343 27.936 33.151 46.703 42.69 26.422 13.429 55.762 21.042 84.799 26.288z"/><path d="m394.911 631.423c11.309 20.521 22.965 40.928 35.93 60.46 4.443 6.694 9.014 13.357 14.157 19.536 1.937 2.327 3.944 4.612 6.136 6.704.051.047.146.132.212.193.133-.229.271-.445.427-.637 1.033-2.487 2.625-4.785 4.469-6.901-11.209-17.18-21.93-34.675-32.307-52.369-13.753-14.218-26.691-29.275-38.852-45.281 3.277 6.099 6.488 12.235 9.828 18.295z"/><path d="m664.976 742.904c10.746-23.828 20.339-48.152 29.16-72.755 3.69-10.292 7.241-20.63 10.697-30.995-10.627 16.988-22.199 33.419-34.504 49.307-6.701 20.695-13.865 41.797-19.396 55.555 4.683-.325 9.365-.691 14.043-1.112z"/><path d="m556.169 818.073c-5.709.229-11.449 1.431-16.973 3.67-20.719 8.401-34.204 28.637-38.913 50.063 7.187-10.596 17.552-19.59 29.138-26.255 6.492-11.44 15.469-21.522 26.748-27.478z"/><path d="m537.606 742.424c5.166.468 10.338.872 15.512 1.243-5.543-13.517-10.722-27.177-15.738-40.898-17.67-24.063-31.729-50.694-43.42-78.575 12.574 40.142 27.2 79.642 43.646 118.23z"/><path d="m617.443 665.879c1.433-27.249 2.721-54.503 3.769-81.768.738-19.197 1.332-38.396 1.826-57.598-2.712 19.123-5.662 38.725-9.559 58.202-1.298 6.173-2.641 12.337-4.089 18.479-.677 2.871-1.367 5.743-2.073 8.612-1.457 5.653-3.069 11.245-4.768 16.798.088 12.619.162 25.236.277 37.854 4.869-.269 9.742-.469 14.617-.579z"/></g><path d="m485.874 1006.07c51.301 17.78 107.857 21.238 161.713 17.535 45.841-3.15 91.695-13.413 134.146-31.045 20.748-8.619 40.512-19.529 58.487-33.026 1.952-1.464 3.917-3.007 5.878-4.563-.316-3.831-.816-7.659-1.493-11.452-18.77 15.578-40.606 27.342-63.075 36.619-37.389 15.439-77.545 23.458-117.722 27.041-49.421 4.404-100.245 2.826-149.172-5.627-37.627-6.501-78.159-18.445-109.757-41.625 19.456 23.94 53.226 36.519 80.995 46.143z" fill="#d4ba89"/><path d="m692.423 707.203c-4.604 11.551-9.342 23.047-14.365 34.427 15.845-1.728 31.639-3.978 47.357-6.769 9.996-1.773 20.038-3.782 29.626-7.185.112-.04.21-.081.319-.121-19.711-9.79-41.138-16.399-62.937-20.352z" fill="#ff564d"/><path d="m521.949 740.891c.913.098 1.831.172 2.745.27-2.527-6.021-4.98-12.076-7.422-18.133-10.695 3.356-21.106 7.496-30.342 12.893 11.528 2.479 23.308 3.706 35.019 4.97z" fill="#ff564d"/><path d="m643.46 731.039c3.367-9.373 6.641-18.779 9.861-28.201-.75-.035-1.502-.088-2.252-.117-32.537-1.259-65.432 3.01-97.01 10.67-.184.045-.384.093-.57.138 2.666 6.971 5.365 13.929 8.162 20.843 5.984 14.775 7.252 10.47 24.74 11.008 2.172.064 4.347.119 6.521.159 8.768.164 17.53.138 26.281-.061 15.695-.351 19.394-.886 24.267-14.439z" fill="#ff564d"/></g></g></svg>