<?xml version="1.0" encoding="UTF-8"?>
<!-- Generator: Adobe Illustrator 25.2.1, SVG Export Plug-In . SVG Version: 6.00 Build 0)  -->
<svg xmlns="http://www.w3.org/2000/svg" xmlns:xlink="http://www.w3.org/1999/xlink" version="1.1" id="Capa_1" x="0px" y="0px" viewBox="0 0 512 512" style="enable-background:new 0 0 512 512;" xml:space="preserve" width="512" height="512">
<g>
	<g>
		<path style="fill:#FFFFFF;" d="M508.483,125.583c-4.141-6.491-11.601-10.4-19.145-10.475    c-11.512-9.076-26.144-12.595-39.899-9.045l-0.94,0.252c-6.048,1.688-11.388,4.473-15.895,8.049    c-0.787-3.301-1.927-6.526-3.446-9.628c-6.161-12.574-17.507-21.813-31.952-26.009c-1.141-0.332-2.297-0.61-3.461-0.852    c-0.986-8.643-6.694-16.059-15.009-19.066l-27.231-9.847c-1.522-0.55-3.072-0.873-4.626-1.091    c3.396-10.711-0.957-21.892-10.801-27.088c-5.05-2.666-11.174-3.296-16.803-1.724c-2.776,0.775-5.309,2.033-7.504,3.692    c-7.411-0.716-14.805-0.093-21.857,1.876c-9.383,2.619-17.563,7.47-24.076,14.207c-1.884-4.869-5.43-9.038-10.353-11.641    c-5.049-2.664-11.186-3.285-16.835-1.708c-4.207,1.175-7.833,3.434-10.564,6.5c-5.597-0.211-11.237,0.451-16.763,1.994    c-11.801,3.295-22.635,10.599-30.509,20.567c-3.678,4.655-6.453,9.693-8.494,14.941c-12.807-6.953-27.906-8.995-42.451-4.934    c-2.321,0.648-4.629,1.455-6.861,2.397c-4.102,1.733-7.904,4.067-11.394,6.815c-3.648-0.939-7.576-0.975-11.475,0.113    c-0.449,0.125-0.9,0.266-1.36,0.425l-21.451,7.412c-11.578,4-17.769,16.362-14.091,28.145c1.929,6.19,6.203,10.953,11.529,13.578    l1.318,20.61l-13.56-14.557c0.85-4.291,0.424-8.878-1.446-13.22c-4.514-10.468-16.03-16.094-26.787-13.091    c-1.98,0.553-3.897,1.381-5.687,2.46L10.83,116.348c-9.661,5.817-13.431,17.557-8.963,27.913    c4.303,9.978,14.97,15.558,25.277,13.456l57.269,61.47c0.818,0.88,1.71,1.654,2.633,2.377    c-7.728,12.85-13.754,26.835-17.883,41.643c-0.969,3.464-1.841,7.011-2.591,10.528c-2.254,10.539-3.554,21.377-3.865,32.221    c-0.154,5.415-0.06,10.878,0.278,16.227c0.335,5.383,0.926,10.819,1.757,16.161c0.56,3.578,1.232,7.165,2.003,10.656    c1.566,7.098,3.595,14.127,6.03,20.896c1.233,3.421,2.589,6.832,4.032,10.138c0.732,1.671,1.49,3.329,2.283,4.989    c0.949,1.985,1.931,3.948,2.938,5.863c2.001,3.813,4.182,7.617,6.486,11.3c3.374,5.399,7.108,10.698,11.098,15.751    c7.747,9.805,16.662,18.924,26.492,27.108c1.612,1.341,3.246,2.657,4.895,3.939c16.163,12.578,34.533,22.756,54.602,30.256    c7.762,2.898,15.815,5.402,23.944,7.439c4.037,1.01,8.159,1.923,12.24,2.712c6.123,1.183,12.386,2.129,18.625,2.812    c3.704,0.402,7.426,0.733,11.068,0.978c5.62,0.377,11.291,0.582,16.863,0.605c5.705,0.022,11.434-0.139,17.049-0.485    c3.829-0.237,7.659-0.56,11.399-0.961c3.828-0.413,7.659-0.916,11.382-1.497c1.902-0.296,3.798-0.614,5.677-0.955    c3.805-0.687,7.61-1.476,11.297-2.34c1.878-0.438,3.748-0.901,5.638-1.396c1.1-0.289,2.198-0.586,3.294-0.891    c0.757-0.211,1.515-0.428,2.261-0.644c3.73-1.085,7.45-2.279,11.043-3.55c1.827-0.645,3.645-1.314,5.453-2.012    c5.477-2.116,10.86-4.48,15.989-7.03c3.482-1.727,6.953-3.591,10.318-5.546c3.397-1.974,6.75-4.081,9.972-6.261    c8.319-5.633,16.08-11.996,23.066-18.907c1.402-1.389,2.774-2.807,4.116-4.248c1.06-1.138,2.092-2.311,3.265-3.646l0.584-0.658    c2.43-2.818,4.849-5.848,7.195-9.01c36.638-49.431,44.507-119.418,19.135-170.198c-4.562-9.133-10.784-17.531-18.402-24.92    c0.773-1.17,1.459-2.382,2.078-3.622c9.698,2.998,19.944,3.516,29.12,0.955c7.132-1.991,13.344-5.616,18.463-10.769    c8.327-8.38,12.702-19.264,12.315-30.636c-0.18-5.314-1.396-10.601-3.524-15.617c1.253-0.674,2.436-1.471,3.54-2.394l13.325-11.11    C512.528,147.829,514.666,135.269,508.483,125.583z"/>
		<g>
			<g>
				<path style="fill:#FA3E00;" d="M430.715,261.423c-12.397-24.807-38.54-40.29-65.004-45.252      c-25.228-4.73-50.817-7.278-75.439-14.123c-25.868-7.192-51.757-16.496-77.493-22.758c-18.413-4.48-39.135-6.35-56.901,1.605      c-21.709,9.721-39.514,27.087-52.116,47.048c-27.808,44.052-31.243,102.478-8.79,149.485      c27.258,57.066,85.874,90.543,147.338,97.267c54.783,5.994,116.693-5.552,157.481-45.904      C441.24,387.787,457.527,315.08,430.715,261.423z"/>
			</g>
			<g>
				<path style="fill:#1C9E5F;" d="M400.649,191.263c-18.877-8.661-46.125-13.609-54.267-14.153      c-18.7-1.25-38.064,0.81-54.964,9.362c1.415-5.891,15.274-62.314,15.357-62.295c-9.92-1.87-19.696-3.686-29.733-4.758      c1.209,21.346,0.856,42.875,0.988,64.255c-18.186-12.88-33.991-27.988-56.63-32.632c-21.221-4.353-43.966-0.829-62.875,9.742      c-5.828,3.258-11.661,7.646-13.548,14.051c-3.658,12.421,11.149,16.178,19.759,19.289c24.292,8.78,50.752,8.748,76.581,8.612      c-20.292,16.739-33.897,41.371-37.26,67.461c-0.802,6.223-0.781,13.283,3.523,17.848c3.418,3.626,8.887,4.748,13.808,3.955      c4.92-0.793,9.407-3.243,13.628-5.893c24.143-15.158,44.463-35.752,53.18-63.129c-3.227,18.031-0.003,37.15,8.959,53.126      c7.152,12.75,20.706,28.46,35.252,32.974c16.205,5.029,22.282-17.52,21.61-29.447c-1.183-20.978-9.893-41.452-24.187-56.852      c20.499,9.953,44.534,12.421,66.629,6.841C420.717,223.495,422.752,201.405,400.649,191.263z"/>
			</g>
			<g>
				<path style="fill:#CE2806;" d="M101.032,102.664c2.18-0.753,4.361-1.507,6.541-2.26c6.04-2.087,3.026-11.551-3.044-9.454      c-7.151,2.471-14.302,4.942-21.453,7.412c-6.04,2.087-3.026,11.551,3.044,9.454c1.725-0.596,3.45-1.192,5.175-1.788      c1.836,28.701,3.672,57.401,5.508,86.101c-18.981-20.374-37.961-40.749-56.942-61.123c1.055-0.636,2.11-1.271,3.165-1.907      c5.495-3.31,0.139-11.673-5.342-8.371c-5.925,3.569-11.85,7.139-17.775,10.708c-5.495,3.31-0.14,11.672,5.342,8.371      c1.98-1.193,3.96-2.386,5.941-3.579c0.004,0.005,0.006,0.01,0.011,0.014c22.032,23.65,44.064,47.3,66.097,70.95      c1.495,1.604,3.253,1.785,4.757,1.169c2.728,0.225,5.641-1.496,5.415-5.026C105.325,169.779,103.178,136.221,101.032,102.664z"/>
				<path style="fill:#CE2806;" d="M253.534,79.163c-13.374,0.665-26.748,1.33-40.122,1.995c-6.388,0.317-5.894,10.238,0.512,9.919      c11.645-0.579,23.291-1.158,34.936-1.737c0.01,13.121-0.85,26.453-9.357,37.146c-12.05,15.147-29.017,7.417-37.625-6.313      c-7.776-12.404-8.328-29.549-2.828-42.809c5.677-13.687,21.823-21.259,35.589-16.48c-0.43,1.168-0.861,2.336-1.292,3.504      c-0.935,2.537-0.559,5.324,2.069,6.712c2.15,1.135,5.774,0.476,6.712-2.069c2.402-6.515,4.805-13.031,7.207-19.547      c0.936-2.537,0.56-5.324-2.068-6.712c-2.15-1.135-5.774-0.476-6.712,2.068c-0.832,2.257-1.664,4.514-2.497,6.771      c-15.839-5.554-32.916,0.54-43.432,13.853c-13.378,16.935-10.7,42.163-1.12,60.05c7.975,14.89,27.075,25.395,43.038,15.991      c20.696-12.192,22.409-35.857,22.204-57.639C258.724,81.158,256.149,79.033,253.534,79.163z"/>
				<path style="fill:#CE2806;" d="M327.864,73.662c-7.915-6.479-21.826-6.256-31.599-8.068c-6.282-1.165-8.445,8.527-2.142,9.696      c5.518,1.023,11.037,2.046,16.555,3.07c6.803,1.261,9.789,0.432,6.476,7.786c-5.99,13.294-19.153,20.932-32.203,10.944      c-10.462-8.008-9.029-23.496-3.514-33.662c6.625-12.211,22.078-16.093,34.585-12.059c-0.307,0.776-0.613,1.551-0.92,2.327      c-0.995,2.515-0.518,5.346,2.068,6.711c2.193,1.158,5.715,0.452,6.712-2.068c2.013-5.09,4.027-10.18,6.04-15.27      c0.994-2.515,0.518-5.346-2.068-6.712c-2.193-1.158-5.715-0.452-6.712,2.069c-0.503,1.27-1.005,2.541-1.507,3.811      c-16.366-5.147-35.096-1.225-45.168,13.841c-10.821,16.186-9.664,38.042,6.418,50.35c16.075,12.303,34.575,2.483,43.539-12.682      C326.881,89.587,333.326,78.132,327.864,73.662z"/>
				<path style="fill:#CE2806;" d="M336.316,150.521c-1.15-0.419-2.299-0.838-3.449-1.257c8.849-22.747,17.698-45.495,26.547-68.243      c3.73,1.349,7.461,2.698,11.191,4.046c6.009,2.173,8.076-7.551,2.142-9.696c-9.078-3.282-18.155-6.565-27.233-9.847      c-6.009-2.173-8.076,7.551-2.142,9.696c2.254,0.815,4.508,1.63,6.761,2.445c-8.846,22.74-17.692,45.48-26.538,68.22      c-1.871-0.682-3.741-1.363-5.612-2.045c-2.55-0.929-5.393,1.398-5.919,3.777c-0.642,2.906,1.235,4.993,3.777,5.919      c6.111,2.227,12.222,4.453,18.333,6.68c2.55,0.929,5.394-1.398,5.919-3.777C340.734,153.534,338.858,151.447,336.316,150.521z"/>
				<path style="fill:#CE2806;" d="M185.667,120.078c-0.614-1.896-2.26-2.626-4.125-2.342c-5.091,0.775-10.181,1.549-15.272,2.324      c-1.74,0.265-2.854,2.542-2.342,4.125c0.614,1.896,2.26,2.626,4.125,2.342c1.543-0.235,3.087-0.469,4.63-0.704      c0.9,9.415-9.326,18.584-16.447,22.711c-14.012,8.119-30.171-2.474-35.602-15.585c-0.265-0.64-0.471-1.268-0.682-1.898      c16.505-5.195,33.01-10.391,49.515-15.586c2.727,0.12,5.657-2.837,3.967-6.066c-18.891-36.08-71.796-12.425-60.56,25.689      c5.062,17.171,23.014,25.777,39.692,23.207c13.96-2.152,29.393-18.966,28.022-33.675c0.913-0.139,1.826-0.278,2.739-0.417      C185.065,123.939,186.179,121.661,185.667,120.078z M163.514,108.905c-14.968,4.712-29.937,9.423-44.906,14.135      C118.824,102.078,149.12,90.991,163.514,108.905z"/>
				<path style="fill:#CE2806;" d="M416.055,147.147c-5.796-1.768-11.593-3.536-17.389-5.304c-1.678-0.512-3.73,0.61-4.125,2.342      c-0.413,1.813,0.546,3.577,2.342,4.125c0.815,0.248,1.63,0.497,2.444,0.745c-4.097,13.719-18.412,17.726-30.573,11.653      c-12.385-6.185-14.721-21.424-11.848-33.496c0.686-2.882,1.849-5.604,3.384-8.098c0.425,0.497,0.999,0.931,1.751,1.261      c14.764,6.471,29.527,12.942,44.291,19.413c1.196,0.524,2.335,0.555,3.352,0.28c1.678,0.161,3.337-0.588,4.177-2.71      c7.372-18.616-2.833-36.275-21.571-41.719c-18.61-5.407-38.424,9.132-44.082,26.387c-6.319,19.269,0.16,39.602,18.759,48.889      c16.979,8.479,36.364-1.96,41.811-18.977c1.832,0.559,3.663,1.117,5.495,1.676c1.678,0.512,3.731-0.61,4.125-2.342      C418.81,149.459,417.851,147.695,416.055,147.147z M381.142,104.888c14.541-2.516,27.58,10.087,24.998,24.001      c-13.113-5.747-26.226-11.495-39.339-17.242C370.923,108.204,375.903,105.794,381.142,104.888z"/>
				<path style="fill:#CE2806;" d="M471.93,151.51c1.317,2.064,4.774,3.251,6.856,1.514c4.444-3.705,8.887-7.41,13.33-11.114      c2.077-1.731,3.108-4.36,1.515-6.856c-1.317-2.064-4.773-3.251-6.856-1.515c-0.706,0.588-1.411,1.177-2.117,1.765      c-7.093-9.348-18.87-15.272-30.82-12.188c-13.259,3.421-21.376,14.587-18.751,28.295c3.245,16.953,29.431,16.938,27.49,36.635      c-2.124,21.551-52.182,9.331-42.068-13.978c1.365,0.772,2.731,1.544,4.096,2.317c5.589,3.161,10.2-5.638,4.643-8.781      c-4.488-2.539-8.977-5.077-13.465-7.616c-5.589-3.161-10.2,5.638-4.643,8.78c0.234,0.133,0.468,0.265,0.703,0.397      c-13.304,27.827,33.129,54.019,53.394,33.621c11.813-11.891,8.092-28.53-3.656-38.851c-6.9-6.061-18.848-9.289-16.945-20.797      c1.319-7.973,9.675-10.606,16.468-10.796c6.676-0.187,12.205,4.163,15.918,9.327c-1.192,0.994-2.385,1.988-3.577,2.982      C471.368,146.386,470.337,149.013,471.93,151.51z"/>
			</g>
			<g>
				<path style="fill:#202D7D;" d="M204.589,322.937c-2.015,9.786-7.906,16.842-13.159,15.761      c-5.252-1.081-7.877-9.891-5.862-19.677c2.015-9.786,7.906-16.842,13.159-15.761      C203.98,304.341,206.604,313.151,204.589,322.937z"/>
				<path style="fill:#202D7D;" d="M337.157,350.773c-2.015,9.786-7.906,16.842-13.159,15.761      c-5.252-1.082-7.877-9.892-5.862-19.678c2.015-9.786,7.906-16.842,13.159-15.761      C336.547,332.177,339.172,340.987,337.157,350.773z"/>
				<g>
					<path style="fill:#202D7D;" d="M311.037,332.745c-1.2-0.495-3.85,6.546-12.222,14.103c-2.058,1.896-4.532,3.709-7.269,5.48       c-2.817,1.647-5.88,3.32-9.323,4.522c-6.81,2.533-14.902,3.641-22.997,2.242c-8.066-1.561-15.24-5.464-20.711-10.245       c-2.794-2.344-5.064-4.994-7.115-7.532c-1.932-2.626-3.603-5.198-4.856-7.7c-5.151-10.032-5.134-17.556-6.432-17.518       c-0.489-0.014-1.087,1.832-1.224,5.296c-0.155,3.457,0.471,8.54,2.644,14.431c1.068,2.952,2.647,6.026,4.606,9.176       c2.077,3.061,4.49,6.254,7.566,9.12c6.017,5.815,14.373,10.721,24.127,12.593c9.784,1.706,19.338,0.079,27.024-3.227       c3.892-1.591,7.28-3.721,10.307-5.848c2.948-2.252,5.513-4.567,7.558-6.949c4.119-4.739,6.505-9.271,7.585-12.558       C311.403,334.844,311.498,332.905,311.037,332.745z"/>
				</g>
			</g>
		</g>
	</g>
</g>















</svg>
