<svg id="Layer_1" height="512" viewBox="0 0 128 128" width="512" xmlns="http://www.w3.org/2000/svg" data-name="Layer 1"><path d="m124.607 60.223a50.591 50.591 0 0 0 -5.736-23.386c2.853-2.5 4.541-4.532 5.129-6.151a4.3 4.3 0 0 0 .3-1.223l.022-.092v-.271a3.464 3.464 0 0 0 -1.343-2.8 5.8 5.8 0 0 0 -2.5-3.481l-.594-.36h-.616a2.228 2.228 0 0 0 -.932.2q-.119-.276-.261-.534a2.229 2.229 0 0 0 .12-1.859 5.7 5.7 0 0 0 -3.027-3.225 10.254 10.254 0 0 0 -1.06-1.906 8.8 8.8 0 0 0 -3.28-3.168 2.656 2.656 0 0 0 -1.52-.461 3.577 3.577 0 0 0 -2.938 1.767c-.72 1.016-1.825 2.576-1.809 4.218l-1.087 1.61a50.651 50.651 0 0 0 -18.762-8.329c-4.321-4.072-8.369-6.15-12.045-6.15a7.993 7.993 0 0 0 -6.322 2.8l-.459.6.037.755a8.06 8.06 0 0 1 -.07 1.542c-.666.108-1.33.229-1.988.364a8.522 8.522 0 0 0 -3.141-7.257 2.074 2.074 0 0 0 -3.235 2.24 3.9 3.9 0 0 1 -.017 2.4c-.163-.014-.328-.021-.493-.021a5.872 5.872 0 0 0 -1.686.246 5.933 5.933 0 0 0 -2.033.982 3.913 3.913 0 0 1 -1.283-2.026 2.074 2.074 0 0 0 -3.932-.191 8.475 8.475 0 0 0 1.9 8.671v.029q-.794.431-1.573.891a8.1 8.1 0 0 1 -1.906-2.3l-.367-.66-.707-.268a6.868 6.868 0 0 0 -2.313-.368c-3.551 0-9.885 2.241-12.391 17.19-.034.167-.045.254-.045.254l-.417 3.425.78-.291a50.561 50.561 0 0 0 -2.718 5c-.536-.038-1.073-.057-1.607-.057-5.625 0-13.628 2.122-19.807 12.235-6.593 10.765-3.615 23.499 7.177 31.414-1.384 7.025-.043 16.416 4.079 28.635l.309.916 25.749 10.092 17.805 2.013a18.178 18.178 0 0 0 6.567 1.123 25.221 25.221 0 0 0 3.951-.318 3.627 3.627 0 0 0 2.459-1.536 3.488 3.488 0 0 0 .21-3.583c-2.3-4.362-7.2-6.234-7.409-6.311l-.226-.085-17.991-2.26-7.341-5.716 2.72-3.609a50.506 50.506 0 0 0 41.033 7.78l2.342 6.761 2.916 4.393a8.531 8.531 0 0 0 7.109 3.815h5.412a5.3 5.3 0 0 0 5.3-5.3v-2.243a5.277 5.277 0 0 0 -5.162-5.3l-2.782-.072a15.783 15.783 0 0 1 -2.522-6.985 50.418 50.418 0 0 0 26.027-44.208zm-101.062 3.026c-1.7-.108-3.406-.526-3.66-1.747-.8-3.8 1.56-7.522 4.4-10.47a50.757 50.757 0 0 0 -.836 9.191c.005 1.002.035 2.014.096 3.026z" fill="#fff"/><path d="m122.533 60.223a48.5 48.5 0 1 1 -89.075-26.584c.216-.341.44-.673.674-1.005a48.713 48.713 0 0 1 12.9-12.7c.135-.1.27-.188.414-.278a48.511 48.511 0 0 1 75.091 40.567z" fill="#d0d5d6"/><path d="m54.573 29.867a10.895 10.895 0 0 1 -21.115 3.772c.216-.341.44-.673.674-1.005a9.309 9.309 0 1 0 12.9-12.7c.135-.1.27-.188.414-.278a10.876 10.876 0 0 1 7.127 10.211z" fill="#bac2d3"/><circle cx="97.587" cy="75.466" fill="#b0b3c1" r="12.424"/><circle cx="97.587" cy="77.669" fill="#bac2d3" r="10.221" transform="matrix(.383 -.924 .924 .383 -11.515 138.105)"/><circle cx="48.023" cy="75.466" fill="#b0b3c1" r="7.24"/><circle cx="46.749" cy="75.621" fill="#bac2d3" r="5.956" transform="matrix(.268 -.963 .963 .268 -38.646 100.355)"/><circle cx="88.774" cy="30.209" fill="#b0b3c1" r="9.232"/><circle cx="89.783" cy="28.92" fill="#bac2d3" r="7.595" transform="matrix(.871 -.491 .491 .871 -2.624 47.847)"/><g fill="#464d57"><path d="m119.343 24.565a.151.151 0 0 0 -.221.183 2.455 2.455 0 0 1 -.187 2.645s1.3 4.439 2.015 1.273a3.659 3.659 0 0 0 -1.607-4.101z"/><path d="m116.672 25.223a.152.152 0 0 0 -.221.184 2.458 2.458 0 0 1 -.187 2.645s1.3 4.438 2.015 1.273a3.661 3.661 0 0 0 -1.607-4.102z"/><path d="m116.254 21.023a.151.151 0 0 1 -.225.179 2.455 2.455 0 0 0 -2.627-.359s-4.077-2.187-.833-2.233a3.66 3.66 0 0 1 3.685 2.413z"/><path d="m116.488 23.642a.151.151 0 0 1 -.225.178 2.455 2.455 0 0 0 -2.627-.359s-4.077-2.187-.834-2.233a3.661 3.661 0 0 1 3.686 2.414z"/></g><path d="m122.243 29.1a.253.253 0 0 1 -.01.057 2.116 2.116 0 0 1 -.162.764c-1.365 3.751-10.948 10.3-10.948 10.3 1.623 12.217-4.075 17.915-4.075 17.915s.191 1.4-1 8.1c-1.441 8.074-7.95 15.5-7.95 15.5-.43.315-.869.62-1.3.916a63.837 63.837 0 0 1 -6.586 3.98 68.74 68.74 0 0 1 -8.6 3.818 78.226 78.226 0 0 1 -34.094 4.25l-8.189 10.872 9.4 7.32 18.316 2.3s4.342 1.622 6.3 5.335a1.464 1.464 0 0 1 -1.079 2.09 18.846 18.846 0 0 1 -9.764-.773l-17.81-2.014-24.6-9.64c-3.98-11.8-5.593-21.714-3.713-28.872-9.845-6.564-14.541-18.313-7.736-29.432 9.927-16.245 24.673-10.108 24.673-10.108s-17.753 9.191-15.462 20.148 44.646-7.864 44.646-7.864c21.4-4.062 16.324-11.662 21.316-16.255s5.049-7.626 9.392-10.069a26.827 26.827 0 0 1 8.953-2.978l7.33-10.862c7.33 3.532 3.8 14.661 3.8 14.661s8.952-2.988 8.952.541z" fill="#e1b378"/><path d="m106.971 116.789v2.242a3.223 3.223 0 0 1 -3.226 3.227h-5.412a6.473 6.473 0 0 1 -5.383-2.892l-2.768-4.166-8.571-24.74-.964-2.8 11.492-6.176 5.221-2.806s-.258 1.537-.563 3.98c-.974 7.884-2.358 25.226 3.36 30.81h.028l3.646.095a3.23 3.23 0 0 1 3.14 3.226z" fill="#e1b378"/><path d="m89.646 30.714s-4.2 6.819-14.549 8.231a.954.954 0 0 0 -.447 1.711c3.067 2.266 9.468 6.014 15.287 3.15 8.01-3.944-.291-13.092-.291-13.092z" fill="#e1b378"/><path d="m94.031 34.151a3.271 3.271 0 0 1 4.1-2.345s-1.286 2.931-4.1 2.345z" fill="#2f3a5a"/><path d="m80.522 43.9s6.016 3.673 13.509-3.132c0 0-3.423 6.349-14.645 5.251z" fill="#bd8d5a"/><path d="m109.63 13.677s-.668-.47-1.573.807-2.128 3.086-.957 3.99a4.377 4.377 0 0 0 4.362.638c1.224-.691.976-2.236.808-2.96-.207-.896-2.64-2.475-2.64-2.475z" fill="#464d57"/><path d="m122.243 29.1a.253.253 0 0 1 -.01.057c-.029.115-.076.372-.162.764-1.365 3.751-10.948 10.3-10.948 10.3 1.623 12.217-4.075 17.915-4.075 17.915s.191 1.4-1 8.1c-1.441 8.074-7.95 15.5-7.95 15.5-.43.315-.869.62-1.3.916-.974 7.884-2.358 25.226 3.36 30.81-3.685-.267-9.616-16.258-8.509-26.2.239-2.081.491-5.781.491-5.781a5.769 5.769 0 0 1 1.889-1.481c9.821-4.768 11.971-24.182 11.971-24.182 5.755-6.633 3.522-18.039 3.522-18.039 4.923-1.203 12.721-8.679 12.721-8.679z" fill="#bd8d5a" opacity=".5"/><path d="m86.214 15.338c-12.514-14.162-18.214-6.663-18.214-6.663.268 5.53-3.789 8.873-5.622 10.093a9.807 9.807 0 0 1 -.876.53l-.015 10.884c5.266-8.232 10.042-4.547 10.744-3.934a.085.085 0 0 0 .134-.035c2.689-6.776 7.545-4.31 8.494-3.746a.085.085 0 0 0 .125-.092c-1.078-5.743 5.323-6.94 5.323-6.94s-.033-.035-.093-.097z" fill="#2f3a5a"/><path d="m86.214 15.338c-.869-.94-8.084-8.417-16.307-6.449 0 0-.915 8.34-7.533 9.879 1.833-1.22 5.89-4.563 5.622-10.093.004 0 5.704-7.499 18.218 6.663z" fill="#27314c"/><path d="m32.721 30.649c3.127-18.639 11.934-15.293 11.934-15.293 2.7 4.834 7.91 5.524 10.111 5.59a9.842 9.842 0 0 0 1.024-.014l5.771 9.228c-8.824-4.2-10.928 1.455-11.2 2.346a.085.085 0 0 1 -.133.041c-5.867-4.327-8.683.335-9.19 1.316a.085.085 0 0 1 -.154-.012c-2.124-5.444-8.189-3.073-8.189-3.073s.005-.044.026-.129z" fill="#2f3a5a"/><path d="m32.721 30.649c.241-1.257 2.407-11.42 10.425-14.1 0 0 5.19 6.594 11.62 4.4-2.2-.066-7.413-.756-10.111-5.59 0-.003-8.807-3.349-11.934 15.29z" fill="#27314c"/><path d="m61.534 11.9a6.416 6.416 0 0 0 -2.054-6.817 5.891 5.891 0 0 1 -.556 4.757.924.924 0 0 1 -1.059.393 4.112 4.112 0 0 0 -3.789 1.085.926.926 0 0 1 -1.107.226 5.891 5.891 0 0 1 -2.989-3.744 6.417 6.417 0 0 0 1.864 6.869 7.882 7.882 0 0 0 2.462 4.631 14.8 14.8 0 0 0 .742 6.837c1.548 3.984 3.556 7.9 7.689 10.346l.7.384.393-.7c2.214-4.26 1.864-8.438 1.07-12.637a15.875 15.875 0 0 0 -3.007-6.4 7.884 7.884 0 0 0 -.359-5.23z" fill="#2f3a5a"/><path d="m55.71 25.949a17.142 17.142 0 0 1 -.871-6.8l-.533.152-.014.1a14.766 14.766 0 0 0 .758 6.731c1.546 3.987 3.553 7.9 7.688 10.346l.7.384-.631-.4c-3.702-2.562-5.6-6.512-7.097-10.513z" fill="#27314c"/><path d="m61.96 17.212-.065-.081-.528.13a18.662 18.662 0 0 1 2.878 6.463c.846 4.184 1.3 8.33-.486 12.468l-.319.676.393-.7c2.213-4.26 1.862-8.436 1.069-12.635a15.905 15.905 0 0 0 -2.942-6.321z" fill="#27314c"/><path d="m58.618 13.048c-.239.068-.327.493-.258.732a.45.45 0 1 0 .865-.248c-.068-.239-.368-.553-.607-.484z" fill="#faba59"/><path d="m54.806 14.26c-.239.068-.327.493-.259.732a.45.45 0 1 0 .866-.248c-.069-.239-.368-.553-.607-.484z" fill="#faba59"/><path d="m54.839 19.151a5.243 5.243 0 0 0 6.528-1.89 4.357 4.357 0 0 1 -2.693 2.956 4.335 4.335 0 0 1 -3.835-1.066z" fill="#27314c"/><path d="m55.966 17.233a2.633 2.633 0 0 0 3.277-.949 1.911 1.911 0 0 1 -3.277.949z" fill="#27314c"/><path d="m81.611 90.455a78.226 78.226 0 0 1 -34.093 4.245l-8.189 10.872c3.465-7.264 4.419-18.689 4.419-18.689 11.091 7.517 37.863 3.572 37.863 3.572z" fill="#bd8d5a" opacity=".5"/></svg>